<?xml version="1.0" encoding="utf-8" standalone="no"?>
<!DOCTYPE svg PUBLIC "-//W3C//DTD SVG 1.1//EN"
  "http://www.w3.org/Graphics/SVG/1.1/DTD/svg11.dtd">
<svg xmlns:xlink="http://www.w3.org/1999/xlink" width="432pt" height="216pt" viewBox="0 0 432 216" xmlns="http://www.w3.org/2000/svg" version="1.1">
 <metadata>
  <rdf:RDF xmlns:dc="http://purl.org/dc/elements/1.1/" xmlns:cc="http://creativecommons.org/ns#" xmlns:rdf="http://www.w3.org/1999/02/22-rdf-syntax-ns#">
   <cc:Work>
    <dc:type rdf:resource="http://purl.org/dc/dcmitype/StillImage"/>
    <dc:date>2024-07-26T09:09:32.257948</dc:date>
    <dc:format>image/svg+xml</dc:format>
    <dc:creator>
     <cc:Agent>
      <dc:title>Matplotlib v3.8.4, https://matplotlib.org/</dc:title>
     </cc:Agent>
    </dc:creator>
   </cc:Work>
  </rdf:RDF>
 </metadata>
 <defs>
  <style type="text/css">*{stroke-linejoin: round; stroke-linecap: butt}</style>
 </defs>
 <g id="figure_1">
  <g id="patch_1">
   <path d="M 0 216 
L 432 216 
L 432 0 
L 0 0 
z
" style="fill: #f2d8bd"/>
  </g>
  <g id="axes_1">
   <g id="legend_1">
    <g id="patch_2">
     <path d="M 173.830781 87.207187 
L 209.830781 87.207187 
L 209.830781 74.607187 
L 173.830781 74.607187 
z
" style="fill: #ff7700; stroke: #ff7700; stroke-linejoin: miter"/>
    </g>
    <g id="text_1">
     <!-- PPO -->
     <g transform="translate(224.230781 87.207187) scale(0.18 -0.18)">
      <defs>
       <path id="SegoeUIThis-50" d="M 1113 1694 
L 1113 0 
L 588 0 
L 588 4481 
L 1819 4481 
Q 2538 4481 2933 4131 
Q 3328 3781 3328 3144 
Q 3328 2506 2889 2100 
Q 2450 1694 1703 1694 
L 1113 1694 
z
M 1113 4006 
L 1113 2169 
L 1663 2169 
Q 2206 2169 2492 2417 
Q 2778 2666 2778 3119 
Q 2778 4006 1728 4006 
L 1113 4006 
z
" transform="scale(0.015625)"/>
       <path id="SegoeUIThis-4f" d="M 2394 -75 
Q 1441 -75 867 553 
Q 294 1181 294 2188 
Q 294 3269 878 3912 
Q 1463 4556 2469 4556 
Q 3397 4556 3964 3931 
Q 4531 3306 4531 2297 
Q 4531 1200 3950 562 
Q 3369 -75 2394 -75 
z
M 2431 4081 
Q 1725 4081 1284 3572 
Q 844 3063 844 2234 
Q 844 1406 1273 901 
Q 1703 397 2394 397 
Q 3131 397 3556 878 
Q 3981 1359 3981 2225 
Q 3981 3113 3568 3597 
Q 3156 4081 2431 4081 
z
" transform="scale(0.015625)"/>
      </defs>
      <use xlink:href="#SegoeUIThis-50"/>
      <use xlink:href="#SegoeUIThis-50" x="56.005859"/>
      <use xlink:href="#SegoeUIThis-4f" x="112.011719"/>
     </g>
    </g>
    <g id="patch_3">
     <path d="M 173.830781 113.672812 
L 209.830781 113.672812 
L 209.830781 101.072812 
L 173.830781 101.072812 
z
" style="fill: #004777; stroke: #004777; stroke-linejoin: miter"/>
    </g>
    <g id="text_2">
     <!-- SHAC -->
     <g transform="translate(224.230781 113.672812) scale(0.18 -0.18)">
      <defs>
       <path id="SegoeUIThis-53" d="M 378 181 
L 378 800 
Q 484 706 632 631 
Q 781 556 945 504 
Q 1109 453 1275 425 
Q 1441 397 1581 397 
Q 2066 397 2305 576 
Q 2544 756 2544 1094 
Q 2544 1275 2464 1409 
Q 2384 1544 2243 1655 
Q 2103 1766 1911 1867 
Q 1719 1969 1497 2081 
Q 1263 2200 1059 2322 
Q 856 2444 706 2591 
Q 556 2738 470 2923 
Q 384 3109 384 3359 
Q 384 3666 518 3892 
Q 653 4119 872 4266 
Q 1091 4413 1370 4484 
Q 1650 4556 1941 4556 
Q 2603 4556 2906 4397 
L 2906 3806 
Q 2509 4081 1888 4081 
Q 1716 4081 1544 4045 
Q 1372 4009 1237 3928 
Q 1103 3847 1018 3719 
Q 934 3591 934 3406 
Q 934 3234 998 3109 
Q 1063 2984 1188 2881 
Q 1313 2778 1492 2681 
Q 1672 2584 1906 2469 
Q 2147 2350 2362 2219 
Q 2578 2088 2740 1928 
Q 2903 1769 2998 1575 
Q 3094 1381 3094 1131 
Q 3094 800 2964 570 
Q 2834 341 2614 197 
Q 2394 53 2106 -11 
Q 1819 -75 1500 -75 
Q 1394 -75 1237 -58 
Q 1081 -41 918 -8 
Q 756 25 611 73 
Q 466 122 378 181 
z
" transform="scale(0.015625)"/>
       <path id="SegoeUIThis-48" d="M 3956 0 
L 3431 0 
L 3431 2044 
L 1113 2044 
L 1113 0 
L 588 0 
L 588 4481 
L 1113 4481 
L 1113 2516 
L 3431 2516 
L 3431 4481 
L 3956 4481 
L 3956 0 
z
" transform="scale(0.015625)"/>
       <path id="SegoeUIThis-41" d="M 4056 0 
L 3475 0 
L 3000 1256 
L 1100 1256 
L 653 0 
L 69 0 
L 1788 4481 
L 2331 4481 
L 4056 0 
z
M 2828 1728 
L 2125 3638 
Q 2091 3731 2056 3938 
L 2044 3938 
Q 2013 3747 1972 3638 
L 1275 1728 
L 2828 1728 
z
" transform="scale(0.015625)"/>
       <path id="SegoeUIThis-43" d="M 3638 188 
Q 3141 -75 2400 -75 
Q 1444 -75 869 540 
Q 294 1156 294 2156 
Q 294 3231 941 3893 
Q 1588 4556 2581 4556 
Q 3219 4556 3638 4372 
L 3638 3813 
Q 3156 4081 2575 4081 
Q 1803 4081 1323 3565 
Q 844 3050 844 2188 
Q 844 1369 1292 883 
Q 1741 397 2469 397 
Q 3144 397 3638 697 
L 3638 188 
z
" transform="scale(0.015625)"/>
      </defs>
      <use xlink:href="#SegoeUIThis-53"/>
      <use xlink:href="#SegoeUIThis-48" x="53.125"/>
      <use xlink:href="#SegoeUIThis-41" x="124.121094"/>
      <use xlink:href="#SegoeUIThis-43" x="186.623047"/>
     </g>
    </g>
    <g id="patch_4">
     <path d="M 173.830781 140.138437 
L 209.830781 140.138437 
L 209.830781 127.538437 
L 173.830781 127.538437 
z
" style="fill: #b72b34; stroke: #b72b34; stroke-linejoin: miter"/>
    </g>
    <g id="text_3">
     <!-- SAC -->
     <g transform="translate(224.230781 140.138437) scale(0.18 -0.18)">
      <use xlink:href="#SegoeUIThis-53"/>
      <use xlink:href="#SegoeUIThis-41" x="53.125"/>
      <use xlink:href="#SegoeUIThis-43" x="115.626953"/>
     </g>
    </g>
   </g>
  </g>
 </g>
</svg>
