<?xml version="1.0" encoding="utf-8" standalone="no"?>
<!DOCTYPE svg PUBLIC "-//W3C//DTD SVG 1.1//EN"
  "http://www.w3.org/Graphics/SVG/1.1/DTD/svg11.dtd">
<svg xmlns:xlink="http://www.w3.org/1999/xlink" width="864pt" height="576pt" viewBox="0 0 864 576" xmlns="http://www.w3.org/2000/svg" version="1.1">
 <metadata>
  <rdf:RDF xmlns:dc="http://purl.org/dc/elements/1.1/" xmlns:cc="http://creativecommons.org/ns#" xmlns:rdf="http://www.w3.org/1999/02/22-rdf-syntax-ns#">
   <cc:Work>
    <dc:type rdf:resource="http://purl.org/dc/dcmitype/StillImage"/>
    <dc:date>2024-07-25T14:54:56.792399</dc:date>
    <dc:format>image/svg+xml</dc:format>
    <dc:creator>
     <cc:Agent>
      <dc:title>Matplotlib v3.8.4, https://matplotlib.org/</dc:title>
     </cc:Agent>
    </dc:creator>
   </cc:Work>
  </rdf:RDF>
 </metadata>
 <defs>
  <style type="text/css">*{stroke-linejoin: round; stroke-linecap: butt}</style>
 </defs>
 <g id="figure_1">
  <g id="patch_1">
   <path d="M 0 576 
L 864 576 
L 864 0 
L 0 0 
z
" style="fill: #ffffff"/>
  </g>
  <g id="axes_1">
   <g id="patch_2">
    <path d="M 76.16 529.72 
L 853.2 529.72 
L 853.2 32.64 
L 76.16 32.64 
z
" style="fill: #ffffff"/>
   </g>
   <g id="PolyCollection_1">
    <path d="M 111.48 111.536898 
L 111.48 148.611434 
L 118.615354 316.862311 
L 125.750707 360.17407 
L 132.886061 378.697884 
L 140.021414 393.9336 
L 147.156768 393.210731 
L 154.292121 286.709912 
L 161.427475 251.641067 
L 168.562828 283.947732 
L 175.698182 206.638936 
L 182.833535 220.373357 
L 189.968889 201.731999 
L 197.104242 201.846547 
L 204.239596 201.53465 
L 211.374949 200.257605 
L 218.510303 200.239919 
L 225.645657 198.929079 
L 232.78101 199.230294 
L 239.916364 198.649884 
L 247.051717 197.396042 
L 254.187071 197.642648 
L 261.322424 196.706824 
L 268.457778 212.384683 
L 275.593131 212.28278 
L 282.728485 212.024189 
L 289.863838 212.240698 
L 296.999192 221.715232 
L 304.134545 211.115405 
L 311.269899 301.752553 
L 318.405253 332.81998 
L 325.540606 237.737946 
L 332.67596 237.617061 
L 339.811313 268.338174 
L 346.946667 237.119116 
L 354.08202 267.86648 
L 361.217374 236.676612 
L 368.352727 256.852872 
L 375.488081 256.287493 
L 382.623434 282.011279 
L 389.758788 281.708888 
L 396.894141 281.339235 
L 404.029495 281.581046 
L 411.164848 286.417096 
L 418.300202 280.759625 
L 425.435556 367.131393 
L 432.570909 285.647703 
L 439.706263 285.653659 
L 446.841616 288.259226 
L 453.97697 285.337891 
L 461.112323 323.940725 
L 468.247677 285.157681 
L 475.38303 312.850062 
L 482.518384 330.162111 
L 489.653737 341.000592 
L 496.789091 332.048747 
L 503.924444 331.652644 
L 511.059798 415.16656 
L 518.195152 406.763993 
L 525.330505 359.2799 
L 532.465859 358.923958 
L 539.601212 358.060558 
L 546.736566 358.840694 
L 553.871919 390.379081 
L 561.007273 363.135508 
L 568.142626 358.067264 
L 575.27798 357.787977 
L 582.413333 398.135378 
L 589.548687 404.855729 
L 596.68404 409.603071 
L 603.819394 428.297148 
L 610.954747 379.574433 
L 618.090101 432.244296 
L 625.225455 429.491478 
L 632.360808 414.738985 
L 639.496162 430.471241 
L 646.631515 405.434187 
L 653.766869 408.738678 
L 660.902222 427.270841 
L 668.037576 433.131509 
L 675.172929 446.142707 
L 682.308283 479.919575 
L 689.443636 443.336429 
L 696.57899 450.851453 
L 703.714343 442.238216 
L 710.849697 425.207252 
L 717.985051 451.216112 
L 725.120404 451.399372 
L 732.255758 469.639905 
L 739.391111 448.418728 
L 746.526465 484.706124 
L 753.661818 456.822415 
L 760.797172 469.746903 
L 767.932525 492.116893 
L 775.067879 465.839932 
L 782.203232 482.582176 
L 789.338586 458.69398 
L 796.473939 504.828402 
L 803.609293 483.305479 
L 810.744646 504.362856 
L 817.88 507.125455 
L 817.88 273.307795 
L 817.88 273.307795 
L 810.744646 257.668194 
L 803.609293 260.194294 
L 796.473939 270.729847 
L 789.338586 278.033604 
L 782.203232 275.44597 
L 775.067879 249.462722 
L 767.932525 283.842211 
L 760.797172 267.173507 
L 753.661818 237.916304 
L 746.526465 252.299206 
L 739.391111 203.950554 
L 732.255758 224.183195 
L 725.120404 222.451879 
L 717.985051 222.477082 
L 710.849697 228.233445 
L 703.714343 253.269751 
L 696.57899 222.874793 
L 689.443636 232.309227 
L 682.308283 234.485568 
L 675.172929 208.312481 
L 668.037576 199.850404 
L 660.902222 249.1935 
L 653.766869 225.464783 
L 646.631515 207.37329 
L 639.496162 249.650272 
L 632.360808 219.841411 
L 625.225455 228.881458 
L 618.090101 216.117905 
L 610.954747 213.408576 
L 603.819394 227.472221 
L 596.68404 226.267367 
L 589.548687 231.316126 
L 582.413333 195.807999 
L 575.27798 193.747406 
L 568.142626 193.919144 
L 561.007273 209.786303 
L 553.871919 224.731017 
L 546.736566 193.874146 
L 539.601212 173.438112 
L 532.465859 193.76696 
L 525.330505 193.974398 
L 518.195152 201.519761 
L 511.059798 219.977849 
L 503.924444 179.714728 
L 496.789091 179.849183 
L 489.653737 192.598818 
L 482.518384 160.859035 
L 475.38303 157.16967 
L 468.247677 164.29035 
L 461.112323 167.640211 
L 453.97697 164.050242 
L 446.841616 182.703677 
L 439.706263 164.279304 
L 432.570909 164.10998 
L 425.435556 167.253159 
L 418.300202 148.259088 
L 411.164848 164.108398 
L 404.029495 148.180602 
L 396.894141 148.272176 
L 389.758788 148.308592 
L 382.623434 148.137573 
L 375.488081 152.743532 
L 368.352727 152.706844 
L 361.217374 151.829618 
L 354.08202 142.487496 
L 346.946667 151.626076 
L 339.811313 142.557584 
L 332.67596 151.769035 
L 325.540606 151.770716 
L 318.405253 122.359773 
L 311.269899 132.573307 
L 304.134545 158.031176 
L 296.999192 168.707709 
L 289.863838 158.047928 
L 282.728485 158.02807 
L 275.593131 158.097874 
L 268.457778 158.292845 
L 261.322424 152.56591 
L 254.187071 152.140333 
L 247.051717 152.596386 
L 239.916364 152.692766 
L 232.78101 151.913698 
L 225.645657 152.57852 
L 218.510303 152.529803 
L 211.374949 152.375047 
L 204.239596 152.465392 
L 197.104242 152.902462 
L 189.968889 153.045981 
L 182.833535 159.784117 
L 175.698182 152.947007 
L 168.562828 147.529431 
L 161.427475 139.651856 
L 154.292121 110.203213 
L 147.156768 74.987579 
L 140.021414 76.800512 
L 132.886061 85.054042 
L 125.750707 99.409143 
L 118.615354 75.080914 
L 111.48 111.536898 
z
" clip-path="url(#p057708bd3c)" style="fill: #1f77b4; fill-opacity: 0.3"/>
   </g>
   <g id="PolyCollection_2">
    <path d="M 111.48 56.118256 
L 111.48 310.28122 
L 118.615354 312.374707 
L 125.750707 310.380945 
L 132.886061 312.048839 
L 140.021414 313.456005 
L 147.156768 316.30035 
L 154.292121 310.869076 
L 161.427475 316.817862 
L 168.562828 310.04245 
L 175.698182 310.368278 
L 182.833535 311.391857 
L 189.968889 313.139264 
L 197.104242 316.891461 
L 204.239596 325.824464 
L 211.374949 326.706938 
L 218.510303 319.519427 
L 225.645657 318.266132 
L 232.78101 323.794523 
L 239.916364 322.928287 
L 247.051717 321.850574 
L 254.187071 321.735694 
L 261.322424 322.205568 
L 268.457778 322.014815 
L 275.593131 321.089186 
L 282.728485 320.762024 
L 289.863838 320.885682 
L 296.999192 309.176083 
L 304.134545 318.620785 
L 311.269899 313.641063 
L 318.405253 295.679636 
L 325.540606 295.78182 
L 332.67596 295.371825 
L 339.811313 319.394427 
L 346.946667 316.047853 
L 354.08202 304.515886 
L 361.217374 292.926889 
L 368.352727 295.08254 
L 375.488081 293.20767 
L 382.623434 292.484617 
L 389.758788 292.67926 
L 396.894141 292.714542 
L 404.029495 292.535899 
L 411.164848 292.317276 
L 418.300202 300.786764 
L 425.435556 305.890916 
L 432.570909 300.951398 
L 439.706263 283.006565 
L 446.841616 300.128969 
L 453.97697 282.791605 
L 461.112323 369.454888 
L 468.247677 282.071465 
L 475.38303 306.746917 
L 482.518384 371.65488 
L 489.653737 352.764968 
L 496.789091 354.22244 
L 503.924444 381.056813 
L 511.059798 392.708778 
L 518.195152 362.487943 
L 525.330505 391.970937 
L 532.465859 330.189466 
L 539.601212 368.416386 
L 546.736566 397.786913 
L 553.871919 393.937878 
L 561.007273 369.617137 
L 568.142626 406.974248 
L 575.27798 346.812813 
L 582.413333 368.687147 
L 589.548687 407.204267 
L 596.68404 446.605315 
L 603.819394 388.486615 
L 610.954747 367.190752 
L 618.090101 372.885298 
L 625.225455 391.437319 
L 632.360808 427.441915 
L 639.496162 404.883799 
L 646.631515 403.785861 
L 653.766869 402.169347 
L 660.902222 431.353651 
L 668.037576 395.05238 
L 675.172929 404.20449 
L 682.308283 409.22451 
L 689.443636 421.631474 
L 696.57899 397.610023 
L 703.714343 405.875134 
L 710.849697 424.867847 
L 717.985051 425.766993 
L 725.120404 425.227299 
L 732.255758 423.618142 
L 739.391111 415.642447 
L 746.526465 411.583863 
L 753.661818 412.557496 
L 760.797172 424.133595 
L 767.932525 440.083875 
L 775.067879 447.678949 
L 782.203232 419.906196 
L 789.338586 411.395916 
L 796.473939 405.164925 
L 803.609293 411.291302 
L 810.744646 430.066039 
L 817.88 439.184099 
L 817.88 321.336452 
L 817.88 321.336452 
L 810.744646 314.703794 
L 803.609293 309.290838 
L 796.473939 246.244769 
L 789.338586 309.993046 
L 782.203232 280.020128 
L 775.067879 281.799815 
L 767.932525 318.698026 
L 760.797172 290.967307 
L 753.661818 249.478533 
L 746.526465 310.579116 
L 739.391111 325.282523 
L 732.255758 325.348548 
L 725.120404 274.564486 
L 717.985051 312.081167 
L 710.849697 265.023405 
L 703.714343 250.545693 
L 696.57899 274.443125 
L 689.443636 255.931661 
L 682.308283 262.472506 
L 675.172929 261.890859 
L 668.037576 231.911461 
L 660.902222 272.774366 
L 653.766869 227.314098 
L 646.631515 230.014943 
L 639.496162 250.029547 
L 632.360808 240.164814 
L 625.225455 207.54998 
L 618.090101 227.751931 
L 610.954747 172.94856 
L 603.819394 208.177874 
L 596.68404 235.737255 
L 589.548687 151.586443 
L 582.413333 188.526999 
L 575.27798 193.331568 
L 568.142626 187.024948 
L 561.007273 188.131524 
L 553.871919 146.208466 
L 546.736566 163.756116 
L 539.601212 184.536711 
L 532.465859 162.302281 
L 525.330505 148.313758 
L 518.195152 154.144755 
L 511.059798 171.402703 
L 503.924444 157.870424 
L 496.789091 146.820959 
L 489.653737 166.36667 
L 482.518384 128.034916 
L 475.38303 148.506105 
L 468.247677 155.627029 
L 461.112323 128.445024 
L 453.97697 155.822481 
L 446.841616 133.948389 
L 439.706263 155.786078 
L 432.570909 133.247892 
L 425.435556 148.970297 
L 418.300202 133.818902 
L 411.164848 121.119223 
L 404.029495 121.001898 
L 396.894141 120.602388 
L 389.758788 120.383972 
L 382.623434 120.24677 
L 375.488081 120.125725 
L 368.352727 119.589596 
L 361.217374 120.612035 
L 354.08202 115.801496 
L 346.946667 113.128471 
L 339.811313 111.967018 
L 332.67596 119.39905 
L 325.540606 119.619789 
L 318.405253 119.640365 
L 311.269899 114.362512 
L 304.134545 112.930617 
L 296.999192 115.291949 
L 289.863838 112.866005 
L 282.728485 93.49498 
L 275.593131 93.770459 
L 268.457778 93.381074 
L 261.322424 92.03008 
L 254.187071 92.941984 
L 247.051717 93.553906 
L 239.916364 94.681082 
L 232.78101 95.11176 
L 225.645657 79.066506 
L 218.510303 80.825889 
L 211.374949 88.664566 
L 204.239596 87.10936 
L 197.104242 72.781926 
L 189.968889 65.341074 
L 182.833535 62.272821 
L 175.698182 60.867674 
L 168.562828 59.601194 
L 161.427475 67.029936 
L 154.292121 57.980419 
L 147.156768 66.272204 
L 140.021414 56.010742 
L 132.886061 56.16897 
L 125.750707 56.030659 
L 118.615354 55.234545 
L 111.48 56.118256 
z
" clip-path="url(#p057708bd3c)" style="fill: #ff7f0e; fill-opacity: 0.3"/>
   </g>
   <g id="PolyCollection_3">
    <path d="M 111.48 135.477497 
L 111.48 173.057779 
L 118.615354 172.533068 
L 125.750707 172.283182 
L 132.886061 172.365842 
L 140.021414 171.207422 
L 147.156768 170.983211 
L 154.292121 170.795131 
L 161.427475 170.650298 
L 168.562828 170.151991 
L 175.698182 170.034776 
L 182.833535 169.65214 
L 189.968889 169.869906 
L 197.104242 169.645223 
L 204.239596 169.134754 
L 211.374949 168.866919 
L 218.510303 169.389922 
L 225.645657 169.470366 
L 232.78101 169.233206 
L 239.916364 167.170302 
L 247.051717 169.096884 
L 254.187071 168.958564 
L 261.322424 165.979806 
L 268.457778 165.83329 
L 275.593131 164.79383 
L 282.728485 164.535642 
L 289.863838 164.633999 
L 296.999192 164.370165 
L 304.134545 164.307054 
L 311.269899 164.282874 
L 318.405253 164.248247 
L 325.540606 163.952881 
L 332.67596 163.882776 
L 339.811313 163.865297 
L 346.946667 163.588447 
L 354.08202 163.613928 
L 361.217374 163.780394 
L 368.352727 163.668984 
L 375.488081 163.465177 
L 382.623434 163.552221 
L 389.758788 163.57693 
L 396.894141 163.600841 
L 404.029495 163.561183 
L 411.164848 163.467321 
L 418.300202 163.355722 
L 425.435556 163.32923 
L 432.570909 163.255619 
L 439.706263 163.298658 
L 446.841616 163.287272 
L 453.97697 163.328919 
L 461.112323 163.161682 
L 468.247677 163.165737 
L 475.38303 163.376746 
L 482.518384 163.102507 
L 489.653737 163.217398 
L 496.789091 192.261137 
L 503.924444 192.067208 
L 511.059798 191.683711 
L 518.195152 191.447202 
L 525.330505 191.077191 
L 532.465859 191.059383 
L 539.601212 190.051656 
L 546.736566 189.668516 
L 553.871919 189.144837 
L 561.007273 189.119737 
L 568.142626 188.769551 
L 575.27798 188.867239 
L 582.413333 188.749827 
L 589.548687 204.788556 
L 596.68404 204.553711 
L 603.819394 204.757423 
L 610.954747 204.266191 
L 618.090101 204.262966 
L 625.225455 204.575882 
L 632.360808 204.185146 
L 639.496162 203.936729 
L 646.631515 204.112655 
L 653.766869 204.472409 
L 660.902222 204.185569 
L 668.037576 204.078068 
L 675.172929 204.506711 
L 682.308283 230.398843 
L 689.443636 230.428179 
L 696.57899 230.085035 
L 703.714343 230.282511 
L 710.849697 229.89597 
L 717.985051 229.908846 
L 725.120404 229.483026 
L 732.255758 229.624727 
L 739.391111 229.171492 
L 746.526465 229.186724 
L 753.661818 229.18886 
L 760.797172 229.228291 
L 767.932525 229.114285 
L 775.067879 229.220895 
L 782.203232 228.941159 
L 789.338586 237.072033 
L 796.473939 260.05918 
L 803.609293 241.841376 
L 810.744646 316.177952 
L 817.88 241.747288 
L 817.88 181.801504 
L 817.88 181.801504 
L 810.744646 171.677443 
L 803.609293 181.665991 
L 796.473939 184.731209 
L 789.338586 166.508601 
L 782.203232 153.400848 
L 775.067879 153.405281 
L 767.932525 153.368598 
L 760.797172 153.188471 
L 753.661818 153.28944 
L 746.526465 153.148552 
L 739.391111 153.226115 
L 732.255758 153.190921 
L 725.120404 153.224057 
L 717.985051 153.319974 
L 710.849697 153.181888 
L 703.714343 153.188742 
L 696.57899 153.187742 
L 689.443636 152.980699 
L 682.308283 153.160932 
L 675.172929 158.518199 
L 668.037576 158.50298 
L 660.902222 158.574571 
L 653.766869 158.565552 
L 646.631515 158.534803 
L 639.496162 158.567212 
L 632.360808 158.581242 
L 625.225455 158.452049 
L 618.090101 158.477861 
L 610.954747 158.549374 
L 603.819394 158.491732 
L 596.68404 158.51206 
L 589.548687 158.399412 
L 582.413333 153.535605 
L 575.27798 153.475452 
L 568.142626 153.513941 
L 561.007273 153.390336 
L 553.871919 153.270021 
L 546.736566 153.155243 
L 539.601212 152.884819 
L 532.465859 152.639173 
L 525.330505 152.529092 
L 518.195152 152.360602 
L 511.059798 152.339056 
L 503.924444 152.196828 
L 496.789091 152.084715 
L 489.653737 159.967675 
L 482.518384 159.767173 
L 475.38303 159.592409 
L 468.247677 159.475072 
L 461.112323 159.458954 
L 453.97697 159.457264 
L 446.841616 159.304162 
L 439.706263 159.267389 
L 432.570909 159.111678 
L 425.435556 159.18274 
L 418.300202 158.823106 
L 411.164848 159.084208 
L 404.029495 158.876017 
L 396.894141 158.694686 
L 389.758788 158.596239 
L 382.623434 158.48391 
L 375.488081 158.410264 
L 368.352727 158.407399 
L 361.217374 158.552381 
L 354.08202 158.275508 
L 346.946667 158.189008 
L 339.811313 158.048687 
L 332.67596 157.953726 
L 325.540606 157.814487 
L 318.405253 157.872451 
L 311.269899 157.768754 
L 304.134545 157.801941 
L 296.999192 157.634029 
L 289.863838 157.622323 
L 282.728485 157.488306 
L 275.593131 157.347675 
L 268.457778 157.220131 
L 261.322424 157.243876 
L 254.187071 132.858921 
L 247.051717 132.540944 
L 239.916364 136.527114 
L 232.78101 132.040607 
L 225.645657 131.845832 
L 218.510303 131.894258 
L 211.374949 131.956452 
L 204.239596 131.817061 
L 197.104242 131.818619 
L 189.968889 131.680638 
L 182.833535 131.578866 
L 175.698182 131.64677 
L 168.562828 131.795824 
L 161.427475 131.895204 
L 154.292121 132.143704 
L 147.156768 132.797352 
L 140.021414 133.18862 
L 132.886061 133.741962 
L 125.750707 134.119365 
L 118.615354 135.005056 
L 111.48 135.477497 
z
" clip-path="url(#p057708bd3c)" style="fill: #2ca02c; fill-opacity: 0.3"/>
   </g>
   <g id="matplotlib.axis_1">
    <g id="xtick_1">
     <g id="line2d_1">
      <path d="M 111.48 529.72 
L 111.48 32.64 
" clip-path="url(#p057708bd3c)" style="fill: none; stroke: #b0b0b0; stroke-width: 0.8; stroke-linecap: square"/>
     </g>
     <g id="line2d_2">
      <defs>
       <path id="m351383934d" d="M 0 0 
L 0 3.5 
" style="stroke: #000000; stroke-width: 0.8"/>
      </defs>
      <g>
       <use xlink:href="#m351383934d" x="111.48" y="529.72" style="stroke: #000000; stroke-width: 0.8"/>
      </g>
     </g>
     <g id="text_1">
      <!-- 0.2 -->
      <g transform="translate(101.938125 545.838125) scale(0.12 -0.12)">
       <defs>
        <path id="DejaVuSans-30" d="M 2034 4250 
Q 1547 4250 1301 3770 
Q 1056 3291 1056 2328 
Q 1056 1369 1301 889 
Q 1547 409 2034 409 
Q 2525 409 2770 889 
Q 3016 1369 3016 2328 
Q 3016 3291 2770 3770 
Q 2525 4250 2034 4250 
z
M 2034 4750 
Q 2819 4750 3233 4129 
Q 3647 3509 3647 2328 
Q 3647 1150 3233 529 
Q 2819 -91 2034 -91 
Q 1250 -91 836 529 
Q 422 1150 422 2328 
Q 422 3509 836 4129 
Q 1250 4750 2034 4750 
z
" transform="scale(0.015625)"/>
        <path id="DejaVuSans-2e" d="M 684 794 
L 1344 794 
L 1344 0 
L 684 0 
L 684 794 
z
" transform="scale(0.015625)"/>
        <path id="DejaVuSans-32" d="M 1228 531 
L 3431 531 
L 3431 0 
L 469 0 
L 469 531 
Q 828 903 1448 1529 
Q 2069 2156 2228 2338 
Q 2531 2678 2651 2914 
Q 2772 3150 2772 3378 
Q 2772 3750 2511 3984 
Q 2250 4219 1831 4219 
Q 1534 4219 1204 4116 
Q 875 4013 500 3803 
L 500 4441 
Q 881 4594 1212 4672 
Q 1544 4750 1819 4750 
Q 2544 4750 2975 4387 
Q 3406 4025 3406 3419 
Q 3406 3131 3298 2873 
Q 3191 2616 2906 2266 
Q 2828 2175 2409 1742 
Q 1991 1309 1228 531 
z
" transform="scale(0.015625)"/>
       </defs>
       <use xlink:href="#DejaVuSans-30"/>
       <use xlink:href="#DejaVuSans-2e" x="63.623047"/>
       <use xlink:href="#DejaVuSans-32" x="95.410156"/>
      </g>
     </g>
    </g>
    <g id="xtick_2">
     <g id="line2d_3">
      <path d="M 199.78 529.72 
L 199.78 32.64 
" clip-path="url(#p057708bd3c)" style="fill: none; stroke: #b0b0b0; stroke-width: 0.8; stroke-linecap: square"/>
     </g>
     <g id="line2d_4">
      <g>
       <use xlink:href="#m351383934d" x="199.78" y="529.72" style="stroke: #000000; stroke-width: 0.8"/>
      </g>
     </g>
     <g id="text_2">
      <!-- 0.4 -->
      <g transform="translate(190.238125 545.838125) scale(0.12 -0.12)">
       <defs>
        <path id="DejaVuSans-34" d="M 2419 4116 
L 825 1625 
L 2419 1625 
L 2419 4116 
z
M 2253 4666 
L 3047 4666 
L 3047 1625 
L 3713 1625 
L 3713 1100 
L 3047 1100 
L 3047 0 
L 2419 0 
L 2419 1100 
L 313 1100 
L 313 1709 
L 2253 4666 
z
" transform="scale(0.015625)"/>
       </defs>
       <use xlink:href="#DejaVuSans-30"/>
       <use xlink:href="#DejaVuSans-2e" x="63.623047"/>
       <use xlink:href="#DejaVuSans-34" x="95.410156"/>
      </g>
     </g>
    </g>
    <g id="xtick_3">
     <g id="line2d_5">
      <path d="M 288.08 529.72 
L 288.08 32.64 
" clip-path="url(#p057708bd3c)" style="fill: none; stroke: #b0b0b0; stroke-width: 0.8; stroke-linecap: square"/>
     </g>
     <g id="line2d_6">
      <g>
       <use xlink:href="#m351383934d" x="288.08" y="529.72" style="stroke: #000000; stroke-width: 0.8"/>
      </g>
     </g>
     <g id="text_3">
      <!-- 0.6 -->
      <g transform="translate(278.538125 545.838125) scale(0.12 -0.12)">
       <defs>
        <path id="DejaVuSans-36" d="M 2113 2584 
Q 1688 2584 1439 2293 
Q 1191 2003 1191 1497 
Q 1191 994 1439 701 
Q 1688 409 2113 409 
Q 2538 409 2786 701 
Q 3034 994 3034 1497 
Q 3034 2003 2786 2293 
Q 2538 2584 2113 2584 
z
M 3366 4563 
L 3366 3988 
Q 3128 4100 2886 4159 
Q 2644 4219 2406 4219 
Q 1781 4219 1451 3797 
Q 1122 3375 1075 2522 
Q 1259 2794 1537 2939 
Q 1816 3084 2150 3084 
Q 2853 3084 3261 2657 
Q 3669 2231 3669 1497 
Q 3669 778 3244 343 
Q 2819 -91 2113 -91 
Q 1303 -91 875 529 
Q 447 1150 447 2328 
Q 447 3434 972 4092 
Q 1497 4750 2381 4750 
Q 2619 4750 2861 4703 
Q 3103 4656 3366 4563 
z
" transform="scale(0.015625)"/>
       </defs>
       <use xlink:href="#DejaVuSans-30"/>
       <use xlink:href="#DejaVuSans-2e" x="63.623047"/>
       <use xlink:href="#DejaVuSans-36" x="95.410156"/>
      </g>
     </g>
    </g>
    <g id="xtick_4">
     <g id="line2d_7">
      <path d="M 376.38 529.72 
L 376.38 32.64 
" clip-path="url(#p057708bd3c)" style="fill: none; stroke: #b0b0b0; stroke-width: 0.8; stroke-linecap: square"/>
     </g>
     <g id="line2d_8">
      <g>
       <use xlink:href="#m351383934d" x="376.38" y="529.72" style="stroke: #000000; stroke-width: 0.8"/>
      </g>
     </g>
     <g id="text_4">
      <!-- 0.8 -->
      <g transform="translate(366.838125 545.838125) scale(0.12 -0.12)">
       <defs>
        <path id="DejaVuSans-38" d="M 2034 2216 
Q 1584 2216 1326 1975 
Q 1069 1734 1069 1313 
Q 1069 891 1326 650 
Q 1584 409 2034 409 
Q 2484 409 2743 651 
Q 3003 894 3003 1313 
Q 3003 1734 2745 1975 
Q 2488 2216 2034 2216 
z
M 1403 2484 
Q 997 2584 770 2862 
Q 544 3141 544 3541 
Q 544 4100 942 4425 
Q 1341 4750 2034 4750 
Q 2731 4750 3128 4425 
Q 3525 4100 3525 3541 
Q 3525 3141 3298 2862 
Q 3072 2584 2669 2484 
Q 3125 2378 3379 2068 
Q 3634 1759 3634 1313 
Q 3634 634 3220 271 
Q 2806 -91 2034 -91 
Q 1263 -91 848 271 
Q 434 634 434 1313 
Q 434 1759 690 2068 
Q 947 2378 1403 2484 
z
M 1172 3481 
Q 1172 3119 1398 2916 
Q 1625 2713 2034 2713 
Q 2441 2713 2670 2916 
Q 2900 3119 2900 3481 
Q 2900 3844 2670 4047 
Q 2441 4250 2034 4250 
Q 1625 4250 1398 4047 
Q 1172 3844 1172 3481 
z
" transform="scale(0.015625)"/>
       </defs>
       <use xlink:href="#DejaVuSans-30"/>
       <use xlink:href="#DejaVuSans-2e" x="63.623047"/>
       <use xlink:href="#DejaVuSans-38" x="95.410156"/>
      </g>
     </g>
    </g>
    <g id="xtick_5">
     <g id="line2d_9">
      <path d="M 464.68 529.72 
L 464.68 32.64 
" clip-path="url(#p057708bd3c)" style="fill: none; stroke: #b0b0b0; stroke-width: 0.8; stroke-linecap: square"/>
     </g>
     <g id="line2d_10">
      <g>
       <use xlink:href="#m351383934d" x="464.68" y="529.72" style="stroke: #000000; stroke-width: 0.8"/>
      </g>
     </g>
     <g id="text_5">
      <!-- 1.0 -->
      <g transform="translate(455.138125 545.838125) scale(0.12 -0.12)">
       <defs>
        <path id="DejaVuSans-31" d="M 794 531 
L 1825 531 
L 1825 4091 
L 703 3866 
L 703 4441 
L 1819 4666 
L 2450 4666 
L 2450 531 
L 3481 531 
L 3481 0 
L 794 0 
L 794 531 
z
" transform="scale(0.015625)"/>
       </defs>
       <use xlink:href="#DejaVuSans-31"/>
       <use xlink:href="#DejaVuSans-2e" x="63.623047"/>
       <use xlink:href="#DejaVuSans-30" x="95.410156"/>
      </g>
     </g>
    </g>
    <g id="xtick_6">
     <g id="line2d_11">
      <path d="M 552.98 529.72 
L 552.98 32.64 
" clip-path="url(#p057708bd3c)" style="fill: none; stroke: #b0b0b0; stroke-width: 0.8; stroke-linecap: square"/>
     </g>
     <g id="line2d_12">
      <g>
       <use xlink:href="#m351383934d" x="552.98" y="529.72" style="stroke: #000000; stroke-width: 0.8"/>
      </g>
     </g>
     <g id="text_6">
      <!-- 1.2 -->
      <g transform="translate(543.438125 545.838125) scale(0.12 -0.12)">
       <use xlink:href="#DejaVuSans-31"/>
       <use xlink:href="#DejaVuSans-2e" x="63.623047"/>
       <use xlink:href="#DejaVuSans-32" x="95.410156"/>
      </g>
     </g>
    </g>
    <g id="xtick_7">
     <g id="line2d_13">
      <path d="M 641.28 529.72 
L 641.28 32.64 
" clip-path="url(#p057708bd3c)" style="fill: none; stroke: #b0b0b0; stroke-width: 0.8; stroke-linecap: square"/>
     </g>
     <g id="line2d_14">
      <g>
       <use xlink:href="#m351383934d" x="641.28" y="529.72" style="stroke: #000000; stroke-width: 0.8"/>
      </g>
     </g>
     <g id="text_7">
      <!-- 1.4 -->
      <g transform="translate(631.738125 545.838125) scale(0.12 -0.12)">
       <use xlink:href="#DejaVuSans-31"/>
       <use xlink:href="#DejaVuSans-2e" x="63.623047"/>
       <use xlink:href="#DejaVuSans-34" x="95.410156"/>
      </g>
     </g>
    </g>
    <g id="xtick_8">
     <g id="line2d_15">
      <path d="M 729.58 529.72 
L 729.58 32.64 
" clip-path="url(#p057708bd3c)" style="fill: none; stroke: #b0b0b0; stroke-width: 0.8; stroke-linecap: square"/>
     </g>
     <g id="line2d_16">
      <g>
       <use xlink:href="#m351383934d" x="729.58" y="529.72" style="stroke: #000000; stroke-width: 0.8"/>
      </g>
     </g>
     <g id="text_8">
      <!-- 1.6 -->
      <g transform="translate(720.038125 545.838125) scale(0.12 -0.12)">
       <use xlink:href="#DejaVuSans-31"/>
       <use xlink:href="#DejaVuSans-2e" x="63.623047"/>
       <use xlink:href="#DejaVuSans-36" x="95.410156"/>
      </g>
     </g>
    </g>
    <g id="xtick_9">
     <g id="line2d_17">
      <path d="M 817.88 529.72 
L 817.88 32.64 
" clip-path="url(#p057708bd3c)" style="fill: none; stroke: #b0b0b0; stroke-width: 0.8; stroke-linecap: square"/>
     </g>
     <g id="line2d_18">
      <g>
       <use xlink:href="#m351383934d" x="817.88" y="529.72" style="stroke: #000000; stroke-width: 0.8"/>
      </g>
     </g>
     <g id="text_9">
      <!-- 1.8 -->
      <g transform="translate(808.338125 545.838125) scale(0.12 -0.12)">
       <use xlink:href="#DejaVuSans-31"/>
       <use xlink:href="#DejaVuSans-2e" x="63.623047"/>
       <use xlink:href="#DejaVuSans-38" x="95.410156"/>
      </g>
     </g>
    </g>
    <g id="text_10">
     <!-- Pendulum length (m) -->
     <g transform="translate(390.8475 562.971563) scale(0.14 -0.14)">
      <defs>
       <path id="DejaVuSans-50" d="M 1259 4147 
L 1259 2394 
L 2053 2394 
Q 2494 2394 2734 2622 
Q 2975 2850 2975 3272 
Q 2975 3691 2734 3919 
Q 2494 4147 2053 4147 
L 1259 4147 
z
M 628 4666 
L 2053 4666 
Q 2838 4666 3239 4311 
Q 3641 3956 3641 3272 
Q 3641 2581 3239 2228 
Q 2838 1875 2053 1875 
L 1259 1875 
L 1259 0 
L 628 0 
L 628 4666 
z
" transform="scale(0.015625)"/>
       <path id="DejaVuSans-65" d="M 3597 1894 
L 3597 1613 
L 953 1613 
Q 991 1019 1311 708 
Q 1631 397 2203 397 
Q 2534 397 2845 478 
Q 3156 559 3463 722 
L 3463 178 
Q 3153 47 2828 -22 
Q 2503 -91 2169 -91 
Q 1331 -91 842 396 
Q 353 884 353 1716 
Q 353 2575 817 3079 
Q 1281 3584 2069 3584 
Q 2775 3584 3186 3129 
Q 3597 2675 3597 1894 
z
M 3022 2063 
Q 3016 2534 2758 2815 
Q 2500 3097 2075 3097 
Q 1594 3097 1305 2825 
Q 1016 2553 972 2059 
L 3022 2063 
z
" transform="scale(0.015625)"/>
       <path id="DejaVuSans-6e" d="M 3513 2113 
L 3513 0 
L 2938 0 
L 2938 2094 
Q 2938 2591 2744 2837 
Q 2550 3084 2163 3084 
Q 1697 3084 1428 2787 
Q 1159 2491 1159 1978 
L 1159 0 
L 581 0 
L 581 3500 
L 1159 3500 
L 1159 2956 
Q 1366 3272 1645 3428 
Q 1925 3584 2291 3584 
Q 2894 3584 3203 3211 
Q 3513 2838 3513 2113 
z
" transform="scale(0.015625)"/>
       <path id="DejaVuSans-64" d="M 2906 2969 
L 2906 4863 
L 3481 4863 
L 3481 0 
L 2906 0 
L 2906 525 
Q 2725 213 2448 61 
Q 2172 -91 1784 -91 
Q 1150 -91 751 415 
Q 353 922 353 1747 
Q 353 2572 751 3078 
Q 1150 3584 1784 3584 
Q 2172 3584 2448 3432 
Q 2725 3281 2906 2969 
z
M 947 1747 
Q 947 1113 1208 752 
Q 1469 391 1925 391 
Q 2381 391 2643 752 
Q 2906 1113 2906 1747 
Q 2906 2381 2643 2742 
Q 2381 3103 1925 3103 
Q 1469 3103 1208 2742 
Q 947 2381 947 1747 
z
" transform="scale(0.015625)"/>
       <path id="DejaVuSans-75" d="M 544 1381 
L 544 3500 
L 1119 3500 
L 1119 1403 
Q 1119 906 1312 657 
Q 1506 409 1894 409 
Q 2359 409 2629 706 
Q 2900 1003 2900 1516 
L 2900 3500 
L 3475 3500 
L 3475 0 
L 2900 0 
L 2900 538 
Q 2691 219 2414 64 
Q 2138 -91 1772 -91 
Q 1169 -91 856 284 
Q 544 659 544 1381 
z
M 1991 3584 
L 1991 3584 
z
" transform="scale(0.015625)"/>
       <path id="DejaVuSans-6c" d="M 603 4863 
L 1178 4863 
L 1178 0 
L 603 0 
L 603 4863 
z
" transform="scale(0.015625)"/>
       <path id="DejaVuSans-6d" d="M 3328 2828 
Q 3544 3216 3844 3400 
Q 4144 3584 4550 3584 
Q 5097 3584 5394 3201 
Q 5691 2819 5691 2113 
L 5691 0 
L 5113 0 
L 5113 2094 
Q 5113 2597 4934 2840 
Q 4756 3084 4391 3084 
Q 3944 3084 3684 2787 
Q 3425 2491 3425 1978 
L 3425 0 
L 2847 0 
L 2847 2094 
Q 2847 2600 2669 2842 
Q 2491 3084 2119 3084 
Q 1678 3084 1418 2786 
Q 1159 2488 1159 1978 
L 1159 0 
L 581 0 
L 581 3500 
L 1159 3500 
L 1159 2956 
Q 1356 3278 1631 3431 
Q 1906 3584 2284 3584 
Q 2666 3584 2933 3390 
Q 3200 3197 3328 2828 
z
" transform="scale(0.015625)"/>
       <path id="DejaVuSans-20" transform="scale(0.015625)"/>
       <path id="DejaVuSans-67" d="M 2906 1791 
Q 2906 2416 2648 2759 
Q 2391 3103 1925 3103 
Q 1463 3103 1205 2759 
Q 947 2416 947 1791 
Q 947 1169 1205 825 
Q 1463 481 1925 481 
Q 2391 481 2648 825 
Q 2906 1169 2906 1791 
z
M 3481 434 
Q 3481 -459 3084 -895 
Q 2688 -1331 1869 -1331 
Q 1566 -1331 1297 -1286 
Q 1028 -1241 775 -1147 
L 775 -588 
Q 1028 -725 1275 -790 
Q 1522 -856 1778 -856 
Q 2344 -856 2625 -561 
Q 2906 -266 2906 331 
L 2906 616 
Q 2728 306 2450 153 
Q 2172 0 1784 0 
Q 1141 0 747 490 
Q 353 981 353 1791 
Q 353 2603 747 3093 
Q 1141 3584 1784 3584 
Q 2172 3584 2450 3431 
Q 2728 3278 2906 2969 
L 2906 3500 
L 3481 3500 
L 3481 434 
z
" transform="scale(0.015625)"/>
       <path id="DejaVuSans-74" d="M 1172 4494 
L 1172 3500 
L 2356 3500 
L 2356 3053 
L 1172 3053 
L 1172 1153 
Q 1172 725 1289 603 
Q 1406 481 1766 481 
L 2356 481 
L 2356 0 
L 1766 0 
Q 1100 0 847 248 
Q 594 497 594 1153 
L 594 3053 
L 172 3053 
L 172 3500 
L 594 3500 
L 594 4494 
L 1172 4494 
z
" transform="scale(0.015625)"/>
       <path id="DejaVuSans-68" d="M 3513 2113 
L 3513 0 
L 2938 0 
L 2938 2094 
Q 2938 2591 2744 2837 
Q 2550 3084 2163 3084 
Q 1697 3084 1428 2787 
Q 1159 2491 1159 1978 
L 1159 0 
L 581 0 
L 581 4863 
L 1159 4863 
L 1159 2956 
Q 1366 3272 1645 3428 
Q 1925 3584 2291 3584 
Q 2894 3584 3203 3211 
Q 3513 2838 3513 2113 
z
" transform="scale(0.015625)"/>
       <path id="DejaVuSans-28" d="M 1984 4856 
Q 1566 4138 1362 3434 
Q 1159 2731 1159 2009 
Q 1159 1288 1364 580 
Q 1569 -128 1984 -844 
L 1484 -844 
Q 1016 -109 783 600 
Q 550 1309 550 2009 
Q 550 2706 781 3412 
Q 1013 4119 1484 4856 
L 1984 4856 
z
" transform="scale(0.015625)"/>
       <path id="DejaVuSans-29" d="M 513 4856 
L 1013 4856 
Q 1481 4119 1714 3412 
Q 1947 2706 1947 2009 
Q 1947 1309 1714 600 
Q 1481 -109 1013 -844 
L 513 -844 
Q 928 -128 1133 580 
Q 1338 1288 1338 2009 
Q 1338 2731 1133 3434 
Q 928 4138 513 4856 
z
" transform="scale(0.015625)"/>
      </defs>
      <use xlink:href="#DejaVuSans-50"/>
      <use xlink:href="#DejaVuSans-65" x="56.677734"/>
      <use xlink:href="#DejaVuSans-6e" x="118.201172"/>
      <use xlink:href="#DejaVuSans-64" x="181.580078"/>
      <use xlink:href="#DejaVuSans-75" x="245.056641"/>
      <use xlink:href="#DejaVuSans-6c" x="308.435547"/>
      <use xlink:href="#DejaVuSans-75" x="336.21875"/>
      <use xlink:href="#DejaVuSans-6d" x="399.597656"/>
      <use xlink:href="#DejaVuSans-20" x="497.009766"/>
      <use xlink:href="#DejaVuSans-6c" x="528.796875"/>
      <use xlink:href="#DejaVuSans-65" x="556.580078"/>
      <use xlink:href="#DejaVuSans-6e" x="618.103516"/>
      <use xlink:href="#DejaVuSans-67" x="681.482422"/>
      <use xlink:href="#DejaVuSans-74" x="744.958984"/>
      <use xlink:href="#DejaVuSans-68" x="784.167969"/>
      <use xlink:href="#DejaVuSans-20" x="847.546875"/>
      <use xlink:href="#DejaVuSans-28" x="879.333984"/>
      <use xlink:href="#DejaVuSans-6d" x="918.347656"/>
      <use xlink:href="#DejaVuSans-29" x="1015.759766"/>
     </g>
    </g>
   </g>
   <g id="matplotlib.axis_2">
    <g id="ytick_1">
     <g id="line2d_19">
      <path d="M 76.16 529.69787 
L 853.2 529.69787 
" clip-path="url(#p057708bd3c)" style="fill: none; stroke: #b0b0b0; stroke-width: 0.8; stroke-linecap: square"/>
     </g>
     <g id="line2d_20">
      <defs>
       <path id="m556b878004" d="M 0 0 
L -3.5 0 
" style="stroke: #000000; stroke-width: 0.8"/>
      </defs>
      <g>
       <use xlink:href="#m556b878004" x="76.16" y="529.69787" style="stroke: #000000; stroke-width: 0.8"/>
      </g>
     </g>
     <g id="text_11">
      <!-- −1000 -->
      <g transform="translate(28.564375 534.256932) scale(0.12 -0.12)">
       <defs>
        <path id="DejaVuSans-2212" d="M 678 2272 
L 4684 2272 
L 4684 1741 
L 678 1741 
L 678 2272 
z
" transform="scale(0.015625)"/>
       </defs>
       <use xlink:href="#DejaVuSans-2212"/>
       <use xlink:href="#DejaVuSans-31" x="83.789062"/>
       <use xlink:href="#DejaVuSans-30" x="147.412109"/>
       <use xlink:href="#DejaVuSans-30" x="211.035156"/>
       <use xlink:href="#DejaVuSans-30" x="274.658203"/>
      </g>
     </g>
    </g>
    <g id="ytick_2">
     <g id="line2d_21">
      <path d="M 76.16 445.654004 
L 853.2 445.654004 
" clip-path="url(#p057708bd3c)" style="fill: none; stroke: #b0b0b0; stroke-width: 0.8; stroke-linecap: square"/>
     </g>
     <g id="line2d_22">
      <g>
       <use xlink:href="#m556b878004" x="76.16" y="445.654004" style="stroke: #000000; stroke-width: 0.8"/>
      </g>
     </g>
     <g id="text_12">
      <!-- −800 -->
      <g transform="translate(36.199375 450.213066) scale(0.12 -0.12)">
       <use xlink:href="#DejaVuSans-2212"/>
       <use xlink:href="#DejaVuSans-38" x="83.789062"/>
       <use xlink:href="#DejaVuSans-30" x="147.412109"/>
       <use xlink:href="#DejaVuSans-30" x="211.035156"/>
      </g>
     </g>
    </g>
    <g id="ytick_3">
     <g id="line2d_23">
      <path d="M 76.16 361.610138 
L 853.2 361.610138 
" clip-path="url(#p057708bd3c)" style="fill: none; stroke: #b0b0b0; stroke-width: 0.8; stroke-linecap: square"/>
     </g>
     <g id="line2d_24">
      <g>
       <use xlink:href="#m556b878004" x="76.16" y="361.610138" style="stroke: #000000; stroke-width: 0.8"/>
      </g>
     </g>
     <g id="text_13">
      <!-- −600 -->
      <g transform="translate(36.199375 366.169201) scale(0.12 -0.12)">
       <use xlink:href="#DejaVuSans-2212"/>
       <use xlink:href="#DejaVuSans-36" x="83.789062"/>
       <use xlink:href="#DejaVuSans-30" x="147.412109"/>
       <use xlink:href="#DejaVuSans-30" x="211.035156"/>
      </g>
     </g>
    </g>
    <g id="ytick_4">
     <g id="line2d_25">
      <path d="M 76.16 277.566272 
L 853.2 277.566272 
" clip-path="url(#p057708bd3c)" style="fill: none; stroke: #b0b0b0; stroke-width: 0.8; stroke-linecap: square"/>
     </g>
     <g id="line2d_26">
      <g>
       <use xlink:href="#m556b878004" x="76.16" y="277.566272" style="stroke: #000000; stroke-width: 0.8"/>
      </g>
     </g>
     <g id="text_14">
      <!-- −400 -->
      <g transform="translate(36.199375 282.125335) scale(0.12 -0.12)">
       <use xlink:href="#DejaVuSans-2212"/>
       <use xlink:href="#DejaVuSans-34" x="83.789062"/>
       <use xlink:href="#DejaVuSans-30" x="147.412109"/>
       <use xlink:href="#DejaVuSans-30" x="211.035156"/>
      </g>
     </g>
    </g>
    <g id="ytick_5">
     <g id="line2d_27">
      <path d="M 76.16 193.522406 
L 853.2 193.522406 
" clip-path="url(#p057708bd3c)" style="fill: none; stroke: #b0b0b0; stroke-width: 0.8; stroke-linecap: square"/>
     </g>
     <g id="line2d_28">
      <g>
       <use xlink:href="#m556b878004" x="76.16" y="193.522406" style="stroke: #000000; stroke-width: 0.8"/>
      </g>
     </g>
     <g id="text_15">
      <!-- −200 -->
      <g transform="translate(36.199375 198.081469) scale(0.12 -0.12)">
       <use xlink:href="#DejaVuSans-2212"/>
       <use xlink:href="#DejaVuSans-32" x="83.789062"/>
       <use xlink:href="#DejaVuSans-30" x="147.412109"/>
       <use xlink:href="#DejaVuSans-30" x="211.035156"/>
      </g>
     </g>
    </g>
    <g id="ytick_6">
     <g id="line2d_29">
      <path d="M 76.16 109.478541 
L 853.2 109.478541 
" clip-path="url(#p057708bd3c)" style="fill: none; stroke: #b0b0b0; stroke-width: 0.8; stroke-linecap: square"/>
     </g>
     <g id="line2d_30">
      <g>
       <use xlink:href="#m556b878004" x="76.16" y="109.478541" style="stroke: #000000; stroke-width: 0.8"/>
      </g>
     </g>
     <g id="text_16">
      <!-- 0 -->
      <g transform="translate(61.525 114.037603) scale(0.12 -0.12)">
       <use xlink:href="#DejaVuSans-30"/>
      </g>
     </g>
    </g>
    <g id="text_17">
     <!-- Reward -->
     <g transform="translate(21.652813 307.249531) rotate(-90) scale(0.14 -0.14)">
      <defs>
       <path id="DejaVuSans-52" d="M 2841 2188 
Q 3044 2119 3236 1894 
Q 3428 1669 3622 1275 
L 4263 0 
L 3584 0 
L 2988 1197 
Q 2756 1666 2539 1819 
Q 2322 1972 1947 1972 
L 1259 1972 
L 1259 0 
L 628 0 
L 628 4666 
L 2053 4666 
Q 2853 4666 3247 4331 
Q 3641 3997 3641 3322 
Q 3641 2881 3436 2590 
Q 3231 2300 2841 2188 
z
M 1259 4147 
L 1259 2491 
L 2053 2491 
Q 2509 2491 2742 2702 
Q 2975 2913 2975 3322 
Q 2975 3731 2742 3939 
Q 2509 4147 2053 4147 
L 1259 4147 
z
" transform="scale(0.015625)"/>
       <path id="DejaVuSans-77" d="M 269 3500 
L 844 3500 
L 1563 769 
L 2278 3500 
L 2956 3500 
L 3675 769 
L 4391 3500 
L 4966 3500 
L 4050 0 
L 3372 0 
L 2619 2869 
L 1863 0 
L 1184 0 
L 269 3500 
z
" transform="scale(0.015625)"/>
       <path id="DejaVuSans-61" d="M 2194 1759 
Q 1497 1759 1228 1600 
Q 959 1441 959 1056 
Q 959 750 1161 570 
Q 1363 391 1709 391 
Q 2188 391 2477 730 
Q 2766 1069 2766 1631 
L 2766 1759 
L 2194 1759 
z
M 3341 1997 
L 3341 0 
L 2766 0 
L 2766 531 
Q 2569 213 2275 61 
Q 1981 -91 1556 -91 
Q 1019 -91 701 211 
Q 384 513 384 1019 
Q 384 1609 779 1909 
Q 1175 2209 1959 2209 
L 2766 2209 
L 2766 2266 
Q 2766 2663 2505 2880 
Q 2244 3097 1772 3097 
Q 1472 3097 1187 3025 
Q 903 2953 641 2809 
L 641 3341 
Q 956 3463 1253 3523 
Q 1550 3584 1831 3584 
Q 2591 3584 2966 3190 
Q 3341 2797 3341 1997 
z
" transform="scale(0.015625)"/>
       <path id="DejaVuSans-72" d="M 2631 2963 
Q 2534 3019 2420 3045 
Q 2306 3072 2169 3072 
Q 1681 3072 1420 2755 
Q 1159 2438 1159 1844 
L 1159 0 
L 581 0 
L 581 3500 
L 1159 3500 
L 1159 2956 
Q 1341 3275 1631 3429 
Q 1922 3584 2338 3584 
Q 2397 3584 2469 3576 
Q 2541 3569 2628 3553 
L 2631 2963 
z
" transform="scale(0.015625)"/>
      </defs>
      <use xlink:href="#DejaVuSans-52"/>
      <use xlink:href="#DejaVuSans-65" x="64.982422"/>
      <use xlink:href="#DejaVuSans-77" x="126.505859"/>
      <use xlink:href="#DejaVuSans-61" x="208.292969"/>
      <use xlink:href="#DejaVuSans-72" x="269.572266"/>
      <use xlink:href="#DejaVuSans-64" x="308.935547"/>
     </g>
    </g>
   </g>
   <g id="line2d_31">
    <path d="M 111.48 130.074166 
L 118.615354 195.971612 
L 125.750707 229.791607 
L 132.886061 231.875963 
L 140.021414 235.367056 
L 147.156768 234.099155 
L 154.292121 198.456562 
L 161.427475 195.646461 
L 168.562828 215.738581 
L 175.698182 179.792971 
L 182.833535 190.078737 
L 189.968889 177.38899 
L 197.104242 177.374505 
L 204.239596 177.000021 
L 211.374949 176.316326 
L 218.510303 176.384861 
L 225.645657 175.753799 
L 232.78101 175.571996 
L 239.916364 175.671325 
L 247.051717 174.996214 
L 254.187071 174.89149 
L 261.322424 174.636367 
L 268.457778 185.338764 
L 275.593131 185.190327 
L 282.728485 185.02613 
L 289.863838 185.144313 
L 296.999192 195.21147 
L 304.134545 184.57329 
L 311.269899 217.16293 
L 318.405253 227.589877 
L 325.540606 194.754331 
L 332.67596 194.693048 
L 339.811313 205.447879 
L 346.946667 194.372596 
L 354.08202 205.176988 
L 361.217374 194.253115 
L 368.352727 204.779858 
L 375.488081 204.515513 
L 382.623434 215.074426 
L 389.758788 215.00874 
L 396.894141 214.805705 
L 404.029495 214.880824 
L 411.164848 225.262747 
L 418.300202 214.509357 
L 425.435556 267.192276 
L 432.570909 224.878842 
L 439.706263 224.966482 
L 446.841616 235.481451 
L 453.97697 224.694067 
L 461.112323 245.790468 
L 468.247677 224.724016 
L 475.38303 235.009866 
L 482.518384 245.510573 
L 489.653737 266.799705 
L 496.789091 255.948965 
L 503.924444 255.683686 
L 511.059798 317.572205 
L 518.195152 304.141877 
L 525.330505 276.627149 
L 532.465859 276.345459 
L 539.601212 265.749335 
L 546.736566 276.35742 
L 553.871919 307.555049 
L 561.007273 286.460906 
L 568.142626 275.993204 
L 575.27798 275.767692 
L 582.413333 296.971688 
L 589.548687 318.085928 
L 596.68404 317.935219 
L 603.819394 327.884685 
L 610.954747 296.491504 
L 618.090101 324.1811 
L 625.225455 329.186468 
L 632.360808 317.290198 
L 639.496162 340.060756 
L 646.631515 306.403738 
L 653.766869 317.101731 
L 660.902222 338.232171 
L 668.037576 316.490956 
L 675.172929 327.227594 
L 682.308283 357.202572 
L 689.443636 337.822828 
L 696.57899 336.863123 
L 703.714343 347.753983 
L 710.849697 326.720349 
L 717.985051 336.846597 
L 725.120404 336.925626 
L 732.255758 346.91155 
L 739.391111 326.184641 
L 746.526465 368.502665 
L 753.661818 347.36936 
L 760.797172 368.460205 
L 767.932525 387.979552 
L 775.067879 357.651327 
L 782.203232 379.014073 
L 789.338586 368.363792 
L 796.473939 387.779124 
L 803.609293 371.749887 
L 810.744646 381.015525 
L 817.88 390.216625 
" clip-path="url(#p057708bd3c)" style="fill: none; stroke: #1f77b4; stroke-width: 1.5; stroke-linecap: square"/>
   </g>
   <g id="line2d_32">
    <path d="M 111.48 183.199738 
L 118.615354 183.804626 
L 125.750707 183.205802 
L 132.886061 184.108905 
L 140.021414 184.733373 
L 147.156768 191.286277 
L 154.292121 184.424747 
L 161.427475 191.923899 
L 168.562828 184.821822 
L 175.698182 185.617976 
L 182.833535 186.832339 
L 189.968889 189.240169 
L 197.104242 194.836693 
L 204.239596 206.466912 
L 211.374949 207.685752 
L 218.510303 200.172658 
L 225.645657 198.666319 
L 232.78101 209.453141 
L 239.916364 208.804685 
L 247.051717 207.70224 
L 254.187071 207.338839 
L 261.322424 207.117824 
L 268.457778 207.697944 
L 275.593131 207.429823 
L 282.728485 207.128502 
L 289.863838 216.875844 
L 296.999192 212.234016 
L 304.134545 215.775701 
L 311.269899 214.001788 
L 318.405253 207.660001 
L 325.540606 207.700804 
L 332.67596 207.385437 
L 339.811313 215.680723 
L 346.946667 214.588162 
L 354.08202 210.158691 
L 361.217374 206.769462 
L 368.352727 207.336068 
L 375.488081 206.666697 
L 382.623434 206.365694 
L 389.758788 206.531616 
L 396.894141 206.658465 
L 404.029495 206.768898 
L 411.164848 206.71825 
L 418.300202 217.302833 
L 425.435556 227.430607 
L 432.570909 217.099645 
L 439.706263 219.396322 
L 446.841616 217.038679 
L 453.97697 219.307043 
L 461.112323 248.949956 
L 468.247677 218.849247 
L 475.38303 227.626511 
L 482.518384 249.844898 
L 489.653737 259.565819 
L 496.789091 250.521699 
L 503.924444 269.463619 
L 511.059798 282.055741 
L 518.195152 258.316349 
L 525.330505 270.142347 
L 532.465859 246.245874 
L 539.601212 276.476548 
L 546.736566 280.771514 
L 553.871919 270.073172 
L 561.007273 278.874331 
L 568.142626 296.999598 
L 575.27798 270.07219 
L 582.413333 278.607073 
L 589.548687 279.395355 
L 596.68404 341.171285 
L 603.819394 298.332245 
L 610.954747 270.069656 
L 618.090101 300.318614 
L 625.225455 299.49365 
L 632.360808 333.803365 
L 639.496162 327.456673 
L 646.631515 316.900402 
L 653.766869 314.741722 
L 660.902222 352.064009 
L 668.037576 313.481921 
L 675.172929 333.047675 
L 682.308283 335.848508 
L 689.443636 338.781568 
L 696.57899 336.026574 
L 703.714343 328.210413 
L 710.849697 344.945626 
L 717.985051 368.92408 
L 725.120404 349.895893 
L 732.255758 374.483345 
L 739.391111 370.462485 
L 746.526465 361.08149 
L 753.661818 331.018015 
L 760.797172 357.550451 
L 767.932525 379.39095 
L 775.067879 364.739382 
L 782.203232 349.963162 
L 789.338586 360.694481 
L 796.473939 325.704847 
L 803.609293 360.29107 
L 810.744646 372.384916 
L 817.88 380.260275 
" clip-path="url(#p057708bd3c)" style="fill: none; stroke: #ff7f0e; stroke-width: 1.5; stroke-linecap: square"/>
   </g>
   <g id="line2d_33">
    <path d="M 111.48 154.267638 
L 118.615354 153.769062 
L 125.750707 153.201273 
L 132.886061 153.053902 
L 140.021414 152.198021 
L 147.156768 151.890281 
L 154.292121 151.469418 
L 161.427475 151.272751 
L 168.562828 150.973908 
L 175.698182 150.840773 
L 182.833535 150.615503 
L 189.968889 150.775272 
L 197.104242 150.731921 
L 204.239596 150.475908 
L 211.374949 150.411685 
L 218.510303 150.64209 
L 225.645657 150.658099 
L 232.78101 150.636907 
L 239.916364 151.848708 
L 247.051717 150.818914 
L 254.187071 150.908742 
L 261.322424 161.611841 
L 268.457778 161.52671 
L 275.593131 161.070753 
L 282.728485 161.011974 
L 289.863838 161.128161 
L 296.999192 161.002097 
L 304.134545 161.054497 
L 311.269899 161.025814 
L 318.405253 161.060349 
L 325.540606 160.883684 
L 332.67596 160.918251 
L 339.811313 160.956992 
L 346.946667 160.888727 
L 354.08202 160.944718 
L 361.217374 161.166388 
L 368.352727 161.038192 
L 375.488081 160.937721 
L 382.623434 161.018066 
L 389.758788 161.086584 
L 396.894141 161.147764 
L 404.029495 161.2186 
L 411.164848 161.275765 
L 418.300202 161.089414 
L 425.435556 161.255985 
L 432.570909 161.183649 
L 439.706263 161.283024 
L 446.841616 161.295717 
L 453.97697 161.393092 
L 461.112323 161.310318 
L 468.247677 161.320404 
L 475.38303 161.484578 
L 482.518384 161.43484 
L 489.653737 161.592537 
L 496.789091 172.172926 
L 503.924444 172.132018 
L 511.059798 172.011383 
L 518.195152 171.903902 
L 525.330505 171.803141 
L 532.465859 171.849278 
L 539.601212 171.468237 
L 546.736566 171.411879 
L 553.871919 171.207429 
L 561.007273 171.255037 
L 568.142626 171.141746 
L 575.27798 171.171345 
L 582.413333 171.142716 
L 589.548687 181.593984 
L 596.68404 181.532885 
L 603.819394 181.624578 
L 610.954747 181.407783 
L 618.090101 181.370414 
L 625.225455 181.513966 
L 632.360808 181.383194 
L 639.496162 181.251971 
L 646.631515 181.323729 
L 653.766869 181.51898 
L 660.902222 181.38007 
L 668.037576 181.290524 
L 675.172929 181.512455 
L 682.308283 191.779888 
L 689.443636 191.704439 
L 696.57899 191.636388 
L 703.714343 191.735626 
L 710.849697 191.538929 
L 717.985051 191.61441 
L 725.120404 191.353541 
L 732.255758 191.407824 
L 739.391111 191.198804 
L 746.526465 191.167638 
L 753.661818 191.23915 
L 760.797172 191.208381 
L 767.932525 191.241441 
L 775.067879 191.313088 
L 782.203232 191.171004 
L 789.338586 201.790317 
L 796.473939 222.395194 
L 803.609293 211.753683 
L 810.744646 243.927698 
L 817.88 211.774396 
" clip-path="url(#p057708bd3c)" style="fill: none; stroke: #2ca02c; stroke-width: 1.5; stroke-linecap: square"/>
   </g>
   <g id="patch_3">
    <path d="M 76.16 529.72 
L 76.16 32.64 
" style="fill: none; stroke: #000000; stroke-width: 0.8; stroke-linejoin: miter; stroke-linecap: square"/>
   </g>
   <g id="patch_4">
    <path d="M 853.2 529.72 
L 853.2 32.64 
" style="fill: none; stroke: #000000; stroke-width: 0.8; stroke-linejoin: miter; stroke-linecap: square"/>
   </g>
   <g id="patch_5">
    <path d="M 76.16 529.72 
L 853.2 529.72 
" style="fill: none; stroke: #000000; stroke-width: 0.8; stroke-linejoin: miter; stroke-linecap: square"/>
   </g>
   <g id="patch_6">
    <path d="M 76.16 32.64 
L 853.2 32.64 
" style="fill: none; stroke: #000000; stroke-width: 0.8; stroke-linejoin: miter; stroke-linecap: square"/>
   </g>
   <g id="text_18">
    <!-- Pendulum Length Robustness Comparison -->
    <g transform="translate(226.212813 26.64) scale(0.2 -0.2)">
     <defs>
      <path id="DejaVuSans-Bold-50" d="M 588 4666 
L 2584 4666 
Q 3475 4666 3951 4270 
Q 4428 3875 4428 3144 
Q 4428 2409 3951 2014 
Q 3475 1619 2584 1619 
L 1791 1619 
L 1791 0 
L 588 0 
L 588 4666 
z
M 1791 3794 
L 1791 2491 
L 2456 2491 
Q 2806 2491 2997 2661 
Q 3188 2831 3188 3144 
Q 3188 3456 2997 3625 
Q 2806 3794 2456 3794 
L 1791 3794 
z
" transform="scale(0.015625)"/>
      <path id="DejaVuSans-Bold-65" d="M 4031 1759 
L 4031 1441 
L 1416 1441 
Q 1456 1047 1700 850 
Q 1944 653 2381 653 
Q 2734 653 3104 758 
Q 3475 863 3866 1075 
L 3866 213 
Q 3469 63 3072 -14 
Q 2675 -91 2278 -91 
Q 1328 -91 801 392 
Q 275 875 275 1747 
Q 275 2603 792 3093 
Q 1309 3584 2216 3584 
Q 3041 3584 3536 3087 
Q 4031 2591 4031 1759 
z
M 2881 2131 
Q 2881 2450 2695 2645 
Q 2509 2841 2209 2841 
Q 1884 2841 1681 2658 
Q 1478 2475 1428 2131 
L 2881 2131 
z
" transform="scale(0.015625)"/>
      <path id="DejaVuSans-Bold-6e" d="M 4056 2131 
L 4056 0 
L 2931 0 
L 2931 347 
L 2931 1631 
Q 2931 2084 2911 2256 
Q 2891 2428 2841 2509 
Q 2775 2619 2662 2680 
Q 2550 2741 2406 2741 
Q 2056 2741 1856 2470 
Q 1656 2200 1656 1722 
L 1656 0 
L 538 0 
L 538 3500 
L 1656 3500 
L 1656 2988 
Q 1909 3294 2193 3439 
Q 2478 3584 2822 3584 
Q 3428 3584 3742 3212 
Q 4056 2841 4056 2131 
z
" transform="scale(0.015625)"/>
      <path id="DejaVuSans-Bold-64" d="M 2919 2988 
L 2919 4863 
L 4044 4863 
L 4044 0 
L 2919 0 
L 2919 506 
Q 2688 197 2409 53 
Q 2131 -91 1766 -91 
Q 1119 -91 703 423 
Q 288 938 288 1747 
Q 288 2556 703 3070 
Q 1119 3584 1766 3584 
Q 2128 3584 2408 3439 
Q 2688 3294 2919 2988 
z
M 2181 722 
Q 2541 722 2730 984 
Q 2919 1247 2919 1747 
Q 2919 2247 2730 2509 
Q 2541 2772 2181 2772 
Q 1825 2772 1636 2509 
Q 1447 2247 1447 1747 
Q 1447 1247 1636 984 
Q 1825 722 2181 722 
z
" transform="scale(0.015625)"/>
      <path id="DejaVuSans-Bold-75" d="M 500 1363 
L 500 3500 
L 1625 3500 
L 1625 3150 
Q 1625 2866 1622 2436 
Q 1619 2006 1619 1863 
Q 1619 1441 1641 1255 
Q 1663 1069 1716 984 
Q 1784 875 1895 815 
Q 2006 756 2150 756 
Q 2500 756 2700 1025 
Q 2900 1294 2900 1772 
L 2900 3500 
L 4019 3500 
L 4019 0 
L 2900 0 
L 2900 506 
Q 2647 200 2364 54 
Q 2081 -91 1741 -91 
Q 1134 -91 817 281 
Q 500 653 500 1363 
z
" transform="scale(0.015625)"/>
      <path id="DejaVuSans-Bold-6c" d="M 538 4863 
L 1656 4863 
L 1656 0 
L 538 0 
L 538 4863 
z
" transform="scale(0.015625)"/>
      <path id="DejaVuSans-Bold-6d" d="M 3781 2919 
Q 3994 3244 4286 3414 
Q 4578 3584 4928 3584 
Q 5531 3584 5847 3212 
Q 6163 2841 6163 2131 
L 6163 0 
L 5038 0 
L 5038 1825 
Q 5041 1866 5042 1909 
Q 5044 1953 5044 2034 
Q 5044 2406 4934 2573 
Q 4825 2741 4581 2741 
Q 4263 2741 4089 2478 
Q 3916 2216 3909 1719 
L 3909 0 
L 2784 0 
L 2784 1825 
Q 2784 2406 2684 2573 
Q 2584 2741 2328 2741 
Q 2006 2741 1831 2477 
Q 1656 2213 1656 1722 
L 1656 0 
L 531 0 
L 531 3500 
L 1656 3500 
L 1656 2988 
Q 1863 3284 2130 3434 
Q 2397 3584 2719 3584 
Q 3081 3584 3359 3409 
Q 3638 3234 3781 2919 
z
" transform="scale(0.015625)"/>
      <path id="DejaVuSans-Bold-20" transform="scale(0.015625)"/>
      <path id="DejaVuSans-Bold-4c" d="M 588 4666 
L 1791 4666 
L 1791 909 
L 3903 909 
L 3903 0 
L 588 0 
L 588 4666 
z
" transform="scale(0.015625)"/>
      <path id="DejaVuSans-Bold-67" d="M 2919 594 
Q 2688 288 2409 144 
Q 2131 0 1766 0 
Q 1125 0 706 504 
Q 288 1009 288 1791 
Q 288 2575 706 3076 
Q 1125 3578 1766 3578 
Q 2131 3578 2409 3434 
Q 2688 3291 2919 2981 
L 2919 3500 
L 4044 3500 
L 4044 353 
Q 4044 -491 3511 -936 
Q 2978 -1381 1966 -1381 
Q 1638 -1381 1331 -1331 
Q 1025 -1281 716 -1178 
L 716 -306 
Q 1009 -475 1290 -558 
Q 1572 -641 1856 -641 
Q 2406 -641 2662 -400 
Q 2919 -159 2919 353 
L 2919 594 
z
M 2181 2772 
Q 1834 2772 1640 2515 
Q 1447 2259 1447 1791 
Q 1447 1309 1634 1061 
Q 1822 813 2181 813 
Q 2531 813 2725 1069 
Q 2919 1325 2919 1791 
Q 2919 2259 2725 2515 
Q 2531 2772 2181 2772 
z
" transform="scale(0.015625)"/>
      <path id="DejaVuSans-Bold-74" d="M 1759 4494 
L 1759 3500 
L 2913 3500 
L 2913 2700 
L 1759 2700 
L 1759 1216 
Q 1759 972 1856 886 
Q 1953 800 2241 800 
L 2816 800 
L 2816 0 
L 1856 0 
Q 1194 0 917 276 
Q 641 553 641 1216 
L 641 2700 
L 84 2700 
L 84 3500 
L 641 3500 
L 641 4494 
L 1759 4494 
z
" transform="scale(0.015625)"/>
      <path id="DejaVuSans-Bold-68" d="M 4056 2131 
L 4056 0 
L 2931 0 
L 2931 347 
L 2931 1625 
Q 2931 2084 2911 2256 
Q 2891 2428 2841 2509 
Q 2775 2619 2662 2680 
Q 2550 2741 2406 2741 
Q 2056 2741 1856 2470 
Q 1656 2200 1656 1722 
L 1656 0 
L 538 0 
L 538 4863 
L 1656 4863 
L 1656 2988 
Q 1909 3294 2193 3439 
Q 2478 3584 2822 3584 
Q 3428 3584 3742 3212 
Q 4056 2841 4056 2131 
z
" transform="scale(0.015625)"/>
      <path id="DejaVuSans-Bold-52" d="M 2297 2597 
Q 2675 2597 2839 2737 
Q 3003 2878 3003 3200 
Q 3003 3519 2839 3656 
Q 2675 3794 2297 3794 
L 1791 3794 
L 1791 2597 
L 2297 2597 
z
M 1791 1766 
L 1791 0 
L 588 0 
L 588 4666 
L 2425 4666 
Q 3347 4666 3776 4356 
Q 4206 4047 4206 3378 
Q 4206 2916 3982 2619 
Q 3759 2322 3309 2181 
Q 3556 2125 3751 1926 
Q 3947 1728 4147 1325 
L 4800 0 
L 3519 0 
L 2950 1159 
Q 2778 1509 2601 1637 
Q 2425 1766 2131 1766 
L 1791 1766 
z
" transform="scale(0.015625)"/>
      <path id="DejaVuSans-Bold-6f" d="M 2203 2784 
Q 1831 2784 1636 2517 
Q 1441 2250 1441 1747 
Q 1441 1244 1636 976 
Q 1831 709 2203 709 
Q 2569 709 2762 976 
Q 2956 1244 2956 1747 
Q 2956 2250 2762 2517 
Q 2569 2784 2203 2784 
z
M 2203 3584 
Q 3106 3584 3614 3096 
Q 4122 2609 4122 1747 
Q 4122 884 3614 396 
Q 3106 -91 2203 -91 
Q 1297 -91 786 396 
Q 275 884 275 1747 
Q 275 2609 786 3096 
Q 1297 3584 2203 3584 
z
" transform="scale(0.015625)"/>
      <path id="DejaVuSans-Bold-62" d="M 2400 722 
Q 2759 722 2948 984 
Q 3138 1247 3138 1747 
Q 3138 2247 2948 2509 
Q 2759 2772 2400 2772 
Q 2041 2772 1848 2508 
Q 1656 2244 1656 1747 
Q 1656 1250 1848 986 
Q 2041 722 2400 722 
z
M 1656 2988 
Q 1888 3294 2169 3439 
Q 2450 3584 2816 3584 
Q 3463 3584 3878 3070 
Q 4294 2556 4294 1747 
Q 4294 938 3878 423 
Q 3463 -91 2816 -91 
Q 2450 -91 2169 54 
Q 1888 200 1656 506 
L 1656 0 
L 538 0 
L 538 4863 
L 1656 4863 
L 1656 2988 
z
" transform="scale(0.015625)"/>
      <path id="DejaVuSans-Bold-73" d="M 3272 3391 
L 3272 2541 
Q 2913 2691 2578 2766 
Q 2244 2841 1947 2841 
Q 1628 2841 1473 2761 
Q 1319 2681 1319 2516 
Q 1319 2381 1436 2309 
Q 1553 2238 1856 2203 
L 2053 2175 
Q 2913 2066 3209 1816 
Q 3506 1566 3506 1031 
Q 3506 472 3093 190 
Q 2681 -91 1863 -91 
Q 1516 -91 1145 -36 
Q 775 19 384 128 
L 384 978 
Q 719 816 1070 734 
Q 1422 653 1784 653 
Q 2113 653 2278 743 
Q 2444 834 2444 1013 
Q 2444 1163 2330 1236 
Q 2216 1309 1875 1350 
L 1678 1375 
Q 931 1469 631 1722 
Q 331 1975 331 2491 
Q 331 3047 712 3315 
Q 1094 3584 1881 3584 
Q 2191 3584 2531 3537 
Q 2872 3491 3272 3391 
z
" transform="scale(0.015625)"/>
      <path id="DejaVuSans-Bold-43" d="M 4288 256 
Q 3956 84 3597 -3 
Q 3238 -91 2847 -91 
Q 1681 -91 1000 561 
Q 319 1213 319 2328 
Q 319 3447 1000 4098 
Q 1681 4750 2847 4750 
Q 3238 4750 3597 4662 
Q 3956 4575 4288 4403 
L 4288 3438 
Q 3953 3666 3628 3772 
Q 3303 3878 2944 3878 
Q 2300 3878 1931 3465 
Q 1563 3053 1563 2328 
Q 1563 1606 1931 1193 
Q 2300 781 2944 781 
Q 3303 781 3628 887 
Q 3953 994 4288 1222 
L 4288 256 
z
" transform="scale(0.015625)"/>
      <path id="DejaVuSans-Bold-70" d="M 1656 506 
L 1656 -1331 
L 538 -1331 
L 538 3500 
L 1656 3500 
L 1656 2988 
Q 1888 3294 2169 3439 
Q 2450 3584 2816 3584 
Q 3463 3584 3878 3070 
Q 4294 2556 4294 1747 
Q 4294 938 3878 423 
Q 3463 -91 2816 -91 
Q 2450 -91 2169 54 
Q 1888 200 1656 506 
z
M 2400 2772 
Q 2041 2772 1848 2508 
Q 1656 2244 1656 1747 
Q 1656 1250 1848 986 
Q 2041 722 2400 722 
Q 2759 722 2948 984 
Q 3138 1247 3138 1747 
Q 3138 2247 2948 2509 
Q 2759 2772 2400 2772 
z
" transform="scale(0.015625)"/>
      <path id="DejaVuSans-Bold-61" d="M 2106 1575 
Q 1756 1575 1579 1456 
Q 1403 1338 1403 1106 
Q 1403 894 1545 773 
Q 1688 653 1941 653 
Q 2256 653 2472 879 
Q 2688 1106 2688 1447 
L 2688 1575 
L 2106 1575 
z
M 3816 1997 
L 3816 0 
L 2688 0 
L 2688 519 
Q 2463 200 2181 54 
Q 1900 -91 1497 -91 
Q 953 -91 614 226 
Q 275 544 275 1050 
Q 275 1666 698 1953 
Q 1122 2241 2028 2241 
L 2688 2241 
L 2688 2328 
Q 2688 2594 2478 2717 
Q 2269 2841 1825 2841 
Q 1466 2841 1156 2769 
Q 847 2697 581 2553 
L 581 3406 
Q 941 3494 1303 3539 
Q 1666 3584 2028 3584 
Q 2975 3584 3395 3211 
Q 3816 2838 3816 1997 
z
" transform="scale(0.015625)"/>
      <path id="DejaVuSans-Bold-72" d="M 3138 2547 
Q 2991 2616 2845 2648 
Q 2700 2681 2553 2681 
Q 2122 2681 1889 2404 
Q 1656 2128 1656 1613 
L 1656 0 
L 538 0 
L 538 3500 
L 1656 3500 
L 1656 2925 
Q 1872 3269 2151 3426 
Q 2431 3584 2822 3584 
Q 2878 3584 2943 3579 
Q 3009 3575 3134 3559 
L 3138 2547 
z
" transform="scale(0.015625)"/>
      <path id="DejaVuSans-Bold-69" d="M 538 3500 
L 1656 3500 
L 1656 0 
L 538 0 
L 538 3500 
z
M 538 4863 
L 1656 4863 
L 1656 3950 
L 538 3950 
L 538 4863 
z
" transform="scale(0.015625)"/>
     </defs>
     <use xlink:href="#DejaVuSans-Bold-50"/>
     <use xlink:href="#DejaVuSans-Bold-65" x="73.291016"/>
     <use xlink:href="#DejaVuSans-Bold-6e" x="141.113281"/>
     <use xlink:href="#DejaVuSans-Bold-64" x="212.304688"/>
     <use xlink:href="#DejaVuSans-Bold-75" x="283.886719"/>
     <use xlink:href="#DejaVuSans-Bold-6c" x="355.078125"/>
     <use xlink:href="#DejaVuSans-Bold-75" x="389.355469"/>
     <use xlink:href="#DejaVuSans-Bold-6d" x="460.546875"/>
     <use xlink:href="#DejaVuSans-Bold-20" x="564.746094"/>
     <use xlink:href="#DejaVuSans-Bold-4c" x="599.560547"/>
     <use xlink:href="#DejaVuSans-Bold-65" x="663.28125"/>
     <use xlink:href="#DejaVuSans-Bold-6e" x="731.103516"/>
     <use xlink:href="#DejaVuSans-Bold-67" x="802.294922"/>
     <use xlink:href="#DejaVuSans-Bold-74" x="873.876953"/>
     <use xlink:href="#DejaVuSans-Bold-68" x="921.679688"/>
     <use xlink:href="#DejaVuSans-Bold-20" x="992.871094"/>
     <use xlink:href="#DejaVuSans-Bold-52" x="1027.685547"/>
     <use xlink:href="#DejaVuSans-Bold-6f" x="1104.6875"/>
     <use xlink:href="#DejaVuSans-Bold-62" x="1173.388672"/>
     <use xlink:href="#DejaVuSans-Bold-75" x="1244.970703"/>
     <use xlink:href="#DejaVuSans-Bold-73" x="1316.162109"/>
     <use xlink:href="#DejaVuSans-Bold-74" x="1375.683594"/>
     <use xlink:href="#DejaVuSans-Bold-6e" x="1423.486328"/>
     <use xlink:href="#DejaVuSans-Bold-65" x="1494.677734"/>
     <use xlink:href="#DejaVuSans-Bold-73" x="1562.5"/>
     <use xlink:href="#DejaVuSans-Bold-73" x="1622.021484"/>
     <use xlink:href="#DejaVuSans-Bold-20" x="1681.542969"/>
     <use xlink:href="#DejaVuSans-Bold-43" x="1716.357422"/>
     <use xlink:href="#DejaVuSans-Bold-6f" x="1789.746094"/>
     <use xlink:href="#DejaVuSans-Bold-6d" x="1858.447266"/>
     <use xlink:href="#DejaVuSans-Bold-70" x="1962.646484"/>
     <use xlink:href="#DejaVuSans-Bold-61" x="2034.228516"/>
     <use xlink:href="#DejaVuSans-Bold-72" x="2101.708984"/>
     <use xlink:href="#DejaVuSans-Bold-69" x="2151.025391"/>
     <use xlink:href="#DejaVuSans-Bold-73" x="2185.302734"/>
     <use xlink:href="#DejaVuSans-Bold-6f" x="2244.824219"/>
     <use xlink:href="#DejaVuSans-Bold-6e" x="2313.525391"/>
    </g>
   </g>
   <g id="legend_1">
    <g id="patch_7">
     <path d="M 786.682813 84.674375 
L 846.2 84.674375 
Q 848.2 84.674375 848.2 82.674375 
L 848.2 39.64 
Q 848.2 37.64 846.2 37.64 
L 786.682813 37.64 
Q 784.682813 37.64 784.682813 39.64 
L 784.682813 82.674375 
Q 784.682813 84.674375 786.682813 84.674375 
z
" style="fill: #ffffff; opacity: 0.8; stroke: #cccccc; stroke-linejoin: miter"/>
    </g>
    <g id="line2d_34">
     <path d="M 788.682813 45.738438 
L 798.682813 45.738438 
L 808.682813 45.738438 
" style="fill: none; stroke: #1f77b4; stroke-width: 1.5; stroke-linecap: square"/>
    </g>
    <g id="text_19">
     <!-- SHAC -->
     <g transform="translate(816.682813 49.238438) scale(0.1 -0.1)">
      <defs>
       <path id="DejaVuSans-53" d="M 3425 4513 
L 3425 3897 
Q 3066 4069 2747 4153 
Q 2428 4238 2131 4238 
Q 1616 4238 1336 4038 
Q 1056 3838 1056 3469 
Q 1056 3159 1242 3001 
Q 1428 2844 1947 2747 
L 2328 2669 
Q 3034 2534 3370 2195 
Q 3706 1856 3706 1288 
Q 3706 609 3251 259 
Q 2797 -91 1919 -91 
Q 1588 -91 1214 -16 
Q 841 59 441 206 
L 441 856 
Q 825 641 1194 531 
Q 1563 422 1919 422 
Q 2459 422 2753 634 
Q 3047 847 3047 1241 
Q 3047 1584 2836 1778 
Q 2625 1972 2144 2069 
L 1759 2144 
Q 1053 2284 737 2584 
Q 422 2884 422 3419 
Q 422 4038 858 4394 
Q 1294 4750 2059 4750 
Q 2388 4750 2728 4690 
Q 3069 4631 3425 4513 
z
" transform="scale(0.015625)"/>
       <path id="DejaVuSans-48" d="M 628 4666 
L 1259 4666 
L 1259 2753 
L 3553 2753 
L 3553 4666 
L 4184 4666 
L 4184 0 
L 3553 0 
L 3553 2222 
L 1259 2222 
L 1259 0 
L 628 0 
L 628 4666 
z
" transform="scale(0.015625)"/>
       <path id="DejaVuSans-41" d="M 2188 4044 
L 1331 1722 
L 3047 1722 
L 2188 4044 
z
M 1831 4666 
L 2547 4666 
L 4325 0 
L 3669 0 
L 3244 1197 
L 1141 1197 
L 716 0 
L 50 0 
L 1831 4666 
z
" transform="scale(0.015625)"/>
       <path id="DejaVuSans-43" d="M 4122 4306 
L 4122 3641 
Q 3803 3938 3442 4084 
Q 3081 4231 2675 4231 
Q 1875 4231 1450 3742 
Q 1025 3253 1025 2328 
Q 1025 1406 1450 917 
Q 1875 428 2675 428 
Q 3081 428 3442 575 
Q 3803 722 4122 1019 
L 4122 359 
Q 3791 134 3420 21 
Q 3050 -91 2638 -91 
Q 1578 -91 968 557 
Q 359 1206 359 2328 
Q 359 3453 968 4101 
Q 1578 4750 2638 4750 
Q 3056 4750 3426 4639 
Q 3797 4528 4122 4306 
z
" transform="scale(0.015625)"/>
      </defs>
      <use xlink:href="#DejaVuSans-53"/>
      <use xlink:href="#DejaVuSans-48" x="63.476562"/>
      <use xlink:href="#DejaVuSans-41" x="138.671875"/>
      <use xlink:href="#DejaVuSans-43" x="205.330078"/>
     </g>
    </g>
    <g id="line2d_35">
     <path d="M 788.682813 60.416563 
L 798.682813 60.416563 
L 808.682813 60.416563 
" style="fill: none; stroke: #ff7f0e; stroke-width: 1.5; stroke-linecap: square"/>
    </g>
    <g id="text_20">
     <!-- PPO -->
     <g transform="translate(816.682813 63.916563) scale(0.1 -0.1)">
      <defs>
       <path id="DejaVuSans-4f" d="M 2522 4238 
Q 1834 4238 1429 3725 
Q 1025 3213 1025 2328 
Q 1025 1447 1429 934 
Q 1834 422 2522 422 
Q 3209 422 3611 934 
Q 4013 1447 4013 2328 
Q 4013 3213 3611 3725 
Q 3209 4238 2522 4238 
z
M 2522 4750 
Q 3503 4750 4090 4092 
Q 4678 3434 4678 2328 
Q 4678 1225 4090 567 
Q 3503 -91 2522 -91 
Q 1538 -91 948 565 
Q 359 1222 359 2328 
Q 359 3434 948 4092 
Q 1538 4750 2522 4750 
z
" transform="scale(0.015625)"/>
      </defs>
      <use xlink:href="#DejaVuSans-50"/>
      <use xlink:href="#DejaVuSans-50" x="60.302734"/>
      <use xlink:href="#DejaVuSans-4f" x="120.605469"/>
     </g>
    </g>
    <g id="line2d_36">
     <path d="M 788.682813 75.094688 
L 798.682813 75.094688 
L 808.682813 75.094688 
" style="fill: none; stroke: #2ca02c; stroke-width: 1.5; stroke-linecap: square"/>
    </g>
    <g id="text_21">
     <!-- SAC -->
     <g transform="translate(816.682813 78.594688) scale(0.1 -0.1)">
      <use xlink:href="#DejaVuSans-53"/>
      <use xlink:href="#DejaVuSans-41" x="65.351562"/>
      <use xlink:href="#DejaVuSans-43" x="132.009766"/>
     </g>
    </g>
   </g>
  </g>
 </g>
 <defs>
  <clipPath id="p057708bd3c">
   <rect x="76.16" y="32.64" width="777.04" height="497.08"/>
  </clipPath>
 </defs>
</svg>
