<?xml version="1.0" encoding="utf-8" standalone="no"?>
<!DOCTYPE svg PUBLIC "-//W3C//DTD SVG 1.1//EN"
  "http://www.w3.org/Graphics/SVG/1.1/DTD/svg11.dtd">
<svg xmlns:xlink="http://www.w3.org/1999/xlink" width="864pt" height="576pt" viewBox="0 0 864 576" xmlns="http://www.w3.org/2000/svg" version="1.1">
 <metadata>
  <rdf:RDF xmlns:dc="http://purl.org/dc/elements/1.1/" xmlns:cc="http://creativecommons.org/ns#" xmlns:rdf="http://www.w3.org/1999/02/22-rdf-syntax-ns#">
   <cc:Work>
    <dc:type rdf:resource="http://purl.org/dc/dcmitype/StillImage"/>
    <dc:date>2024-07-25T17:25:32.028376</dc:date>
    <dc:format>image/svg+xml</dc:format>
    <dc:creator>
     <cc:Agent>
      <dc:title>Matplotlib v3.8.4, https://matplotlib.org/</dc:title>
     </cc:Agent>
    </dc:creator>
   </cc:Work>
  </rdf:RDF>
 </metadata>
 <defs>
  <style type="text/css">*{stroke-linejoin: round; stroke-linecap: butt}</style>
 </defs>
 <g id="figure_1">
  <g id="patch_1">
   <path d="M 0 576 
L 864 576 
L 864 0 
L 0 0 
z
" style="fill: #ffffff"/>
  </g>
  <g id="axes_1">
   <g id="patch_2">
    <path d="M 108 512.64 
L 777.6 512.64 
L 777.6 69.12 
L 108 69.12 
z
" style="fill: #ffffff"/>
   </g>
   <g id="line2d_1">
    <path d="M 138.436364 142.824768 
L 144.585124 142.7953 
L 150.733884 142.539247 
L 156.882645 142.795085 
L 163.031405 142.555886 
L 169.180165 142.835443 
L 175.328926 143.157143 
L 181.477686 143.224826 
L 187.626446 143.695933 
L 193.775207 144.333794 
L 199.923967 144.736112 
L 206.072727 146.000228 
L 212.221488 147.314938 
L 218.370248 150.700939 
L 224.519008 151.393741 
L 230.667769 153.140445 
L 236.816529 163.692353 
L 242.965289 173.693214 
L 249.11405 172.27141 
L 255.26281 171.966388 
L 261.41157 171.124909 
L 267.560331 170.994012 
L 273.709091 171.137612 
L 279.857851 170.658754 
L 286.006612 170.968441 
L 292.155372 181.256084 
L 298.304132 180.749918 
L 304.452893 180.570488 
L 310.601653 180.508678 
L 316.750413 180.170914 
L 322.899174 180.253036 
L 329.047934 180.479915 
L 335.196694 180.237008 
L 341.345455 180.180117 
L 347.494215 180.089234 
L 353.642975 180.124316 
L 359.791736 180.121012 
L 365.940496 180.177462 
L 372.089256 180.220738 
L 378.238017 179.972466 
L 384.386777 180.276938 
L 390.535537 180.23179 
L 396.684298 179.940767 
L 402.833058 180.159212 
L 408.981818 180.187963 
L 415.130579 180.34155 
L 421.279339 180.467438 
L 427.428099 180.215562 
L 433.57686 251.964153 
L 439.72562 190.967255 
L 445.87438 260.288006 
L 452.02314 271.737511 
L 458.171901 270.447451 
L 464.320661 270.167911 
L 470.469421 269.061302 
L 476.618182 271.210355 
L 482.766942 270.569331 
L 488.915702 270.176463 
L 495.064463 270.378196 
L 501.213223 269.630503 
L 507.361983 269.89868 
L 513.510744 269.949354 
L 519.659504 269.154561 
L 525.808264 268.054591 
L 531.957025 269.577295 
L 538.105785 268.988736 
L 544.254545 201.457943 
L 550.403306 269.333602 
L 556.552066 262.222102 
L 562.700826 267.582554 
L 568.849587 269.595814 
L 574.998347 266.318713 
L 581.147107 268.998786 
L 587.295868 268.91651 
L 593.444628 201.310195 
L 599.593388 201.104187 
L 605.742149 201.346676 
L 611.890909 212.493945 
L 618.039669 201.725014 
L 624.18843 233.871643 
L 630.33719 245.751687 
L 636.48595 247.464472 
L 642.634711 239.495378 
L 648.783471 246.391092 
L 654.932231 251.26412 
L 661.080992 281.797924 
L 667.229752 264.009681 
L 673.378512 244.439181 
L 679.527273 253.565317 
L 685.676033 276.855966 
L 691.824793 257.149414 
L 697.973554 267.915964 
L 704.122314 290.81961 
L 710.271074 285.976415 
L 716.419835 289.022565 
L 722.568595 290.417803 
L 728.717355 300.423018 
L 734.866116 293.3384 
L 741.014876 299.417158 
L 747.163636 319.008467 
" clip-path="url(#p90ef45d694)" style="fill: none; stroke: #ff7700; stroke-width: 1.5; stroke-linecap: square"/>
   </g>
   <g id="PolyCollection_1">
    <defs>
     <path id="m9ceb838b1e" d="M 138.436364 -450.248671 
L 138.436364 -416.101793 
L 144.585124 -415.596925 
L 150.733884 -416.075203 
L 156.882645 -415.414174 
L 163.031405 -415.931552 
L 169.180165 -415.499461 
L 175.328926 -414.777123 
L 181.477686 -414.991865 
L 187.626446 -414.445628 
L 193.775207 -413.307802 
L 199.923967 -413.094826 
L 206.072727 -410.837061 
L 212.221488 -408.872885 
L 218.370248 -402.04673 
L 224.519008 -401.39449 
L 230.667769 -400.037485 
L 236.816529 -386.236003 
L 242.965289 -379.365088 
L 249.11405 -382.042416 
L 255.26281 -382.573457 
L 261.41157 -383.979818 
L 267.560331 -384.274039 
L 273.709091 -384.303864 
L 279.857851 -385.236411 
L 286.006612 -385.252107 
L 292.155372 -391.922154 
L 298.304132 -392.985599 
L 304.452893 -393.422103 
L 310.601653 -393.323396 
L 316.750413 -393.810556 
L 322.899174 -393.659138 
L 329.047934 -393.769441 
L 335.196694 -394.054853 
L 341.345455 -394.134278 
L 347.494215 -394.310657 
L 353.642975 -394.333424 
L 359.791736 -394.380688 
L 365.940496 -394.324757 
L 372.089256 -394.247169 
L 378.238017 -394.589961 
L 384.386777 -394.480152 
L 390.535537 -394.386336 
L 396.684298 -394.722161 
L 402.833058 -394.745803 
L 408.981818 -394.519406 
L 415.130579 -394.657216 
L 421.279339 -394.626138 
L 427.428099 -394.836724 
L 433.57686 -180.918087 
L 439.72562 -363.999981 
L 445.87438 -155.757898 
L 452.02314 -147.070613 
L 458.171901 -150.699513 
L 464.320661 -151.223538 
L 470.469421 -154.447644 
L 476.618182 -148.093984 
L 482.766942 -150.601288 
L 488.915702 -151.137481 
L 495.064463 -150.71283 
L 501.213223 -152.951678 
L 507.361983 -152.053706 
L 513.510744 -152.040177 
L 519.659504 -154.300779 
L 525.808264 -157.378407 
L 531.957025 -152.805295 
L 538.105785 -154.566769 
L 544.254545 -349.195107 
L 550.403306 -153.360819 
L 556.552066 -174.76726 
L 562.700826 -158.518891 
L 568.849587 -152.67886 
L 574.998347 -162.472892 
L 581.147107 -154.927868 
L 587.295868 -154.624032 
L 593.444628 -349.507625 
L 599.593388 -350.127754 
L 605.742149 -349.499453 
L 611.890909 -321.405661 
L 618.039669 -348.704887 
L 624.18843 -293.322747 
L 630.33719 -266.392138 
L 636.48595 -238.456103 
L 642.634711 -266.301541 
L 648.783471 -262.795562 
L 654.932231 -265.309722 
L 661.080992 -200.806155 
L 667.229752 -239.676042 
L 673.378512 -267.532628 
L 679.527273 -259.26475 
L 685.676033 -219.697314 
L 691.824793 -252.903712 
L 697.973554 -231.909334 
L 704.122314 -205.745718 
L 710.271074 -194.617345 
L 716.419835 -195.620658 
L 722.568595 -206.613806 
L 728.717355 -161.502448 
L 734.866116 -178.840617 
L 741.014876 -155.532342 
L 747.163636 -146.306007 
L 747.163636 -367.677058 
L 747.163636 -367.677058 
L 741.014876 -397.633342 
L 734.866116 -386.482582 
L 728.717355 -389.651516 
L 722.568595 -364.550588 
L 716.419835 -378.334213 
L 710.271074 -385.429825 
L 704.122314 -364.615062 
L 697.973554 -384.258738 
L 691.824793 -384.79746 
L 685.676033 -378.590754 
L 679.527273 -385.604615 
L 673.378512 -395.589011 
L 667.229752 -384.304595 
L 661.080992 -387.597997 
L 654.932231 -384.162038 
L 648.783471 -396.422254 
L 642.634711 -406.707704 
L 636.48595 -418.614952 
L 630.33719 -394.104488 
L 624.18843 -390.933968 
L 618.039669 -399.845086 
L 611.890909 -405.606448 
L 605.742149 -399.807195 
L 599.593388 -399.663873 
L 593.444628 -399.871985 
L 587.295868 -459.542948 
L 581.147107 -459.074559 
L 574.998347 -456.889683 
L 568.849587 -460.129512 
L 562.700826 -458.316001 
L 556.552066 -452.788535 
L 550.403306 -459.971976 
L 544.254545 -399.889007 
L 538.105785 -459.45576 
L 531.957025 -460.040115 
L 525.808264 -458.512411 
L 519.659504 -459.390099 
L 513.510744 -460.061115 
L 507.361983 -460.148934 
L 501.213223 -459.787316 
L 495.064463 -460.530777 
L 488.915702 -460.509592 
L 482.766942 -460.260049 
L 476.618182 -461.485307 
L 470.469421 -459.429751 
L 464.320661 -460.44064 
L 458.171901 -460.405584 
L 452.02314 -461.454366 
L 445.87438 -475.666089 
L 439.72562 -406.06551 
L 433.57686 -467.153606 
L 427.428099 -396.732152 
L 421.279339 -396.438986 
L 415.130579 -396.659685 
L 408.981818 -397.104668 
L 402.833058 -396.935774 
L 396.684298 -397.396306 
L 390.535537 -397.150085 
L 384.386777 -396.965972 
L 378.238017 -397.465106 
L 372.089256 -397.311356 
L 365.940496 -397.320318 
L 359.791736 -397.377289 
L 353.642975 -397.417944 
L 347.494215 -397.510874 
L 341.345455 -397.505488 
L 335.196694 -397.471131 
L 329.047934 -397.270729 
L 322.899174 -397.83479 
L 316.750413 -397.847616 
L 310.601653 -397.659249 
L 304.452893 -397.436921 
L 298.304132 -397.514565 
L 292.155372 -397.565678 
L 286.006612 -424.81101 
L 279.857851 -425.446081 
L 273.709091 -425.420912 
L 267.560331 -425.737937 
L 261.41157 -425.770364 
L 255.26281 -425.493766 
L 249.11405 -425.414764 
L 242.965289 -425.248485 
L 236.816529 -438.379292 
L 230.667769 -445.681624 
L 224.519008 -447.818028 
L 218.370248 -448.551392 
L 212.221488 -448.497239 
L 206.072727 -449.162483 
L 199.923967 -449.432951 
L 193.775207 -450.024611 
L 187.626446 -450.162507 
L 181.477686 -450.558483 
L 175.328926 -450.908592 
L 169.180165 -450.829654 
L 163.031405 -450.956675 
L 156.882645 -450.995657 
L 150.733884 -450.846303 
L 144.585124 -450.812475 
L 138.436364 -450.248671 
z
" style="stroke: #ff7700; stroke-opacity: 0.2"/>
    </defs>
    <g clip-path="url(#p90ef45d694)">
     <use xlink:href="#m9ceb838b1e" x="0" y="576" style="fill: #ff7700; fill-opacity: 0.2; stroke: #ff7700; stroke-opacity: 0.2"/>
    </g>
   </g>
   <g id="line2d_2">
    <path d="M 138.436364 148.087031 
L 144.585124 213.526985 
L 150.733884 234.318023 
L 156.882645 250.647196 
L 163.031405 238.760637 
L 169.180165 196.641162 
L 175.328926 177.426551 
L 181.477686 211.331752 
L 187.626446 185.482801 
L 193.775207 185.016018 
L 199.923967 184.770538 
L 206.072727 184.045108 
L 212.221488 183.79204 
L 218.370248 183.239983 
L 224.519008 194.643348 
L 230.667769 193.956906 
L 236.816529 193.463445 
L 242.965289 193.485186 
L 249.11405 193.203601 
L 255.26281 192.913812 
L 261.41157 192.710116 
L 267.560331 192.640969 
L 273.709091 192.461241 
L 279.857851 203.705246 
L 286.006612 203.440852 
L 292.155372 202.990169 
L 298.304132 202.86296 
L 304.452893 202.592192 
L 310.601653 202.568864 
L 316.750413 202.573095 
L 322.899174 202.405291 
L 329.047934 202.449478 
L 335.196694 202.144388 
L 341.345455 201.994735 
L 347.494215 213.196017 
L 353.642975 213.048705 
L 359.791736 212.960443 
L 365.940496 212.84001 
L 372.089256 212.761501 
L 378.238017 212.496447 
L 384.386777 212.564293 
L 390.535537 212.451453 
L 396.684298 212.365891 
L 402.833058 212.220235 
L 408.981818 212.401796 
L 415.130579 223.215255 
L 421.279339 233.979765 
L 427.428099 222.990192 
L 433.57686 233.814289 
L 439.72562 233.574096 
L 445.87438 233.60828 
L 452.02314 233.495833 
L 458.171901 233.463106 
L 464.320661 233.336405 
L 470.469421 244.271379 
L 476.618182 255.091406 
L 482.766942 244.029572 
L 488.915702 243.950462 
L 495.064463 265.90625 
L 501.213223 243.722296 
L 507.361983 243.748138 
L 513.510744 254.667362 
L 519.659504 254.5039 
L 525.808264 276.37981 
L 531.957025 276.245285 
L 538.105785 276.085432 
L 544.254545 276.150712 
L 550.403306 286.846536 
L 556.552066 275.891042 
L 562.700826 275.703158 
L 568.849587 297.512848 
L 574.998347 297.417349 
L 581.147107 330.349724 
L 587.295868 297.146699 
L 593.444628 307.080907 
L 599.593388 321.558229 
L 605.742149 319.090757 
L 611.890909 307.77602 
L 618.039669 296.725245 
L 624.18843 296.681192 
L 630.33719 352.53913 
L 636.48595 307.542335 
L 642.634711 318.292289 
L 648.783471 307.308546 
L 654.932231 318.211294 
L 661.080992 318.06762 
L 667.229752 328.829304 
L 673.378512 328.746077 
L 679.527273 328.693402 
L 685.676033 339.601445 
L 691.824793 328.489609 
L 697.973554 328.331807 
L 704.122314 339.260627 
L 710.271074 330.277965 
L 716.419835 349.663006 
L 722.568595 350.036706 
L 728.717355 349.591126 
L 734.866116 349.375689 
L 741.014876 381.953424 
L 747.163636 358.268829 
" clip-path="url(#p90ef45d694)" style="fill: none; stroke: #004777; stroke-width: 1.5; stroke-linecap: square"/>
   </g>
   <g id="PolyCollection_2">
    <defs>
     <path id="m092586476d" d="M 138.436364 -447.784571 
L 138.436364 -408.041366 
L 144.585124 -238.226031 
L 150.733884 -200.396735 
L 156.882645 -173.457109 
L 163.031405 -205.072233 
L 169.180165 -326.631728 
L 175.328926 -375.980435 
L 181.477686 -315.532012 
L 187.626446 -388.364315 
L 193.775207 -388.353177 
L 199.923967 -388.755653 
L 206.072727 -389.899335 
L 212.221488 -390.074947 
L 218.370248 -391.286188 
L 224.519008 -356.401774 
L 230.667769 -358.315832 
L 236.816529 -359.132993 
L 242.965289 -359.080049 
L 249.11405 -359.338695 
L 255.26281 -360.290254 
L 261.41157 -360.749577 
L 267.560331 -360.744175 
L 273.709091 -361.073803 
L 279.857851 -344.604191 
L 286.006612 -345.2579 
L 292.155372 -345.958102 
L 298.304132 -346.147641 
L 304.452893 -346.69444 
L 310.601653 -346.658199 
L 316.750413 -346.604699 
L 322.899174 -346.939926 
L 329.047934 -346.855336 
L 335.196694 -347.446103 
L 341.345455 -347.659281 
L 347.494215 -318.906354 
L 353.642975 -319.274035 
L 359.791736 -319.505733 
L 365.940496 -319.611389 
L 372.089256 -319.825281 
L 378.238017 -320.377114 
L 384.386777 -320.355269 
L 390.535537 -320.525621 
L 396.684298 -320.646545 
L 402.833058 -320.950336 
L 408.981818 -320.69675 
L 415.130579 -300.126679 
L 421.279339 -273.885067 
L 427.428099 -300.534211 
L 433.57686 -274.305368 
L 439.72562 -274.69024 
L 445.87438 -274.777589 
L 452.02314 -274.994657 
L 458.171901 -275.006138 
L 464.320661 -275.302973 
L 470.469421 -269.833643 
L 476.618182 -256.862389 
L 482.766942 -270.254319 
L 488.915702 -270.290441 
L 495.064463 -255.958974 
L 501.213223 -270.604974 
L 507.361983 -270.725775 
L 513.510744 -241.53263 
L 519.659504 -241.913226 
L 525.808264 -221.654252 
L 531.957025 -221.723555 
L 538.105785 -222.173563 
L 544.254545 -221.967255 
L 550.403306 -222.797104 
L 556.552066 -222.445834 
L 562.700826 -222.670778 
L 568.849587 -193.992375 
L 574.998347 -194.116621 
L 581.147107 -160.078323 
L 587.295868 -194.884523 
L 593.444628 -166.67937 
L 599.593388 -174.5065 
L 605.742149 -177.890639 
L 611.890909 -176.330574 
L 618.039669 -195.454409 
L 624.18843 -195.397084 
L 630.33719 -152.531081 
L 636.48595 -190.324512 
L 642.634711 -149.030386 
L 648.783471 -177.496061 
L 654.932231 -172.996955 
L 661.080992 -149.51477 
L 667.229752 -145.165436 
L 673.378512 -145.452169 
L 679.527273 -151.072797 
L 685.676033 -126.144443 
L 691.824793 -145.83121 
L 697.973554 -146.211727 
L 704.122314 -126.749411 
L 710.271074 -140.833286 
L 716.419835 -109.624335 
L 722.568595 -136.327621 
L 728.717355 -100.359201 
L 734.866116 -100.898489 
L 741.014876 -83.52 
L 747.163636 -103.501024 
L 747.163636 -331.961319 
L 747.163636 -331.961319 
L 741.014876 -304.573152 
L 734.866116 -352.350133 
L 728.717355 -352.458546 
L 722.568595 -315.598967 
L 716.419835 -343.049653 
L 710.271074 -350.610783 
L 704.122314 -346.729335 
L 697.973554 -349.124659 
L 691.824793 -349.189571 
L 685.676033 -346.652667 
L 679.527273 -343.540399 
L 673.378512 -349.055676 
L 667.229752 -349.175957 
L 661.080992 -366.34999 
L 654.932231 -342.580457 
L 648.783471 -359.886847 
L 642.634711 -366.385037 
L 636.48595 -346.590819 
L 630.33719 -294.390658 
L 624.18843 -363.240531 
L 618.039669 -363.095101 
L 611.890909 -360.117385 
L 605.742149 -335.927847 
L 599.593388 -334.377042 
L 593.444628 -371.158816 
L 587.295868 -362.822079 
L 581.147107 -331.222229 
L 574.998347 -363.04868 
L 568.849587 -362.981929 
L 562.700826 -377.922906 
L 556.552066 -377.772081 
L 550.403306 -355.509824 
L 544.254545 -377.731321 
L 538.105785 -377.655574 
L 531.957025 -377.785875 
L 525.808264 -377.586128 
L 519.659504 -401.078974 
L 513.510744 -401.132646 
L 507.361983 -393.77795 
L 501.213223 -393.950433 
L 495.064463 -364.228527 
L 488.915702 -393.808636 
L 482.766942 -393.686536 
L 476.618182 -384.9548 
L 470.469421 -393.623599 
L 464.320661 -410.024217 
L 458.171901 -410.067649 
L 452.02314 -410.013678 
L 445.87438 -410.005851 
L 439.72562 -410.161568 
L 433.57686 -410.066055 
L 427.428099 -405.485405 
L 421.279339 -410.155404 
L 415.130579 -405.44281 
L 408.981818 -406.499658 
L 402.833058 -406.609194 
L 396.684298 -406.621674 
L 390.535537 -406.571474 
L 384.386777 -406.516145 
L 378.238017 -406.629993 
L 372.089256 -406.651717 
L 365.940496 -406.708592 
L 359.791736 -406.573381 
L 353.642975 -406.628554 
L 347.494215 -406.701612 
L 341.345455 -400.35125 
L 335.196694 -400.265121 
L 329.047934 -400.245707 
L 322.899174 -400.249493 
L 316.750413 -400.249111 
L 310.601653 -400.204073 
L 304.452893 -400.121176 
L 298.304132 -400.12644 
L 292.155372 -400.06156 
L 286.006612 -399.860396 
L 279.857851 -399.985316 
L 273.709091 -406.003715 
L 267.560331 -405.973887 
L 261.41157 -405.830191 
L 255.26281 -405.882121 
L 249.11405 -406.254102 
L 242.965289 -405.949579 
L 236.816529 -405.940117 
L 230.667769 -405.770356 
L 224.519008 -406.311529 
L 218.370248 -394.233845 
L 212.221488 -394.340974 
L 206.072727 -394.01045 
L 199.923967 -393.70327 
L 193.775207 -393.614787 
L 187.626446 -392.670083 
L 181.477686 -413.804484 
L 175.328926 -421.166462 
L 169.180165 -432.085947 
L 163.031405 -469.406493 
L 156.882645 -477.248499 
L 150.733884 -482.96722 
L 144.585124 -486.72 
L 138.436364 -447.784571 
z
" style="stroke: #004777; stroke-opacity: 0.2"/>
    </defs>
    <g clip-path="url(#p90ef45d694)">
     <use xlink:href="#m092586476d" x="0" y="576" style="fill: #004777; fill-opacity: 0.2; stroke: #004777; stroke-opacity: 0.2"/>
    </g>
   </g>
   <g id="line2d_3">
    <path d="M 138.436364 172.415774 
L 144.585124 171.741198 
L 150.733884 170.338683 
L 156.882645 170.369248 
L 163.031405 169.423099 
L 169.180165 169.017925 
L 175.328926 168.298993 
L 181.477686 168.013527 
L 187.626446 167.880014 
L 193.775207 167.687976 
L 199.923967 167.730686 
L 206.072727 167.761469 
L 212.221488 167.741685 
L 218.370248 167.727645 
L 224.519008 167.843104 
L 230.667769 167.958848 
L 236.816529 167.964359 
L 242.965289 168.095263 
L 249.11405 169.367363 
L 255.26281 168.256014 
L 261.41157 168.43388 
L 267.560331 179.349585 
L 273.709091 179.351648 
L 279.857851 178.899135 
L 286.006612 178.842733 
L 292.155372 178.923308 
L 298.304132 178.811291 
L 304.452893 178.916146 
L 310.601653 178.909342 
L 316.750413 178.904155 
L 322.899174 178.910898 
L 329.047934 178.89254 
L 335.196694 178.910791 
L 341.345455 178.801599 
L 347.494215 178.893945 
L 353.642975 178.938358 
L 359.791736 179.005875 
L 365.940496 178.956186 
L 372.089256 179.018781 
L 378.238017 179.018967 
L 384.386777 179.10916 
L 390.535537 179.14624 
L 396.684298 179.088115 
L 402.833058 179.108226 
L 408.981818 179.119492 
L 415.130579 179.122655 
L 421.279339 179.203383 
L 427.428099 179.151749 
L 433.57686 179.234722 
L 439.72562 179.156366 
L 445.87438 179.283793 
L 452.02314 179.436343 
L 458.171901 179.29803 
L 464.320661 179.449839 
L 470.469421 190.334388 
L 476.618182 190.350543 
L 482.766942 190.228464 
L 488.915702 190.077673 
L 495.064463 189.99497 
L 501.213223 190.017456 
L 507.361983 189.608802 
L 513.510744 189.533512 
L 519.659504 189.332278 
L 525.808264 189.390615 
L 531.957025 189.277849 
L 538.105785 189.306371 
L 544.254545 189.309689 
L 550.403306 200.299448 
L 556.552066 200.203583 
L 562.700826 200.152783 
L 568.849587 200.097896 
L 574.998347 200.091678 
L 581.147107 199.999948 
L 587.295868 200.001333 
L 593.444628 199.968762 
L 599.593388 199.934937 
L 605.742149 199.902565 
L 611.890909 199.89408 
L 618.039669 199.743028 
L 624.18843 199.814403 
L 630.33719 210.629727 
L 636.48595 210.606559 
L 642.634711 210.533505 
L 648.783471 210.502675 
L 654.932231 210.496601 
L 661.080992 210.237348 
L 667.229752 210.280933 
L 673.378512 210.334848 
L 679.527273 210.248712 
L 685.676033 210.230117 
L 691.824793 210.066438 
L 697.973554 210.215937 
L 704.122314 210.253495 
L 710.271074 210.148751 
L 716.419835 210.07752 
L 722.568595 210.160529 
L 728.717355 220.532357 
L 734.866116 231.602419 
L 741.014876 231.459965 
L 747.163636 220.479739 
" clip-path="url(#p90ef45d694)" style="fill: none; stroke: #b72b34; stroke-width: 1.5; stroke-linecap: square"/>
   </g>
   <g id="PolyCollection_3">
    <defs>
     <path id="m6bbf0f807f" d="M 138.436364 -423.116304 
L 138.436364 -384.052147 
L 144.585124 -384.843844 
L 150.733884 -386.500386 
L 156.882645 -386.100308 
L 163.031405 -387.383186 
L 169.180165 -387.778216 
L 175.328926 -388.390686 
L 181.477686 -388.684388 
L 187.626446 -388.889058 
L 193.775207 -389.096545 
L 199.923967 -389.046781 
L 206.072727 -389.055771 
L 212.221488 -389.258488 
L 218.370248 -389.387494 
L 224.519008 -389.359908 
L 230.667769 -389.008652 
L 236.816529 -388.936397 
L 242.965289 -388.943728 
L 249.11405 -391.045918 
L 255.26281 -389.11979 
L 261.41157 -389.13199 
L 267.560331 -392.039619 
L 273.709091 -392.154851 
L 279.857851 -393.220417 
L 286.006612 -393.510058 
L 292.155372 -393.394494 
L 298.304132 -393.719052 
L 304.452893 -393.66571 
L 310.601653 -393.70536 
L 316.750413 -393.789597 
L 322.899174 -393.919368 
L 329.047934 -394.026988 
L 335.196694 -394.0596 
L 341.345455 -394.337311 
L 347.494215 -394.288447 
L 353.642975 -394.222715 
L 359.791736 -394.225784 
L 365.940496 -394.420751 
L 372.089256 -394.334313 
L 378.238017 -394.405348 
L 384.386777 -394.35773 
L 390.535537 -394.310981 
L 396.684298 -394.466381 
L 402.833058 -394.525714 
L 408.981818 -394.590946 
L 415.130579 -394.632112 
L 421.279339 -394.579037 
L 427.428099 -394.651288 
L 433.57686 -394.58719 
L 439.72562 -394.779906 
L 445.87438 -394.652288 
L 452.02314 -394.447483 
L 458.171901 -394.785762 
L 464.320661 -394.65922 
L 470.469421 -364.766366 
L 476.618182 -364.941361 
L 482.766942 -365.334038 
L 488.915702 -365.598243 
L 495.064463 -365.968028 
L 501.213223 -365.996616 
L 507.361983 -367.045303 
L 513.510744 -367.445281 
L 519.659504 -367.983873 
L 525.808264 -368.006825 
L 531.957025 -368.363337 
L 538.105785 -368.265048 
L 544.254545 -368.373466 
L 550.403306 -351.79512 
L 556.552066 -352.029047 
L 562.700826 -352.177203 
L 568.849587 -352.310072 
L 574.998347 -352.332557 
L 581.147107 -352.435903 
L 587.295868 -352.458144 
L 593.444628 -352.643431 
L 599.593388 -352.671165 
L 605.742149 -352.762336 
L 611.890909 -352.718096 
L 618.039669 -352.979933 
L 624.18843 -352.937128 
L 630.33719 -325.56434 
L 636.48595 -325.515478 
L 642.634711 -325.74606 
L 648.783471 -325.869349 
L 654.932231 -325.926951 
L 661.080992 -326.407716 
L 667.229752 -326.337826 
L 673.378512 -326.295407 
L 679.527273 -326.531477 
L 685.676033 -326.551524 
L 691.824793 -326.874602 
L 697.973554 -326.555104 
L 704.122314 -326.623441 
L 710.271074 -326.732788 
L 716.419835 -326.926257 
L 722.568595 -326.996307 
L 728.717355 -318.418423 
L 734.866116 -299.193502 
L 741.014876 -299.426955 
L 747.163636 -318.519146 
L 747.163636 -392.521376 
L 747.163636 -392.521376 
L 741.014876 -389.653115 
L 734.866116 -389.60166 
L 728.717355 -392.516862 
L 722.568595 -404.682634 
L 716.419835 -404.918702 
L 710.271074 -404.96971 
L 704.122314 -404.86957 
L 697.973554 -405.013021 
L 691.824793 -404.992522 
L 685.676033 -404.988241 
L 679.527273 -404.9711 
L 673.378512 -405.034897 
L 667.229752 -405.100307 
L 661.080992 -405.117587 
L 654.932231 -405.079846 
L 648.783471 -405.125301 
L 642.634711 -405.18693 
L 636.48595 -405.271403 
L 630.33719 -405.176207 
L 624.18843 -399.434066 
L 618.039669 -399.534011 
L 611.890909 -399.493744 
L 605.742149 -399.432534 
L 599.593388 -399.458961 
L 593.444628 -399.419046 
L 587.295868 -399.53919 
L 581.147107 -399.5642 
L 574.998347 -399.484086 
L 568.849587 -399.494136 
L 562.700826 -399.517231 
L 556.552066 -399.563787 
L 550.403306 -399.605984 
L 544.254545 -405.007155 
L 538.105785 -405.122211 
L 531.957025 -405.080964 
L 525.808264 -405.211944 
L 519.659504 -405.351572 
L 513.510744 -405.487696 
L 507.361983 -405.737092 
L 501.213223 -405.968472 
L 495.064463 -406.042031 
L 488.915702 -406.24641 
L 482.766942 -406.209033 
L 476.618182 -406.357553 
L 470.469421 -406.564858 
L 464.320661 -398.441103 
L 458.171901 -398.618178 
L 452.02314 -398.679831 
L 445.87438 -398.780127 
L 439.72562 -398.907363 
L 433.57686 -398.943367 
L 427.428099 -399.045214 
L 421.279339 -399.014197 
L 415.130579 -399.122577 
L 408.981818 -399.17007 
L 402.833058 -399.257833 
L 396.684298 -399.35739 
L 390.535537 -399.396539 
L 384.386777 -399.42395 
L 378.238017 -399.556718 
L 372.089256 -399.628125 
L 365.940496 -399.666878 
L 359.791736 -399.762467 
L 353.642975 -399.900569 
L 347.494215 -399.923663 
L 341.345455 -400.059491 
L 335.196694 -400.118817 
L 329.047934 -400.187932 
L 322.899174 -400.258836 
L 316.750413 -400.402092 
L 310.601653 -400.475956 
L 304.452893 -400.501998 
L 298.304132 -400.658366 
L 292.155372 -400.75889 
L 286.006612 -400.804477 
L 279.857851 -400.981313 
L 273.709091 -401.141854 
L 267.560331 -401.261211 
L 261.41157 -426.000249 
L 255.26281 -426.368183 
L 249.11405 -422.219357 
L 242.965289 -426.865747 
L 236.816529 -427.134885 
L 230.667769 -427.073653 
L 224.519008 -426.953885 
L 218.370248 -427.157216 
L 212.221488 -427.258143 
L 206.072727 -427.421291 
L 199.923967 -427.491846 
L 193.775207 -427.527504 
L 187.626446 -427.350914 
L 181.477686 -427.288557 
L 175.328926 -427.011328 
L 169.180165 -426.185933 
L 163.031405 -425.770615 
L 156.882645 -425.161196 
L 150.733884 -424.822248 
L 144.585124 -423.67376 
L 138.436364 -423.116304 
z
" style="stroke: #b72b34; stroke-opacity: 0.2"/>
    </defs>
    <g clip-path="url(#p90ef45d694)">
     <use xlink:href="#m6bbf0f807f" x="0" y="576" style="fill: #b72b34; fill-opacity: 0.2; stroke: #b72b34; stroke-opacity: 0.2"/>
    </g>
   </g>
   <g id="matplotlib.axis_1">
    <g id="xtick_1">
     <g id="line2d_4">
      <path d="M 138.436364 512.64 
L 138.436364 69.12 
" clip-path="url(#p90ef45d694)" style="fill: none; stroke: #b0b0b0; stroke-width: 0.8; stroke-linecap: square"/>
     </g>
     <g id="line2d_5">
      <defs>
       <path id="mbb92b81303" d="M 0 0 
L 0 3.5 
" style="stroke: #000000; stroke-width: 0.8"/>
      </defs>
      <g>
       <use xlink:href="#mbb92b81303" x="138.436364" y="512.64" style="stroke: #000000; stroke-width: 0.8"/>
      </g>
     </g>
     <g id="text_1">
      <!-- 0.2 -->
      <g transform="translate(130.666364 528.52375) scale(0.12 -0.12)">
       <defs>
        <path id="SegoeUIThis-30" d="M 1681 -75 
Q 1016 -75 642 497 
Q 269 1069 269 2150 
Q 269 3338 658 3947 
Q 1047 4556 1781 4556 
Q 3188 4556 3188 2259 
Q 3188 1122 2791 523 
Q 2394 -75 1681 -75 
z
M 1753 4122 
Q 794 4122 794 2175 
Q 794 356 1734 356 
Q 2663 356 2663 2206 
Q 2663 4122 1753 4122 
z
" transform="scale(0.015625)"/>
        <path id="SegoeUIThis-2e" d="M 697 -69 
Q 553 -69 451 34 
Q 350 138 350 281 
Q 350 425 451 529 
Q 553 634 697 634 
Q 844 634 947 529 
Q 1050 425 1050 281 
Q 1050 138 947 34 
Q 844 -69 697 -69 
z
" transform="scale(0.015625)"/>
        <path id="SegoeUIThis-32" d="M 3000 0 
L 300 0 
L 300 456 
L 1606 1766 
Q 2106 2266 2320 2598 
Q 2534 2931 2534 3309 
Q 2534 3697 2312 3909 
Q 2091 4122 1681 4122 
Q 1081 4122 531 3609 
L 531 4147 
Q 1056 4556 1753 4556 
Q 2353 4556 2697 4231 
Q 3041 3906 3041 3359 
Q 3041 2928 2803 2517 
Q 2566 2106 1950 1497 
L 916 475 
L 916 463 
L 3000 463 
L 3000 0 
z
" transform="scale(0.015625)"/>
       </defs>
       <use xlink:href="#SegoeUIThis-30"/>
       <use xlink:href="#SegoeUIThis-2e" x="53.90625"/>
       <use xlink:href="#SegoeUIThis-32" x="75.585938"/>
      </g>
     </g>
    </g>
    <g id="xtick_2">
     <g id="line2d_6">
      <path d="M 214.527273 512.64 
L 214.527273 69.12 
" clip-path="url(#p90ef45d694)" style="fill: none; stroke: #b0b0b0; stroke-width: 0.8; stroke-linecap: square"/>
     </g>
     <g id="line2d_7">
      <g>
       <use xlink:href="#mbb92b81303" x="214.527273" y="512.64" style="stroke: #000000; stroke-width: 0.8"/>
      </g>
     </g>
     <g id="text_2">
      <!-- 0.4 -->
      <g transform="translate(206.757273 528.52375) scale(0.12 -0.12)">
       <defs>
        <path id="SegoeUIThis-34" d="M 3231 1191 
L 2656 1191 
L 2656 0 
L 2150 0 
L 2150 1191 
L 44 1191 
L 44 1525 
L 2038 4481 
L 2656 4481 
L 2656 1606 
L 3231 1606 
L 3231 1191 
z
M 2150 1606 
L 2150 3544 
Q 2150 3750 2163 4006 
L 2150 4006 
Q 2106 3894 1978 3663 
L 600 1606 
L 2150 1606 
z
" transform="scale(0.015625)"/>
       </defs>
       <use xlink:href="#SegoeUIThis-30"/>
       <use xlink:href="#SegoeUIThis-2e" x="53.90625"/>
       <use xlink:href="#SegoeUIThis-34" x="75.585938"/>
      </g>
     </g>
    </g>
    <g id="xtick_3">
     <g id="line2d_8">
      <path d="M 290.618182 512.64 
L 290.618182 69.12 
" clip-path="url(#p90ef45d694)" style="fill: none; stroke: #b0b0b0; stroke-width: 0.8; stroke-linecap: square"/>
     </g>
     <g id="line2d_9">
      <g>
       <use xlink:href="#mbb92b81303" x="290.618182" y="512.64" style="stroke: #000000; stroke-width: 0.8"/>
      </g>
     </g>
     <g id="text_3">
      <!-- 0.6 -->
      <g transform="translate(282.848182 528.52375) scale(0.12 -0.12)">
       <defs>
        <path id="SegoeUIThis-36" d="M 2919 4428 
L 2919 3944 
Q 2572 4122 2188 4122 
Q 1591 4122 1233 3590 
Q 875 3059 875 2169 
L 888 2169 
Q 1200 2803 1913 2803 
Q 2500 2803 2847 2426 
Q 3194 2050 3194 1419 
Q 3194 759 2797 342 
Q 2400 -75 1788 -75 
Q 1113 -75 728 462 
Q 344 1000 344 1972 
Q 344 3150 847 3853 
Q 1350 4556 2175 4556 
Q 2644 4556 2919 4428 
z
M 1800 2369 
Q 1403 2369 1156 2100 
Q 909 1831 909 1466 
Q 909 1006 1154 681 
Q 1400 356 1806 356 
Q 2194 356 2431 639 
Q 2669 922 2669 1356 
Q 2669 1831 2441 2100 
Q 2213 2369 1800 2369 
z
" transform="scale(0.015625)"/>
       </defs>
       <use xlink:href="#SegoeUIThis-30"/>
       <use xlink:href="#SegoeUIThis-2e" x="53.90625"/>
       <use xlink:href="#SegoeUIThis-36" x="75.585938"/>
      </g>
     </g>
    </g>
    <g id="xtick_4">
     <g id="line2d_10">
      <path d="M 366.709091 512.64 
L 366.709091 69.12 
" clip-path="url(#p90ef45d694)" style="fill: none; stroke: #b0b0b0; stroke-width: 0.8; stroke-linecap: square"/>
     </g>
     <g id="line2d_11">
      <g>
       <use xlink:href="#mbb92b81303" x="366.709091" y="512.64" style="stroke: #000000; stroke-width: 0.8"/>
      </g>
     </g>
     <g id="text_4">
      <!-- 0.8 -->
      <g transform="translate(358.939091 528.52375) scale(0.12 -0.12)">
       <defs>
        <path id="SegoeUIThis-38" d="M 1281 2350 
L 1281 2363 
Q 475 2738 475 3450 
Q 475 3934 844 4245 
Q 1213 4556 1794 4556 
Q 2319 4556 2656 4265 
Q 2994 3975 2994 3519 
Q 2994 2775 2163 2363 
L 2163 2350 
Q 3144 2000 3144 1138 
Q 3144 581 2744 253 
Q 2344 -75 1631 -75 
Q 1056 -75 684 250 
Q 313 575 313 1094 
Q 313 1956 1281 2350 
z
M 2469 3456 
Q 2469 3766 2275 3944 
Q 2081 4122 1747 4122 
Q 1434 4122 1217 3936 
Q 1000 3750 1000 3463 
Q 1000 2878 1728 2581 
Q 2469 2888 2469 3456 
z
M 1694 2106 
Q 838 1766 838 1119 
Q 838 784 1086 570 
Q 1334 356 1741 356 
Q 2128 356 2373 567 
Q 2619 778 2619 1100 
Q 2619 1775 1694 2106 
z
" transform="scale(0.015625)"/>
       </defs>
       <use xlink:href="#SegoeUIThis-30"/>
       <use xlink:href="#SegoeUIThis-2e" x="53.90625"/>
       <use xlink:href="#SegoeUIThis-38" x="75.585938"/>
      </g>
     </g>
    </g>
    <g id="xtick_5">
     <g id="line2d_12">
      <path d="M 442.8 512.64 
L 442.8 69.12 
" clip-path="url(#p90ef45d694)" style="fill: none; stroke: #b0b0b0; stroke-width: 0.8; stroke-linecap: square"/>
     </g>
     <g id="line2d_13">
      <g>
       <use xlink:href="#mbb92b81303" x="442.8" y="512.64" style="stroke: #000000; stroke-width: 0.8"/>
      </g>
     </g>
     <g id="text_5">
      <!-- 1.0 -->
      <g transform="translate(435.03 528.52375) scale(0.12 -0.12)">
       <defs>
        <path id="SegoeUIThis-31" d="M 3084 0 
L 550 0 
L 550 450 
L 1563 450 
L 1563 3931 
L 525 3622 
L 525 4109 
L 2075 4581 
L 2075 450 
L 3084 450 
L 3084 0 
z
" transform="scale(0.015625)"/>
       </defs>
       <use xlink:href="#SegoeUIThis-31"/>
       <use xlink:href="#SegoeUIThis-2e" x="53.90625"/>
       <use xlink:href="#SegoeUIThis-30" x="75.585938"/>
      </g>
     </g>
    </g>
    <g id="xtick_6">
     <g id="line2d_14">
      <path d="M 518.890909 512.64 
L 518.890909 69.12 
" clip-path="url(#p90ef45d694)" style="fill: none; stroke: #b0b0b0; stroke-width: 0.8; stroke-linecap: square"/>
     </g>
     <g id="line2d_15">
      <g>
       <use xlink:href="#mbb92b81303" x="518.890909" y="512.64" style="stroke: #000000; stroke-width: 0.8"/>
      </g>
     </g>
     <g id="text_6">
      <!-- 1.2 -->
      <g transform="translate(511.120909 528.52375) scale(0.12 -0.12)">
       <use xlink:href="#SegoeUIThis-31"/>
       <use xlink:href="#SegoeUIThis-2e" x="53.90625"/>
       <use xlink:href="#SegoeUIThis-32" x="75.585938"/>
      </g>
     </g>
    </g>
    <g id="xtick_7">
     <g id="line2d_16">
      <path d="M 594.981818 512.64 
L 594.981818 69.12 
" clip-path="url(#p90ef45d694)" style="fill: none; stroke: #b0b0b0; stroke-width: 0.8; stroke-linecap: square"/>
     </g>
     <g id="line2d_17">
      <g>
       <use xlink:href="#mbb92b81303" x="594.981818" y="512.64" style="stroke: #000000; stroke-width: 0.8"/>
      </g>
     </g>
     <g id="text_7">
      <!-- 1.4 -->
      <g transform="translate(587.211818 528.52375) scale(0.12 -0.12)">
       <use xlink:href="#SegoeUIThis-31"/>
       <use xlink:href="#SegoeUIThis-2e" x="53.90625"/>
       <use xlink:href="#SegoeUIThis-34" x="75.585938"/>
      </g>
     </g>
    </g>
    <g id="xtick_8">
     <g id="line2d_18">
      <path d="M 671.072727 512.64 
L 671.072727 69.12 
" clip-path="url(#p90ef45d694)" style="fill: none; stroke: #b0b0b0; stroke-width: 0.8; stroke-linecap: square"/>
     </g>
     <g id="line2d_19">
      <g>
       <use xlink:href="#mbb92b81303" x="671.072727" y="512.64" style="stroke: #000000; stroke-width: 0.8"/>
      </g>
     </g>
     <g id="text_8">
      <!-- 1.6 -->
      <g transform="translate(663.302727 528.52375) scale(0.12 -0.12)">
       <use xlink:href="#SegoeUIThis-31"/>
       <use xlink:href="#SegoeUIThis-2e" x="53.90625"/>
       <use xlink:href="#SegoeUIThis-36" x="75.585938"/>
      </g>
     </g>
    </g>
    <g id="xtick_9">
     <g id="line2d_20">
      <path d="M 747.163636 512.64 
L 747.163636 69.12 
" clip-path="url(#p90ef45d694)" style="fill: none; stroke: #b0b0b0; stroke-width: 0.8; stroke-linecap: square"/>
     </g>
     <g id="line2d_21">
      <g>
       <use xlink:href="#mbb92b81303" x="747.163636" y="512.64" style="stroke: #000000; stroke-width: 0.8"/>
      </g>
     </g>
     <g id="text_9">
      <!-- 1.8 -->
      <g transform="translate(739.393636 528.52375) scale(0.12 -0.12)">
       <use xlink:href="#SegoeUIThis-31"/>
       <use xlink:href="#SegoeUIThis-2e" x="53.90625"/>
       <use xlink:href="#SegoeUIThis-38" x="75.585938"/>
      </g>
     </g>
    </g>
    <g id="text_10">
     <!-- Pendulum lengths (m) -->
     <g transform="translate(355.521094 548.609375) scale(0.18 -0.18)">
      <defs>
       <path id="SegoeUIThis-50" d="M 1113 1694 
L 1113 0 
L 588 0 
L 588 4481 
L 1819 4481 
Q 2538 4481 2933 4131 
Q 3328 3781 3328 3144 
Q 3328 2506 2889 2100 
Q 2450 1694 1703 1694 
L 1113 1694 
z
M 1113 4006 
L 1113 2169 
L 1663 2169 
Q 2206 2169 2492 2417 
Q 2778 2666 2778 3119 
Q 2778 4006 1728 4006 
L 1113 4006 
z
" transform="scale(0.015625)"/>
       <path id="SegoeUIThis-65" d="M 3091 1472 
L 831 1472 
Q 844 938 1119 647 
Q 1394 356 1875 356 
Q 2416 356 2869 713 
L 2869 231 
Q 2447 -75 1753 -75 
Q 1075 -75 687 361 
Q 300 797 300 1588 
Q 300 2334 723 2804 
Q 1147 3275 1775 3275 
Q 2403 3275 2747 2869 
Q 3091 2463 3091 1741 
L 3091 1472 
z
M 2566 1906 
Q 2563 2350 2352 2597 
Q 2141 2844 1766 2844 
Q 1403 2844 1150 2584 
Q 897 2325 838 1906 
L 2566 1906 
z
" transform="scale(0.015625)"/>
       <path id="SegoeUIThis-6e" d="M 3175 0 
L 2663 0 
L 2663 1825 
Q 2663 2844 1919 2844 
Q 1534 2844 1282 2555 
Q 1031 2266 1031 1825 
L 1031 0 
L 519 0 
L 519 3200 
L 1031 3200 
L 1031 2669 
L 1044 2669 
Q 1406 3275 2094 3275 
Q 2619 3275 2897 2936 
Q 3175 2597 3175 1956 
L 3175 0 
z
" transform="scale(0.015625)"/>
       <path id="SegoeUIThis-64" d="M 3250 0 
L 2738 0 
L 2738 544 
L 2725 544 
Q 2369 -75 1625 -75 
Q 1022 -75 661 354 
Q 300 784 300 1525 
Q 300 2319 700 2797 
Q 1100 3275 1766 3275 
Q 2425 3275 2725 2756 
L 2738 2756 
L 2738 4738 
L 3250 4738 
L 3250 0 
z
M 2738 1447 
L 2738 1919 
Q 2738 2306 2481 2575 
Q 2225 2844 1831 2844 
Q 1363 2844 1094 2500 
Q 825 2156 825 1550 
Q 825 997 1083 676 
Q 1341 356 1775 356 
Q 2203 356 2470 665 
Q 2738 975 2738 1447 
z
" transform="scale(0.015625)"/>
       <path id="SegoeUIThis-75" d="M 3106 0 
L 2594 0 
L 2594 506 
L 2581 506 
Q 2263 -75 1594 -75 
Q 450 -75 450 1288 
L 450 3200 
L 959 3200 
L 959 1369 
Q 959 356 1734 356 
Q 2109 356 2351 632 
Q 2594 909 2594 1356 
L 2594 3200 
L 3106 3200 
L 3106 0 
z
" transform="scale(0.015625)"/>
       <path id="SegoeUIThis-6c" d="M 1031 0 
L 519 0 
L 519 4738 
L 1031 4738 
L 1031 0 
z
" transform="scale(0.015625)"/>
       <path id="SegoeUIThis-6d" d="M 5063 0 
L 4550 0 
L 4550 1838 
Q 4550 2369 4386 2606 
Q 4222 2844 3834 2844 
Q 3506 2844 3276 2544 
Q 3047 2244 3047 1825 
L 3047 0 
L 2534 0 
L 2534 1900 
Q 2534 2844 1806 2844 
Q 1469 2844 1250 2561 
Q 1031 2278 1031 1825 
L 1031 0 
L 519 0 
L 519 3200 
L 1031 3200 
L 1031 2694 
L 1044 2694 
Q 1384 3275 2038 3275 
Q 2366 3275 2609 3092 
Q 2853 2909 2944 2613 
Q 3300 3275 4006 3275 
Q 5063 3275 5063 1972 
L 5063 0 
z
" transform="scale(0.015625)"/>
       <path id="SegoeUIThis-20" transform="scale(0.015625)"/>
       <path id="SegoeUIThis-67" d="M 3250 256 
Q 3250 -1506 1563 -1506 
Q 969 -1506 525 -1281 
L 525 -769 
Q 1066 -1069 1556 -1069 
Q 2738 -1069 2738 188 
L 2738 538 
L 2725 538 
Q 2359 -75 1625 -75 
Q 1028 -75 664 351 
Q 300 778 300 1497 
Q 300 2313 692 2794 
Q 1084 3275 1766 3275 
Q 2413 3275 2725 2756 
L 2738 2756 
L 2738 3200 
L 3250 3200 
L 3250 256 
z
M 2738 1447 
L 2738 1919 
Q 2738 2300 2480 2572 
Q 2222 2844 1838 2844 
Q 1363 2844 1094 2498 
Q 825 2153 825 1531 
Q 825 997 1083 676 
Q 1341 356 1766 356 
Q 2197 356 2467 662 
Q 2738 969 2738 1447 
z
" transform="scale(0.015625)"/>
       <path id="SegoeUIThis-74" d="M 2003 31 
Q 1822 -69 1525 -69 
Q 684 -69 684 869 
L 684 2763 
L 134 2763 
L 134 3200 
L 684 3200 
L 684 3981 
L 1197 4147 
L 1197 3200 
L 2003 3200 
L 2003 2763 
L 1197 2763 
L 1197 959 
Q 1197 638 1306 500 
Q 1416 363 1669 363 
Q 1863 363 2003 469 
L 2003 31 
z
" transform="scale(0.015625)"/>
       <path id="SegoeUIThis-68" d="M 3175 0 
L 2663 0 
L 2663 1844 
Q 2663 2844 1919 2844 
Q 1544 2844 1287 2555 
Q 1031 2266 1031 1813 
L 1031 0 
L 519 0 
L 519 4738 
L 1031 4738 
L 1031 2669 
L 1044 2669 
Q 1413 3275 2094 3275 
Q 3175 3275 3175 1972 
L 3175 0 
z
" transform="scale(0.015625)"/>
       <path id="SegoeUIThis-73" d="M 325 116 
L 325 666 
Q 744 356 1247 356 
Q 1922 356 1922 806 
Q 1922 934 1864 1023 
Q 1806 1113 1707 1181 
Q 1609 1250 1476 1304 
Q 1344 1359 1191 1419 
Q 978 1503 817 1589 
Q 656 1675 548 1783 
Q 441 1891 386 2028 
Q 331 2166 331 2350 
Q 331 2575 434 2748 
Q 538 2922 709 3039 
Q 881 3156 1101 3215 
Q 1322 3275 1556 3275 
Q 1972 3275 2300 3131 
L 2300 2613 
Q 1947 2844 1488 2844 
Q 1344 2844 1228 2811 
Q 1113 2778 1030 2718 
Q 947 2659 901 2576 
Q 856 2494 856 2394 
Q 856 2269 901 2184 
Q 947 2100 1034 2034 
Q 1122 1969 1247 1916 
Q 1372 1863 1531 1800 
Q 1744 1719 1912 1633 
Q 2081 1547 2200 1439 
Q 2319 1331 2383 1190 
Q 2447 1050 2447 856 
Q 2447 619 2342 444 
Q 2238 269 2063 153 
Q 1888 38 1659 -18 
Q 1431 -75 1181 -75 
Q 688 -75 325 116 
z
" transform="scale(0.015625)"/>
       <path id="SegoeUIThis-28" d="M 1863 -1019 
L 1406 -1019 
Q 438 88 438 1709 
Q 438 3338 1406 4481 
L 1869 4481 
Q 888 3294 888 1716 
Q 888 150 1863 -1019 
z
" transform="scale(0.015625)"/>
       <path id="SegoeUIThis-29" d="M 531 -1019 
L 75 -1019 
Q 1050 150 1050 1716 
Q 1050 3294 69 4481 
L 531 4481 
Q 1506 3338 1506 1709 
Q 1506 88 531 -1019 
z
" transform="scale(0.015625)"/>
      </defs>
      <use xlink:href="#SegoeUIThis-50"/>
      <use xlink:href="#SegoeUIThis-65" x="52.255859"/>
      <use xlink:href="#SegoeUIThis-6e" x="104.550781"/>
      <use xlink:href="#SegoeUIThis-64" x="161.142578"/>
      <use xlink:href="#SegoeUIThis-75" x="220.029297"/>
      <use xlink:href="#SegoeUIThis-6c" x="276.621094"/>
      <use xlink:href="#SegoeUIThis-75" x="300.839844"/>
      <use xlink:href="#SegoeUIThis-6d" x="357.431641"/>
      <use xlink:href="#SegoeUIThis-20" x="443.564453"/>
      <use xlink:href="#SegoeUIThis-6c" x="470.957031"/>
      <use xlink:href="#SegoeUIThis-65" x="495.175781"/>
      <use xlink:href="#SegoeUIThis-6e" x="547.470703"/>
      <use xlink:href="#SegoeUIThis-67" x="604.0625"/>
      <use xlink:href="#SegoeUIThis-74" x="662.949219"/>
      <use xlink:href="#SegoeUIThis-68" x="696.835938"/>
      <use xlink:href="#SegoeUIThis-73" x="753.427734"/>
      <use xlink:href="#SegoeUIThis-20" x="795.859375"/>
      <use xlink:href="#SegoeUIThis-28" x="823.251953"/>
      <use xlink:href="#SegoeUIThis-6d" x="853.427734"/>
      <use xlink:href="#SegoeUIThis-29" x="939.560547"/>
     </g>
    </g>
   </g>
   <g id="matplotlib.axis_2">
    <g id="ytick_1">
     <g id="line2d_22">
      <path d="M 108 472.559973 
L 777.6 472.559973 
" clip-path="url(#p90ef45d694)" style="fill: none; stroke: #b0b0b0; stroke-width: 0.8; stroke-linecap: square"/>
     </g>
     <g id="line2d_23">
      <defs>
       <path id="m58db86e30c" d="M 0 0 
L -3.5 0 
" style="stroke: #000000; stroke-width: 0.8"/>
      </defs>
      <g>
       <use xlink:href="#m58db86e30c" x="108" y="472.559973" style="stroke: #000000; stroke-width: 0.8"/>
      </g>
     </g>
     <g id="text_11">
      <!-- −800 -->
      <g transform="translate(73.385 477.001848) scale(0.12 -0.12)">
       <defs>
        <path id="SegoeUIThis-2212" d="M 3663 1656 
L 725 1656 
L 725 2075 
L 3663 2075 
L 3663 1656 
z
" transform="scale(0.015625)"/>
       </defs>
       <use xlink:href="#SegoeUIThis-2212"/>
       <use xlink:href="#SegoeUIThis-38" x="68.408203"/>
       <use xlink:href="#SegoeUIThis-30" x="122.314453"/>
       <use xlink:href="#SegoeUIThis-30" x="176.220703"/>
      </g>
     </g>
    </g>
    <g id="ytick_2">
     <g id="line2d_24">
      <path d="M 108 385.930236 
L 777.6 385.930236 
" clip-path="url(#p90ef45d694)" style="fill: none; stroke: #b0b0b0; stroke-width: 0.8; stroke-linecap: square"/>
     </g>
     <g id="line2d_25">
      <g>
       <use xlink:href="#m58db86e30c" x="108" y="385.930236" style="stroke: #000000; stroke-width: 0.8"/>
      </g>
     </g>
     <g id="text_12">
      <!-- −600 -->
      <g transform="translate(73.385 390.372111) scale(0.12 -0.12)">
       <use xlink:href="#SegoeUIThis-2212"/>
       <use xlink:href="#SegoeUIThis-36" x="68.408203"/>
       <use xlink:href="#SegoeUIThis-30" x="122.314453"/>
       <use xlink:href="#SegoeUIThis-30" x="176.220703"/>
      </g>
     </g>
    </g>
    <g id="ytick_3">
     <g id="line2d_26">
      <path d="M 108 299.300498 
L 777.6 299.300498 
" clip-path="url(#p90ef45d694)" style="fill: none; stroke: #b0b0b0; stroke-width: 0.8; stroke-linecap: square"/>
     </g>
     <g id="line2d_27">
      <g>
       <use xlink:href="#m58db86e30c" x="108" y="299.300498" style="stroke: #000000; stroke-width: 0.8"/>
      </g>
     </g>
     <g id="text_13">
      <!-- −400 -->
      <g transform="translate(73.385 303.742373) scale(0.12 -0.12)">
       <use xlink:href="#SegoeUIThis-2212"/>
       <use xlink:href="#SegoeUIThis-34" x="68.408203"/>
       <use xlink:href="#SegoeUIThis-30" x="122.314453"/>
       <use xlink:href="#SegoeUIThis-30" x="176.220703"/>
      </g>
     </g>
    </g>
    <g id="ytick_4">
     <g id="line2d_28">
      <path d="M 108 212.670761 
L 777.6 212.670761 
" clip-path="url(#p90ef45d694)" style="fill: none; stroke: #b0b0b0; stroke-width: 0.8; stroke-linecap: square"/>
     </g>
     <g id="line2d_29">
      <g>
       <use xlink:href="#m58db86e30c" x="108" y="212.670761" style="stroke: #000000; stroke-width: 0.8"/>
      </g>
     </g>
     <g id="text_14">
      <!-- −200 -->
      <g transform="translate(73.385 217.112636) scale(0.12 -0.12)">
       <use xlink:href="#SegoeUIThis-2212"/>
       <use xlink:href="#SegoeUIThis-32" x="68.408203"/>
       <use xlink:href="#SegoeUIThis-30" x="122.314453"/>
       <use xlink:href="#SegoeUIThis-30" x="176.220703"/>
      </g>
     </g>
    </g>
    <g id="ytick_5">
     <g id="line2d_30">
      <path d="M 108 126.041024 
L 777.6 126.041024 
" clip-path="url(#p90ef45d694)" style="fill: none; stroke: #b0b0b0; stroke-width: 0.8; stroke-linecap: square"/>
     </g>
     <g id="line2d_31">
      <g>
       <use xlink:href="#m58db86e30c" x="108" y="126.041024" style="stroke: #000000; stroke-width: 0.8"/>
      </g>
     </g>
     <g id="text_15">
      <!-- 0 -->
      <g transform="translate(94.53125 130.482899) scale(0.12 -0.12)">
       <use xlink:href="#SegoeUIThis-30"/>
      </g>
     </g>
    </g>
    <g id="text_16">
     <!-- Reward -->
     <g transform="translate(65.245 320.222813) rotate(-90) scale(0.18 -0.18)">
      <defs>
       <path id="SegoeUIThis-52" d="M 3800 0 
L 3175 0 
L 2425 1256 
Q 2322 1431 2225 1554 
Q 2128 1678 2026 1756 
Q 1925 1834 1808 1870 
Q 1691 1906 1544 1906 
L 1113 1906 
L 1113 0 
L 588 0 
L 588 4481 
L 1925 4481 
Q 2219 4481 2467 4407 
Q 2716 4334 2898 4184 
Q 3081 4034 3184 3811 
Q 3288 3588 3288 3288 
Q 3288 3053 3217 2858 
Q 3147 2663 3017 2509 
Q 2888 2356 2705 2248 
Q 2522 2141 2294 2081 
L 2294 2069 
Q 2406 2019 2489 1955 
Q 2572 1891 2647 1803 
Q 2722 1716 2795 1605 
Q 2869 1494 2959 1347 
L 3800 0 
z
M 1113 4006 
L 1113 2381 
L 1825 2381 
Q 2022 2381 2189 2440 
Q 2356 2500 2478 2611 
Q 2600 2722 2669 2883 
Q 2738 3044 2738 3244 
Q 2738 3603 2505 3804 
Q 2272 4006 1831 4006 
L 1113 4006 
z
" transform="scale(0.015625)"/>
       <path id="SegoeUIThis-77" d="M 4550 3200 
L 3591 0 
L 3059 0 
L 2400 2291 
Q 2363 2422 2350 2588 
L 2338 2588 
Q 2328 2475 2272 2297 
L 1556 0 
L 1044 0 
L 75 3200 
L 613 3200 
L 1275 794 
Q 1306 684 1319 506 
L 1344 506 
Q 1353 644 1400 800 
L 2138 3200 
L 2606 3200 
L 3269 788 
Q 3300 672 3316 500 
L 3341 500 
Q 3347 622 3394 788 
L 4044 3200 
L 4550 3200 
z
" transform="scale(0.015625)"/>
       <path id="SegoeUIThis-61" d="M 2809 0 
L 2297 0 
L 2297 500 
L 2284 500 
Q 1950 -75 1300 -75 
Q 822 -75 551 178 
Q 281 431 281 850 
Q 281 1747 1338 1894 
L 2297 2028 
Q 2297 2844 1638 2844 
Q 1059 2844 594 2450 
L 594 2975 
Q 1066 3275 1681 3275 
Q 2809 3275 2809 2081 
L 2809 0 
z
M 2297 1619 
L 1525 1513 
Q 1169 1463 987 1336 
Q 806 1209 806 888 
Q 806 653 973 504 
Q 1141 356 1419 356 
Q 1800 356 2048 623 
Q 2297 891 2297 1300 
L 2297 1619 
z
" transform="scale(0.015625)"/>
       <path id="SegoeUIThis-72" d="M 2188 2681 
Q 2053 2784 1800 2784 
Q 1472 2784 1251 2475 
Q 1031 2166 1031 1631 
L 1031 0 
L 519 0 
L 519 3200 
L 1031 3200 
L 1031 2541 
L 1044 2541 
Q 1153 2878 1378 3067 
Q 1603 3256 1881 3256 
Q 2081 3256 2188 3213 
L 2188 2681 
z
" transform="scale(0.015625)"/>
      </defs>
      <use xlink:href="#SegoeUIThis-52"/>
      <use xlink:href="#SegoeUIThis-65" x="56.939453"/>
      <use xlink:href="#SegoeUIThis-77" x="109.234375"/>
      <use xlink:href="#SegoeUIThis-61" x="181.5"/>
      <use xlink:href="#SegoeUIThis-72" x="232.378906"/>
      <use xlink:href="#SegoeUIThis-64" x="267.144531"/>
     </g>
    </g>
   </g>
   <g id="line2d_32">
    <path d="M 108 191.013327 
L 777.6 191.013327 
" clip-path="url(#p90ef45d694)" style="fill: none; stroke-dasharray: 5.55,2.4; stroke-dashoffset: 0; stroke: #000000; stroke-width: 1.5"/>
   </g>
   <g id="patch_3">
    <path d="M 108 512.64 
L 108 69.12 
" style="fill: none; stroke: #000000; stroke-width: 0.8; stroke-linejoin: miter; stroke-linecap: square"/>
   </g>
   <g id="patch_4">
    <path d="M 777.6 512.64 
L 777.6 69.12 
" style="fill: none; stroke: #000000; stroke-width: 0.8; stroke-linejoin: miter; stroke-linecap: square"/>
   </g>
   <g id="patch_5">
    <path d="M 108 512.64 
L 777.6 512.64 
" style="fill: none; stroke: #000000; stroke-width: 0.8; stroke-linejoin: miter; stroke-linecap: square"/>
   </g>
   <g id="patch_6">
    <path d="M 108 69.12 
L 777.6 69.12 
" style="fill: none; stroke: #000000; stroke-width: 0.8; stroke-linejoin: miter; stroke-linecap: square"/>
   </g>
   <g id="text_17">
    <!-- Pendulum Length Robustness Comparison -->
    <g transform="translate(46.453125 59.72625) scale(0.4 -0.4)">
     <defs>
      <path id="SegoeUIThis-Bold-50" d="M 1522 1544 
L 1522 0 
L 513 0 
L 513 4481 
L 2094 4481 
Q 3788 4481 3788 3053 
Q 3788 2378 3302 1961 
Q 2816 1544 2003 1544 
L 1522 1544 
z
M 1522 3706 
L 1522 2309 
L 1919 2309 
Q 2725 2309 2725 3016 
Q 2725 3706 1919 3706 
L 1522 3706 
z
" transform="scale(0.015625)"/>
      <path id="SegoeUIThis-Bold-65" d="M 3291 1319 
L 1203 1319 
Q 1253 622 2081 622 
Q 2609 622 3009 872 
L 3009 159 
Q 2566 -78 1856 -78 
Q 1081 -78 653 351 
Q 225 781 225 1550 
Q 225 2347 687 2812 
Q 1150 3278 1825 3278 
Q 2525 3278 2908 2862 
Q 3291 2447 3291 1734 
L 3291 1319 
z
M 2375 1925 
Q 2375 2613 1819 2613 
Q 1581 2613 1407 2416 
Q 1234 2219 1197 1925 
L 2375 1925 
z
" transform="scale(0.015625)"/>
      <path id="SegoeUIThis-Bold-6e" d="M 3506 0 
L 2522 0 
L 2522 1778 
Q 2522 2522 1991 2522 
Q 1734 2522 1568 2325 
Q 1403 2128 1403 1825 
L 1403 0 
L 416 0 
L 416 3200 
L 1403 3200 
L 1403 2694 
L 1416 2694 
Q 1769 3278 2444 3278 
Q 3506 3278 3506 1959 
L 3506 0 
z
" transform="scale(0.015625)"/>
      <path id="SegoeUIThis-Bold-64" d="M 3547 0 
L 2559 0 
L 2559 441 
L 2547 441 
Q 2209 -78 1556 -78 
Q 956 -78 590 345 
Q 225 769 225 1528 
Q 225 2322 628 2800 
Q 1031 3278 1684 3278 
Q 2303 3278 2547 2834 
L 2559 2834 
L 2559 4738 
L 3547 4738 
L 3547 0 
z
M 2578 1556 
L 2578 1797 
Q 2578 2109 2397 2315 
Q 2216 2522 1925 2522 
Q 1597 2522 1412 2264 
Q 1228 2006 1228 1556 
Q 1228 1134 1406 906 
Q 1584 678 1900 678 
Q 2200 678 2389 918 
Q 2578 1159 2578 1556 
z
" transform="scale(0.015625)"/>
      <path id="SegoeUIThis-Bold-75" d="M 3456 0 
L 2472 0 
L 2472 488 
L 2456 488 
Q 2091 -78 1478 -78 
Q 366 -78 366 1269 
L 366 3200 
L 1350 3200 
L 1350 1356 
Q 1350 678 1888 678 
Q 2153 678 2312 864 
Q 2472 1050 2472 1369 
L 2472 3200 
L 3456 3200 
L 3456 0 
z
" transform="scale(0.015625)"/>
      <path id="SegoeUIThis-Bold-6c" d="M 1403 0 
L 416 0 
L 416 4738 
L 1403 4738 
L 1403 0 
z
" transform="scale(0.015625)"/>
      <path id="SegoeUIThis-Bold-6d" d="M 5497 0 
L 4513 0 
L 4513 1825 
Q 4513 2522 4000 2522 
Q 3756 2522 3603 2312 
Q 3450 2103 3450 1791 
L 3450 0 
L 2463 0 
L 2463 1844 
Q 2463 2522 1959 2522 
Q 1706 2522 1554 2322 
Q 1403 2122 1403 1778 
L 1403 0 
L 416 0 
L 416 3200 
L 1403 3200 
L 1403 2700 
L 1416 2700 
Q 1569 2956 1845 3117 
Q 2122 3278 2450 3278 
Q 3128 3278 3378 2681 
Q 3744 3278 4453 3278 
Q 5497 3278 5497 1991 
L 5497 0 
z
" transform="scale(0.015625)"/>
      <path id="SegoeUIThis-Bold-20" transform="scale(0.015625)"/>
      <path id="SegoeUIThis-Bold-4c" d="M 3181 0 
L 513 0 
L 513 4481 
L 1522 4481 
L 1522 819 
L 3181 819 
L 3181 0 
z
" transform="scale(0.015625)"/>
      <path id="SegoeUIThis-Bold-67" d="M 3553 366 
Q 3553 -525 3037 -1014 
Q 2522 -1503 1544 -1503 
Q 897 -1503 519 -1319 
L 519 -488 
Q 1013 -775 1516 -775 
Q 2016 -775 2291 -511 
Q 2566 -247 2566 206 
L 2566 459 
L 2553 459 
Q 2216 -78 1556 -78 
Q 944 -78 584 353 
Q 225 784 225 1509 
Q 225 2322 625 2800 
Q 1025 3278 1678 3278 
Q 2263 3278 2553 2828 
L 2566 2828 
L 2566 3200 
L 3553 3200 
L 3553 366 
z
M 2578 1538 
L 2578 1791 
Q 2578 2094 2398 2308 
Q 2219 2522 1931 2522 
Q 1603 2522 1415 2265 
Q 1228 2009 1228 1544 
Q 1228 1144 1406 911 
Q 1584 678 1894 678 
Q 2200 678 2389 914 
Q 2578 1150 2578 1538 
z
" transform="scale(0.015625)"/>
      <path id="SegoeUIThis-Bold-74" d="M 2350 38 
Q 2131 -78 1691 -78 
Q 647 -78 647 1006 
L 647 2472 
L 128 2472 
L 128 3200 
L 647 3200 
L 647 3891 
L 1631 4172 
L 1631 3200 
L 2350 3200 
L 2350 2472 
L 1631 2472 
L 1631 1178 
Q 1631 678 2028 678 
Q 2184 678 2350 769 
L 2350 38 
z
" transform="scale(0.015625)"/>
      <path id="SegoeUIThis-Bold-68" d="M 3488 0 
L 2503 0 
L 2503 1819 
Q 2503 2522 1991 2522 
Q 1728 2522 1565 2325 
Q 1403 2128 1403 1825 
L 1403 0 
L 416 0 
L 416 4738 
L 1403 4738 
L 1403 2725 
L 1416 2725 
Q 1778 3278 2400 3278 
Q 3488 3278 3488 1966 
L 3488 0 
z
" transform="scale(0.015625)"/>
      <path id="SegoeUIThis-Bold-52" d="M 4272 0 
L 3113 0 
L 2416 1153 
Q 2338 1284 2266 1387 
Q 2194 1491 2120 1564 
Q 2047 1638 1967 1677 
Q 1888 1716 1794 1716 
L 1522 1716 
L 1522 0 
L 513 0 
L 513 4481 
L 2113 4481 
Q 3744 4481 3744 3263 
Q 3744 3028 3672 2829 
Q 3600 2631 3469 2472 
Q 3338 2313 3152 2197 
Q 2966 2081 2738 2016 
L 2738 2003 
Q 2838 1972 2931 1901 
Q 3025 1831 3112 1737 
Q 3200 1644 3279 1536 
Q 3359 1428 3425 1325 
L 4272 0 
z
M 1522 3725 
L 1522 2478 
L 1959 2478 
Q 2284 2478 2481 2666 
Q 2681 2856 2681 3138 
Q 2681 3725 1978 3725 
L 1522 3725 
z
" transform="scale(0.015625)"/>
      <path id="SegoeUIThis-Bold-6f" d="M 1941 -78 
Q 1141 -78 683 370 
Q 225 819 225 1588 
Q 225 2381 700 2829 
Q 1175 3278 1984 3278 
Q 2781 3278 3234 2829 
Q 3688 2381 3688 1644 
Q 3688 847 3220 384 
Q 2753 -78 1941 -78 
z
M 1966 2522 
Q 1616 2522 1422 2281 
Q 1228 2041 1228 1600 
Q 1228 678 1972 678 
Q 2681 678 2681 1625 
Q 2681 2522 1966 2522 
z
" transform="scale(0.015625)"/>
      <path id="SegoeUIThis-Bold-62" d="M 1416 372 
L 1403 372 
L 1403 0 
L 416 0 
L 416 4738 
L 1403 4738 
L 1403 2719 
L 1416 2719 
Q 1781 3278 2456 3278 
Q 3075 3278 3409 2853 
Q 3744 2428 3744 1691 
Q 3744 891 3353 406 
Q 2963 -78 2309 -78 
Q 1719 -78 1416 372 
z
M 1388 1722 
L 1388 1394 
Q 1388 1084 1566 881 
Q 1744 678 2022 678 
Q 2359 678 2545 939 
Q 2731 1200 2731 1678 
Q 2731 2075 2561 2298 
Q 2391 2522 2075 2522 
Q 1778 2522 1583 2300 
Q 1388 2078 1388 1722 
z
" transform="scale(0.015625)"/>
      <path id="SegoeUIThis-Bold-73" d="M 206 84 
L 206 884 
Q 450 738 692 666 
Q 934 594 1150 594 
Q 1413 594 1564 666 
Q 1716 738 1716 884 
Q 1716 978 1647 1040 
Q 1578 1103 1470 1150 
Q 1363 1197 1234 1234 
Q 1106 1272 988 1319 
Q 797 1391 651 1473 
Q 506 1556 407 1665 
Q 309 1775 257 1919 
Q 206 2063 206 2259 
Q 206 2528 323 2722 
Q 441 2916 636 3039 
Q 831 3163 1082 3220 
Q 1334 3278 1606 3278 
Q 1819 3278 2037 3245 
Q 2256 3213 2469 3150 
L 2469 2388 
Q 2281 2497 2067 2551 
Q 1853 2606 1647 2606 
Q 1550 2606 1464 2589 
Q 1378 2572 1312 2539 
Q 1247 2506 1209 2454 
Q 1172 2403 1172 2338 
Q 1172 2250 1228 2187 
Q 1284 2125 1375 2079 
Q 1466 2034 1577 1998 
Q 1688 1963 1797 1925 
Q 1994 1856 2153 1775 
Q 2313 1694 2427 1584 
Q 2541 1475 2602 1328 
Q 2663 1181 2663 978 
Q 2663 694 2539 492 
Q 2416 291 2211 164 
Q 2006 38 1739 -20 
Q 1472 -78 1184 -78 
Q 656 -78 206 84 
z
" transform="scale(0.015625)"/>
      <path id="SegoeUIThis-Bold-43" d="M 3725 159 
Q 3234 -78 2444 -78 
Q 1413 -78 822 528 
Q 231 1134 231 2144 
Q 231 3219 895 3887 
Q 1559 4556 2619 4556 
Q 3275 4556 3725 4391 
L 3725 3419 
Q 3275 3688 2700 3688 
Q 2069 3688 1681 3291 
Q 1294 2894 1294 2216 
Q 1294 1566 1659 1180 
Q 2025 794 2644 794 
Q 3234 794 3725 1081 
L 3725 159 
z
" transform="scale(0.015625)"/>
      <path id="SegoeUIThis-Bold-70" d="M 1416 372 
L 1403 372 
L 1403 -1472 
L 416 -1472 
L 416 3200 
L 1403 3200 
L 1403 2719 
L 1416 2719 
Q 1781 3278 2444 3278 
Q 3066 3278 3405 2851 
Q 3744 2425 3744 1691 
Q 3744 891 3348 406 
Q 2953 -78 2297 -78 
Q 1719 -78 1416 372 
z
M 1388 1684 
L 1388 1428 
Q 1388 1097 1563 887 
Q 1738 678 2022 678 
Q 2359 678 2545 939 
Q 2731 1200 2731 1678 
Q 2731 2522 2075 2522 
Q 1772 2522 1580 2292 
Q 1388 2063 1388 1684 
z
" transform="scale(0.015625)"/>
      <path id="SegoeUIThis-Bold-61" d="M 3078 0 
L 2144 0 
L 2144 459 
L 2131 459 
Q 1809 -78 1178 -78 
Q 713 -78 445 186 
Q 178 450 178 891 
Q 178 1822 1281 1966 
L 2150 2081 
Q 2150 2606 1581 2606 
Q 1009 2606 494 2266 
L 494 3009 
Q 700 3116 1058 3197 
Q 1416 3278 1709 3278 
Q 3078 3278 3078 1913 
L 3078 0 
z
M 2150 1300 
L 2150 1516 
L 1569 1441 
Q 1088 1378 1088 1006 
Q 1088 838 1205 730 
Q 1322 622 1522 622 
Q 1800 622 1975 814 
Q 2150 1006 2150 1300 
z
" transform="scale(0.015625)"/>
      <path id="SegoeUIThis-Bold-72" d="M 2503 2309 
Q 2325 2406 2088 2406 
Q 1766 2406 1584 2170 
Q 1403 1934 1403 1528 
L 1403 0 
L 416 0 
L 416 3200 
L 1403 3200 
L 1403 2606 
L 1416 2606 
Q 1650 3256 2259 3256 
Q 2416 3256 2503 3219 
L 2503 2309 
z
" transform="scale(0.015625)"/>
      <path id="SegoeUIThis-Bold-69" d="M 916 3706 
Q 666 3706 506 3854 
Q 347 4003 347 4219 
Q 347 4441 506 4581 
Q 666 4722 916 4722 
Q 1169 4722 1326 4581 
Q 1484 4441 1484 4219 
Q 1484 3994 1326 3850 
Q 1169 3706 916 3706 
z
M 1403 0 
L 416 0 
L 416 3200 
L 1403 3200 
L 1403 0 
z
" transform="scale(0.015625)"/>
     </defs>
     <use xlink:href="#SegoeUIThis-Bold-50"/>
     <use xlink:href="#SegoeUIThis-Bold-65" x="58.425781"/>
     <use xlink:href="#SegoeUIThis-Bold-6e" x="112.527344"/>
     <use xlink:href="#SegoeUIThis-Bold-64" x="173.025391"/>
     <use xlink:href="#SegoeUIThis-Bold-75" x="234.939453"/>
     <use xlink:href="#SegoeUIThis-Bold-6c" x="295.4375"/>
     <use xlink:href="#SegoeUIThis-Bold-75" x="323.855469"/>
     <use xlink:href="#SegoeUIThis-Bold-6d" x="384.353516"/>
     <use xlink:href="#SegoeUIThis-Bold-20" x="475.955078"/>
     <use xlink:href="#SegoeUIThis-Bold-4c" x="503.542969"/>
     <use xlink:href="#SegoeUIThis-Bold-65" x="554.666016"/>
     <use xlink:href="#SegoeUIThis-Bold-6e" x="608.767578"/>
     <use xlink:href="#SegoeUIThis-Bold-67" x="669.265625"/>
     <use xlink:href="#SegoeUIThis-Bold-74" x="731.179688"/>
     <use xlink:href="#SegoeUIThis-Bold-68" x="770.095703"/>
     <use xlink:href="#SegoeUIThis-Bold-20" x="830.300781"/>
     <use xlink:href="#SegoeUIThis-Bold-52" x="857.888672"/>
     <use xlink:href="#SegoeUIThis-Bold-6f" x="920.671875"/>
     <use xlink:href="#SegoeUIThis-Bold-62" x="981.804688"/>
     <use xlink:href="#SegoeUIThis-Bold-75" x="1043.816406"/>
     <use xlink:href="#SegoeUIThis-Bold-73" x="1104.314453"/>
     <use xlink:href="#SegoeUIThis-Bold-74" x="1148.308594"/>
     <use xlink:href="#SegoeUIThis-Bold-6e" x="1187.224609"/>
     <use xlink:href="#SegoeUIThis-Bold-65" x="1247.722656"/>
     <use xlink:href="#SegoeUIThis-Bold-73" x="1301.824219"/>
     <use xlink:href="#SegoeUIThis-Bold-73" x="1345.818359"/>
     <use xlink:href="#SegoeUIThis-Bold-20" x="1389.8125"/>
     <use xlink:href="#SegoeUIThis-Bold-43" x="1417.400391"/>
     <use xlink:href="#SegoeUIThis-Bold-6f" x="1479.802734"/>
     <use xlink:href="#SegoeUIThis-Bold-6d" x="1540.935547"/>
     <use xlink:href="#SegoeUIThis-Bold-70" x="1632.537109"/>
     <use xlink:href="#SegoeUIThis-Bold-61" x="1693.548828"/>
     <use xlink:href="#SegoeUIThis-Bold-72" x="1747.357422"/>
     <use xlink:href="#SegoeUIThis-Bold-69" x="1787.527344"/>
     <use xlink:href="#SegoeUIThis-Bold-73" x="1815.945312"/>
     <use xlink:href="#SegoeUIThis-Bold-6f" x="1859.939453"/>
     <use xlink:href="#SegoeUIThis-Bold-6e" x="1921.072266"/>
    </g>
   </g>
   <g id="legend_1">
    <g id="patch_7">
     <path d="M 120.6 503.64 
L 375.224062 503.64 
Q 378.824062 503.64 378.824062 500.04 
L 378.824062 395.78625 
Q 378.824062 392.18625 375.224062 392.18625 
L 120.6 392.18625 
Q 117 392.18625 117 395.78625 
L 117 500.04 
Q 117 503.64 120.6 503.64 
z
" style="fill: #ffffff; opacity: 0.8; stroke: #cccccc; stroke-linejoin: miter"/>
    </g>
    <g id="line2d_33">
     <path d="M 124.2 406.411875 
L 142.2 406.411875 
L 160.2 406.411875 
" style="fill: none; stroke: #ff7700; stroke-width: 1.5; stroke-linecap: square"/>
    </g>
    <g id="text_18">
     <!-- PPO -->
     <g transform="translate(174.6 412.711875) scale(0.18 -0.18)">
      <defs>
       <path id="SegoeUIThis-4f" d="M 2394 -75 
Q 1441 -75 867 553 
Q 294 1181 294 2188 
Q 294 3269 878 3912 
Q 1463 4556 2469 4556 
Q 3397 4556 3964 3931 
Q 4531 3306 4531 2297 
Q 4531 1200 3950 562 
Q 3369 -75 2394 -75 
z
M 2431 4081 
Q 1725 4081 1284 3572 
Q 844 3063 844 2234 
Q 844 1406 1273 901 
Q 1703 397 2394 397 
Q 3131 397 3556 878 
Q 3981 1359 3981 2225 
Q 3981 3113 3568 3597 
Q 3156 4081 2431 4081 
z
" transform="scale(0.015625)"/>
      </defs>
      <use xlink:href="#SegoeUIThis-50"/>
      <use xlink:href="#SegoeUIThis-50" x="56.005859"/>
      <use xlink:href="#SegoeUIThis-4f" x="112.011719"/>
     </g>
    </g>
    <g id="line2d_34">
     <path d="M 124.2 432.8775 
L 142.2 432.8775 
L 160.2 432.8775 
" style="fill: none; stroke: #004777; stroke-width: 1.5; stroke-linecap: square"/>
    </g>
    <g id="text_19">
     <!-- SHAC -->
     <g transform="translate(174.6 439.1775) scale(0.18 -0.18)">
      <defs>
       <path id="SegoeUIThis-53" d="M 378 181 
L 378 800 
Q 484 706 632 631 
Q 781 556 945 504 
Q 1109 453 1275 425 
Q 1441 397 1581 397 
Q 2066 397 2305 576 
Q 2544 756 2544 1094 
Q 2544 1275 2464 1409 
Q 2384 1544 2243 1655 
Q 2103 1766 1911 1867 
Q 1719 1969 1497 2081 
Q 1263 2200 1059 2322 
Q 856 2444 706 2591 
Q 556 2738 470 2923 
Q 384 3109 384 3359 
Q 384 3666 518 3892 
Q 653 4119 872 4266 
Q 1091 4413 1370 4484 
Q 1650 4556 1941 4556 
Q 2603 4556 2906 4397 
L 2906 3806 
Q 2509 4081 1888 4081 
Q 1716 4081 1544 4045 
Q 1372 4009 1237 3928 
Q 1103 3847 1018 3719 
Q 934 3591 934 3406 
Q 934 3234 998 3109 
Q 1063 2984 1188 2881 
Q 1313 2778 1492 2681 
Q 1672 2584 1906 2469 
Q 2147 2350 2362 2219 
Q 2578 2088 2740 1928 
Q 2903 1769 2998 1575 
Q 3094 1381 3094 1131 
Q 3094 800 2964 570 
Q 2834 341 2614 197 
Q 2394 53 2106 -11 
Q 1819 -75 1500 -75 
Q 1394 -75 1237 -58 
Q 1081 -41 918 -8 
Q 756 25 611 73 
Q 466 122 378 181 
z
" transform="scale(0.015625)"/>
       <path id="SegoeUIThis-48" d="M 3956 0 
L 3431 0 
L 3431 2044 
L 1113 2044 
L 1113 0 
L 588 0 
L 588 4481 
L 1113 4481 
L 1113 2516 
L 3431 2516 
L 3431 4481 
L 3956 4481 
L 3956 0 
z
" transform="scale(0.015625)"/>
       <path id="SegoeUIThis-41" d="M 4056 0 
L 3475 0 
L 3000 1256 
L 1100 1256 
L 653 0 
L 69 0 
L 1788 4481 
L 2331 4481 
L 4056 0 
z
M 2828 1728 
L 2125 3638 
Q 2091 3731 2056 3938 
L 2044 3938 
Q 2013 3747 1972 3638 
L 1275 1728 
L 2828 1728 
z
" transform="scale(0.015625)"/>
       <path id="SegoeUIThis-43" d="M 3638 188 
Q 3141 -75 2400 -75 
Q 1444 -75 869 540 
Q 294 1156 294 2156 
Q 294 3231 941 3893 
Q 1588 4556 2581 4556 
Q 3219 4556 3638 4372 
L 3638 3813 
Q 3156 4081 2575 4081 
Q 1803 4081 1323 3565 
Q 844 3050 844 2188 
Q 844 1369 1292 883 
Q 1741 397 2469 397 
Q 3144 397 3638 697 
L 3638 188 
z
" transform="scale(0.015625)"/>
      </defs>
      <use xlink:href="#SegoeUIThis-53"/>
      <use xlink:href="#SegoeUIThis-48" x="53.125"/>
      <use xlink:href="#SegoeUIThis-41" x="124.121094"/>
      <use xlink:href="#SegoeUIThis-43" x="186.623047"/>
     </g>
    </g>
    <g id="line2d_35">
     <path d="M 124.2 459.343125 
L 142.2 459.343125 
L 160.2 459.343125 
" style="fill: none; stroke: #b72b34; stroke-width: 1.5; stroke-linecap: square"/>
    </g>
    <g id="text_20">
     <!-- SAC -->
     <g transform="translate(174.6 465.643125) scale(0.18 -0.18)">
      <use xlink:href="#SegoeUIThis-53"/>
      <use xlink:href="#SegoeUIThis-41" x="53.125"/>
      <use xlink:href="#SegoeUIThis-43" x="115.626953"/>
     </g>
    </g>
    <g id="line2d_36">
     <path d="M 124.2 486 
L 142.2 486 
L 160.2 486 
" style="fill: none; stroke-dasharray: 5.55,2.4; stroke-dashoffset: 0; stroke: #000000; stroke-width: 1.5"/>
    </g>
    <g id="text_21">
     <!-- Expert level performance -->
     <g transform="translate(174.6 492.3) scale(0.18 -0.18)">
      <defs>
       <path id="SegoeUIThis-45" d="M 2963 0 
L 588 0 
L 588 4481 
L 2863 4481 
L 2863 4006 
L 1113 4006 
L 1113 2516 
L 2731 2516 
L 2731 2044 
L 1113 2044 
L 1113 475 
L 2963 475 
L 2963 0 
z
" transform="scale(0.015625)"/>
       <path id="SegoeUIThis-78" d="M 2856 3200 
L 1781 1581 
L 2838 0 
L 2241 0 
L 1613 1038 
Q 1553 1134 1472 1281 
L 1459 1281 
Q 1444 1253 1313 1038 
L 672 0 
L 81 0 
L 1172 1569 
L 128 3200 
L 725 3200 
L 1344 2106 
Q 1413 1984 1478 1856 
L 1491 1856 
L 2291 3200 
L 2856 3200 
z
" transform="scale(0.015625)"/>
       <path id="SegoeUIThis-70" d="M 1044 463 
L 1031 463 
L 1031 -1472 
L 519 -1472 
L 519 3200 
L 1031 3200 
L 1031 2638 
L 1044 2638 
Q 1422 3275 2150 3275 
Q 2769 3275 3116 2845 
Q 3463 2416 3463 1694 
Q 3463 891 3072 408 
Q 2681 -75 2003 -75 
Q 1381 -75 1044 463 
z
M 1031 1753 
L 1031 1306 
Q 1031 909 1289 632 
Q 1547 356 1944 356 
Q 2409 356 2673 712 
Q 2938 1069 2938 1703 
Q 2938 2238 2691 2541 
Q 2444 2844 2022 2844 
Q 1575 2844 1303 2533 
Q 1031 2222 1031 1753 
z
" transform="scale(0.015625)"/>
       <path id="SegoeUIThis-76" d="M 3034 3200 
L 1759 0 
L 1256 0 
L 44 3200 
L 606 3200 
L 1419 875 
Q 1509 619 1531 428 
L 1544 428 
Q 1575 669 1644 863 
L 2494 3200 
L 3034 3200 
z
" transform="scale(0.015625)"/>
       <path id="SegoeUIThis-66" d="M 2100 4288 
Q 1950 4372 1759 4372 
Q 1222 4372 1222 3694 
L 1222 3200 
L 1972 3200 
L 1972 2763 
L 1222 2763 
L 1222 0 
L 713 0 
L 713 2763 
L 166 2763 
L 166 3200 
L 713 3200 
L 713 3719 
Q 713 4222 1003 4514 
Q 1294 4806 1728 4806 
Q 1963 4806 2100 4750 
L 2100 4288 
z
" transform="scale(0.015625)"/>
       <path id="SegoeUIThis-6f" d="M 1856 -75 
Q 1147 -75 723 373 
Q 300 822 300 1563 
Q 300 2369 740 2822 
Q 1181 3275 1931 3275 
Q 2647 3275 3048 2834 
Q 3450 2394 3450 1613 
Q 3450 847 3017 386 
Q 2584 -75 1856 -75 
z
M 1894 2844 
Q 1400 2844 1112 2508 
Q 825 2172 825 1581 
Q 825 1013 1115 684 
Q 1406 356 1894 356 
Q 2391 356 2658 678 
Q 2925 1000 2925 1594 
Q 2925 2194 2658 2519 
Q 2391 2844 1894 2844 
z
" transform="scale(0.015625)"/>
       <path id="SegoeUIThis-63" d="M 2700 147 
Q 2331 -75 1825 -75 
Q 1141 -75 720 370 
Q 300 816 300 1525 
Q 300 2316 753 2795 
Q 1206 3275 1963 3275 
Q 2384 3275 2706 3119 
L 2706 2594 
Q 2350 2844 1944 2844 
Q 1453 2844 1139 2492 
Q 825 2141 825 1569 
Q 825 1006 1120 681 
Q 1416 356 1913 356 
Q 2331 356 2700 634 
L 2700 147 
z
" transform="scale(0.015625)"/>
      </defs>
      <use xlink:href="#SegoeUIThis-45"/>
      <use xlink:href="#SegoeUIThis-78" x="50.585938"/>
      <use xlink:href="#SegoeUIThis-70" x="96.484375"/>
      <use xlink:href="#SegoeUIThis-65" x="155.273438"/>
      <use xlink:href="#SegoeUIThis-72" x="207.568359"/>
      <use xlink:href="#SegoeUIThis-74" x="242.333984"/>
      <use xlink:href="#SegoeUIThis-20" x="276.220703"/>
      <use xlink:href="#SegoeUIThis-6c" x="303.613281"/>
      <use xlink:href="#SegoeUIThis-65" x="327.832031"/>
      <use xlink:href="#SegoeUIThis-76" x="380.126953"/>
      <use xlink:href="#SegoeUIThis-65" x="428.027344"/>
      <use xlink:href="#SegoeUIThis-6c" x="480.322266"/>
      <use xlink:href="#SegoeUIThis-20" x="504.541016"/>
      <use xlink:href="#SegoeUIThis-70" x="531.933594"/>
      <use xlink:href="#SegoeUIThis-65" x="590.722656"/>
      <use xlink:href="#SegoeUIThis-72" x="643.017578"/>
      <use xlink:href="#SegoeUIThis-66" x="677.783203"/>
      <use xlink:href="#SegoeUIThis-6f" x="709.082031"/>
      <use xlink:href="#SegoeUIThis-72" x="767.675781"/>
      <use xlink:href="#SegoeUIThis-6d" x="802.441406"/>
      <use xlink:href="#SegoeUIThis-61" x="888.574219"/>
      <use xlink:href="#SegoeUIThis-6e" x="939.453125"/>
      <use xlink:href="#SegoeUIThis-63" x="996.044922"/>
      <use xlink:href="#SegoeUIThis-65" x="1042.236328"/>
     </g>
    </g>
   </g>
  </g>
 </g>
 <defs>
  <clipPath id="p90ef45d694">
   <rect x="108" y="69.12" width="669.6" height="443.52"/>
  </clipPath>
 </defs>
</svg>
