<?xml version="1.0" encoding="utf-8" standalone="no"?>
<!DOCTYPE svg PUBLIC "-//W3C//DTD SVG 1.1//EN"
  "http://www.w3.org/Graphics/SVG/1.1/DTD/svg11.dtd">
<svg xmlns:xlink="http://www.w3.org/1999/xlink" width="864pt" height="576pt" viewBox="0 0 864 576" xmlns="http://www.w3.org/2000/svg" version="1.1">
 <metadata>
  <rdf:RDF xmlns:dc="http://purl.org/dc/elements/1.1/" xmlns:cc="http://creativecommons.org/ns#" xmlns:rdf="http://www.w3.org/1999/02/22-rdf-syntax-ns#">
   <cc:Work>
    <dc:type rdf:resource="http://purl.org/dc/dcmitype/StillImage"/>
    <dc:date>2024-07-26T09:09:31.600730</dc:date>
    <dc:format>image/svg+xml</dc:format>
    <dc:creator>
     <cc:Agent>
      <dc:title>Matplotlib v3.8.4, https://matplotlib.org/</dc:title>
     </cc:Agent>
    </dc:creator>
   </cc:Work>
  </rdf:RDF>
 </metadata>
 <defs>
  <style type="text/css">*{stroke-linejoin: round; stroke-linecap: butt}</style>
 </defs>
 <g id="figure_1">
  <g id="patch_1">
   <path d="M 0 576 
L 864 576 
L 864 0 
L 0 0 
z
" style="fill: #f2d8bd"/>
  </g>
  <g id="axes_1">
   <g id="patch_2">
    <path d="M 108 512.64 
L 777.6 512.64 
L 777.6 69.12 
L 108 69.12 
z
" style="fill: #ffffff"/>
   </g>
   <g id="PolyCollection_1">
    <defs>
     <path id="mdece432904" d="M 138.436364 -462.550845 
L 138.436364 -424.249981 
L 144.844019 -424.117957 
L 151.251675 -423.938267 
L 157.65933 -423.700813 
L 164.066986 -423.48852 
L 170.474641 -422.913426 
L 176.882297 -422.38636 
L 183.289952 -421.522747 
L 189.697608 -420.181543 
L 196.105263 -417.463859 
L 202.512919 -414.852609 
L 208.920574 -411.990602 
L 215.32823 -406.598356 
L 221.735885 -400.130614 
L 228.143541 -395.745917 
L 234.551196 -391.620581 
L 240.958852 -388.10094 
L 247.366507 -387.670902 
L 253.774163 -388.753421 
L 260.181818 -389.453505 
L 266.589474 -390.040632 
L 272.997129 -391.781493 
L 279.404785 -393.690958 
L 285.81244 -395.689563 
L 292.220096 -397.462129 
L 298.627751 -399.338035 
L 305.035407 -399.71876 
L 311.443062 -399.890568 
L 317.850718 -400.029259 
L 324.258373 -400.206995 
L 330.666029 -400.31661 
L 337.073684 -400.464406 
L 343.48134 -400.598383 
L 349.888995 -400.657543 
L 356.296651 -400.682287 
L 362.704306 -400.743507 
L 369.111962 -400.775668 
L 375.519617 -400.776906 
L 381.927273 -400.864012 
L 388.334928 -400.973307 
L 394.742584 -400.957842 
L 401.150239 -400.996652 
L 407.557895 -401.049214 
L 413.96555 -401.074325 
L 420.373206 -354.205949 
L 426.780861 -347.516471 
L 433.188517 -295.152712 
L 439.596172 -240.89162 
L 446.003828 -187.379781 
L 452.411483 -180.871105 
L 458.819139 -134.939839 
L 465.226794 -133.260004 
L 471.63445 -134.033885 
L 478.042105 -134.129882 
L 484.449761 -134.017941 
L 490.857416 -133.690044 
L 497.265072 -134.557966 
L 503.672727 -134.873352 
L 510.080383 -135.566708 
L 516.488038 -137.027719 
L 522.895694 -136.995634 
L 529.303349 -137.546466 
L 535.711005 -180.760374 
L 542.11866 -180.554347 
L 548.526316 -184.365767 
L 554.933971 -185.618116 
L 561.341627 -185.20431 
L 567.749282 -144.277123 
L 574.156938 -144.620601 
L 580.564593 -140.205456 
L 586.972249 -182.067811 
L 593.379904 -225.346152 
L 599.78756 -266.340048 
L 606.195215 -302.829909 
L 612.602871 -345.370018 
L 619.010526 -333.054992 
L 625.418182 -314.701186 
L 631.825837 -290.361866 
L 638.233493 -278.283728 
L 644.641148 -259.453473 
L 651.048804 -253.313366 
L 657.456459 -238.937734 
L 663.864115 -239.20513 
L 670.27177 -239.474969 
L 676.679426 -238.701059 
L 683.087081 -228.703386 
L 689.494737 -240.122523 
L 695.902392 -238.420157 
L 702.310048 -224.877235 
L 708.717703 -210.707328 
L 715.125359 -205.430024 
L 721.533014 -195.283853 
L 727.94067 -179.851539 
L 734.348325 -173.954276 
L 740.755981 -165.387329 
L 747.163636 -154.578171 
L 747.163636 -386.303231 
L 747.163636 -386.303231 
L 740.755981 -388.639147 
L 734.348325 -385.964287 
L 727.94067 -381.171199 
L 721.533014 -379.989169 
L 715.125359 -384.427031 
L 708.717703 -384.483262 
L 702.310048 -384.521574 
L 695.902392 -391.310678 
L 689.494737 -391.32073 
L 683.087081 -391.934573 
L 676.679426 -393.155729 
L 670.27177 -395.526821 
L 663.864115 -397.9639 
L 657.456459 -405.484303 
L 651.048804 -406.910445 
L 644.641148 -408.394768 
L 638.233493 -409.14501 
L 631.825837 -408.903629 
L 625.418182 -404.781202 
L 619.010526 -405.999751 
L 612.602871 -407.958853 
L 606.195215 -421.043881 
L 599.78756 -432.763426 
L 593.379904 -445.275198 
L 586.972249 -458.528513 
L 580.564593 -471.338715 
L 574.156938 -469.858231 
L 567.749282 -470.054934 
L 561.341627 -457.561095 
L 554.933971 -457.413417 
L 548.526316 -457.791321 
L 542.11866 -459.045924 
L 535.711005 -458.918383 
L 529.303349 -472.107361 
L 522.895694 -472.259296 
L 516.488038 -472.203885 
L 510.080383 -472.646286 
L 503.672727 -472.891665 
L 497.265072 -472.935269 
L 490.857416 -473.228186 
L 484.449761 -473.149812 
L 478.042105 -473.130055 
L 471.63445 -473.107257 
L 465.226794 -473.369037 
L 458.819139 -476.477288 
L 452.411483 -464.78051 
L 446.003828 -466.251909 
L 439.596172 -452.295484 
L 433.188517 -438.044922 
L 426.780861 -420.727701 
L 420.373206 -418.763596 
L 413.96555 -403.37272 
L 407.557895 -403.518295 
L 401.150239 -403.674159 
L 394.742584 -403.741293 
L 388.334928 -403.820297 
L 381.927273 -403.90262 
L 375.519617 -403.885964 
L 369.111962 -403.935764 
L 362.704306 -404.034831 
L 356.296651 -404.044863 
L 349.888995 -404.087414 
L 343.48134 -404.120471 
L 337.073684 -404.097114 
L 330.666029 -404.188481 
L 324.258373 -404.262291 
L 317.850718 -404.295993 
L 311.443062 -404.288495 
L 305.035407 -404.34194 
L 298.627751 -404.282955 
L 292.220096 -410.192995 
L 285.81244 -416.283523 
L 279.404785 -422.417266 
L 272.997129 -428.603478 
L 266.589474 -434.785594 
L 260.181818 -434.935246 
L 253.774163 -434.928382 
L 247.366507 -434.890588 
L 240.958852 -437.661416 
L 234.551196 -442.025716 
L 228.143541 -446.918917 
L 221.735885 -451.990178 
L 215.32823 -457.086015 
L 208.920574 -459.449557 
L 202.512919 -460.271801 
L 196.105263 -460.755457 
L 189.697608 -461.108593 
L 183.289952 -461.560392 
L 176.882297 -461.943117 
L 170.474641 -462.249257 
L 164.066986 -462.453554 
L 157.65933 -462.63617 
L 151.251675 -462.699256 
L 144.844019 -462.678189 
L 138.436364 -462.550845 
z
" style="stroke: #ff7700; stroke-opacity: 0.2"/>
    </defs>
    <g clip-path="url(#pf57d5e86a8)">
     <use xlink:href="#mdece432904" x="0" y="576" style="fill: #ff7700; fill-opacity: 0.2; stroke: #ff7700; stroke-opacity: 0.2"/>
    </g>
   </g>
   <g id="PolyCollection_2">
    <defs>
     <path id="m43d9665838" d="M 138.436364 -486.72 
L 138.436364 -237.079986 
L 144.844019 -219.236006 
L 151.251675 -249.430058 
L 157.65933 -274.666278 
L 164.066986 -321.771265 
L 170.474641 -361.944168 
L 176.882297 -375.560959 
L 183.289952 -378.611809 
L 189.697608 -394.950693 
L 196.105263 -395.591131 
L 202.512919 -388.587781 
L 208.920574 -381.915751 
L 215.32823 -375.172152 
L 221.735885 -368.378455 
L 228.143541 -361.375962 
L 234.551196 -362.228269 
L 240.958852 -362.761716 
L 247.366507 -363.114867 
L 253.774163 -363.551873 
L 260.181818 -360.322253 
L 266.589474 -357.027348 
L 272.997129 -353.785241 
L 279.404785 -350.585862 
L 285.81244 -347.434085 
L 292.220096 -347.884298 
L 298.627751 -348.179499 
L 305.035407 -348.394703 
L 311.443062 -348.549821 
L 317.850718 -348.714576 
L 324.258373 -348.934 
L 330.666029 -342.862868 
L 337.073684 -336.798848 
L 343.48134 -330.804156 
L 349.888995 -324.703133 
L 356.296651 -318.602266 
L 362.704306 -318.924638 
L 369.111962 -319.161631 
L 375.519617 -319.385178 
L 381.927273 -319.612071 
L 388.334928 -319.858669 
L 394.742584 -319.92873 
L 401.150239 -315.494874 
L 407.557895 -305.271845 
L 413.96555 -300.863472 
L 420.373206 -290.639475 
L 426.780861 -280.55542 
L 433.188517 -274.999215 
L 439.596172 -275.242423 
L 446.003828 -269.646987 
L 452.411483 -269.86565 
L 458.819139 -268.801144 
L 465.226794 -264.874355 
L 471.63445 -263.835332 
L 478.042105 -262.80171 
L 484.449761 -258.561746 
L 490.857416 -258.730812 
L 497.265072 -261.769494 
L 503.672727 -255.474057 
L 510.080383 -249.254125 
L 516.488038 -241.734956 
L 522.895694 -231.020757 
L 529.303349 -220.378716 
L 535.711005 -216.09023 
L 542.11866 -211.900214 
L 548.526316 -212.073719 
L 554.933971 -212.281338 
L 561.341627 -206.104372 
L 567.749282 -199.99986 
L 574.156938 -186.252683 
L 580.564593 -180.211586 
L 586.972249 -167.938966 
L 593.379904 -163.667905 
L 599.78756 -160.111371 
L 606.195215 -163.673663 
L 612.602871 -163.798575 
L 619.010526 -170.09314 
L 625.418182 -165.276402 
L 631.825837 -168.001752 
L 638.233493 -162.01789 
L 644.641148 -158.081644 
L 651.048804 -153.171814 
L 657.456459 -152.510676 
L 663.864115 -142.612369 
L 670.27177 -141.828068 
L 676.679426 -136.036417 
L 683.087081 -125.766929 
L 689.494737 -124.959539 
L 695.902392 -125.188873 
L 702.310048 -121.089461 
L 708.717703 -118.845088 
L 715.125359 -115.224085 
L 721.533014 -113.141017 
L 727.94067 -103.090714 
L 734.348325 -97.424513 
L 740.755981 -84.862154 
L 747.163636 -83.52 
L 747.163636 -331.713918 
L 747.163636 -331.713918 
L 740.755981 -334.144343 
L 734.348325 -344.235219 
L 727.94067 -343.00321 
L 721.533014 -342.272464 
L 715.125359 -349.635106 
L 708.717703 -350.424842 
L 702.310048 -348.875102 
L 695.902392 -349.385007 
L 689.494737 -349.39625 
L 683.087081 -353.157601 
L 676.679426 -352.265023 
L 670.27177 -355.847961 
L 663.864115 -359.646341 
L 657.456459 -359.079711 
L 651.048804 -343.307121 
L 644.641148 -347.835552 
L 638.233493 -348.538762 
L 631.825837 -347.16497 
L 625.418182 -344.82778 
L 619.010526 -353.592297 
L 612.602871 -355.327887 
L 606.195215 -355.268044 
L 599.78756 -348.934585 
L 593.379904 -354.879134 
L 586.972249 -361.14897 
L 580.564593 -362.631574 
L 574.156938 -365.908428 
L 567.749282 -371.231967 
L 561.341627 -374.450219 
L 554.933971 -377.6665 
L 548.526316 -377.636464 
L 542.11866 -377.595706 
L 535.711005 -387.583897 
L 529.303349 -392.713176 
L 522.895694 -396.247 
L 516.488038 -399.790071 
L 510.080383 -396.86225 
L 503.672727 -395.268683 
L 497.265072 -393.636588 
L 490.857416 -391.702663 
L 484.449761 -391.631025 
L 478.042105 -401.668871 
L 471.63445 -405.232644 
L 465.226794 -408.811351 
L 458.819139 -414.302229 
L 452.411483 -417.927147 
L 446.003828 -417.936317 
L 439.596172 -416.931946 
L 433.188517 -416.963011 
L 426.780861 -415.962849 
L 420.373206 -415.160204 
L 413.96555 -414.402503 
L 407.557895 -414.651559 
L 401.150239 -413.866006 
L 394.742584 -414.101267 
L 388.334928 -414.129835 
L 381.927273 -414.139156 
L 375.519617 -414.158207 
L 369.111962 -414.158626 
L 362.704306 -414.183264 
L 356.296651 -414.198962 
L 349.888995 -412.817978 
L 343.48134 -411.405649 
L 337.073684 -410.018702 
L 330.666029 -408.620491 
L 324.258373 -407.206183 
L 317.850718 -407.173924 
L 311.443062 -407.142373 
L 305.035407 -407.116231 
L 298.627751 -407.075038 
L 292.220096 -406.989837 
L 285.81244 -406.941888 
L 279.404785 -408.231267 
L 272.997129 -409.512955 
L 266.589474 -410.777367 
L 260.181818 -412.097255 
L 253.774163 -413.471294 
L 247.366507 -413.459429 
L 240.958852 -413.452027 
L 234.551196 -413.438912 
L 228.143541 -413.533032 
L 221.735885 -410.898342 
L 215.32823 -408.35388 
L 208.920574 -405.739045 
L 202.512919 -403.09409 
L 196.105263 -400.311122 
L 189.697608 -399.968365 
L 183.289952 -404.234524 
L 176.882297 -410.186784 
L 170.474641 -418.59979 
L 164.066986 -435.212389 
L 157.65933 -453.750925 
L 151.251675 -468.910537 
L 144.844019 -483.279057 
L 138.436364 -486.72 
z
" style="stroke: #004777; stroke-opacity: 0.2"/>
    </defs>
    <g clip-path="url(#pf57d5e86a8)">
     <use xlink:href="#m43d9665838" x="0" y="576" style="fill: #004777; fill-opacity: 0.2; stroke: #004777; stroke-opacity: 0.2"/>
    </g>
   </g>
   <g id="PolyCollection_3">
    <defs>
     <path id="mba3b3b4714" d="M 138.436364 -433.768086 
L 138.436364 -391.319291 
L 144.844019 -392.135999 
L 151.251675 -392.913422 
L 157.65933 -393.392129 
L 164.066986 -394.003388 
L 170.474641 -394.378935 
L 176.882297 -394.656989 
L 183.289952 -394.802767 
L 189.697608 -394.928603 
L 196.105263 -395.037854 
L 202.512919 -395.095579 
L 208.920574 -395.087222 
L 215.32823 -395.061057 
L 221.735885 -394.992065 
L 228.143541 -395.355571 
L 234.551196 -395.30294 
L 240.958852 -395.329975 
L 247.366507 -396.010162 
L 253.774163 -396.714 
L 260.181818 -397.190623 
L 266.589474 -398.152916 
L 272.997129 -399.087203 
L 279.404785 -399.455314 
L 285.81244 -399.786476 
L 292.220096 -399.892769 
L 298.627751 -399.954041 
L 305.035407 -400.069087 
L 311.443062 -400.136583 
L 317.850718 -400.222918 
L 324.258373 -400.361434 
L 330.666029 -400.470776 
L 337.073684 -400.537266 
L 343.48134 -400.580839 
L 349.888995 -400.659999 
L 356.296651 -400.659342 
L 362.704306 -400.684965 
L 369.111962 -400.714559 
L 375.519617 -400.733233 
L 381.927273 -400.743234 
L 388.334928 -400.785187 
L 394.742584 -400.825868 
L 401.150239 -400.886009 
L 407.557895 -400.944764 
L 413.96555 -400.985293 
L 420.373206 -400.998768 
L 426.780861 -401.040185 
L 433.188517 -401.044607 
L 439.596172 -401.015772 
L 446.003828 -401.045247 
L 452.411483 -401.061035 
L 458.819139 -394.482441 
L 465.226794 -387.970175 
L 471.63445 -381.58887 
L 478.042105 -375.191329 
L 484.449761 -368.902577 
L 490.857416 -369.172233 
L 497.265072 -369.633391 
L 503.672727 -370.096149 
L 510.080383 -370.619049 
L 516.488038 -371.065928 
L 522.895694 -371.584684 
L 529.303349 -371.852037 
L 535.711005 -372.055483 
L 542.11866 -368.50711 
L 548.526316 -365.00498 
L 554.933971 -361.457181 
L 561.341627 -357.960048 
L 567.749282 -354.444081 
L 574.156938 -354.584532 
L 580.564593 -354.678585 
L 586.972249 -354.780776 
L 593.379904 -354.859924 
L 599.78756 -354.954126 
L 606.195215 -355.015979 
L 612.602871 -355.130349 
L 619.010526 -355.194723 
L 625.418182 -349.253244 
L 631.825837 -343.281072 
L 638.233493 -337.369137 
L 644.641148 -331.426835 
L 651.048804 -325.50654 
L 657.456459 -325.691397 
L 663.864115 -325.871646 
L 670.27177 -325.992056 
L 676.679426 -326.137186 
L 683.087081 -326.274084 
L 689.494737 -326.37642 
L 695.902392 -326.424045 
L 702.310048 -326.495946 
L 708.717703 -326.54007 
L 715.125359 -326.622207 
L 721.533014 -326.648884 
L 727.94067 -324.865425 
L 734.348325 -318.853123 
L 740.755981 -312.868024 
L 747.163636 -311.02529 
L 747.163636 -400.107786 
L 747.163636 -400.107786 
L 740.755981 -402.825126 
L 734.348325 -406.182333 
L 727.94067 -409.528869 
L 721.533014 -412.267872 
L 715.125359 -412.335795 
L 708.717703 -412.351037 
L 702.310048 -412.351342 
L 695.902392 -412.387579 
L 689.494737 -412.406711 
L 683.087081 -412.434124 
L 676.679426 -412.454203 
L 670.27177 -412.488002 
L 663.864115 -412.521326 
L 657.456459 -412.558828 
L 651.048804 -412.571676 
L 644.641148 -411.334192 
L 638.233493 -410.10865 
L 631.825837 -408.860775 
L 625.418182 -407.580967 
L 619.010526 -406.327818 
L 612.602871 -406.324526 
L 606.195215 -406.325661 
L 599.78756 -406.341104 
L 593.379904 -406.352404 
L 586.972249 -406.360114 
L 580.564593 -406.381635 
L 574.156938 -406.387026 
L 567.749282 -406.396185 
L 561.341627 -407.606773 
L 554.933971 -408.840377 
L 548.526316 -410.059878 
L 542.11866 -411.297884 
L 535.711005 -412.557245 
L 529.303349 -412.662574 
L 522.895694 -412.797348 
L 516.488038 -412.991879 
L 510.080383 -413.173823 
L 503.672727 -413.369961 
L 497.265072 -413.528069 
L 490.857416 -413.664066 
L 484.449761 -413.794787 
L 478.042105 -412.128758 
L 471.63445 -410.456744 
L 465.226794 -408.806437 
L 458.819139 -407.145559 
L 452.411483 -405.467132 
L 446.003828 -405.577222 
L 439.596172 -405.670823 
L 433.188517 -405.744111 
L 426.780861 -405.819172 
L 420.373206 -405.876754 
L 413.96555 -405.945681 
L 407.557895 -406.014106 
L 401.150239 -406.097911 
L 394.742584 -406.163968 
L 388.334928 -406.248716 
L 381.927273 -406.32988 
L 375.519617 -406.397716 
L 369.111962 -406.477923 
L 362.704306 -406.582392 
L 356.296651 -406.662822 
L 349.888995 -406.757372 
L 343.48134 -406.856431 
L 337.073684 -406.949688 
L 330.666029 -407.028215 
L 324.258373 -407.133081 
L 317.850718 -407.224365 
L 311.443062 -407.308353 
L 305.035407 -407.411466 
L 298.627751 -407.521072 
L 292.220096 -407.60927 
L 285.81244 -407.720038 
L 279.404785 -407.860287 
L 272.997129 -407.992423 
L 266.589474 -413.525015 
L 260.181818 -419.128261 
L 253.774163 -423.783376 
L 247.366507 -429.421733 
L 240.958852 -435.092921 
L 234.551196 -435.328198 
L 228.143541 -435.456576 
L 221.735885 -436.538894 
L 215.32823 -436.624902 
L 208.920574 -436.687678 
L 202.512919 -436.779341 
L 196.105263 -436.905071 
L 189.697608 -436.947527 
L 183.289952 -436.954194 
L 176.882297 -436.864335 
L 170.474641 -436.578095 
L 164.066986 -436.193007 
L 157.65933 -435.713048 
L 151.251675 -435.172464 
L 144.844019 -434.440911 
L 138.436364 -433.768086 
z
" style="stroke: #b72b34; stroke-opacity: 0.2"/>
    </defs>
    <g clip-path="url(#pf57d5e86a8)">
     <use xlink:href="#mba3b3b4714" x="0" y="576" style="fill: #b72b34; fill-opacity: 0.2; stroke: #b72b34; stroke-opacity: 0.2"/>
    </g>
   </g>
   <g id="matplotlib.axis_1">
    <g id="xtick_1">
     <g id="line2d_1">
      <path d="M 112.805742 512.64 
L 112.805742 69.12 
" clip-path="url(#pf57d5e86a8)" style="fill: none; stroke: #b0b0b0; stroke-width: 0.8; stroke-linecap: square"/>
     </g>
     <g id="line2d_2">
      <defs>
       <path id="m79741ef269" d="M 0 0 
L 0 3.5 
" style="stroke: #000000; stroke-width: 0.8"/>
      </defs>
      <g>
       <use xlink:href="#m79741ef269" x="112.805742" y="512.64" style="stroke: #000000; stroke-width: 0.8"/>
      </g>
     </g>
     <g id="text_1">
      <!-- 0.2 -->
      <g transform="translate(105.035742 528.52375) scale(0.12 -0.12)">
       <defs>
        <path id="SegoeUIThis-30" d="M 1681 -75 
Q 1016 -75 642 497 
Q 269 1069 269 2150 
Q 269 3338 658 3947 
Q 1047 4556 1781 4556 
Q 3188 4556 3188 2259 
Q 3188 1122 2791 523 
Q 2394 -75 1681 -75 
z
M 1753 4122 
Q 794 4122 794 2175 
Q 794 356 1734 356 
Q 2663 356 2663 2206 
Q 2663 4122 1753 4122 
z
" transform="scale(0.015625)"/>
        <path id="SegoeUIThis-2e" d="M 697 -69 
Q 553 -69 451 34 
Q 350 138 350 281 
Q 350 425 451 529 
Q 553 634 697 634 
Q 844 634 947 529 
Q 1050 425 1050 281 
Q 1050 138 947 34 
Q 844 -69 697 -69 
z
" transform="scale(0.015625)"/>
        <path id="SegoeUIThis-32" d="M 3000 0 
L 300 0 
L 300 456 
L 1606 1766 
Q 2106 2266 2320 2598 
Q 2534 2931 2534 3309 
Q 2534 3697 2312 3909 
Q 2091 4122 1681 4122 
Q 1081 4122 531 3609 
L 531 4147 
Q 1056 4556 1753 4556 
Q 2353 4556 2697 4231 
Q 3041 3906 3041 3359 
Q 3041 2928 2803 2517 
Q 2566 2106 1950 1497 
L 916 475 
L 916 463 
L 3000 463 
L 3000 0 
z
" transform="scale(0.015625)"/>
       </defs>
       <use xlink:href="#SegoeUIThis-30"/>
       <use xlink:href="#SegoeUIThis-2e" x="53.90625"/>
       <use xlink:href="#SegoeUIThis-32" x="75.585938"/>
      </g>
     </g>
    </g>
    <g id="xtick_2">
     <g id="line2d_3">
      <path d="M 192.100478 512.64 
L 192.100478 69.12 
" clip-path="url(#pf57d5e86a8)" style="fill: none; stroke: #b0b0b0; stroke-width: 0.8; stroke-linecap: square"/>
     </g>
     <g id="line2d_4">
      <g>
       <use xlink:href="#m79741ef269" x="192.100478" y="512.64" style="stroke: #000000; stroke-width: 0.8"/>
      </g>
     </g>
     <g id="text_2">
      <!-- 0.4 -->
      <g transform="translate(184.330478 528.52375) scale(0.12 -0.12)">
       <defs>
        <path id="SegoeUIThis-34" d="M 3231 1191 
L 2656 1191 
L 2656 0 
L 2150 0 
L 2150 1191 
L 44 1191 
L 44 1525 
L 2038 4481 
L 2656 4481 
L 2656 1606 
L 3231 1606 
L 3231 1191 
z
M 2150 1606 
L 2150 3544 
Q 2150 3750 2163 4006 
L 2150 4006 
Q 2106 3894 1978 3663 
L 600 1606 
L 2150 1606 
z
" transform="scale(0.015625)"/>
       </defs>
       <use xlink:href="#SegoeUIThis-30"/>
       <use xlink:href="#SegoeUIThis-2e" x="53.90625"/>
       <use xlink:href="#SegoeUIThis-34" x="75.585938"/>
      </g>
     </g>
    </g>
    <g id="xtick_3">
     <g id="line2d_5">
      <path d="M 271.395215 512.64 
L 271.395215 69.12 
" clip-path="url(#pf57d5e86a8)" style="fill: none; stroke: #b0b0b0; stroke-width: 0.8; stroke-linecap: square"/>
     </g>
     <g id="line2d_6">
      <g>
       <use xlink:href="#m79741ef269" x="271.395215" y="512.64" style="stroke: #000000; stroke-width: 0.8"/>
      </g>
     </g>
     <g id="text_3">
      <!-- 0.6 -->
      <g transform="translate(263.625215 528.52375) scale(0.12 -0.12)">
       <defs>
        <path id="SegoeUIThis-36" d="M 2919 4428 
L 2919 3944 
Q 2572 4122 2188 4122 
Q 1591 4122 1233 3590 
Q 875 3059 875 2169 
L 888 2169 
Q 1200 2803 1913 2803 
Q 2500 2803 2847 2426 
Q 3194 2050 3194 1419 
Q 3194 759 2797 342 
Q 2400 -75 1788 -75 
Q 1113 -75 728 462 
Q 344 1000 344 1972 
Q 344 3150 847 3853 
Q 1350 4556 2175 4556 
Q 2644 4556 2919 4428 
z
M 1800 2369 
Q 1403 2369 1156 2100 
Q 909 1831 909 1466 
Q 909 1006 1154 681 
Q 1400 356 1806 356 
Q 2194 356 2431 639 
Q 2669 922 2669 1356 
Q 2669 1831 2441 2100 
Q 2213 2369 1800 2369 
z
" transform="scale(0.015625)"/>
       </defs>
       <use xlink:href="#SegoeUIThis-30"/>
       <use xlink:href="#SegoeUIThis-2e" x="53.90625"/>
       <use xlink:href="#SegoeUIThis-36" x="75.585938"/>
      </g>
     </g>
    </g>
    <g id="xtick_4">
     <g id="line2d_7">
      <path d="M 350.689952 512.64 
L 350.689952 69.12 
" clip-path="url(#pf57d5e86a8)" style="fill: none; stroke: #b0b0b0; stroke-width: 0.8; stroke-linecap: square"/>
     </g>
     <g id="line2d_8">
      <g>
       <use xlink:href="#m79741ef269" x="350.689952" y="512.64" style="stroke: #000000; stroke-width: 0.8"/>
      </g>
     </g>
     <g id="text_4">
      <!-- 0.8 -->
      <g transform="translate(342.919952 528.52375) scale(0.12 -0.12)">
       <defs>
        <path id="SegoeUIThis-38" d="M 1281 2350 
L 1281 2363 
Q 475 2738 475 3450 
Q 475 3934 844 4245 
Q 1213 4556 1794 4556 
Q 2319 4556 2656 4265 
Q 2994 3975 2994 3519 
Q 2994 2775 2163 2363 
L 2163 2350 
Q 3144 2000 3144 1138 
Q 3144 581 2744 253 
Q 2344 -75 1631 -75 
Q 1056 -75 684 250 
Q 313 575 313 1094 
Q 313 1956 1281 2350 
z
M 2469 3456 
Q 2469 3766 2275 3944 
Q 2081 4122 1747 4122 
Q 1434 4122 1217 3936 
Q 1000 3750 1000 3463 
Q 1000 2878 1728 2581 
Q 2469 2888 2469 3456 
z
M 1694 2106 
Q 838 1766 838 1119 
Q 838 784 1086 570 
Q 1334 356 1741 356 
Q 2128 356 2373 567 
Q 2619 778 2619 1100 
Q 2619 1775 1694 2106 
z
" transform="scale(0.015625)"/>
       </defs>
       <use xlink:href="#SegoeUIThis-30"/>
       <use xlink:href="#SegoeUIThis-2e" x="53.90625"/>
       <use xlink:href="#SegoeUIThis-38" x="75.585938"/>
      </g>
     </g>
    </g>
    <g id="xtick_5">
     <g id="line2d_9">
      <path d="M 429.984689 512.64 
L 429.984689 69.12 
" clip-path="url(#pf57d5e86a8)" style="fill: none; stroke: #b0b0b0; stroke-width: 0.8; stroke-linecap: square"/>
     </g>
     <g id="line2d_10">
      <g>
       <use xlink:href="#m79741ef269" x="429.984689" y="512.64" style="stroke: #000000; stroke-width: 0.8"/>
      </g>
     </g>
     <g id="text_5">
      <!-- 1.0 -->
      <g transform="translate(422.214689 528.52375) scale(0.12 -0.12)">
       <defs>
        <path id="SegoeUIThis-31" d="M 3084 0 
L 550 0 
L 550 450 
L 1563 450 
L 1563 3931 
L 525 3622 
L 525 4109 
L 2075 4581 
L 2075 450 
L 3084 450 
L 3084 0 
z
" transform="scale(0.015625)"/>
       </defs>
       <use xlink:href="#SegoeUIThis-31"/>
       <use xlink:href="#SegoeUIThis-2e" x="53.90625"/>
       <use xlink:href="#SegoeUIThis-30" x="75.585938"/>
      </g>
     </g>
    </g>
    <g id="xtick_6">
     <g id="line2d_11">
      <path d="M 509.279426 512.64 
L 509.279426 69.12 
" clip-path="url(#pf57d5e86a8)" style="fill: none; stroke: #b0b0b0; stroke-width: 0.8; stroke-linecap: square"/>
     </g>
     <g id="line2d_12">
      <g>
       <use xlink:href="#m79741ef269" x="509.279426" y="512.64" style="stroke: #000000; stroke-width: 0.8"/>
      </g>
     </g>
     <g id="text_6">
      <!-- 1.2 -->
      <g transform="translate(501.509426 528.52375) scale(0.12 -0.12)">
       <use xlink:href="#SegoeUIThis-31"/>
       <use xlink:href="#SegoeUIThis-2e" x="53.90625"/>
       <use xlink:href="#SegoeUIThis-32" x="75.585938"/>
      </g>
     </g>
    </g>
    <g id="xtick_7">
     <g id="line2d_13">
      <path d="M 588.574163 512.64 
L 588.574163 69.12 
" clip-path="url(#pf57d5e86a8)" style="fill: none; stroke: #b0b0b0; stroke-width: 0.8; stroke-linecap: square"/>
     </g>
     <g id="line2d_14">
      <g>
       <use xlink:href="#m79741ef269" x="588.574163" y="512.64" style="stroke: #000000; stroke-width: 0.8"/>
      </g>
     </g>
     <g id="text_7">
      <!-- 1.4 -->
      <g transform="translate(580.804163 528.52375) scale(0.12 -0.12)">
       <use xlink:href="#SegoeUIThis-31"/>
       <use xlink:href="#SegoeUIThis-2e" x="53.90625"/>
       <use xlink:href="#SegoeUIThis-34" x="75.585938"/>
      </g>
     </g>
    </g>
    <g id="xtick_8">
     <g id="line2d_15">
      <path d="M 667.8689 512.64 
L 667.8689 69.12 
" clip-path="url(#pf57d5e86a8)" style="fill: none; stroke: #b0b0b0; stroke-width: 0.8; stroke-linecap: square"/>
     </g>
     <g id="line2d_16">
      <g>
       <use xlink:href="#m79741ef269" x="667.8689" y="512.64" style="stroke: #000000; stroke-width: 0.8"/>
      </g>
     </g>
     <g id="text_8">
      <!-- 1.6 -->
      <g transform="translate(660.0989 528.52375) scale(0.12 -0.12)">
       <use xlink:href="#SegoeUIThis-31"/>
       <use xlink:href="#SegoeUIThis-2e" x="53.90625"/>
       <use xlink:href="#SegoeUIThis-36" x="75.585938"/>
      </g>
     </g>
    </g>
    <g id="xtick_9">
     <g id="line2d_17">
      <path d="M 747.163636 512.64 
L 747.163636 69.12 
" clip-path="url(#pf57d5e86a8)" style="fill: none; stroke: #b0b0b0; stroke-width: 0.8; stroke-linecap: square"/>
     </g>
     <g id="line2d_18">
      <g>
       <use xlink:href="#m79741ef269" x="747.163636" y="512.64" style="stroke: #000000; stroke-width: 0.8"/>
      </g>
     </g>
     <g id="text_9">
      <!-- 1.8 -->
      <g transform="translate(739.393636 528.52375) scale(0.12 -0.12)">
       <use xlink:href="#SegoeUIThis-31"/>
       <use xlink:href="#SegoeUIThis-2e" x="53.90625"/>
       <use xlink:href="#SegoeUIThis-38" x="75.585938"/>
      </g>
     </g>
    </g>
    <g id="text_10">
     <!-- Pendulum lengths (m) -->
     <g transform="translate(355.521094 548.609375) scale(0.18 -0.18)">
      <defs>
       <path id="SegoeUIThis-50" d="M 1113 1694 
L 1113 0 
L 588 0 
L 588 4481 
L 1819 4481 
Q 2538 4481 2933 4131 
Q 3328 3781 3328 3144 
Q 3328 2506 2889 2100 
Q 2450 1694 1703 1694 
L 1113 1694 
z
M 1113 4006 
L 1113 2169 
L 1663 2169 
Q 2206 2169 2492 2417 
Q 2778 2666 2778 3119 
Q 2778 4006 1728 4006 
L 1113 4006 
z
" transform="scale(0.015625)"/>
       <path id="SegoeUIThis-65" d="M 3091 1472 
L 831 1472 
Q 844 938 1119 647 
Q 1394 356 1875 356 
Q 2416 356 2869 713 
L 2869 231 
Q 2447 -75 1753 -75 
Q 1075 -75 687 361 
Q 300 797 300 1588 
Q 300 2334 723 2804 
Q 1147 3275 1775 3275 
Q 2403 3275 2747 2869 
Q 3091 2463 3091 1741 
L 3091 1472 
z
M 2566 1906 
Q 2563 2350 2352 2597 
Q 2141 2844 1766 2844 
Q 1403 2844 1150 2584 
Q 897 2325 838 1906 
L 2566 1906 
z
" transform="scale(0.015625)"/>
       <path id="SegoeUIThis-6e" d="M 3175 0 
L 2663 0 
L 2663 1825 
Q 2663 2844 1919 2844 
Q 1534 2844 1282 2555 
Q 1031 2266 1031 1825 
L 1031 0 
L 519 0 
L 519 3200 
L 1031 3200 
L 1031 2669 
L 1044 2669 
Q 1406 3275 2094 3275 
Q 2619 3275 2897 2936 
Q 3175 2597 3175 1956 
L 3175 0 
z
" transform="scale(0.015625)"/>
       <path id="SegoeUIThis-64" d="M 3250 0 
L 2738 0 
L 2738 544 
L 2725 544 
Q 2369 -75 1625 -75 
Q 1022 -75 661 354 
Q 300 784 300 1525 
Q 300 2319 700 2797 
Q 1100 3275 1766 3275 
Q 2425 3275 2725 2756 
L 2738 2756 
L 2738 4738 
L 3250 4738 
L 3250 0 
z
M 2738 1447 
L 2738 1919 
Q 2738 2306 2481 2575 
Q 2225 2844 1831 2844 
Q 1363 2844 1094 2500 
Q 825 2156 825 1550 
Q 825 997 1083 676 
Q 1341 356 1775 356 
Q 2203 356 2470 665 
Q 2738 975 2738 1447 
z
" transform="scale(0.015625)"/>
       <path id="SegoeUIThis-75" d="M 3106 0 
L 2594 0 
L 2594 506 
L 2581 506 
Q 2263 -75 1594 -75 
Q 450 -75 450 1288 
L 450 3200 
L 959 3200 
L 959 1369 
Q 959 356 1734 356 
Q 2109 356 2351 632 
Q 2594 909 2594 1356 
L 2594 3200 
L 3106 3200 
L 3106 0 
z
" transform="scale(0.015625)"/>
       <path id="SegoeUIThis-6c" d="M 1031 0 
L 519 0 
L 519 4738 
L 1031 4738 
L 1031 0 
z
" transform="scale(0.015625)"/>
       <path id="SegoeUIThis-6d" d="M 5063 0 
L 4550 0 
L 4550 1838 
Q 4550 2369 4386 2606 
Q 4222 2844 3834 2844 
Q 3506 2844 3276 2544 
Q 3047 2244 3047 1825 
L 3047 0 
L 2534 0 
L 2534 1900 
Q 2534 2844 1806 2844 
Q 1469 2844 1250 2561 
Q 1031 2278 1031 1825 
L 1031 0 
L 519 0 
L 519 3200 
L 1031 3200 
L 1031 2694 
L 1044 2694 
Q 1384 3275 2038 3275 
Q 2366 3275 2609 3092 
Q 2853 2909 2944 2613 
Q 3300 3275 4006 3275 
Q 5063 3275 5063 1972 
L 5063 0 
z
" transform="scale(0.015625)"/>
       <path id="SegoeUIThis-20" transform="scale(0.015625)"/>
       <path id="SegoeUIThis-67" d="M 3250 256 
Q 3250 -1506 1563 -1506 
Q 969 -1506 525 -1281 
L 525 -769 
Q 1066 -1069 1556 -1069 
Q 2738 -1069 2738 188 
L 2738 538 
L 2725 538 
Q 2359 -75 1625 -75 
Q 1028 -75 664 351 
Q 300 778 300 1497 
Q 300 2313 692 2794 
Q 1084 3275 1766 3275 
Q 2413 3275 2725 2756 
L 2738 2756 
L 2738 3200 
L 3250 3200 
L 3250 256 
z
M 2738 1447 
L 2738 1919 
Q 2738 2300 2480 2572 
Q 2222 2844 1838 2844 
Q 1363 2844 1094 2498 
Q 825 2153 825 1531 
Q 825 997 1083 676 
Q 1341 356 1766 356 
Q 2197 356 2467 662 
Q 2738 969 2738 1447 
z
" transform="scale(0.015625)"/>
       <path id="SegoeUIThis-74" d="M 2003 31 
Q 1822 -69 1525 -69 
Q 684 -69 684 869 
L 684 2763 
L 134 2763 
L 134 3200 
L 684 3200 
L 684 3981 
L 1197 4147 
L 1197 3200 
L 2003 3200 
L 2003 2763 
L 1197 2763 
L 1197 959 
Q 1197 638 1306 500 
Q 1416 363 1669 363 
Q 1863 363 2003 469 
L 2003 31 
z
" transform="scale(0.015625)"/>
       <path id="SegoeUIThis-68" d="M 3175 0 
L 2663 0 
L 2663 1844 
Q 2663 2844 1919 2844 
Q 1544 2844 1287 2555 
Q 1031 2266 1031 1813 
L 1031 0 
L 519 0 
L 519 4738 
L 1031 4738 
L 1031 2669 
L 1044 2669 
Q 1413 3275 2094 3275 
Q 3175 3275 3175 1972 
L 3175 0 
z
" transform="scale(0.015625)"/>
       <path id="SegoeUIThis-73" d="M 325 116 
L 325 666 
Q 744 356 1247 356 
Q 1922 356 1922 806 
Q 1922 934 1864 1023 
Q 1806 1113 1707 1181 
Q 1609 1250 1476 1304 
Q 1344 1359 1191 1419 
Q 978 1503 817 1589 
Q 656 1675 548 1783 
Q 441 1891 386 2028 
Q 331 2166 331 2350 
Q 331 2575 434 2748 
Q 538 2922 709 3039 
Q 881 3156 1101 3215 
Q 1322 3275 1556 3275 
Q 1972 3275 2300 3131 
L 2300 2613 
Q 1947 2844 1488 2844 
Q 1344 2844 1228 2811 
Q 1113 2778 1030 2718 
Q 947 2659 901 2576 
Q 856 2494 856 2394 
Q 856 2269 901 2184 
Q 947 2100 1034 2034 
Q 1122 1969 1247 1916 
Q 1372 1863 1531 1800 
Q 1744 1719 1912 1633 
Q 2081 1547 2200 1439 
Q 2319 1331 2383 1190 
Q 2447 1050 2447 856 
Q 2447 619 2342 444 
Q 2238 269 2063 153 
Q 1888 38 1659 -18 
Q 1431 -75 1181 -75 
Q 688 -75 325 116 
z
" transform="scale(0.015625)"/>
       <path id="SegoeUIThis-28" d="M 1863 -1019 
L 1406 -1019 
Q 438 88 438 1709 
Q 438 3338 1406 4481 
L 1869 4481 
Q 888 3294 888 1716 
Q 888 150 1863 -1019 
z
" transform="scale(0.015625)"/>
       <path id="SegoeUIThis-29" d="M 531 -1019 
L 75 -1019 
Q 1050 150 1050 1716 
Q 1050 3294 69 4481 
L 531 4481 
Q 1506 3338 1506 1709 
Q 1506 88 531 -1019 
z
" transform="scale(0.015625)"/>
      </defs>
      <use xlink:href="#SegoeUIThis-50"/>
      <use xlink:href="#SegoeUIThis-65" x="52.255859"/>
      <use xlink:href="#SegoeUIThis-6e" x="104.550781"/>
      <use xlink:href="#SegoeUIThis-64" x="161.142578"/>
      <use xlink:href="#SegoeUIThis-75" x="220.029297"/>
      <use xlink:href="#SegoeUIThis-6c" x="276.621094"/>
      <use xlink:href="#SegoeUIThis-75" x="300.839844"/>
      <use xlink:href="#SegoeUIThis-6d" x="357.431641"/>
      <use xlink:href="#SegoeUIThis-20" x="443.564453"/>
      <use xlink:href="#SegoeUIThis-6c" x="470.957031"/>
      <use xlink:href="#SegoeUIThis-65" x="495.175781"/>
      <use xlink:href="#SegoeUIThis-6e" x="547.470703"/>
      <use xlink:href="#SegoeUIThis-67" x="604.0625"/>
      <use xlink:href="#SegoeUIThis-74" x="662.949219"/>
      <use xlink:href="#SegoeUIThis-68" x="696.835938"/>
      <use xlink:href="#SegoeUIThis-73" x="753.427734"/>
      <use xlink:href="#SegoeUIThis-20" x="795.859375"/>
      <use xlink:href="#SegoeUIThis-28" x="823.251953"/>
      <use xlink:href="#SegoeUIThis-6d" x="853.427734"/>
      <use xlink:href="#SegoeUIThis-29" x="939.560547"/>
     </g>
    </g>
   </g>
   <g id="matplotlib.axis_2">
    <g id="ytick_1">
     <g id="line2d_19">
      <path d="M 108 494.103347 
L 777.6 494.103347 
" clip-path="url(#pf57d5e86a8)" style="fill: none; stroke: #b0b0b0; stroke-width: 0.8; stroke-linecap: square"/>
     </g>
     <g id="line2d_20">
      <defs>
       <path id="m7e6c23ce0d" d="M 0 0 
L -3.5 0 
" style="stroke: #000000; stroke-width: 0.8"/>
      </defs>
      <g>
       <use xlink:href="#m7e6c23ce0d" x="108" y="494.103347" style="stroke: #000000; stroke-width: 0.8"/>
      </g>
     </g>
     <g id="text_11">
      <!-- −800 -->
      <g transform="translate(73.385 498.545222) scale(0.12 -0.12)">
       <defs>
        <path id="SegoeUIThis-2212" d="M 3663 1656 
L 725 1656 
L 725 2075 
L 3663 2075 
L 3663 1656 
z
" transform="scale(0.015625)"/>
       </defs>
       <use xlink:href="#SegoeUIThis-2212"/>
       <use xlink:href="#SegoeUIThis-38" x="68.408203"/>
       <use xlink:href="#SegoeUIThis-30" x="122.314453"/>
       <use xlink:href="#SegoeUIThis-30" x="176.220703"/>
      </g>
     </g>
    </g>
    <g id="ytick_2">
     <g id="line2d_21">
      <path d="M 108 399.162543 
L 777.6 399.162543 
" clip-path="url(#pf57d5e86a8)" style="fill: none; stroke: #b0b0b0; stroke-width: 0.8; stroke-linecap: square"/>
     </g>
     <g id="line2d_22">
      <g>
       <use xlink:href="#m7e6c23ce0d" x="108" y="399.162543" style="stroke: #000000; stroke-width: 0.8"/>
      </g>
     </g>
     <g id="text_12">
      <!-- −600 -->
      <g transform="translate(73.385 403.604418) scale(0.12 -0.12)">
       <use xlink:href="#SegoeUIThis-2212"/>
       <use xlink:href="#SegoeUIThis-36" x="68.408203"/>
       <use xlink:href="#SegoeUIThis-30" x="122.314453"/>
       <use xlink:href="#SegoeUIThis-30" x="176.220703"/>
      </g>
     </g>
    </g>
    <g id="ytick_3">
     <g id="line2d_23">
      <path d="M 108 304.221739 
L 777.6 304.221739 
" clip-path="url(#pf57d5e86a8)" style="fill: none; stroke: #b0b0b0; stroke-width: 0.8; stroke-linecap: square"/>
     </g>
     <g id="line2d_24">
      <g>
       <use xlink:href="#m7e6c23ce0d" x="108" y="304.221739" style="stroke: #000000; stroke-width: 0.8"/>
      </g>
     </g>
     <g id="text_13">
      <!-- −400 -->
      <g transform="translate(73.385 308.663614) scale(0.12 -0.12)">
       <use xlink:href="#SegoeUIThis-2212"/>
       <use xlink:href="#SegoeUIThis-34" x="68.408203"/>
       <use xlink:href="#SegoeUIThis-30" x="122.314453"/>
       <use xlink:href="#SegoeUIThis-30" x="176.220703"/>
      </g>
     </g>
    </g>
    <g id="ytick_4">
     <g id="line2d_25">
      <path d="M 108 209.280935 
L 777.6 209.280935 
" clip-path="url(#pf57d5e86a8)" style="fill: none; stroke: #b0b0b0; stroke-width: 0.8; stroke-linecap: square"/>
     </g>
     <g id="line2d_26">
      <g>
       <use xlink:href="#m7e6c23ce0d" x="108" y="209.280935" style="stroke: #000000; stroke-width: 0.8"/>
      </g>
     </g>
     <g id="text_14">
      <!-- −200 -->
      <g transform="translate(73.385 213.72281) scale(0.12 -0.12)">
       <use xlink:href="#SegoeUIThis-2212"/>
       <use xlink:href="#SegoeUIThis-32" x="68.408203"/>
       <use xlink:href="#SegoeUIThis-30" x="122.314453"/>
       <use xlink:href="#SegoeUIThis-30" x="176.220703"/>
      </g>
     </g>
    </g>
    <g id="ytick_5">
     <g id="line2d_27">
      <path d="M 108 114.340131 
L 777.6 114.340131 
" clip-path="url(#pf57d5e86a8)" style="fill: none; stroke: #b0b0b0; stroke-width: 0.8; stroke-linecap: square"/>
     </g>
     <g id="line2d_28">
      <g>
       <use xlink:href="#m7e6c23ce0d" x="108" y="114.340131" style="stroke: #000000; stroke-width: 0.8"/>
      </g>
     </g>
     <g id="text_15">
      <!-- 0 -->
      <g transform="translate(94.53125 118.782006) scale(0.12 -0.12)">
       <use xlink:href="#SegoeUIThis-30"/>
      </g>
     </g>
    </g>
    <g id="text_16">
     <!-- Reward -->
     <g transform="translate(65.245 320.222813) rotate(-90) scale(0.18 -0.18)">
      <defs>
       <path id="SegoeUIThis-52" d="M 3800 0 
L 3175 0 
L 2425 1256 
Q 2322 1431 2225 1554 
Q 2128 1678 2026 1756 
Q 1925 1834 1808 1870 
Q 1691 1906 1544 1906 
L 1113 1906 
L 1113 0 
L 588 0 
L 588 4481 
L 1925 4481 
Q 2219 4481 2467 4407 
Q 2716 4334 2898 4184 
Q 3081 4034 3184 3811 
Q 3288 3588 3288 3288 
Q 3288 3053 3217 2858 
Q 3147 2663 3017 2509 
Q 2888 2356 2705 2248 
Q 2522 2141 2294 2081 
L 2294 2069 
Q 2406 2019 2489 1955 
Q 2572 1891 2647 1803 
Q 2722 1716 2795 1605 
Q 2869 1494 2959 1347 
L 3800 0 
z
M 1113 4006 
L 1113 2381 
L 1825 2381 
Q 2022 2381 2189 2440 
Q 2356 2500 2478 2611 
Q 2600 2722 2669 2883 
Q 2738 3044 2738 3244 
Q 2738 3603 2505 3804 
Q 2272 4006 1831 4006 
L 1113 4006 
z
" transform="scale(0.015625)"/>
       <path id="SegoeUIThis-77" d="M 4550 3200 
L 3591 0 
L 3059 0 
L 2400 2291 
Q 2363 2422 2350 2588 
L 2338 2588 
Q 2328 2475 2272 2297 
L 1556 0 
L 1044 0 
L 75 3200 
L 613 3200 
L 1275 794 
Q 1306 684 1319 506 
L 1344 506 
Q 1353 644 1400 800 
L 2138 3200 
L 2606 3200 
L 3269 788 
Q 3300 672 3316 500 
L 3341 500 
Q 3347 622 3394 788 
L 4044 3200 
L 4550 3200 
z
" transform="scale(0.015625)"/>
       <path id="SegoeUIThis-61" d="M 2809 0 
L 2297 0 
L 2297 500 
L 2284 500 
Q 1950 -75 1300 -75 
Q 822 -75 551 178 
Q 281 431 281 850 
Q 281 1747 1338 1894 
L 2297 2028 
Q 2297 2844 1638 2844 
Q 1059 2844 594 2450 
L 594 2975 
Q 1066 3275 1681 3275 
Q 2809 3275 2809 2081 
L 2809 0 
z
M 2297 1619 
L 1525 1513 
Q 1169 1463 987 1336 
Q 806 1209 806 888 
Q 806 653 973 504 
Q 1141 356 1419 356 
Q 1800 356 2048 623 
Q 2297 891 2297 1300 
L 2297 1619 
z
" transform="scale(0.015625)"/>
       <path id="SegoeUIThis-72" d="M 2188 2681 
Q 2053 2784 1800 2784 
Q 1472 2784 1251 2475 
Q 1031 2166 1031 1631 
L 1031 0 
L 519 0 
L 519 3200 
L 1031 3200 
L 1031 2541 
L 1044 2541 
Q 1153 2878 1378 3067 
Q 1603 3256 1881 3256 
Q 2081 3256 2188 3213 
L 2188 2681 
z
" transform="scale(0.015625)"/>
      </defs>
      <use xlink:href="#SegoeUIThis-52"/>
      <use xlink:href="#SegoeUIThis-65" x="56.939453"/>
      <use xlink:href="#SegoeUIThis-77" x="109.234375"/>
      <use xlink:href="#SegoeUIThis-61" x="181.5"/>
      <use xlink:href="#SegoeUIThis-72" x="232.378906"/>
      <use xlink:href="#SegoeUIThis-64" x="267.144531"/>
     </g>
    </g>
   </g>
   <g id="line2d_29">
    <path d="M 138.436364 132.599587 
L 144.844019 132.601927 
L 151.251675 132.681238 
L 157.65933 132.831509 
L 164.066986 133.028963 
L 170.474641 133.418658 
L 176.882297 133.835261 
L 183.289952 134.45843 
L 189.697608 135.354932 
L 196.105263 136.890342 
L 202.512919 138.437795 
L 208.920574 140.27992 
L 215.32823 144.157814 
L 221.735885 149.939604 
L 228.143541 154.667583 
L 234.551196 159.176851 
L 240.958852 163.118822 
L 247.366507 164.719255 
L 253.774163 164.159099 
L 260.181818 163.805625 
L 266.589474 163.586887 
L 272.997129 165.807515 
L 279.404785 167.945888 
L 285.81244 170.013457 
L 292.220096 172.172438 
L 298.627751 174.189505 
L 305.035407 173.96965 
L 311.443062 173.910468 
L 317.850718 173.837374 
L 324.258373 173.765357 
L 330.666029 173.747454 
L 337.073684 173.71924 
L 343.48134 173.640573 
L 349.888995 173.627521 
L 356.296651 173.636425 
L 362.704306 173.610831 
L 369.111962 173.644284 
L 375.519617 173.668565 
L 381.927273 173.616684 
L 388.334928 173.603198 
L 394.742584 173.650432 
L 401.150239 173.664595 
L 407.557895 173.716246 
L 413.96555 173.776477 
L 420.373206 189.515227 
L 426.780861 191.877914 
L 433.188517 209.401183 
L 439.596172 229.406448 
L 446.003828 249.184155 
L 452.411483 253.174193 
L 458.819139 270.291437 
L 465.226794 272.685479 
L 471.63445 272.429429 
L 478.042105 272.370032 
L 484.449761 272.416124 
L 490.857416 272.540885 
L 497.265072 272.253383 
L 503.672727 272.117491 
L 510.080383 271.893503 
L 516.488038 271.384198 
L 522.895694 271.372535 
L 529.303349 271.173087 
L 535.711005 256.160621 
L 542.11866 256.199865 
L 548.526316 254.921456 
L 554.933971 254.484233 
L 561.341627 254.617297 
L 567.749282 268.833971 
L 574.156938 268.760584 
L 580.564593 270.227915 
L 586.972249 255.701838 
L 593.379904 240.689325 
L 599.78756 226.448263 
L 606.195215 214.063105 
L 612.602871 199.335565 
L 619.010526 206.472629 
L 625.418182 216.258806 
L 631.825837 226.367253 
L 638.233493 232.285631 
L 644.641148 242.07588 
L 651.048804 245.888094 
L 657.456459 253.788981 
L 663.864115 257.415485 
L 670.27177 258.499105 
L 676.679426 260.071606 
L 683.087081 265.681021 
L 689.494737 260.278374 
L 695.902392 261.134583 
L 702.310048 271.300596 
L 708.717703 278.404705 
L 715.125359 281.071472 
L 721.533014 288.363489 
L 727.94067 295.488631 
L 734.348325 296.040718 
L 740.755981 298.986762 
L 747.163636 305.559299 
" clip-path="url(#pf57d5e86a8)" style="fill: none; stroke: #ff7700; stroke-width: 1.5; stroke-linecap: square"/>
   </g>
   <g id="line2d_30">
    <path d="M 138.436364 214.100007 
L 144.844019 224.742469 
L 151.251675 216.829703 
L 157.65933 211.791398 
L 164.066986 197.508173 
L 170.474641 185.728021 
L 176.882297 183.126128 
L 183.289952 184.576833 
L 189.697608 178.540471 
L 196.105263 178.048873 
L 202.512919 180.159064 
L 208.920574 182.172602 
L 215.32823 184.236984 
L 221.735885 186.361601 
L 228.143541 188.545503 
L 234.551196 188.16641 
L 240.958852 187.893129 
L 247.366507 187.712852 
L 253.774163 187.488416 
L 260.181818 189.790246 
L 266.589474 192.097642 
L 272.997129 194.350902 
L 279.404785 196.591435 
L 285.81244 198.812014 
L 292.220096 198.562933 
L 298.627751 198.372731 
L 305.035407 198.244533 
L 311.443062 198.153903 
L 317.850718 198.05575 
L 324.258373 197.929908 
L 330.666029 200.258321 
L 337.073684 202.591225 
L 343.48134 204.895097 
L 349.888995 207.239445 
L 356.296651 209.599386 
L 362.704306 209.446049 
L 369.111962 209.339872 
L 375.519617 209.228307 
L 381.927273 209.124386 
L 388.334928 209.005748 
L 394.742584 208.985001 
L 401.150239 211.31956 
L 407.557895 216.038298 
L 413.96555 218.367013 
L 420.373206 223.100161 
L 426.780861 227.740865 
L 433.188517 230.018887 
L 439.596172 229.912815 
L 446.003828 232.208348 
L 452.411483 232.103602 
L 458.819139 234.448313 
L 465.226794 239.157147 
L 471.63445 241.466012 
L 478.042105 243.764709 
L 484.449761 250.903614 
L 490.857416 250.783262 
L 497.265072 248.296959 
L 503.672727 250.62863 
L 510.080383 252.941812 
L 516.488038 255.237487 
L 522.895694 262.366121 
L 529.303349 269.454054 
L 535.711005 274.162937 
L 542.11866 281.25204 
L 548.526316 281.144908 
L 554.933971 281.026081 
L 561.341627 285.722704 
L 567.749282 290.384087 
L 574.156938 299.919444 
L 580.564593 304.57842 
L 586.972249 311.456032 
L 593.379904 316.72648 
L 599.78756 321.477022 
L 606.195215 316.529147 
L 612.602871 316.436769 
L 619.010526 314.157281 
L 625.418182 320.947909 
L 631.825837 318.416639 
L 638.233493 320.721674 
L 644.641148 323.041402 
L 651.048804 327.760532 
L 657.456459 320.204806 
L 663.864115 324.870645 
L 670.27177 327.161985 
L 676.679426 331.84928 
L 683.087081 336.537735 
L 689.494737 338.822105 
L 695.902392 338.71306 
L 702.310048 341.017719 
L 708.717703 341.365035 
L 715.125359 343.570404 
L 721.533014 348.29326 
L 727.94067 352.953038 
L 734.348325 355.170134 
L 740.755981 366.496752 
L 747.163636 368.383041 
" clip-path="url(#pf57d5e86a8)" style="fill: none; stroke: #004777; stroke-width: 1.5; stroke-linecap: square"/>
   </g>
   <g id="line2d_31">
    <path d="M 138.436364 163.456311 
L 144.844019 162.711545 
L 151.251675 161.957057 
L 157.65933 161.447412 
L 164.066986 160.901803 
L 170.474641 160.521485 
L 176.882297 160.239338 
L 183.289952 160.12152 
L 189.697608 160.061935 
L 196.105263 160.028538 
L 202.512919 160.06254 
L 208.920574 160.11255 
L 215.32823 160.157021 
L 221.735885 160.234521 
L 228.143541 160.593926 
L 234.551196 160.684431 
L 240.958852 160.788552 
L 247.366507 163.284052 
L 253.774163 165.751312 
L 260.181818 167.840558 
L 266.589474 170.161035 
L 272.997129 172.460187 
L 279.404785 172.3422 
L 285.81244 172.246743 
L 292.220096 172.24898 
L 298.627751 172.262444 
L 305.035407 172.259723 
L 311.443062 172.277532 
L 317.850718 172.276358 
L 324.258373 172.252743 
L 330.666029 172.250504 
L 337.073684 172.256523 
L 343.48134 172.281365 
L 349.888995 172.291315 
L 356.296651 172.338918 
L 362.704306 172.366322 
L 369.111962 172.403759 
L 375.519617 172.434526 
L 381.927273 172.463443 
L 388.334928 172.483048 
L 394.742584 172.505082 
L 401.150239 172.50804 
L 407.557895 172.520565 
L 413.96555 172.534513 
L 420.373206 172.562239 
L 426.780861 172.570321 
L 433.188517 172.605641 
L 439.596172 172.656702 
L 446.003828 172.688765 
L 452.411483 172.735916 
L 458.819139 175.186 
L 465.226794 177.611694 
L 471.63445 179.977193 
L 478.042105 182.339956 
L 484.449761 184.651318 
L 490.857416 184.581851 
L 497.265072 184.41927 
L 503.672727 184.266945 
L 510.080383 184.103564 
L 516.488038 183.971097 
L 522.895694 183.808984 
L 529.303349 183.742695 
L 535.711005 183.693636 
L 542.11866 186.097503 
L 548.526316 188.467571 
L 554.933971 190.851221 
L 561.341627 193.216589 
L 567.749282 195.579867 
L 574.156938 195.514221 
L 580.564593 195.46989 
L 586.972249 195.429555 
L 593.379904 195.393836 
L 599.78756 195.352385 
L 606.195215 195.32918 
L 612.602871 195.272563 
L 619.010526 195.238729 
L 625.418182 197.582894 
L 631.825837 199.929077 
L 638.233493 202.261106 
L 644.641148 204.619487 
L 651.048804 206.960892 
L 657.456459 206.874887 
L 663.864115 206.803514 
L 670.27177 206.759971 
L 676.679426 206.704306 
L 683.087081 206.645896 
L 689.494737 206.608434 
L 695.902392 206.594188 
L 702.310048 206.576356 
L 708.717703 206.554446 
L 715.125359 206.520999 
L 721.533014 206.541622 
L 727.94067 208.802853 
L 734.348325 213.482272 
L 740.755981 218.153425 
L 747.163636 220.433462 
" clip-path="url(#pf57d5e86a8)" style="fill: none; stroke: #b72b34; stroke-width: 1.5; stroke-linecap: square"/>
   </g>
   <g id="line2d_32">
    <path d="M 108 185.545734 
L 777.6 185.545734 
" clip-path="url(#pf57d5e86a8)" style="fill: none; stroke-dasharray: 5.55,2.4; stroke-dashoffset: 0; stroke: #000000; stroke-width: 1.5"/>
   </g>
   <g id="patch_3">
    <path d="M 108 512.64 
L 108 69.12 
" style="fill: none; stroke: #000000; stroke-width: 0.8; stroke-linejoin: miter; stroke-linecap: square"/>
   </g>
   <g id="patch_4">
    <path d="M 777.6 512.64 
L 777.6 69.12 
" style="fill: none; stroke: #000000; stroke-width: 0.8; stroke-linejoin: miter; stroke-linecap: square"/>
   </g>
   <g id="patch_5">
    <path d="M 108 512.64 
L 777.6 512.64 
" style="fill: none; stroke: #000000; stroke-width: 0.8; stroke-linejoin: miter; stroke-linecap: square"/>
   </g>
   <g id="patch_6">
    <path d="M 108 69.12 
L 777.6 69.12 
" style="fill: none; stroke: #000000; stroke-width: 0.8; stroke-linejoin: miter; stroke-linecap: square"/>
   </g>
   <g id="text_17">
    <!-- Pendulum Length Robustness Comparison -->
    <g transform="translate(46.453125 59.72625) scale(0.4 -0.4)">
     <defs>
      <path id="SegoeUIThis-Bold-50" d="M 1522 1544 
L 1522 0 
L 513 0 
L 513 4481 
L 2094 4481 
Q 3788 4481 3788 3053 
Q 3788 2378 3302 1961 
Q 2816 1544 2003 1544 
L 1522 1544 
z
M 1522 3706 
L 1522 2309 
L 1919 2309 
Q 2725 2309 2725 3016 
Q 2725 3706 1919 3706 
L 1522 3706 
z
" transform="scale(0.015625)"/>
      <path id="SegoeUIThis-Bold-65" d="M 3291 1319 
L 1203 1319 
Q 1253 622 2081 622 
Q 2609 622 3009 872 
L 3009 159 
Q 2566 -78 1856 -78 
Q 1081 -78 653 351 
Q 225 781 225 1550 
Q 225 2347 687 2812 
Q 1150 3278 1825 3278 
Q 2525 3278 2908 2862 
Q 3291 2447 3291 1734 
L 3291 1319 
z
M 2375 1925 
Q 2375 2613 1819 2613 
Q 1581 2613 1407 2416 
Q 1234 2219 1197 1925 
L 2375 1925 
z
" transform="scale(0.015625)"/>
      <path id="SegoeUIThis-Bold-6e" d="M 3506 0 
L 2522 0 
L 2522 1778 
Q 2522 2522 1991 2522 
Q 1734 2522 1568 2325 
Q 1403 2128 1403 1825 
L 1403 0 
L 416 0 
L 416 3200 
L 1403 3200 
L 1403 2694 
L 1416 2694 
Q 1769 3278 2444 3278 
Q 3506 3278 3506 1959 
L 3506 0 
z
" transform="scale(0.015625)"/>
      <path id="SegoeUIThis-Bold-64" d="M 3547 0 
L 2559 0 
L 2559 441 
L 2547 441 
Q 2209 -78 1556 -78 
Q 956 -78 590 345 
Q 225 769 225 1528 
Q 225 2322 628 2800 
Q 1031 3278 1684 3278 
Q 2303 3278 2547 2834 
L 2559 2834 
L 2559 4738 
L 3547 4738 
L 3547 0 
z
M 2578 1556 
L 2578 1797 
Q 2578 2109 2397 2315 
Q 2216 2522 1925 2522 
Q 1597 2522 1412 2264 
Q 1228 2006 1228 1556 
Q 1228 1134 1406 906 
Q 1584 678 1900 678 
Q 2200 678 2389 918 
Q 2578 1159 2578 1556 
z
" transform="scale(0.015625)"/>
      <path id="SegoeUIThis-Bold-75" d="M 3456 0 
L 2472 0 
L 2472 488 
L 2456 488 
Q 2091 -78 1478 -78 
Q 366 -78 366 1269 
L 366 3200 
L 1350 3200 
L 1350 1356 
Q 1350 678 1888 678 
Q 2153 678 2312 864 
Q 2472 1050 2472 1369 
L 2472 3200 
L 3456 3200 
L 3456 0 
z
" transform="scale(0.015625)"/>
      <path id="SegoeUIThis-Bold-6c" d="M 1403 0 
L 416 0 
L 416 4738 
L 1403 4738 
L 1403 0 
z
" transform="scale(0.015625)"/>
      <path id="SegoeUIThis-Bold-6d" d="M 5497 0 
L 4513 0 
L 4513 1825 
Q 4513 2522 4000 2522 
Q 3756 2522 3603 2312 
Q 3450 2103 3450 1791 
L 3450 0 
L 2463 0 
L 2463 1844 
Q 2463 2522 1959 2522 
Q 1706 2522 1554 2322 
Q 1403 2122 1403 1778 
L 1403 0 
L 416 0 
L 416 3200 
L 1403 3200 
L 1403 2700 
L 1416 2700 
Q 1569 2956 1845 3117 
Q 2122 3278 2450 3278 
Q 3128 3278 3378 2681 
Q 3744 3278 4453 3278 
Q 5497 3278 5497 1991 
L 5497 0 
z
" transform="scale(0.015625)"/>
      <path id="SegoeUIThis-Bold-20" transform="scale(0.015625)"/>
      <path id="SegoeUIThis-Bold-4c" d="M 3181 0 
L 513 0 
L 513 4481 
L 1522 4481 
L 1522 819 
L 3181 819 
L 3181 0 
z
" transform="scale(0.015625)"/>
      <path id="SegoeUIThis-Bold-67" d="M 3553 366 
Q 3553 -525 3037 -1014 
Q 2522 -1503 1544 -1503 
Q 897 -1503 519 -1319 
L 519 -488 
Q 1013 -775 1516 -775 
Q 2016 -775 2291 -511 
Q 2566 -247 2566 206 
L 2566 459 
L 2553 459 
Q 2216 -78 1556 -78 
Q 944 -78 584 353 
Q 225 784 225 1509 
Q 225 2322 625 2800 
Q 1025 3278 1678 3278 
Q 2263 3278 2553 2828 
L 2566 2828 
L 2566 3200 
L 3553 3200 
L 3553 366 
z
M 2578 1538 
L 2578 1791 
Q 2578 2094 2398 2308 
Q 2219 2522 1931 2522 
Q 1603 2522 1415 2265 
Q 1228 2009 1228 1544 
Q 1228 1144 1406 911 
Q 1584 678 1894 678 
Q 2200 678 2389 914 
Q 2578 1150 2578 1538 
z
" transform="scale(0.015625)"/>
      <path id="SegoeUIThis-Bold-74" d="M 2350 38 
Q 2131 -78 1691 -78 
Q 647 -78 647 1006 
L 647 2472 
L 128 2472 
L 128 3200 
L 647 3200 
L 647 3891 
L 1631 4172 
L 1631 3200 
L 2350 3200 
L 2350 2472 
L 1631 2472 
L 1631 1178 
Q 1631 678 2028 678 
Q 2184 678 2350 769 
L 2350 38 
z
" transform="scale(0.015625)"/>
      <path id="SegoeUIThis-Bold-68" d="M 3488 0 
L 2503 0 
L 2503 1819 
Q 2503 2522 1991 2522 
Q 1728 2522 1565 2325 
Q 1403 2128 1403 1825 
L 1403 0 
L 416 0 
L 416 4738 
L 1403 4738 
L 1403 2725 
L 1416 2725 
Q 1778 3278 2400 3278 
Q 3488 3278 3488 1966 
L 3488 0 
z
" transform="scale(0.015625)"/>
      <path id="SegoeUIThis-Bold-52" d="M 4272 0 
L 3113 0 
L 2416 1153 
Q 2338 1284 2266 1387 
Q 2194 1491 2120 1564 
Q 2047 1638 1967 1677 
Q 1888 1716 1794 1716 
L 1522 1716 
L 1522 0 
L 513 0 
L 513 4481 
L 2113 4481 
Q 3744 4481 3744 3263 
Q 3744 3028 3672 2829 
Q 3600 2631 3469 2472 
Q 3338 2313 3152 2197 
Q 2966 2081 2738 2016 
L 2738 2003 
Q 2838 1972 2931 1901 
Q 3025 1831 3112 1737 
Q 3200 1644 3279 1536 
Q 3359 1428 3425 1325 
L 4272 0 
z
M 1522 3725 
L 1522 2478 
L 1959 2478 
Q 2284 2478 2481 2666 
Q 2681 2856 2681 3138 
Q 2681 3725 1978 3725 
L 1522 3725 
z
" transform="scale(0.015625)"/>
      <path id="SegoeUIThis-Bold-6f" d="M 1941 -78 
Q 1141 -78 683 370 
Q 225 819 225 1588 
Q 225 2381 700 2829 
Q 1175 3278 1984 3278 
Q 2781 3278 3234 2829 
Q 3688 2381 3688 1644 
Q 3688 847 3220 384 
Q 2753 -78 1941 -78 
z
M 1966 2522 
Q 1616 2522 1422 2281 
Q 1228 2041 1228 1600 
Q 1228 678 1972 678 
Q 2681 678 2681 1625 
Q 2681 2522 1966 2522 
z
" transform="scale(0.015625)"/>
      <path id="SegoeUIThis-Bold-62" d="M 1416 372 
L 1403 372 
L 1403 0 
L 416 0 
L 416 4738 
L 1403 4738 
L 1403 2719 
L 1416 2719 
Q 1781 3278 2456 3278 
Q 3075 3278 3409 2853 
Q 3744 2428 3744 1691 
Q 3744 891 3353 406 
Q 2963 -78 2309 -78 
Q 1719 -78 1416 372 
z
M 1388 1722 
L 1388 1394 
Q 1388 1084 1566 881 
Q 1744 678 2022 678 
Q 2359 678 2545 939 
Q 2731 1200 2731 1678 
Q 2731 2075 2561 2298 
Q 2391 2522 2075 2522 
Q 1778 2522 1583 2300 
Q 1388 2078 1388 1722 
z
" transform="scale(0.015625)"/>
      <path id="SegoeUIThis-Bold-73" d="M 206 84 
L 206 884 
Q 450 738 692 666 
Q 934 594 1150 594 
Q 1413 594 1564 666 
Q 1716 738 1716 884 
Q 1716 978 1647 1040 
Q 1578 1103 1470 1150 
Q 1363 1197 1234 1234 
Q 1106 1272 988 1319 
Q 797 1391 651 1473 
Q 506 1556 407 1665 
Q 309 1775 257 1919 
Q 206 2063 206 2259 
Q 206 2528 323 2722 
Q 441 2916 636 3039 
Q 831 3163 1082 3220 
Q 1334 3278 1606 3278 
Q 1819 3278 2037 3245 
Q 2256 3213 2469 3150 
L 2469 2388 
Q 2281 2497 2067 2551 
Q 1853 2606 1647 2606 
Q 1550 2606 1464 2589 
Q 1378 2572 1312 2539 
Q 1247 2506 1209 2454 
Q 1172 2403 1172 2338 
Q 1172 2250 1228 2187 
Q 1284 2125 1375 2079 
Q 1466 2034 1577 1998 
Q 1688 1963 1797 1925 
Q 1994 1856 2153 1775 
Q 2313 1694 2427 1584 
Q 2541 1475 2602 1328 
Q 2663 1181 2663 978 
Q 2663 694 2539 492 
Q 2416 291 2211 164 
Q 2006 38 1739 -20 
Q 1472 -78 1184 -78 
Q 656 -78 206 84 
z
" transform="scale(0.015625)"/>
      <path id="SegoeUIThis-Bold-43" d="M 3725 159 
Q 3234 -78 2444 -78 
Q 1413 -78 822 528 
Q 231 1134 231 2144 
Q 231 3219 895 3887 
Q 1559 4556 2619 4556 
Q 3275 4556 3725 4391 
L 3725 3419 
Q 3275 3688 2700 3688 
Q 2069 3688 1681 3291 
Q 1294 2894 1294 2216 
Q 1294 1566 1659 1180 
Q 2025 794 2644 794 
Q 3234 794 3725 1081 
L 3725 159 
z
" transform="scale(0.015625)"/>
      <path id="SegoeUIThis-Bold-70" d="M 1416 372 
L 1403 372 
L 1403 -1472 
L 416 -1472 
L 416 3200 
L 1403 3200 
L 1403 2719 
L 1416 2719 
Q 1781 3278 2444 3278 
Q 3066 3278 3405 2851 
Q 3744 2425 3744 1691 
Q 3744 891 3348 406 
Q 2953 -78 2297 -78 
Q 1719 -78 1416 372 
z
M 1388 1684 
L 1388 1428 
Q 1388 1097 1563 887 
Q 1738 678 2022 678 
Q 2359 678 2545 939 
Q 2731 1200 2731 1678 
Q 2731 2522 2075 2522 
Q 1772 2522 1580 2292 
Q 1388 2063 1388 1684 
z
" transform="scale(0.015625)"/>
      <path id="SegoeUIThis-Bold-61" d="M 3078 0 
L 2144 0 
L 2144 459 
L 2131 459 
Q 1809 -78 1178 -78 
Q 713 -78 445 186 
Q 178 450 178 891 
Q 178 1822 1281 1966 
L 2150 2081 
Q 2150 2606 1581 2606 
Q 1009 2606 494 2266 
L 494 3009 
Q 700 3116 1058 3197 
Q 1416 3278 1709 3278 
Q 3078 3278 3078 1913 
L 3078 0 
z
M 2150 1300 
L 2150 1516 
L 1569 1441 
Q 1088 1378 1088 1006 
Q 1088 838 1205 730 
Q 1322 622 1522 622 
Q 1800 622 1975 814 
Q 2150 1006 2150 1300 
z
" transform="scale(0.015625)"/>
      <path id="SegoeUIThis-Bold-72" d="M 2503 2309 
Q 2325 2406 2088 2406 
Q 1766 2406 1584 2170 
Q 1403 1934 1403 1528 
L 1403 0 
L 416 0 
L 416 3200 
L 1403 3200 
L 1403 2606 
L 1416 2606 
Q 1650 3256 2259 3256 
Q 2416 3256 2503 3219 
L 2503 2309 
z
" transform="scale(0.015625)"/>
      <path id="SegoeUIThis-Bold-69" d="M 916 3706 
Q 666 3706 506 3854 
Q 347 4003 347 4219 
Q 347 4441 506 4581 
Q 666 4722 916 4722 
Q 1169 4722 1326 4581 
Q 1484 4441 1484 4219 
Q 1484 3994 1326 3850 
Q 1169 3706 916 3706 
z
M 1403 0 
L 416 0 
L 416 3200 
L 1403 3200 
L 1403 0 
z
" transform="scale(0.015625)"/>
     </defs>
     <use xlink:href="#SegoeUIThis-Bold-50"/>
     <use xlink:href="#SegoeUIThis-Bold-65" x="58.425781"/>
     <use xlink:href="#SegoeUIThis-Bold-6e" x="112.527344"/>
     <use xlink:href="#SegoeUIThis-Bold-64" x="173.025391"/>
     <use xlink:href="#SegoeUIThis-Bold-75" x="234.939453"/>
     <use xlink:href="#SegoeUIThis-Bold-6c" x="295.4375"/>
     <use xlink:href="#SegoeUIThis-Bold-75" x="323.855469"/>
     <use xlink:href="#SegoeUIThis-Bold-6d" x="384.353516"/>
     <use xlink:href="#SegoeUIThis-Bold-20" x="475.955078"/>
     <use xlink:href="#SegoeUIThis-Bold-4c" x="503.542969"/>
     <use xlink:href="#SegoeUIThis-Bold-65" x="554.666016"/>
     <use xlink:href="#SegoeUIThis-Bold-6e" x="608.767578"/>
     <use xlink:href="#SegoeUIThis-Bold-67" x="669.265625"/>
     <use xlink:href="#SegoeUIThis-Bold-74" x="731.179688"/>
     <use xlink:href="#SegoeUIThis-Bold-68" x="770.095703"/>
     <use xlink:href="#SegoeUIThis-Bold-20" x="830.300781"/>
     <use xlink:href="#SegoeUIThis-Bold-52" x="857.888672"/>
     <use xlink:href="#SegoeUIThis-Bold-6f" x="920.671875"/>
     <use xlink:href="#SegoeUIThis-Bold-62" x="981.804688"/>
     <use xlink:href="#SegoeUIThis-Bold-75" x="1043.816406"/>
     <use xlink:href="#SegoeUIThis-Bold-73" x="1104.314453"/>
     <use xlink:href="#SegoeUIThis-Bold-74" x="1148.308594"/>
     <use xlink:href="#SegoeUIThis-Bold-6e" x="1187.224609"/>
     <use xlink:href="#SegoeUIThis-Bold-65" x="1247.722656"/>
     <use xlink:href="#SegoeUIThis-Bold-73" x="1301.824219"/>
     <use xlink:href="#SegoeUIThis-Bold-73" x="1345.818359"/>
     <use xlink:href="#SegoeUIThis-Bold-20" x="1389.8125"/>
     <use xlink:href="#SegoeUIThis-Bold-43" x="1417.400391"/>
     <use xlink:href="#SegoeUIThis-Bold-6f" x="1479.802734"/>
     <use xlink:href="#SegoeUIThis-Bold-6d" x="1540.935547"/>
     <use xlink:href="#SegoeUIThis-Bold-70" x="1632.537109"/>
     <use xlink:href="#SegoeUIThis-Bold-61" x="1693.548828"/>
     <use xlink:href="#SegoeUIThis-Bold-72" x="1747.357422"/>
     <use xlink:href="#SegoeUIThis-Bold-69" x="1787.527344"/>
     <use xlink:href="#SegoeUIThis-Bold-73" x="1815.945312"/>
     <use xlink:href="#SegoeUIThis-Bold-6f" x="1859.939453"/>
     <use xlink:href="#SegoeUIThis-Bold-6e" x="1921.072266"/>
    </g>
   </g>
   <g id="legend_1">
    <g id="patch_7">
     <path d="M 662.661563 162.916875 
L 765 162.916875 
Q 768.6 162.916875 768.6 159.316875 
L 768.6 81.72 
Q 768.6 78.12 765 78.12 
L 662.661563 78.12 
Q 659.061563 78.12 659.061563 81.72 
L 659.061563 159.316875 
Q 659.061563 162.916875 662.661563 162.916875 
z
" style="fill: #ffffff; opacity: 0.8; stroke: #cccccc; stroke-linejoin: miter"/>
    </g>
    <g id="line2d_33">
     <path d="M 666.261563 92.345625 
L 684.261563 92.345625 
L 702.261563 92.345625 
" style="fill: none; stroke: #ff7700; stroke-width: 4; stroke-linecap: square"/>
    </g>
    <g id="text_18">
     <!-- PPO -->
     <g transform="translate(716.661563 98.645625) scale(0.18 -0.18)">
      <defs>
       <path id="SegoeUIThis-4f" d="M 2394 -75 
Q 1441 -75 867 553 
Q 294 1181 294 2188 
Q 294 3269 878 3912 
Q 1463 4556 2469 4556 
Q 3397 4556 3964 3931 
Q 4531 3306 4531 2297 
Q 4531 1200 3950 562 
Q 3369 -75 2394 -75 
z
M 2431 4081 
Q 1725 4081 1284 3572 
Q 844 3063 844 2234 
Q 844 1406 1273 901 
Q 1703 397 2394 397 
Q 3131 397 3556 878 
Q 3981 1359 3981 2225 
Q 3981 3113 3568 3597 
Q 3156 4081 2431 4081 
z
" transform="scale(0.015625)"/>
      </defs>
      <use xlink:href="#SegoeUIThis-50"/>
      <use xlink:href="#SegoeUIThis-50" x="56.005859"/>
      <use xlink:href="#SegoeUIThis-4f" x="112.011719"/>
     </g>
    </g>
    <g id="line2d_34">
     <path d="M 666.261563 118.81125 
L 684.261563 118.81125 
L 702.261563 118.81125 
" style="fill: none; stroke: #004777; stroke-width: 4; stroke-linecap: square"/>
    </g>
    <g id="text_19">
     <!-- SHAC -->
     <g transform="translate(716.661563 125.11125) scale(0.18 -0.18)">
      <defs>
       <path id="SegoeUIThis-53" d="M 378 181 
L 378 800 
Q 484 706 632 631 
Q 781 556 945 504 
Q 1109 453 1275 425 
Q 1441 397 1581 397 
Q 2066 397 2305 576 
Q 2544 756 2544 1094 
Q 2544 1275 2464 1409 
Q 2384 1544 2243 1655 
Q 2103 1766 1911 1867 
Q 1719 1969 1497 2081 
Q 1263 2200 1059 2322 
Q 856 2444 706 2591 
Q 556 2738 470 2923 
Q 384 3109 384 3359 
Q 384 3666 518 3892 
Q 653 4119 872 4266 
Q 1091 4413 1370 4484 
Q 1650 4556 1941 4556 
Q 2603 4556 2906 4397 
L 2906 3806 
Q 2509 4081 1888 4081 
Q 1716 4081 1544 4045 
Q 1372 4009 1237 3928 
Q 1103 3847 1018 3719 
Q 934 3591 934 3406 
Q 934 3234 998 3109 
Q 1063 2984 1188 2881 
Q 1313 2778 1492 2681 
Q 1672 2584 1906 2469 
Q 2147 2350 2362 2219 
Q 2578 2088 2740 1928 
Q 2903 1769 2998 1575 
Q 3094 1381 3094 1131 
Q 3094 800 2964 570 
Q 2834 341 2614 197 
Q 2394 53 2106 -11 
Q 1819 -75 1500 -75 
Q 1394 -75 1237 -58 
Q 1081 -41 918 -8 
Q 756 25 611 73 
Q 466 122 378 181 
z
" transform="scale(0.015625)"/>
       <path id="SegoeUIThis-48" d="M 3956 0 
L 3431 0 
L 3431 2044 
L 1113 2044 
L 1113 0 
L 588 0 
L 588 4481 
L 1113 4481 
L 1113 2516 
L 3431 2516 
L 3431 4481 
L 3956 4481 
L 3956 0 
z
" transform="scale(0.015625)"/>
       <path id="SegoeUIThis-41" d="M 4056 0 
L 3475 0 
L 3000 1256 
L 1100 1256 
L 653 0 
L 69 0 
L 1788 4481 
L 2331 4481 
L 4056 0 
z
M 2828 1728 
L 2125 3638 
Q 2091 3731 2056 3938 
L 2044 3938 
Q 2013 3747 1972 3638 
L 1275 1728 
L 2828 1728 
z
" transform="scale(0.015625)"/>
       <path id="SegoeUIThis-43" d="M 3638 188 
Q 3141 -75 2400 -75 
Q 1444 -75 869 540 
Q 294 1156 294 2156 
Q 294 3231 941 3893 
Q 1588 4556 2581 4556 
Q 3219 4556 3638 4372 
L 3638 3813 
Q 3156 4081 2575 4081 
Q 1803 4081 1323 3565 
Q 844 3050 844 2188 
Q 844 1369 1292 883 
Q 1741 397 2469 397 
Q 3144 397 3638 697 
L 3638 188 
z
" transform="scale(0.015625)"/>
      </defs>
      <use xlink:href="#SegoeUIThis-53"/>
      <use xlink:href="#SegoeUIThis-48" x="53.125"/>
      <use xlink:href="#SegoeUIThis-41" x="124.121094"/>
      <use xlink:href="#SegoeUIThis-43" x="186.623047"/>
     </g>
    </g>
    <g id="line2d_35">
     <path d="M 666.261563 145.276875 
L 684.261563 145.276875 
L 702.261563 145.276875 
" style="fill: none; stroke: #b72b34; stroke-width: 4; stroke-linecap: square"/>
    </g>
    <g id="text_20">
     <!-- SAC -->
     <g transform="translate(716.661563 151.576875) scale(0.18 -0.18)">
      <use xlink:href="#SegoeUIThis-53"/>
      <use xlink:href="#SegoeUIThis-41" x="53.125"/>
      <use xlink:href="#SegoeUIThis-43" x="115.626953"/>
     </g>
    </g>
   </g>
  </g>
 </g>
 <defs>
  <clipPath id="pf57d5e86a8">
   <rect x="108" y="69.12" width="669.6" height="443.52"/>
  </clipPath>
 </defs>
</svg>
