<?xml version="1.0" encoding="utf-8" standalone="no"?>
<!DOCTYPE svg PUBLIC "-//W3C//DTD SVG 1.1//EN"
  "http://www.w3.org/Graphics/SVG/1.1/DTD/svg11.dtd">
<svg xmlns:xlink="http://www.w3.org/1999/xlink" width="460.8pt" height="345.6pt" viewBox="0 0 460.8 345.6" xmlns="http://www.w3.org/2000/svg" version="1.1">
 <metadata>
  <rdf:RDF xmlns:dc="http://purl.org/dc/elements/1.1/" xmlns:cc="http://creativecommons.org/ns#" xmlns:rdf="http://www.w3.org/1999/02/22-rdf-syntax-ns#">
   <cc:Work>
    <dc:type rdf:resource="http://purl.org/dc/dcmitype/StillImage"/>
    <dc:date>2024-07-24T17:16:31.983861</dc:date>
    <dc:format>image/svg+xml</dc:format>
    <dc:creator>
     <cc:Agent>
      <dc:title>Matplotlib v3.8.4, https://matplotlib.org/</dc:title>
     </cc:Agent>
    </dc:creator>
   </cc:Work>
  </rdf:RDF>
 </metadata>
 <defs>
  <style type="text/css">*{stroke-linejoin: round; stroke-linecap: butt}</style>
 </defs>
 <g id="figure_1">
  <g id="patch_1">
   <path d="M 0 345.6 
L 460.8 345.6 
L 460.8 0 
L 0 0 
z
" style="fill: #ffffff"/>
  </g>
  <g id="axes_1">
   <g id="patch_2">
    <path d="M 76.16 299.32 
L 450 299.32 
L 450 32.64 
L 76.16 32.64 
z
" style="fill: #ffffff"/>
   </g>
   <g id="PolyCollection_1">
    <path d="M 93.152727 74.967643 
L 93.152727 94.857876 
L 96.585601 185.123314 
L 100.018476 208.359775 
L 103.45135 218.297674 
L 106.884224 226.471531 
L 110.317098 226.083716 
L 113.749972 168.94676 
L 117.182847 150.132566 
L 120.615721 167.464869 
L 124.048595 125.989232 
L 127.481469 133.357654 
L 130.914343 123.356694 
L 134.347218 123.418148 
L 137.780092 123.250818 
L 141.212966 122.565692 
L 144.64584 122.556203 
L 148.078714 121.852947 
L 151.511589 122.014547 
L 154.944463 121.703161 
L 158.377337 121.030483 
L 161.810211 121.162786 
L 165.243085 120.660722 
L 168.67596 129.071786 
L 172.108834 129.017116 
L 175.541708 128.878383 
L 178.974582 128.994539 
L 182.407456 134.077561 
L 185.840331 128.390827 
L 189.273205 177.017033 
L 192.706079 193.684494 
L 196.138953 142.673637 
L 199.571827 142.608783 
L 203.004702 159.090449 
L 206.437576 142.341639 
L 209.87045 158.837388 
L 213.303324 142.104239 
L 216.736198 152.928663 
L 220.169073 152.625341 
L 223.601947 166.425975 
L 227.034821 166.263745 
L 230.467695 166.065428 
L 233.900569 166.195158 
L 237.333444 168.789666 
L 240.766318 165.754472 
L 244.199192 212.092331 
L 247.632066 168.376892 
L 251.06494 168.380088 
L 254.497815 169.777956 
L 257.930689 168.21068 
L 261.363563 188.920835 
L 264.796437 168.113999 
L 268.229311 182.97077 
L 271.662185 192.258566 
L 275.09506 198.073336 
L 278.527934 193.270733 
L 281.960808 193.058226 
L 285.393682 237.862868 
L 288.826556 233.354948 
L 292.259431 207.880059 
L 295.692305 207.689099 
L 299.125179 207.22589 
L 302.558053 207.644428 
L 305.990927 224.564556 
L 309.423802 209.948566 
L 312.856676 207.229488 
L 316.28955 207.079653 
L 319.722424 228.725755 
L 323.155298 232.331178 
L 326.588173 234.878094 
L 330.021047 244.907338 
L 333.453921 218.767936 
L 336.886795 247.024955 
L 340.319669 245.548088 
L 343.752544 237.633477 
L 347.185418 246.073723 
L 350.618292 232.641516 
L 354.051166 234.414353 
L 357.48404 244.356731 
L 360.916915 247.500939 
L 364.349789 254.481357 
L 367.782663 272.602415 
L 371.215537 252.975808 
L 374.648411 257.007567 
L 378.081286 252.386625 
L 381.51416 243.24963 
L 384.947034 257.203204 
L 388.379908 257.301522 
L 391.812782 267.087442 
L 395.245657 255.702427 
L 398.678531 275.170365 
L 402.111405 260.210947 
L 405.544279 267.144846 
L 408.977153 279.146192 
L 412.410028 265.048783 
L 415.842902 274.030882 
L 419.275776 261.215029 
L 422.70865 285.965829 
L 426.141524 274.418929 
L 429.574399 285.716067 
L 433.007273 287.198182 
L 433.007273 161.756616 
L 433.007273 161.756616 
L 429.574399 153.366078 
L 426.141524 154.721313 
L 422.70865 160.373565 
L 419.275776 164.29198 
L 415.842902 162.903732 
L 412.410028 148.963898 
L 408.977153 167.408258 
L 405.544279 158.465613 
L 402.111405 142.769325 
L 398.678531 150.485653 
L 395.245657 124.546934 
L 391.812782 135.401606 
L 388.379908 134.472767 
L 384.947034 134.486288 
L 381.51416 137.574538 
L 378.081286 151.006344 
L 374.648411 134.699657 
L 371.215537 139.761166 
L 367.782663 140.928759 
L 364.349789 126.887078 
L 360.916915 122.347231 
L 357.48404 148.819463 
L 354.051166 136.089169 
L 350.618292 126.383208 
L 347.185418 149.064518 
L 343.752544 133.072269 
L 340.319669 137.922192 
L 336.886795 131.074633 
L 333.453921 129.621097 
L 330.021047 137.166146 
L 326.588173 136.51975 
L 323.155298 139.228375 
L 319.722424 120.178509 
L 316.28955 119.073015 
L 312.856676 119.165151 
L 309.423802 127.677773 
L 305.990927 135.695509 
L 302.558053 119.14101 
L 299.125179 108.177218 
L 295.692305 119.083506 
L 292.259431 119.194794 
L 288.826556 123.24283 
L 285.393682 133.145467 
L 281.960808 111.54458 
L 278.527934 111.616714 
L 275.09506 118.456805 
L 271.662185 101.42863 
L 268.229311 99.449311 
L 264.796437 103.269507 
L 261.363563 105.066684 
L 257.930689 103.140691 
L 254.497815 113.14813 
L 251.06494 103.263581 
L 247.632066 103.17274 
L 244.199192 104.859034 
L 240.766318 94.668845 
L 237.333444 103.171891 
L 233.900569 94.626738 
L 230.467695 94.675867 
L 227.034821 94.695404 
L 223.601947 94.603653 
L 220.169073 97.074719 
L 216.736198 97.055036 
L 213.303324 96.58441 
L 209.87045 91.572426 
L 206.437576 96.475211 
L 203.004702 91.610028 
L 199.571827 96.551908 
L 196.138953 96.55281 
L 192.706079 80.774041 
L 189.273205 86.253532 
L 185.840331 99.911503 
L 182.407456 105.63939 
L 178.974582 99.920491 
L 175.541708 99.909837 
L 172.108834 99.947286 
L 168.67596 100.051887 
L 165.243085 96.979426 
L 161.810211 96.751106 
L 158.377337 96.995776 
L 154.944463 97.047483 
L 151.511589 96.629518 
L 148.078714 96.986191 
L 144.64584 96.960054 
L 141.212966 96.877029 
L 137.780092 96.925498 
L 134.347218 97.159984 
L 130.914343 97.23698 
L 127.481469 100.851944 
L 124.048595 97.183882 
L 120.615721 94.277389 
L 117.182847 90.051124 
L 113.749972 74.25213 
L 110.317098 55.359185 
L 106.884224 56.331811 
L 103.45135 60.759773 
L 100.018476 68.461186 
L 96.585601 55.409258 
L 93.152727 74.967643 
z
" clip-path="url(#p0a27c4f3a9)" style="fill: #1f77b4; fill-opacity: 0.3"/>
   </g>
   <g id="PolyCollection_2">
    <path d="M 93.152727 45.235923 
L 93.152727 181.592604 
L 96.585601 182.715746 
L 100.018476 181.646106 
L 103.45135 182.54092 
L 106.884224 183.295854 
L 110.317098 184.821826 
L 113.749972 181.907985 
L 117.182847 185.099468 
L 120.615721 181.464506 
L 124.048595 181.63931 
L 127.481469 182.188453 
L 130.914343 183.125925 
L 134.347218 185.138953 
L 137.780092 189.931448 
L 141.212966 190.404889 
L 144.64584 186.548839 
L 148.078714 185.876455 
L 151.511589 188.842398 
L 154.944463 188.377669 
L 158.377337 187.799483 
L 161.810211 187.737851 
L 165.243085 187.989935 
L 168.67596 187.887597 
L 172.108834 187.391004 
L 175.541708 187.215483 
L 178.974582 187.281825 
L 182.407456 180.999706 
L 185.840331 186.066724 
L 189.273205 183.395137 
L 192.706079 173.758955 
L 196.138953 173.813776 
L 199.571827 173.593816 
L 203.004702 186.481777 
L 206.437576 184.686363 
L 209.87045 178.499543 
L 213.303324 172.282125 
L 216.736198 173.438617 
L 220.169073 172.432762 
L 223.601947 172.04485 
L 227.034821 172.149274 
L 230.467695 172.168203 
L 233.900569 172.072361 
L 237.333444 171.955072 
L 240.766318 176.498894 
L 244.199192 179.237237 
L 247.632066 176.587219 
L 251.06494 166.95994 
L 254.497815 176.145992 
L 257.930689 166.844615 
L 261.363563 213.33887 
L 264.796437 166.458265 
L 268.229311 179.696475 
L 271.662185 214.519151 
L 275.09506 204.384843 
L 278.527934 205.166767 
L 281.960808 219.563223 
L 285.393682 225.814422 
L 288.826556 209.601152 
L 292.259431 225.418575 
L 295.692305 192.273241 
L 299.125179 212.781721 
L 302.558053 228.538806 
L 305.990927 226.473826 
L 309.423802 213.425916 
L 312.856676 233.467749 
L 316.28955 201.191552 
L 319.722424 212.926982 
L 323.155298 233.591152 
L 326.588173 254.729543 
L 330.021047 223.549261 
L 333.453921 212.124177 
L 336.886795 215.179261 
L 340.319669 225.132293 
L 343.752544 244.448511 
L 347.185418 232.346237 
L 350.618292 231.757201 
L 354.051166 230.889952 
L 357.48404 246.547131 
L 360.916915 227.071748 
L 364.349789 231.981793 
L 367.782663 234.674999 
L 371.215537 241.33125 
L 374.648411 228.443907 
L 378.081286 232.878081 
L 381.51416 243.067542 
L 384.947034 243.549927 
L 388.379908 243.260385 
L 391.812782 242.397083 
L 395.245657 238.118178 
L 398.678531 235.940775 
L 402.111405 236.463123 
L 405.544279 242.67362 
L 408.977153 251.230836 
L 412.410028 255.30554 
L 415.842902 240.40565 
L 419.275776 235.839943 
L 422.70865 232.497059 
L 426.141524 235.783818 
L 429.574399 245.856335 
L 433.007273 250.748112 
L 433.007273 187.52366 
L 433.007273 187.52366 
L 429.574399 183.965285 
L 426.141524 181.061271 
L 422.70865 147.237489 
L 419.275776 181.438001 
L 415.842902 165.357737 
L 412.410028 166.312527 
L 408.977153 186.108163 
L 405.544279 171.230823 
L 402.111405 148.972381 
L 398.678531 181.752423 
L 395.245657 189.6407 
L 391.812782 189.676122 
L 388.379908 162.430822 
L 384.947034 182.558263 
L 381.51416 157.312098 
L 378.081286 149.544905 
L 374.648411 162.365713 
L 371.215537 152.43444 
L 367.782663 155.943558 
L 364.349789 155.631509 
L 360.916915 139.547768 
L 357.48404 161.470435 
L 354.051166 137.081314 
L 350.618292 138.530299 
L 347.185418 149.267996 
L 343.752544 143.975635 
L 340.319669 126.478001 
L 336.886795 137.316209 
L 333.453921 107.914577 
L 330.021047 126.814862 
L 326.588173 141.60028 
L 323.155298 96.453948 
L 319.722424 116.272302 
L 316.28955 118.849921 
L 312.856676 115.466462 
L 309.423802 116.060133 
L 305.990927 93.568701 
L 302.558053 102.982894 
L 299.125179 114.13154 
L 295.692305 102.202922 
L 292.259431 94.698175 
L 288.826556 97.826465 
L 285.393682 107.085236 
L 281.960808 99.825261 
L 278.527934 93.897299 
L 275.09506 104.383438 
L 271.662185 83.818716 
L 268.229311 94.801368 
L 264.796437 98.621695 
L 261.363563 84.038736 
L 257.930689 98.726554 
L 254.497815 86.991254 
L 251.06494 98.707024 
L 247.632066 86.615442 
L 244.199192 95.050404 
L 240.766318 86.921785 
L 237.333444 80.108494 
L 233.900569 80.04555 
L 230.467695 79.831216 
L 227.034821 79.714037 
L 223.601947 79.640429 
L 220.169073 79.57549 
L 216.736198 79.28786 
L 213.303324 79.836392 
L 209.87045 77.25557 
L 206.437576 75.821511 
L 203.004702 75.1984 
L 199.571827 79.185634 
L 196.138953 79.304058 
L 192.706079 79.315097 
L 189.273205 76.483565 
L 185.840331 75.715364 
L 182.407456 76.982202 
L 178.974582 75.6807 
L 175.541708 65.288278 
L 172.108834 65.436071 
L 168.67596 65.227169 
L 165.243085 64.502369 
L 161.810211 64.9916 
L 158.377337 65.319891 
L 154.944463 65.924614 
L 151.511589 66.155669 
L 148.078714 57.547501 
L 144.64584 58.491398 
L 141.212966 62.696794 
L 137.780092 61.862437 
L 134.347218 54.175867 
L 130.914343 50.183901 
L 127.481469 48.537805 
L 124.048595 47.783953 
L 120.615721 47.104495 
L 117.182847 51.089964 
L 113.749972 46.234961 
L 110.317098 50.683446 
L 106.884224 45.178242 
L 103.45135 45.263131 
L 100.018476 45.188927 
L 96.585601 44.761818 
L 93.152727 45.235923 
z
" clip-path="url(#p0a27c4f3a9)" style="fill: #ff7f0e; fill-opacity: 0.3"/>
   </g>
   <g id="PolyCollection_3">
    <path d="M 93.152727 87.811609 
L 93.152727 107.973172 
L 96.585601 107.691668 
L 100.018476 107.557606 
L 103.45135 107.601953 
L 106.884224 106.980468 
L 110.317098 106.860181 
L 113.749972 106.759277 
L 117.182847 106.681575 
L 120.615721 106.414237 
L 124.048595 106.351352 
L 127.481469 106.14607 
L 130.914343 106.2629 
L 134.347218 106.14236 
L 137.780092 105.868496 
L 141.212966 105.724805 
L 144.64584 106.005392 
L 148.078714 106.04855 
L 151.511589 105.921315 
L 154.944463 104.814581 
L 158.377337 105.848179 
L 161.810211 105.773972 
L 165.243085 104.175888 
L 168.67596 104.097284 
L 172.108834 103.539621 
L 175.541708 103.401105 
L 178.974582 103.453872 
L 182.407456 103.312327 
L 185.840331 103.278468 
L 189.273205 103.265496 
L 192.706079 103.246919 
L 196.138953 103.088457 
L 199.571827 103.050847 
L 203.004702 103.041469 
L 206.437576 102.892941 
L 209.87045 102.906611 
L 213.303324 102.995919 
L 216.736198 102.936149 
L 220.169073 102.826807 
L 223.601947 102.873506 
L 227.034821 102.886762 
L 230.467695 102.89959 
L 233.900569 102.878314 
L 237.333444 102.827958 
L 240.766318 102.768085 
L 244.199192 102.753873 
L 247.632066 102.714381 
L 251.06494 102.737471 
L 254.497815 102.731363 
L 257.930689 102.753706 
L 261.363563 102.663984 
L 264.796437 102.66616 
L 268.229311 102.779365 
L 271.662185 102.632237 
L 275.09506 102.693876 
L 278.527934 118.275642 
L 281.960808 118.1716 
L 285.393682 117.965857 
L 288.826556 117.838971 
L 292.259431 117.640463 
L 295.692305 117.630909 
L 299.125179 117.090271 
L 302.558053 116.884718 
L 305.990927 116.603768 
L 309.423802 116.590303 
L 312.856676 116.40243 
L 316.28955 116.454839 
L 319.722424 116.391848 
L 323.155298 124.996516 
L 326.588173 124.870523 
L 330.021047 124.979813 
L 333.453921 124.716271 
L 336.886795 124.714541 
L 340.319669 124.882418 
L 343.752544 124.672791 
L 347.185418 124.539517 
L 350.618292 124.6339 
L 354.051166 124.826905 
L 357.48404 124.673018 
L 360.916915 124.615344 
L 364.349789 124.845308 
L 367.782663 138.736259 
L 371.215537 138.751997 
L 374.648411 138.567903 
L 378.081286 138.673847 
L 381.51416 138.466471 
L 384.947034 138.473378 
L 388.379908 138.244929 
L 391.812782 138.320951 
L 395.245657 138.077793 
L 398.678531 138.085965 
L 402.111405 138.087111 
L 405.544279 138.108265 
L 408.977153 138.047102 
L 412.410028 138.104298 
L 415.842902 137.954221 
L 419.275776 142.316379 
L 422.70865 154.648825 
L 426.141524 144.875099 
L 429.574399 184.75616 
L 433.007273 144.824622 
L 433.007273 112.66412 
L 433.007273 112.66412 
L 429.574399 107.232632 
L 426.141524 112.591419 
L 422.70865 114.235887 
L 419.275776 104.459584 
L 415.842902 97.427364 
L 412.410028 97.429742 
L 408.977153 97.410062 
L 405.544279 97.313426 
L 402.111405 97.367594 
L 398.678531 97.292009 
L 395.245657 97.333621 
L 391.812782 97.31474 
L 388.379908 97.332517 
L 384.947034 97.383976 
L 381.51416 97.309894 
L 378.081286 97.313571 
L 374.648411 97.313034 
L 371.215537 97.201957 
L 367.782663 97.298651 
L 364.349789 100.172788 
L 360.916915 100.164623 
L 357.48404 100.203031 
L 354.051166 100.198192 
L 350.618292 100.181696 
L 347.185418 100.199083 
L 343.752544 100.20661 
L 340.319669 100.137299 
L 336.886795 100.151147 
L 333.453921 100.189513 
L 330.021047 100.158588 
L 326.588173 100.169494 
L 323.155298 100.10906 
L 319.722424 97.49966 
L 316.28955 97.467388 
L 312.856676 97.488038 
L 309.423802 97.421725 
L 305.990927 97.357177 
L 302.558053 97.295599 
L 299.125179 97.150518 
L 295.692305 97.018731 
L 292.259431 96.959673 
L 288.826556 96.869279 
L 285.393682 96.85772 
L 281.960808 96.781416 
L 278.527934 96.721268 
L 275.09506 100.950422 
L 271.662185 100.842854 
L 268.229311 100.749094 
L 264.796437 100.686143 
L 261.363563 100.677496 
L 257.930689 100.67659 
L 254.497815 100.594451 
L 251.06494 100.574723 
L 247.632066 100.491185 
L 244.199192 100.529309 
L 240.766318 100.336368 
L 237.333444 100.476448 
L 233.900569 100.364755 
L 230.467695 100.267472 
L 227.034821 100.214655 
L 223.601947 100.154392 
L 220.169073 100.114881 
L 216.736198 100.113344 
L 213.303324 100.191126 
L 209.87045 100.042586 
L 206.437576 99.996179 
L 203.004702 99.920898 
L 199.571827 99.869952 
L 196.138953 99.795251 
L 192.706079 99.826348 
L 189.273205 99.770716 
L 185.840331 99.78852 
L 182.407456 99.698437 
L 178.974582 99.692157 
L 175.541708 99.620257 
L 172.108834 99.54481 
L 168.67596 99.476383 
L 165.243085 99.489122 
L 161.810211 86.406761 
L 158.377337 86.236169 
L 154.944463 88.374722 
L 151.511589 85.967742 
L 148.078714 85.863246 
L 144.64584 85.889227 
L 141.212966 85.922593 
L 137.780092 85.847811 
L 134.347218 85.848647 
L 130.914343 85.774621 
L 127.481469 85.720021 
L 124.048595 85.756451 
L 120.615721 85.836418 
L 117.182847 85.889734 
L 113.749972 86.023053 
L 110.317098 86.37373 
L 106.884224 86.583643 
L 103.45135 86.880507 
L 100.018476 87.082981 
L 96.585601 87.558148 
L 93.152727 87.811609 
z
" clip-path="url(#p0a27c4f3a9)" style="fill: #2ca02c; fill-opacity: 0.3"/>
   </g>
   <g id="matplotlib.axis_1">
    <g id="xtick_1">
     <g id="line2d_1">
      <path d="M 93.152727 299.32 
L 93.152727 32.64 
" clip-path="url(#p0a27c4f3a9)" style="fill: none; stroke: #b0b0b0; stroke-width: 0.8; stroke-linecap: square"/>
     </g>
     <g id="line2d_2">
      <defs>
       <path id="m1d58d3d543" d="M 0 0 
L 0 3.5 
" style="stroke: #000000; stroke-width: 0.8"/>
      </defs>
      <g>
       <use xlink:href="#m1d58d3d543" x="93.152727" y="299.32" style="stroke: #000000; stroke-width: 0.8"/>
      </g>
     </g>
     <g id="text_1">
      <!-- 0.2 -->
      <g transform="translate(83.610852 315.438125) scale(0.12 -0.12)">
       <defs>
        <path id="DejaVuSans-30" d="M 2034 4250 
Q 1547 4250 1301 3770 
Q 1056 3291 1056 2328 
Q 1056 1369 1301 889 
Q 1547 409 2034 409 
Q 2525 409 2770 889 
Q 3016 1369 3016 2328 
Q 3016 3291 2770 3770 
Q 2525 4250 2034 4250 
z
M 2034 4750 
Q 2819 4750 3233 4129 
Q 3647 3509 3647 2328 
Q 3647 1150 3233 529 
Q 2819 -91 2034 -91 
Q 1250 -91 836 529 
Q 422 1150 422 2328 
Q 422 3509 836 4129 
Q 1250 4750 2034 4750 
z
" transform="scale(0.015625)"/>
        <path id="DejaVuSans-2e" d="M 684 794 
L 1344 794 
L 1344 0 
L 684 0 
L 684 794 
z
" transform="scale(0.015625)"/>
        <path id="DejaVuSans-32" d="M 1228 531 
L 3431 531 
L 3431 0 
L 469 0 
L 469 531 
Q 828 903 1448 1529 
Q 2069 2156 2228 2338 
Q 2531 2678 2651 2914 
Q 2772 3150 2772 3378 
Q 2772 3750 2511 3984 
Q 2250 4219 1831 4219 
Q 1534 4219 1204 4116 
Q 875 4013 500 3803 
L 500 4441 
Q 881 4594 1212 4672 
Q 1544 4750 1819 4750 
Q 2544 4750 2975 4387 
Q 3406 4025 3406 3419 
Q 3406 3131 3298 2873 
Q 3191 2616 2906 2266 
Q 2828 2175 2409 1742 
Q 1991 1309 1228 531 
z
" transform="scale(0.015625)"/>
       </defs>
       <use xlink:href="#DejaVuSans-30"/>
       <use xlink:href="#DejaVuSans-2e" x="63.623047"/>
       <use xlink:href="#DejaVuSans-32" x="95.410156"/>
      </g>
     </g>
    </g>
    <g id="xtick_2">
     <g id="line2d_3">
      <path d="M 135.634545 299.32 
L 135.634545 32.64 
" clip-path="url(#p0a27c4f3a9)" style="fill: none; stroke: #b0b0b0; stroke-width: 0.8; stroke-linecap: square"/>
     </g>
     <g id="line2d_4">
      <g>
       <use xlink:href="#m1d58d3d543" x="135.634545" y="299.32" style="stroke: #000000; stroke-width: 0.8"/>
      </g>
     </g>
     <g id="text_2">
      <!-- 0.4 -->
      <g transform="translate(126.09267 315.438125) scale(0.12 -0.12)">
       <defs>
        <path id="DejaVuSans-34" d="M 2419 4116 
L 825 1625 
L 2419 1625 
L 2419 4116 
z
M 2253 4666 
L 3047 4666 
L 3047 1625 
L 3713 1625 
L 3713 1100 
L 3047 1100 
L 3047 0 
L 2419 0 
L 2419 1100 
L 313 1100 
L 313 1709 
L 2253 4666 
z
" transform="scale(0.015625)"/>
       </defs>
       <use xlink:href="#DejaVuSans-30"/>
       <use xlink:href="#DejaVuSans-2e" x="63.623047"/>
       <use xlink:href="#DejaVuSans-34" x="95.410156"/>
      </g>
     </g>
    </g>
    <g id="xtick_3">
     <g id="line2d_5">
      <path d="M 178.116364 299.32 
L 178.116364 32.64 
" clip-path="url(#p0a27c4f3a9)" style="fill: none; stroke: #b0b0b0; stroke-width: 0.8; stroke-linecap: square"/>
     </g>
     <g id="line2d_6">
      <g>
       <use xlink:href="#m1d58d3d543" x="178.116364" y="299.32" style="stroke: #000000; stroke-width: 0.8"/>
      </g>
     </g>
     <g id="text_3">
      <!-- 0.6 -->
      <g transform="translate(168.574489 315.438125) scale(0.12 -0.12)">
       <defs>
        <path id="DejaVuSans-36" d="M 2113 2584 
Q 1688 2584 1439 2293 
Q 1191 2003 1191 1497 
Q 1191 994 1439 701 
Q 1688 409 2113 409 
Q 2538 409 2786 701 
Q 3034 994 3034 1497 
Q 3034 2003 2786 2293 
Q 2538 2584 2113 2584 
z
M 3366 4563 
L 3366 3988 
Q 3128 4100 2886 4159 
Q 2644 4219 2406 4219 
Q 1781 4219 1451 3797 
Q 1122 3375 1075 2522 
Q 1259 2794 1537 2939 
Q 1816 3084 2150 3084 
Q 2853 3084 3261 2657 
Q 3669 2231 3669 1497 
Q 3669 778 3244 343 
Q 2819 -91 2113 -91 
Q 1303 -91 875 529 
Q 447 1150 447 2328 
Q 447 3434 972 4092 
Q 1497 4750 2381 4750 
Q 2619 4750 2861 4703 
Q 3103 4656 3366 4563 
z
" transform="scale(0.015625)"/>
       </defs>
       <use xlink:href="#DejaVuSans-30"/>
       <use xlink:href="#DejaVuSans-2e" x="63.623047"/>
       <use xlink:href="#DejaVuSans-36" x="95.410156"/>
      </g>
     </g>
    </g>
    <g id="xtick_4">
     <g id="line2d_7">
      <path d="M 220.598182 299.32 
L 220.598182 32.64 
" clip-path="url(#p0a27c4f3a9)" style="fill: none; stroke: #b0b0b0; stroke-width: 0.8; stroke-linecap: square"/>
     </g>
     <g id="line2d_8">
      <g>
       <use xlink:href="#m1d58d3d543" x="220.598182" y="299.32" style="stroke: #000000; stroke-width: 0.8"/>
      </g>
     </g>
     <g id="text_4">
      <!-- 0.8 -->
      <g transform="translate(211.056307 315.438125) scale(0.12 -0.12)">
       <defs>
        <path id="DejaVuSans-38" d="M 2034 2216 
Q 1584 2216 1326 1975 
Q 1069 1734 1069 1313 
Q 1069 891 1326 650 
Q 1584 409 2034 409 
Q 2484 409 2743 651 
Q 3003 894 3003 1313 
Q 3003 1734 2745 1975 
Q 2488 2216 2034 2216 
z
M 1403 2484 
Q 997 2584 770 2862 
Q 544 3141 544 3541 
Q 544 4100 942 4425 
Q 1341 4750 2034 4750 
Q 2731 4750 3128 4425 
Q 3525 4100 3525 3541 
Q 3525 3141 3298 2862 
Q 3072 2584 2669 2484 
Q 3125 2378 3379 2068 
Q 3634 1759 3634 1313 
Q 3634 634 3220 271 
Q 2806 -91 2034 -91 
Q 1263 -91 848 271 
Q 434 634 434 1313 
Q 434 1759 690 2068 
Q 947 2378 1403 2484 
z
M 1172 3481 
Q 1172 3119 1398 2916 
Q 1625 2713 2034 2713 
Q 2441 2713 2670 2916 
Q 2900 3119 2900 3481 
Q 2900 3844 2670 4047 
Q 2441 4250 2034 4250 
Q 1625 4250 1398 4047 
Q 1172 3844 1172 3481 
z
" transform="scale(0.015625)"/>
       </defs>
       <use xlink:href="#DejaVuSans-30"/>
       <use xlink:href="#DejaVuSans-2e" x="63.623047"/>
       <use xlink:href="#DejaVuSans-38" x="95.410156"/>
      </g>
     </g>
    </g>
    <g id="xtick_5">
     <g id="line2d_9">
      <path d="M 263.08 299.32 
L 263.08 32.64 
" clip-path="url(#p0a27c4f3a9)" style="fill: none; stroke: #b0b0b0; stroke-width: 0.8; stroke-linecap: square"/>
     </g>
     <g id="line2d_10">
      <g>
       <use xlink:href="#m1d58d3d543" x="263.08" y="299.32" style="stroke: #000000; stroke-width: 0.8"/>
      </g>
     </g>
     <g id="text_5">
      <!-- 1.0 -->
      <g transform="translate(253.538125 315.438125) scale(0.12 -0.12)">
       <defs>
        <path id="DejaVuSans-31" d="M 794 531 
L 1825 531 
L 1825 4091 
L 703 3866 
L 703 4441 
L 1819 4666 
L 2450 4666 
L 2450 531 
L 3481 531 
L 3481 0 
L 794 0 
L 794 531 
z
" transform="scale(0.015625)"/>
       </defs>
       <use xlink:href="#DejaVuSans-31"/>
       <use xlink:href="#DejaVuSans-2e" x="63.623047"/>
       <use xlink:href="#DejaVuSans-30" x="95.410156"/>
      </g>
     </g>
    </g>
    <g id="xtick_6">
     <g id="line2d_11">
      <path d="M 305.561818 299.32 
L 305.561818 32.64 
" clip-path="url(#p0a27c4f3a9)" style="fill: none; stroke: #b0b0b0; stroke-width: 0.8; stroke-linecap: square"/>
     </g>
     <g id="line2d_12">
      <g>
       <use xlink:href="#m1d58d3d543" x="305.561818" y="299.32" style="stroke: #000000; stroke-width: 0.8"/>
      </g>
     </g>
     <g id="text_6">
      <!-- 1.2 -->
      <g transform="translate(296.019943 315.438125) scale(0.12 -0.12)">
       <use xlink:href="#DejaVuSans-31"/>
       <use xlink:href="#DejaVuSans-2e" x="63.623047"/>
       <use xlink:href="#DejaVuSans-32" x="95.410156"/>
      </g>
     </g>
    </g>
    <g id="xtick_7">
     <g id="line2d_13">
      <path d="M 348.043636 299.32 
L 348.043636 32.64 
" clip-path="url(#p0a27c4f3a9)" style="fill: none; stroke: #b0b0b0; stroke-width: 0.8; stroke-linecap: square"/>
     </g>
     <g id="line2d_14">
      <g>
       <use xlink:href="#m1d58d3d543" x="348.043636" y="299.32" style="stroke: #000000; stroke-width: 0.8"/>
      </g>
     </g>
     <g id="text_7">
      <!-- 1.4 -->
      <g transform="translate(338.501761 315.438125) scale(0.12 -0.12)">
       <use xlink:href="#DejaVuSans-31"/>
       <use xlink:href="#DejaVuSans-2e" x="63.623047"/>
       <use xlink:href="#DejaVuSans-34" x="95.410156"/>
      </g>
     </g>
    </g>
    <g id="xtick_8">
     <g id="line2d_15">
      <path d="M 390.525455 299.32 
L 390.525455 32.64 
" clip-path="url(#p0a27c4f3a9)" style="fill: none; stroke: #b0b0b0; stroke-width: 0.8; stroke-linecap: square"/>
     </g>
     <g id="line2d_16">
      <g>
       <use xlink:href="#m1d58d3d543" x="390.525455" y="299.32" style="stroke: #000000; stroke-width: 0.8"/>
      </g>
     </g>
     <g id="text_8">
      <!-- 1.6 -->
      <g transform="translate(380.98358 315.438125) scale(0.12 -0.12)">
       <use xlink:href="#DejaVuSans-31"/>
       <use xlink:href="#DejaVuSans-2e" x="63.623047"/>
       <use xlink:href="#DejaVuSans-36" x="95.410156"/>
      </g>
     </g>
    </g>
    <g id="xtick_9">
     <g id="line2d_17">
      <path d="M 433.007273 299.32 
L 433.007273 32.64 
" clip-path="url(#p0a27c4f3a9)" style="fill: none; stroke: #b0b0b0; stroke-width: 0.8; stroke-linecap: square"/>
     </g>
     <g id="line2d_18">
      <g>
       <use xlink:href="#m1d58d3d543" x="433.007273" y="299.32" style="stroke: #000000; stroke-width: 0.8"/>
      </g>
     </g>
     <g id="text_9">
      <!-- 1.8 -->
      <g transform="translate(423.465398 315.438125) scale(0.12 -0.12)">
       <use xlink:href="#DejaVuSans-31"/>
       <use xlink:href="#DejaVuSans-2e" x="63.623047"/>
       <use xlink:href="#DejaVuSans-38" x="95.410156"/>
      </g>
     </g>
    </g>
    <g id="text_10">
     <!-- Pendulum length (m) -->
     <g transform="translate(189.2475 332.571562) scale(0.14 -0.14)">
      <defs>
       <path id="DejaVuSans-50" d="M 1259 4147 
L 1259 2394 
L 2053 2394 
Q 2494 2394 2734 2622 
Q 2975 2850 2975 3272 
Q 2975 3691 2734 3919 
Q 2494 4147 2053 4147 
L 1259 4147 
z
M 628 4666 
L 2053 4666 
Q 2838 4666 3239 4311 
Q 3641 3956 3641 3272 
Q 3641 2581 3239 2228 
Q 2838 1875 2053 1875 
L 1259 1875 
L 1259 0 
L 628 0 
L 628 4666 
z
" transform="scale(0.015625)"/>
       <path id="DejaVuSans-65" d="M 3597 1894 
L 3597 1613 
L 953 1613 
Q 991 1019 1311 708 
Q 1631 397 2203 397 
Q 2534 397 2845 478 
Q 3156 559 3463 722 
L 3463 178 
Q 3153 47 2828 -22 
Q 2503 -91 2169 -91 
Q 1331 -91 842 396 
Q 353 884 353 1716 
Q 353 2575 817 3079 
Q 1281 3584 2069 3584 
Q 2775 3584 3186 3129 
Q 3597 2675 3597 1894 
z
M 3022 2063 
Q 3016 2534 2758 2815 
Q 2500 3097 2075 3097 
Q 1594 3097 1305 2825 
Q 1016 2553 972 2059 
L 3022 2063 
z
" transform="scale(0.015625)"/>
       <path id="DejaVuSans-6e" d="M 3513 2113 
L 3513 0 
L 2938 0 
L 2938 2094 
Q 2938 2591 2744 2837 
Q 2550 3084 2163 3084 
Q 1697 3084 1428 2787 
Q 1159 2491 1159 1978 
L 1159 0 
L 581 0 
L 581 3500 
L 1159 3500 
L 1159 2956 
Q 1366 3272 1645 3428 
Q 1925 3584 2291 3584 
Q 2894 3584 3203 3211 
Q 3513 2838 3513 2113 
z
" transform="scale(0.015625)"/>
       <path id="DejaVuSans-64" d="M 2906 2969 
L 2906 4863 
L 3481 4863 
L 3481 0 
L 2906 0 
L 2906 525 
Q 2725 213 2448 61 
Q 2172 -91 1784 -91 
Q 1150 -91 751 415 
Q 353 922 353 1747 
Q 353 2572 751 3078 
Q 1150 3584 1784 3584 
Q 2172 3584 2448 3432 
Q 2725 3281 2906 2969 
z
M 947 1747 
Q 947 1113 1208 752 
Q 1469 391 1925 391 
Q 2381 391 2643 752 
Q 2906 1113 2906 1747 
Q 2906 2381 2643 2742 
Q 2381 3103 1925 3103 
Q 1469 3103 1208 2742 
Q 947 2381 947 1747 
z
" transform="scale(0.015625)"/>
       <path id="DejaVuSans-75" d="M 544 1381 
L 544 3500 
L 1119 3500 
L 1119 1403 
Q 1119 906 1312 657 
Q 1506 409 1894 409 
Q 2359 409 2629 706 
Q 2900 1003 2900 1516 
L 2900 3500 
L 3475 3500 
L 3475 0 
L 2900 0 
L 2900 538 
Q 2691 219 2414 64 
Q 2138 -91 1772 -91 
Q 1169 -91 856 284 
Q 544 659 544 1381 
z
M 1991 3584 
L 1991 3584 
z
" transform="scale(0.015625)"/>
       <path id="DejaVuSans-6c" d="M 603 4863 
L 1178 4863 
L 1178 0 
L 603 0 
L 603 4863 
z
" transform="scale(0.015625)"/>
       <path id="DejaVuSans-6d" d="M 3328 2828 
Q 3544 3216 3844 3400 
Q 4144 3584 4550 3584 
Q 5097 3584 5394 3201 
Q 5691 2819 5691 2113 
L 5691 0 
L 5113 0 
L 5113 2094 
Q 5113 2597 4934 2840 
Q 4756 3084 4391 3084 
Q 3944 3084 3684 2787 
Q 3425 2491 3425 1978 
L 3425 0 
L 2847 0 
L 2847 2094 
Q 2847 2600 2669 2842 
Q 2491 3084 2119 3084 
Q 1678 3084 1418 2786 
Q 1159 2488 1159 1978 
L 1159 0 
L 581 0 
L 581 3500 
L 1159 3500 
L 1159 2956 
Q 1356 3278 1631 3431 
Q 1906 3584 2284 3584 
Q 2666 3584 2933 3390 
Q 3200 3197 3328 2828 
z
" transform="scale(0.015625)"/>
       <path id="DejaVuSans-20" transform="scale(0.015625)"/>
       <path id="DejaVuSans-67" d="M 2906 1791 
Q 2906 2416 2648 2759 
Q 2391 3103 1925 3103 
Q 1463 3103 1205 2759 
Q 947 2416 947 1791 
Q 947 1169 1205 825 
Q 1463 481 1925 481 
Q 2391 481 2648 825 
Q 2906 1169 2906 1791 
z
M 3481 434 
Q 3481 -459 3084 -895 
Q 2688 -1331 1869 -1331 
Q 1566 -1331 1297 -1286 
Q 1028 -1241 775 -1147 
L 775 -588 
Q 1028 -725 1275 -790 
Q 1522 -856 1778 -856 
Q 2344 -856 2625 -561 
Q 2906 -266 2906 331 
L 2906 616 
Q 2728 306 2450 153 
Q 2172 0 1784 0 
Q 1141 0 747 490 
Q 353 981 353 1791 
Q 353 2603 747 3093 
Q 1141 3584 1784 3584 
Q 2172 3584 2450 3431 
Q 2728 3278 2906 2969 
L 2906 3500 
L 3481 3500 
L 3481 434 
z
" transform="scale(0.015625)"/>
       <path id="DejaVuSans-74" d="M 1172 4494 
L 1172 3500 
L 2356 3500 
L 2356 3053 
L 1172 3053 
L 1172 1153 
Q 1172 725 1289 603 
Q 1406 481 1766 481 
L 2356 481 
L 2356 0 
L 1766 0 
Q 1100 0 847 248 
Q 594 497 594 1153 
L 594 3053 
L 172 3053 
L 172 3500 
L 594 3500 
L 594 4494 
L 1172 4494 
z
" transform="scale(0.015625)"/>
       <path id="DejaVuSans-68" d="M 3513 2113 
L 3513 0 
L 2938 0 
L 2938 2094 
Q 2938 2591 2744 2837 
Q 2550 3084 2163 3084 
Q 1697 3084 1428 2787 
Q 1159 2491 1159 1978 
L 1159 0 
L 581 0 
L 581 4863 
L 1159 4863 
L 1159 2956 
Q 1366 3272 1645 3428 
Q 1925 3584 2291 3584 
Q 2894 3584 3203 3211 
Q 3513 2838 3513 2113 
z
" transform="scale(0.015625)"/>
       <path id="DejaVuSans-28" d="M 1984 4856 
Q 1566 4138 1362 3434 
Q 1159 2731 1159 2009 
Q 1159 1288 1364 580 
Q 1569 -128 1984 -844 
L 1484 -844 
Q 1016 -109 783 600 
Q 550 1309 550 2009 
Q 550 2706 781 3412 
Q 1013 4119 1484 4856 
L 1984 4856 
z
" transform="scale(0.015625)"/>
       <path id="DejaVuSans-29" d="M 513 4856 
L 1013 4856 
Q 1481 4119 1714 3412 
Q 1947 2706 1947 2009 
Q 1947 1309 1714 600 
Q 1481 -109 1013 -844 
L 513 -844 
Q 928 -128 1133 580 
Q 1338 1288 1338 2009 
Q 1338 2731 1133 3434 
Q 928 4138 513 4856 
z
" transform="scale(0.015625)"/>
      </defs>
      <use xlink:href="#DejaVuSans-50"/>
      <use xlink:href="#DejaVuSans-65" x="56.677734"/>
      <use xlink:href="#DejaVuSans-6e" x="118.201172"/>
      <use xlink:href="#DejaVuSans-64" x="181.580078"/>
      <use xlink:href="#DejaVuSans-75" x="245.056641"/>
      <use xlink:href="#DejaVuSans-6c" x="308.435547"/>
      <use xlink:href="#DejaVuSans-75" x="336.21875"/>
      <use xlink:href="#DejaVuSans-6d" x="399.597656"/>
      <use xlink:href="#DejaVuSans-20" x="497.009766"/>
      <use xlink:href="#DejaVuSans-6c" x="528.796875"/>
      <use xlink:href="#DejaVuSans-65" x="556.580078"/>
      <use xlink:href="#DejaVuSans-6e" x="618.103516"/>
      <use xlink:href="#DejaVuSans-67" x="681.482422"/>
      <use xlink:href="#DejaVuSans-74" x="744.958984"/>
      <use xlink:href="#DejaVuSans-68" x="784.167969"/>
      <use xlink:href="#DejaVuSans-20" x="847.546875"/>
      <use xlink:href="#DejaVuSans-28" x="879.333984"/>
      <use xlink:href="#DejaVuSans-6d" x="918.347656"/>
      <use xlink:href="#DejaVuSans-29" x="1015.759766"/>
     </g>
    </g>
   </g>
   <g id="matplotlib.axis_2">
    <g id="ytick_1">
     <g id="line2d_19">
      <path d="M 76.16 299.308127 
L 450 299.308127 
" clip-path="url(#p0a27c4f3a9)" style="fill: none; stroke: #b0b0b0; stroke-width: 0.8; stroke-linecap: square"/>
     </g>
     <g id="line2d_20">
      <defs>
       <path id="m8fa71cf13d" d="M 0 0 
L -3.5 0 
" style="stroke: #000000; stroke-width: 0.8"/>
      </defs>
      <g>
       <use xlink:href="#m8fa71cf13d" x="76.16" y="299.308127" style="stroke: #000000; stroke-width: 0.8"/>
      </g>
     </g>
     <g id="text_11">
      <!-- −1000 -->
      <g transform="translate(28.564375 303.86719) scale(0.12 -0.12)">
       <defs>
        <path id="DejaVuSans-2212" d="M 678 2272 
L 4684 2272 
L 4684 1741 
L 678 1741 
L 678 2272 
z
" transform="scale(0.015625)"/>
       </defs>
       <use xlink:href="#DejaVuSans-2212"/>
       <use xlink:href="#DejaVuSans-31" x="83.789062"/>
       <use xlink:href="#DejaVuSans-30" x="147.412109"/>
       <use xlink:href="#DejaVuSans-30" x="211.035156"/>
       <use xlink:href="#DejaVuSans-30" x="274.658203"/>
      </g>
     </g>
    </g>
    <g id="ytick_2">
     <g id="line2d_21">
      <path d="M 76.16 254.219172 
L 450 254.219172 
" clip-path="url(#p0a27c4f3a9)" style="fill: none; stroke: #b0b0b0; stroke-width: 0.8; stroke-linecap: square"/>
     </g>
     <g id="line2d_22">
      <g>
       <use xlink:href="#m8fa71cf13d" x="76.16" y="254.219172" style="stroke: #000000; stroke-width: 0.8"/>
      </g>
     </g>
     <g id="text_12">
      <!-- −800 -->
      <g transform="translate(36.199375 258.778234) scale(0.12 -0.12)">
       <use xlink:href="#DejaVuSans-2212"/>
       <use xlink:href="#DejaVuSans-38" x="83.789062"/>
       <use xlink:href="#DejaVuSans-30" x="147.412109"/>
       <use xlink:href="#DejaVuSans-30" x="211.035156"/>
      </g>
     </g>
    </g>
    <g id="ytick_3">
     <g id="line2d_23">
      <path d="M 76.16 209.130216 
L 450 209.130216 
" clip-path="url(#p0a27c4f3a9)" style="fill: none; stroke: #b0b0b0; stroke-width: 0.8; stroke-linecap: square"/>
     </g>
     <g id="line2d_24">
      <g>
       <use xlink:href="#m8fa71cf13d" x="76.16" y="209.130216" style="stroke: #000000; stroke-width: 0.8"/>
      </g>
     </g>
     <g id="text_13">
      <!-- −600 -->
      <g transform="translate(36.199375 213.689278) scale(0.12 -0.12)">
       <use xlink:href="#DejaVuSans-2212"/>
       <use xlink:href="#DejaVuSans-36" x="83.789062"/>
       <use xlink:href="#DejaVuSans-30" x="147.412109"/>
       <use xlink:href="#DejaVuSans-30" x="211.035156"/>
      </g>
     </g>
    </g>
    <g id="ytick_4">
     <g id="line2d_25">
      <path d="M 76.16 164.04126 
L 450 164.04126 
" clip-path="url(#p0a27c4f3a9)" style="fill: none; stroke: #b0b0b0; stroke-width: 0.8; stroke-linecap: square"/>
     </g>
     <g id="line2d_26">
      <g>
       <use xlink:href="#m8fa71cf13d" x="76.16" y="164.04126" style="stroke: #000000; stroke-width: 0.8"/>
      </g>
     </g>
     <g id="text_14">
      <!-- −400 -->
      <g transform="translate(36.199375 168.600322) scale(0.12 -0.12)">
       <use xlink:href="#DejaVuSans-2212"/>
       <use xlink:href="#DejaVuSans-34" x="83.789062"/>
       <use xlink:href="#DejaVuSans-30" x="147.412109"/>
       <use xlink:href="#DejaVuSans-30" x="211.035156"/>
      </g>
     </g>
    </g>
    <g id="ytick_5">
     <g id="line2d_27">
      <path d="M 76.16 118.952304 
L 450 118.952304 
" clip-path="url(#p0a27c4f3a9)" style="fill: none; stroke: #b0b0b0; stroke-width: 0.8; stroke-linecap: square"/>
     </g>
     <g id="line2d_28">
      <g>
       <use xlink:href="#m8fa71cf13d" x="76.16" y="118.952304" style="stroke: #000000; stroke-width: 0.8"/>
      </g>
     </g>
     <g id="text_15">
      <!-- −200 -->
      <g transform="translate(36.199375 123.511367) scale(0.12 -0.12)">
       <use xlink:href="#DejaVuSans-2212"/>
       <use xlink:href="#DejaVuSans-32" x="83.789062"/>
       <use xlink:href="#DejaVuSans-30" x="147.412109"/>
       <use xlink:href="#DejaVuSans-30" x="211.035156"/>
      </g>
     </g>
    </g>
    <g id="ytick_6">
     <g id="line2d_29">
      <path d="M 76.16 73.863348 
L 450 73.863348 
" clip-path="url(#p0a27c4f3a9)" style="fill: none; stroke: #b0b0b0; stroke-width: 0.8; stroke-linecap: square"/>
     </g>
     <g id="line2d_30">
      <g>
       <use xlink:href="#m8fa71cf13d" x="76.16" y="73.863348" style="stroke: #000000; stroke-width: 0.8"/>
      </g>
     </g>
     <g id="text_16">
      <!-- 0 -->
      <g transform="translate(61.525 78.422411) scale(0.12 -0.12)">
       <use xlink:href="#DejaVuSans-30"/>
      </g>
     </g>
    </g>
    <g id="text_17">
     <!-- Reward -->
     <g transform="translate(21.652813 192.049531) rotate(-90) scale(0.14 -0.14)">
      <defs>
       <path id="DejaVuSans-52" d="M 2841 2188 
Q 3044 2119 3236 1894 
Q 3428 1669 3622 1275 
L 4263 0 
L 3584 0 
L 2988 1197 
Q 2756 1666 2539 1819 
Q 2322 1972 1947 1972 
L 1259 1972 
L 1259 0 
L 628 0 
L 628 4666 
L 2053 4666 
Q 2853 4666 3247 4331 
Q 3641 3997 3641 3322 
Q 3641 2881 3436 2590 
Q 3231 2300 2841 2188 
z
M 1259 4147 
L 1259 2491 
L 2053 2491 
Q 2509 2491 2742 2702 
Q 2975 2913 2975 3322 
Q 2975 3731 2742 3939 
Q 2509 4147 2053 4147 
L 1259 4147 
z
" transform="scale(0.015625)"/>
       <path id="DejaVuSans-77" d="M 269 3500 
L 844 3500 
L 1563 769 
L 2278 3500 
L 2956 3500 
L 3675 769 
L 4391 3500 
L 4966 3500 
L 4050 0 
L 3372 0 
L 2619 2869 
L 1863 0 
L 1184 0 
L 269 3500 
z
" transform="scale(0.015625)"/>
       <path id="DejaVuSans-61" d="M 2194 1759 
Q 1497 1759 1228 1600 
Q 959 1441 959 1056 
Q 959 750 1161 570 
Q 1363 391 1709 391 
Q 2188 391 2477 730 
Q 2766 1069 2766 1631 
L 2766 1759 
L 2194 1759 
z
M 3341 1997 
L 3341 0 
L 2766 0 
L 2766 531 
Q 2569 213 2275 61 
Q 1981 -91 1556 -91 
Q 1019 -91 701 211 
Q 384 513 384 1019 
Q 384 1609 779 1909 
Q 1175 2209 1959 2209 
L 2766 2209 
L 2766 2266 
Q 2766 2663 2505 2880 
Q 2244 3097 1772 3097 
Q 1472 3097 1187 3025 
Q 903 2953 641 2809 
L 641 3341 
Q 956 3463 1253 3523 
Q 1550 3584 1831 3584 
Q 2591 3584 2966 3190 
Q 3341 2797 3341 1997 
z
" transform="scale(0.015625)"/>
       <path id="DejaVuSans-72" d="M 2631 2963 
Q 2534 3019 2420 3045 
Q 2306 3072 2169 3072 
Q 1681 3072 1420 2755 
Q 1159 2438 1159 1844 
L 1159 0 
L 581 0 
L 581 3500 
L 1159 3500 
L 1159 2956 
Q 1341 3275 1631 3429 
Q 1922 3584 2338 3584 
Q 2397 3584 2469 3576 
Q 2541 3569 2628 3553 
L 2631 2963 
z
" transform="scale(0.015625)"/>
      </defs>
      <use xlink:href="#DejaVuSans-52"/>
      <use xlink:href="#DejaVuSans-65" x="64.982422"/>
      <use xlink:href="#DejaVuSans-77" x="126.505859"/>
      <use xlink:href="#DejaVuSans-61" x="208.292969"/>
      <use xlink:href="#DejaVuSans-72" x="269.572266"/>
      <use xlink:href="#DejaVuSans-64" x="308.935547"/>
     </g>
    </g>
   </g>
   <g id="line2d_31">
    <path d="M 93.152727 84.91276 
L 96.585601 120.266286 
L 100.018476 138.410481 
L 103.45135 139.528723 
L 106.884224 141.401671 
L 110.317098 140.721451 
L 113.749972 121.599445 
L 117.182847 120.091845 
L 120.615721 130.871129 
L 124.048595 111.586557 
L 127.481469 117.104799 
L 130.914343 110.296837 
L 134.347218 110.289066 
L 137.780092 110.088158 
L 141.212966 109.72136 
L 144.64584 109.758129 
L 148.078714 109.419569 
L 151.511589 109.322032 
L 154.944463 109.375322 
L 158.377337 109.013129 
L 161.810211 108.956946 
L 165.243085 108.820074 
L 168.67596 114.561836 
L 172.108834 114.482201 
L 175.541708 114.39411 
L 178.974582 114.457515 
L 182.407456 119.858475 
L 185.840331 114.151165 
L 189.273205 131.635282 
L 192.706079 137.229267 
L 196.138953 119.613223 
L 199.571827 119.580345 
L 203.004702 125.350238 
L 206.437576 119.408425 
L 209.87045 125.204907 
L 213.303324 119.344324 
L 216.736198 124.991849 
L 220.169073 124.85003 
L 223.601947 130.514814 
L 227.034821 130.479574 
L 230.467695 130.370648 
L 233.900569 130.410948 
L 237.333444 135.980778 
L 240.766318 130.211658 
L 244.199192 158.475682 
L 247.632066 135.774816 
L 251.06494 135.821834 
L 254.497815 141.463043 
L 257.930689 135.675685 
L 261.363563 146.99376 
L 264.796437 135.691753 
L 268.229311 141.210041 
L 271.662185 146.843598 
L 275.09506 158.265071 
L 278.527934 152.443723 
L 281.960808 152.301403 
L 285.393682 185.504167 
L 288.826556 178.298889 
L 292.259431 163.537427 
L 295.692305 163.386302 
L 299.125179 157.701554 
L 302.558053 163.392719 
L 305.990927 180.130032 
L 309.423802 168.813169 
L 312.856676 163.197319 
L 316.28955 163.076334 
L 319.722424 174.452132 
L 323.155298 185.779776 
L 326.588173 185.698922 
L 330.021047 191.036742 
L 333.453921 174.194517 
L 336.886795 189.049794 
L 340.319669 191.73514 
L 343.752544 185.352873 
L 347.185418 197.569121 
L 350.618292 179.512362 
L 354.051166 185.251761 
L 357.48404 196.588097 
L 360.916915 184.924085 
L 364.349789 190.684217 
L 367.782663 206.765587 
L 371.215537 196.368487 
L 374.648411 195.853612 
L 378.081286 201.696484 
L 381.51416 190.412084 
L 384.947034 195.844746 
L 388.379908 195.887145 
L 391.812782 201.244524 
L 395.245657 190.12468 
L 398.678531 212.828009 
L 402.111405 201.490136 
L 405.544279 212.805229 
L 408.977153 223.277225 
L 412.410028 207.006341 
L 415.842902 218.467307 
L 419.275776 212.753505 
L 422.70865 223.169697 
L 426.141524 214.570121 
L 429.574399 219.541072 
L 433.007273 224.477399 
" clip-path="url(#p0a27c4f3a9)" style="fill: none; stroke: #1f77b4; stroke-width: 1.5; stroke-linecap: square"/>
   </g>
   <g id="line2d_32">
    <path d="M 93.152727 113.414263 
L 96.585601 113.738782 
L 100.018476 113.417517 
L 103.45135 113.902025 
L 106.884224 114.237048 
L 110.317098 117.752636 
L 113.749972 114.071473 
L 117.182847 118.094716 
L 120.615721 114.2845 
L 124.048595 114.711632 
L 127.481469 115.363129 
L 130.914343 116.654913 
L 134.347218 119.65741 
L 137.780092 125.896942 
L 141.212966 126.550842 
L 144.64584 122.520119 
L 148.078714 121.711978 
L 151.511589 127.499034 
L 154.944463 127.151141 
L 158.377337 126.559687 
L 161.810211 126.364725 
L 165.243085 126.246152 
L 168.67596 126.557383 
L 172.108834 126.413537 
L 175.541708 126.251881 
L 178.974582 131.481263 
L 182.407456 128.990954 
L 185.840331 130.891044 
L 189.273205 129.939351 
L 192.706079 126.537026 
L 196.138953 126.558917 
L 199.571827 126.389725 
L 203.004702 130.840088 
L 206.437576 130.253937 
L 209.87045 127.877556 
L 213.303324 126.059258 
L 216.736198 126.363239 
L 220.169073 126.004126 
L 223.601947 125.842639 
L 227.034821 125.931656 
L 230.467695 125.999709 
L 233.900569 126.058956 
L 237.333444 126.031783 
L 240.766318 131.710339 
L 244.199192 137.14382 
L 247.632066 131.60133 
L 251.06494 132.833482 
L 254.497815 131.568623 
L 257.930689 132.785584 
L 261.363563 148.688803 
L 264.796437 132.53998 
L 268.229311 137.248922 
L 271.662185 149.168933 
L 275.09506 154.38414 
L 278.527934 149.532033 
L 281.960808 159.694242 
L 285.393682 166.449829 
L 288.826556 153.713808 
L 292.259431 160.058375 
L 295.692305 147.238082 
L 299.125179 163.45663 
L 302.558053 165.76085 
L 305.990927 160.021263 
L 309.423802 164.743024 
L 312.856676 174.467105 
L 316.28955 160.020736 
L 319.722424 164.599642 
L 323.155298 165.02255 
L 326.588173 198.164912 
L 330.021047 175.182061 
L 333.453921 160.019377 
L 336.886795 176.247735 
L 340.319669 175.805147 
L 343.752544 194.212073 
L 347.185418 190.807117 
L 350.618292 185.14375 
L 354.051166 183.985633 
L 357.48404 204.008783 
L 360.916915 183.309758 
L 364.349789 193.806651 
L 367.782663 195.309278 
L 371.215537 196.882845 
L 374.648411 195.40481 
L 378.081286 191.211493 
L 381.51416 200.18982 
L 384.947034 213.054095 
L 388.379908 202.845604 
L 391.812782 216.036602 
L 395.245657 213.879439 
L 398.678531 208.846599 
L 402.111405 192.717752 
L 405.544279 206.952222 
L 408.977153 218.669499 
L 412.410028 210.809034 
L 415.842902 202.881693 
L 419.275776 208.638972 
L 422.70865 189.867274 
L 426.141524 208.422545 
L 429.574399 214.91081 
L 433.007273 219.135886 
" clip-path="url(#p0a27c4f3a9)" style="fill: none; stroke: #ff7f0e; stroke-width: 1.5; stroke-linecap: square"/>
   </g>
   <g id="line2d_33">
    <path d="M 93.152727 97.892391 
L 96.585601 97.624908 
L 100.018476 97.320294 
L 103.45135 97.24123 
L 106.884224 96.782056 
L 110.317098 96.616955 
L 113.749972 96.391165 
L 117.182847 96.285655 
L 120.615721 96.125327 
L 124.048595 96.053902 
L 127.481469 95.933046 
L 130.914343 96.018761 
L 134.347218 95.995503 
L 137.780092 95.858154 
L 141.212966 95.823699 
L 144.64584 95.94731 
L 148.078714 95.955898 
L 151.511589 95.944529 
L 154.944463 96.594651 
L 158.377337 96.042174 
L 161.810211 96.090366 
L 165.243085 101.832505 
L 168.67596 101.786833 
L 172.108834 101.542215 
L 175.541708 101.510681 
L 178.974582 101.573014 
L 182.407456 101.505382 
L 185.840331 101.533494 
L 189.273205 101.518106 
L 192.706079 101.536634 
L 196.138953 101.441854 
L 199.571827 101.460399 
L 203.004702 101.481183 
L 206.437576 101.44456 
L 209.87045 101.474598 
L 213.303324 101.593523 
L 216.736198 101.524747 
L 220.169073 101.470844 
L 223.601947 101.513949 
L 227.034821 101.550709 
L 230.467695 101.583531 
L 233.900569 101.621534 
L 237.333444 101.652203 
L 240.766318 101.552227 
L 244.199192 101.641591 
L 247.632066 101.602783 
L 251.06494 101.656097 
L 254.497815 101.662907 
L 257.930689 101.715148 
L 261.363563 101.67074 
L 264.796437 101.676152 
L 268.229311 101.764229 
L 271.662185 101.737546 
L 275.09506 101.822149 
L 278.527934 107.498455 
L 281.960808 107.476508 
L 285.393682 107.411788 
L 288.826556 107.354125 
L 292.259431 107.300068 
L 295.692305 107.32482 
L 299.125179 107.120394 
L 302.558053 107.090158 
L 305.990927 106.980472 
L 309.423802 107.006014 
L 312.856676 106.945234 
L 316.28955 106.961114 
L 319.722424 106.945754 
L 323.155298 112.552788 
L 326.588173 112.520009 
L 330.021047 112.569201 
L 333.453921 112.452892 
L 336.886795 112.432844 
L 340.319669 112.509858 
L 343.752544 112.4397 
L 347.185418 112.3693 
L 350.618292 112.407798 
L 354.051166 112.512549 
L 357.48404 112.438024 
L 360.916915 112.389983 
L 364.349789 112.509048 
L 367.782663 118.017455 
L 371.215537 117.976977 
L 374.648411 117.940468 
L 378.081286 117.993709 
L 381.51416 117.888182 
L 384.947034 117.928677 
L 388.379908 117.788723 
L 391.812782 117.817845 
L 395.245657 117.705707 
L 398.678531 117.688987 
L 402.111405 117.727353 
L 405.544279 117.710845 
L 408.977153 117.728582 
L 412.410028 117.76702 
L 415.842902 117.690793 
L 419.275776 123.387981 
L 422.70865 134.442356 
L 426.141524 128.733259 
L 429.574399 145.994396 
L 433.007273 128.744371 
" clip-path="url(#p0a27c4f3a9)" style="fill: none; stroke: #2ca02c; stroke-width: 1.5; stroke-linecap: square"/>
   </g>
   <g id="patch_3">
    <path d="M 76.16 299.32 
L 76.16 32.64 
" style="fill: none; stroke: #000000; stroke-width: 0.8; stroke-linejoin: miter; stroke-linecap: square"/>
   </g>
   <g id="patch_4">
    <path d="M 450 299.32 
L 450 32.64 
" style="fill: none; stroke: #000000; stroke-width: 0.8; stroke-linejoin: miter; stroke-linecap: square"/>
   </g>
   <g id="patch_5">
    <path d="M 76.16 299.32 
L 450 299.32 
" style="fill: none; stroke: #000000; stroke-width: 0.8; stroke-linejoin: miter; stroke-linecap: square"/>
   </g>
   <g id="patch_6">
    <path d="M 76.16 32.64 
L 450 32.64 
" style="fill: none; stroke: #000000; stroke-width: 0.8; stroke-linejoin: miter; stroke-linecap: square"/>
   </g>
   <g id="text_18">
    <!-- Pendulum Length Robustness Comparison -->
    <g transform="translate(24.612812 26.64) scale(0.2 -0.2)">
     <defs>
      <path id="DejaVuSans-Bold-50" d="M 588 4666 
L 2584 4666 
Q 3475 4666 3951 4270 
Q 4428 3875 4428 3144 
Q 4428 2409 3951 2014 
Q 3475 1619 2584 1619 
L 1791 1619 
L 1791 0 
L 588 0 
L 588 4666 
z
M 1791 3794 
L 1791 2491 
L 2456 2491 
Q 2806 2491 2997 2661 
Q 3188 2831 3188 3144 
Q 3188 3456 2997 3625 
Q 2806 3794 2456 3794 
L 1791 3794 
z
" transform="scale(0.015625)"/>
      <path id="DejaVuSans-Bold-65" d="M 4031 1759 
L 4031 1441 
L 1416 1441 
Q 1456 1047 1700 850 
Q 1944 653 2381 653 
Q 2734 653 3104 758 
Q 3475 863 3866 1075 
L 3866 213 
Q 3469 63 3072 -14 
Q 2675 -91 2278 -91 
Q 1328 -91 801 392 
Q 275 875 275 1747 
Q 275 2603 792 3093 
Q 1309 3584 2216 3584 
Q 3041 3584 3536 3087 
Q 4031 2591 4031 1759 
z
M 2881 2131 
Q 2881 2450 2695 2645 
Q 2509 2841 2209 2841 
Q 1884 2841 1681 2658 
Q 1478 2475 1428 2131 
L 2881 2131 
z
" transform="scale(0.015625)"/>
      <path id="DejaVuSans-Bold-6e" d="M 4056 2131 
L 4056 0 
L 2931 0 
L 2931 347 
L 2931 1631 
Q 2931 2084 2911 2256 
Q 2891 2428 2841 2509 
Q 2775 2619 2662 2680 
Q 2550 2741 2406 2741 
Q 2056 2741 1856 2470 
Q 1656 2200 1656 1722 
L 1656 0 
L 538 0 
L 538 3500 
L 1656 3500 
L 1656 2988 
Q 1909 3294 2193 3439 
Q 2478 3584 2822 3584 
Q 3428 3584 3742 3212 
Q 4056 2841 4056 2131 
z
" transform="scale(0.015625)"/>
      <path id="DejaVuSans-Bold-64" d="M 2919 2988 
L 2919 4863 
L 4044 4863 
L 4044 0 
L 2919 0 
L 2919 506 
Q 2688 197 2409 53 
Q 2131 -91 1766 -91 
Q 1119 -91 703 423 
Q 288 938 288 1747 
Q 288 2556 703 3070 
Q 1119 3584 1766 3584 
Q 2128 3584 2408 3439 
Q 2688 3294 2919 2988 
z
M 2181 722 
Q 2541 722 2730 984 
Q 2919 1247 2919 1747 
Q 2919 2247 2730 2509 
Q 2541 2772 2181 2772 
Q 1825 2772 1636 2509 
Q 1447 2247 1447 1747 
Q 1447 1247 1636 984 
Q 1825 722 2181 722 
z
" transform="scale(0.015625)"/>
      <path id="DejaVuSans-Bold-75" d="M 500 1363 
L 500 3500 
L 1625 3500 
L 1625 3150 
Q 1625 2866 1622 2436 
Q 1619 2006 1619 1863 
Q 1619 1441 1641 1255 
Q 1663 1069 1716 984 
Q 1784 875 1895 815 
Q 2006 756 2150 756 
Q 2500 756 2700 1025 
Q 2900 1294 2900 1772 
L 2900 3500 
L 4019 3500 
L 4019 0 
L 2900 0 
L 2900 506 
Q 2647 200 2364 54 
Q 2081 -91 1741 -91 
Q 1134 -91 817 281 
Q 500 653 500 1363 
z
" transform="scale(0.015625)"/>
      <path id="DejaVuSans-Bold-6c" d="M 538 4863 
L 1656 4863 
L 1656 0 
L 538 0 
L 538 4863 
z
" transform="scale(0.015625)"/>
      <path id="DejaVuSans-Bold-6d" d="M 3781 2919 
Q 3994 3244 4286 3414 
Q 4578 3584 4928 3584 
Q 5531 3584 5847 3212 
Q 6163 2841 6163 2131 
L 6163 0 
L 5038 0 
L 5038 1825 
Q 5041 1866 5042 1909 
Q 5044 1953 5044 2034 
Q 5044 2406 4934 2573 
Q 4825 2741 4581 2741 
Q 4263 2741 4089 2478 
Q 3916 2216 3909 1719 
L 3909 0 
L 2784 0 
L 2784 1825 
Q 2784 2406 2684 2573 
Q 2584 2741 2328 2741 
Q 2006 2741 1831 2477 
Q 1656 2213 1656 1722 
L 1656 0 
L 531 0 
L 531 3500 
L 1656 3500 
L 1656 2988 
Q 1863 3284 2130 3434 
Q 2397 3584 2719 3584 
Q 3081 3584 3359 3409 
Q 3638 3234 3781 2919 
z
" transform="scale(0.015625)"/>
      <path id="DejaVuSans-Bold-20" transform="scale(0.015625)"/>
      <path id="DejaVuSans-Bold-4c" d="M 588 4666 
L 1791 4666 
L 1791 909 
L 3903 909 
L 3903 0 
L 588 0 
L 588 4666 
z
" transform="scale(0.015625)"/>
      <path id="DejaVuSans-Bold-67" d="M 2919 594 
Q 2688 288 2409 144 
Q 2131 0 1766 0 
Q 1125 0 706 504 
Q 288 1009 288 1791 
Q 288 2575 706 3076 
Q 1125 3578 1766 3578 
Q 2131 3578 2409 3434 
Q 2688 3291 2919 2981 
L 2919 3500 
L 4044 3500 
L 4044 353 
Q 4044 -491 3511 -936 
Q 2978 -1381 1966 -1381 
Q 1638 -1381 1331 -1331 
Q 1025 -1281 716 -1178 
L 716 -306 
Q 1009 -475 1290 -558 
Q 1572 -641 1856 -641 
Q 2406 -641 2662 -400 
Q 2919 -159 2919 353 
L 2919 594 
z
M 2181 2772 
Q 1834 2772 1640 2515 
Q 1447 2259 1447 1791 
Q 1447 1309 1634 1061 
Q 1822 813 2181 813 
Q 2531 813 2725 1069 
Q 2919 1325 2919 1791 
Q 2919 2259 2725 2515 
Q 2531 2772 2181 2772 
z
" transform="scale(0.015625)"/>
      <path id="DejaVuSans-Bold-74" d="M 1759 4494 
L 1759 3500 
L 2913 3500 
L 2913 2700 
L 1759 2700 
L 1759 1216 
Q 1759 972 1856 886 
Q 1953 800 2241 800 
L 2816 800 
L 2816 0 
L 1856 0 
Q 1194 0 917 276 
Q 641 553 641 1216 
L 641 2700 
L 84 2700 
L 84 3500 
L 641 3500 
L 641 4494 
L 1759 4494 
z
" transform="scale(0.015625)"/>
      <path id="DejaVuSans-Bold-68" d="M 4056 2131 
L 4056 0 
L 2931 0 
L 2931 347 
L 2931 1625 
Q 2931 2084 2911 2256 
Q 2891 2428 2841 2509 
Q 2775 2619 2662 2680 
Q 2550 2741 2406 2741 
Q 2056 2741 1856 2470 
Q 1656 2200 1656 1722 
L 1656 0 
L 538 0 
L 538 4863 
L 1656 4863 
L 1656 2988 
Q 1909 3294 2193 3439 
Q 2478 3584 2822 3584 
Q 3428 3584 3742 3212 
Q 4056 2841 4056 2131 
z
" transform="scale(0.015625)"/>
      <path id="DejaVuSans-Bold-52" d="M 2297 2597 
Q 2675 2597 2839 2737 
Q 3003 2878 3003 3200 
Q 3003 3519 2839 3656 
Q 2675 3794 2297 3794 
L 1791 3794 
L 1791 2597 
L 2297 2597 
z
M 1791 1766 
L 1791 0 
L 588 0 
L 588 4666 
L 2425 4666 
Q 3347 4666 3776 4356 
Q 4206 4047 4206 3378 
Q 4206 2916 3982 2619 
Q 3759 2322 3309 2181 
Q 3556 2125 3751 1926 
Q 3947 1728 4147 1325 
L 4800 0 
L 3519 0 
L 2950 1159 
Q 2778 1509 2601 1637 
Q 2425 1766 2131 1766 
L 1791 1766 
z
" transform="scale(0.015625)"/>
      <path id="DejaVuSans-Bold-6f" d="M 2203 2784 
Q 1831 2784 1636 2517 
Q 1441 2250 1441 1747 
Q 1441 1244 1636 976 
Q 1831 709 2203 709 
Q 2569 709 2762 976 
Q 2956 1244 2956 1747 
Q 2956 2250 2762 2517 
Q 2569 2784 2203 2784 
z
M 2203 3584 
Q 3106 3584 3614 3096 
Q 4122 2609 4122 1747 
Q 4122 884 3614 396 
Q 3106 -91 2203 -91 
Q 1297 -91 786 396 
Q 275 884 275 1747 
Q 275 2609 786 3096 
Q 1297 3584 2203 3584 
z
" transform="scale(0.015625)"/>
      <path id="DejaVuSans-Bold-62" d="M 2400 722 
Q 2759 722 2948 984 
Q 3138 1247 3138 1747 
Q 3138 2247 2948 2509 
Q 2759 2772 2400 2772 
Q 2041 2772 1848 2508 
Q 1656 2244 1656 1747 
Q 1656 1250 1848 986 
Q 2041 722 2400 722 
z
M 1656 2988 
Q 1888 3294 2169 3439 
Q 2450 3584 2816 3584 
Q 3463 3584 3878 3070 
Q 4294 2556 4294 1747 
Q 4294 938 3878 423 
Q 3463 -91 2816 -91 
Q 2450 -91 2169 54 
Q 1888 200 1656 506 
L 1656 0 
L 538 0 
L 538 4863 
L 1656 4863 
L 1656 2988 
z
" transform="scale(0.015625)"/>
      <path id="DejaVuSans-Bold-73" d="M 3272 3391 
L 3272 2541 
Q 2913 2691 2578 2766 
Q 2244 2841 1947 2841 
Q 1628 2841 1473 2761 
Q 1319 2681 1319 2516 
Q 1319 2381 1436 2309 
Q 1553 2238 1856 2203 
L 2053 2175 
Q 2913 2066 3209 1816 
Q 3506 1566 3506 1031 
Q 3506 472 3093 190 
Q 2681 -91 1863 -91 
Q 1516 -91 1145 -36 
Q 775 19 384 128 
L 384 978 
Q 719 816 1070 734 
Q 1422 653 1784 653 
Q 2113 653 2278 743 
Q 2444 834 2444 1013 
Q 2444 1163 2330 1236 
Q 2216 1309 1875 1350 
L 1678 1375 
Q 931 1469 631 1722 
Q 331 1975 331 2491 
Q 331 3047 712 3315 
Q 1094 3584 1881 3584 
Q 2191 3584 2531 3537 
Q 2872 3491 3272 3391 
z
" transform="scale(0.015625)"/>
      <path id="DejaVuSans-Bold-43" d="M 4288 256 
Q 3956 84 3597 -3 
Q 3238 -91 2847 -91 
Q 1681 -91 1000 561 
Q 319 1213 319 2328 
Q 319 3447 1000 4098 
Q 1681 4750 2847 4750 
Q 3238 4750 3597 4662 
Q 3956 4575 4288 4403 
L 4288 3438 
Q 3953 3666 3628 3772 
Q 3303 3878 2944 3878 
Q 2300 3878 1931 3465 
Q 1563 3053 1563 2328 
Q 1563 1606 1931 1193 
Q 2300 781 2944 781 
Q 3303 781 3628 887 
Q 3953 994 4288 1222 
L 4288 256 
z
" transform="scale(0.015625)"/>
      <path id="DejaVuSans-Bold-70" d="M 1656 506 
L 1656 -1331 
L 538 -1331 
L 538 3500 
L 1656 3500 
L 1656 2988 
Q 1888 3294 2169 3439 
Q 2450 3584 2816 3584 
Q 3463 3584 3878 3070 
Q 4294 2556 4294 1747 
Q 4294 938 3878 423 
Q 3463 -91 2816 -91 
Q 2450 -91 2169 54 
Q 1888 200 1656 506 
z
M 2400 2772 
Q 2041 2772 1848 2508 
Q 1656 2244 1656 1747 
Q 1656 1250 1848 986 
Q 2041 722 2400 722 
Q 2759 722 2948 984 
Q 3138 1247 3138 1747 
Q 3138 2247 2948 2509 
Q 2759 2772 2400 2772 
z
" transform="scale(0.015625)"/>
      <path id="DejaVuSans-Bold-61" d="M 2106 1575 
Q 1756 1575 1579 1456 
Q 1403 1338 1403 1106 
Q 1403 894 1545 773 
Q 1688 653 1941 653 
Q 2256 653 2472 879 
Q 2688 1106 2688 1447 
L 2688 1575 
L 2106 1575 
z
M 3816 1997 
L 3816 0 
L 2688 0 
L 2688 519 
Q 2463 200 2181 54 
Q 1900 -91 1497 -91 
Q 953 -91 614 226 
Q 275 544 275 1050 
Q 275 1666 698 1953 
Q 1122 2241 2028 2241 
L 2688 2241 
L 2688 2328 
Q 2688 2594 2478 2717 
Q 2269 2841 1825 2841 
Q 1466 2841 1156 2769 
Q 847 2697 581 2553 
L 581 3406 
Q 941 3494 1303 3539 
Q 1666 3584 2028 3584 
Q 2975 3584 3395 3211 
Q 3816 2838 3816 1997 
z
" transform="scale(0.015625)"/>
      <path id="DejaVuSans-Bold-72" d="M 3138 2547 
Q 2991 2616 2845 2648 
Q 2700 2681 2553 2681 
Q 2122 2681 1889 2404 
Q 1656 2128 1656 1613 
L 1656 0 
L 538 0 
L 538 3500 
L 1656 3500 
L 1656 2925 
Q 1872 3269 2151 3426 
Q 2431 3584 2822 3584 
Q 2878 3584 2943 3579 
Q 3009 3575 3134 3559 
L 3138 2547 
z
" transform="scale(0.015625)"/>
      <path id="DejaVuSans-Bold-69" d="M 538 3500 
L 1656 3500 
L 1656 0 
L 538 0 
L 538 3500 
z
M 538 4863 
L 1656 4863 
L 1656 3950 
L 538 3950 
L 538 4863 
z
" transform="scale(0.015625)"/>
     </defs>
     <use xlink:href="#DejaVuSans-Bold-50"/>
     <use xlink:href="#DejaVuSans-Bold-65" x="73.291016"/>
     <use xlink:href="#DejaVuSans-Bold-6e" x="141.113281"/>
     <use xlink:href="#DejaVuSans-Bold-64" x="212.304688"/>
     <use xlink:href="#DejaVuSans-Bold-75" x="283.886719"/>
     <use xlink:href="#DejaVuSans-Bold-6c" x="355.078125"/>
     <use xlink:href="#DejaVuSans-Bold-75" x="389.355469"/>
     <use xlink:href="#DejaVuSans-Bold-6d" x="460.546875"/>
     <use xlink:href="#DejaVuSans-Bold-20" x="564.746094"/>
     <use xlink:href="#DejaVuSans-Bold-4c" x="599.560547"/>
     <use xlink:href="#DejaVuSans-Bold-65" x="663.28125"/>
     <use xlink:href="#DejaVuSans-Bold-6e" x="731.103516"/>
     <use xlink:href="#DejaVuSans-Bold-67" x="802.294922"/>
     <use xlink:href="#DejaVuSans-Bold-74" x="873.876953"/>
     <use xlink:href="#DejaVuSans-Bold-68" x="921.679688"/>
     <use xlink:href="#DejaVuSans-Bold-20" x="992.871094"/>
     <use xlink:href="#DejaVuSans-Bold-52" x="1027.685547"/>
     <use xlink:href="#DejaVuSans-Bold-6f" x="1104.6875"/>
     <use xlink:href="#DejaVuSans-Bold-62" x="1173.388672"/>
     <use xlink:href="#DejaVuSans-Bold-75" x="1244.970703"/>
     <use xlink:href="#DejaVuSans-Bold-73" x="1316.162109"/>
     <use xlink:href="#DejaVuSans-Bold-74" x="1375.683594"/>
     <use xlink:href="#DejaVuSans-Bold-6e" x="1423.486328"/>
     <use xlink:href="#DejaVuSans-Bold-65" x="1494.677734"/>
     <use xlink:href="#DejaVuSans-Bold-73" x="1562.5"/>
     <use xlink:href="#DejaVuSans-Bold-73" x="1622.021484"/>
     <use xlink:href="#DejaVuSans-Bold-20" x="1681.542969"/>
     <use xlink:href="#DejaVuSans-Bold-43" x="1716.357422"/>
     <use xlink:href="#DejaVuSans-Bold-6f" x="1789.746094"/>
     <use xlink:href="#DejaVuSans-Bold-6d" x="1858.447266"/>
     <use xlink:href="#DejaVuSans-Bold-70" x="1962.646484"/>
     <use xlink:href="#DejaVuSans-Bold-61" x="2034.228516"/>
     <use xlink:href="#DejaVuSans-Bold-72" x="2101.708984"/>
     <use xlink:href="#DejaVuSans-Bold-69" x="2151.025391"/>
     <use xlink:href="#DejaVuSans-Bold-73" x="2185.302734"/>
     <use xlink:href="#DejaVuSans-Bold-6f" x="2244.824219"/>
     <use xlink:href="#DejaVuSans-Bold-6e" x="2313.525391"/>
    </g>
   </g>
   <g id="legend_1">
    <g id="patch_7">
     <path d="M 383.482812 84.674375 
L 443 84.674375 
Q 445 84.674375 445 82.674375 
L 445 39.64 
Q 445 37.64 443 37.64 
L 383.482812 37.64 
Q 381.482812 37.64 381.482812 39.64 
L 381.482812 82.674375 
Q 381.482812 84.674375 383.482812 84.674375 
z
" style="fill: #ffffff; opacity: 0.8; stroke: #cccccc; stroke-linejoin: miter"/>
    </g>
    <g id="line2d_34">
     <path d="M 385.482812 45.738437 
L 395.482812 45.738437 
L 405.482812 45.738437 
" style="fill: none; stroke: #1f77b4; stroke-width: 1.5; stroke-linecap: square"/>
    </g>
    <g id="text_19">
     <!-- SHAC -->
     <g transform="translate(413.482812 49.238437) scale(0.1 -0.1)">
      <defs>
       <path id="DejaVuSans-53" d="M 3425 4513 
L 3425 3897 
Q 3066 4069 2747 4153 
Q 2428 4238 2131 4238 
Q 1616 4238 1336 4038 
Q 1056 3838 1056 3469 
Q 1056 3159 1242 3001 
Q 1428 2844 1947 2747 
L 2328 2669 
Q 3034 2534 3370 2195 
Q 3706 1856 3706 1288 
Q 3706 609 3251 259 
Q 2797 -91 1919 -91 
Q 1588 -91 1214 -16 
Q 841 59 441 206 
L 441 856 
Q 825 641 1194 531 
Q 1563 422 1919 422 
Q 2459 422 2753 634 
Q 3047 847 3047 1241 
Q 3047 1584 2836 1778 
Q 2625 1972 2144 2069 
L 1759 2144 
Q 1053 2284 737 2584 
Q 422 2884 422 3419 
Q 422 4038 858 4394 
Q 1294 4750 2059 4750 
Q 2388 4750 2728 4690 
Q 3069 4631 3425 4513 
z
" transform="scale(0.015625)"/>
       <path id="DejaVuSans-48" d="M 628 4666 
L 1259 4666 
L 1259 2753 
L 3553 2753 
L 3553 4666 
L 4184 4666 
L 4184 0 
L 3553 0 
L 3553 2222 
L 1259 2222 
L 1259 0 
L 628 0 
L 628 4666 
z
" transform="scale(0.015625)"/>
       <path id="DejaVuSans-41" d="M 2188 4044 
L 1331 1722 
L 3047 1722 
L 2188 4044 
z
M 1831 4666 
L 2547 4666 
L 4325 0 
L 3669 0 
L 3244 1197 
L 1141 1197 
L 716 0 
L 50 0 
L 1831 4666 
z
" transform="scale(0.015625)"/>
       <path id="DejaVuSans-43" d="M 4122 4306 
L 4122 3641 
Q 3803 3938 3442 4084 
Q 3081 4231 2675 4231 
Q 1875 4231 1450 3742 
Q 1025 3253 1025 2328 
Q 1025 1406 1450 917 
Q 1875 428 2675 428 
Q 3081 428 3442 575 
Q 3803 722 4122 1019 
L 4122 359 
Q 3791 134 3420 21 
Q 3050 -91 2638 -91 
Q 1578 -91 968 557 
Q 359 1206 359 2328 
Q 359 3453 968 4101 
Q 1578 4750 2638 4750 
Q 3056 4750 3426 4639 
Q 3797 4528 4122 4306 
z
" transform="scale(0.015625)"/>
      </defs>
      <use xlink:href="#DejaVuSans-53"/>
      <use xlink:href="#DejaVuSans-48" x="63.476562"/>
      <use xlink:href="#DejaVuSans-41" x="138.671875"/>
      <use xlink:href="#DejaVuSans-43" x="205.330078"/>
     </g>
    </g>
    <g id="line2d_35">
     <path d="M 385.482812 60.416562 
L 395.482812 60.416562 
L 405.482812 60.416562 
" style="fill: none; stroke: #ff7f0e; stroke-width: 1.5; stroke-linecap: square"/>
    </g>
    <g id="text_20">
     <!-- PPO -->
     <g transform="translate(413.482812 63.916562) scale(0.1 -0.1)">
      <defs>
       <path id="DejaVuSans-4f" d="M 2522 4238 
Q 1834 4238 1429 3725 
Q 1025 3213 1025 2328 
Q 1025 1447 1429 934 
Q 1834 422 2522 422 
Q 3209 422 3611 934 
Q 4013 1447 4013 2328 
Q 4013 3213 3611 3725 
Q 3209 4238 2522 4238 
z
M 2522 4750 
Q 3503 4750 4090 4092 
Q 4678 3434 4678 2328 
Q 4678 1225 4090 567 
Q 3503 -91 2522 -91 
Q 1538 -91 948 565 
Q 359 1222 359 2328 
Q 359 3434 948 4092 
Q 1538 4750 2522 4750 
z
" transform="scale(0.015625)"/>
      </defs>
      <use xlink:href="#DejaVuSans-50"/>
      <use xlink:href="#DejaVuSans-50" x="60.302734"/>
      <use xlink:href="#DejaVuSans-4f" x="120.605469"/>
     </g>
    </g>
    <g id="line2d_36">
     <path d="M 385.482812 75.094687 
L 395.482812 75.094687 
L 405.482812 75.094687 
" style="fill: none; stroke: #2ca02c; stroke-width: 1.5; stroke-linecap: square"/>
    </g>
    <g id="text_21">
     <!-- SAC -->
     <g transform="translate(413.482812 78.594687) scale(0.1 -0.1)">
      <use xlink:href="#DejaVuSans-53"/>
      <use xlink:href="#DejaVuSans-41" x="65.351562"/>
      <use xlink:href="#DejaVuSans-43" x="132.009766"/>
     </g>
    </g>
   </g>
  </g>
 </g>
 <defs>
  <clipPath id="p0a27c4f3a9">
   <rect x="76.16" y="32.64" width="373.84" height="266.68"/>
  </clipPath>
 </defs>
</svg>
