<?xml version="1.0" encoding="utf-8" standalone="no"?>
<!DOCTYPE svg PUBLIC "-//W3C//DTD SVG 1.1//EN"
  "http://www.w3.org/Graphics/SVG/1.1/DTD/svg11.dtd">
<svg xmlns:xlink="http://www.w3.org/1999/xlink" width="460.8pt" height="345.6pt" viewBox="0 0 460.8 345.6" xmlns="http://www.w3.org/2000/svg" version="1.1">
 <metadata>
  <rdf:RDF xmlns:dc="http://purl.org/dc/elements/1.1/" xmlns:cc="http://creativecommons.org/ns#" xmlns:rdf="http://www.w3.org/1999/02/22-rdf-syntax-ns#">
   <cc:Work>
    <dc:type rdf:resource="http://purl.org/dc/dcmitype/StillImage"/>
    <dc:date>2024-07-24T16:59:49.385956</dc:date>
    <dc:format>image/svg+xml</dc:format>
    <dc:creator>
     <cc:Agent>
      <dc:title>Matplotlib v3.8.4, https://matplotlib.org/</dc:title>
     </cc:Agent>
    </dc:creator>
   </cc:Work>
  </rdf:RDF>
 </metadata>
 <defs>
  <style type="text/css">*{stroke-linejoin: round; stroke-linecap: butt}</style>
 </defs>
 <g id="figure_1">
  <g id="patch_1">
   <path d="M 0 345.6 
L 460.8 345.6 
L 460.8 0 
L 0 0 
z
" style="fill: #ffffff"/>
  </g>
  <g id="axes_1">
   <g id="patch_2">
    <path d="M 68.51 299.32 
L 450 299.32 
L 450 32.64 
L 68.51 32.64 
z
" style="fill: #ffffff"/>
   </g>
   <g id="PolyCollection_1">
    <path d="M 85.850455 65.835839 
L 85.850455 163.544755 
L 89.353577 139.692773 
L 92.856699 139.907932 
L 96.359821 163.222426 
L 99.862943 163.268712 
L 103.366065 175.658094 
L 106.869187 163.282013 
L 110.372309 155.069425 
L 113.875432 175.664929 
L 117.378554 175.40699 
L 120.881676 175.672474 
L 124.384798 155.168086 
L 127.88792 175.220915 
L 131.391042 175.298227 
L 134.894164 175.034137 
L 138.397287 174.871624 
L 141.900409 174.894626 
L 145.403531 174.930565 
L 148.906653 174.882587 
L 152.409775 174.32741 
L 155.912897 174.46839 
L 159.416019 174.193497 
L 162.919141 174.302839 
L 166.422264 203.96525 
L 169.925386 174.270447 
L 173.428508 178.646219 
L 176.93163 244.66222 
L 180.434752 178.457161 
L 183.937874 222.933318 
L 187.440996 178.412608 
L 190.944118 178.26285 
L 194.447241 173.787721 
L 197.950363 174.108728 
L 201.453485 173.732317 
L 204.956607 178.082405 
L 208.459729 177.963203 
L 211.962851 173.645358 
L 215.465973 177.777391 
L 218.969096 173.475613 
L 222.472218 188.763653 
L 225.97534 177.751977 
L 229.478462 245.321683 
L 232.981584 177.569833 
L 236.484706 199.999169 
L 239.987828 177.658077 
L 243.49095 199.915478 
L 246.994073 177.655395 
L 250.497195 202.451346 
L 254.000317 199.790268 
L 257.503439 207.946164 
L 261.006561 173.229199 
L 264.509683 240.684597 
L 268.012805 193.671048 
L 271.515927 221.821043 
L 275.01905 209.394417 
L 278.522172 201.792666 
L 282.025294 248.278295 
L 285.528416 238.189985 
L 289.031538 214.599992 
L 292.53466 202.06881 
L 296.037782 212.590425 
L 299.540904 202.042724 
L 303.044027 224.875776 
L 306.547149 247.191547 
L 310.050271 220.523282 
L 313.553393 244.942314 
L 317.056515 212.299638 
L 320.559637 212.196652 
L 324.062759 257.906757 
L 327.565882 218.665416 
L 331.069004 213.891398 
L 334.572126 229.550145 
L 338.075248 213.627373 
L 341.57837 213.684295 
L 345.081492 278.969605 
L 348.584614 235.298638 
L 352.087736 263.499686 
L 355.590859 213.469445 
L 359.093981 255.612493 
L 362.597103 261.735724 
L 366.100225 235.640453 
L 369.603347 241.868337 
L 373.106469 213.092661 
L 376.609591 235.157844 
L 380.112713 248.34397 
L 383.615836 235.075804 
L 387.118958 258.958004 
L 390.62208 270.791288 
L 394.125202 267.158673 
L 397.628324 258.408345 
L 401.131446 239.259861 
L 404.634568 287.198182 
L 408.137691 234.74798 
L 411.640813 260.024011 
L 415.143935 234.84902 
L 418.647057 234.642084 
L 422.150179 238.912814 
L 425.653301 234.461518 
L 429.156423 272.155886 
L 432.659545 266.332219 
L 432.659545 107.487476 
L 432.659545 107.487476 
L 429.156423 135.481736 
L 425.653301 105.898997 
L 422.150179 118.454041 
L 418.647057 105.758221 
L 415.143935 105.965888 
L 411.640813 131.055089 
L 408.137691 105.861537 
L 404.634568 154.019264 
L 401.131446 118.478197 
L 397.628324 99.22932 
L 394.125202 107.642355 
L 390.62208 130.505085 
L 387.118958 130.264676 
L 383.615836 105.811577 
L 380.112713 126.587225 
L 376.609591 106.158464 
L 373.106469 111.443045 
L 369.603347 148.07838 
L 366.100225 105.905599 
L 362.597103 130.171645 
L 359.093981 69.330719 
L 355.590859 111.66992 
L 352.087736 111.790058 
L 348.584614 89.989145 
L 345.081492 130.558392 
L 341.57837 111.605169 
L 338.075248 94.828359 
L 334.572126 146.655616 
L 331.069004 111.684952 
L 327.565882 124.59472 
L 324.062759 83.961384 
L 320.559637 80.193774 
L 317.056515 80.217812 
L 313.553393 132.30055 
L 310.050271 105.463404 
L 306.547149 112.635631 
L 303.044027 84.332869 
L 299.540904 91.210413 
L 296.037782 80.14202 
L 292.53466 107.596348 
L 289.031538 112.034469 
L 285.528416 105.2577 
L 282.025294 112.732296 
L 278.522172 91.357234 
L 275.01905 100.949317 
L 271.515927 105.083032 
L 268.012805 82.928616 
L 264.509683 89.257263 
L 261.006561 70.27799 
L 257.503439 85.409896 
L 254.000317 77.107486 
L 250.497195 91.295186 
L 246.994073 82.694169 
L 243.49095 77.090849 
L 239.987828 82.666666 
L 236.484706 77.134049 
L 232.981584 82.618012 
L 229.478462 113.528268 
L 225.97534 82.741173 
L 222.472218 105.351485 
L 218.969096 70.198969 
L 215.465973 82.670103 
L 211.962851 70.22532 
L 208.459729 82.721216 
L 204.956607 82.712733 
L 201.453485 70.192424 
L 197.950363 70.082579 
L 194.447241 70.193476 
L 190.944118 82.686077 
L 187.440996 82.65421 
L 183.937874 89.092784 
L 180.434752 82.787945 
L 176.93163 84.532349 
L 173.428508 82.694743 
L 169.925386 70.30704 
L 166.422264 91.125502 
L 162.919141 70.275345 
L 159.416019 70.232759 
L 155.912897 70.191388 
L 152.409775 70.197631 
L 148.906653 70.063996 
L 145.403531 70.053536 
L 141.900409 70.153993 
L 138.397287 70.227397 
L 134.894164 70.130529 
L 131.391042 70.064143 
L 127.88792 70.155979 
L 124.384798 73.769593 
L 120.881676 70.141603 
L 117.378554 70.117594 
L 113.875432 70.077145 
L 110.372309 73.779872 
L 106.869187 65.962283 
L 103.366065 70.143506 
L 99.862943 65.911432 
L 96.359821 65.943732 
L 92.856699 72.931961 
L 89.353577 72.86066 
L 85.850455 65.835839 
z
" clip-path="url(#p030140ed95)" style="fill: #1f77b4; fill-opacity: 0.3"/>
   </g>
   <g id="PolyCollection_2">
    <path d="M 85.850455 47.524938 
L 85.850455 185.633601 
L 89.353577 188.652051 
L 92.856699 189.390141 
L 96.359821 184.041962 
L 99.862943 185.92207 
L 103.366065 185.621084 
L 106.869187 183.877893 
L 110.372309 191.158633 
L 113.875432 183.111132 
L 117.378554 183.475415 
L 120.881676 183.503977 
L 124.384798 183.808858 
L 127.88792 184.205913 
L 131.391042 183.394045 
L 134.894164 183.075151 
L 138.397287 189.414822 
L 141.900409 189.416912 
L 145.403531 183.390826 
L 148.906653 183.129003 
L 152.409775 183.596145 
L 155.912897 183.291299 
L 159.416019 183.104584 
L 162.919141 184.509662 
L 166.422264 183.093109 
L 169.925386 183.31686 
L 173.428508 183.393424 
L 176.93163 183.560798 
L 180.434752 183.230042 
L 183.937874 189.716265 
L 187.440996 176.320441 
L 190.944118 188.272108 
L 194.447241 188.216855 
L 197.950363 194.589039 
L 201.453485 194.575957 
L 204.956607 188.520261 
L 208.459729 197.485341 
L 211.962851 193.718006 
L 215.465973 189.600843 
L 218.969096 193.817534 
L 222.472218 184.337963 
L 225.97534 179.858218 
L 229.478462 183.30095 
L 232.981584 166.389091 
L 236.484706 193.223378 
L 239.987828 174.786026 
L 243.49095 166.059955 
L 246.994073 216.086792 
L 250.497195 187.440625 
L 254.000317 194.974833 
L 257.503439 241.109479 
L 261.006561 170.798697 
L 264.509683 191.998032 
L 268.012805 170.80327 
L 271.515927 225.799285 
L 275.01905 191.281156 
L 278.522172 230.771805 
L 282.025294 251.934668 
L 285.528416 193.403392 
L 289.031538 220.292818 
L 292.53466 232.490455 
L 296.037782 220.508158 
L 299.540904 197.887953 
L 303.044027 198.274469 
L 306.547149 227.672676 
L 310.050271 259.42481 
L 313.553393 261.237834 
L 317.056515 205.091251 
L 320.559637 234.231054 
L 324.062759 274.225183 
L 327.565882 205.854026 
L 331.069004 252.977387 
L 334.572126 209.707593 
L 338.075248 218.35174 
L 341.57837 252.036211 
L 345.081492 258.518844 
L 348.584614 259.443748 
L 352.087736 236.065951 
L 355.590859 235.727744 
L 359.093981 242.710903 
L 362.597103 254.788472 
L 366.100225 251.876071 
L 369.603347 238.869428 
L 373.106469 241.7651 
L 376.609591 234.482545 
L 380.112713 253.393217 
L 383.615836 254.153992 
L 387.118958 262.770776 
L 390.62208 276.057291 
L 394.125202 228.142605 
L 397.628324 244.394035 
L 401.131446 244.67199 
L 404.634568 263.04738 
L 408.137691 220.636531 
L 411.640813 249.466094 
L 415.143935 279.806506 
L 418.647057 244.312652 
L 422.150179 233.781588 
L 425.653301 270.797155 
L 429.156423 257.80071 
L 432.659545 237.414987 
L 432.659545 74.812643 
L 432.659545 74.812643 
L 429.156423 75.933561 
L 425.653301 94.088597 
L 422.150179 111.4435 
L 418.647057 118.263311 
L 415.143935 125.905228 
L 411.640813 87.940566 
L 408.137691 95.14439 
L 404.634568 96.260023 
L 401.131446 100.974666 
L 397.628324 101.357461 
L 394.125202 77.544189 
L 390.62208 112.404221 
L 387.118958 97.616055 
L 383.615836 70.715484 
L 380.112713 108.614913 
L 376.609591 111.413879 
L 373.106469 101.77676 
L 369.603347 89.989893 
L 366.100225 86.865971 
L 362.597103 86.045025 
L 359.093981 89.099397 
L 355.590859 111.746269 
L 352.087736 90.771726 
L 348.584614 81.889232 
L 345.081492 70.390324 
L 341.57837 100.14645 
L 338.075248 94.6538 
L 334.572126 75.298965 
L 331.069004 64.362204 
L 327.565882 76.50926 
L 324.062759 73.119321 
L 320.559637 68.564794 
L 317.056515 77.044434 
L 313.553393 70.324853 
L 310.050271 68.351339 
L 306.547149 70.580826 
L 303.044027 78.464518 
L 299.540904 69.310226 
L 296.037782 63.134942 
L 292.53466 44.761818 
L 289.031538 62.204246 
L 285.528416 70.214283 
L 282.025294 74.312652 
L 278.522172 59.15918 
L 275.01905 71.247765 
L 271.515927 60.731599 
L 268.012805 77.621552 
L 264.509683 71.219484 
L 261.006561 77.249439 
L 257.503439 55.44121 
L 254.000317 70.308921 
L 250.497195 72.300476 
L 246.994073 63.586258 
L 243.49095 66.043404 
L 239.987828 76.230014 
L 236.484706 71.102842 
L 232.981584 66.595502 
L 229.478462 60.892228 
L 225.97534 75.412853 
L 222.472218 60.52065 
L 218.969096 70.271641 
L 215.465973 71.89713 
L 211.962851 70.590366 
L 208.459729 70.013189 
L 204.956607 58.739242 
L 201.453485 71.798445 
L 197.950363 70.829341 
L 194.447241 59.261216 
L 190.944118 59.544249 
L 187.440996 63.205903 
L 183.937874 58.966002 
L 180.434752 49.10136 
L 176.93163 48.478038 
L 173.428508 48.885216 
L 169.925386 48.491053 
L 166.422264 48.714744 
L 162.919141 48.486279 
L 159.416019 48.194492 
L 155.912897 48.435309 
L 152.409775 48.49085 
L 148.906653 48.354758 
L 145.403531 48.277563 
L 141.900409 58.991416 
L 138.397287 59.546304 
L 134.894164 48.696159 
L 131.391042 48.603106 
L 127.88792 48.041968 
L 124.384798 47.98071 
L 120.881676 48.307105 
L 117.378554 48.555545 
L 113.875432 48.917907 
L 110.372309 45.704002 
L 106.869187 48.936216 
L 103.366065 47.147418 
L 99.862943 47.372205 
L 96.359821 48.155414 
L 92.856699 46.301855 
L 89.353577 46.876026 
L 85.850455 47.524938 
z
" clip-path="url(#p030140ed95)" style="fill: #ff7f0e; fill-opacity: 0.3"/>
   </g>
   <g id="PolyCollection_3">
    <path d="M 85.850455 77.969063 
L 85.850455 82.307453 
L 89.353577 82.138782 
L 92.856699 82.233101 
L 96.359821 82.394604 
L 99.862943 82.309393 
L 103.366065 82.139826 
L 106.869187 82.213199 
L 110.372309 82.21005 
L 113.875432 82.193644 
L 117.378554 82.186853 
L 120.881676 82.28301 
L 124.384798 82.396674 
L 127.88792 82.142852 
L 131.391042 82.217535 
L 134.894164 82.172169 
L 138.397287 82.213035 
L 141.900409 82.259548 
L 145.403531 82.091079 
L 148.906653 81.95225 
L 152.409775 82.224443 
L 155.912897 82.210917 
L 159.416019 82.162689 
L 162.919141 82.192019 
L 166.422264 82.180709 
L 169.925386 82.047298 
L 173.428508 82.282245 
L 176.93163 82.120394 
L 180.434752 82.21785 
L 183.937874 82.254101 
L 187.440996 82.304363 
L 190.944118 82.055929 
L 194.447241 82.05437 
L 197.950363 82.113477 
L 201.453485 81.922448 
L 204.956607 82.00426 
L 208.459729 82.081525 
L 211.962851 82.0302 
L 215.465973 81.907547 
L 218.969096 81.972662 
L 222.472218 82.056424 
L 225.97534 82.11006 
L 229.478462 82.05954 
L 232.981584 82.071276 
L 236.484706 81.946158 
L 239.987828 82.002103 
L 243.49095 81.941938 
L 246.994073 81.993041 
L 250.497195 81.937255 
L 254.000317 81.998229 
L 257.503439 81.878691 
L 261.006561 81.881017 
L 264.509683 82.082472 
L 268.012805 81.874317 
L 271.515927 81.969976 
L 275.01905 81.908987 
L 278.522172 81.963209 
L 282.025294 81.939144 
L 285.528416 81.901098 
L 289.031538 81.927481 
L 292.53466 81.981156 
L 296.037782 81.828526 
L 299.540904 81.939542 
L 303.044027 81.874714 
L 306.547149 104.900754 
L 310.050271 104.872931 
L 313.553393 104.662333 
L 317.056515 104.515866 
L 320.559637 104.491296 
L 324.062759 104.41967 
L 327.565882 104.358925 
L 331.069004 104.178819 
L 334.572126 104.142341 
L 338.075248 104.11424 
L 341.57837 104.045163 
L 345.081492 103.919742 
L 348.584614 103.936351 
L 352.087736 103.909001 
L 355.590859 103.864642 
L 359.093981 103.617147 
L 362.597103 103.665913 
L 366.100225 103.57988 
L 369.603347 103.380678 
L 373.106469 103.348163 
L 376.609591 103.036128 
L 380.112713 102.808362 
L 383.615836 102.835533 
L 387.118958 102.650982 
L 390.62208 102.736471 
L 394.125202 102.53418 
L 397.628324 102.526508 
L 401.131446 102.300563 
L 404.634568 102.195376 
L 408.137691 102.238612 
L 411.640813 102.157028 
L 415.143935 102.159218 
L 418.647057 102.204523 
L 422.150179 101.966524 
L 425.653301 101.978041 
L 429.156423 101.960234 
L 432.659545 101.998102 
L 432.659545 74.283997 
L 432.659545 74.283997 
L 429.156423 74.365557 
L 425.653301 74.34052 
L 422.150179 74.348989 
L 418.647057 74.354717 
L 415.143935 74.172094 
L 411.640813 74.151145 
L 408.137691 74.188734 
L 404.634568 74.152467 
L 401.131446 74.165291 
L 397.628324 74.036749 
L 394.125202 74.10447 
L 390.62208 74.040167 
L 387.118958 74.088213 
L 383.615836 73.956667 
L 380.112713 74.020446 
L 376.609591 73.86775 
L 373.106469 73.797539 
L 369.603347 73.693891 
L 366.100225 73.743653 
L 362.597103 73.66632 
L 359.093981 73.663758 
L 355.590859 73.576437 
L 352.087736 73.595012 
L 348.584614 73.52965 
L 345.081492 73.497246 
L 341.57837 73.438621 
L 338.075248 73.457623 
L 334.572126 73.416787 
L 331.069004 73.428019 
L 327.565882 73.411602 
L 324.062759 73.388756 
L 320.559637 73.250812 
L 317.056515 73.188329 
L 313.553393 73.239851 
L 310.050271 73.158759 
L 306.547149 73.155294 
L 303.044027 79.586963 
L 299.540904 79.418631 
L 296.037782 79.320839 
L 292.53466 79.319857 
L 289.031538 79.243142 
L 285.528416 79.219474 
L 282.025294 79.175432 
L 278.522172 79.059879 
L 275.01905 79.183656 
L 271.515927 79.096323 
L 268.012805 79.074535 
L 264.509683 79.007498 
L 261.006561 78.969645 
L 257.503439 79.001169 
L 254.000317 79.036516 
L 250.497195 78.956387 
L 246.994073 78.965395 
L 243.49095 78.879341 
L 239.987828 78.959706 
L 236.484706 78.852202 
L 232.981584 78.958938 
L 229.478462 78.851058 
L 225.97534 78.752227 
L 222.472218 78.688753 
L 218.969096 78.647924 
L 215.465973 78.628426 
L 211.962851 78.682847 
L 208.459729 78.848587 
L 204.956607 78.716857 
L 201.453485 78.710508 
L 197.950363 78.692457 
L 194.447241 78.632402 
L 190.944118 78.550089 
L 187.440996 78.671538 
L 183.937874 78.541282 
L 180.434752 78.677 
L 176.93163 78.561417 
L 173.428508 78.64669 
L 169.925386 78.527506 
L 166.422264 78.420707 
L 162.919141 78.48833 
L 159.416019 78.611209 
L 155.912897 78.326697 
L 152.409775 78.544405 
L 148.906653 78.363676 
L 145.403531 78.493304 
L 141.900409 78.311655 
L 138.397287 78.440797 
L 134.894164 78.321611 
L 131.391042 78.275603 
L 127.88792 78.241116 
L 124.384798 78.352748 
L 120.881676 78.240515 
L 117.378554 78.30752 
L 113.875432 78.207465 
L 110.372309 78.116354 
L 106.869187 78.174497 
L 103.366065 78.153327 
L 99.862943 78.267669 
L 96.359821 78.298684 
L 92.856699 78.12927 
L 89.353577 78.098917 
L 85.850455 77.969063 
z
" clip-path="url(#p030140ed95)" style="fill: #2ca02c; fill-opacity: 0.3"/>
   </g>
   <g id="matplotlib.axis_1">
    <g id="xtick_1">
     <g id="line2d_1">
      <path d="M 120.531364 299.32 
L 120.531364 32.64 
" clip-path="url(#p030140ed95)" style="fill: none; stroke: #b0b0b0; stroke-width: 0.8; stroke-linecap: square"/>
     </g>
     <g id="line2d_2">
      <defs>
       <path id="mfb0b66ddc7" d="M 0 0 
L 0 3.5 
" style="stroke: #000000; stroke-width: 0.8"/>
      </defs>
      <g>
       <use xlink:href="#mfb0b66ddc7" x="120.531364" y="299.32" style="stroke: #000000; stroke-width: 0.8"/>
      </g>
     </g>
     <g id="text_1">
      <!-- 0.8 -->
      <g transform="translate(110.989489 315.438125) scale(0.12 -0.12)">
       <defs>
        <path id="DejaVuSans-30" d="M 2034 4250 
Q 1547 4250 1301 3770 
Q 1056 3291 1056 2328 
Q 1056 1369 1301 889 
Q 1547 409 2034 409 
Q 2525 409 2770 889 
Q 3016 1369 3016 2328 
Q 3016 3291 2770 3770 
Q 2525 4250 2034 4250 
z
M 2034 4750 
Q 2819 4750 3233 4129 
Q 3647 3509 3647 2328 
Q 3647 1150 3233 529 
Q 2819 -91 2034 -91 
Q 1250 -91 836 529 
Q 422 1150 422 2328 
Q 422 3509 836 4129 
Q 1250 4750 2034 4750 
z
" transform="scale(0.015625)"/>
        <path id="DejaVuSans-2e" d="M 684 794 
L 1344 794 
L 1344 0 
L 684 0 
L 684 794 
z
" transform="scale(0.015625)"/>
        <path id="DejaVuSans-38" d="M 2034 2216 
Q 1584 2216 1326 1975 
Q 1069 1734 1069 1313 
Q 1069 891 1326 650 
Q 1584 409 2034 409 
Q 2484 409 2743 651 
Q 3003 894 3003 1313 
Q 3003 1734 2745 1975 
Q 2488 2216 2034 2216 
z
M 1403 2484 
Q 997 2584 770 2862 
Q 544 3141 544 3541 
Q 544 4100 942 4425 
Q 1341 4750 2034 4750 
Q 2731 4750 3128 4425 
Q 3525 4100 3525 3541 
Q 3525 3141 3298 2862 
Q 3072 2584 2669 2484 
Q 3125 2378 3379 2068 
Q 3634 1759 3634 1313 
Q 3634 634 3220 271 
Q 2806 -91 2034 -91 
Q 1263 -91 848 271 
Q 434 634 434 1313 
Q 434 1759 690 2068 
Q 947 2378 1403 2484 
z
M 1172 3481 
Q 1172 3119 1398 2916 
Q 1625 2713 2034 2713 
Q 2441 2713 2670 2916 
Q 2900 3119 2900 3481 
Q 2900 3844 2670 4047 
Q 2441 4250 2034 4250 
Q 1625 4250 1398 4047 
Q 1172 3844 1172 3481 
z
" transform="scale(0.015625)"/>
       </defs>
       <use xlink:href="#DejaVuSans-30"/>
       <use xlink:href="#DejaVuSans-2e" x="63.623047"/>
       <use xlink:href="#DejaVuSans-38" x="95.410156"/>
      </g>
     </g>
    </g>
    <g id="xtick_2">
     <g id="line2d_3">
      <path d="M 189.893182 299.32 
L 189.893182 32.64 
" clip-path="url(#p030140ed95)" style="fill: none; stroke: #b0b0b0; stroke-width: 0.8; stroke-linecap: square"/>
     </g>
     <g id="line2d_4">
      <g>
       <use xlink:href="#mfb0b66ddc7" x="189.893182" y="299.32" style="stroke: #000000; stroke-width: 0.8"/>
      </g>
     </g>
     <g id="text_2">
      <!-- 0.9 -->
      <g transform="translate(180.351307 315.438125) scale(0.12 -0.12)">
       <defs>
        <path id="DejaVuSans-39" d="M 703 97 
L 703 672 
Q 941 559 1184 500 
Q 1428 441 1663 441 
Q 2288 441 2617 861 
Q 2947 1281 2994 2138 
Q 2813 1869 2534 1725 
Q 2256 1581 1919 1581 
Q 1219 1581 811 2004 
Q 403 2428 403 3163 
Q 403 3881 828 4315 
Q 1253 4750 1959 4750 
Q 2769 4750 3195 4129 
Q 3622 3509 3622 2328 
Q 3622 1225 3098 567 
Q 2575 -91 1691 -91 
Q 1453 -91 1209 -44 
Q 966 3 703 97 
z
M 1959 2075 
Q 2384 2075 2632 2365 
Q 2881 2656 2881 3163 
Q 2881 3666 2632 3958 
Q 2384 4250 1959 4250 
Q 1534 4250 1286 3958 
Q 1038 3666 1038 3163 
Q 1038 2656 1286 2365 
Q 1534 2075 1959 2075 
z
" transform="scale(0.015625)"/>
       </defs>
       <use xlink:href="#DejaVuSans-30"/>
       <use xlink:href="#DejaVuSans-2e" x="63.623047"/>
       <use xlink:href="#DejaVuSans-39" x="95.410156"/>
      </g>
     </g>
    </g>
    <g id="xtick_3">
     <g id="line2d_5">
      <path d="M 259.255 299.32 
L 259.255 32.64 
" clip-path="url(#p030140ed95)" style="fill: none; stroke: #b0b0b0; stroke-width: 0.8; stroke-linecap: square"/>
     </g>
     <g id="line2d_6">
      <g>
       <use xlink:href="#mfb0b66ddc7" x="259.255" y="299.32" style="stroke: #000000; stroke-width: 0.8"/>
      </g>
     </g>
     <g id="text_3">
      <!-- 1.0 -->
      <g transform="translate(249.713125 315.438125) scale(0.12 -0.12)">
       <defs>
        <path id="DejaVuSans-31" d="M 794 531 
L 1825 531 
L 1825 4091 
L 703 3866 
L 703 4441 
L 1819 4666 
L 2450 4666 
L 2450 531 
L 3481 531 
L 3481 0 
L 794 0 
L 794 531 
z
" transform="scale(0.015625)"/>
       </defs>
       <use xlink:href="#DejaVuSans-31"/>
       <use xlink:href="#DejaVuSans-2e" x="63.623047"/>
       <use xlink:href="#DejaVuSans-30" x="95.410156"/>
      </g>
     </g>
    </g>
    <g id="xtick_4">
     <g id="line2d_7">
      <path d="M 328.616818 299.32 
L 328.616818 32.64 
" clip-path="url(#p030140ed95)" style="fill: none; stroke: #b0b0b0; stroke-width: 0.8; stroke-linecap: square"/>
     </g>
     <g id="line2d_8">
      <g>
       <use xlink:href="#mfb0b66ddc7" x="328.616818" y="299.32" style="stroke: #000000; stroke-width: 0.8"/>
      </g>
     </g>
     <g id="text_4">
      <!-- 1.1 -->
      <g transform="translate(319.074943 315.438125) scale(0.12 -0.12)">
       <use xlink:href="#DejaVuSans-31"/>
       <use xlink:href="#DejaVuSans-2e" x="63.623047"/>
       <use xlink:href="#DejaVuSans-31" x="95.410156"/>
      </g>
     </g>
    </g>
    <g id="xtick_5">
     <g id="line2d_9">
      <path d="M 397.978636 299.32 
L 397.978636 32.64 
" clip-path="url(#p030140ed95)" style="fill: none; stroke: #b0b0b0; stroke-width: 0.8; stroke-linecap: square"/>
     </g>
     <g id="line2d_10">
      <g>
       <use xlink:href="#mfb0b66ddc7" x="397.978636" y="299.32" style="stroke: #000000; stroke-width: 0.8"/>
      </g>
     </g>
     <g id="text_5">
      <!-- 1.2 -->
      <g transform="translate(388.436761 315.438125) scale(0.12 -0.12)">
       <defs>
        <path id="DejaVuSans-32" d="M 1228 531 
L 3431 531 
L 3431 0 
L 469 0 
L 469 531 
Q 828 903 1448 1529 
Q 2069 2156 2228 2338 
Q 2531 2678 2651 2914 
Q 2772 3150 2772 3378 
Q 2772 3750 2511 3984 
Q 2250 4219 1831 4219 
Q 1534 4219 1204 4116 
Q 875 4013 500 3803 
L 500 4441 
Q 881 4594 1212 4672 
Q 1544 4750 1819 4750 
Q 2544 4750 2975 4387 
Q 3406 4025 3406 3419 
Q 3406 3131 3298 2873 
Q 3191 2616 2906 2266 
Q 2828 2175 2409 1742 
Q 1991 1309 1228 531 
z
" transform="scale(0.015625)"/>
       </defs>
       <use xlink:href="#DejaVuSans-31"/>
       <use xlink:href="#DejaVuSans-2e" x="63.623047"/>
       <use xlink:href="#DejaVuSans-32" x="95.410156"/>
      </g>
     </g>
    </g>
    <g id="text_6">
     <!-- Pendulum mass (kg) -->
     <g transform="translate(187.654844 332.571562) scale(0.14 -0.14)">
      <defs>
       <path id="DejaVuSans-50" d="M 1259 4147 
L 1259 2394 
L 2053 2394 
Q 2494 2394 2734 2622 
Q 2975 2850 2975 3272 
Q 2975 3691 2734 3919 
Q 2494 4147 2053 4147 
L 1259 4147 
z
M 628 4666 
L 2053 4666 
Q 2838 4666 3239 4311 
Q 3641 3956 3641 3272 
Q 3641 2581 3239 2228 
Q 2838 1875 2053 1875 
L 1259 1875 
L 1259 0 
L 628 0 
L 628 4666 
z
" transform="scale(0.015625)"/>
       <path id="DejaVuSans-65" d="M 3597 1894 
L 3597 1613 
L 953 1613 
Q 991 1019 1311 708 
Q 1631 397 2203 397 
Q 2534 397 2845 478 
Q 3156 559 3463 722 
L 3463 178 
Q 3153 47 2828 -22 
Q 2503 -91 2169 -91 
Q 1331 -91 842 396 
Q 353 884 353 1716 
Q 353 2575 817 3079 
Q 1281 3584 2069 3584 
Q 2775 3584 3186 3129 
Q 3597 2675 3597 1894 
z
M 3022 2063 
Q 3016 2534 2758 2815 
Q 2500 3097 2075 3097 
Q 1594 3097 1305 2825 
Q 1016 2553 972 2059 
L 3022 2063 
z
" transform="scale(0.015625)"/>
       <path id="DejaVuSans-6e" d="M 3513 2113 
L 3513 0 
L 2938 0 
L 2938 2094 
Q 2938 2591 2744 2837 
Q 2550 3084 2163 3084 
Q 1697 3084 1428 2787 
Q 1159 2491 1159 1978 
L 1159 0 
L 581 0 
L 581 3500 
L 1159 3500 
L 1159 2956 
Q 1366 3272 1645 3428 
Q 1925 3584 2291 3584 
Q 2894 3584 3203 3211 
Q 3513 2838 3513 2113 
z
" transform="scale(0.015625)"/>
       <path id="DejaVuSans-64" d="M 2906 2969 
L 2906 4863 
L 3481 4863 
L 3481 0 
L 2906 0 
L 2906 525 
Q 2725 213 2448 61 
Q 2172 -91 1784 -91 
Q 1150 -91 751 415 
Q 353 922 353 1747 
Q 353 2572 751 3078 
Q 1150 3584 1784 3584 
Q 2172 3584 2448 3432 
Q 2725 3281 2906 2969 
z
M 947 1747 
Q 947 1113 1208 752 
Q 1469 391 1925 391 
Q 2381 391 2643 752 
Q 2906 1113 2906 1747 
Q 2906 2381 2643 2742 
Q 2381 3103 1925 3103 
Q 1469 3103 1208 2742 
Q 947 2381 947 1747 
z
" transform="scale(0.015625)"/>
       <path id="DejaVuSans-75" d="M 544 1381 
L 544 3500 
L 1119 3500 
L 1119 1403 
Q 1119 906 1312 657 
Q 1506 409 1894 409 
Q 2359 409 2629 706 
Q 2900 1003 2900 1516 
L 2900 3500 
L 3475 3500 
L 3475 0 
L 2900 0 
L 2900 538 
Q 2691 219 2414 64 
Q 2138 -91 1772 -91 
Q 1169 -91 856 284 
Q 544 659 544 1381 
z
M 1991 3584 
L 1991 3584 
z
" transform="scale(0.015625)"/>
       <path id="DejaVuSans-6c" d="M 603 4863 
L 1178 4863 
L 1178 0 
L 603 0 
L 603 4863 
z
" transform="scale(0.015625)"/>
       <path id="DejaVuSans-6d" d="M 3328 2828 
Q 3544 3216 3844 3400 
Q 4144 3584 4550 3584 
Q 5097 3584 5394 3201 
Q 5691 2819 5691 2113 
L 5691 0 
L 5113 0 
L 5113 2094 
Q 5113 2597 4934 2840 
Q 4756 3084 4391 3084 
Q 3944 3084 3684 2787 
Q 3425 2491 3425 1978 
L 3425 0 
L 2847 0 
L 2847 2094 
Q 2847 2600 2669 2842 
Q 2491 3084 2119 3084 
Q 1678 3084 1418 2786 
Q 1159 2488 1159 1978 
L 1159 0 
L 581 0 
L 581 3500 
L 1159 3500 
L 1159 2956 
Q 1356 3278 1631 3431 
Q 1906 3584 2284 3584 
Q 2666 3584 2933 3390 
Q 3200 3197 3328 2828 
z
" transform="scale(0.015625)"/>
       <path id="DejaVuSans-20" transform="scale(0.015625)"/>
       <path id="DejaVuSans-61" d="M 2194 1759 
Q 1497 1759 1228 1600 
Q 959 1441 959 1056 
Q 959 750 1161 570 
Q 1363 391 1709 391 
Q 2188 391 2477 730 
Q 2766 1069 2766 1631 
L 2766 1759 
L 2194 1759 
z
M 3341 1997 
L 3341 0 
L 2766 0 
L 2766 531 
Q 2569 213 2275 61 
Q 1981 -91 1556 -91 
Q 1019 -91 701 211 
Q 384 513 384 1019 
Q 384 1609 779 1909 
Q 1175 2209 1959 2209 
L 2766 2209 
L 2766 2266 
Q 2766 2663 2505 2880 
Q 2244 3097 1772 3097 
Q 1472 3097 1187 3025 
Q 903 2953 641 2809 
L 641 3341 
Q 956 3463 1253 3523 
Q 1550 3584 1831 3584 
Q 2591 3584 2966 3190 
Q 3341 2797 3341 1997 
z
" transform="scale(0.015625)"/>
       <path id="DejaVuSans-73" d="M 2834 3397 
L 2834 2853 
Q 2591 2978 2328 3040 
Q 2066 3103 1784 3103 
Q 1356 3103 1142 2972 
Q 928 2841 928 2578 
Q 928 2378 1081 2264 
Q 1234 2150 1697 2047 
L 1894 2003 
Q 2506 1872 2764 1633 
Q 3022 1394 3022 966 
Q 3022 478 2636 193 
Q 2250 -91 1575 -91 
Q 1294 -91 989 -36 
Q 684 19 347 128 
L 347 722 
Q 666 556 975 473 
Q 1284 391 1588 391 
Q 1994 391 2212 530 
Q 2431 669 2431 922 
Q 2431 1156 2273 1281 
Q 2116 1406 1581 1522 
L 1381 1569 
Q 847 1681 609 1914 
Q 372 2147 372 2553 
Q 372 3047 722 3315 
Q 1072 3584 1716 3584 
Q 2034 3584 2315 3537 
Q 2597 3491 2834 3397 
z
" transform="scale(0.015625)"/>
       <path id="DejaVuSans-28" d="M 1984 4856 
Q 1566 4138 1362 3434 
Q 1159 2731 1159 2009 
Q 1159 1288 1364 580 
Q 1569 -128 1984 -844 
L 1484 -844 
Q 1016 -109 783 600 
Q 550 1309 550 2009 
Q 550 2706 781 3412 
Q 1013 4119 1484 4856 
L 1984 4856 
z
" transform="scale(0.015625)"/>
       <path id="DejaVuSans-6b" d="M 581 4863 
L 1159 4863 
L 1159 1991 
L 2875 3500 
L 3609 3500 
L 1753 1863 
L 3688 0 
L 2938 0 
L 1159 1709 
L 1159 0 
L 581 0 
L 581 4863 
z
" transform="scale(0.015625)"/>
       <path id="DejaVuSans-67" d="M 2906 1791 
Q 2906 2416 2648 2759 
Q 2391 3103 1925 3103 
Q 1463 3103 1205 2759 
Q 947 2416 947 1791 
Q 947 1169 1205 825 
Q 1463 481 1925 481 
Q 2391 481 2648 825 
Q 2906 1169 2906 1791 
z
M 3481 434 
Q 3481 -459 3084 -895 
Q 2688 -1331 1869 -1331 
Q 1566 -1331 1297 -1286 
Q 1028 -1241 775 -1147 
L 775 -588 
Q 1028 -725 1275 -790 
Q 1522 -856 1778 -856 
Q 2344 -856 2625 -561 
Q 2906 -266 2906 331 
L 2906 616 
Q 2728 306 2450 153 
Q 2172 0 1784 0 
Q 1141 0 747 490 
Q 353 981 353 1791 
Q 353 2603 747 3093 
Q 1141 3584 1784 3584 
Q 2172 3584 2450 3431 
Q 2728 3278 2906 2969 
L 2906 3500 
L 3481 3500 
L 3481 434 
z
" transform="scale(0.015625)"/>
       <path id="DejaVuSans-29" d="M 513 4856 
L 1013 4856 
Q 1481 4119 1714 3412 
Q 1947 2706 1947 2009 
Q 1947 1309 1714 600 
Q 1481 -109 1013 -844 
L 513 -844 
Q 928 -128 1133 580 
Q 1338 1288 1338 2009 
Q 1338 2731 1133 3434 
Q 928 4138 513 4856 
z
" transform="scale(0.015625)"/>
      </defs>
      <use xlink:href="#DejaVuSans-50"/>
      <use xlink:href="#DejaVuSans-65" x="56.677734"/>
      <use xlink:href="#DejaVuSans-6e" x="118.201172"/>
      <use xlink:href="#DejaVuSans-64" x="181.580078"/>
      <use xlink:href="#DejaVuSans-75" x="245.056641"/>
      <use xlink:href="#DejaVuSans-6c" x="308.435547"/>
      <use xlink:href="#DejaVuSans-75" x="336.21875"/>
      <use xlink:href="#DejaVuSans-6d" x="399.597656"/>
      <use xlink:href="#DejaVuSans-20" x="497.009766"/>
      <use xlink:href="#DejaVuSans-6d" x="528.796875"/>
      <use xlink:href="#DejaVuSans-61" x="626.208984"/>
      <use xlink:href="#DejaVuSans-73" x="687.488281"/>
      <use xlink:href="#DejaVuSans-73" x="739.587891"/>
      <use xlink:href="#DejaVuSans-20" x="791.6875"/>
      <use xlink:href="#DejaVuSans-28" x="823.474609"/>
      <use xlink:href="#DejaVuSans-6b" x="862.488281"/>
      <use xlink:href="#DejaVuSans-67" x="920.398438"/>
      <use xlink:href="#DejaVuSans-29" x="983.875"/>
     </g>
    </g>
   </g>
   <g id="matplotlib.axis_2">
    <g id="ytick_1">
     <g id="line2d_11">
      <path d="M 68.51 270.516871 
L 450 270.516871 
" clip-path="url(#p030140ed95)" style="fill: none; stroke: #b0b0b0; stroke-width: 0.8; stroke-linecap: square"/>
     </g>
     <g id="line2d_12">
      <defs>
       <path id="mc371d24a6a" d="M 0 0 
L -3.5 0 
" style="stroke: #000000; stroke-width: 0.8"/>
      </defs>
      <g>
       <use xlink:href="#mc371d24a6a" x="68.51" y="270.516871" style="stroke: #000000; stroke-width: 0.8"/>
      </g>
     </g>
     <g id="text_7">
      <!-- −700 -->
      <g transform="translate(28.549375 275.075933) scale(0.12 -0.12)">
       <defs>
        <path id="DejaVuSans-2212" d="M 678 2272 
L 4684 2272 
L 4684 1741 
L 678 1741 
L 678 2272 
z
" transform="scale(0.015625)"/>
        <path id="DejaVuSans-37" d="M 525 4666 
L 3525 4666 
L 3525 4397 
L 1831 0 
L 1172 0 
L 2766 4134 
L 525 4134 
L 525 4666 
z
" transform="scale(0.015625)"/>
       </defs>
       <use xlink:href="#DejaVuSans-2212"/>
       <use xlink:href="#DejaVuSans-37" x="83.789062"/>
       <use xlink:href="#DejaVuSans-30" x="147.412109"/>
       <use xlink:href="#DejaVuSans-30" x="211.035156"/>
      </g>
     </g>
    </g>
    <g id="ytick_2">
     <g id="line2d_13">
      <path d="M 68.51 237.553529 
L 450 237.553529 
" clip-path="url(#p030140ed95)" style="fill: none; stroke: #b0b0b0; stroke-width: 0.8; stroke-linecap: square"/>
     </g>
     <g id="line2d_14">
      <g>
       <use xlink:href="#mc371d24a6a" x="68.51" y="237.553529" style="stroke: #000000; stroke-width: 0.8"/>
      </g>
     </g>
     <g id="text_8">
      <!-- −600 -->
      <g transform="translate(28.549375 242.112592) scale(0.12 -0.12)">
       <defs>
        <path id="DejaVuSans-36" d="M 2113 2584 
Q 1688 2584 1439 2293 
Q 1191 2003 1191 1497 
Q 1191 994 1439 701 
Q 1688 409 2113 409 
Q 2538 409 2786 701 
Q 3034 994 3034 1497 
Q 3034 2003 2786 2293 
Q 2538 2584 2113 2584 
z
M 3366 4563 
L 3366 3988 
Q 3128 4100 2886 4159 
Q 2644 4219 2406 4219 
Q 1781 4219 1451 3797 
Q 1122 3375 1075 2522 
Q 1259 2794 1537 2939 
Q 1816 3084 2150 3084 
Q 2853 3084 3261 2657 
Q 3669 2231 3669 1497 
Q 3669 778 3244 343 
Q 2819 -91 2113 -91 
Q 1303 -91 875 529 
Q 447 1150 447 2328 
Q 447 3434 972 4092 
Q 1497 4750 2381 4750 
Q 2619 4750 2861 4703 
Q 3103 4656 3366 4563 
z
" transform="scale(0.015625)"/>
       </defs>
       <use xlink:href="#DejaVuSans-2212"/>
       <use xlink:href="#DejaVuSans-36" x="83.789062"/>
       <use xlink:href="#DejaVuSans-30" x="147.412109"/>
       <use xlink:href="#DejaVuSans-30" x="211.035156"/>
      </g>
     </g>
    </g>
    <g id="ytick_3">
     <g id="line2d_15">
      <path d="M 68.51 204.590188 
L 450 204.590188 
" clip-path="url(#p030140ed95)" style="fill: none; stroke: #b0b0b0; stroke-width: 0.8; stroke-linecap: square"/>
     </g>
     <g id="line2d_16">
      <g>
       <use xlink:href="#mc371d24a6a" x="68.51" y="204.590188" style="stroke: #000000; stroke-width: 0.8"/>
      </g>
     </g>
     <g id="text_9">
      <!-- −500 -->
      <g transform="translate(28.549375 209.14925) scale(0.12 -0.12)">
       <defs>
        <path id="DejaVuSans-35" d="M 691 4666 
L 3169 4666 
L 3169 4134 
L 1269 4134 
L 1269 2991 
Q 1406 3038 1543 3061 
Q 1681 3084 1819 3084 
Q 2600 3084 3056 2656 
Q 3513 2228 3513 1497 
Q 3513 744 3044 326 
Q 2575 -91 1722 -91 
Q 1428 -91 1123 -41 
Q 819 9 494 109 
L 494 744 
Q 775 591 1075 516 
Q 1375 441 1709 441 
Q 2250 441 2565 725 
Q 2881 1009 2881 1497 
Q 2881 1984 2565 2268 
Q 2250 2553 1709 2553 
Q 1456 2553 1204 2497 
Q 953 2441 691 2322 
L 691 4666 
z
" transform="scale(0.015625)"/>
       </defs>
       <use xlink:href="#DejaVuSans-2212"/>
       <use xlink:href="#DejaVuSans-35" x="83.789062"/>
       <use xlink:href="#DejaVuSans-30" x="147.412109"/>
       <use xlink:href="#DejaVuSans-30" x="211.035156"/>
      </g>
     </g>
    </g>
    <g id="ytick_4">
     <g id="line2d_17">
      <path d="M 68.51 171.626846 
L 450 171.626846 
" clip-path="url(#p030140ed95)" style="fill: none; stroke: #b0b0b0; stroke-width: 0.8; stroke-linecap: square"/>
     </g>
     <g id="line2d_18">
      <g>
       <use xlink:href="#mc371d24a6a" x="68.51" y="171.626846" style="stroke: #000000; stroke-width: 0.8"/>
      </g>
     </g>
     <g id="text_10">
      <!-- −400 -->
      <g transform="translate(28.549375 176.185909) scale(0.12 -0.12)">
       <defs>
        <path id="DejaVuSans-34" d="M 2419 4116 
L 825 1625 
L 2419 1625 
L 2419 4116 
z
M 2253 4666 
L 3047 4666 
L 3047 1625 
L 3713 1625 
L 3713 1100 
L 3047 1100 
L 3047 0 
L 2419 0 
L 2419 1100 
L 313 1100 
L 313 1709 
L 2253 4666 
z
" transform="scale(0.015625)"/>
       </defs>
       <use xlink:href="#DejaVuSans-2212"/>
       <use xlink:href="#DejaVuSans-34" x="83.789062"/>
       <use xlink:href="#DejaVuSans-30" x="147.412109"/>
       <use xlink:href="#DejaVuSans-30" x="211.035156"/>
      </g>
     </g>
    </g>
    <g id="ytick_5">
     <g id="line2d_19">
      <path d="M 68.51 138.663505 
L 450 138.663505 
" clip-path="url(#p030140ed95)" style="fill: none; stroke: #b0b0b0; stroke-width: 0.8; stroke-linecap: square"/>
     </g>
     <g id="line2d_20">
      <g>
       <use xlink:href="#mc371d24a6a" x="68.51" y="138.663505" style="stroke: #000000; stroke-width: 0.8"/>
      </g>
     </g>
     <g id="text_11">
      <!-- −300 -->
      <g transform="translate(28.549375 143.222567) scale(0.12 -0.12)">
       <defs>
        <path id="DejaVuSans-33" d="M 2597 2516 
Q 3050 2419 3304 2112 
Q 3559 1806 3559 1356 
Q 3559 666 3084 287 
Q 2609 -91 1734 -91 
Q 1441 -91 1130 -33 
Q 819 25 488 141 
L 488 750 
Q 750 597 1062 519 
Q 1375 441 1716 441 
Q 2309 441 2620 675 
Q 2931 909 2931 1356 
Q 2931 1769 2642 2001 
Q 2353 2234 1838 2234 
L 1294 2234 
L 1294 2753 
L 1863 2753 
Q 2328 2753 2575 2939 
Q 2822 3125 2822 3475 
Q 2822 3834 2567 4026 
Q 2313 4219 1838 4219 
Q 1578 4219 1281 4162 
Q 984 4106 628 3988 
L 628 4550 
Q 988 4650 1302 4700 
Q 1616 4750 1894 4750 
Q 2613 4750 3031 4423 
Q 3450 4097 3450 3541 
Q 3450 3153 3228 2886 
Q 3006 2619 2597 2516 
z
" transform="scale(0.015625)"/>
       </defs>
       <use xlink:href="#DejaVuSans-2212"/>
       <use xlink:href="#DejaVuSans-33" x="83.789062"/>
       <use xlink:href="#DejaVuSans-30" x="147.412109"/>
       <use xlink:href="#DejaVuSans-30" x="211.035156"/>
      </g>
     </g>
    </g>
    <g id="ytick_6">
     <g id="line2d_21">
      <path d="M 68.51 105.700163 
L 450 105.700163 
" clip-path="url(#p030140ed95)" style="fill: none; stroke: #b0b0b0; stroke-width: 0.8; stroke-linecap: square"/>
     </g>
     <g id="line2d_22">
      <g>
       <use xlink:href="#mc371d24a6a" x="68.51" y="105.700163" style="stroke: #000000; stroke-width: 0.8"/>
      </g>
     </g>
     <g id="text_12">
      <!-- −200 -->
      <g transform="translate(28.549375 110.259225) scale(0.12 -0.12)">
       <use xlink:href="#DejaVuSans-2212"/>
       <use xlink:href="#DejaVuSans-32" x="83.789062"/>
       <use xlink:href="#DejaVuSans-30" x="147.412109"/>
       <use xlink:href="#DejaVuSans-30" x="211.035156"/>
      </g>
     </g>
    </g>
    <g id="ytick_7">
     <g id="line2d_23">
      <path d="M 68.51 72.736821 
L 450 72.736821 
" clip-path="url(#p030140ed95)" style="fill: none; stroke: #b0b0b0; stroke-width: 0.8; stroke-linecap: square"/>
     </g>
     <g id="line2d_24">
      <g>
       <use xlink:href="#mc371d24a6a" x="68.51" y="72.736821" style="stroke: #000000; stroke-width: 0.8"/>
      </g>
     </g>
     <g id="text_13">
      <!-- −100 -->
      <g transform="translate(28.549375 77.295884) scale(0.12 -0.12)">
       <use xlink:href="#DejaVuSans-2212"/>
       <use xlink:href="#DejaVuSans-31" x="83.789062"/>
       <use xlink:href="#DejaVuSans-30" x="147.412109"/>
       <use xlink:href="#DejaVuSans-30" x="211.035156"/>
      </g>
     </g>
    </g>
    <g id="ytick_8">
     <g id="line2d_25">
      <path d="M 68.51 39.77348 
L 450 39.77348 
" clip-path="url(#p030140ed95)" style="fill: none; stroke: #b0b0b0; stroke-width: 0.8; stroke-linecap: square"/>
     </g>
     <g id="line2d_26">
      <g>
       <use xlink:href="#mc371d24a6a" x="68.51" y="39.77348" style="stroke: #000000; stroke-width: 0.8"/>
      </g>
     </g>
     <g id="text_14">
      <!-- 0 -->
      <g transform="translate(53.875 44.332542) scale(0.12 -0.12)">
       <use xlink:href="#DejaVuSans-30"/>
      </g>
     </g>
    </g>
    <g id="text_15">
     <!-- Reward -->
     <g transform="translate(21.637813 192.049531) rotate(-90) scale(0.14 -0.14)">
      <defs>
       <path id="DejaVuSans-52" d="M 2841 2188 
Q 3044 2119 3236 1894 
Q 3428 1669 3622 1275 
L 4263 0 
L 3584 0 
L 2988 1197 
Q 2756 1666 2539 1819 
Q 2322 1972 1947 1972 
L 1259 1972 
L 1259 0 
L 628 0 
L 628 4666 
L 2053 4666 
Q 2853 4666 3247 4331 
Q 3641 3997 3641 3322 
Q 3641 2881 3436 2590 
Q 3231 2300 2841 2188 
z
M 1259 4147 
L 1259 2491 
L 2053 2491 
Q 2509 2491 2742 2702 
Q 2975 2913 2975 3322 
Q 2975 3731 2742 3939 
Q 2509 4147 2053 4147 
L 1259 4147 
z
" transform="scale(0.015625)"/>
       <path id="DejaVuSans-77" d="M 269 3500 
L 844 3500 
L 1563 769 
L 2278 3500 
L 2956 3500 
L 3675 769 
L 4391 3500 
L 4966 3500 
L 4050 0 
L 3372 0 
L 2619 2869 
L 1863 0 
L 1184 0 
L 269 3500 
z
" transform="scale(0.015625)"/>
       <path id="DejaVuSans-72" d="M 2631 2963 
Q 2534 3019 2420 3045 
Q 2306 3072 2169 3072 
Q 1681 3072 1420 2755 
Q 1159 2438 1159 1844 
L 1159 0 
L 581 0 
L 581 3500 
L 1159 3500 
L 1159 2956 
Q 1341 3275 1631 3429 
Q 1922 3584 2338 3584 
Q 2397 3584 2469 3576 
Q 2541 3569 2628 3553 
L 2631 2963 
z
" transform="scale(0.015625)"/>
      </defs>
      <use xlink:href="#DejaVuSans-52"/>
      <use xlink:href="#DejaVuSans-65" x="64.982422"/>
      <use xlink:href="#DejaVuSans-77" x="126.505859"/>
      <use xlink:href="#DejaVuSans-61" x="208.292969"/>
      <use xlink:href="#DejaVuSans-72" x="269.572266"/>
      <use xlink:href="#DejaVuSans-64" x="308.935547"/>
     </g>
    </g>
   </g>
   <g id="line2d_27">
    <path d="M 85.850455 114.690297 
L 89.353577 106.276716 
L 92.856699 106.419946 
L 96.359821 114.583079 
L 99.862943 114.590072 
L 103.366065 122.9008 
L 106.869187 114.622148 
L 110.372309 114.424648 
L 113.875432 122.871037 
L 117.378554 122.762292 
L 120.881676 122.907038 
L 124.384798 114.46884 
L 127.88792 122.688447 
L 131.391042 122.681185 
L 134.894164 122.582333 
L 138.397287 122.54951 
L 141.900409 122.524309 
L 145.403531 122.49205 
L 148.906653 122.473292 
L 152.409775 122.26252 
L 155.912897 122.329889 
L 159.416019 122.213128 
L 162.919141 122.289092 
L 166.422264 147.545376 
L 169.925386 122.288743 
L 173.428508 130.670481 
L 176.93163 164.597284 
L 180.434752 130.622553 
L 183.937874 156.013051 
L 187.440996 130.533409 
L 190.944118 130.474464 
L 194.447241 121.990599 
L 197.950363 122.095654 
L 201.453485 121.96237 
L 204.956607 130.397569 
L 208.459729 130.342209 
L 211.962851 121.935339 
L 215.465973 130.223747 
L 218.969096 121.837291 
L 222.472218 147.057569 
L 225.97534 130.246575 
L 229.478462 179.424975 
L 232.981584 130.093923 
L 236.484706 138.566609 
L 239.987828 130.162372 
L 243.49095 138.503164 
L 246.994073 130.174782 
L 250.497195 146.873266 
L 254.000317 138.448877 
L 257.503439 146.67803 
L 261.006561 121.753594 
L 264.509683 164.97093 
L 268.012805 138.299832 
L 271.515927 163.452038 
L 275.01905 155.171867 
L 278.522172 146.57495 
L 282.025294 180.505296 
L 285.528416 171.723842 
L 289.031538 163.31723 
L 292.53466 154.832579 
L 296.037782 146.366223 
L 299.540904 146.626569 
L 303.044027 154.604323 
L 306.547149 179.913589 
L 310.050271 162.993343 
L 313.553393 188.621432 
L 317.056515 146.258725 
L 320.559637 146.195213 
L 324.062759 170.93407 
L 327.565882 171.630068 
L 331.069004 162.788175 
L 334.572126 188.102881 
L 338.075248 154.227866 
L 341.57837 162.644732 
L 345.081492 204.763999 
L 348.584614 162.643892 
L 352.087736 187.644872 
L 355.590859 162.569682 
L 359.093981 162.471606 
L 362.597103 195.953684 
L 366.100225 170.773026 
L 369.603347 194.973358 
L 373.106469 162.267853 
L 376.609591 170.658154 
L 380.112713 187.465598 
L 383.615836 170.44369 
L 387.118958 194.61134 
L 390.62208 200.648187 
L 394.125202 187.400514 
L 397.628324 178.818833 
L 401.131446 178.869029 
L 404.634568 220.608723 
L 408.137691 170.304759 
L 411.640813 195.53955 
L 415.143935 170.407454 
L 418.647057 170.200153 
L 422.150179 178.683427 
L 425.653301 170.180258 
L 429.156423 203.818811 
L 432.659545 186.909847 
" clip-path="url(#p030140ed95)" style="fill: none; stroke: #1f77b4; stroke-width: 1.5; stroke-linecap: square"/>
   </g>
   <g id="line2d_28">
    <path d="M 85.850455 116.57927 
L 89.353577 117.764038 
L 92.856699 117.845998 
L 96.359821 116.098688 
L 99.862943 116.647138 
L 103.366065 116.384251 
L 106.869187 116.407054 
L 110.372309 118.431318 
L 113.875432 116.01452 
L 117.378554 116.01548 
L 120.881676 115.905541 
L 124.384798 115.894784 
L 127.88792 116.123941 
L 131.391042 115.998575 
L 134.894164 115.885655 
L 138.397287 124.480563 
L 141.900409 124.204164 
L 145.403531 115.834194 
L 148.906653 115.74188 
L 152.409775 116.043497 
L 155.912897 115.863304 
L 159.416019 115.649538 
L 162.919141 116.49797 
L 166.422264 115.903926 
L 169.925386 115.903956 
L 173.428508 116.13932 
L 176.93163 116.019418 
L 180.434752 116.165701 
L 183.937874 124.341134 
L 187.440996 119.763172 
L 190.944118 123.908179 
L 194.447241 123.739036 
L 197.950363 132.70919 
L 201.453485 133.187201 
L 204.956607 123.629752 
L 208.459729 133.749265 
L 211.962851 132.154186 
L 215.465973 130.748986 
L 218.969096 132.044587 
L 222.472218 122.429307 
L 225.97534 127.635536 
L 229.478462 122.096589 
L 232.981584 116.492297 
L 236.484706 132.16311 
L 239.987828 125.50802 
L 243.49095 116.05168 
L 246.994073 139.836525 
L 250.497195 129.870551 
L 254.000317 132.641877 
L 257.503439 148.275344 
L 261.006561 124.024068 
L 264.509683 131.608758 
L 268.012805 124.212411 
L 271.515927 143.265442 
L 275.01905 131.26446 
L 278.522172 144.965492 
L 282.025294 163.12366 
L 285.528416 131.808838 
L 289.031538 141.248532 
L 292.53466 138.626137 
L 296.037782 141.82155 
L 299.540904 133.599089 
L 303.044027 138.369494 
L 306.547149 149.126751 
L 310.050271 163.888075 
L 313.553393 165.781343 
L 317.056515 141.067842 
L 320.559637 151.397924 
L 324.062759 173.672252 
L 327.565882 141.181643 
L 331.069004 158.669795 
L 334.572126 142.503279 
L 338.075248 156.50277 
L 341.57837 176.091331 
L 345.081492 164.454584 
L 348.584614 170.66649 
L 352.087736 163.418838 
L 355.590859 173.737006 
L 359.093981 165.90515 
L 362.597103 170.416748 
L 366.100225 169.371021 
L 369.603347 164.429661 
L 373.106469 171.77093 
L 376.609591 172.948212 
L 380.112713 181.004065 
L 383.615836 162.434738 
L 387.118958 180.193416 
L 390.62208 194.230756 
L 394.125202 152.843397 
L 397.628324 172.875748 
L 401.131446 172.823328 
L 404.634568 179.653702 
L 408.137691 157.89046 
L 411.640813 168.70333 
L 415.143935 202.855867 
L 418.647057 181.287981 
L 422.150179 172.612544 
L 425.653301 182.442876 
L 429.156423 166.867136 
L 432.659545 156.113815 
" clip-path="url(#p030140ed95)" style="fill: none; stroke: #ff7f0e; stroke-width: 1.5; stroke-linecap: square"/>
   </g>
   <g id="line2d_29">
    <path d="M 85.850455 80.138258 
L 89.353577 80.11885 
L 92.856699 80.181185 
L 96.359821 80.346644 
L 99.862943 80.288531 
L 103.366065 80.146577 
L 106.869187 80.193848 
L 110.372309 80.163202 
L 113.875432 80.200554 
L 117.378554 80.247187 
L 120.881676 80.261763 
L 124.384798 80.374711 
L 127.88792 80.191984 
L 131.391042 80.246569 
L 134.894164 80.24689 
L 138.397287 80.326916 
L 141.900409 80.285602 
L 145.403531 80.292192 
L 148.906653 80.157963 
L 152.409775 80.384424 
L 155.912897 80.268807 
L 159.416019 80.386949 
L 162.919141 80.340174 
L 166.422264 80.300708 
L 169.925386 80.287402 
L 173.428508 80.464467 
L 176.93163 80.340906 
L 180.434752 80.447425 
L 183.937874 80.397691 
L 187.440996 80.487951 
L 190.944118 80.303009 
L 194.447241 80.343386 
L 197.950363 80.402967 
L 201.453485 80.316478 
L 204.956607 80.360558 
L 208.459729 80.465056 
L 211.962851 80.356523 
L 215.465973 80.267986 
L 218.969096 80.310293 
L 222.472218 80.372589 
L 225.97534 80.431143 
L 229.478462 80.455299 
L 232.981584 80.515107 
L 236.484706 80.39918 
L 239.987828 80.480904 
L 243.49095 80.410639 
L 246.994073 80.479218 
L 250.497195 80.446821 
L 254.000317 80.517373 
L 257.503439 80.43993 
L 261.006561 80.425331 
L 264.509683 80.544985 
L 268.012805 80.474426 
L 271.515927 80.533149 
L 275.01905 80.546322 
L 278.522172 80.511544 
L 282.025294 80.557288 
L 285.528416 80.560286 
L 289.031538 80.585312 
L 292.53466 80.650507 
L 296.037782 80.574682 
L 299.540904 80.679087 
L 303.044027 80.730838 
L 306.547149 89.028024 
L 310.050271 89.015845 
L 313.553393 88.951092 
L 317.056515 88.852098 
L 320.559637 88.871054 
L 324.062759 88.904213 
L 327.565882 88.885263 
L 331.069004 88.803419 
L 334.572126 88.779564 
L 338.075248 88.785931 
L 341.57837 88.741892 
L 345.081492 88.708494 
L 348.584614 88.733 
L 352.087736 88.752006 
L 355.590859 88.720539 
L 359.093981 88.640452 
L 362.597103 88.666117 
L 366.100225 88.661766 
L 369.603347 88.537284 
L 373.106469 88.572851 
L 376.609591 88.451939 
L 380.112713 88.414404 
L 383.615836 88.3961 
L 387.118958 88.369598 
L 390.62208 88.388319 
L 394.125202 88.319325 
L 397.628324 88.281629 
L 401.131446 88.232927 
L 404.634568 88.173921 
L 408.137691 88.213673 
L 411.640813 88.154086 
L 415.143935 88.165656 
L 418.647057 88.27962 
L 422.150179 88.157757 
L 425.653301 88.15928 
L 429.156423 88.162896 
L 432.659545 88.141049 
" clip-path="url(#p030140ed95)" style="fill: none; stroke: #2ca02c; stroke-width: 1.5; stroke-linecap: square"/>
   </g>
   <g id="patch_3">
    <path d="M 68.51 299.32 
L 68.51 32.64 
" style="fill: none; stroke: #000000; stroke-width: 0.8; stroke-linejoin: miter; stroke-linecap: square"/>
   </g>
   <g id="patch_4">
    <path d="M 450 299.32 
L 450 32.64 
" style="fill: none; stroke: #000000; stroke-width: 0.8; stroke-linejoin: miter; stroke-linecap: square"/>
   </g>
   <g id="patch_5">
    <path d="M 68.51 299.32 
L 450 299.32 
" style="fill: none; stroke: #000000; stroke-width: 0.8; stroke-linejoin: miter; stroke-linecap: square"/>
   </g>
   <g id="patch_6">
    <path d="M 68.51 32.64 
L 450 32.64 
" style="fill: none; stroke: #000000; stroke-width: 0.8; stroke-linejoin: miter; stroke-linecap: square"/>
   </g>
   <g id="text_16">
    <!-- Pendulum Mass Robustness Comparison -->
    <g transform="translate(31.514375 26.64) scale(0.2 -0.2)">
     <defs>
      <path id="DejaVuSans-Bold-50" d="M 588 4666 
L 2584 4666 
Q 3475 4666 3951 4270 
Q 4428 3875 4428 3144 
Q 4428 2409 3951 2014 
Q 3475 1619 2584 1619 
L 1791 1619 
L 1791 0 
L 588 0 
L 588 4666 
z
M 1791 3794 
L 1791 2491 
L 2456 2491 
Q 2806 2491 2997 2661 
Q 3188 2831 3188 3144 
Q 3188 3456 2997 3625 
Q 2806 3794 2456 3794 
L 1791 3794 
z
" transform="scale(0.015625)"/>
      <path id="DejaVuSans-Bold-65" d="M 4031 1759 
L 4031 1441 
L 1416 1441 
Q 1456 1047 1700 850 
Q 1944 653 2381 653 
Q 2734 653 3104 758 
Q 3475 863 3866 1075 
L 3866 213 
Q 3469 63 3072 -14 
Q 2675 -91 2278 -91 
Q 1328 -91 801 392 
Q 275 875 275 1747 
Q 275 2603 792 3093 
Q 1309 3584 2216 3584 
Q 3041 3584 3536 3087 
Q 4031 2591 4031 1759 
z
M 2881 2131 
Q 2881 2450 2695 2645 
Q 2509 2841 2209 2841 
Q 1884 2841 1681 2658 
Q 1478 2475 1428 2131 
L 2881 2131 
z
" transform="scale(0.015625)"/>
      <path id="DejaVuSans-Bold-6e" d="M 4056 2131 
L 4056 0 
L 2931 0 
L 2931 347 
L 2931 1631 
Q 2931 2084 2911 2256 
Q 2891 2428 2841 2509 
Q 2775 2619 2662 2680 
Q 2550 2741 2406 2741 
Q 2056 2741 1856 2470 
Q 1656 2200 1656 1722 
L 1656 0 
L 538 0 
L 538 3500 
L 1656 3500 
L 1656 2988 
Q 1909 3294 2193 3439 
Q 2478 3584 2822 3584 
Q 3428 3584 3742 3212 
Q 4056 2841 4056 2131 
z
" transform="scale(0.015625)"/>
      <path id="DejaVuSans-Bold-64" d="M 2919 2988 
L 2919 4863 
L 4044 4863 
L 4044 0 
L 2919 0 
L 2919 506 
Q 2688 197 2409 53 
Q 2131 -91 1766 -91 
Q 1119 -91 703 423 
Q 288 938 288 1747 
Q 288 2556 703 3070 
Q 1119 3584 1766 3584 
Q 2128 3584 2408 3439 
Q 2688 3294 2919 2988 
z
M 2181 722 
Q 2541 722 2730 984 
Q 2919 1247 2919 1747 
Q 2919 2247 2730 2509 
Q 2541 2772 2181 2772 
Q 1825 2772 1636 2509 
Q 1447 2247 1447 1747 
Q 1447 1247 1636 984 
Q 1825 722 2181 722 
z
" transform="scale(0.015625)"/>
      <path id="DejaVuSans-Bold-75" d="M 500 1363 
L 500 3500 
L 1625 3500 
L 1625 3150 
Q 1625 2866 1622 2436 
Q 1619 2006 1619 1863 
Q 1619 1441 1641 1255 
Q 1663 1069 1716 984 
Q 1784 875 1895 815 
Q 2006 756 2150 756 
Q 2500 756 2700 1025 
Q 2900 1294 2900 1772 
L 2900 3500 
L 4019 3500 
L 4019 0 
L 2900 0 
L 2900 506 
Q 2647 200 2364 54 
Q 2081 -91 1741 -91 
Q 1134 -91 817 281 
Q 500 653 500 1363 
z
" transform="scale(0.015625)"/>
      <path id="DejaVuSans-Bold-6c" d="M 538 4863 
L 1656 4863 
L 1656 0 
L 538 0 
L 538 4863 
z
" transform="scale(0.015625)"/>
      <path id="DejaVuSans-Bold-6d" d="M 3781 2919 
Q 3994 3244 4286 3414 
Q 4578 3584 4928 3584 
Q 5531 3584 5847 3212 
Q 6163 2841 6163 2131 
L 6163 0 
L 5038 0 
L 5038 1825 
Q 5041 1866 5042 1909 
Q 5044 1953 5044 2034 
Q 5044 2406 4934 2573 
Q 4825 2741 4581 2741 
Q 4263 2741 4089 2478 
Q 3916 2216 3909 1719 
L 3909 0 
L 2784 0 
L 2784 1825 
Q 2784 2406 2684 2573 
Q 2584 2741 2328 2741 
Q 2006 2741 1831 2477 
Q 1656 2213 1656 1722 
L 1656 0 
L 531 0 
L 531 3500 
L 1656 3500 
L 1656 2988 
Q 1863 3284 2130 3434 
Q 2397 3584 2719 3584 
Q 3081 3584 3359 3409 
Q 3638 3234 3781 2919 
z
" transform="scale(0.015625)"/>
      <path id="DejaVuSans-Bold-20" transform="scale(0.015625)"/>
      <path id="DejaVuSans-Bold-4d" d="M 588 4666 
L 2119 4666 
L 3181 2169 
L 4250 4666 
L 5778 4666 
L 5778 0 
L 4641 0 
L 4641 3413 
L 3566 897 
L 2803 897 
L 1728 3413 
L 1728 0 
L 588 0 
L 588 4666 
z
" transform="scale(0.015625)"/>
      <path id="DejaVuSans-Bold-61" d="M 2106 1575 
Q 1756 1575 1579 1456 
Q 1403 1338 1403 1106 
Q 1403 894 1545 773 
Q 1688 653 1941 653 
Q 2256 653 2472 879 
Q 2688 1106 2688 1447 
L 2688 1575 
L 2106 1575 
z
M 3816 1997 
L 3816 0 
L 2688 0 
L 2688 519 
Q 2463 200 2181 54 
Q 1900 -91 1497 -91 
Q 953 -91 614 226 
Q 275 544 275 1050 
Q 275 1666 698 1953 
Q 1122 2241 2028 2241 
L 2688 2241 
L 2688 2328 
Q 2688 2594 2478 2717 
Q 2269 2841 1825 2841 
Q 1466 2841 1156 2769 
Q 847 2697 581 2553 
L 581 3406 
Q 941 3494 1303 3539 
Q 1666 3584 2028 3584 
Q 2975 3584 3395 3211 
Q 3816 2838 3816 1997 
z
" transform="scale(0.015625)"/>
      <path id="DejaVuSans-Bold-73" d="M 3272 3391 
L 3272 2541 
Q 2913 2691 2578 2766 
Q 2244 2841 1947 2841 
Q 1628 2841 1473 2761 
Q 1319 2681 1319 2516 
Q 1319 2381 1436 2309 
Q 1553 2238 1856 2203 
L 2053 2175 
Q 2913 2066 3209 1816 
Q 3506 1566 3506 1031 
Q 3506 472 3093 190 
Q 2681 -91 1863 -91 
Q 1516 -91 1145 -36 
Q 775 19 384 128 
L 384 978 
Q 719 816 1070 734 
Q 1422 653 1784 653 
Q 2113 653 2278 743 
Q 2444 834 2444 1013 
Q 2444 1163 2330 1236 
Q 2216 1309 1875 1350 
L 1678 1375 
Q 931 1469 631 1722 
Q 331 1975 331 2491 
Q 331 3047 712 3315 
Q 1094 3584 1881 3584 
Q 2191 3584 2531 3537 
Q 2872 3491 3272 3391 
z
" transform="scale(0.015625)"/>
      <path id="DejaVuSans-Bold-52" d="M 2297 2597 
Q 2675 2597 2839 2737 
Q 3003 2878 3003 3200 
Q 3003 3519 2839 3656 
Q 2675 3794 2297 3794 
L 1791 3794 
L 1791 2597 
L 2297 2597 
z
M 1791 1766 
L 1791 0 
L 588 0 
L 588 4666 
L 2425 4666 
Q 3347 4666 3776 4356 
Q 4206 4047 4206 3378 
Q 4206 2916 3982 2619 
Q 3759 2322 3309 2181 
Q 3556 2125 3751 1926 
Q 3947 1728 4147 1325 
L 4800 0 
L 3519 0 
L 2950 1159 
Q 2778 1509 2601 1637 
Q 2425 1766 2131 1766 
L 1791 1766 
z
" transform="scale(0.015625)"/>
      <path id="DejaVuSans-Bold-6f" d="M 2203 2784 
Q 1831 2784 1636 2517 
Q 1441 2250 1441 1747 
Q 1441 1244 1636 976 
Q 1831 709 2203 709 
Q 2569 709 2762 976 
Q 2956 1244 2956 1747 
Q 2956 2250 2762 2517 
Q 2569 2784 2203 2784 
z
M 2203 3584 
Q 3106 3584 3614 3096 
Q 4122 2609 4122 1747 
Q 4122 884 3614 396 
Q 3106 -91 2203 -91 
Q 1297 -91 786 396 
Q 275 884 275 1747 
Q 275 2609 786 3096 
Q 1297 3584 2203 3584 
z
" transform="scale(0.015625)"/>
      <path id="DejaVuSans-Bold-62" d="M 2400 722 
Q 2759 722 2948 984 
Q 3138 1247 3138 1747 
Q 3138 2247 2948 2509 
Q 2759 2772 2400 2772 
Q 2041 2772 1848 2508 
Q 1656 2244 1656 1747 
Q 1656 1250 1848 986 
Q 2041 722 2400 722 
z
M 1656 2988 
Q 1888 3294 2169 3439 
Q 2450 3584 2816 3584 
Q 3463 3584 3878 3070 
Q 4294 2556 4294 1747 
Q 4294 938 3878 423 
Q 3463 -91 2816 -91 
Q 2450 -91 2169 54 
Q 1888 200 1656 506 
L 1656 0 
L 538 0 
L 538 4863 
L 1656 4863 
L 1656 2988 
z
" transform="scale(0.015625)"/>
      <path id="DejaVuSans-Bold-74" d="M 1759 4494 
L 1759 3500 
L 2913 3500 
L 2913 2700 
L 1759 2700 
L 1759 1216 
Q 1759 972 1856 886 
Q 1953 800 2241 800 
L 2816 800 
L 2816 0 
L 1856 0 
Q 1194 0 917 276 
Q 641 553 641 1216 
L 641 2700 
L 84 2700 
L 84 3500 
L 641 3500 
L 641 4494 
L 1759 4494 
z
" transform="scale(0.015625)"/>
      <path id="DejaVuSans-Bold-43" d="M 4288 256 
Q 3956 84 3597 -3 
Q 3238 -91 2847 -91 
Q 1681 -91 1000 561 
Q 319 1213 319 2328 
Q 319 3447 1000 4098 
Q 1681 4750 2847 4750 
Q 3238 4750 3597 4662 
Q 3956 4575 4288 4403 
L 4288 3438 
Q 3953 3666 3628 3772 
Q 3303 3878 2944 3878 
Q 2300 3878 1931 3465 
Q 1563 3053 1563 2328 
Q 1563 1606 1931 1193 
Q 2300 781 2944 781 
Q 3303 781 3628 887 
Q 3953 994 4288 1222 
L 4288 256 
z
" transform="scale(0.015625)"/>
      <path id="DejaVuSans-Bold-70" d="M 1656 506 
L 1656 -1331 
L 538 -1331 
L 538 3500 
L 1656 3500 
L 1656 2988 
Q 1888 3294 2169 3439 
Q 2450 3584 2816 3584 
Q 3463 3584 3878 3070 
Q 4294 2556 4294 1747 
Q 4294 938 3878 423 
Q 3463 -91 2816 -91 
Q 2450 -91 2169 54 
Q 1888 200 1656 506 
z
M 2400 2772 
Q 2041 2772 1848 2508 
Q 1656 2244 1656 1747 
Q 1656 1250 1848 986 
Q 2041 722 2400 722 
Q 2759 722 2948 984 
Q 3138 1247 3138 1747 
Q 3138 2247 2948 2509 
Q 2759 2772 2400 2772 
z
" transform="scale(0.015625)"/>
      <path id="DejaVuSans-Bold-72" d="M 3138 2547 
Q 2991 2616 2845 2648 
Q 2700 2681 2553 2681 
Q 2122 2681 1889 2404 
Q 1656 2128 1656 1613 
L 1656 0 
L 538 0 
L 538 3500 
L 1656 3500 
L 1656 2925 
Q 1872 3269 2151 3426 
Q 2431 3584 2822 3584 
Q 2878 3584 2943 3579 
Q 3009 3575 3134 3559 
L 3138 2547 
z
" transform="scale(0.015625)"/>
      <path id="DejaVuSans-Bold-69" d="M 538 3500 
L 1656 3500 
L 1656 0 
L 538 0 
L 538 3500 
z
M 538 4863 
L 1656 4863 
L 1656 3950 
L 538 3950 
L 538 4863 
z
" transform="scale(0.015625)"/>
     </defs>
     <use xlink:href="#DejaVuSans-Bold-50"/>
     <use xlink:href="#DejaVuSans-Bold-65" x="73.291016"/>
     <use xlink:href="#DejaVuSans-Bold-6e" x="141.113281"/>
     <use xlink:href="#DejaVuSans-Bold-64" x="212.304688"/>
     <use xlink:href="#DejaVuSans-Bold-75" x="283.886719"/>
     <use xlink:href="#DejaVuSans-Bold-6c" x="355.078125"/>
     <use xlink:href="#DejaVuSans-Bold-75" x="389.355469"/>
     <use xlink:href="#DejaVuSans-Bold-6d" x="460.546875"/>
     <use xlink:href="#DejaVuSans-Bold-20" x="564.746094"/>
     <use xlink:href="#DejaVuSans-Bold-4d" x="599.560547"/>
     <use xlink:href="#DejaVuSans-Bold-61" x="699.072266"/>
     <use xlink:href="#DejaVuSans-Bold-73" x="766.552734"/>
     <use xlink:href="#DejaVuSans-Bold-73" x="826.074219"/>
     <use xlink:href="#DejaVuSans-Bold-20" x="885.595703"/>
     <use xlink:href="#DejaVuSans-Bold-52" x="920.410156"/>
     <use xlink:href="#DejaVuSans-Bold-6f" x="997.412109"/>
     <use xlink:href="#DejaVuSans-Bold-62" x="1066.113281"/>
     <use xlink:href="#DejaVuSans-Bold-75" x="1137.695312"/>
     <use xlink:href="#DejaVuSans-Bold-73" x="1208.886719"/>
     <use xlink:href="#DejaVuSans-Bold-74" x="1268.408203"/>
     <use xlink:href="#DejaVuSans-Bold-6e" x="1316.210938"/>
     <use xlink:href="#DejaVuSans-Bold-65" x="1387.402344"/>
     <use xlink:href="#DejaVuSans-Bold-73" x="1455.224609"/>
     <use xlink:href="#DejaVuSans-Bold-73" x="1514.746094"/>
     <use xlink:href="#DejaVuSans-Bold-20" x="1574.267578"/>
     <use xlink:href="#DejaVuSans-Bold-43" x="1609.082031"/>
     <use xlink:href="#DejaVuSans-Bold-6f" x="1682.470703"/>
     <use xlink:href="#DejaVuSans-Bold-6d" x="1751.171875"/>
     <use xlink:href="#DejaVuSans-Bold-70" x="1855.371094"/>
     <use xlink:href="#DejaVuSans-Bold-61" x="1926.953125"/>
     <use xlink:href="#DejaVuSans-Bold-72" x="1994.433594"/>
     <use xlink:href="#DejaVuSans-Bold-69" x="2043.75"/>
     <use xlink:href="#DejaVuSans-Bold-73" x="2078.027344"/>
     <use xlink:href="#DejaVuSans-Bold-6f" x="2137.548828"/>
     <use xlink:href="#DejaVuSans-Bold-6e" x="2206.25"/>
    </g>
   </g>
   <g id="legend_1">
    <g id="patch_7">
     <path d="M 383.482813 84.674375 
L 443 84.674375 
Q 445 84.674375 445 82.674375 
L 445 39.64 
Q 445 37.64 443 37.64 
L 383.482813 37.64 
Q 381.482813 37.64 381.482813 39.64 
L 381.482813 82.674375 
Q 381.482813 84.674375 383.482813 84.674375 
z
" style="fill: #ffffff; opacity: 0.8; stroke: #cccccc; stroke-linejoin: miter"/>
    </g>
    <g id="line2d_30">
     <path d="M 385.482813 45.738437 
L 395.482813 45.738437 
L 405.482813 45.738437 
" style="fill: none; stroke: #1f77b4; stroke-width: 1.5; stroke-linecap: square"/>
    </g>
    <g id="text_17">
     <!-- SHAC -->
     <g transform="translate(413.482813 49.238437) scale(0.1 -0.1)">
      <defs>
       <path id="DejaVuSans-53" d="M 3425 4513 
L 3425 3897 
Q 3066 4069 2747 4153 
Q 2428 4238 2131 4238 
Q 1616 4238 1336 4038 
Q 1056 3838 1056 3469 
Q 1056 3159 1242 3001 
Q 1428 2844 1947 2747 
L 2328 2669 
Q 3034 2534 3370 2195 
Q 3706 1856 3706 1288 
Q 3706 609 3251 259 
Q 2797 -91 1919 -91 
Q 1588 -91 1214 -16 
Q 841 59 441 206 
L 441 856 
Q 825 641 1194 531 
Q 1563 422 1919 422 
Q 2459 422 2753 634 
Q 3047 847 3047 1241 
Q 3047 1584 2836 1778 
Q 2625 1972 2144 2069 
L 1759 2144 
Q 1053 2284 737 2584 
Q 422 2884 422 3419 
Q 422 4038 858 4394 
Q 1294 4750 2059 4750 
Q 2388 4750 2728 4690 
Q 3069 4631 3425 4513 
z
" transform="scale(0.015625)"/>
       <path id="DejaVuSans-48" d="M 628 4666 
L 1259 4666 
L 1259 2753 
L 3553 2753 
L 3553 4666 
L 4184 4666 
L 4184 0 
L 3553 0 
L 3553 2222 
L 1259 2222 
L 1259 0 
L 628 0 
L 628 4666 
z
" transform="scale(0.015625)"/>
       <path id="DejaVuSans-41" d="M 2188 4044 
L 1331 1722 
L 3047 1722 
L 2188 4044 
z
M 1831 4666 
L 2547 4666 
L 4325 0 
L 3669 0 
L 3244 1197 
L 1141 1197 
L 716 0 
L 50 0 
L 1831 4666 
z
" transform="scale(0.015625)"/>
       <path id="DejaVuSans-43" d="M 4122 4306 
L 4122 3641 
Q 3803 3938 3442 4084 
Q 3081 4231 2675 4231 
Q 1875 4231 1450 3742 
Q 1025 3253 1025 2328 
Q 1025 1406 1450 917 
Q 1875 428 2675 428 
Q 3081 428 3442 575 
Q 3803 722 4122 1019 
L 4122 359 
Q 3791 134 3420 21 
Q 3050 -91 2638 -91 
Q 1578 -91 968 557 
Q 359 1206 359 2328 
Q 359 3453 968 4101 
Q 1578 4750 2638 4750 
Q 3056 4750 3426 4639 
Q 3797 4528 4122 4306 
z
" transform="scale(0.015625)"/>
      </defs>
      <use xlink:href="#DejaVuSans-53"/>
      <use xlink:href="#DejaVuSans-48" x="63.476562"/>
      <use xlink:href="#DejaVuSans-41" x="138.671875"/>
      <use xlink:href="#DejaVuSans-43" x="205.330078"/>
     </g>
    </g>
    <g id="line2d_31">
     <path d="M 385.482813 60.416562 
L 395.482813 60.416562 
L 405.482813 60.416562 
" style="fill: none; stroke: #ff7f0e; stroke-width: 1.5; stroke-linecap: square"/>
    </g>
    <g id="text_18">
     <!-- PPO -->
     <g transform="translate(413.482813 63.916562) scale(0.1 -0.1)">
      <defs>
       <path id="DejaVuSans-4f" d="M 2522 4238 
Q 1834 4238 1429 3725 
Q 1025 3213 1025 2328 
Q 1025 1447 1429 934 
Q 1834 422 2522 422 
Q 3209 422 3611 934 
Q 4013 1447 4013 2328 
Q 4013 3213 3611 3725 
Q 3209 4238 2522 4238 
z
M 2522 4750 
Q 3503 4750 4090 4092 
Q 4678 3434 4678 2328 
Q 4678 1225 4090 567 
Q 3503 -91 2522 -91 
Q 1538 -91 948 565 
Q 359 1222 359 2328 
Q 359 3434 948 4092 
Q 1538 4750 2522 4750 
z
" transform="scale(0.015625)"/>
      </defs>
      <use xlink:href="#DejaVuSans-50"/>
      <use xlink:href="#DejaVuSans-50" x="60.302734"/>
      <use xlink:href="#DejaVuSans-4f" x="120.605469"/>
     </g>
    </g>
    <g id="line2d_32">
     <path d="M 385.482813 75.094687 
L 395.482813 75.094687 
L 405.482813 75.094687 
" style="fill: none; stroke: #2ca02c; stroke-width: 1.5; stroke-linecap: square"/>
    </g>
    <g id="text_19">
     <!-- SAC -->
     <g transform="translate(413.482813 78.594687) scale(0.1 -0.1)">
      <use xlink:href="#DejaVuSans-53"/>
      <use xlink:href="#DejaVuSans-41" x="65.351562"/>
      <use xlink:href="#DejaVuSans-43" x="132.009766"/>
     </g>
    </g>
   </g>
  </g>
 </g>
 <defs>
  <clipPath id="p030140ed95">
   <rect x="68.51" y="32.64" width="381.49" height="266.68"/>
  </clipPath>
 </defs>
</svg>
