<?xml version="1.0" encoding="utf-8" standalone="no"?>
<!DOCTYPE svg PUBLIC "-//W3C//DTD SVG 1.1//EN"
  "http://www.w3.org/Graphics/SVG/1.1/DTD/svg11.dtd">
<svg xmlns:xlink="http://www.w3.org/1999/xlink" width="864pt" height="576pt" viewBox="0 0 864 576" xmlns="http://www.w3.org/2000/svg" version="1.1">
 <metadata>
  <rdf:RDF xmlns:dc="http://purl.org/dc/elements/1.1/" xmlns:cc="http://creativecommons.org/ns#" xmlns:rdf="http://www.w3.org/1999/02/22-rdf-syntax-ns#">
   <cc:Work>
    <dc:type rdf:resource="http://purl.org/dc/dcmitype/StillImage"/>
    <dc:date>2024-07-26T09:02:54.060464</dc:date>
    <dc:format>image/svg+xml</dc:format>
    <dc:creator>
     <cc:Agent>
      <dc:title>Matplotlib v3.8.4, https://matplotlib.org/</dc:title>
     </cc:Agent>
    </dc:creator>
   </cc:Work>
  </rdf:RDF>
 </metadata>
 <defs>
  <style type="text/css">*{stroke-linejoin: round; stroke-linecap: butt}</style>
 </defs>
 <g id="figure_1">
  <g id="patch_1">
   <path d="M 0 576 
L 864 576 
L 864 0 
L 0 0 
z
" style="fill: #f2d8bd"/>
  </g>
  <g id="axes_1">
   <g id="patch_2">
    <path d="M 108 512.64 
L 777.6 512.64 
L 777.6 69.12 
L 108 69.12 
z
" style="fill: #ffffff"/>
   </g>
   <g id="PolyCollection_1">
    <defs>
     <path id="m180d176364" d="M 138.436364 -402.685025 
L 138.436364 -398.49869 
L 144.844019 -398.502267 
L 151.251675 -398.494449 
L 157.65933 -398.577789 
L 164.066986 -398.615221 
L 170.474641 -398.657332 
L 176.882297 -398.683348 
L 183.289952 -398.666867 
L 189.697608 -398.694443 
L 196.105263 -398.732902 
L 202.512919 -398.734493 
L 208.920574 -398.800731 
L 215.32823 -398.830321 
L 221.735885 -398.811753 
L 228.143541 -398.777263 
L 234.551196 -398.764293 
L 240.958852 -398.787115 
L 247.366507 -398.849752 
L 253.774163 -398.960421 
L 260.181818 -399.050618 
L 266.589474 -399.108502 
L 272.997129 -399.12755 
L 279.404785 -399.135189 
L 285.81244 -399.163546 
L 292.220096 -399.147581 
L 298.627751 -399.149044 
L 305.035407 -399.047792 
L 311.443062 -398.982774 
L 317.850718 -398.921694 
L 324.258373 -398.91739 
L 330.666029 -398.912877 
L 337.073684 -398.965164 
L 343.48134 -399.007453 
L 349.888995 -399.012544 
L 356.296651 -398.958632 
L 362.704306 -398.966783 
L 369.111962 -390.800268 
L 375.519617 -382.921384 
L 381.927273 -382.930897 
L 388.334928 -382.975846 
L 394.742584 -323.862364 
L 401.150239 -324.232088 
L 407.557895 -324.172984 
L 413.96555 -316.310881 
L 420.373206 -254.885975 
L 426.780861 -306.184166 
L 433.188517 -253.150513 
L 439.596172 -197.873955 
L 446.003828 -143.315196 
L 452.411483 -142.596724 
L 458.819139 -88.929134 
L 465.226794 -87.142306 
L 471.63445 -88.323355 
L 478.042105 -88.322833 
L 484.449761 -88.115544 
L 490.857416 -87.522695 
L 497.265072 -88.021199 
L 503.672727 -87.87714 
L 510.080383 -88.435409 
L 516.488038 -89.400276 
L 522.895694 -89.346665 
L 529.303349 -89.265356 
L 535.711005 -89.498181 
L 542.11866 -89.233068 
L 548.526316 -87.886691 
L 554.933971 -87.614484 
L 561.341627 -86.447308 
L 567.749282 -86.222414 
L 574.156938 -84.54963 
L 580.564593 -83.83784 
L 586.972249 -83.52 
L 593.379904 -84.982791 
L 599.78756 -84.913494 
L 606.195215 -86.521864 
L 612.602871 -87.307311 
L 619.010526 -88.006588 
L 625.418182 -87.693893 
L 631.825837 -87.212551 
L 638.233493 -88.052875 
L 644.641148 -88.17843 
L 651.048804 -88.238918 
L 657.456459 -87.70043 
L 663.864115 -88.460586 
L 670.27177 -87.906824 
L 676.679426 -88.686527 
L 683.087081 -88.449658 
L 689.494737 -89.19623 
L 695.902392 -90.803438 
L 702.310048 -90.961775 
L 708.717703 -91.105854 
L 715.125359 -89.784559 
L 721.533014 -90.111896 
L 727.94067 -88.692934 
L 734.348325 -138.887532 
L 740.755981 -141.085698 
L 747.163636 -142.200834 
L 747.163636 -466.569409 
L 747.163636 -466.569409 
L 740.755981 -466.947448 
L 734.348325 -467.590865 
L 727.94067 -482.965683 
L 721.533014 -482.374844 
L 715.125359 -482.474077 
L 708.717703 -482.006382 
L 702.310048 -482.105111 
L 695.902392 -482.123305 
L 689.494737 -482.72384 
L 683.087081 -482.993942 
L 676.679426 -482.911063 
L 670.27177 -483.196449 
L 663.864115 -483.067425 
L 657.456459 -483.287922 
L 651.048804 -483.072921 
L 644.641148 -483.142561 
L 638.233493 -483.098395 
L 631.825837 -483.334022 
L 625.418182 -483.180551 
L 619.010526 -483.108912 
L 612.602871 -483.289201 
L 606.195215 -483.643119 
L 599.78756 -484.185118 
L 593.379904 -484.15628 
L 586.972249 -484.616041 
L 580.564593 -484.575783 
L 574.156938 -484.235278 
L 567.749282 -483.713938 
L 561.341627 -483.5635 
L 554.933971 -483.131068 
L 548.526316 -482.986018 
L 542.11866 -482.540524 
L 535.711005 -482.379514 
L 529.303349 -482.457572 
L 522.895694 -482.361734 
L 516.488038 -482.284261 
L 510.080383 -482.521489 
L 503.672727 -482.701062 
L 497.265072 -482.56052 
L 490.857416 -482.815173 
L 484.449761 -482.644894 
L 478.042105 -482.657749 
L 471.63445 -482.611199 
L 465.226794 -483.014665 
L 458.819139 -486.72 
L 452.411483 -473.059367 
L 446.003828 -472.586747 
L 439.596172 -458.678473 
L 433.188517 -444.396225 
L 426.780861 -426.593252 
L 420.373206 -443.823205 
L 413.96555 -428.006605 
L 407.557895 -425.692598 
L 401.150239 -425.868166 
L 394.742584 -426.059481 
L 388.334928 -406.566149 
L 381.927273 -406.686019 
L 375.519617 -406.706544 
L 369.111962 -404.382818 
L 362.704306 -401.983035 
L 356.296651 -401.98724 
L 349.888995 -402.031158 
L 343.48134 -402.023533 
L 337.073684 -402.034003 
L 330.666029 -402.061571 
L 324.258373 -402.145393 
L 317.850718 -402.157644 
L 311.443062 -402.191273 
L 305.035407 -402.249264 
L 298.627751 -402.228919 
L 292.220096 -402.076934 
L 285.81244 -402.077194 
L 279.404785 -401.990976 
L 272.997129 -402.035324 
L 266.589474 -402.037994 
L 260.181818 -402.11646 
L 253.774163 -402.165094 
L 247.366507 -402.329811 
L 240.958852 -402.364314 
L 234.551196 -402.339388 
L 228.143541 -402.405299 
L 221.735885 -402.377098 
L 215.32823 -402.370829 
L 208.920574 -402.218993 
L 202.512919 -402.34489 
L 196.105263 -402.301114 
L 189.697608 -402.413535 
L 183.289952 -402.444469 
L 176.882297 -402.587832 
L 170.474641 -402.515133 
L 164.066986 -402.563847 
L 157.65933 -402.511443 
L 151.251675 -402.599561 
L 144.844019 -402.591007 
L 138.436364 -402.685025 
z
" style="stroke: #ff7700; stroke-opacity: 0.2"/>
    </defs>
    <g clip-path="url(#p189b6e587b)">
     <use xlink:href="#m180d176364" x="0" y="576" style="fill: #ff7700; fill-opacity: 0.2; stroke: #ff7700; stroke-opacity: 0.2"/>
    </g>
   </g>
   <g id="PolyCollection_2">
    <defs>
     <path id="meff2f2f0aa" d="M 138.436364 -414.316224 
L 138.436364 -302.729959 
L 144.844019 -302.893773 
L 151.251675 -303.030605 
L 157.65933 -303.140307 
L 164.066986 -303.190199 
L 170.474641 -303.294859 
L 176.882297 -303.398484 
L 183.289952 -303.455954 
L 189.697608 -303.560599 
L 196.105263 -303.583709 
L 202.512919 -303.654481 
L 208.920574 -303.712988 
L 215.32823 -303.868267 
L 221.735885 -303.910833 
L 228.143541 -303.984246 
L 234.551196 -304.130305 
L 240.958852 -304.254582 
L 247.366507 -304.282078 
L 253.774163 -304.331541 
L 260.181818 -304.420725 
L 266.589474 -304.399811 
L 272.997129 -304.432381 
L 279.404785 -304.471563 
L 285.81244 -304.612156 
L 292.220096 -304.638228 
L 298.627751 -304.692994 
L 305.035407 -304.660817 
L 311.443062 -299.325644 
L 317.850718 -299.320266 
L 324.258373 -299.441723 
L 330.666029 -294.161652 
L 337.073684 -288.807829 
L 343.48134 -294.261789 
L 349.888995 -282.169494 
L 356.296651 -269.947849 
L 362.704306 -275.386685 
L 369.111962 -268.833715 
L 375.519617 -256.753052 
L 381.927273 -256.854353 
L 388.334928 -257.096642 
L 394.742584 -245.078656 
L 401.150239 -245.163282 
L 407.557895 -245.334825 
L 413.96555 -245.444198 
L 420.373206 -245.508093 
L 426.780861 -245.633158 
L 433.188517 -245.688109 
L 439.596172 -245.775339 
L 446.003828 -245.870044 
L 452.411483 -245.966825 
L 458.819139 -246.028271 
L 465.226794 -246.126082 
L 471.63445 -246.158006 
L 478.042105 -246.175724 
L 484.449761 -246.268373 
L 490.857416 -244.904717 
L 497.265072 -244.965758 
L 503.672727 -245.065515 
L 510.080383 -243.794183 
L 516.488038 -242.438745 
L 522.895694 -242.474412 
L 529.303349 -242.633925 
L 535.711005 -241.222891 
L 542.11866 -242.709977 
L 548.526316 -242.745742 
L 554.933971 -242.861839 
L 561.341627 -242.850387 
L 567.749282 -244.400313 
L 574.156938 -243.036714 
L 580.564593 -237.010843 
L 586.972249 -233.643965 
L 593.379904 -233.71182 
L 599.78756 -232.294019 
L 606.195215 -232.314373 
L 612.602871 -238.479947 
L 619.010526 -241.945214 
L 625.418182 -240.568352 
L 631.825837 -239.878504 
L 638.233493 -241.369563 
L 644.641148 -226.25749 
L 651.048804 -226.281303 
L 657.456459 -226.328537 
L 663.864115 -226.650026 
L 670.27177 -225.266502 
L 676.679426 -234.979958 
L 683.087081 -227.652867 
L 689.494737 -215.044748 
L 695.902392 -197.240736 
L 702.310048 -185.269732 
L 708.717703 -183.347384 
L 715.125359 -183.360594 
L 721.533014 -183.500461 
L 727.94067 -189.904557 
L 734.348325 -189.374587 
L 740.755981 -184.400453 
L 747.163636 -179.934331 
L 747.163636 -381.433462 
L 747.163636 -381.433462 
L 740.755981 -382.468651 
L 734.348325 -394.134445 
L 727.94067 -399.055812 
L 721.533014 -394.168847 
L 715.125359 -394.209553 
L 708.717703 -394.199056 
L 702.310048 -392.228556 
L 695.902392 -391.413051 
L 689.494737 -384.760336 
L 683.087081 -388.906182 
L 676.679426 -387.060296 
L 670.27177 -385.27216 
L 663.864115 -389.414238 
L 657.456459 -395.321367 
L 651.048804 -395.322371 
L 644.641148 -395.305058 
L 638.233493 -397.231805 
L 631.825837 -393.070454 
L 625.418182 -397.887788 
L 619.010526 -402.060554 
L 612.602871 -399.812199 
L 606.195215 -405.863922 
L 599.78756 -405.890271 
L 593.379904 -410.035377 
L 586.972249 -410.013131 
L 580.564593 -412.265143 
L 574.156938 -406.163695 
L 567.749282 -410.28884 
L 561.341627 -406.115339 
L 554.933971 -406.096646 
L 548.526316 -406.073191 
L 542.11866 -406.070945 
L 535.711005 -401.923872 
L 529.303349 -406.092593 
L 522.895694 -406.107467 
L 516.488038 -406.12776 
L 510.080383 -410.309992 
L 503.672727 -414.495788 
L 497.265072 -414.479235 
L 490.857416 -414.472356 
L 484.449761 -418.617116 
L 478.042105 -418.612193 
L 471.63445 -418.594814 
L 465.226794 -418.610871 
L 458.819139 -418.613097 
L 452.411483 -418.657127 
L 446.003828 -418.665336 
L 439.596172 -418.682298 
L 433.188517 -418.696758 
L 426.780861 -418.710049 
L 420.373206 -418.688601 
L 413.96555 -418.705633 
L 407.557895 -418.720728 
L 401.150239 -418.734874 
L 394.742584 -418.712628 
L 388.334928 -417.822241 
L 381.927273 -417.842079 
L 375.519617 -417.844187 
L 369.111962 -416.902258 
L 362.704306 -415.755524 
L 356.296651 -415.480426 
L 349.888995 -414.565257 
L 343.48134 -413.633532 
L 337.073684 -413.37531 
L 330.666029 -413.645509 
L 324.258373 -413.927482 
L 317.850718 -413.909261 
L 311.443062 -413.922348 
L 305.035407 -414.222069 
L 298.627751 -414.241427 
L 292.220096 -414.245102 
L 285.81244 -414.265862 
L 279.404785 -414.266919 
L 272.997129 -414.249219 
L 266.589474 -414.222185 
L 260.181818 -414.204323 
L 253.774163 -414.20109 
L 247.366507 -414.186102 
L 240.958852 -414.175858 
L 234.551196 -414.197759 
L 228.143541 -414.216612 
L 221.735885 -414.217767 
L 215.32823 -414.238636 
L 208.920574 -414.285654 
L 202.512919 -414.280069 
L 196.105263 -414.286017 
L 189.697608 -414.277525 
L 183.289952 -414.26998 
L 176.882297 -414.262264 
L 170.474641 -414.268395 
L 164.066986 -414.285564 
L 157.65933 -414.277425 
L 151.251675 -414.265873 
L 144.844019 -414.28262 
L 138.436364 -414.316224 
z
" style="stroke: #004777; stroke-opacity: 0.2"/>
    </defs>
    <g clip-path="url(#p189b6e587b)">
     <use xlink:href="#meff2f2f0aa" x="0" y="576" style="fill: #004777; fill-opacity: 0.2; stroke: #004777; stroke-opacity: 0.2"/>
    </g>
   </g>
   <g id="PolyCollection_3">
    <defs>
     <path id="m2cfd071d93" d="M 138.436364 -405.681864 
L 138.436364 -398.508185 
L 144.844019 -398.567416 
L 151.251675 -398.531926 
L 157.65933 -398.568546 
L 164.066986 -398.606223 
L 170.474641 -398.623331 
L 176.882297 -398.572011 
L 183.289952 -398.510984 
L 189.697608 -398.519277 
L 196.105263 -398.521234 
L 202.512919 -398.51404 
L 208.920574 -398.538756 
L 215.32823 -398.577997 
L 221.735885 -398.586376 
L 228.143541 -398.650299 
L 234.551196 -398.657589 
L 240.958852 -398.660819 
L 247.366507 -398.710229 
L 253.774163 -398.691394 
L 260.181818 -398.646645 
L 266.589474 -398.715758 
L 272.997129 -398.698383 
L 279.404785 -398.729067 
L 285.81244 -398.721231 
L 292.220096 -398.684597 
L 298.627751 -398.604033 
L 305.035407 -398.651967 
L 311.443062 -398.628195 
L 317.850718 -398.651266 
L 324.258373 -398.755569 
L 330.666029 -398.826666 
L 337.073684 -398.850059 
L 343.48134 -398.86539 
L 349.888995 -398.923255 
L 356.296651 -398.899067 
L 362.704306 -398.901322 
L 369.111962 -398.878756 
L 375.519617 -398.864467 
L 381.927273 -398.827889 
L 388.334928 -398.841056 
L 394.742584 -398.848217 
L 401.150239 -398.892073 
L 407.557895 -398.917585 
L 413.96555 -398.963292 
L 420.373206 -398.953685 
L 426.780861 -398.999526 
L 433.188517 -399.004946 
L 439.596172 -398.962115 
L 446.003828 -398.974448 
L 452.411483 -398.980794 
L 458.819139 -398.961782 
L 465.226794 -398.949889 
L 471.63445 -399.002354 
L 478.042105 -398.993932 
L 484.449761 -398.994986 
L 490.857416 -398.955512 
L 497.265072 -399.005126 
L 503.672727 -399.010516 
L 510.080383 -399.007919 
L 516.488038 -391.316685 
L 522.895694 -383.653874 
L 529.303349 -375.996649 
L 535.711005 -368.429981 
L 542.11866 -360.853307 
L 548.526316 -361.01532 
L 554.933971 -361.191422 
L 561.341627 -361.355448 
L 567.749282 -361.480074 
L 574.156938 -361.616733 
L 580.564593 -361.744994 
L 586.972249 -361.881442 
L 593.379904 -361.961308 
L 599.78756 -362.049317 
L 606.195215 -362.13293 
L 612.602871 -362.280848 
L 619.010526 -362.380563 
L 625.418182 -362.505059 
L 631.825837 -362.674809 
L 638.233493 -362.854324 
L 644.641148 -363.042055 
L 651.048804 -363.328795 
L 657.456459 -363.574576 
L 663.864115 -363.832203 
L 670.27177 -364.022844 
L 676.679426 -364.191729 
L 683.087081 -364.278159 
L 689.494737 -364.460771 
L 695.902392 -364.605739 
L 702.310048 -364.778469 
L 708.717703 -364.901284 
L 715.125359 -365.027186 
L 721.533014 -365.059682 
L 727.94067 -365.13542 
L 734.348325 -365.22372 
L 740.755981 -365.29571 
L 747.163636 -365.35241 
L 747.163636 -412.275559 
L 747.163636 -412.275559 
L 740.755981 -412.305394 
L 734.348325 -412.356143 
L 727.94067 -412.404319 
L 721.533014 -412.473501 
L 715.125359 -412.533911 
L 708.717703 -412.572115 
L 702.310048 -412.600809 
L 695.902392 -412.632898 
L 689.494737 -412.68047 
L 683.087081 -412.739241 
L 676.679426 -412.772711 
L 670.27177 -412.85119 
L 663.864115 -412.978009 
L 657.456459 -413.06796 
L 651.048804 -413.151371 
L 644.641148 -413.271618 
L 638.233493 -413.363592 
L 631.825837 -413.418108 
L 625.418182 -413.474541 
L 619.010526 -413.531784 
L 612.602871 -413.539616 
L 606.195215 -413.597952 
L 599.78756 -413.639251 
L 593.379904 -413.669565 
L 586.972249 -413.70723 
L 580.564593 -413.772951 
L 574.156938 -413.784182 
L 567.749282 -413.81904 
L 561.341627 -413.893467 
L 554.933971 -413.952075 
L 548.526316 -414.024971 
L 542.11866 -414.097042 
L 535.711005 -412.006037 
L 529.303349 -409.953334 
L 522.895694 -407.924267 
L 516.488038 -405.872368 
L 510.080383 -403.832599 
L 503.672727 -403.936071 
L 497.265072 -403.984082 
L 490.857416 -404.026312 
L 484.449761 -404.07317 
L 478.042105 -404.118831 
L 471.63445 -404.164298 
L 465.226794 -404.200438 
L 458.819139 -404.235491 
L 452.411483 -404.280245 
L 446.003828 -404.310384 
L 439.596172 -404.346382 
L 433.188517 -404.373289 
L 426.780861 -404.404052 
L 420.373206 -404.418556 
L 413.96555 -404.445176 
L 407.557895 -404.465977 
L 401.150239 -404.499542 
L 394.742584 -404.51795 
L 388.334928 -404.550565 
L 381.927273 -404.574984 
L 375.519617 -404.586671 
L 369.111962 -404.613969 
L 362.704306 -404.655284 
L 356.296651 -404.671545 
L 349.888995 -404.703652 
L 343.48134 -404.737163 
L 337.073684 -404.757328 
L 330.666029 -404.767186 
L 324.258373 -404.803476 
L 317.850718 -404.829004 
L 311.443062 -404.856079 
L 305.035407 -404.894922 
L 298.627751 -404.939834 
L 292.220096 -404.965625 
L 285.81244 -405.005061 
L 279.404785 -405.038489 
L 272.997129 -405.066138 
L 266.589474 -405.096425 
L 260.181818 -405.119084 
L 253.774163 -405.128404 
L 247.366507 -405.145228 
L 240.958852 -405.168089 
L 234.551196 -405.181332 
L 228.143541 -405.207227 
L 221.735885 -405.241981 
L 215.32823 -405.27084 
L 208.920574 -405.303723 
L 202.512919 -405.34409 
L 196.105263 -405.38337 
L 189.697608 -405.416084 
L 183.289952 -405.460243 
L 176.882297 -405.48541 
L 170.474641 -405.50883 
L 164.066986 -405.551365 
L 157.65933 -405.574362 
L 151.251675 -405.591957 
L 144.844019 -405.632932 
L 138.436364 -405.681864 
z
" style="stroke: #b72b34; stroke-opacity: 0.2"/>
    </defs>
    <g clip-path="url(#p189b6e587b)">
     <use xlink:href="#m2cfd071d93" x="0" y="576" style="fill: #b72b34; fill-opacity: 0.2; stroke: #b72b34; stroke-opacity: 0.2"/>
    </g>
   </g>
   <g id="matplotlib.axis_1">
    <g id="xtick_1">
     <g id="line2d_1">
      <path d="M 176.241531 512.64 
L 176.241531 69.12 
" clip-path="url(#p189b6e587b)" style="fill: none; stroke: #b0b0b0; stroke-width: 0.8; stroke-linecap: square"/>
     </g>
     <g id="line2d_2">
      <defs>
       <path id="m3c50c96d51" d="M 0 0 
L 0 3.5 
" style="stroke: #000000; stroke-width: 0.8"/>
      </defs>
      <g>
       <use xlink:href="#m3c50c96d51" x="176.241531" y="512.64" style="stroke: #000000; stroke-width: 0.8"/>
      </g>
     </g>
     <g id="text_1">
      <!-- 0.8 -->
      <g transform="translate(168.471531 528.52375) scale(0.12 -0.12)">
       <defs>
        <path id="SegoeUIThis-30" d="M 1681 -75 
Q 1016 -75 642 497 
Q 269 1069 269 2150 
Q 269 3338 658 3947 
Q 1047 4556 1781 4556 
Q 3188 4556 3188 2259 
Q 3188 1122 2791 523 
Q 2394 -75 1681 -75 
z
M 1753 4122 
Q 794 4122 794 2175 
Q 794 356 1734 356 
Q 2663 356 2663 2206 
Q 2663 4122 1753 4122 
z
" transform="scale(0.015625)"/>
        <path id="SegoeUIThis-2e" d="M 697 -69 
Q 553 -69 451 34 
Q 350 138 350 281 
Q 350 425 451 529 
Q 553 634 697 634 
Q 844 634 947 529 
Q 1050 425 1050 281 
Q 1050 138 947 34 
Q 844 -69 697 -69 
z
" transform="scale(0.015625)"/>
        <path id="SegoeUIThis-38" d="M 1281 2350 
L 1281 2363 
Q 475 2738 475 3450 
Q 475 3934 844 4245 
Q 1213 4556 1794 4556 
Q 2319 4556 2656 4265 
Q 2994 3975 2994 3519 
Q 2994 2775 2163 2363 
L 2163 2350 
Q 3144 2000 3144 1138 
Q 3144 581 2744 253 
Q 2344 -75 1631 -75 
Q 1056 -75 684 250 
Q 313 575 313 1094 
Q 313 1956 1281 2350 
z
M 2469 3456 
Q 2469 3766 2275 3944 
Q 2081 4122 1747 4122 
Q 1434 4122 1217 3936 
Q 1000 3750 1000 3463 
Q 1000 2878 1728 2581 
Q 2469 2888 2469 3456 
z
M 1694 2106 
Q 838 1766 838 1119 
Q 838 784 1086 570 
Q 1334 356 1741 356 
Q 2128 356 2373 567 
Q 2619 778 2619 1100 
Q 2619 1775 1694 2106 
z
" transform="scale(0.015625)"/>
       </defs>
       <use xlink:href="#SegoeUIThis-30"/>
       <use xlink:href="#SegoeUIThis-2e" x="53.90625"/>
       <use xlink:href="#SegoeUIThis-38" x="75.585938"/>
      </g>
     </g>
    </g>
    <g id="xtick_2">
     <g id="line2d_3">
      <path d="M 303.11311 512.64 
L 303.11311 69.12 
" clip-path="url(#p189b6e587b)" style="fill: none; stroke: #b0b0b0; stroke-width: 0.8; stroke-linecap: square"/>
     </g>
     <g id="line2d_4">
      <g>
       <use xlink:href="#m3c50c96d51" x="303.11311" y="512.64" style="stroke: #000000; stroke-width: 0.8"/>
      </g>
     </g>
     <g id="text_2">
      <!-- 0.9 -->
      <g transform="translate(295.34311 528.52375) scale(0.12 -0.12)">
       <defs>
        <path id="SegoeUIThis-39" d="M 538 75 
L 538 569 
Q 913 356 1331 356 
Q 1941 356 2280 847 
Q 2619 1338 2619 2241 
Q 2613 2238 2606 2241 
Q 2319 1663 1606 1663 
Q 1031 1663 662 2053 
Q 294 2444 294 3059 
Q 294 3716 698 4136 
Q 1103 4556 1734 4556 
Q 2397 4556 2767 4032 
Q 3138 3509 3138 2509 
Q 3138 1269 2656 597 
Q 2175 -75 1319 -75 
Q 869 -75 538 75 
z
M 1688 4122 
Q 1316 4122 1067 3842 
Q 819 3563 819 3131 
Q 819 2659 1062 2389 
Q 1306 2119 1722 2119 
Q 2084 2119 2336 2366 
Q 2588 2613 2588 2969 
Q 2588 3478 2338 3800 
Q 2088 4122 1688 4122 
z
" transform="scale(0.015625)"/>
       </defs>
       <use xlink:href="#SegoeUIThis-30"/>
       <use xlink:href="#SegoeUIThis-2e" x="53.90625"/>
       <use xlink:href="#SegoeUIThis-39" x="75.585938"/>
      </g>
     </g>
    </g>
    <g id="xtick_3">
     <g id="line2d_5">
      <path d="M 429.984689 512.64 
L 429.984689 69.12 
" clip-path="url(#p189b6e587b)" style="fill: none; stroke: #b0b0b0; stroke-width: 0.8; stroke-linecap: square"/>
     </g>
     <g id="line2d_6">
      <g>
       <use xlink:href="#m3c50c96d51" x="429.984689" y="512.64" style="stroke: #000000; stroke-width: 0.8"/>
      </g>
     </g>
     <g id="text_3">
      <!-- 1.0 -->
      <g transform="translate(422.214689 528.52375) scale(0.12 -0.12)">
       <defs>
        <path id="SegoeUIThis-31" d="M 3084 0 
L 550 0 
L 550 450 
L 1563 450 
L 1563 3931 
L 525 3622 
L 525 4109 
L 2075 4581 
L 2075 450 
L 3084 450 
L 3084 0 
z
" transform="scale(0.015625)"/>
       </defs>
       <use xlink:href="#SegoeUIThis-31"/>
       <use xlink:href="#SegoeUIThis-2e" x="53.90625"/>
       <use xlink:href="#SegoeUIThis-30" x="75.585938"/>
      </g>
     </g>
    </g>
    <g id="xtick_4">
     <g id="line2d_7">
      <path d="M 556.856268 512.64 
L 556.856268 69.12 
" clip-path="url(#p189b6e587b)" style="fill: none; stroke: #b0b0b0; stroke-width: 0.8; stroke-linecap: square"/>
     </g>
     <g id="line2d_8">
      <g>
       <use xlink:href="#m3c50c96d51" x="556.856268" y="512.64" style="stroke: #000000; stroke-width: 0.8"/>
      </g>
     </g>
     <g id="text_4">
      <!-- 1.1 -->
      <g transform="translate(549.086268 528.52375) scale(0.12 -0.12)">
       <use xlink:href="#SegoeUIThis-31"/>
       <use xlink:href="#SegoeUIThis-2e" x="53.90625"/>
       <use xlink:href="#SegoeUIThis-31" x="75.585938"/>
      </g>
     </g>
    </g>
    <g id="xtick_5">
     <g id="line2d_9">
      <path d="M 683.727847 512.64 
L 683.727847 69.12 
" clip-path="url(#p189b6e587b)" style="fill: none; stroke: #b0b0b0; stroke-width: 0.8; stroke-linecap: square"/>
     </g>
     <g id="line2d_10">
      <g>
       <use xlink:href="#m3c50c96d51" x="683.727847" y="512.64" style="stroke: #000000; stroke-width: 0.8"/>
      </g>
     </g>
     <g id="text_5">
      <!-- 1.2 -->
      <g transform="translate(675.957847 528.52375) scale(0.12 -0.12)">
       <defs>
        <path id="SegoeUIThis-32" d="M 3000 0 
L 300 0 
L 300 456 
L 1606 1766 
Q 2106 2266 2320 2598 
Q 2534 2931 2534 3309 
Q 2534 3697 2312 3909 
Q 2091 4122 1681 4122 
Q 1081 4122 531 3609 
L 531 4147 
Q 1056 4556 1753 4556 
Q 2353 4556 2697 4231 
Q 3041 3906 3041 3359 
Q 3041 2928 2803 2517 
Q 2566 2106 1950 1497 
L 916 475 
L 916 463 
L 3000 463 
L 3000 0 
z
" transform="scale(0.015625)"/>
       </defs>
       <use xlink:href="#SegoeUIThis-31"/>
       <use xlink:href="#SegoeUIThis-2e" x="53.90625"/>
       <use xlink:href="#SegoeUIThis-32" x="75.585938"/>
      </g>
     </g>
    </g>
    <g id="text_6">
     <!-- Pendulum masses (kg) -->
     <g transform="translate(354.247031 548.609375) scale(0.18 -0.18)">
      <defs>
       <path id="SegoeUIThis-50" d="M 1113 1694 
L 1113 0 
L 588 0 
L 588 4481 
L 1819 4481 
Q 2538 4481 2933 4131 
Q 3328 3781 3328 3144 
Q 3328 2506 2889 2100 
Q 2450 1694 1703 1694 
L 1113 1694 
z
M 1113 4006 
L 1113 2169 
L 1663 2169 
Q 2206 2169 2492 2417 
Q 2778 2666 2778 3119 
Q 2778 4006 1728 4006 
L 1113 4006 
z
" transform="scale(0.015625)"/>
       <path id="SegoeUIThis-65" d="M 3091 1472 
L 831 1472 
Q 844 938 1119 647 
Q 1394 356 1875 356 
Q 2416 356 2869 713 
L 2869 231 
Q 2447 -75 1753 -75 
Q 1075 -75 687 361 
Q 300 797 300 1588 
Q 300 2334 723 2804 
Q 1147 3275 1775 3275 
Q 2403 3275 2747 2869 
Q 3091 2463 3091 1741 
L 3091 1472 
z
M 2566 1906 
Q 2563 2350 2352 2597 
Q 2141 2844 1766 2844 
Q 1403 2844 1150 2584 
Q 897 2325 838 1906 
L 2566 1906 
z
" transform="scale(0.015625)"/>
       <path id="SegoeUIThis-6e" d="M 3175 0 
L 2663 0 
L 2663 1825 
Q 2663 2844 1919 2844 
Q 1534 2844 1282 2555 
Q 1031 2266 1031 1825 
L 1031 0 
L 519 0 
L 519 3200 
L 1031 3200 
L 1031 2669 
L 1044 2669 
Q 1406 3275 2094 3275 
Q 2619 3275 2897 2936 
Q 3175 2597 3175 1956 
L 3175 0 
z
" transform="scale(0.015625)"/>
       <path id="SegoeUIThis-64" d="M 3250 0 
L 2738 0 
L 2738 544 
L 2725 544 
Q 2369 -75 1625 -75 
Q 1022 -75 661 354 
Q 300 784 300 1525 
Q 300 2319 700 2797 
Q 1100 3275 1766 3275 
Q 2425 3275 2725 2756 
L 2738 2756 
L 2738 4738 
L 3250 4738 
L 3250 0 
z
M 2738 1447 
L 2738 1919 
Q 2738 2306 2481 2575 
Q 2225 2844 1831 2844 
Q 1363 2844 1094 2500 
Q 825 2156 825 1550 
Q 825 997 1083 676 
Q 1341 356 1775 356 
Q 2203 356 2470 665 
Q 2738 975 2738 1447 
z
" transform="scale(0.015625)"/>
       <path id="SegoeUIThis-75" d="M 3106 0 
L 2594 0 
L 2594 506 
L 2581 506 
Q 2263 -75 1594 -75 
Q 450 -75 450 1288 
L 450 3200 
L 959 3200 
L 959 1369 
Q 959 356 1734 356 
Q 2109 356 2351 632 
Q 2594 909 2594 1356 
L 2594 3200 
L 3106 3200 
L 3106 0 
z
" transform="scale(0.015625)"/>
       <path id="SegoeUIThis-6c" d="M 1031 0 
L 519 0 
L 519 4738 
L 1031 4738 
L 1031 0 
z
" transform="scale(0.015625)"/>
       <path id="SegoeUIThis-6d" d="M 5063 0 
L 4550 0 
L 4550 1838 
Q 4550 2369 4386 2606 
Q 4222 2844 3834 2844 
Q 3506 2844 3276 2544 
Q 3047 2244 3047 1825 
L 3047 0 
L 2534 0 
L 2534 1900 
Q 2534 2844 1806 2844 
Q 1469 2844 1250 2561 
Q 1031 2278 1031 1825 
L 1031 0 
L 519 0 
L 519 3200 
L 1031 3200 
L 1031 2694 
L 1044 2694 
Q 1384 3275 2038 3275 
Q 2366 3275 2609 3092 
Q 2853 2909 2944 2613 
Q 3300 3275 4006 3275 
Q 5063 3275 5063 1972 
L 5063 0 
z
" transform="scale(0.015625)"/>
       <path id="SegoeUIThis-20" transform="scale(0.015625)"/>
       <path id="SegoeUIThis-61" d="M 2809 0 
L 2297 0 
L 2297 500 
L 2284 500 
Q 1950 -75 1300 -75 
Q 822 -75 551 178 
Q 281 431 281 850 
Q 281 1747 1338 1894 
L 2297 2028 
Q 2297 2844 1638 2844 
Q 1059 2844 594 2450 
L 594 2975 
Q 1066 3275 1681 3275 
Q 2809 3275 2809 2081 
L 2809 0 
z
M 2297 1619 
L 1525 1513 
Q 1169 1463 987 1336 
Q 806 1209 806 888 
Q 806 653 973 504 
Q 1141 356 1419 356 
Q 1800 356 2048 623 
Q 2297 891 2297 1300 
L 2297 1619 
z
" transform="scale(0.015625)"/>
       <path id="SegoeUIThis-73" d="M 325 116 
L 325 666 
Q 744 356 1247 356 
Q 1922 356 1922 806 
Q 1922 934 1864 1023 
Q 1806 1113 1707 1181 
Q 1609 1250 1476 1304 
Q 1344 1359 1191 1419 
Q 978 1503 817 1589 
Q 656 1675 548 1783 
Q 441 1891 386 2028 
Q 331 2166 331 2350 
Q 331 2575 434 2748 
Q 538 2922 709 3039 
Q 881 3156 1101 3215 
Q 1322 3275 1556 3275 
Q 1972 3275 2300 3131 
L 2300 2613 
Q 1947 2844 1488 2844 
Q 1344 2844 1228 2811 
Q 1113 2778 1030 2718 
Q 947 2659 901 2576 
Q 856 2494 856 2394 
Q 856 2269 901 2184 
Q 947 2100 1034 2034 
Q 1122 1969 1247 1916 
Q 1372 1863 1531 1800 
Q 1744 1719 1912 1633 
Q 2081 1547 2200 1439 
Q 2319 1331 2383 1190 
Q 2447 1050 2447 856 
Q 2447 619 2342 444 
Q 2238 269 2063 153 
Q 1888 38 1659 -18 
Q 1431 -75 1181 -75 
Q 688 -75 325 116 
z
" transform="scale(0.015625)"/>
       <path id="SegoeUIThis-28" d="M 1863 -1019 
L 1406 -1019 
Q 438 88 438 1709 
Q 438 3338 1406 4481 
L 1869 4481 
Q 888 3294 888 1716 
Q 888 150 1863 -1019 
z
" transform="scale(0.015625)"/>
       <path id="SegoeUIThis-6b" d="M 3175 0 
L 2456 0 
L 1044 1538 
L 1031 1538 
L 1031 0 
L 519 0 
L 519 4738 
L 1031 4738 
L 1031 1734 
L 1044 1734 
L 2388 3200 
L 3059 3200 
L 1575 1656 
L 3175 0 
z
" transform="scale(0.015625)"/>
       <path id="SegoeUIThis-67" d="M 3250 256 
Q 3250 -1506 1563 -1506 
Q 969 -1506 525 -1281 
L 525 -769 
Q 1066 -1069 1556 -1069 
Q 2738 -1069 2738 188 
L 2738 538 
L 2725 538 
Q 2359 -75 1625 -75 
Q 1028 -75 664 351 
Q 300 778 300 1497 
Q 300 2313 692 2794 
Q 1084 3275 1766 3275 
Q 2413 3275 2725 2756 
L 2738 2756 
L 2738 3200 
L 3250 3200 
L 3250 256 
z
M 2738 1447 
L 2738 1919 
Q 2738 2300 2480 2572 
Q 2222 2844 1838 2844 
Q 1363 2844 1094 2498 
Q 825 2153 825 1531 
Q 825 997 1083 676 
Q 1341 356 1766 356 
Q 2197 356 2467 662 
Q 2738 969 2738 1447 
z
" transform="scale(0.015625)"/>
       <path id="SegoeUIThis-29" d="M 531 -1019 
L 75 -1019 
Q 1050 150 1050 1716 
Q 1050 3294 69 4481 
L 531 4481 
Q 1506 3338 1506 1709 
Q 1506 88 531 -1019 
z
" transform="scale(0.015625)"/>
      </defs>
      <use xlink:href="#SegoeUIThis-50"/>
      <use xlink:href="#SegoeUIThis-65" x="52.255859"/>
      <use xlink:href="#SegoeUIThis-6e" x="104.550781"/>
      <use xlink:href="#SegoeUIThis-64" x="161.142578"/>
      <use xlink:href="#SegoeUIThis-75" x="220.029297"/>
      <use xlink:href="#SegoeUIThis-6c" x="276.621094"/>
      <use xlink:href="#SegoeUIThis-75" x="300.839844"/>
      <use xlink:href="#SegoeUIThis-6d" x="357.431641"/>
      <use xlink:href="#SegoeUIThis-20" x="443.564453"/>
      <use xlink:href="#SegoeUIThis-6d" x="470.957031"/>
      <use xlink:href="#SegoeUIThis-61" x="557.089844"/>
      <use xlink:href="#SegoeUIThis-73" x="607.96875"/>
      <use xlink:href="#SegoeUIThis-73" x="650.400391"/>
      <use xlink:href="#SegoeUIThis-65" x="692.832031"/>
      <use xlink:href="#SegoeUIThis-73" x="745.126953"/>
      <use xlink:href="#SegoeUIThis-20" x="787.558594"/>
      <use xlink:href="#SegoeUIThis-28" x="814.951172"/>
      <use xlink:href="#SegoeUIThis-6b" x="845.126953"/>
      <use xlink:href="#SegoeUIThis-67" x="894.833984"/>
      <use xlink:href="#SegoeUIThis-29" x="953.720703"/>
     </g>
    </g>
   </g>
   <g id="matplotlib.axis_2">
    <g id="ytick_1">
     <g id="line2d_11">
      <path d="M 108 493.428784 
L 777.6 493.428784 
" clip-path="url(#p189b6e587b)" style="fill: none; stroke: #b0b0b0; stroke-width: 0.8; stroke-linecap: square"/>
     </g>
     <g id="line2d_12">
      <defs>
       <path id="mfd4e89f455" d="M 0 0 
L -3.5 0 
" style="stroke: #000000; stroke-width: 0.8"/>
      </defs>
      <g>
       <use xlink:href="#mfd4e89f455" x="108" y="493.428784" style="stroke: #000000; stroke-width: 0.8"/>
      </g>
     </g>
     <g id="text_7">
      <!-- −700 -->
      <g transform="translate(73.385 497.870659) scale(0.12 -0.12)">
       <defs>
        <path id="SegoeUIThis-2212" d="M 3663 1656 
L 725 1656 
L 725 2075 
L 3663 2075 
L 3663 1656 
z
" transform="scale(0.015625)"/>
        <path id="SegoeUIThis-37" d="M 3156 4319 
L 1381 0 
L 850 0 
L 2528 4019 
L 269 4019 
L 269 4481 
L 3156 4481 
L 3156 4319 
z
" transform="scale(0.015625)"/>
       </defs>
       <use xlink:href="#SegoeUIThis-2212"/>
       <use xlink:href="#SegoeUIThis-37" x="68.408203"/>
       <use xlink:href="#SegoeUIThis-30" x="122.314453"/>
       <use xlink:href="#SegoeUIThis-30" x="176.220703"/>
      </g>
     </g>
    </g>
    <g id="ytick_2">
     <g id="line2d_13">
      <path d="M 108 438.142098 
L 777.6 438.142098 
" clip-path="url(#p189b6e587b)" style="fill: none; stroke: #b0b0b0; stroke-width: 0.8; stroke-linecap: square"/>
     </g>
     <g id="line2d_14">
      <g>
       <use xlink:href="#mfd4e89f455" x="108" y="438.142098" style="stroke: #000000; stroke-width: 0.8"/>
      </g>
     </g>
     <g id="text_8">
      <!-- −600 -->
      <g transform="translate(73.385 442.583973) scale(0.12 -0.12)">
       <defs>
        <path id="SegoeUIThis-36" d="M 2919 4428 
L 2919 3944 
Q 2572 4122 2188 4122 
Q 1591 4122 1233 3590 
Q 875 3059 875 2169 
L 888 2169 
Q 1200 2803 1913 2803 
Q 2500 2803 2847 2426 
Q 3194 2050 3194 1419 
Q 3194 759 2797 342 
Q 2400 -75 1788 -75 
Q 1113 -75 728 462 
Q 344 1000 344 1972 
Q 344 3150 847 3853 
Q 1350 4556 2175 4556 
Q 2644 4556 2919 4428 
z
M 1800 2369 
Q 1403 2369 1156 2100 
Q 909 1831 909 1466 
Q 909 1006 1154 681 
Q 1400 356 1806 356 
Q 2194 356 2431 639 
Q 2669 922 2669 1356 
Q 2669 1831 2441 2100 
Q 2213 2369 1800 2369 
z
" transform="scale(0.015625)"/>
       </defs>
       <use xlink:href="#SegoeUIThis-2212"/>
       <use xlink:href="#SegoeUIThis-36" x="68.408203"/>
       <use xlink:href="#SegoeUIThis-30" x="122.314453"/>
       <use xlink:href="#SegoeUIThis-30" x="176.220703"/>
      </g>
     </g>
    </g>
    <g id="ytick_3">
     <g id="line2d_15">
      <path d="M 108 382.855412 
L 777.6 382.855412 
" clip-path="url(#p189b6e587b)" style="fill: none; stroke: #b0b0b0; stroke-width: 0.8; stroke-linecap: square"/>
     </g>
     <g id="line2d_16">
      <g>
       <use xlink:href="#mfd4e89f455" x="108" y="382.855412" style="stroke: #000000; stroke-width: 0.8"/>
      </g>
     </g>
     <g id="text_9">
      <!-- −500 -->
      <g transform="translate(73.385 387.297287) scale(0.12 -0.12)">
       <defs>
        <path id="SegoeUIThis-35" d="M 513 109 
L 513 653 
Q 972 356 1447 356 
Q 1922 356 2212 625 
Q 2503 894 2503 1338 
Q 2503 1778 2206 2025 
Q 1909 2272 1356 2272 
Q 1169 2272 653 2234 
L 653 4481 
L 2822 4481 
L 2822 4019 
L 1138 4019 
L 1138 2706 
Q 1344 2719 1519 2719 
Q 2238 2719 2631 2358 
Q 3025 1997 3025 1369 
Q 3025 719 2601 322 
Q 2178 -75 1441 -75 
Q 819 -75 513 109 
z
" transform="scale(0.015625)"/>
       </defs>
       <use xlink:href="#SegoeUIThis-2212"/>
       <use xlink:href="#SegoeUIThis-35" x="68.408203"/>
       <use xlink:href="#SegoeUIThis-30" x="122.314453"/>
       <use xlink:href="#SegoeUIThis-30" x="176.220703"/>
      </g>
     </g>
    </g>
    <g id="ytick_4">
     <g id="line2d_17">
      <path d="M 108 327.568725 
L 777.6 327.568725 
" clip-path="url(#p189b6e587b)" style="fill: none; stroke: #b0b0b0; stroke-width: 0.8; stroke-linecap: square"/>
     </g>
     <g id="line2d_18">
      <g>
       <use xlink:href="#mfd4e89f455" x="108" y="327.568725" style="stroke: #000000; stroke-width: 0.8"/>
      </g>
     </g>
     <g id="text_10">
      <!-- −400 -->
      <g transform="translate(73.385 332.0106) scale(0.12 -0.12)">
       <defs>
        <path id="SegoeUIThis-34" d="M 3231 1191 
L 2656 1191 
L 2656 0 
L 2150 0 
L 2150 1191 
L 44 1191 
L 44 1525 
L 2038 4481 
L 2656 4481 
L 2656 1606 
L 3231 1606 
L 3231 1191 
z
M 2150 1606 
L 2150 3544 
Q 2150 3750 2163 4006 
L 2150 4006 
Q 2106 3894 1978 3663 
L 600 1606 
L 2150 1606 
z
" transform="scale(0.015625)"/>
       </defs>
       <use xlink:href="#SegoeUIThis-2212"/>
       <use xlink:href="#SegoeUIThis-34" x="68.408203"/>
       <use xlink:href="#SegoeUIThis-30" x="122.314453"/>
       <use xlink:href="#SegoeUIThis-30" x="176.220703"/>
      </g>
     </g>
    </g>
    <g id="ytick_5">
     <g id="line2d_19">
      <path d="M 108 272.282039 
L 777.6 272.282039 
" clip-path="url(#p189b6e587b)" style="fill: none; stroke: #b0b0b0; stroke-width: 0.8; stroke-linecap: square"/>
     </g>
     <g id="line2d_20">
      <g>
       <use xlink:href="#mfd4e89f455" x="108" y="272.282039" style="stroke: #000000; stroke-width: 0.8"/>
      </g>
     </g>
     <g id="text_11">
      <!-- −300 -->
      <g transform="translate(73.385 276.723914) scale(0.12 -0.12)">
       <defs>
        <path id="SegoeUIThis-33" d="M 409 166 
L 409 719 
Q 869 356 1447 356 
Q 1916 356 2195 590 
Q 2475 825 2475 1222 
Q 2475 2100 1228 2100 
L 856 2100 
L 856 2534 
L 1209 2534 
Q 2319 2534 2319 3359 
Q 2319 4122 1472 4122 
Q 1000 4122 581 3800 
L 581 4300 
Q 1013 4556 1600 4556 
Q 2166 4556 2505 4256 
Q 2844 3956 2844 3488 
Q 2844 2603 1944 2350 
L 1944 2338 
Q 2428 2291 2714 1998 
Q 3000 1706 3000 1269 
Q 3000 666 2567 295 
Q 2134 -75 1425 -75 
Q 788 -75 409 166 
z
" transform="scale(0.015625)"/>
       </defs>
       <use xlink:href="#SegoeUIThis-2212"/>
       <use xlink:href="#SegoeUIThis-33" x="68.408203"/>
       <use xlink:href="#SegoeUIThis-30" x="122.314453"/>
       <use xlink:href="#SegoeUIThis-30" x="176.220703"/>
      </g>
     </g>
    </g>
    <g id="ytick_6">
     <g id="line2d_21">
      <path d="M 108 216.995353 
L 777.6 216.995353 
" clip-path="url(#p189b6e587b)" style="fill: none; stroke: #b0b0b0; stroke-width: 0.8; stroke-linecap: square"/>
     </g>
     <g id="line2d_22">
      <g>
       <use xlink:href="#mfd4e89f455" x="108" y="216.995353" style="stroke: #000000; stroke-width: 0.8"/>
      </g>
     </g>
     <g id="text_12">
      <!-- −200 -->
      <g transform="translate(73.385 221.437228) scale(0.12 -0.12)">
       <use xlink:href="#SegoeUIThis-2212"/>
       <use xlink:href="#SegoeUIThis-32" x="68.408203"/>
       <use xlink:href="#SegoeUIThis-30" x="122.314453"/>
       <use xlink:href="#SegoeUIThis-30" x="176.220703"/>
      </g>
     </g>
    </g>
    <g id="ytick_7">
     <g id="line2d_23">
      <path d="M 108 161.708666 
L 777.6 161.708666 
" clip-path="url(#p189b6e587b)" style="fill: none; stroke: #b0b0b0; stroke-width: 0.8; stroke-linecap: square"/>
     </g>
     <g id="line2d_24">
      <g>
       <use xlink:href="#mfd4e89f455" x="108" y="161.708666" style="stroke: #000000; stroke-width: 0.8"/>
      </g>
     </g>
     <g id="text_13">
      <!-- −100 -->
      <g transform="translate(73.385 166.150541) scale(0.12 -0.12)">
       <use xlink:href="#SegoeUIThis-2212"/>
       <use xlink:href="#SegoeUIThis-31" x="68.408203"/>
       <use xlink:href="#SegoeUIThis-30" x="122.314453"/>
       <use xlink:href="#SegoeUIThis-30" x="176.220703"/>
      </g>
     </g>
    </g>
    <g id="ytick_8">
     <g id="line2d_25">
      <path d="M 108 106.42198 
L 777.6 106.42198 
" clip-path="url(#p189b6e587b)" style="fill: none; stroke: #b0b0b0; stroke-width: 0.8; stroke-linecap: square"/>
     </g>
     <g id="line2d_26">
      <g>
       <use xlink:href="#mfd4e89f455" x="108" y="106.42198" style="stroke: #000000; stroke-width: 0.8"/>
      </g>
     </g>
     <g id="text_14">
      <!-- 0 -->
      <g transform="translate(94.53125 110.863855) scale(0.12 -0.12)">
       <use xlink:href="#SegoeUIThis-30"/>
      </g>
     </g>
    </g>
    <g id="text_15">
     <!-- Reward -->
     <g transform="translate(65.245 320.222813) rotate(-90) scale(0.18 -0.18)">
      <defs>
       <path id="SegoeUIThis-52" d="M 3800 0 
L 3175 0 
L 2425 1256 
Q 2322 1431 2225 1554 
Q 2128 1678 2026 1756 
Q 1925 1834 1808 1870 
Q 1691 1906 1544 1906 
L 1113 1906 
L 1113 0 
L 588 0 
L 588 4481 
L 1925 4481 
Q 2219 4481 2467 4407 
Q 2716 4334 2898 4184 
Q 3081 4034 3184 3811 
Q 3288 3588 3288 3288 
Q 3288 3053 3217 2858 
Q 3147 2663 3017 2509 
Q 2888 2356 2705 2248 
Q 2522 2141 2294 2081 
L 2294 2069 
Q 2406 2019 2489 1955 
Q 2572 1891 2647 1803 
Q 2722 1716 2795 1605 
Q 2869 1494 2959 1347 
L 3800 0 
z
M 1113 4006 
L 1113 2381 
L 1825 2381 
Q 2022 2381 2189 2440 
Q 2356 2500 2478 2611 
Q 2600 2722 2669 2883 
Q 2738 3044 2738 3244 
Q 2738 3603 2505 3804 
Q 2272 4006 1831 4006 
L 1113 4006 
z
" transform="scale(0.015625)"/>
       <path id="SegoeUIThis-77" d="M 4550 3200 
L 3591 0 
L 3059 0 
L 2400 2291 
Q 2363 2422 2350 2588 
L 2338 2588 
Q 2328 2475 2272 2297 
L 1556 0 
L 1044 0 
L 75 3200 
L 613 3200 
L 1275 794 
Q 1306 684 1319 506 
L 1344 506 
Q 1353 644 1400 800 
L 2138 3200 
L 2606 3200 
L 3269 788 
Q 3300 672 3316 500 
L 3341 500 
Q 3347 622 3394 788 
L 4044 3200 
L 4550 3200 
z
" transform="scale(0.015625)"/>
       <path id="SegoeUIThis-72" d="M 2188 2681 
Q 2053 2784 1800 2784 
Q 1472 2784 1251 2475 
Q 1031 2166 1031 1631 
L 1031 0 
L 519 0 
L 519 3200 
L 1031 3200 
L 1031 2541 
L 1044 2541 
Q 1153 2878 1378 3067 
Q 1603 3256 1881 3256 
Q 2081 3256 2188 3213 
L 2188 2681 
z
" transform="scale(0.015625)"/>
      </defs>
      <use xlink:href="#SegoeUIThis-52"/>
      <use xlink:href="#SegoeUIThis-65" x="56.939453"/>
      <use xlink:href="#SegoeUIThis-77" x="109.234375"/>
      <use xlink:href="#SegoeUIThis-61" x="181.5"/>
      <use xlink:href="#SegoeUIThis-72" x="232.378906"/>
      <use xlink:href="#SegoeUIThis-64" x="267.144531"/>
     </g>
    </g>
   </g>
   <g id="line2d_27">
    <path d="M 138.436364 175.408143 
L 144.844019 175.453363 
L 151.251675 175.452995 
L 157.65933 175.455384 
L 164.066986 175.410466 
L 170.474641 175.413767 
L 176.882297 175.36441 
L 183.289952 175.444332 
L 189.697608 175.446011 
L 196.105263 175.482992 
L 202.512919 175.460308 
L 208.920574 175.490138 
L 215.32823 175.399425 
L 221.735885 175.405575 
L 228.143541 175.408719 
L 234.551196 175.44816 
L 240.958852 175.424286 
L 247.366507 175.410219 
L 253.774163 175.437242 
L 260.181818 175.416461 
L 266.589474 175.426752 
L 272.997129 175.418563 
L 279.404785 175.436918 
L 285.81244 175.37963 
L 292.220096 175.387743 
L 298.627751 175.311019 
L 305.035407 175.351472 
L 311.443062 175.412976 
L 317.850718 175.460331 
L 324.258373 175.468608 
L 330.666029 175.512776 
L 337.073684 175.500417 
L 343.48134 175.484507 
L 349.888995 175.478149 
L 356.296651 175.527064 
L 362.704306 175.525091 
L 369.111962 178.408457 
L 375.519617 181.186036 
L 381.927273 181.191542 
L 388.334928 181.229002 
L 394.742584 201.039077 
L 401.150239 200.949873 
L 407.557895 201.067209 
L 413.96555 203.841257 
L 420.373206 226.64541 
L 426.780861 209.611291 
L 433.188517 227.226631 
L 439.596172 247.723786 
L 446.003828 268.049029 
L 452.411483 268.171954 
L 458.819139 288.175433 
L 465.226794 290.921514 
L 471.63445 290.532723 
L 478.042105 290.509709 
L 484.449761 290.619781 
L 490.857416 290.831066 
L 497.265072 290.709141 
L 503.672727 290.710899 
L 510.080383 290.521551 
L 516.488038 290.157731 
L 522.895694 290.1458 
L 529.303349 290.138536 
L 535.711005 290.061152 
L 542.11866 290.113204 
L 548.526316 290.563645 
L 554.933971 290.627224 
L 561.341627 290.994596 
L 567.749282 291.031824 
L 574.156938 291.607546 
L 580.564593 291.793188 
L 586.972249 291.931979 
L 593.379904 291.430465 
L 599.78756 291.450694 
L 606.195215 290.917509 
L 612.602871 290.701744 
L 619.010526 290.44225 
L 625.418182 290.562778 
L 631.825837 290.726713 
L 638.233493 290.424365 
L 644.641148 290.339505 
L 651.048804 290.344081 
L 657.456459 290.505824 
L 663.864115 290.235995 
L 670.27177 290.448363 
L 676.679426 290.201205 
L 683.087081 290.2782 
L 689.494737 290.039965 
L 695.902392 289.536629 
L 702.310048 289.466557 
L 708.717703 289.443882 
L 715.125359 289.870682 
L 721.533014 289.75663 
L 727.94067 290.170692 
L 734.348325 272.760801 
L 740.755981 271.983427 
L 747.163636 271.614878 
" clip-path="url(#p189b6e587b)" style="fill: none; stroke: #ff7700; stroke-width: 1.5; stroke-linecap: square"/>
   </g>
   <g id="line2d_28">
    <path d="M 138.436364 217.476909 
L 144.844019 217.411803 
L 151.251675 217.351761 
L 157.65933 217.291134 
L 164.066986 217.262119 
L 170.474641 217.218373 
L 176.882297 217.169626 
L 183.289952 217.137033 
L 189.697608 217.080938 
L 196.105263 217.065137 
L 202.512919 217.032725 
L 208.920574 217.000679 
L 215.32823 216.946548 
L 221.735885 216.9357 
L 228.143541 216.899571 
L 234.551196 216.835968 
L 240.958852 216.78478 
L 247.366507 216.76591 
L 253.774163 216.733684 
L 260.181818 216.687476 
L 266.589474 216.689002 
L 272.997129 216.6592 
L 279.404785 216.630759 
L 285.81244 216.560991 
L 292.220096 216.558335 
L 298.627751 216.532789 
L 305.035407 216.558557 
L 311.443062 219.376004 
L 317.850718 219.385236 
L 324.258373 219.315397 
L 330.666029 222.09642 
L 337.073684 224.908431 
L 343.48134 222.05234 
L 349.888995 227.632624 
L 356.296651 233.285863 
L 362.704306 230.428896 
L 369.111962 233.132013 
L 375.519617 238.701381 
L 381.927273 238.651784 
L 388.334928 238.540558 
L 394.742584 244.104358 
L 401.150239 244.050922 
L 407.557895 243.972224 
L 413.96555 243.925084 
L 420.373206 243.901653 
L 426.780861 243.828396 
L 433.188517 243.807566 
L 439.596172 243.771181 
L 446.003828 243.73231 
L 452.411483 243.688024 
L 458.819139 243.679316 
L 465.226794 243.631523 
L 471.63445 243.62359 
L 478.042105 243.606041 
L 484.449761 243.557255 
L 490.857416 246.311464 
L 497.265072 246.277503 
L 503.672727 246.219349 
L 510.080383 248.947913 
L 516.488038 251.716747 
L 522.895694 251.709061 
L 529.303349 251.636741 
L 535.711005 254.426618 
L 542.11866 251.609539 
L 548.526316 251.590534 
L 554.933971 251.520757 
L 561.341627 251.517137 
L 567.749282 248.655423 
L 574.156938 251.399795 
L 580.564593 251.362007 
L 586.972249 254.171452 
L 593.379904 254.126402 
L 599.78756 256.907855 
L 606.195215 256.910853 
L 612.602871 256.853927 
L 619.010526 253.997116 
L 625.418182 256.77193 
L 631.825837 259.525521 
L 638.233493 256.699316 
L 644.641148 265.218726 
L 651.048804 265.198163 
L 657.456459 265.175048 
L 663.864115 267.967868 
L 670.27177 270.730669 
L 676.679426 264.979873 
L 683.087081 267.720476 
L 689.494737 276.097458 
L 695.902392 281.673106 
L 702.310048 287.250856 
L 708.717703 287.22678 
L 715.125359 287.214926 
L 721.533014 287.165346 
L 727.94067 281.519816 
L 734.348325 284.245484 
L 740.755981 292.565448 
L 747.163636 295.316104 
" clip-path="url(#p189b6e587b)" style="fill: none; stroke: #004777; stroke-width: 1.5; stroke-linecap: square"/>
   </g>
   <g id="line2d_29">
    <path d="M 138.436364 173.904975 
L 144.844019 173.899826 
L 151.251675 173.938059 
L 157.65933 173.928546 
L 164.066986 173.921206 
L 170.474641 173.933919 
L 176.882297 173.97129 
L 183.289952 174.014387 
L 189.697608 174.03232 
L 196.105263 174.047698 
L 202.512919 174.070935 
L 208.920574 174.07876 
L 215.32823 174.075582 
L 221.735885 174.085822 
L 228.143541 174.071237 
L 234.551196 174.080539 
L 240.958852 174.085546 
L 247.366507 174.072272 
L 253.774163 174.090101 
L 260.181818 174.117136 
L 266.589474 174.093909 
L 272.997129 174.117739 
L 279.404785 174.116222 
L 285.81244 174.136854 
L 292.220096 174.174889 
L 298.627751 174.228066 
L 305.035407 174.226555 
L 311.443062 174.257863 
L 317.850718 174.259865 
L 324.258373 174.220477 
L 330.666029 174.203074 
L 337.073684 174.196307 
L 343.48134 174.198724 
L 349.888995 174.186546 
L 356.296651 174.214694 
L 362.704306 174.221697 
L 369.111962 174.253638 
L 375.519617 174.274431 
L 381.927273 174.298563 
L 388.334928 174.304189 
L 394.742584 174.316917 
L 401.150239 174.304192 
L 407.557895 174.308219 
L 413.96555 174.295766 
L 420.373206 174.31388 
L 426.780861 174.298211 
L 433.188517 174.310882 
L 439.596172 174.345751 
L 446.003828 174.357584 
L 452.411483 174.369481 
L 458.819139 174.401363 
L 465.226794 174.424837 
L 471.63445 174.416674 
L 478.042105 174.443618 
L 484.449761 174.465922 
L 490.857416 174.509088 
L 497.265072 174.505396 
L 503.672727 174.526707 
L 510.080383 174.579741 
L 516.488038 177.405473 
L 522.895694 180.210929 
L 529.303349 183.025008 
L 535.711005 185.781991 
L 542.11866 188.524825 
L 548.526316 188.479855 
L 554.933971 188.428251 
L 561.341627 188.375543 
L 567.749282 188.350443 
L 574.156938 188.299543 
L 580.564593 188.241028 
L 586.972249 188.205664 
L 593.379904 188.184564 
L 599.78756 188.155716 
L 606.195215 188.134559 
L 612.602871 188.089768 
L 619.010526 188.043827 
L 625.418182 188.0102 
L 631.825837 187.953541 
L 638.233493 187.891042 
L 644.641148 187.843164 
L 651.048804 187.759917 
L 657.456459 187.678732 
L 663.864115 187.594894 
L 670.27177 187.562983 
L 676.679426 187.51778 
L 683.087081 187.4913 
L 689.494737 187.42938 
L 695.902392 187.380682 
L 702.310048 187.310361 
L 708.717703 187.2633 
L 715.125359 187.219451 
L 721.533014 187.233408 
L 727.94067 187.230131 
L 734.348325 187.210068 
L 740.755981 187.199448 
L 747.163636 187.186015 
" clip-path="url(#p189b6e587b)" style="fill: none; stroke: #b72b34; stroke-width: 1.5; stroke-linecap: square"/>
   </g>
   <g id="line2d_30">
    <path d="M 108 189.352009 
L 777.6 189.352009 
" clip-path="url(#p189b6e587b)" style="fill: none; stroke-dasharray: 5.55,2.4; stroke-dashoffset: 0; stroke: #000000; stroke-width: 1.5"/>
   </g>
   <g id="patch_3">
    <path d="M 108 512.64 
L 108 69.12 
" style="fill: none; stroke: #000000; stroke-width: 0.8; stroke-linejoin: miter; stroke-linecap: square"/>
   </g>
   <g id="patch_4">
    <path d="M 777.6 512.64 
L 777.6 69.12 
" style="fill: none; stroke: #000000; stroke-width: 0.8; stroke-linejoin: miter; stroke-linecap: square"/>
   </g>
   <g id="patch_5">
    <path d="M 108 512.64 
L 777.6 512.64 
" style="fill: none; stroke: #000000; stroke-width: 0.8; stroke-linejoin: miter; stroke-linecap: square"/>
   </g>
   <g id="patch_6">
    <path d="M 108 69.12 
L 777.6 69.12 
" style="fill: none; stroke: #000000; stroke-width: 0.8; stroke-linejoin: miter; stroke-linecap: square"/>
   </g>
   <g id="text_16">
    <!-- Pendulum Mass Robustness Comparison -->
    <g transform="translate(64.30625 59.92) scale(0.4 -0.4)">
     <defs>
      <path id="SegoeUIThis-Bold-50" d="M 1522 1544 
L 1522 0 
L 513 0 
L 513 4481 
L 2094 4481 
Q 3788 4481 3788 3053 
Q 3788 2378 3302 1961 
Q 2816 1544 2003 1544 
L 1522 1544 
z
M 1522 3706 
L 1522 2309 
L 1919 2309 
Q 2725 2309 2725 3016 
Q 2725 3706 1919 3706 
L 1522 3706 
z
" transform="scale(0.015625)"/>
      <path id="SegoeUIThis-Bold-65" d="M 3291 1319 
L 1203 1319 
Q 1253 622 2081 622 
Q 2609 622 3009 872 
L 3009 159 
Q 2566 -78 1856 -78 
Q 1081 -78 653 351 
Q 225 781 225 1550 
Q 225 2347 687 2812 
Q 1150 3278 1825 3278 
Q 2525 3278 2908 2862 
Q 3291 2447 3291 1734 
L 3291 1319 
z
M 2375 1925 
Q 2375 2613 1819 2613 
Q 1581 2613 1407 2416 
Q 1234 2219 1197 1925 
L 2375 1925 
z
" transform="scale(0.015625)"/>
      <path id="SegoeUIThis-Bold-6e" d="M 3506 0 
L 2522 0 
L 2522 1778 
Q 2522 2522 1991 2522 
Q 1734 2522 1568 2325 
Q 1403 2128 1403 1825 
L 1403 0 
L 416 0 
L 416 3200 
L 1403 3200 
L 1403 2694 
L 1416 2694 
Q 1769 3278 2444 3278 
Q 3506 3278 3506 1959 
L 3506 0 
z
" transform="scale(0.015625)"/>
      <path id="SegoeUIThis-Bold-64" d="M 3547 0 
L 2559 0 
L 2559 441 
L 2547 441 
Q 2209 -78 1556 -78 
Q 956 -78 590 345 
Q 225 769 225 1528 
Q 225 2322 628 2800 
Q 1031 3278 1684 3278 
Q 2303 3278 2547 2834 
L 2559 2834 
L 2559 4738 
L 3547 4738 
L 3547 0 
z
M 2578 1556 
L 2578 1797 
Q 2578 2109 2397 2315 
Q 2216 2522 1925 2522 
Q 1597 2522 1412 2264 
Q 1228 2006 1228 1556 
Q 1228 1134 1406 906 
Q 1584 678 1900 678 
Q 2200 678 2389 918 
Q 2578 1159 2578 1556 
z
" transform="scale(0.015625)"/>
      <path id="SegoeUIThis-Bold-75" d="M 3456 0 
L 2472 0 
L 2472 488 
L 2456 488 
Q 2091 -78 1478 -78 
Q 366 -78 366 1269 
L 366 3200 
L 1350 3200 
L 1350 1356 
Q 1350 678 1888 678 
Q 2153 678 2312 864 
Q 2472 1050 2472 1369 
L 2472 3200 
L 3456 3200 
L 3456 0 
z
" transform="scale(0.015625)"/>
      <path id="SegoeUIThis-Bold-6c" d="M 1403 0 
L 416 0 
L 416 4738 
L 1403 4738 
L 1403 0 
z
" transform="scale(0.015625)"/>
      <path id="SegoeUIThis-Bold-6d" d="M 5497 0 
L 4513 0 
L 4513 1825 
Q 4513 2522 4000 2522 
Q 3756 2522 3603 2312 
Q 3450 2103 3450 1791 
L 3450 0 
L 2463 0 
L 2463 1844 
Q 2463 2522 1959 2522 
Q 1706 2522 1554 2322 
Q 1403 2122 1403 1778 
L 1403 0 
L 416 0 
L 416 3200 
L 1403 3200 
L 1403 2700 
L 1416 2700 
Q 1569 2956 1845 3117 
Q 2122 3278 2450 3278 
Q 3128 3278 3378 2681 
Q 3744 3278 4453 3278 
Q 5497 3278 5497 1991 
L 5497 0 
z
" transform="scale(0.015625)"/>
      <path id="SegoeUIThis-Bold-20" transform="scale(0.015625)"/>
      <path id="SegoeUIThis-Bold-4d" d="M 5619 0 
L 4622 0 
L 4622 2681 
Q 4622 3116 4659 3641 
L 4634 3641 
Q 4556 3228 4494 3047 
L 3444 0 
L 2619 0 
L 1550 3016 
Q 1506 3138 1409 3641 
L 1381 3641 
Q 1422 2978 1422 2478 
L 1422 0 
L 513 0 
L 513 4481 
L 1991 4481 
L 2906 1825 
Q 3016 1506 3066 1184 
L 3084 1184 
Q 3169 1556 3263 1831 
L 4178 4481 
L 5619 4481 
L 5619 0 
z
" transform="scale(0.015625)"/>
      <path id="SegoeUIThis-Bold-61" d="M 3078 0 
L 2144 0 
L 2144 459 
L 2131 459 
Q 1809 -78 1178 -78 
Q 713 -78 445 186 
Q 178 450 178 891 
Q 178 1822 1281 1966 
L 2150 2081 
Q 2150 2606 1581 2606 
Q 1009 2606 494 2266 
L 494 3009 
Q 700 3116 1058 3197 
Q 1416 3278 1709 3278 
Q 3078 3278 3078 1913 
L 3078 0 
z
M 2150 1300 
L 2150 1516 
L 1569 1441 
Q 1088 1378 1088 1006 
Q 1088 838 1205 730 
Q 1322 622 1522 622 
Q 1800 622 1975 814 
Q 2150 1006 2150 1300 
z
" transform="scale(0.015625)"/>
      <path id="SegoeUIThis-Bold-73" d="M 206 84 
L 206 884 
Q 450 738 692 666 
Q 934 594 1150 594 
Q 1413 594 1564 666 
Q 1716 738 1716 884 
Q 1716 978 1647 1040 
Q 1578 1103 1470 1150 
Q 1363 1197 1234 1234 
Q 1106 1272 988 1319 
Q 797 1391 651 1473 
Q 506 1556 407 1665 
Q 309 1775 257 1919 
Q 206 2063 206 2259 
Q 206 2528 323 2722 
Q 441 2916 636 3039 
Q 831 3163 1082 3220 
Q 1334 3278 1606 3278 
Q 1819 3278 2037 3245 
Q 2256 3213 2469 3150 
L 2469 2388 
Q 2281 2497 2067 2551 
Q 1853 2606 1647 2606 
Q 1550 2606 1464 2589 
Q 1378 2572 1312 2539 
Q 1247 2506 1209 2454 
Q 1172 2403 1172 2338 
Q 1172 2250 1228 2187 
Q 1284 2125 1375 2079 
Q 1466 2034 1577 1998 
Q 1688 1963 1797 1925 
Q 1994 1856 2153 1775 
Q 2313 1694 2427 1584 
Q 2541 1475 2602 1328 
Q 2663 1181 2663 978 
Q 2663 694 2539 492 
Q 2416 291 2211 164 
Q 2006 38 1739 -20 
Q 1472 -78 1184 -78 
Q 656 -78 206 84 
z
" transform="scale(0.015625)"/>
      <path id="SegoeUIThis-Bold-52" d="M 4272 0 
L 3113 0 
L 2416 1153 
Q 2338 1284 2266 1387 
Q 2194 1491 2120 1564 
Q 2047 1638 1967 1677 
Q 1888 1716 1794 1716 
L 1522 1716 
L 1522 0 
L 513 0 
L 513 4481 
L 2113 4481 
Q 3744 4481 3744 3263 
Q 3744 3028 3672 2829 
Q 3600 2631 3469 2472 
Q 3338 2313 3152 2197 
Q 2966 2081 2738 2016 
L 2738 2003 
Q 2838 1972 2931 1901 
Q 3025 1831 3112 1737 
Q 3200 1644 3279 1536 
Q 3359 1428 3425 1325 
L 4272 0 
z
M 1522 3725 
L 1522 2478 
L 1959 2478 
Q 2284 2478 2481 2666 
Q 2681 2856 2681 3138 
Q 2681 3725 1978 3725 
L 1522 3725 
z
" transform="scale(0.015625)"/>
      <path id="SegoeUIThis-Bold-6f" d="M 1941 -78 
Q 1141 -78 683 370 
Q 225 819 225 1588 
Q 225 2381 700 2829 
Q 1175 3278 1984 3278 
Q 2781 3278 3234 2829 
Q 3688 2381 3688 1644 
Q 3688 847 3220 384 
Q 2753 -78 1941 -78 
z
M 1966 2522 
Q 1616 2522 1422 2281 
Q 1228 2041 1228 1600 
Q 1228 678 1972 678 
Q 2681 678 2681 1625 
Q 2681 2522 1966 2522 
z
" transform="scale(0.015625)"/>
      <path id="SegoeUIThis-Bold-62" d="M 1416 372 
L 1403 372 
L 1403 0 
L 416 0 
L 416 4738 
L 1403 4738 
L 1403 2719 
L 1416 2719 
Q 1781 3278 2456 3278 
Q 3075 3278 3409 2853 
Q 3744 2428 3744 1691 
Q 3744 891 3353 406 
Q 2963 -78 2309 -78 
Q 1719 -78 1416 372 
z
M 1388 1722 
L 1388 1394 
Q 1388 1084 1566 881 
Q 1744 678 2022 678 
Q 2359 678 2545 939 
Q 2731 1200 2731 1678 
Q 2731 2075 2561 2298 
Q 2391 2522 2075 2522 
Q 1778 2522 1583 2300 
Q 1388 2078 1388 1722 
z
" transform="scale(0.015625)"/>
      <path id="SegoeUIThis-Bold-74" d="M 2350 38 
Q 2131 -78 1691 -78 
Q 647 -78 647 1006 
L 647 2472 
L 128 2472 
L 128 3200 
L 647 3200 
L 647 3891 
L 1631 4172 
L 1631 3200 
L 2350 3200 
L 2350 2472 
L 1631 2472 
L 1631 1178 
Q 1631 678 2028 678 
Q 2184 678 2350 769 
L 2350 38 
z
" transform="scale(0.015625)"/>
      <path id="SegoeUIThis-Bold-43" d="M 3725 159 
Q 3234 -78 2444 -78 
Q 1413 -78 822 528 
Q 231 1134 231 2144 
Q 231 3219 895 3887 
Q 1559 4556 2619 4556 
Q 3275 4556 3725 4391 
L 3725 3419 
Q 3275 3688 2700 3688 
Q 2069 3688 1681 3291 
Q 1294 2894 1294 2216 
Q 1294 1566 1659 1180 
Q 2025 794 2644 794 
Q 3234 794 3725 1081 
L 3725 159 
z
" transform="scale(0.015625)"/>
      <path id="SegoeUIThis-Bold-70" d="M 1416 372 
L 1403 372 
L 1403 -1472 
L 416 -1472 
L 416 3200 
L 1403 3200 
L 1403 2719 
L 1416 2719 
Q 1781 3278 2444 3278 
Q 3066 3278 3405 2851 
Q 3744 2425 3744 1691 
Q 3744 891 3348 406 
Q 2953 -78 2297 -78 
Q 1719 -78 1416 372 
z
M 1388 1684 
L 1388 1428 
Q 1388 1097 1563 887 
Q 1738 678 2022 678 
Q 2359 678 2545 939 
Q 2731 1200 2731 1678 
Q 2731 2522 2075 2522 
Q 1772 2522 1580 2292 
Q 1388 2063 1388 1684 
z
" transform="scale(0.015625)"/>
      <path id="SegoeUIThis-Bold-72" d="M 2503 2309 
Q 2325 2406 2088 2406 
Q 1766 2406 1584 2170 
Q 1403 1934 1403 1528 
L 1403 0 
L 416 0 
L 416 3200 
L 1403 3200 
L 1403 2606 
L 1416 2606 
Q 1650 3256 2259 3256 
Q 2416 3256 2503 3219 
L 2503 2309 
z
" transform="scale(0.015625)"/>
      <path id="SegoeUIThis-Bold-69" d="M 916 3706 
Q 666 3706 506 3854 
Q 347 4003 347 4219 
Q 347 4441 506 4581 
Q 666 4722 916 4722 
Q 1169 4722 1326 4581 
Q 1484 4441 1484 4219 
Q 1484 3994 1326 3850 
Q 1169 3706 916 3706 
z
M 1403 0 
L 416 0 
L 416 3200 
L 1403 3200 
L 1403 0 
z
" transform="scale(0.015625)"/>
     </defs>
     <use xlink:href="#SegoeUIThis-Bold-50"/>
     <use xlink:href="#SegoeUIThis-Bold-65" x="58.425781"/>
     <use xlink:href="#SegoeUIThis-Bold-6e" x="112.527344"/>
     <use xlink:href="#SegoeUIThis-Bold-64" x="173.025391"/>
     <use xlink:href="#SegoeUIThis-Bold-75" x="234.939453"/>
     <use xlink:href="#SegoeUIThis-Bold-6c" x="295.4375"/>
     <use xlink:href="#SegoeUIThis-Bold-75" x="323.855469"/>
     <use xlink:href="#SegoeUIThis-Bold-6d" x="384.353516"/>
     <use xlink:href="#SegoeUIThis-Bold-20" x="475.955078"/>
     <use xlink:href="#SegoeUIThis-Bold-4d" x="503.542969"/>
     <use xlink:href="#SegoeUIThis-Bold-61" x="599.246094"/>
     <use xlink:href="#SegoeUIThis-Bold-73" x="653.054688"/>
     <use xlink:href="#SegoeUIThis-Bold-73" x="697.048828"/>
     <use xlink:href="#SegoeUIThis-Bold-20" x="741.042969"/>
     <use xlink:href="#SegoeUIThis-Bold-52" x="768.630859"/>
     <use xlink:href="#SegoeUIThis-Bold-6f" x="831.414062"/>
     <use xlink:href="#SegoeUIThis-Bold-62" x="892.546875"/>
     <use xlink:href="#SegoeUIThis-Bold-75" x="954.558594"/>
     <use xlink:href="#SegoeUIThis-Bold-73" x="1015.056641"/>
     <use xlink:href="#SegoeUIThis-Bold-74" x="1059.050781"/>
     <use xlink:href="#SegoeUIThis-Bold-6e" x="1097.966797"/>
     <use xlink:href="#SegoeUIThis-Bold-65" x="1158.464844"/>
     <use xlink:href="#SegoeUIThis-Bold-73" x="1212.566406"/>
     <use xlink:href="#SegoeUIThis-Bold-73" x="1256.560547"/>
     <use xlink:href="#SegoeUIThis-Bold-20" x="1300.554688"/>
     <use xlink:href="#SegoeUIThis-Bold-43" x="1328.142578"/>
     <use xlink:href="#SegoeUIThis-Bold-6f" x="1390.544922"/>
     <use xlink:href="#SegoeUIThis-Bold-6d" x="1451.677734"/>
     <use xlink:href="#SegoeUIThis-Bold-70" x="1543.279297"/>
     <use xlink:href="#SegoeUIThis-Bold-61" x="1604.291016"/>
     <use xlink:href="#SegoeUIThis-Bold-72" x="1658.099609"/>
     <use xlink:href="#SegoeUIThis-Bold-69" x="1698.269531"/>
     <use xlink:href="#SegoeUIThis-Bold-73" x="1726.6875"/>
     <use xlink:href="#SegoeUIThis-Bold-6f" x="1770.681641"/>
     <use xlink:href="#SegoeUIThis-Bold-6e" x="1831.814453"/>
    </g>
   </g>
  </g>
 </g>
 <defs>
  <clipPath id="p189b6e587b">
   <rect x="108" y="69.12" width="669.6" height="443.52"/>
  </clipPath>
 </defs>
</svg>
