<?xml version="1.0" encoding="utf-8" standalone="no"?>
<!DOCTYPE svg PUBLIC "-//W3C//DTD SVG 1.1//EN"
  "http://www.w3.org/Graphics/SVG/1.1/DTD/svg11.dtd">
<svg xmlns:xlink="http://www.w3.org/1999/xlink" width="864pt" height="576pt" viewBox="0 0 864 576" xmlns="http://www.w3.org/2000/svg" version="1.1">
 <metadata>
  <rdf:RDF xmlns:dc="http://purl.org/dc/elements/1.1/" xmlns:cc="http://creativecommons.org/ns#" xmlns:rdf="http://www.w3.org/1999/02/22-rdf-syntax-ns#">
   <cc:Work>
    <dc:type rdf:resource="http://purl.org/dc/dcmitype/StillImage"/>
    <dc:date>2024-07-25T14:54:55.970669</dc:date>
    <dc:format>image/svg+xml</dc:format>
    <dc:creator>
     <cc:Agent>
      <dc:title>Matplotlib v3.8.4, https://matplotlib.org/</dc:title>
     </cc:Agent>
    </dc:creator>
   </cc:Work>
  </rdf:RDF>
 </metadata>
 <defs>
  <style type="text/css">*{stroke-linejoin: round; stroke-linecap: butt}</style>
 </defs>
 <g id="figure_1">
  <g id="patch_1">
   <path d="M 0 576 
L 864 576 
L 864 0 
L 0 0 
z
" style="fill: #ffffff"/>
  </g>
  <g id="axes_1">
   <g id="patch_2">
    <path d="M 68.51 529.72 
L 853.2 529.72 
L 853.2 32.64 
L 68.51 32.64 
z
" style="fill: #ffffff"/>
   </g>
   <g id="PolyCollection_1">
    <path d="M 104.177727 94.515609 
L 104.177727 276.640809 
L 111.383329 232.181744 
L 118.58893 232.582792 
L 125.794532 276.040001 
L 133.000133 276.126276 
L 140.205735 299.219549 
L 147.411336 276.151069 
L 154.616938 260.843159 
L 161.822539 299.232289 
L 169.02814 298.751502 
L 176.233742 299.246353 
L 183.439343 261.027059 
L 190.644945 298.404667 
L 197.850546 298.548773 
L 205.056148 298.056519 
L 212.261749 297.753603 
L 219.467351 297.796478 
L 226.672952 297.863466 
L 233.878554 297.774038 
L 241.084155 296.739211 
L 248.289757 297.001993 
L 255.495358 296.489604 
L 262.70096 296.693412 
L 269.906561 351.982865 
L 277.112163 296.633034 
L 284.317764 304.789286 
L 291.523365 427.84026 
L 298.728967 304.436888 
L 305.934568 387.338524 
L 313.14017 304.353845 
L 320.345771 304.074702 
L 327.551373 295.733255 
L 334.756974 296.331598 
L 341.962576 295.629983 
L 349.168177 303.738359 
L 356.373779 303.516172 
L 363.57938 295.467897 
L 370.784982 303.169828 
L 377.990583 295.151498 
L 385.196185 323.647746 
L 392.401786 303.122457 
L 399.607388 429.069469 
L 406.812989 302.782949 
L 414.01859 344.590261 
L 421.224192 302.947432 
L 428.429793 344.434266 
L 435.635395 302.942432 
L 442.840996 349.161013 
L 450.046598 344.20088 
L 457.252199 359.403117 
L 464.457801 294.692193 
L 471.663402 420.426142 
L 478.869004 332.794916 
L 486.074605 385.265293 
L 493.280207 362.102598 
L 500.485808 347.933263 
L 507.69141 434.580467 
L 514.897011 415.776292 
L 522.102612 371.805566 
L 529.308214 348.447984 
L 536.513815 368.059819 
L 543.719417 348.39936 
L 550.925018 390.959183 
L 558.13062 432.554816 
L 565.336221 382.846321 
L 572.541823 428.362342 
L 579.747424 367.517805 
L 586.953026 367.325842 
L 594.158627 452.527504 
L 601.364229 379.383339 
L 608.56983 370.484776 
L 615.775432 399.672005 
L 622.981033 369.992645 
L 630.186635 370.098745 
L 637.392236 491.787744 
L 644.597837 410.386947 
L 651.803439 462.952483 
L 659.00904 369.698273 
L 666.214642 448.251096 
L 673.420243 459.664533 
L 680.625845 411.024076 
L 687.831446 422.632581 
L 695.037048 368.995966 
L 702.242649 410.124513 
L 709.448251 434.702883 
L 716.653852 409.971593 
L 723.859454 454.486983 
L 731.065055 476.543714 
L 738.270657 469.772676 
L 745.476258 453.462443 
L 752.68186 417.770496 
L 759.887461 507.125455 
L 767.093062 409.360544 
L 774.298664 456.473975 
L 781.504265 409.548878 
L 788.709867 409.163159 
L 795.915468 417.123615 
L 803.12107 408.826591 
L 810.326671 479.087266 
L 817.532273 468.232201 
L 817.532273 172.152461 
L 817.532273 172.152461 
L 810.326671 224.332553 
L 803.12107 169.191606 
L 795.915468 192.593665 
L 788.709867 168.929205 
L 781.504265 169.316287 
L 774.298664 216.081474 
L 767.093062 169.121783 
L 759.887461 258.885704 
L 752.68186 192.638692 
L 745.476258 156.759616 
L 738.270657 172.441151 
L 731.065055 215.056291 
L 723.859454 214.608178 
L 716.653852 169.028659 
L 709.448251 207.75357 
L 702.242649 169.675241 
L 695.037048 179.525472 
L 687.831446 247.812154 
L 680.625845 169.203911 
L 673.420243 214.434772 
L 666.214642 101.029915 
L 659.00904 179.948357 
L 651.803439 180.172289 
L 644.597837 139.536329 
L 637.392236 215.155653 
L 630.186635 179.827664 
L 622.981033 148.556414 
L 615.775432 245.160183 
L 608.56983 179.976375 
L 601.364229 204.039626 
L 594.158627 128.300842 
L 586.953026 121.278181 
L 579.747424 121.322987 
L 572.541823 218.402961 
L 565.336221 168.37968 
L 558.13062 181.7484 
L 550.925018 128.993274 
L 543.719417 141.81272 
L 536.513815 121.181713 
L 529.308214 172.355396 
L 522.102612 180.62786 
L 514.897011 167.996256 
L 507.69141 181.92858 
L 500.485808 142.086388 
L 493.280207 159.965617 
L 486.074605 167.670682 
L 478.869004 126.375808 
L 471.663402 138.172132 
L 464.457801 102.795587 
L 457.252199 131.000807 
L 450.046598 115.525472 
L 442.840996 141.970733 
L 435.635395 125.938809 
L 428.429793 115.494462 
L 421.224192 125.887544 
L 414.01859 115.574986 
L 406.812989 125.796855 
L 399.607388 183.412238 
L 392.401786 126.026423 
L 385.196185 168.171067 
L 377.990583 102.648295 
L 370.784982 125.89395 
L 363.57938 102.697412 
L 356.373779 125.989223 
L 349.168177 125.973412 
L 341.962576 102.636096 
L 334.756974 102.431351 
L 327.551373 102.638058 
L 320.345771 125.923726 
L 313.14017 125.864326 
L 305.934568 137.865552 
L 298.728967 126.113603 
L 291.523365 129.365096 
L 284.317764 125.939879 
L 277.112163 102.849735 
L 269.906561 141.654449 
L 262.70096 102.790657 
L 255.495358 102.711279 
L 248.289757 102.634164 
L 241.084155 102.645802 
L 233.878554 102.396712 
L 226.672952 102.377214 
L 219.467351 102.564462 
L 212.261749 102.701284 
L 205.056148 102.520726 
L 197.850546 102.396985 
L 190.644945 102.568165 
L 183.439343 109.303785 
L 176.233742 102.541367 
L 169.02814 102.496616 
L 161.822539 102.421221 
L 154.616938 109.322944 
L 147.411336 94.751297 
L 140.205735 102.544915 
L 133.000133 94.656511 
L 125.794532 94.716718 
L 118.58893 107.742474 
L 111.383329 107.609572 
L 104.177727 94.515609 
z
" clip-path="url(#p3054f4ae6c)" style="fill: #1f77b4; fill-opacity: 0.3"/>
   </g>
   <g id="PolyCollection_2">
    <path d="M 104.177727 60.384881 
L 104.177727 317.813464 
L 111.383329 323.439723 
L 118.58893 324.815492 
L 125.794532 314.846717 
L 133.000133 318.351157 
L 140.205735 317.790132 
L 147.411336 314.540899 
L 154.616938 328.111885 
L 161.822539 313.111689 
L 169.02814 313.790697 
L 176.233742 313.843936 
L 183.439343 314.41222 
L 190.644945 315.152315 
L 197.850546 313.639027 
L 205.056148 313.044624 
L 212.261749 324.861495 
L 219.467351 324.865392 
L 226.672952 313.633027 
L 233.878554 313.145 
L 241.084155 314.015733 
L 248.289757 313.447514 
L 255.495358 313.099485 
L 262.70096 315.718489 
L 269.906561 313.078095 
L 277.112163 313.495157 
L 284.317764 313.63787 
L 291.523365 313.949847 
L 298.728967 313.333333 
L 305.934568 325.423373 
L 313.14017 300.454135 
L 320.345771 322.731526 
L 327.551373 322.628538 
L 334.756974 334.506013 
L 341.962576 334.481629 
L 349.168177 323.194074 
L 356.373779 339.904594 
L 363.57938 332.882444 
L 370.784982 325.208231 
L 377.990583 333.067961 
L 385.196185 315.39845 
L 392.401786 307.0484 
L 399.607388 313.465502 
L 406.812989 281.942528 
L 414.01859 331.96048 
L 421.224192 297.594051 
L 428.429793 281.329033 
L 435.635395 374.576897 
L 442.840996 321.181679 
L 450.046598 335.225117 
L 457.252199 421.218103 
L 464.457801 290.161842 
L 471.663402 329.676489 
L 478.869004 290.170368 
L 486.074605 392.680563 
L 493.280207 328.340262 
L 500.485808 401.949125 
L 507.69141 441.395788 
L 514.897011 332.296019 
L 522.102612 382.416746 
L 529.308214 405.152615 
L 536.513815 382.818131 
L 543.719417 340.655046 
L 550.925018 341.375496 
L 558.13062 396.172484 
L 565.336221 455.35709 
L 572.541823 458.736487 
L 579.747424 354.081683 
L 586.953026 408.397016 
L 594.158627 482.944344 
L 601.364229 355.503463 
L 608.56983 443.339371 
L 615.775432 362.686344 
L 622.981033 378.798661 
L 630.186635 441.585061 
L 637.392236 453.668408 
L 644.597837 455.392389 
L 651.803439 411.817184 
L 659.00904 411.186782 
L 666.214642 424.203088 
L 673.420243 446.715155 
L 680.625845 441.286566 
L 687.831446 417.042745 
L 695.037048 422.440153 
L 702.242649 408.865786 
L 709.448251 444.114461 
L 716.653852 445.532512 
L 723.859454 461.593826 
L 731.065055 486.359315 
L 738.270657 397.04841 
L 745.476258 427.340374 
L 752.68186 427.858471 
L 759.887461 462.109403 
L 767.093062 383.057412 
L 774.298664 436.794472 
L 781.504265 493.34769 
L 788.709867 427.188679 
L 795.915468 407.559232 
L 803.12107 476.554649 
L 810.326671 452.329837 
L 817.532273 414.33173 
L 817.532273 111.247985 
L 817.532273 111.247985 
L 810.326671 113.337328 
L 803.12107 147.177531 
L 795.915468 179.52632 
L 788.709867 192.238153 
L 781.504265 206.482356 
L 774.298664 135.717867 
L 767.093062 149.145483 
L 759.887461 151.224975 
L 752.68186 160.012866 
L 745.476258 160.726379 
L 738.270657 116.339469 
L 731.065055 181.317062 
L 723.859454 153.75256 
L 716.653852 103.611057 
L 709.448251 174.253955 
L 702.242649 179.471107 
L 695.037048 161.507934 
L 687.831446 139.537724 
L 680.625845 133.714868 
L 673.420243 132.184659 
L 666.214642 137.877878 
L 659.00904 180.090668 
L 651.803439 140.995027 
L 644.597837 124.438441 
L 637.392236 103.004973 
L 630.186635 158.469106 
L 622.981033 148.231045 
L 615.775432 112.154468 
L 608.56983 91.768818 
L 601.364229 114.410405 
L 594.158627 108.091706 
L 586.953026 99.602264 
L 579.747424 115.407946 
L 572.541823 102.882938 
L 565.336221 99.204393 
L 558.13062 103.36006 
L 550.925018 118.054922 
L 543.719417 100.991717 
L 536.513815 89.481255 
L 529.308214 55.234545 
L 522.102612 87.746477 
L 514.897011 102.67684 
L 507.69141 110.316024 
L 500.485808 82.070606 
L 493.280207 104.603206 
L 486.074605 85.001527 
L 478.869004 116.48367 
L 471.663402 104.550491 
L 464.457801 115.790067 
L 457.252199 75.14047 
L 450.046598 102.853242 
L 442.840996 106.565415 
L 435.635395 90.322489 
L 428.429793 94.902502 
L 421.224192 113.889902 
L 414.01859 104.333077 
L 406.812989 95.93159 
L 399.607388 85.300933 
L 392.401786 112.366751 
L 385.196185 84.608328 
L 377.990583 102.783753 
L 370.784982 105.813594 
L 363.57938 103.377843 
L 356.373779 102.30201 
L 349.168177 81.287859 
L 341.962576 105.62965 
L 334.756974 103.823282 
L 327.551373 82.260797 
L 320.345771 82.788359 
L 313.14017 89.613523 
L 305.934568 81.710531 
L 298.728967 63.323263 
L 291.523365 62.161419 
L 284.317764 62.920382 
L 277.112163 62.185678 
L 269.906561 62.602629 
L 262.70096 62.176779 
L 255.495358 61.632901 
L 248.289757 62.081774 
L 241.084155 62.185299 
L 233.878554 61.93163 
L 226.672952 61.787742 
L 219.467351 81.757902 
L 212.261749 82.792188 
L 205.056148 62.567986 
L 197.850546 62.394541 
L 190.644945 61.348602 
L 183.439343 61.23442 
L 176.233742 61.842806 
L 169.02814 62.305889 
L 161.822539 62.981316 
L 154.616938 56.990736 
L 147.411336 63.015443 
L 140.205735 59.681201 
L 133.000133 60.100193 
L 125.794532 61.560062 
L 118.58893 58.105107 
L 111.383329 59.175338 
L 104.177727 60.384881 
z
" clip-path="url(#p3054f4ae6c)" style="fill: #ff7f0e; fill-opacity: 0.3"/>
   </g>
   <g id="PolyCollection_3">
    <path d="M 104.177727 117.131415 
L 104.177727 125.217987 
L 111.383329 124.903592 
L 118.58893 125.079397 
L 125.794532 125.380433 
L 133.000133 125.221603 
L 140.205735 124.905537 
L 147.411336 125.042301 
L 154.616938 125.036432 
L 161.822539 125.005852 
L 169.02814 124.993194 
L 176.233742 125.172427 
L 183.439343 125.384292 
L 190.644945 124.911177 
L 197.850546 125.050383 
L 205.056148 124.965824 
L 212.261749 125.041996 
L 219.467351 125.128694 
L 226.672952 124.814676 
L 233.878554 124.555904 
L 241.084155 125.06326 
L 248.289757 125.038048 
L 255.495358 124.948152 
L 262.70096 125.002822 
L 269.906561 124.981742 
L 277.112163 124.733069 
L 284.317764 125.171 
L 291.523365 124.869318 
L 298.728967 125.05097 
L 305.934568 125.118541 
L 313.14017 125.212227 
L 320.345771 124.749156 
L 327.551373 124.746251 
L 334.756974 124.856423 
L 341.962576 124.500355 
L 349.168177 124.652847 
L 356.373779 124.796867 
L 363.57938 124.7012 
L 370.784982 124.472579 
L 377.990583 124.593951 
L 385.196185 124.75008 
L 392.401786 124.850054 
L 399.607388 124.755887 
L 406.812989 124.777764 
L 414.01859 124.544549 
L 421.224192 124.648827 
L 428.429793 124.536683 
L 435.635395 124.631937 
L 442.840996 124.527954 
L 450.046598 124.641607 
L 457.252199 124.418793 
L 464.457801 124.423129 
L 471.663402 124.798632 
L 478.869004 124.41064 
L 486.074605 124.588944 
L 493.280207 124.475264 
L 500.485808 124.57633 
L 507.69141 124.531474 
L 514.897011 124.460559 
L 522.102612 124.509736 
L 529.308214 124.609784 
L 536.513815 124.325288 
L 543.719417 124.532217 
L 550.925018 124.41138 
L 558.13062 167.330923 
L 565.336221 167.279063 
L 572.541823 166.886517 
L 579.747424 166.613509 
L 586.953026 166.567713 
L 594.158627 166.434204 
L 601.364229 166.320977 
L 608.56983 165.985268 
L 615.775432 165.917275 
L 622.981033 165.864895 
L 630.186635 165.736139 
L 637.392236 165.50236 
L 644.597837 165.533318 
L 651.803439 165.482339 
L 659.00904 165.399655 
L 666.214642 164.938336 
L 673.420243 165.029235 
L 680.625845 164.868871 
L 687.831446 164.497567 
L 695.037048 164.436962 
L 702.242649 163.855342 
L 709.448251 163.430796 
L 716.653852 163.481441 
L 723.859454 163.137446 
L 731.065055 163.296794 
L 738.270657 162.919732 
L 745.476258 162.905432 
L 752.68186 162.48428 
L 759.887461 162.288216 
L 767.093062 162.368807 
L 774.298664 162.216737 
L 781.504265 162.220819 
L 788.709867 162.305266 
L 795.915468 161.861646 
L 803.12107 161.883113 
L 810.326671 161.849921 
L 817.532273 161.920506 
L 817.532273 110.262611 
L 817.532273 110.262611 
L 810.326671 110.414637 
L 803.12107 110.367968 
L 795.915468 110.383754 
L 788.709867 110.39443 
L 781.504265 110.05403 
L 774.298664 110.01498 
L 767.093062 110.085045 
L 759.887461 110.017445 
L 752.68186 110.041349 
L 745.476258 109.801752 
L 738.270657 109.92798 
L 731.065055 109.808123 
L 723.859454 109.897679 
L 716.653852 109.652482 
L 709.448251 109.771364 
L 702.242649 109.486746 
L 695.037048 109.355874 
L 687.831446 109.16268 
L 680.625845 109.255434 
L 673.420243 109.111289 
L 666.214642 109.106512 
L 659.00904 108.94375 
L 651.803439 108.978374 
L 644.597837 108.856541 
L 637.392236 108.796142 
L 630.186635 108.686867 
L 622.981033 108.722285 
L 615.775432 108.646169 
L 608.56983 108.667106 
L 601.364229 108.636504 
L 594.158627 108.593921 
L 586.953026 108.336799 
L 579.747424 108.220335 
L 572.541823 108.316369 
L 565.336221 108.165216 
L 558.13062 108.158758 
L 550.925018 120.14711 
L 543.719417 119.833348 
L 536.513815 119.651067 
L 529.308214 119.649237 
L 522.102612 119.506244 
L 514.897011 119.462126 
L 507.69141 119.380036 
L 500.485808 119.16465 
L 493.280207 119.395365 
L 486.074605 119.232579 
L 478.869004 119.191968 
L 471.663402 119.067012 
L 464.457801 118.996456 
L 457.252199 119.055216 
L 450.046598 119.121101 
L 442.840996 118.971745 
L 435.635395 118.988536 
L 428.429793 118.828134 
L 421.224192 118.977931 
L 414.01859 118.777548 
L 406.812989 118.976499 
L 399.607388 118.775416 
L 392.401786 118.591198 
L 385.196185 118.472887 
L 377.990583 118.396782 
L 370.784982 118.360439 
L 363.57938 118.461877 
L 356.373779 118.77081 
L 349.168177 118.525271 
L 341.962576 118.513438 
L 334.756974 118.479791 
L 327.551373 118.367851 
L 320.345771 118.214422 
L 313.14017 118.440799 
L 305.934568 118.198007 
L 298.728967 118.450979 
L 291.523365 118.235537 
L 284.317764 118.394483 
L 277.112163 118.172329 
L 269.906561 117.973259 
L 262.70096 118.099306 
L 255.495358 118.328347 
L 248.289757 117.798029 
L 241.084155 118.203828 
L 233.878554 117.866956 
L 226.672952 118.108578 
L 219.467351 117.769992 
L 212.261749 118.010707 
L 205.056148 117.78855 
L 197.850546 117.702792 
L 190.644945 117.63851 
L 183.439343 117.846588 
L 176.233742 117.637391 
L 169.02814 117.762284 
L 161.822539 117.575786 
L 154.616938 117.405959 
L 147.411336 117.514335 
L 140.205735 117.474876 
L 133.000133 117.688004 
L 125.794532 117.745814 
L 118.58893 117.430034 
L 111.383329 117.373458 
L 104.177727 117.131415 
z
" clip-path="url(#p3054f4ae6c)" style="fill: #2ca02c; fill-opacity: 0.3"/>
   </g>
   <g id="matplotlib.axis_1">
    <g id="xtick_1">
     <g id="line2d_1">
      <path d="M 175.513182 529.72 
L 175.513182 32.64 
" clip-path="url(#p3054f4ae6c)" style="fill: none; stroke: #b0b0b0; stroke-width: 0.8; stroke-linecap: square"/>
     </g>
     <g id="line2d_2">
      <defs>
       <path id="m00815f8adf" d="M 0 0 
L 0 3.5 
" style="stroke: #000000; stroke-width: 0.8"/>
      </defs>
      <g>
       <use xlink:href="#m00815f8adf" x="175.513182" y="529.72" style="stroke: #000000; stroke-width: 0.8"/>
      </g>
     </g>
     <g id="text_1">
      <!-- 0.8 -->
      <g transform="translate(165.971307 545.838125) scale(0.12 -0.12)">
       <defs>
        <path id="DejaVuSans-30" d="M 2034 4250 
Q 1547 4250 1301 3770 
Q 1056 3291 1056 2328 
Q 1056 1369 1301 889 
Q 1547 409 2034 409 
Q 2525 409 2770 889 
Q 3016 1369 3016 2328 
Q 3016 3291 2770 3770 
Q 2525 4250 2034 4250 
z
M 2034 4750 
Q 2819 4750 3233 4129 
Q 3647 3509 3647 2328 
Q 3647 1150 3233 529 
Q 2819 -91 2034 -91 
Q 1250 -91 836 529 
Q 422 1150 422 2328 
Q 422 3509 836 4129 
Q 1250 4750 2034 4750 
z
" transform="scale(0.015625)"/>
        <path id="DejaVuSans-2e" d="M 684 794 
L 1344 794 
L 1344 0 
L 684 0 
L 684 794 
z
" transform="scale(0.015625)"/>
        <path id="DejaVuSans-38" d="M 2034 2216 
Q 1584 2216 1326 1975 
Q 1069 1734 1069 1313 
Q 1069 891 1326 650 
Q 1584 409 2034 409 
Q 2484 409 2743 651 
Q 3003 894 3003 1313 
Q 3003 1734 2745 1975 
Q 2488 2216 2034 2216 
z
M 1403 2484 
Q 997 2584 770 2862 
Q 544 3141 544 3541 
Q 544 4100 942 4425 
Q 1341 4750 2034 4750 
Q 2731 4750 3128 4425 
Q 3525 4100 3525 3541 
Q 3525 3141 3298 2862 
Q 3072 2584 2669 2484 
Q 3125 2378 3379 2068 
Q 3634 1759 3634 1313 
Q 3634 634 3220 271 
Q 2806 -91 2034 -91 
Q 1263 -91 848 271 
Q 434 634 434 1313 
Q 434 1759 690 2068 
Q 947 2378 1403 2484 
z
M 1172 3481 
Q 1172 3119 1398 2916 
Q 1625 2713 2034 2713 
Q 2441 2713 2670 2916 
Q 2900 3119 2900 3481 
Q 2900 3844 2670 4047 
Q 2441 4250 2034 4250 
Q 1625 4250 1398 4047 
Q 1172 3844 1172 3481 
z
" transform="scale(0.015625)"/>
       </defs>
       <use xlink:href="#DejaVuSans-30"/>
       <use xlink:href="#DejaVuSans-2e" x="63.623047"/>
       <use xlink:href="#DejaVuSans-38" x="95.410156"/>
      </g>
     </g>
    </g>
    <g id="xtick_2">
     <g id="line2d_3">
      <path d="M 318.184091 529.72 
L 318.184091 32.64 
" clip-path="url(#p3054f4ae6c)" style="fill: none; stroke: #b0b0b0; stroke-width: 0.8; stroke-linecap: square"/>
     </g>
     <g id="line2d_4">
      <g>
       <use xlink:href="#m00815f8adf" x="318.184091" y="529.72" style="stroke: #000000; stroke-width: 0.8"/>
      </g>
     </g>
     <g id="text_2">
      <!-- 0.9 -->
      <g transform="translate(308.642216 545.838125) scale(0.12 -0.12)">
       <defs>
        <path id="DejaVuSans-39" d="M 703 97 
L 703 672 
Q 941 559 1184 500 
Q 1428 441 1663 441 
Q 2288 441 2617 861 
Q 2947 1281 2994 2138 
Q 2813 1869 2534 1725 
Q 2256 1581 1919 1581 
Q 1219 1581 811 2004 
Q 403 2428 403 3163 
Q 403 3881 828 4315 
Q 1253 4750 1959 4750 
Q 2769 4750 3195 4129 
Q 3622 3509 3622 2328 
Q 3622 1225 3098 567 
Q 2575 -91 1691 -91 
Q 1453 -91 1209 -44 
Q 966 3 703 97 
z
M 1959 2075 
Q 2384 2075 2632 2365 
Q 2881 2656 2881 3163 
Q 2881 3666 2632 3958 
Q 2384 4250 1959 4250 
Q 1534 4250 1286 3958 
Q 1038 3666 1038 3163 
Q 1038 2656 1286 2365 
Q 1534 2075 1959 2075 
z
" transform="scale(0.015625)"/>
       </defs>
       <use xlink:href="#DejaVuSans-30"/>
       <use xlink:href="#DejaVuSans-2e" x="63.623047"/>
       <use xlink:href="#DejaVuSans-39" x="95.410156"/>
      </g>
     </g>
    </g>
    <g id="xtick_3">
     <g id="line2d_5">
      <path d="M 460.855 529.72 
L 460.855 32.64 
" clip-path="url(#p3054f4ae6c)" style="fill: none; stroke: #b0b0b0; stroke-width: 0.8; stroke-linecap: square"/>
     </g>
     <g id="line2d_6">
      <g>
       <use xlink:href="#m00815f8adf" x="460.855" y="529.72" style="stroke: #000000; stroke-width: 0.8"/>
      </g>
     </g>
     <g id="text_3">
      <!-- 1.0 -->
      <g transform="translate(451.313125 545.838125) scale(0.12 -0.12)">
       <defs>
        <path id="DejaVuSans-31" d="M 794 531 
L 1825 531 
L 1825 4091 
L 703 3866 
L 703 4441 
L 1819 4666 
L 2450 4666 
L 2450 531 
L 3481 531 
L 3481 0 
L 794 0 
L 794 531 
z
" transform="scale(0.015625)"/>
       </defs>
       <use xlink:href="#DejaVuSans-31"/>
       <use xlink:href="#DejaVuSans-2e" x="63.623047"/>
       <use xlink:href="#DejaVuSans-30" x="95.410156"/>
      </g>
     </g>
    </g>
    <g id="xtick_4">
     <g id="line2d_7">
      <path d="M 603.525909 529.72 
L 603.525909 32.64 
" clip-path="url(#p3054f4ae6c)" style="fill: none; stroke: #b0b0b0; stroke-width: 0.8; stroke-linecap: square"/>
     </g>
     <g id="line2d_8">
      <g>
       <use xlink:href="#m00815f8adf" x="603.525909" y="529.72" style="stroke: #000000; stroke-width: 0.8"/>
      </g>
     </g>
     <g id="text_4">
      <!-- 1.1 -->
      <g transform="translate(593.984034 545.838125) scale(0.12 -0.12)">
       <use xlink:href="#DejaVuSans-31"/>
       <use xlink:href="#DejaVuSans-2e" x="63.623047"/>
       <use xlink:href="#DejaVuSans-31" x="95.410156"/>
      </g>
     </g>
    </g>
    <g id="xtick_5">
     <g id="line2d_9">
      <path d="M 746.196818 529.72 
L 746.196818 32.64 
" clip-path="url(#p3054f4ae6c)" style="fill: none; stroke: #b0b0b0; stroke-width: 0.8; stroke-linecap: square"/>
     </g>
     <g id="line2d_10">
      <g>
       <use xlink:href="#m00815f8adf" x="746.196818" y="529.72" style="stroke: #000000; stroke-width: 0.8"/>
      </g>
     </g>
     <g id="text_5">
      <!-- 1.2 -->
      <g transform="translate(736.654943 545.838125) scale(0.12 -0.12)">
       <defs>
        <path id="DejaVuSans-32" d="M 1228 531 
L 3431 531 
L 3431 0 
L 469 0 
L 469 531 
Q 828 903 1448 1529 
Q 2069 2156 2228 2338 
Q 2531 2678 2651 2914 
Q 2772 3150 2772 3378 
Q 2772 3750 2511 3984 
Q 2250 4219 1831 4219 
Q 1534 4219 1204 4116 
Q 875 4013 500 3803 
L 500 4441 
Q 881 4594 1212 4672 
Q 1544 4750 1819 4750 
Q 2544 4750 2975 4387 
Q 3406 4025 3406 3419 
Q 3406 3131 3298 2873 
Q 3191 2616 2906 2266 
Q 2828 2175 2409 1742 
Q 1991 1309 1228 531 
z
" transform="scale(0.015625)"/>
       </defs>
       <use xlink:href="#DejaVuSans-31"/>
       <use xlink:href="#DejaVuSans-2e" x="63.623047"/>
       <use xlink:href="#DejaVuSans-32" x="95.410156"/>
      </g>
     </g>
    </g>
    <g id="text_6">
     <!-- Pendulum mass (kg) -->
     <g transform="translate(389.254844 562.971563) scale(0.14 -0.14)">
      <defs>
       <path id="DejaVuSans-50" d="M 1259 4147 
L 1259 2394 
L 2053 2394 
Q 2494 2394 2734 2622 
Q 2975 2850 2975 3272 
Q 2975 3691 2734 3919 
Q 2494 4147 2053 4147 
L 1259 4147 
z
M 628 4666 
L 2053 4666 
Q 2838 4666 3239 4311 
Q 3641 3956 3641 3272 
Q 3641 2581 3239 2228 
Q 2838 1875 2053 1875 
L 1259 1875 
L 1259 0 
L 628 0 
L 628 4666 
z
" transform="scale(0.015625)"/>
       <path id="DejaVuSans-65" d="M 3597 1894 
L 3597 1613 
L 953 1613 
Q 991 1019 1311 708 
Q 1631 397 2203 397 
Q 2534 397 2845 478 
Q 3156 559 3463 722 
L 3463 178 
Q 3153 47 2828 -22 
Q 2503 -91 2169 -91 
Q 1331 -91 842 396 
Q 353 884 353 1716 
Q 353 2575 817 3079 
Q 1281 3584 2069 3584 
Q 2775 3584 3186 3129 
Q 3597 2675 3597 1894 
z
M 3022 2063 
Q 3016 2534 2758 2815 
Q 2500 3097 2075 3097 
Q 1594 3097 1305 2825 
Q 1016 2553 972 2059 
L 3022 2063 
z
" transform="scale(0.015625)"/>
       <path id="DejaVuSans-6e" d="M 3513 2113 
L 3513 0 
L 2938 0 
L 2938 2094 
Q 2938 2591 2744 2837 
Q 2550 3084 2163 3084 
Q 1697 3084 1428 2787 
Q 1159 2491 1159 1978 
L 1159 0 
L 581 0 
L 581 3500 
L 1159 3500 
L 1159 2956 
Q 1366 3272 1645 3428 
Q 1925 3584 2291 3584 
Q 2894 3584 3203 3211 
Q 3513 2838 3513 2113 
z
" transform="scale(0.015625)"/>
       <path id="DejaVuSans-64" d="M 2906 2969 
L 2906 4863 
L 3481 4863 
L 3481 0 
L 2906 0 
L 2906 525 
Q 2725 213 2448 61 
Q 2172 -91 1784 -91 
Q 1150 -91 751 415 
Q 353 922 353 1747 
Q 353 2572 751 3078 
Q 1150 3584 1784 3584 
Q 2172 3584 2448 3432 
Q 2725 3281 2906 2969 
z
M 947 1747 
Q 947 1113 1208 752 
Q 1469 391 1925 391 
Q 2381 391 2643 752 
Q 2906 1113 2906 1747 
Q 2906 2381 2643 2742 
Q 2381 3103 1925 3103 
Q 1469 3103 1208 2742 
Q 947 2381 947 1747 
z
" transform="scale(0.015625)"/>
       <path id="DejaVuSans-75" d="M 544 1381 
L 544 3500 
L 1119 3500 
L 1119 1403 
Q 1119 906 1312 657 
Q 1506 409 1894 409 
Q 2359 409 2629 706 
Q 2900 1003 2900 1516 
L 2900 3500 
L 3475 3500 
L 3475 0 
L 2900 0 
L 2900 538 
Q 2691 219 2414 64 
Q 2138 -91 1772 -91 
Q 1169 -91 856 284 
Q 544 659 544 1381 
z
M 1991 3584 
L 1991 3584 
z
" transform="scale(0.015625)"/>
       <path id="DejaVuSans-6c" d="M 603 4863 
L 1178 4863 
L 1178 0 
L 603 0 
L 603 4863 
z
" transform="scale(0.015625)"/>
       <path id="DejaVuSans-6d" d="M 3328 2828 
Q 3544 3216 3844 3400 
Q 4144 3584 4550 3584 
Q 5097 3584 5394 3201 
Q 5691 2819 5691 2113 
L 5691 0 
L 5113 0 
L 5113 2094 
Q 5113 2597 4934 2840 
Q 4756 3084 4391 3084 
Q 3944 3084 3684 2787 
Q 3425 2491 3425 1978 
L 3425 0 
L 2847 0 
L 2847 2094 
Q 2847 2600 2669 2842 
Q 2491 3084 2119 3084 
Q 1678 3084 1418 2786 
Q 1159 2488 1159 1978 
L 1159 0 
L 581 0 
L 581 3500 
L 1159 3500 
L 1159 2956 
Q 1356 3278 1631 3431 
Q 1906 3584 2284 3584 
Q 2666 3584 2933 3390 
Q 3200 3197 3328 2828 
z
" transform="scale(0.015625)"/>
       <path id="DejaVuSans-20" transform="scale(0.015625)"/>
       <path id="DejaVuSans-61" d="M 2194 1759 
Q 1497 1759 1228 1600 
Q 959 1441 959 1056 
Q 959 750 1161 570 
Q 1363 391 1709 391 
Q 2188 391 2477 730 
Q 2766 1069 2766 1631 
L 2766 1759 
L 2194 1759 
z
M 3341 1997 
L 3341 0 
L 2766 0 
L 2766 531 
Q 2569 213 2275 61 
Q 1981 -91 1556 -91 
Q 1019 -91 701 211 
Q 384 513 384 1019 
Q 384 1609 779 1909 
Q 1175 2209 1959 2209 
L 2766 2209 
L 2766 2266 
Q 2766 2663 2505 2880 
Q 2244 3097 1772 3097 
Q 1472 3097 1187 3025 
Q 903 2953 641 2809 
L 641 3341 
Q 956 3463 1253 3523 
Q 1550 3584 1831 3584 
Q 2591 3584 2966 3190 
Q 3341 2797 3341 1997 
z
" transform="scale(0.015625)"/>
       <path id="DejaVuSans-73" d="M 2834 3397 
L 2834 2853 
Q 2591 2978 2328 3040 
Q 2066 3103 1784 3103 
Q 1356 3103 1142 2972 
Q 928 2841 928 2578 
Q 928 2378 1081 2264 
Q 1234 2150 1697 2047 
L 1894 2003 
Q 2506 1872 2764 1633 
Q 3022 1394 3022 966 
Q 3022 478 2636 193 
Q 2250 -91 1575 -91 
Q 1294 -91 989 -36 
Q 684 19 347 128 
L 347 722 
Q 666 556 975 473 
Q 1284 391 1588 391 
Q 1994 391 2212 530 
Q 2431 669 2431 922 
Q 2431 1156 2273 1281 
Q 2116 1406 1581 1522 
L 1381 1569 
Q 847 1681 609 1914 
Q 372 2147 372 2553 
Q 372 3047 722 3315 
Q 1072 3584 1716 3584 
Q 2034 3584 2315 3537 
Q 2597 3491 2834 3397 
z
" transform="scale(0.015625)"/>
       <path id="DejaVuSans-28" d="M 1984 4856 
Q 1566 4138 1362 3434 
Q 1159 2731 1159 2009 
Q 1159 1288 1364 580 
Q 1569 -128 1984 -844 
L 1484 -844 
Q 1016 -109 783 600 
Q 550 1309 550 2009 
Q 550 2706 781 3412 
Q 1013 4119 1484 4856 
L 1984 4856 
z
" transform="scale(0.015625)"/>
       <path id="DejaVuSans-6b" d="M 581 4863 
L 1159 4863 
L 1159 1991 
L 2875 3500 
L 3609 3500 
L 1753 1863 
L 3688 0 
L 2938 0 
L 1159 1709 
L 1159 0 
L 581 0 
L 581 4863 
z
" transform="scale(0.015625)"/>
       <path id="DejaVuSans-67" d="M 2906 1791 
Q 2906 2416 2648 2759 
Q 2391 3103 1925 3103 
Q 1463 3103 1205 2759 
Q 947 2416 947 1791 
Q 947 1169 1205 825 
Q 1463 481 1925 481 
Q 2391 481 2648 825 
Q 2906 1169 2906 1791 
z
M 3481 434 
Q 3481 -459 3084 -895 
Q 2688 -1331 1869 -1331 
Q 1566 -1331 1297 -1286 
Q 1028 -1241 775 -1147 
L 775 -588 
Q 1028 -725 1275 -790 
Q 1522 -856 1778 -856 
Q 2344 -856 2625 -561 
Q 2906 -266 2906 331 
L 2906 616 
Q 2728 306 2450 153 
Q 2172 0 1784 0 
Q 1141 0 747 490 
Q 353 981 353 1791 
Q 353 2603 747 3093 
Q 1141 3584 1784 3584 
Q 2172 3584 2450 3431 
Q 2728 3278 2906 2969 
L 2906 3500 
L 3481 3500 
L 3481 434 
z
" transform="scale(0.015625)"/>
       <path id="DejaVuSans-29" d="M 513 4856 
L 1013 4856 
Q 1481 4119 1714 3412 
Q 1947 2706 1947 2009 
Q 1947 1309 1714 600 
Q 1481 -109 1013 -844 
L 513 -844 
Q 928 -128 1133 580 
Q 1338 1288 1338 2009 
Q 1338 2731 1133 3434 
Q 928 4138 513 4856 
z
" transform="scale(0.015625)"/>
      </defs>
      <use xlink:href="#DejaVuSans-50"/>
      <use xlink:href="#DejaVuSans-65" x="56.677734"/>
      <use xlink:href="#DejaVuSans-6e" x="118.201172"/>
      <use xlink:href="#DejaVuSans-64" x="181.580078"/>
      <use xlink:href="#DejaVuSans-75" x="245.056641"/>
      <use xlink:href="#DejaVuSans-6c" x="308.435547"/>
      <use xlink:href="#DejaVuSans-75" x="336.21875"/>
      <use xlink:href="#DejaVuSans-6d" x="399.597656"/>
      <use xlink:href="#DejaVuSans-20" x="497.009766"/>
      <use xlink:href="#DejaVuSans-6d" x="528.796875"/>
      <use xlink:href="#DejaVuSans-61" x="626.208984"/>
      <use xlink:href="#DejaVuSans-73" x="687.488281"/>
      <use xlink:href="#DejaVuSans-73" x="739.587891"/>
      <use xlink:href="#DejaVuSans-20" x="791.6875"/>
      <use xlink:href="#DejaVuSans-28" x="823.474609"/>
      <use xlink:href="#DejaVuSans-6b" x="862.488281"/>
      <use xlink:href="#DejaVuSans-67" x="920.398438"/>
      <use xlink:href="#DejaVuSans-29" x="983.875"/>
     </g>
    </g>
   </g>
   <g id="matplotlib.axis_2">
    <g id="ytick_1">
     <g id="line2d_11">
      <path d="M 68.51 476.032212 
L 853.2 476.032212 
" clip-path="url(#p3054f4ae6c)" style="fill: none; stroke: #b0b0b0; stroke-width: 0.8; stroke-linecap: square"/>
     </g>
     <g id="line2d_12">
      <defs>
       <path id="mc5cac3b71f" d="M 0 0 
L -3.5 0 
" style="stroke: #000000; stroke-width: 0.8"/>
      </defs>
      <g>
       <use xlink:href="#mc5cac3b71f" x="68.51" y="476.032212" style="stroke: #000000; stroke-width: 0.8"/>
      </g>
     </g>
     <g id="text_7">
      <!-- −700 -->
      <g transform="translate(28.549375 480.591274) scale(0.12 -0.12)">
       <defs>
        <path id="DejaVuSans-2212" d="M 678 2272 
L 4684 2272 
L 4684 1741 
L 678 1741 
L 678 2272 
z
" transform="scale(0.015625)"/>
        <path id="DejaVuSans-37" d="M 525 4666 
L 3525 4666 
L 3525 4397 
L 1831 0 
L 1172 0 
L 2766 4134 
L 525 4134 
L 525 4666 
z
" transform="scale(0.015625)"/>
       </defs>
       <use xlink:href="#DejaVuSans-2212"/>
       <use xlink:href="#DejaVuSans-37" x="83.789062"/>
       <use xlink:href="#DejaVuSans-30" x="147.412109"/>
       <use xlink:href="#DejaVuSans-30" x="211.035156"/>
      </g>
     </g>
    </g>
    <g id="ytick_2">
     <g id="line2d_13">
      <path d="M 68.51 414.589967 
L 853.2 414.589967 
" clip-path="url(#p3054f4ae6c)" style="fill: none; stroke: #b0b0b0; stroke-width: 0.8; stroke-linecap: square"/>
     </g>
     <g id="line2d_14">
      <g>
       <use xlink:href="#mc5cac3b71f" x="68.51" y="414.589967" style="stroke: #000000; stroke-width: 0.8"/>
      </g>
     </g>
     <g id="text_8">
      <!-- −600 -->
      <g transform="translate(28.549375 419.149029) scale(0.12 -0.12)">
       <defs>
        <path id="DejaVuSans-36" d="M 2113 2584 
Q 1688 2584 1439 2293 
Q 1191 2003 1191 1497 
Q 1191 994 1439 701 
Q 1688 409 2113 409 
Q 2538 409 2786 701 
Q 3034 994 3034 1497 
Q 3034 2003 2786 2293 
Q 2538 2584 2113 2584 
z
M 3366 4563 
L 3366 3988 
Q 3128 4100 2886 4159 
Q 2644 4219 2406 4219 
Q 1781 4219 1451 3797 
Q 1122 3375 1075 2522 
Q 1259 2794 1537 2939 
Q 1816 3084 2150 3084 
Q 2853 3084 3261 2657 
Q 3669 2231 3669 1497 
Q 3669 778 3244 343 
Q 2819 -91 2113 -91 
Q 1303 -91 875 529 
Q 447 1150 447 2328 
Q 447 3434 972 4092 
Q 1497 4750 2381 4750 
Q 2619 4750 2861 4703 
Q 3103 4656 3366 4563 
z
" transform="scale(0.015625)"/>
       </defs>
       <use xlink:href="#DejaVuSans-2212"/>
       <use xlink:href="#DejaVuSans-36" x="83.789062"/>
       <use xlink:href="#DejaVuSans-30" x="147.412109"/>
       <use xlink:href="#DejaVuSans-30" x="211.035156"/>
      </g>
     </g>
    </g>
    <g id="ytick_3">
     <g id="line2d_15">
      <path d="M 68.51 353.147722 
L 853.2 353.147722 
" clip-path="url(#p3054f4ae6c)" style="fill: none; stroke: #b0b0b0; stroke-width: 0.8; stroke-linecap: square"/>
     </g>
     <g id="line2d_16">
      <g>
       <use xlink:href="#mc5cac3b71f" x="68.51" y="353.147722" style="stroke: #000000; stroke-width: 0.8"/>
      </g>
     </g>
     <g id="text_9">
      <!-- −500 -->
      <g transform="translate(28.549375 357.706785) scale(0.12 -0.12)">
       <defs>
        <path id="DejaVuSans-35" d="M 691 4666 
L 3169 4666 
L 3169 4134 
L 1269 4134 
L 1269 2991 
Q 1406 3038 1543 3061 
Q 1681 3084 1819 3084 
Q 2600 3084 3056 2656 
Q 3513 2228 3513 1497 
Q 3513 744 3044 326 
Q 2575 -91 1722 -91 
Q 1428 -91 1123 -41 
Q 819 9 494 109 
L 494 744 
Q 775 591 1075 516 
Q 1375 441 1709 441 
Q 2250 441 2565 725 
Q 2881 1009 2881 1497 
Q 2881 1984 2565 2268 
Q 2250 2553 1709 2553 
Q 1456 2553 1204 2497 
Q 953 2441 691 2322 
L 691 4666 
z
" transform="scale(0.015625)"/>
       </defs>
       <use xlink:href="#DejaVuSans-2212"/>
       <use xlink:href="#DejaVuSans-35" x="83.789062"/>
       <use xlink:href="#DejaVuSans-30" x="147.412109"/>
       <use xlink:href="#DejaVuSans-30" x="211.035156"/>
      </g>
     </g>
    </g>
    <g id="ytick_4">
     <g id="line2d_17">
      <path d="M 68.51 291.705477 
L 853.2 291.705477 
" clip-path="url(#p3054f4ae6c)" style="fill: none; stroke: #b0b0b0; stroke-width: 0.8; stroke-linecap: square"/>
     </g>
     <g id="line2d_18">
      <g>
       <use xlink:href="#mc5cac3b71f" x="68.51" y="291.705477" style="stroke: #000000; stroke-width: 0.8"/>
      </g>
     </g>
     <g id="text_10">
      <!-- −400 -->
      <g transform="translate(28.549375 296.26454) scale(0.12 -0.12)">
       <defs>
        <path id="DejaVuSans-34" d="M 2419 4116 
L 825 1625 
L 2419 1625 
L 2419 4116 
z
M 2253 4666 
L 3047 4666 
L 3047 1625 
L 3713 1625 
L 3713 1100 
L 3047 1100 
L 3047 0 
L 2419 0 
L 2419 1100 
L 313 1100 
L 313 1709 
L 2253 4666 
z
" transform="scale(0.015625)"/>
       </defs>
       <use xlink:href="#DejaVuSans-2212"/>
       <use xlink:href="#DejaVuSans-34" x="83.789062"/>
       <use xlink:href="#DejaVuSans-30" x="147.412109"/>
       <use xlink:href="#DejaVuSans-30" x="211.035156"/>
      </g>
     </g>
    </g>
    <g id="ytick_5">
     <g id="line2d_19">
      <path d="M 68.51 230.263232 
L 853.2 230.263232 
" clip-path="url(#p3054f4ae6c)" style="fill: none; stroke: #b0b0b0; stroke-width: 0.8; stroke-linecap: square"/>
     </g>
     <g id="line2d_20">
      <g>
       <use xlink:href="#mc5cac3b71f" x="68.51" y="230.263232" style="stroke: #000000; stroke-width: 0.8"/>
      </g>
     </g>
     <g id="text_11">
      <!-- −300 -->
      <g transform="translate(28.549375 234.822295) scale(0.12 -0.12)">
       <defs>
        <path id="DejaVuSans-33" d="M 2597 2516 
Q 3050 2419 3304 2112 
Q 3559 1806 3559 1356 
Q 3559 666 3084 287 
Q 2609 -91 1734 -91 
Q 1441 -91 1130 -33 
Q 819 25 488 141 
L 488 750 
Q 750 597 1062 519 
Q 1375 441 1716 441 
Q 2309 441 2620 675 
Q 2931 909 2931 1356 
Q 2931 1769 2642 2001 
Q 2353 2234 1838 2234 
L 1294 2234 
L 1294 2753 
L 1863 2753 
Q 2328 2753 2575 2939 
Q 2822 3125 2822 3475 
Q 2822 3834 2567 4026 
Q 2313 4219 1838 4219 
Q 1578 4219 1281 4162 
Q 984 4106 628 3988 
L 628 4550 
Q 988 4650 1302 4700 
Q 1616 4750 1894 4750 
Q 2613 4750 3031 4423 
Q 3450 4097 3450 3541 
Q 3450 3153 3228 2886 
Q 3006 2619 2597 2516 
z
" transform="scale(0.015625)"/>
       </defs>
       <use xlink:href="#DejaVuSans-2212"/>
       <use xlink:href="#DejaVuSans-33" x="83.789062"/>
       <use xlink:href="#DejaVuSans-30" x="147.412109"/>
       <use xlink:href="#DejaVuSans-30" x="211.035156"/>
      </g>
     </g>
    </g>
    <g id="ytick_6">
     <g id="line2d_21">
      <path d="M 68.51 168.820988 
L 853.2 168.820988 
" clip-path="url(#p3054f4ae6c)" style="fill: none; stroke: #b0b0b0; stroke-width: 0.8; stroke-linecap: square"/>
     </g>
     <g id="line2d_22">
      <g>
       <use xlink:href="#mc5cac3b71f" x="68.51" y="168.820988" style="stroke: #000000; stroke-width: 0.8"/>
      </g>
     </g>
     <g id="text_12">
      <!-- −200 -->
      <g transform="translate(28.549375 173.38005) scale(0.12 -0.12)">
       <use xlink:href="#DejaVuSans-2212"/>
       <use xlink:href="#DejaVuSans-32" x="83.789062"/>
       <use xlink:href="#DejaVuSans-30" x="147.412109"/>
       <use xlink:href="#DejaVuSans-30" x="211.035156"/>
      </g>
     </g>
    </g>
    <g id="ytick_7">
     <g id="line2d_23">
      <path d="M 68.51 107.378743 
L 853.2 107.378743 
" clip-path="url(#p3054f4ae6c)" style="fill: none; stroke: #b0b0b0; stroke-width: 0.8; stroke-linecap: square"/>
     </g>
     <g id="line2d_24">
      <g>
       <use xlink:href="#mc5cac3b71f" x="68.51" y="107.378743" style="stroke: #000000; stroke-width: 0.8"/>
      </g>
     </g>
     <g id="text_13">
      <!-- −100 -->
      <g transform="translate(28.549375 111.937805) scale(0.12 -0.12)">
       <use xlink:href="#DejaVuSans-2212"/>
       <use xlink:href="#DejaVuSans-31" x="83.789062"/>
       <use xlink:href="#DejaVuSans-30" x="147.412109"/>
       <use xlink:href="#DejaVuSans-30" x="211.035156"/>
      </g>
     </g>
    </g>
    <g id="ytick_8">
     <g id="line2d_25">
      <path d="M 68.51 45.936498 
L 853.2 45.936498 
" clip-path="url(#p3054f4ae6c)" style="fill: none; stroke: #b0b0b0; stroke-width: 0.8; stroke-linecap: square"/>
     </g>
     <g id="line2d_26">
      <g>
       <use xlink:href="#mc5cac3b71f" x="68.51" y="45.936498" style="stroke: #000000; stroke-width: 0.8"/>
      </g>
     </g>
     <g id="text_14">
      <!-- 0 -->
      <g transform="translate(53.875 50.49556) scale(0.12 -0.12)">
       <use xlink:href="#DejaVuSans-30"/>
      </g>
     </g>
    </g>
    <g id="text_15">
     <!-- Reward -->
     <g transform="translate(21.637812 307.249531) rotate(-90) scale(0.14 -0.14)">
      <defs>
       <path id="DejaVuSans-52" d="M 2841 2188 
Q 3044 2119 3236 1894 
Q 3428 1669 3622 1275 
L 4263 0 
L 3584 0 
L 2988 1197 
Q 2756 1666 2539 1819 
Q 2322 1972 1947 1972 
L 1259 1972 
L 1259 0 
L 628 0 
L 628 4666 
L 2053 4666 
Q 2853 4666 3247 4331 
Q 3641 3997 3641 3322 
Q 3641 2881 3436 2590 
Q 3231 2300 2841 2188 
z
M 1259 4147 
L 1259 2491 
L 2053 2491 
Q 2509 2491 2742 2702 
Q 2975 2913 2975 3322 
Q 2975 3731 2742 3939 
Q 2509 4147 2053 4147 
L 1259 4147 
z
" transform="scale(0.015625)"/>
       <path id="DejaVuSans-77" d="M 269 3500 
L 844 3500 
L 1563 769 
L 2278 3500 
L 2956 3500 
L 3675 769 
L 4391 3500 
L 4966 3500 
L 4050 0 
L 3372 0 
L 2619 2869 
L 1863 0 
L 1184 0 
L 269 3500 
z
" transform="scale(0.015625)"/>
       <path id="DejaVuSans-72" d="M 2631 2963 
Q 2534 3019 2420 3045 
Q 2306 3072 2169 3072 
Q 1681 3072 1420 2755 
Q 1159 2438 1159 1844 
L 1159 0 
L 581 0 
L 581 3500 
L 1159 3500 
L 1159 2956 
Q 1341 3275 1631 3429 
Q 1922 3584 2338 3584 
Q 2397 3584 2469 3576 
Q 2541 3569 2628 3553 
L 2631 2963 
z
" transform="scale(0.015625)"/>
      </defs>
      <use xlink:href="#DejaVuSans-52"/>
      <use xlink:href="#DejaVuSans-65" x="64.982422"/>
      <use xlink:href="#DejaVuSans-77" x="126.505859"/>
      <use xlink:href="#DejaVuSans-61" x="208.292969"/>
      <use xlink:href="#DejaVuSans-72" x="269.572266"/>
      <use xlink:href="#DejaVuSans-64" x="308.935547"/>
     </g>
    </g>
   </g>
   <g id="line2d_27">
    <path d="M 104.177727 185.578209 
L 111.383329 169.895658 
L 118.58893 170.162633 
L 125.794532 185.378359 
L 133.000133 185.391394 
L 140.205735 200.882232 
L 147.411336 185.451183 
L 154.616938 185.083052 
L 161.822539 200.826755 
L 169.02814 200.624059 
L 176.233742 200.89386 
L 183.439343 185.165422 
L 190.644945 200.486416 
L 197.850546 200.472879 
L 205.056148 200.288623 
L 212.261749 200.227443 
L 219.467351 200.18047 
L 226.672952 200.12034 
L 233.878554 200.085375 
L 241.084155 199.692506 
L 248.289757 199.818079 
L 255.495358 199.600441 
L 262.70096 199.742035 
L 269.906561 246.818657 
L 277.112163 199.741385 
L 284.317764 215.364582 
L 291.523365 278.602678 
L 298.728967 215.275246 
L 305.934568 262.602038 
L 313.14017 215.109085 
L 320.345771 214.999214 
L 327.551373 199.185656 
L 334.756974 199.381474 
L 341.962576 199.13304 
L 349.168177 214.855886 
L 356.373779 214.752698 
L 363.57938 199.082655 
L 370.784982 214.531889 
L 377.990583 198.899897 
L 385.196185 245.909406 
L 392.401786 214.57444 
L 399.607388 306.240853 
L 406.812989 214.289902 
L 414.01859 230.082624 
L 421.224192 214.417488 
L 428.429793 229.964364 
L 435.635395 214.44062 
L 442.840996 245.565873 
L 450.046598 229.863176 
L 457.252199 245.201962 
L 464.457801 198.74389 
L 471.663402 279.299137 
L 478.869004 229.585362 
L 486.074605 276.467987 
L 493.280207 261.034107 
L 500.485808 245.009826 
L 507.69141 308.254523 
L 514.897011 291.886274 
L 522.102612 276.216713 
L 529.308214 260.40169 
L 536.513815 244.620766 
L 543.719417 245.10604 
L 550.925018 259.976229 
L 558.13062 307.151608 
L 565.336221 275.613 
L 572.541823 323.382652 
L 579.747424 244.420396 
L 586.953026 244.302011 
L 594.158627 290.414173 
L 601.364229 291.711483 
L 608.56983 275.230576 
L 615.775432 322.416094 
L 622.981033 259.27453 
L 630.186635 274.963205 
L 637.392236 353.471698 
L 644.597837 274.961638 
L 651.803439 321.562386 
L 659.00904 274.823315 
L 666.214642 274.640505 
L 673.420243 337.049653 
L 680.625845 290.113994 
L 687.831446 335.222368 
L 695.037048 274.260719 
L 702.242649 289.899877 
L 709.448251 321.228226 
L 716.653852 289.500126 
L 723.859454 334.547581 
L 731.065055 345.800002 
L 738.270657 321.106913 
L 745.476258 305.111029 
L 752.68186 305.204594 
L 759.887461 383.005579 
L 767.093062 289.241163 
L 774.298664 336.277725 
L 781.504265 289.432583 
L 788.709867 289.046182 
L 795.915468 304.85864 
L 803.12107 289.009099 
L 810.326671 351.709909 
L 817.532273 320.192331 
" clip-path="url(#p3054f4ae6c)" style="fill: none; stroke: #1f77b4; stroke-width: 1.5; stroke-linecap: square"/>
   </g>
   <g id="line2d_28">
    <path d="M 104.177727 189.099173 
L 111.383329 191.30753 
L 118.58893 191.460299 
L 125.794532 188.20339 
L 133.000133 189.225675 
L 140.205735 188.735666 
L 147.411336 188.778171 
L 154.616938 192.551311 
L 161.822539 188.046503 
L 169.02814 188.048293 
L 176.233742 187.843371 
L 183.439343 187.82332 
L 190.644945 188.250459 
L 197.850546 188.016784 
L 205.056148 187.806305 
L 212.261749 203.826842 
L 219.467351 203.311647 
L 226.672952 187.710385 
L 233.878554 187.538315 
L 241.084155 188.100516 
L 248.289757 187.764644 
L 255.495358 187.366193 
L 262.70096 188.947634 
L 269.906561 187.840362 
L 277.112163 187.840418 
L 284.317764 188.279126 
L 291.523365 188.055633 
L 298.728967 188.328298 
L 305.934568 203.566952 
L 313.14017 195.033829 
L 320.345771 202.759942 
L 327.551373 202.444667 
L 334.756974 219.164647 
L 341.962576 220.05564 
L 349.168177 202.240967 
L 356.373779 221.103302 
L 363.57938 218.130143 
L 370.784982 215.510913 
L 377.990583 217.925857 
L 385.196185 200.003389 
L 392.401786 209.707575 
L 399.607388 199.383217 
L 406.812989 188.937059 
L 414.01859 218.146779 
L 421.224192 205.741977 
L 428.429793 188.115768 
L 435.635395 232.449693 
L 442.840996 213.873547 
L 450.046598 219.03918 
L 457.252199 248.179286 
L 464.457801 202.975954 
L 471.663402 217.11349 
L 478.869004 203.327019 
L 486.074605 238.841045 
L 493.280207 216.471734 
L 500.485808 242.009866 
L 507.69141 275.855906 
L 514.897011 217.48643 
L 522.102612 235.081612 
L 529.308214 230.19358 
L 536.513815 236.149693 
L 543.719417 220.823381 
L 550.925018 229.715209 
L 558.13062 249.766272 
L 565.336221 277.280742 
L 572.541823 280.809712 
L 579.747424 234.744814 
L 586.953026 253.99964 
L 594.158627 295.518025 
L 601.364229 234.956934 
L 608.56983 267.554094 
L 615.775432 237.420406 
L 622.981033 263.514853 
L 630.186635 300.027083 
L 637.392236 278.336691 
L 644.597837 289.915415 
L 651.803439 276.406105 
L 659.00904 295.638725 
L 666.214642 281.040483 
L 673.420243 289.449907 
L 680.625845 287.500717 
L 687.831446 278.290235 
L 695.037048 291.974044 
L 702.242649 294.168446 
L 709.448251 309.184208 
L 716.653852 274.571785 
L 723.859454 307.673193 
L 731.065055 333.838188 
L 738.270657 256.69394 
L 745.476258 294.033377 
L 752.68186 293.935668 
L 759.887461 306.667189 
L 767.093062 266.101448 
L 774.298664 286.25617 
L 781.504265 349.915023 
L 788.709867 309.713416 
L 795.915468 293.542776 
L 803.12107 311.86609 
L 810.326671 282.833583 
L 817.532273 262.789857 
" clip-path="url(#p3054f4ae6c)" style="fill: none; stroke: #ff7f0e; stroke-width: 1.5; stroke-linecap: square"/>
   </g>
   <g id="line2d_29">
    <path d="M 104.177727 121.174701 
L 111.383329 121.138525 
L 118.58893 121.254716 
L 125.794532 121.563123 
L 133.000133 121.454803 
L 140.205735 121.190206 
L 147.411336 121.278318 
L 154.616938 121.221195 
L 161.822539 121.290819 
L 169.02814 121.377739 
L 176.233742 121.404909 
L 183.439343 121.61544 
L 190.644945 121.274843 
L 197.850546 121.376588 
L 205.056148 121.377187 
L 212.261749 121.526352 
L 219.467351 121.449343 
L 226.672952 121.461627 
L 233.878554 121.21143 
L 241.084155 121.633544 
L 248.289757 121.418039 
L 255.495358 121.638249 
L 262.70096 121.551064 
L 269.906561 121.477501 
L 277.112163 121.452699 
L 284.317764 121.782741 
L 291.523365 121.552428 
L 298.728967 121.750974 
L 305.934568 121.658274 
L 313.14017 121.826513 
L 320.345771 121.481789 
L 327.551373 121.557051 
L 334.756974 121.668107 
L 341.962576 121.506896 
L 349.168177 121.589059 
L 356.373779 121.783839 
L 363.57938 121.581538 
L 370.784982 121.416509 
L 377.990583 121.495367 
L 385.196185 121.611483 
L 392.401786 121.720626 
L 399.607388 121.765651 
L 406.812989 121.877131 
L 414.01859 121.661049 
L 421.224192 121.813379 
L 428.429793 121.682408 
L 435.635395 121.810236 
L 442.840996 121.749849 
L 450.046598 121.881354 
L 457.252199 121.737004 
L 464.457801 121.709793 
L 471.663402 121.932822 
L 478.869004 121.801304 
L 486.074605 121.910762 
L 493.280207 121.935314 
L 500.485808 121.87049 
L 507.69141 121.955755 
L 514.897011 121.961343 
L 522.102612 122.00799 
L 529.308214 122.12951 
L 536.513815 121.988177 
L 543.719417 122.182783 
L 550.925018 122.279245 
L 558.13062 137.744841 
L 565.336221 137.72214 
L 572.541823 137.601443 
L 579.747424 137.416922 
L 586.953026 137.452256 
L 594.158627 137.514063 
L 601.364229 137.478741 
L 608.56983 137.326187 
L 615.775432 137.281722 
L 622.981033 137.29359 
L 630.186635 137.211503 
L 637.392236 137.149251 
L 644.597837 137.194929 
L 651.803439 137.230356 
L 659.00904 137.171703 
L 666.214642 137.022424 
L 673.420243 137.070262 
L 680.625845 137.062153 
L 687.831446 136.830124 
L 695.037048 136.896418 
L 702.242649 136.671044 
L 709.448251 136.60108 
L 716.653852 136.566961 
L 723.859454 136.517563 
L 731.065055 136.552459 
L 738.270657 136.423856 
L 745.476258 136.353592 
L 752.68186 136.262814 
L 759.887461 136.15283 
L 767.093062 136.226926 
L 774.298664 136.115859 
L 781.504265 136.137424 
L 788.709867 136.349848 
L 795.915468 136.1227 
L 803.12107 136.12554 
L 810.326671 136.132279 
L 817.532273 136.091558 
" clip-path="url(#p3054f4ae6c)" style="fill: none; stroke: #2ca02c; stroke-width: 1.5; stroke-linecap: square"/>
   </g>
   <g id="patch_3">
    <path d="M 68.51 529.72 
L 68.51 32.64 
" style="fill: none; stroke: #000000; stroke-width: 0.8; stroke-linejoin: miter; stroke-linecap: square"/>
   </g>
   <g id="patch_4">
    <path d="M 853.2 529.72 
L 853.2 32.64 
" style="fill: none; stroke: #000000; stroke-width: 0.8; stroke-linejoin: miter; stroke-linecap: square"/>
   </g>
   <g id="patch_5">
    <path d="M 68.51 529.72 
L 853.2 529.72 
" style="fill: none; stroke: #000000; stroke-width: 0.8; stroke-linejoin: miter; stroke-linecap: square"/>
   </g>
   <g id="patch_6">
    <path d="M 68.51 32.64 
L 853.2 32.64 
" style="fill: none; stroke: #000000; stroke-width: 0.8; stroke-linejoin: miter; stroke-linecap: square"/>
   </g>
   <g id="text_16">
    <!-- Pendulum Mass Robustness Comparison -->
    <g transform="translate(233.114375 26.64) scale(0.2 -0.2)">
     <defs>
      <path id="DejaVuSans-Bold-50" d="M 588 4666 
L 2584 4666 
Q 3475 4666 3951 4270 
Q 4428 3875 4428 3144 
Q 4428 2409 3951 2014 
Q 3475 1619 2584 1619 
L 1791 1619 
L 1791 0 
L 588 0 
L 588 4666 
z
M 1791 3794 
L 1791 2491 
L 2456 2491 
Q 2806 2491 2997 2661 
Q 3188 2831 3188 3144 
Q 3188 3456 2997 3625 
Q 2806 3794 2456 3794 
L 1791 3794 
z
" transform="scale(0.015625)"/>
      <path id="DejaVuSans-Bold-65" d="M 4031 1759 
L 4031 1441 
L 1416 1441 
Q 1456 1047 1700 850 
Q 1944 653 2381 653 
Q 2734 653 3104 758 
Q 3475 863 3866 1075 
L 3866 213 
Q 3469 63 3072 -14 
Q 2675 -91 2278 -91 
Q 1328 -91 801 392 
Q 275 875 275 1747 
Q 275 2603 792 3093 
Q 1309 3584 2216 3584 
Q 3041 3584 3536 3087 
Q 4031 2591 4031 1759 
z
M 2881 2131 
Q 2881 2450 2695 2645 
Q 2509 2841 2209 2841 
Q 1884 2841 1681 2658 
Q 1478 2475 1428 2131 
L 2881 2131 
z
" transform="scale(0.015625)"/>
      <path id="DejaVuSans-Bold-6e" d="M 4056 2131 
L 4056 0 
L 2931 0 
L 2931 347 
L 2931 1631 
Q 2931 2084 2911 2256 
Q 2891 2428 2841 2509 
Q 2775 2619 2662 2680 
Q 2550 2741 2406 2741 
Q 2056 2741 1856 2470 
Q 1656 2200 1656 1722 
L 1656 0 
L 538 0 
L 538 3500 
L 1656 3500 
L 1656 2988 
Q 1909 3294 2193 3439 
Q 2478 3584 2822 3584 
Q 3428 3584 3742 3212 
Q 4056 2841 4056 2131 
z
" transform="scale(0.015625)"/>
      <path id="DejaVuSans-Bold-64" d="M 2919 2988 
L 2919 4863 
L 4044 4863 
L 4044 0 
L 2919 0 
L 2919 506 
Q 2688 197 2409 53 
Q 2131 -91 1766 -91 
Q 1119 -91 703 423 
Q 288 938 288 1747 
Q 288 2556 703 3070 
Q 1119 3584 1766 3584 
Q 2128 3584 2408 3439 
Q 2688 3294 2919 2988 
z
M 2181 722 
Q 2541 722 2730 984 
Q 2919 1247 2919 1747 
Q 2919 2247 2730 2509 
Q 2541 2772 2181 2772 
Q 1825 2772 1636 2509 
Q 1447 2247 1447 1747 
Q 1447 1247 1636 984 
Q 1825 722 2181 722 
z
" transform="scale(0.015625)"/>
      <path id="DejaVuSans-Bold-75" d="M 500 1363 
L 500 3500 
L 1625 3500 
L 1625 3150 
Q 1625 2866 1622 2436 
Q 1619 2006 1619 1863 
Q 1619 1441 1641 1255 
Q 1663 1069 1716 984 
Q 1784 875 1895 815 
Q 2006 756 2150 756 
Q 2500 756 2700 1025 
Q 2900 1294 2900 1772 
L 2900 3500 
L 4019 3500 
L 4019 0 
L 2900 0 
L 2900 506 
Q 2647 200 2364 54 
Q 2081 -91 1741 -91 
Q 1134 -91 817 281 
Q 500 653 500 1363 
z
" transform="scale(0.015625)"/>
      <path id="DejaVuSans-Bold-6c" d="M 538 4863 
L 1656 4863 
L 1656 0 
L 538 0 
L 538 4863 
z
" transform="scale(0.015625)"/>
      <path id="DejaVuSans-Bold-6d" d="M 3781 2919 
Q 3994 3244 4286 3414 
Q 4578 3584 4928 3584 
Q 5531 3584 5847 3212 
Q 6163 2841 6163 2131 
L 6163 0 
L 5038 0 
L 5038 1825 
Q 5041 1866 5042 1909 
Q 5044 1953 5044 2034 
Q 5044 2406 4934 2573 
Q 4825 2741 4581 2741 
Q 4263 2741 4089 2478 
Q 3916 2216 3909 1719 
L 3909 0 
L 2784 0 
L 2784 1825 
Q 2784 2406 2684 2573 
Q 2584 2741 2328 2741 
Q 2006 2741 1831 2477 
Q 1656 2213 1656 1722 
L 1656 0 
L 531 0 
L 531 3500 
L 1656 3500 
L 1656 2988 
Q 1863 3284 2130 3434 
Q 2397 3584 2719 3584 
Q 3081 3584 3359 3409 
Q 3638 3234 3781 2919 
z
" transform="scale(0.015625)"/>
      <path id="DejaVuSans-Bold-20" transform="scale(0.015625)"/>
      <path id="DejaVuSans-Bold-4d" d="M 588 4666 
L 2119 4666 
L 3181 2169 
L 4250 4666 
L 5778 4666 
L 5778 0 
L 4641 0 
L 4641 3413 
L 3566 897 
L 2803 897 
L 1728 3413 
L 1728 0 
L 588 0 
L 588 4666 
z
" transform="scale(0.015625)"/>
      <path id="DejaVuSans-Bold-61" d="M 2106 1575 
Q 1756 1575 1579 1456 
Q 1403 1338 1403 1106 
Q 1403 894 1545 773 
Q 1688 653 1941 653 
Q 2256 653 2472 879 
Q 2688 1106 2688 1447 
L 2688 1575 
L 2106 1575 
z
M 3816 1997 
L 3816 0 
L 2688 0 
L 2688 519 
Q 2463 200 2181 54 
Q 1900 -91 1497 -91 
Q 953 -91 614 226 
Q 275 544 275 1050 
Q 275 1666 698 1953 
Q 1122 2241 2028 2241 
L 2688 2241 
L 2688 2328 
Q 2688 2594 2478 2717 
Q 2269 2841 1825 2841 
Q 1466 2841 1156 2769 
Q 847 2697 581 2553 
L 581 3406 
Q 941 3494 1303 3539 
Q 1666 3584 2028 3584 
Q 2975 3584 3395 3211 
Q 3816 2838 3816 1997 
z
" transform="scale(0.015625)"/>
      <path id="DejaVuSans-Bold-73" d="M 3272 3391 
L 3272 2541 
Q 2913 2691 2578 2766 
Q 2244 2841 1947 2841 
Q 1628 2841 1473 2761 
Q 1319 2681 1319 2516 
Q 1319 2381 1436 2309 
Q 1553 2238 1856 2203 
L 2053 2175 
Q 2913 2066 3209 1816 
Q 3506 1566 3506 1031 
Q 3506 472 3093 190 
Q 2681 -91 1863 -91 
Q 1516 -91 1145 -36 
Q 775 19 384 128 
L 384 978 
Q 719 816 1070 734 
Q 1422 653 1784 653 
Q 2113 653 2278 743 
Q 2444 834 2444 1013 
Q 2444 1163 2330 1236 
Q 2216 1309 1875 1350 
L 1678 1375 
Q 931 1469 631 1722 
Q 331 1975 331 2491 
Q 331 3047 712 3315 
Q 1094 3584 1881 3584 
Q 2191 3584 2531 3537 
Q 2872 3491 3272 3391 
z
" transform="scale(0.015625)"/>
      <path id="DejaVuSans-Bold-52" d="M 2297 2597 
Q 2675 2597 2839 2737 
Q 3003 2878 3003 3200 
Q 3003 3519 2839 3656 
Q 2675 3794 2297 3794 
L 1791 3794 
L 1791 2597 
L 2297 2597 
z
M 1791 1766 
L 1791 0 
L 588 0 
L 588 4666 
L 2425 4666 
Q 3347 4666 3776 4356 
Q 4206 4047 4206 3378 
Q 4206 2916 3982 2619 
Q 3759 2322 3309 2181 
Q 3556 2125 3751 1926 
Q 3947 1728 4147 1325 
L 4800 0 
L 3519 0 
L 2950 1159 
Q 2778 1509 2601 1637 
Q 2425 1766 2131 1766 
L 1791 1766 
z
" transform="scale(0.015625)"/>
      <path id="DejaVuSans-Bold-6f" d="M 2203 2784 
Q 1831 2784 1636 2517 
Q 1441 2250 1441 1747 
Q 1441 1244 1636 976 
Q 1831 709 2203 709 
Q 2569 709 2762 976 
Q 2956 1244 2956 1747 
Q 2956 2250 2762 2517 
Q 2569 2784 2203 2784 
z
M 2203 3584 
Q 3106 3584 3614 3096 
Q 4122 2609 4122 1747 
Q 4122 884 3614 396 
Q 3106 -91 2203 -91 
Q 1297 -91 786 396 
Q 275 884 275 1747 
Q 275 2609 786 3096 
Q 1297 3584 2203 3584 
z
" transform="scale(0.015625)"/>
      <path id="DejaVuSans-Bold-62" d="M 2400 722 
Q 2759 722 2948 984 
Q 3138 1247 3138 1747 
Q 3138 2247 2948 2509 
Q 2759 2772 2400 2772 
Q 2041 2772 1848 2508 
Q 1656 2244 1656 1747 
Q 1656 1250 1848 986 
Q 2041 722 2400 722 
z
M 1656 2988 
Q 1888 3294 2169 3439 
Q 2450 3584 2816 3584 
Q 3463 3584 3878 3070 
Q 4294 2556 4294 1747 
Q 4294 938 3878 423 
Q 3463 -91 2816 -91 
Q 2450 -91 2169 54 
Q 1888 200 1656 506 
L 1656 0 
L 538 0 
L 538 4863 
L 1656 4863 
L 1656 2988 
z
" transform="scale(0.015625)"/>
      <path id="DejaVuSans-Bold-74" d="M 1759 4494 
L 1759 3500 
L 2913 3500 
L 2913 2700 
L 1759 2700 
L 1759 1216 
Q 1759 972 1856 886 
Q 1953 800 2241 800 
L 2816 800 
L 2816 0 
L 1856 0 
Q 1194 0 917 276 
Q 641 553 641 1216 
L 641 2700 
L 84 2700 
L 84 3500 
L 641 3500 
L 641 4494 
L 1759 4494 
z
" transform="scale(0.015625)"/>
      <path id="DejaVuSans-Bold-43" d="M 4288 256 
Q 3956 84 3597 -3 
Q 3238 -91 2847 -91 
Q 1681 -91 1000 561 
Q 319 1213 319 2328 
Q 319 3447 1000 4098 
Q 1681 4750 2847 4750 
Q 3238 4750 3597 4662 
Q 3956 4575 4288 4403 
L 4288 3438 
Q 3953 3666 3628 3772 
Q 3303 3878 2944 3878 
Q 2300 3878 1931 3465 
Q 1563 3053 1563 2328 
Q 1563 1606 1931 1193 
Q 2300 781 2944 781 
Q 3303 781 3628 887 
Q 3953 994 4288 1222 
L 4288 256 
z
" transform="scale(0.015625)"/>
      <path id="DejaVuSans-Bold-70" d="M 1656 506 
L 1656 -1331 
L 538 -1331 
L 538 3500 
L 1656 3500 
L 1656 2988 
Q 1888 3294 2169 3439 
Q 2450 3584 2816 3584 
Q 3463 3584 3878 3070 
Q 4294 2556 4294 1747 
Q 4294 938 3878 423 
Q 3463 -91 2816 -91 
Q 2450 -91 2169 54 
Q 1888 200 1656 506 
z
M 2400 2772 
Q 2041 2772 1848 2508 
Q 1656 2244 1656 1747 
Q 1656 1250 1848 986 
Q 2041 722 2400 722 
Q 2759 722 2948 984 
Q 3138 1247 3138 1747 
Q 3138 2247 2948 2509 
Q 2759 2772 2400 2772 
z
" transform="scale(0.015625)"/>
      <path id="DejaVuSans-Bold-72" d="M 3138 2547 
Q 2991 2616 2845 2648 
Q 2700 2681 2553 2681 
Q 2122 2681 1889 2404 
Q 1656 2128 1656 1613 
L 1656 0 
L 538 0 
L 538 3500 
L 1656 3500 
L 1656 2925 
Q 1872 3269 2151 3426 
Q 2431 3584 2822 3584 
Q 2878 3584 2943 3579 
Q 3009 3575 3134 3559 
L 3138 2547 
z
" transform="scale(0.015625)"/>
      <path id="DejaVuSans-Bold-69" d="M 538 3500 
L 1656 3500 
L 1656 0 
L 538 0 
L 538 3500 
z
M 538 4863 
L 1656 4863 
L 1656 3950 
L 538 3950 
L 538 4863 
z
" transform="scale(0.015625)"/>
     </defs>
     <use xlink:href="#DejaVuSans-Bold-50"/>
     <use xlink:href="#DejaVuSans-Bold-65" x="73.291016"/>
     <use xlink:href="#DejaVuSans-Bold-6e" x="141.113281"/>
     <use xlink:href="#DejaVuSans-Bold-64" x="212.304688"/>
     <use xlink:href="#DejaVuSans-Bold-75" x="283.886719"/>
     <use xlink:href="#DejaVuSans-Bold-6c" x="355.078125"/>
     <use xlink:href="#DejaVuSans-Bold-75" x="389.355469"/>
     <use xlink:href="#DejaVuSans-Bold-6d" x="460.546875"/>
     <use xlink:href="#DejaVuSans-Bold-20" x="564.746094"/>
     <use xlink:href="#DejaVuSans-Bold-4d" x="599.560547"/>
     <use xlink:href="#DejaVuSans-Bold-61" x="699.072266"/>
     <use xlink:href="#DejaVuSans-Bold-73" x="766.552734"/>
     <use xlink:href="#DejaVuSans-Bold-73" x="826.074219"/>
     <use xlink:href="#DejaVuSans-Bold-20" x="885.595703"/>
     <use xlink:href="#DejaVuSans-Bold-52" x="920.410156"/>
     <use xlink:href="#DejaVuSans-Bold-6f" x="997.412109"/>
     <use xlink:href="#DejaVuSans-Bold-62" x="1066.113281"/>
     <use xlink:href="#DejaVuSans-Bold-75" x="1137.695312"/>
     <use xlink:href="#DejaVuSans-Bold-73" x="1208.886719"/>
     <use xlink:href="#DejaVuSans-Bold-74" x="1268.408203"/>
     <use xlink:href="#DejaVuSans-Bold-6e" x="1316.210938"/>
     <use xlink:href="#DejaVuSans-Bold-65" x="1387.402344"/>
     <use xlink:href="#DejaVuSans-Bold-73" x="1455.224609"/>
     <use xlink:href="#DejaVuSans-Bold-73" x="1514.746094"/>
     <use xlink:href="#DejaVuSans-Bold-20" x="1574.267578"/>
     <use xlink:href="#DejaVuSans-Bold-43" x="1609.082031"/>
     <use xlink:href="#DejaVuSans-Bold-6f" x="1682.470703"/>
     <use xlink:href="#DejaVuSans-Bold-6d" x="1751.171875"/>
     <use xlink:href="#DejaVuSans-Bold-70" x="1855.371094"/>
     <use xlink:href="#DejaVuSans-Bold-61" x="1926.953125"/>
     <use xlink:href="#DejaVuSans-Bold-72" x="1994.433594"/>
     <use xlink:href="#DejaVuSans-Bold-69" x="2043.75"/>
     <use xlink:href="#DejaVuSans-Bold-73" x="2078.027344"/>
     <use xlink:href="#DejaVuSans-Bold-6f" x="2137.548828"/>
     <use xlink:href="#DejaVuSans-Bold-6e" x="2206.25"/>
    </g>
   </g>
   <g id="legend_1">
    <g id="patch_7">
     <path d="M 786.682813 84.674375 
L 846.2 84.674375 
Q 848.2 84.674375 848.2 82.674375 
L 848.2 39.64 
Q 848.2 37.64 846.2 37.64 
L 786.682813 37.64 
Q 784.682813 37.64 784.682813 39.64 
L 784.682813 82.674375 
Q 784.682813 84.674375 786.682813 84.674375 
z
" style="fill: #ffffff; opacity: 0.8; stroke: #cccccc; stroke-linejoin: miter"/>
    </g>
    <g id="line2d_30">
     <path d="M 788.682813 45.738438 
L 798.682813 45.738438 
L 808.682813 45.738438 
" style="fill: none; stroke: #1f77b4; stroke-width: 1.5; stroke-linecap: square"/>
    </g>
    <g id="text_17">
     <!-- SHAC -->
     <g transform="translate(816.682813 49.238438) scale(0.1 -0.1)">
      <defs>
       <path id="DejaVuSans-53" d="M 3425 4513 
L 3425 3897 
Q 3066 4069 2747 4153 
Q 2428 4238 2131 4238 
Q 1616 4238 1336 4038 
Q 1056 3838 1056 3469 
Q 1056 3159 1242 3001 
Q 1428 2844 1947 2747 
L 2328 2669 
Q 3034 2534 3370 2195 
Q 3706 1856 3706 1288 
Q 3706 609 3251 259 
Q 2797 -91 1919 -91 
Q 1588 -91 1214 -16 
Q 841 59 441 206 
L 441 856 
Q 825 641 1194 531 
Q 1563 422 1919 422 
Q 2459 422 2753 634 
Q 3047 847 3047 1241 
Q 3047 1584 2836 1778 
Q 2625 1972 2144 2069 
L 1759 2144 
Q 1053 2284 737 2584 
Q 422 2884 422 3419 
Q 422 4038 858 4394 
Q 1294 4750 2059 4750 
Q 2388 4750 2728 4690 
Q 3069 4631 3425 4513 
z
" transform="scale(0.015625)"/>
       <path id="DejaVuSans-48" d="M 628 4666 
L 1259 4666 
L 1259 2753 
L 3553 2753 
L 3553 4666 
L 4184 4666 
L 4184 0 
L 3553 0 
L 3553 2222 
L 1259 2222 
L 1259 0 
L 628 0 
L 628 4666 
z
" transform="scale(0.015625)"/>
       <path id="DejaVuSans-41" d="M 2188 4044 
L 1331 1722 
L 3047 1722 
L 2188 4044 
z
M 1831 4666 
L 2547 4666 
L 4325 0 
L 3669 0 
L 3244 1197 
L 1141 1197 
L 716 0 
L 50 0 
L 1831 4666 
z
" transform="scale(0.015625)"/>
       <path id="DejaVuSans-43" d="M 4122 4306 
L 4122 3641 
Q 3803 3938 3442 4084 
Q 3081 4231 2675 4231 
Q 1875 4231 1450 3742 
Q 1025 3253 1025 2328 
Q 1025 1406 1450 917 
Q 1875 428 2675 428 
Q 3081 428 3442 575 
Q 3803 722 4122 1019 
L 4122 359 
Q 3791 134 3420 21 
Q 3050 -91 2638 -91 
Q 1578 -91 968 557 
Q 359 1206 359 2328 
Q 359 3453 968 4101 
Q 1578 4750 2638 4750 
Q 3056 4750 3426 4639 
Q 3797 4528 4122 4306 
z
" transform="scale(0.015625)"/>
      </defs>
      <use xlink:href="#DejaVuSans-53"/>
      <use xlink:href="#DejaVuSans-48" x="63.476562"/>
      <use xlink:href="#DejaVuSans-41" x="138.671875"/>
      <use xlink:href="#DejaVuSans-43" x="205.330078"/>
     </g>
    </g>
    <g id="line2d_31">
     <path d="M 788.682813 60.416563 
L 798.682813 60.416563 
L 808.682813 60.416563 
" style="fill: none; stroke: #ff7f0e; stroke-width: 1.5; stroke-linecap: square"/>
    </g>
    <g id="text_18">
     <!-- PPO -->
     <g transform="translate(816.682813 63.916563) scale(0.1 -0.1)">
      <defs>
       <path id="DejaVuSans-4f" d="M 2522 4238 
Q 1834 4238 1429 3725 
Q 1025 3213 1025 2328 
Q 1025 1447 1429 934 
Q 1834 422 2522 422 
Q 3209 422 3611 934 
Q 4013 1447 4013 2328 
Q 4013 3213 3611 3725 
Q 3209 4238 2522 4238 
z
M 2522 4750 
Q 3503 4750 4090 4092 
Q 4678 3434 4678 2328 
Q 4678 1225 4090 567 
Q 3503 -91 2522 -91 
Q 1538 -91 948 565 
Q 359 1222 359 2328 
Q 359 3434 948 4092 
Q 1538 4750 2522 4750 
z
" transform="scale(0.015625)"/>
      </defs>
      <use xlink:href="#DejaVuSans-50"/>
      <use xlink:href="#DejaVuSans-50" x="60.302734"/>
      <use xlink:href="#DejaVuSans-4f" x="120.605469"/>
     </g>
    </g>
    <g id="line2d_32">
     <path d="M 788.682813 75.094688 
L 798.682813 75.094688 
L 808.682813 75.094688 
" style="fill: none; stroke: #2ca02c; stroke-width: 1.5; stroke-linecap: square"/>
    </g>
    <g id="text_19">
     <!-- SAC -->
     <g transform="translate(816.682813 78.594688) scale(0.1 -0.1)">
      <use xlink:href="#DejaVuSans-53"/>
      <use xlink:href="#DejaVuSans-41" x="65.351562"/>
      <use xlink:href="#DejaVuSans-43" x="132.009766"/>
     </g>
    </g>
   </g>
  </g>
 </g>
 <defs>
  <clipPath id="p3054f4ae6c">
   <rect x="68.51" y="32.64" width="784.69" height="497.08"/>
  </clipPath>
 </defs>
</svg>
