<?xml version="1.0" encoding="utf-8" standalone="no"?>
<!DOCTYPE svg PUBLIC "-//W3C//DTD SVG 1.1//EN"
  "http://www.w3.org/Graphics/SVG/1.1/DTD/svg11.dtd">
<svg xmlns:xlink="http://www.w3.org/1999/xlink" width="864pt" height="576pt" viewBox="0 0 864 576" xmlns="http://www.w3.org/2000/svg" version="1.1">
 <metadata>
  <rdf:RDF xmlns:dc="http://purl.org/dc/elements/1.1/" xmlns:cc="http://creativecommons.org/ns#" xmlns:rdf="http://www.w3.org/1999/02/22-rdf-syntax-ns#">
   <cc:Work>
    <dc:type rdf:resource="http://purl.org/dc/dcmitype/StillImage"/>
    <dc:date>2024-07-25T17:25:31.206023</dc:date>
    <dc:format>image/svg+xml</dc:format>
    <dc:creator>
     <cc:Agent>
      <dc:title>Matplotlib v3.8.4, https://matplotlib.org/</dc:title>
     </cc:Agent>
    </dc:creator>
   </cc:Work>
  </rdf:RDF>
 </metadata>
 <defs>
  <style type="text/css">*{stroke-linejoin: round; stroke-linecap: butt}</style>
 </defs>
 <g id="figure_1">
  <g id="patch_1">
   <path d="M 0 576 
L 864 576 
L 864 0 
L 0 0 
z
" style="fill: #ffffff"/>
  </g>
  <g id="axes_1">
   <g id="patch_2">
    <path d="M 108 512.64 
L 777.6 512.64 
L 777.6 69.12 
L 108 69.12 
z
" style="fill: #ffffff"/>
   </g>
   <g id="line2d_1">
    <path d="M 138.436364 186.22629 
L 144.585124 186.281952 
L 150.733884 186.290518 
L 156.882645 186.319972 
L 163.031405 186.313138 
L 169.180165 186.442265 
L 175.328926 186.280195 
L 181.477686 186.301929 
L 187.626446 186.105441 
L 193.775207 186.328904 
L 199.923967 186.206531 
L 206.072727 186.661911 
L 212.221488 186.309944 
L 218.370248 186.282068 
L 224.519008 186.220565 
L 230.667769 186.349 
L 236.816529 186.228658 
L 242.965289 186.339315 
L 249.11405 186.297086 
L 255.26281 186.408937 
L 261.41157 186.234975 
L 267.560331 186.161473 
L 273.709091 186.468383 
L 279.857851 186.197832 
L 286.006612 186.458088 
L 292.155372 186.195862 
L 298.304132 186.249137 
L 304.452893 186.194773 
L 310.601653 186.236578 
L 316.750413 186.091646 
L 322.899174 186.389069 
L 329.047934 186.542888 
L 335.196694 186.420946 
L 341.345455 186.276109 
L 347.494215 186.302597 
L 353.642975 186.33004 
L 359.791736 186.466901 
L 365.940496 186.390581 
L 372.089256 186.50973 
L 378.238017 186.293175 
L 384.386777 200.101249 
L 390.535537 199.732865 
L 396.684298 186.416877 
L 402.833058 186.688644 
L 408.981818 280.90784 
L 415.130579 199.675202 
L 421.279339 200.293272 
L 427.428099 199.665974 
L 433.57686 295.60329 
L 439.72562 199.551383 
L 445.87438 283.80762 
L 452.02314 298.189492 
L 458.171901 296.741123 
L 464.320661 296.190394 
L 470.469421 295.089761 
L 476.618182 296.923147 
L 482.766942 296.332591 
L 488.915702 296.631207 
L 495.064463 296.716106 
L 501.213223 296.098877 
L 507.361983 296.340821 
L 513.510744 296.340988 
L 519.659504 295.726865 
L 525.808264 294.978471 
L 531.957025 296.041894 
L 538.105785 296.306125 
L 544.254545 295.971398 
L 550.403306 295.975468 
L 556.552066 297.129819 
L 562.700826 296.345551 
L 568.849587 298.060727 
L 574.998347 296.149202 
L 581.147107 298.725167 
L 587.295868 298.01646 
L 593.444628 297.008431 
L 599.593388 295.665449 
L 605.742149 296.245819 
L 611.890909 296.178627 
L 618.039669 296.985949 
L 624.18843 295.769066 
L 630.33719 296.2411 
L 636.48595 297.028789 
L 642.634711 294.734585 
L 648.783471 296.580647 
L 654.932231 295.790922 
L 661.080992 297.0136 
L 667.229752 295.740062 
L 673.378512 295.748876 
L 679.527273 295.400195 
L 685.676033 296.158657 
L 691.824793 295.87577 
L 697.973554 293.336084 
L 704.122314 295.414207 
L 710.271074 295.291897 
L 716.419835 298.197094 
L 722.568595 295.331047 
L 728.717355 295.313678 
L 734.866116 212.263034 
L 741.014876 291.579091 
L 747.163636 296.436872 
" clip-path="url(#p9d695c0c08)" style="fill: none; stroke: #ff7700; stroke-width: 1.5; stroke-linecap: square"/>
   </g>
   <g id="PolyCollection_1">
    <defs>
     <path id="m352d4c4e8c" d="M 138.436364 -391.774909 
L 138.436364 -387.772511 
L 144.585124 -387.879638 
L 150.733884 -387.356166 
L 156.882645 -387.707287 
L 163.031405 -387.855375 
L 169.180165 -387.789598 
L 175.328926 -387.842299 
L 181.477686 -387.754204 
L 187.626446 -387.886063 
L 193.775207 -388.056503 
L 199.923967 -387.913853 
L 206.072727 -387.763583 
L 212.221488 -387.885913 
L 218.370248 -388.069744 
L 224.519008 -388.064103 
L 230.667769 -388.230211 
L 236.816529 -387.904905 
L 242.965289 -387.797229 
L 249.11405 -387.905019 
L 255.26281 -388.002156 
L 261.41157 -388.339211 
L 267.560331 -388.204064 
L 273.709091 -388.325799 
L 279.857851 -388.335805 
L 286.006612 -388.278614 
L 292.155372 -388.430188 
L 298.304132 -388.240547 
L 304.452893 -388.461235 
L 310.601653 -388.259553 
L 316.750413 -388.285603 
L 322.899174 -387.946601 
L 329.047934 -387.930015 
L 335.196694 -388.169509 
L 341.345455 -388.239 
L 347.494215 -388.264046 
L 353.642975 -388.196328 
L 359.791736 -388.131993 
L 365.940496 -388.193825 
L 372.089256 -387.981511 
L 378.238017 -388.302974 
L 384.386777 -349.192332 
L 390.535537 -350.501749 
L 396.684298 -388.239259 
L 402.833058 -388.196193 
L 408.981818 -105.971772 
L 415.130579 -350.958165 
L 421.279339 -350.219465 
L 427.428099 -350.68916 
L 433.57686 -94.825426 
L 439.72562 -350.976459 
L 445.87438 -97.66476 
L 452.02314 -86.213749 
L 458.171901 -90.111719 
L 464.320661 -91.393942 
L 470.469421 -94.655316 
L 476.618182 -89.130711 
L 482.766942 -91.854544 
L 488.915702 -90.109225 
L 495.064463 -90.403911 
L 501.213223 -91.823817 
L 507.361983 -91.51161 
L 513.510744 -91.166508 
L 519.659504 -92.775566 
L 525.808264 -95.012203 
L 531.957025 -91.567764 
L 538.105785 -91.123272 
L 544.254545 -92.278499 
L 550.403306 -91.509364 
L 556.552066 -88.581788 
L 562.700826 -90.267679 
L 568.849587 -85.548736 
L 574.998347 -91.204384 
L 581.147107 -83.52 
L 587.295868 -85.18222 
L 593.444628 -88.749644 
L 599.593388 -92.535153 
L 605.742149 -90.873417 
L 611.890909 -91.201718 
L 618.039669 -88.933585 
L 624.18843 -92.089453 
L 630.33719 -91.041692 
L 636.48595 -88.574488 
L 642.634711 -95.215175 
L 648.783471 -89.533248 
L 654.932231 -92.378348 
L 661.080992 -88.469826 
L 667.229752 -92.205059 
L 673.378512 -92.570362 
L 679.527273 -93.257179 
L 685.676033 -91.247042 
L 691.824793 -92.035517 
L 697.973554 -99.881225 
L 704.122314 -93.326595 
L 710.271074 -93.945314 
L 716.419835 -84.936418 
L 722.568595 -93.598909 
L 728.717355 -93.104138 
L 734.866116 -333.060422 
L 741.014876 -104.443946 
L 747.163636 -90.262408 
L 747.163636 -468.863849 
L 747.163636 -468.863849 
L 741.014876 -464.397871 
L 734.866116 -394.41351 
L 728.717355 -468.268506 
L 722.568595 -467.738997 
L 716.419835 -470.669395 
L 710.271074 -467.470892 
L 704.122314 -467.844992 
L 697.973554 -465.446607 
L 691.824793 -468.212943 
L 685.676033 -468.435644 
L 679.527273 -467.942431 
L 673.378512 -467.931886 
L 667.229752 -468.314817 
L 661.080992 -469.502974 
L 654.932231 -468.039808 
L 648.783471 -469.305458 
L 642.634711 -467.315654 
L 636.48595 -469.367934 
L 630.33719 -468.476108 
L 624.18843 -468.372414 
L 618.039669 -469.094517 
L 611.890909 -468.441029 
L 605.742149 -468.634946 
L 599.593388 -468.13395 
L 593.444628 -469.233493 
L 587.295868 -470.784859 
L 581.147107 -471.029666 
L 574.998347 -468.497211 
L 568.849587 -470.32981 
L 562.700826 -469.041219 
L 556.552066 -469.158574 
L 550.403306 -468.5397 
L 544.254545 -467.778706 
L 538.105785 -468.264478 
L 531.957025 -468.348447 
L 525.808264 -467.030856 
L 519.659504 -467.770703 
L 513.510744 -468.151517 
L 507.361983 -467.806749 
L 501.213223 -467.978429 
L 495.064463 -468.163876 
L 488.915702 -468.628361 
L 482.766942 -467.480275 
L 476.618182 -469.022995 
L 470.469421 -467.165161 
L 464.320661 -468.22527 
L 458.171901 -468.406035 
L 452.02314 -469.407267 
L 445.87438 -486.72 
L 439.72562 -401.920775 
L 433.57686 -465.967993 
L 427.428099 -401.978891 
L 421.279339 -401.193992 
L 415.130579 -401.691431 
L 408.981818 -484.212549 
L 402.833058 -390.426519 
L 396.684298 -390.926988 
L 390.535537 -402.032522 
L 384.386777 -402.605171 
L 378.238017 -391.110676 
L 372.089256 -390.999029 
L 365.940496 -391.025014 
L 359.791736 -390.934206 
L 353.642975 -391.143592 
L 347.494215 -391.130761 
L 341.345455 -391.208782 
L 335.196694 -390.9886 
L 329.047934 -390.984209 
L 322.899174 -391.275261 
L 316.750413 -391.531105 
L 310.601653 -391.26729 
L 304.452893 -391.149218 
L 298.304132 -391.261178 
L 292.155372 -391.178088 
L 286.006612 -390.80521 
L 279.857851 -391.268532 
L 273.709091 -390.737435 
L 267.560331 -391.472991 
L 261.41157 -391.190839 
L 255.26281 -391.17997 
L 249.11405 -391.50081 
L 242.965289 -391.52414 
L 236.816529 -391.637779 
L 230.667769 -391.071789 
L 224.519008 -391.494768 
L 218.370248 -391.36612 
L 212.221488 -391.494199 
L 206.072727 -390.912596 
L 199.923967 -391.673085 
L 193.775207 -391.285688 
L 187.626446 -391.903056 
L 181.477686 -391.641939 
L 175.328926 -391.597311 
L 169.180165 -391.325872 
L 163.031405 -391.518349 
L 156.882645 -391.652769 
L 150.733884 -392.062799 
L 144.585124 -391.556457 
L 138.436364 -391.774909 
z
" style="stroke: #ff7700; stroke-opacity: 0.2"/>
    </defs>
    <g clip-path="url(#p9d695c0c08)">
     <use xlink:href="#m352d4c4e8c" x="0" y="576" style="fill: #ff7700; fill-opacity: 0.2; stroke: #ff7700; stroke-opacity: 0.2"/>
    </g>
   </g>
   <g id="line2d_2">
    <path d="M 138.436364 226.627394 
L 144.585124 226.531164 
L 150.733884 226.535619 
L 156.882645 226.274806 
L 163.031405 226.387022 
L 169.180165 226.316446 
L 175.328926 226.244396 
L 181.477686 226.246058 
L 187.626446 226.136228 
L 193.775207 226.178089 
L 199.923967 226.083625 
L 206.072727 226.08873 
L 212.221488 225.978143 
L 218.370248 226.060762 
L 224.519008 226.023285 
L 230.667769 225.93057 
L 236.816529 225.830196 
L 242.965289 225.926333 
L 249.11405 225.888205 
L 255.26281 225.719513 
L 261.41157 225.686092 
L 267.560331 225.740071 
L 273.709091 225.772421 
L 279.857851 225.667507 
L 286.006612 225.726802 
L 292.155372 225.543757 
L 298.304132 225.604233 
L 304.452893 225.439201 
L 310.601653 225.654826 
L 316.750413 225.604791 
L 322.899174 225.666827 
L 329.047934 239.060608 
L 335.196694 225.483295 
L 341.345455 225.321268 
L 347.494215 238.887199 
L 353.642975 239.097239 
L 359.791736 225.419666 
L 365.940496 252.135227 
L 372.089256 252.321634 
L 378.238017 225.242073 
L 384.386777 252.007566 
L 390.535537 252.019455 
L 396.684298 251.898349 
L 402.833058 251.790411 
L 408.981818 251.81527 
L 415.130579 251.75235 
L 421.279339 251.643586 
L 427.428099 251.673208 
L 433.57686 251.6785 
L 439.72562 251.465391 
L 445.87438 251.652864 
L 452.02314 251.469808 
L 458.171901 251.487556 
L 464.320661 251.466984 
L 470.469421 251.423801 
L 476.618182 251.424603 
L 482.766942 251.431917 
L 488.915702 251.403742 
L 495.064463 251.233977 
L 501.213223 264.578144 
L 507.361983 251.262405 
L 513.510744 251.154165 
L 519.659504 264.435605 
L 525.808264 264.458175 
L 531.957025 264.541432 
L 538.105785 250.917 
L 544.254545 264.478864 
L 550.403306 250.980987 
L 556.552066 264.367404 
L 562.700826 264.208174 
L 568.849587 250.899708 
L 574.998347 250.811067 
L 581.147107 264.08835 
L 587.295868 264.186923 
L 593.444628 277.626332 
L 599.593388 250.684543 
L 605.742149 264.095534 
L 611.890909 264.102668 
L 618.039669 263.915043 
L 624.18843 263.981949 
L 630.33719 263.937298 
L 636.48595 277.246927 
L 642.634711 250.604466 
L 648.783471 304.604495 
L 654.932231 263.88374 
L 661.080992 263.826898 
L 667.229752 290.585681 
L 673.378512 263.799845 
L 679.527273 277.138187 
L 685.676033 276.9731 
L 691.824793 303.836105 
L 697.973554 317.215468 
L 704.122314 290.439672 
L 710.271074 277.023196 
L 716.419835 276.916485 
L 722.568595 303.599304 
L 728.717355 290.251918 
L 734.866116 303.457703 
L 741.014876 316.760079 
L 747.163636 290.053859 
" clip-path="url(#p9d695c0c08)" style="fill: none; stroke: #004777; stroke-width: 1.5; stroke-linecap: square"/>
   </g>
   <g id="PolyCollection_2">
    <defs>
     <path id="md748a97be4" d="M 138.436364 -402.937362 
L 138.436364 -295.80785 
L 144.585124 -296.025902 
L 150.733884 -296.249781 
L 156.882645 -296.762117 
L 163.031405 -296.325423 
L 169.180165 -296.590242 
L 175.328926 -296.679424 
L 181.477686 -296.773729 
L 187.626446 -297.000403 
L 193.775207 -296.825289 
L 199.923967 -297.085167 
L 206.072727 -296.953904 
L 212.221488 -297.273522 
L 218.370248 -297.110777 
L 224.519008 -297.163305 
L 230.667769 -297.364601 
L 236.816529 -297.695531 
L 242.965289 -297.476818 
L 249.11405 -297.461405 
L 255.26281 -297.860895 
L 261.41157 -297.958159 
L 267.560331 -297.826856 
L 273.709091 -297.713058 
L 279.857851 -297.887356 
L 286.006612 -297.761007 
L 292.155372 -298.113713 
L 298.304132 -298.013998 
L 304.452893 -298.384543 
L 310.601653 -298.011874 
L 316.750413 -298.022578 
L 322.899174 -297.960033 
L 329.047934 -272.532738 
L 335.196694 -298.358859 
L 341.345455 -298.591965 
L 347.494215 -272.804489 
L 353.642975 -272.389705 
L 359.791736 -298.581328 
L 365.940496 -240.604996 
L 372.089256 -240.220306 
L 378.238017 -298.78085 
L 384.386777 -241.092144 
L 390.535537 -240.883018 
L 396.684298 -241.088817 
L 402.833058 -241.377501 
L 408.981818 -241.381891 
L 415.130579 -241.496326 
L 421.279339 -241.702322 
L 427.428099 -241.611192 
L 433.57686 -241.682668 
L 439.72562 -241.979214 
L 445.87438 -241.758775 
L 452.02314 -242.118941 
L 458.171901 -242.063509 
L 464.320661 -242.144906 
L 470.469421 -242.272682 
L 476.618182 -242.22593 
L 482.766942 -242.271413 
L 488.915702 -242.148132 
L 495.064463 -242.587407 
L 501.213223 -235.75974 
L 507.361983 -242.517466 
L 513.510744 -242.747862 
L 519.659504 -236.076136 
L 525.808264 -236.113719 
L 531.957025 -235.930087 
L 538.105785 -243.279312 
L 544.254545 -236.008643 
L 550.403306 -243.178587 
L 556.552066 -236.284537 
L 562.700826 -236.484578 
L 568.849587 -243.224615 
L 574.998347 -243.411225 
L 581.147107 -236.665918 
L 587.295868 -207.504446 
L 593.444628 -220.404071 
L 599.593388 -243.548696 
L 605.742149 -236.639686 
L 611.890909 -236.76313 
L 618.039669 -236.951769 
L 624.18843 -236.954492 
L 630.33719 -236.972684 
L 636.48595 -233.344909 
L 642.634711 -243.884559 
L 648.783471 -164.775178 
L 654.932231 -237.068223 
L 661.080992 -237.19828 
L 667.229752 -234.880369 
L 673.378512 -237.276726 
L 679.527273 -211.167498 
L 685.676033 -202.073391 
L 691.824793 -176.980795 
L 697.973554 -149.846838 
L 704.122314 -180.102152 
L 710.271074 -201.986197 
L 716.419835 -202.136483 
L 722.568595 -177.648812 
L 728.717355 -180.433365 
L 734.866116 -177.57097 
L 741.014876 -178.229294 
L 747.163636 -180.80589 
L 747.163636 -391.086391 
L 747.163636 -391.086391 
L 741.014876 -340.250548 
L 734.866116 -367.513624 
L 728.717355 -391.0628 
L 722.568595 -367.152581 
L 716.419835 -396.030546 
L 710.271074 -395.967411 
L 704.122314 -391.018504 
L 697.973554 -367.722225 
L 691.824793 -367.346996 
L 685.676033 -395.980409 
L 679.527273 -386.556129 
L 673.378512 -387.123584 
L 667.229752 -335.948269 
L 661.080992 -387.147924 
L 654.932231 -387.164297 
L 648.783471 -378.015833 
L 642.634711 -406.90651 
L 636.48595 -364.161237 
L 630.33719 -387.152719 
L 624.18843 -387.08161 
L 618.039669 -387.218146 
L 611.890909 -387.031535 
L 605.742149 -387.169247 
L 599.593388 -407.082219 
L 593.444628 -376.343266 
L 587.295868 -416.121708 
L 581.147107 -387.157381 
L 574.998347 -406.96664 
L 568.849587 -406.975968 
L 562.700826 -387.099073 
L 556.552066 -386.980656 
L 550.403306 -406.859438 
L 544.254545 -387.033629 
L 538.105785 -406.886688 
L 531.957025 -386.987049 
L 525.808264 -386.96993 
L 519.659504 -387.052654 
L 513.510744 -406.943808 
L 507.361983 -406.957724 
L 501.213223 -387.083973 
L 495.064463 -406.944639 
L 488.915702 -407.044383 
L 482.766942 -406.864753 
L 476.618182 -406.924865 
L 470.469421 -406.879716 
L 464.320661 -406.921125 
L 458.171901 -406.96138 
L 452.02314 -406.941442 
L 445.87438 -406.935497 
L 439.72562 -407.090005 
L 433.57686 -406.960333 
L 427.428099 -407.042393 
L 421.279339 -407.010506 
L 415.130579 -406.998974 
L 408.981818 -406.987569 
L 402.833058 -407.041678 
L 396.684298 -407.114486 
L 390.535537 -407.078072 
L 384.386777 -406.892723 
L 378.238017 -402.735004 
L 372.089256 -407.136426 
L 365.940496 -407.12455 
L 359.791736 -402.579339 
L 353.642975 -401.415817 
L 347.494215 -401.421113 
L 341.345455 -402.765499 
L 335.196694 -402.67455 
L 329.047934 -401.346045 
L 322.899174 -402.706314 
L 316.750413 -402.767841 
L 310.601653 -402.678474 
L 304.452893 -402.737055 
L 298.304132 -402.777537 
L 292.155372 -402.798773 
L 286.006612 -402.78539 
L 279.857851 -402.777629 
L 273.709091 -402.7421 
L 267.560331 -402.693001 
L 261.41157 -402.669658 
L 255.26281 -402.70008 
L 249.11405 -402.762186 
L 242.965289 -402.670517 
L 236.816529 -402.644076 
L 230.667769 -402.774258 
L 224.519008 -402.790124 
L 218.370248 -402.767699 
L 212.221488 -402.770193 
L 206.072727 -402.868636 
L 199.923967 -402.747583 
L 193.775207 -402.818534 
L 187.626446 -402.727141 
L 181.477686 -402.734156 
L 175.328926 -402.831785 
L 169.180165 -402.776866 
L 163.031405 -402.900532 
L 156.882645 -402.68827 
L 150.733884 -402.678981 
L 144.585124 -402.91177 
L 138.436364 -402.937362 
z
" style="stroke: #004777; stroke-opacity: 0.2"/>
    </defs>
    <g clip-path="url(#p9d695c0c08)">
     <use xlink:href="#md748a97be4" x="0" y="576" style="fill: #004777; fill-opacity: 0.2; stroke: #004777; stroke-opacity: 0.2"/>
    </g>
   </g>
   <g id="line2d_3">
    <path d="M 138.436364 184.841412 
L 144.585124 184.709185 
L 150.733884 184.902544 
L 156.882645 184.933495 
L 163.031405 184.865975 
L 169.180165 184.816816 
L 175.328926 184.891791 
L 181.477686 184.857108 
L 187.626446 184.89844 
L 193.775207 184.926694 
L 199.923967 184.9953 
L 206.072727 185.097625 
L 212.221488 184.942759 
L 218.370248 184.971888 
L 224.519008 185.037677 
L 230.667769 185.032675 
L 236.816529 185.082444 
L 242.965289 184.991665 
L 249.11405 184.902231 
L 255.26281 185.082104 
L 261.41157 185.056588 
L 267.560331 185.019044 
L 273.709091 185.076818 
L 279.857851 185.031352 
L 286.006612 184.971169 
L 292.155372 185.170407 
L 298.304132 185.011798 
L 304.452893 185.175356 
L 310.601653 185.213012 
L 316.750413 185.22515 
L 322.899174 185.163189 
L 329.047934 185.161326 
L 335.196694 185.184918 
L 341.345455 185.024893 
L 347.494215 185.142029 
L 353.642975 185.130868 
L 359.791736 185.172871 
L 365.940496 185.126757 
L 372.089256 185.159328 
L 378.238017 185.175477 
L 384.386777 185.28342 
L 390.535537 185.272182 
L 396.684298 185.242014 
L 402.833058 185.186199 
L 408.981818 185.236263 
L 415.130579 185.222648 
L 421.279339 185.291414 
L 427.428099 185.182537 
L 433.57686 185.272711 
L 439.72562 185.161427 
L 445.87438 185.28317 
L 452.02314 185.457952 
L 458.171901 185.239051 
L 464.320661 185.329529 
L 470.469421 185.313701 
L 476.618182 185.395282 
L 482.766942 185.418963 
L 488.915702 185.367741 
L 495.064463 185.436052 
L 501.213223 185.519868 
L 507.361983 185.37765 
L 513.510744 185.520743 
L 519.659504 185.62104 
L 525.808264 198.931997 
L 531.957025 198.918973 
L 538.105785 198.81794 
L 544.254545 198.688336 
L 550.403306 198.721059 
L 556.552066 198.717213 
L 562.700826 198.67251 
L 568.849587 198.566199 
L 574.998347 198.568458 
L 581.147107 198.477955 
L 587.295868 198.43774 
L 593.444628 198.503609 
L 599.593388 198.465421 
L 605.742149 198.430678 
L 611.890909 198.376908 
L 618.039669 198.223815 
L 624.18843 198.284188 
L 630.33719 198.304817 
L 636.48595 198.160072 
L 642.634711 198.078406 
L 648.783471 197.995143 
L 654.932231 197.886594 
L 661.080992 197.917071 
L 667.229752 197.759655 
L 673.378512 197.925997 
L 679.527273 197.779247 
L 685.676033 197.760125 
L 691.824793 197.621334 
L 697.973554 197.52707 
L 704.122314 197.590139 
L 710.271074 197.55448 
L 716.419835 197.550698 
L 722.568595 197.687995 
L 728.717355 197.511416 
L 734.866116 197.494319 
L 741.014876 197.503755 
L 747.163636 197.486543 
" clip-path="url(#p9d695c0c08)" style="fill: none; stroke: #b72b34; stroke-width: 1.5; stroke-linecap: square"/>
   </g>
   <g id="PolyCollection_3">
    <defs>
     <path id="mc2f4af0f32" d="M 138.436364 -394.683261 
L 138.436364 -387.633914 
L 144.585124 -387.969533 
L 150.733884 -387.683389 
L 156.882645 -387.619666 
L 163.031405 -387.709825 
L 169.180165 -387.916808 
L 175.328926 -387.800026 
L 181.477686 -387.858294 
L 187.626446 -387.799612 
L 193.775207 -387.791534 
L 199.923967 -387.6717 
L 206.072727 -387.508554 
L 212.221488 -387.897902 
L 218.370248 -387.808961 
L 224.519008 -387.757174 
L 230.667769 -387.789746 
L 236.816529 -387.69597 
L 242.965289 -387.937922 
L 249.11405 -388.114262 
L 255.26281 -387.791993 
L 261.41157 -387.805172 
L 267.560331 -387.931957 
L 273.709091 -387.847967 
L 279.857851 -387.900534 
L 286.006612 -388.122084 
L 292.155372 -387.722186 
L 298.304132 -388.078507 
L 304.452893 -387.810543 
L 310.601653 -387.725565 
L 316.750413 -387.737305 
L 322.899174 -387.951123 
L 329.047934 -387.96497 
L 335.196694 -387.920733 
L 341.345455 -388.223723 
L 347.494215 -388.076872 
L 353.642975 -388.062848 
L 359.791736 -388.038192 
L 365.940496 -388.197105 
L 372.089256 -388.108199 
L 378.238017 -388.087639 
L 384.386777 -387.955073 
L 390.535537 -387.969946 
L 396.684298 -388.022407 
L 402.833058 -388.171084 
L 408.981818 -388.121841 
L 415.130579 -388.164532 
L 421.279339 -388.091792 
L 427.428099 -388.240708 
L 433.57686 -388.125202 
L 439.72562 -388.340783 
L 445.87438 -388.190415 
L 452.02314 -387.887227 
L 458.171901 -388.299614 
L 464.320661 -388.155509 
L 470.469421 -388.24998 
L 476.618182 -388.133612 
L 482.766942 -388.137807 
L 488.915702 -388.25939 
L 495.064463 -388.160544 
L 501.213223 -388.061444 
L 507.361983 -388.370574 
L 513.510744 -388.163552 
L 519.659504 -388.246984 
L 525.808264 -351.426536 
L 531.957025 -351.463183 
L 538.105785 -351.798993 
L 544.254545 -352.024477 
L 550.403306 -352.060123 
L 556.552066 -352.20032 
L 562.700826 -352.304265 
L 568.849587 -352.582394 
L 574.998347 -352.619704 
L 581.147107 -352.712815 
L 587.295868 -352.812906 
L 593.444628 -352.955953 
L 599.593388 -352.963842 
L 605.742149 -353.040045 
L 611.890909 -353.112156 
L 618.039669 -353.519375 
L 624.18843 -353.432202 
L 630.33719 -353.558443 
L 636.48595 -353.850789 
L 642.634711 -353.969532 
L 648.783471 -354.415996 
L 654.932231 -354.801699 
L 661.080992 -354.732315 
L 667.229752 -355.081236 
L 673.378512 -354.880051 
L 679.527273 -355.222609 
L 685.676033 -355.214495 
L 691.824793 -355.604483 
L 697.973554 -355.773617 
L 704.122314 -355.705025 
L 710.271074 -355.809187 
L 716.419835 -355.815814 
L 722.568595 -355.759687 
L 728.717355 -356.135344 
L 734.866116 -356.126757 
L 741.014876 -356.153016 
L 747.163636 -356.08662 
L 747.163636 -400.940295 
L 747.163636 -400.940295 
L 741.014876 -400.839473 
L 734.866116 -400.884606 
L 728.717355 -400.841824 
L 722.568595 -400.864322 
L 716.419835 -401.08279 
L 710.271074 -401.081853 
L 704.122314 -401.114698 
L 697.973554 -401.172243 
L 691.824793 -401.152849 
L 685.676033 -401.265256 
L 679.527273 -401.218897 
L 673.378512 -401.267955 
L 667.229752 -401.399454 
L 661.080992 -401.433544 
L 654.932231 -401.425113 
L 648.783471 -401.593718 
L 642.634711 -401.873656 
L 636.48595 -401.829068 
L 630.33719 -401.831922 
L 624.18843 -401.999421 
L 618.039669 -402.032994 
L 611.890909 -402.134028 
L 605.742149 -402.098599 
L 599.593388 -402.105316 
L 593.444628 -402.036829 
L 587.295868 -402.311614 
L 581.147107 -402.331275 
L 574.998347 -402.243381 
L 568.849587 -402.285208 
L 562.700826 -402.350716 
L 556.552066 -402.365254 
L 550.403306 -402.49776 
L 544.254545 -402.598852 
L 538.105785 -402.565128 
L 531.957025 -402.69887 
L 525.808264 -402.709471 
L 519.659504 -392.510936 
L 513.510744 -392.794962 
L 507.361983 -392.874127 
L 501.213223 -392.89882 
L 495.064463 -392.967351 
L 488.915702 -393.005129 
L 482.766942 -393.024267 
L 476.618182 -393.075824 
L 470.469421 -393.122617 
L 464.320661 -393.185432 
L 458.171901 -393.222284 
L 452.02314 -393.19687 
L 445.87438 -393.243244 
L 439.72562 -393.336364 
L 433.57686 -393.329376 
L 427.428099 -393.394218 
L 421.279339 -393.32538 
L 415.130579 -393.390171 
L 408.981818 -393.405632 
L 402.833058 -393.456518 
L 396.684298 -393.493566 
L 390.535537 -393.48569 
L 384.386777 -393.478088 
L 378.238017 -393.561407 
L 372.089256 -393.573145 
L 365.940496 -393.549381 
L 359.791736 -393.616067 
L 353.642975 -393.675415 
L 347.494215 -393.63907 
L 341.345455 -393.726491 
L 335.196694 -393.709431 
L 329.047934 -393.712378 
L 322.899174 -393.722498 
L 316.750413 -393.812395 
L 310.601653 -393.848412 
L 304.452893 -393.838744 
L 298.304132 -393.897898 
L 292.155372 -393.937 
L 286.006612 -393.935577 
L 279.857851 -394.036761 
L 273.709091 -393.998397 
L 267.560331 -394.029956 
L 261.41157 -394.081651 
L 255.26281 -394.043798 
L 249.11405 -394.081275 
L 242.965289 -394.078747 
L 236.816529 -394.139142 
L 230.667769 -394.144905 
L 224.519008 -394.167473 
L 218.370248 -394.247264 
L 212.221488 -394.21658 
L 206.072727 -394.296196 
L 199.923967 -394.3377 
L 193.775207 -394.355077 
L 187.626446 -394.403507 
L 181.477686 -394.42749 
L 175.328926 -394.416393 
L 169.180165 -394.449559 
L 163.031405 -394.558226 
L 156.882645 -394.513343 
L 150.733884 -394.511524 
L 144.585124 -394.612097 
L 138.436364 -394.683261 
z
" style="stroke: #b72b34; stroke-opacity: 0.2"/>
    </defs>
    <g clip-path="url(#p9d695c0c08)">
     <use xlink:href="#mc2f4af0f32" x="0" y="576" style="fill: #b72b34; fill-opacity: 0.2; stroke: #b72b34; stroke-opacity: 0.2"/>
    </g>
   </g>
   <g id="matplotlib.axis_1">
    <g id="xtick_1">
     <g id="line2d_4">
      <path d="M 199.309091 512.64 
L 199.309091 69.12 
" clip-path="url(#p9d695c0c08)" style="fill: none; stroke: #b0b0b0; stroke-width: 0.8; stroke-linecap: square"/>
     </g>
     <g id="line2d_5">
      <defs>
       <path id="maabe9adbb8" d="M 0 0 
L 0 3.5 
" style="stroke: #000000; stroke-width: 0.8"/>
      </defs>
      <g>
       <use xlink:href="#maabe9adbb8" x="199.309091" y="512.64" style="stroke: #000000; stroke-width: 0.8"/>
      </g>
     </g>
     <g id="text_1">
      <!-- 0.8 -->
      <g transform="translate(191.539091 528.52375) scale(0.12 -0.12)">
       <defs>
        <path id="SegoeUIThis-30" d="M 1681 -75 
Q 1016 -75 642 497 
Q 269 1069 269 2150 
Q 269 3338 658 3947 
Q 1047 4556 1781 4556 
Q 3188 4556 3188 2259 
Q 3188 1122 2791 523 
Q 2394 -75 1681 -75 
z
M 1753 4122 
Q 794 4122 794 2175 
Q 794 356 1734 356 
Q 2663 356 2663 2206 
Q 2663 4122 1753 4122 
z
" transform="scale(0.015625)"/>
        <path id="SegoeUIThis-2e" d="M 697 -69 
Q 553 -69 451 34 
Q 350 138 350 281 
Q 350 425 451 529 
Q 553 634 697 634 
Q 844 634 947 529 
Q 1050 425 1050 281 
Q 1050 138 947 34 
Q 844 -69 697 -69 
z
" transform="scale(0.015625)"/>
        <path id="SegoeUIThis-38" d="M 1281 2350 
L 1281 2363 
Q 475 2738 475 3450 
Q 475 3934 844 4245 
Q 1213 4556 1794 4556 
Q 2319 4556 2656 4265 
Q 2994 3975 2994 3519 
Q 2994 2775 2163 2363 
L 2163 2350 
Q 3144 2000 3144 1138 
Q 3144 581 2744 253 
Q 2344 -75 1631 -75 
Q 1056 -75 684 250 
Q 313 575 313 1094 
Q 313 1956 1281 2350 
z
M 2469 3456 
Q 2469 3766 2275 3944 
Q 2081 4122 1747 4122 
Q 1434 4122 1217 3936 
Q 1000 3750 1000 3463 
Q 1000 2878 1728 2581 
Q 2469 2888 2469 3456 
z
M 1694 2106 
Q 838 1766 838 1119 
Q 838 784 1086 570 
Q 1334 356 1741 356 
Q 2128 356 2373 567 
Q 2619 778 2619 1100 
Q 2619 1775 1694 2106 
z
" transform="scale(0.015625)"/>
       </defs>
       <use xlink:href="#SegoeUIThis-30"/>
       <use xlink:href="#SegoeUIThis-2e" x="53.90625"/>
       <use xlink:href="#SegoeUIThis-38" x="75.585938"/>
      </g>
     </g>
    </g>
    <g id="xtick_2">
     <g id="line2d_6">
      <path d="M 321.054545 512.64 
L 321.054545 69.12 
" clip-path="url(#p9d695c0c08)" style="fill: none; stroke: #b0b0b0; stroke-width: 0.8; stroke-linecap: square"/>
     </g>
     <g id="line2d_7">
      <g>
       <use xlink:href="#maabe9adbb8" x="321.054545" y="512.64" style="stroke: #000000; stroke-width: 0.8"/>
      </g>
     </g>
     <g id="text_2">
      <!-- 0.9 -->
      <g transform="translate(313.284545 528.52375) scale(0.12 -0.12)">
       <defs>
        <path id="SegoeUIThis-39" d="M 538 75 
L 538 569 
Q 913 356 1331 356 
Q 1941 356 2280 847 
Q 2619 1338 2619 2241 
Q 2613 2238 2606 2241 
Q 2319 1663 1606 1663 
Q 1031 1663 662 2053 
Q 294 2444 294 3059 
Q 294 3716 698 4136 
Q 1103 4556 1734 4556 
Q 2397 4556 2767 4032 
Q 3138 3509 3138 2509 
Q 3138 1269 2656 597 
Q 2175 -75 1319 -75 
Q 869 -75 538 75 
z
M 1688 4122 
Q 1316 4122 1067 3842 
Q 819 3563 819 3131 
Q 819 2659 1062 2389 
Q 1306 2119 1722 2119 
Q 2084 2119 2336 2366 
Q 2588 2613 2588 2969 
Q 2588 3478 2338 3800 
Q 2088 4122 1688 4122 
z
" transform="scale(0.015625)"/>
       </defs>
       <use xlink:href="#SegoeUIThis-30"/>
       <use xlink:href="#SegoeUIThis-2e" x="53.90625"/>
       <use xlink:href="#SegoeUIThis-39" x="75.585938"/>
      </g>
     </g>
    </g>
    <g id="xtick_3">
     <g id="line2d_8">
      <path d="M 442.8 512.64 
L 442.8 69.12 
" clip-path="url(#p9d695c0c08)" style="fill: none; stroke: #b0b0b0; stroke-width: 0.8; stroke-linecap: square"/>
     </g>
     <g id="line2d_9">
      <g>
       <use xlink:href="#maabe9adbb8" x="442.8" y="512.64" style="stroke: #000000; stroke-width: 0.8"/>
      </g>
     </g>
     <g id="text_3">
      <!-- 1.0 -->
      <g transform="translate(435.03 528.52375) scale(0.12 -0.12)">
       <defs>
        <path id="SegoeUIThis-31" d="M 3084 0 
L 550 0 
L 550 450 
L 1563 450 
L 1563 3931 
L 525 3622 
L 525 4109 
L 2075 4581 
L 2075 450 
L 3084 450 
L 3084 0 
z
" transform="scale(0.015625)"/>
       </defs>
       <use xlink:href="#SegoeUIThis-31"/>
       <use xlink:href="#SegoeUIThis-2e" x="53.90625"/>
       <use xlink:href="#SegoeUIThis-30" x="75.585938"/>
      </g>
     </g>
    </g>
    <g id="xtick_4">
     <g id="line2d_10">
      <path d="M 564.545455 512.64 
L 564.545455 69.12 
" clip-path="url(#p9d695c0c08)" style="fill: none; stroke: #b0b0b0; stroke-width: 0.8; stroke-linecap: square"/>
     </g>
     <g id="line2d_11">
      <g>
       <use xlink:href="#maabe9adbb8" x="564.545455" y="512.64" style="stroke: #000000; stroke-width: 0.8"/>
      </g>
     </g>
     <g id="text_4">
      <!-- 1.1 -->
      <g transform="translate(556.775455 528.52375) scale(0.12 -0.12)">
       <use xlink:href="#SegoeUIThis-31"/>
       <use xlink:href="#SegoeUIThis-2e" x="53.90625"/>
       <use xlink:href="#SegoeUIThis-31" x="75.585938"/>
      </g>
     </g>
    </g>
    <g id="xtick_5">
     <g id="line2d_12">
      <path d="M 686.290909 512.64 
L 686.290909 69.12 
" clip-path="url(#p9d695c0c08)" style="fill: none; stroke: #b0b0b0; stroke-width: 0.8; stroke-linecap: square"/>
     </g>
     <g id="line2d_13">
      <g>
       <use xlink:href="#maabe9adbb8" x="686.290909" y="512.64" style="stroke: #000000; stroke-width: 0.8"/>
      </g>
     </g>
     <g id="text_5">
      <!-- 1.2 -->
      <g transform="translate(678.520909 528.52375) scale(0.12 -0.12)">
       <defs>
        <path id="SegoeUIThis-32" d="M 3000 0 
L 300 0 
L 300 456 
L 1606 1766 
Q 2106 2266 2320 2598 
Q 2534 2931 2534 3309 
Q 2534 3697 2312 3909 
Q 2091 4122 1681 4122 
Q 1081 4122 531 3609 
L 531 4147 
Q 1056 4556 1753 4556 
Q 2353 4556 2697 4231 
Q 3041 3906 3041 3359 
Q 3041 2928 2803 2517 
Q 2566 2106 1950 1497 
L 916 475 
L 916 463 
L 3000 463 
L 3000 0 
z
" transform="scale(0.015625)"/>
       </defs>
       <use xlink:href="#SegoeUIThis-31"/>
       <use xlink:href="#SegoeUIThis-2e" x="53.90625"/>
       <use xlink:href="#SegoeUIThis-32" x="75.585938"/>
      </g>
     </g>
    </g>
    <g id="text_6">
     <!-- Pendulum masses (kg) -->
     <g transform="translate(354.247031 548.609375) scale(0.18 -0.18)">
      <defs>
       <path id="SegoeUIThis-50" d="M 1113 1694 
L 1113 0 
L 588 0 
L 588 4481 
L 1819 4481 
Q 2538 4481 2933 4131 
Q 3328 3781 3328 3144 
Q 3328 2506 2889 2100 
Q 2450 1694 1703 1694 
L 1113 1694 
z
M 1113 4006 
L 1113 2169 
L 1663 2169 
Q 2206 2169 2492 2417 
Q 2778 2666 2778 3119 
Q 2778 4006 1728 4006 
L 1113 4006 
z
" transform="scale(0.015625)"/>
       <path id="SegoeUIThis-65" d="M 3091 1472 
L 831 1472 
Q 844 938 1119 647 
Q 1394 356 1875 356 
Q 2416 356 2869 713 
L 2869 231 
Q 2447 -75 1753 -75 
Q 1075 -75 687 361 
Q 300 797 300 1588 
Q 300 2334 723 2804 
Q 1147 3275 1775 3275 
Q 2403 3275 2747 2869 
Q 3091 2463 3091 1741 
L 3091 1472 
z
M 2566 1906 
Q 2563 2350 2352 2597 
Q 2141 2844 1766 2844 
Q 1403 2844 1150 2584 
Q 897 2325 838 1906 
L 2566 1906 
z
" transform="scale(0.015625)"/>
       <path id="SegoeUIThis-6e" d="M 3175 0 
L 2663 0 
L 2663 1825 
Q 2663 2844 1919 2844 
Q 1534 2844 1282 2555 
Q 1031 2266 1031 1825 
L 1031 0 
L 519 0 
L 519 3200 
L 1031 3200 
L 1031 2669 
L 1044 2669 
Q 1406 3275 2094 3275 
Q 2619 3275 2897 2936 
Q 3175 2597 3175 1956 
L 3175 0 
z
" transform="scale(0.015625)"/>
       <path id="SegoeUIThis-64" d="M 3250 0 
L 2738 0 
L 2738 544 
L 2725 544 
Q 2369 -75 1625 -75 
Q 1022 -75 661 354 
Q 300 784 300 1525 
Q 300 2319 700 2797 
Q 1100 3275 1766 3275 
Q 2425 3275 2725 2756 
L 2738 2756 
L 2738 4738 
L 3250 4738 
L 3250 0 
z
M 2738 1447 
L 2738 1919 
Q 2738 2306 2481 2575 
Q 2225 2844 1831 2844 
Q 1363 2844 1094 2500 
Q 825 2156 825 1550 
Q 825 997 1083 676 
Q 1341 356 1775 356 
Q 2203 356 2470 665 
Q 2738 975 2738 1447 
z
" transform="scale(0.015625)"/>
       <path id="SegoeUIThis-75" d="M 3106 0 
L 2594 0 
L 2594 506 
L 2581 506 
Q 2263 -75 1594 -75 
Q 450 -75 450 1288 
L 450 3200 
L 959 3200 
L 959 1369 
Q 959 356 1734 356 
Q 2109 356 2351 632 
Q 2594 909 2594 1356 
L 2594 3200 
L 3106 3200 
L 3106 0 
z
" transform="scale(0.015625)"/>
       <path id="SegoeUIThis-6c" d="M 1031 0 
L 519 0 
L 519 4738 
L 1031 4738 
L 1031 0 
z
" transform="scale(0.015625)"/>
       <path id="SegoeUIThis-6d" d="M 5063 0 
L 4550 0 
L 4550 1838 
Q 4550 2369 4386 2606 
Q 4222 2844 3834 2844 
Q 3506 2844 3276 2544 
Q 3047 2244 3047 1825 
L 3047 0 
L 2534 0 
L 2534 1900 
Q 2534 2844 1806 2844 
Q 1469 2844 1250 2561 
Q 1031 2278 1031 1825 
L 1031 0 
L 519 0 
L 519 3200 
L 1031 3200 
L 1031 2694 
L 1044 2694 
Q 1384 3275 2038 3275 
Q 2366 3275 2609 3092 
Q 2853 2909 2944 2613 
Q 3300 3275 4006 3275 
Q 5063 3275 5063 1972 
L 5063 0 
z
" transform="scale(0.015625)"/>
       <path id="SegoeUIThis-20" transform="scale(0.015625)"/>
       <path id="SegoeUIThis-61" d="M 2809 0 
L 2297 0 
L 2297 500 
L 2284 500 
Q 1950 -75 1300 -75 
Q 822 -75 551 178 
Q 281 431 281 850 
Q 281 1747 1338 1894 
L 2297 2028 
Q 2297 2844 1638 2844 
Q 1059 2844 594 2450 
L 594 2975 
Q 1066 3275 1681 3275 
Q 2809 3275 2809 2081 
L 2809 0 
z
M 2297 1619 
L 1525 1513 
Q 1169 1463 987 1336 
Q 806 1209 806 888 
Q 806 653 973 504 
Q 1141 356 1419 356 
Q 1800 356 2048 623 
Q 2297 891 2297 1300 
L 2297 1619 
z
" transform="scale(0.015625)"/>
       <path id="SegoeUIThis-73" d="M 325 116 
L 325 666 
Q 744 356 1247 356 
Q 1922 356 1922 806 
Q 1922 934 1864 1023 
Q 1806 1113 1707 1181 
Q 1609 1250 1476 1304 
Q 1344 1359 1191 1419 
Q 978 1503 817 1589 
Q 656 1675 548 1783 
Q 441 1891 386 2028 
Q 331 2166 331 2350 
Q 331 2575 434 2748 
Q 538 2922 709 3039 
Q 881 3156 1101 3215 
Q 1322 3275 1556 3275 
Q 1972 3275 2300 3131 
L 2300 2613 
Q 1947 2844 1488 2844 
Q 1344 2844 1228 2811 
Q 1113 2778 1030 2718 
Q 947 2659 901 2576 
Q 856 2494 856 2394 
Q 856 2269 901 2184 
Q 947 2100 1034 2034 
Q 1122 1969 1247 1916 
Q 1372 1863 1531 1800 
Q 1744 1719 1912 1633 
Q 2081 1547 2200 1439 
Q 2319 1331 2383 1190 
Q 2447 1050 2447 856 
Q 2447 619 2342 444 
Q 2238 269 2063 153 
Q 1888 38 1659 -18 
Q 1431 -75 1181 -75 
Q 688 -75 325 116 
z
" transform="scale(0.015625)"/>
       <path id="SegoeUIThis-28" d="M 1863 -1019 
L 1406 -1019 
Q 438 88 438 1709 
Q 438 3338 1406 4481 
L 1869 4481 
Q 888 3294 888 1716 
Q 888 150 1863 -1019 
z
" transform="scale(0.015625)"/>
       <path id="SegoeUIThis-6b" d="M 3175 0 
L 2456 0 
L 1044 1538 
L 1031 1538 
L 1031 0 
L 519 0 
L 519 4738 
L 1031 4738 
L 1031 1734 
L 1044 1734 
L 2388 3200 
L 3059 3200 
L 1575 1656 
L 3175 0 
z
" transform="scale(0.015625)"/>
       <path id="SegoeUIThis-67" d="M 3250 256 
Q 3250 -1506 1563 -1506 
Q 969 -1506 525 -1281 
L 525 -769 
Q 1066 -1069 1556 -1069 
Q 2738 -1069 2738 188 
L 2738 538 
L 2725 538 
Q 2359 -75 1625 -75 
Q 1028 -75 664 351 
Q 300 778 300 1497 
Q 300 2313 692 2794 
Q 1084 3275 1766 3275 
Q 2413 3275 2725 2756 
L 2738 2756 
L 2738 3200 
L 3250 3200 
L 3250 256 
z
M 2738 1447 
L 2738 1919 
Q 2738 2300 2480 2572 
Q 2222 2844 1838 2844 
Q 1363 2844 1094 2498 
Q 825 2153 825 1531 
Q 825 997 1083 676 
Q 1341 356 1766 356 
Q 2197 356 2467 662 
Q 2738 969 2738 1447 
z
" transform="scale(0.015625)"/>
       <path id="SegoeUIThis-29" d="M 531 -1019 
L 75 -1019 
Q 1050 150 1050 1716 
Q 1050 3294 69 4481 
L 531 4481 
Q 1506 3338 1506 1709 
Q 1506 88 531 -1019 
z
" transform="scale(0.015625)"/>
      </defs>
      <use xlink:href="#SegoeUIThis-50"/>
      <use xlink:href="#SegoeUIThis-65" x="52.255859"/>
      <use xlink:href="#SegoeUIThis-6e" x="104.550781"/>
      <use xlink:href="#SegoeUIThis-64" x="161.142578"/>
      <use xlink:href="#SegoeUIThis-75" x="220.029297"/>
      <use xlink:href="#SegoeUIThis-6c" x="276.621094"/>
      <use xlink:href="#SegoeUIThis-75" x="300.839844"/>
      <use xlink:href="#SegoeUIThis-6d" x="357.431641"/>
      <use xlink:href="#SegoeUIThis-20" x="443.564453"/>
      <use xlink:href="#SegoeUIThis-6d" x="470.957031"/>
      <use xlink:href="#SegoeUIThis-61" x="557.089844"/>
      <use xlink:href="#SegoeUIThis-73" x="607.96875"/>
      <use xlink:href="#SegoeUIThis-73" x="650.400391"/>
      <use xlink:href="#SegoeUIThis-65" x="692.832031"/>
      <use xlink:href="#SegoeUIThis-73" x="745.126953"/>
      <use xlink:href="#SegoeUIThis-20" x="787.558594"/>
      <use xlink:href="#SegoeUIThis-28" x="814.951172"/>
      <use xlink:href="#SegoeUIThis-6b" x="845.126953"/>
      <use xlink:href="#SegoeUIThis-67" x="894.833984"/>
      <use xlink:href="#SegoeUIThis-29" x="953.720703"/>
     </g>
    </g>
   </g>
   <g id="matplotlib.axis_2">
    <g id="ytick_1">
     <g id="line2d_14">
      <path d="M 108 490.065299 
L 777.6 490.065299 
" clip-path="url(#p9d695c0c08)" style="fill: none; stroke: #b0b0b0; stroke-width: 0.8; stroke-linecap: square"/>
     </g>
     <g id="line2d_15">
      <defs>
       <path id="m6c1181f7f7" d="M 0 0 
L -3.5 0 
" style="stroke: #000000; stroke-width: 0.8"/>
      </defs>
      <g>
       <use xlink:href="#m6c1181f7f7" x="108" y="490.065299" style="stroke: #000000; stroke-width: 0.8"/>
      </g>
     </g>
     <g id="text_7">
      <!-- −700 -->
      <g transform="translate(73.385 494.507174) scale(0.12 -0.12)">
       <defs>
        <path id="SegoeUIThis-2212" d="M 3663 1656 
L 725 1656 
L 725 2075 
L 3663 2075 
L 3663 1656 
z
" transform="scale(0.015625)"/>
        <path id="SegoeUIThis-37" d="M 3156 4319 
L 1381 0 
L 850 0 
L 2528 4019 
L 269 4019 
L 269 4481 
L 3156 4481 
L 3156 4319 
z
" transform="scale(0.015625)"/>
       </defs>
       <use xlink:href="#SegoeUIThis-2212"/>
       <use xlink:href="#SegoeUIThis-37" x="68.408203"/>
       <use xlink:href="#SegoeUIThis-30" x="122.314453"/>
       <use xlink:href="#SegoeUIThis-30" x="176.220703"/>
      </g>
     </g>
    </g>
    <g id="ytick_2">
     <g id="line2d_16">
      <path d="M 108 437.254481 
L 777.6 437.254481 
" clip-path="url(#p9d695c0c08)" style="fill: none; stroke: #b0b0b0; stroke-width: 0.8; stroke-linecap: square"/>
     </g>
     <g id="line2d_17">
      <g>
       <use xlink:href="#m6c1181f7f7" x="108" y="437.254481" style="stroke: #000000; stroke-width: 0.8"/>
      </g>
     </g>
     <g id="text_8">
      <!-- −600 -->
      <g transform="translate(73.385 441.696356) scale(0.12 -0.12)">
       <defs>
        <path id="SegoeUIThis-36" d="M 2919 4428 
L 2919 3944 
Q 2572 4122 2188 4122 
Q 1591 4122 1233 3590 
Q 875 3059 875 2169 
L 888 2169 
Q 1200 2803 1913 2803 
Q 2500 2803 2847 2426 
Q 3194 2050 3194 1419 
Q 3194 759 2797 342 
Q 2400 -75 1788 -75 
Q 1113 -75 728 462 
Q 344 1000 344 1972 
Q 344 3150 847 3853 
Q 1350 4556 2175 4556 
Q 2644 4556 2919 4428 
z
M 1800 2369 
Q 1403 2369 1156 2100 
Q 909 1831 909 1466 
Q 909 1006 1154 681 
Q 1400 356 1806 356 
Q 2194 356 2431 639 
Q 2669 922 2669 1356 
Q 2669 1831 2441 2100 
Q 2213 2369 1800 2369 
z
" transform="scale(0.015625)"/>
       </defs>
       <use xlink:href="#SegoeUIThis-2212"/>
       <use xlink:href="#SegoeUIThis-36" x="68.408203"/>
       <use xlink:href="#SegoeUIThis-30" x="122.314453"/>
       <use xlink:href="#SegoeUIThis-30" x="176.220703"/>
      </g>
     </g>
    </g>
    <g id="ytick_3">
     <g id="line2d_18">
      <path d="M 108 384.443663 
L 777.6 384.443663 
" clip-path="url(#p9d695c0c08)" style="fill: none; stroke: #b0b0b0; stroke-width: 0.8; stroke-linecap: square"/>
     </g>
     <g id="line2d_19">
      <g>
       <use xlink:href="#m6c1181f7f7" x="108" y="384.443663" style="stroke: #000000; stroke-width: 0.8"/>
      </g>
     </g>
     <g id="text_9">
      <!-- −500 -->
      <g transform="translate(73.385 388.885538) scale(0.12 -0.12)">
       <defs>
        <path id="SegoeUIThis-35" d="M 513 109 
L 513 653 
Q 972 356 1447 356 
Q 1922 356 2212 625 
Q 2503 894 2503 1338 
Q 2503 1778 2206 2025 
Q 1909 2272 1356 2272 
Q 1169 2272 653 2234 
L 653 4481 
L 2822 4481 
L 2822 4019 
L 1138 4019 
L 1138 2706 
Q 1344 2719 1519 2719 
Q 2238 2719 2631 2358 
Q 3025 1997 3025 1369 
Q 3025 719 2601 322 
Q 2178 -75 1441 -75 
Q 819 -75 513 109 
z
" transform="scale(0.015625)"/>
       </defs>
       <use xlink:href="#SegoeUIThis-2212"/>
       <use xlink:href="#SegoeUIThis-35" x="68.408203"/>
       <use xlink:href="#SegoeUIThis-30" x="122.314453"/>
       <use xlink:href="#SegoeUIThis-30" x="176.220703"/>
      </g>
     </g>
    </g>
    <g id="ytick_4">
     <g id="line2d_20">
      <path d="M 108 331.632846 
L 777.6 331.632846 
" clip-path="url(#p9d695c0c08)" style="fill: none; stroke: #b0b0b0; stroke-width: 0.8; stroke-linecap: square"/>
     </g>
     <g id="line2d_21">
      <g>
       <use xlink:href="#m6c1181f7f7" x="108" y="331.632846" style="stroke: #000000; stroke-width: 0.8"/>
      </g>
     </g>
     <g id="text_10">
      <!-- −400 -->
      <g transform="translate(73.385 336.074721) scale(0.12 -0.12)">
       <defs>
        <path id="SegoeUIThis-34" d="M 3231 1191 
L 2656 1191 
L 2656 0 
L 2150 0 
L 2150 1191 
L 44 1191 
L 44 1525 
L 2038 4481 
L 2656 4481 
L 2656 1606 
L 3231 1606 
L 3231 1191 
z
M 2150 1606 
L 2150 3544 
Q 2150 3750 2163 4006 
L 2150 4006 
Q 2106 3894 1978 3663 
L 600 1606 
L 2150 1606 
z
" transform="scale(0.015625)"/>
       </defs>
       <use xlink:href="#SegoeUIThis-2212"/>
       <use xlink:href="#SegoeUIThis-34" x="68.408203"/>
       <use xlink:href="#SegoeUIThis-30" x="122.314453"/>
       <use xlink:href="#SegoeUIThis-30" x="176.220703"/>
      </g>
     </g>
    </g>
    <g id="ytick_5">
     <g id="line2d_22">
      <path d="M 108 278.822028 
L 777.6 278.822028 
" clip-path="url(#p9d695c0c08)" style="fill: none; stroke: #b0b0b0; stroke-width: 0.8; stroke-linecap: square"/>
     </g>
     <g id="line2d_23">
      <g>
       <use xlink:href="#m6c1181f7f7" x="108" y="278.822028" style="stroke: #000000; stroke-width: 0.8"/>
      </g>
     </g>
     <g id="text_11">
      <!-- −300 -->
      <g transform="translate(73.385 283.263903) scale(0.12 -0.12)">
       <defs>
        <path id="SegoeUIThis-33" d="M 409 166 
L 409 719 
Q 869 356 1447 356 
Q 1916 356 2195 590 
Q 2475 825 2475 1222 
Q 2475 2100 1228 2100 
L 856 2100 
L 856 2534 
L 1209 2534 
Q 2319 2534 2319 3359 
Q 2319 4122 1472 4122 
Q 1000 4122 581 3800 
L 581 4300 
Q 1013 4556 1600 4556 
Q 2166 4556 2505 4256 
Q 2844 3956 2844 3488 
Q 2844 2603 1944 2350 
L 1944 2338 
Q 2428 2291 2714 1998 
Q 3000 1706 3000 1269 
Q 3000 666 2567 295 
Q 2134 -75 1425 -75 
Q 788 -75 409 166 
z
" transform="scale(0.015625)"/>
       </defs>
       <use xlink:href="#SegoeUIThis-2212"/>
       <use xlink:href="#SegoeUIThis-33" x="68.408203"/>
       <use xlink:href="#SegoeUIThis-30" x="122.314453"/>
       <use xlink:href="#SegoeUIThis-30" x="176.220703"/>
      </g>
     </g>
    </g>
    <g id="ytick_6">
     <g id="line2d_24">
      <path d="M 108 226.01121 
L 777.6 226.01121 
" clip-path="url(#p9d695c0c08)" style="fill: none; stroke: #b0b0b0; stroke-width: 0.8; stroke-linecap: square"/>
     </g>
     <g id="line2d_25">
      <g>
       <use xlink:href="#m6c1181f7f7" x="108" y="226.01121" style="stroke: #000000; stroke-width: 0.8"/>
      </g>
     </g>
     <g id="text_12">
      <!-- −200 -->
      <g transform="translate(73.385 230.453085) scale(0.12 -0.12)">
       <use xlink:href="#SegoeUIThis-2212"/>
       <use xlink:href="#SegoeUIThis-32" x="68.408203"/>
       <use xlink:href="#SegoeUIThis-30" x="122.314453"/>
       <use xlink:href="#SegoeUIThis-30" x="176.220703"/>
      </g>
     </g>
    </g>
    <g id="ytick_7">
     <g id="line2d_26">
      <path d="M 108 173.200393 
L 777.6 173.200393 
" clip-path="url(#p9d695c0c08)" style="fill: none; stroke: #b0b0b0; stroke-width: 0.8; stroke-linecap: square"/>
     </g>
     <g id="line2d_27">
      <g>
       <use xlink:href="#m6c1181f7f7" x="108" y="173.200393" style="stroke: #000000; stroke-width: 0.8"/>
      </g>
     </g>
     <g id="text_13">
      <!-- −100 -->
      <g transform="translate(73.385 177.642268) scale(0.12 -0.12)">
       <use xlink:href="#SegoeUIThis-2212"/>
       <use xlink:href="#SegoeUIThis-31" x="68.408203"/>
       <use xlink:href="#SegoeUIThis-30" x="122.314453"/>
       <use xlink:href="#SegoeUIThis-30" x="176.220703"/>
      </g>
     </g>
    </g>
    <g id="ytick_8">
     <g id="line2d_28">
      <path d="M 108 120.389575 
L 777.6 120.389575 
" clip-path="url(#p9d695c0c08)" style="fill: none; stroke: #b0b0b0; stroke-width: 0.8; stroke-linecap: square"/>
     </g>
     <g id="line2d_29">
      <g>
       <use xlink:href="#m6c1181f7f7" x="108" y="120.389575" style="stroke: #000000; stroke-width: 0.8"/>
      </g>
     </g>
     <g id="text_14">
      <!-- 0 -->
      <g transform="translate(94.53125 124.83145) scale(0.12 -0.12)">
       <use xlink:href="#SegoeUIThis-30"/>
      </g>
     </g>
    </g>
    <g id="text_15">
     <!-- Reward -->
     <g transform="translate(65.245 320.222813) rotate(-90) scale(0.18 -0.18)">
      <defs>
       <path id="SegoeUIThis-52" d="M 3800 0 
L 3175 0 
L 2425 1256 
Q 2322 1431 2225 1554 
Q 2128 1678 2026 1756 
Q 1925 1834 1808 1870 
Q 1691 1906 1544 1906 
L 1113 1906 
L 1113 0 
L 588 0 
L 588 4481 
L 1925 4481 
Q 2219 4481 2467 4407 
Q 2716 4334 2898 4184 
Q 3081 4034 3184 3811 
Q 3288 3588 3288 3288 
Q 3288 3053 3217 2858 
Q 3147 2663 3017 2509 
Q 2888 2356 2705 2248 
Q 2522 2141 2294 2081 
L 2294 2069 
Q 2406 2019 2489 1955 
Q 2572 1891 2647 1803 
Q 2722 1716 2795 1605 
Q 2869 1494 2959 1347 
L 3800 0 
z
M 1113 4006 
L 1113 2381 
L 1825 2381 
Q 2022 2381 2189 2440 
Q 2356 2500 2478 2611 
Q 2600 2722 2669 2883 
Q 2738 3044 2738 3244 
Q 2738 3603 2505 3804 
Q 2272 4006 1831 4006 
L 1113 4006 
z
" transform="scale(0.015625)"/>
       <path id="SegoeUIThis-77" d="M 4550 3200 
L 3591 0 
L 3059 0 
L 2400 2291 
Q 2363 2422 2350 2588 
L 2338 2588 
Q 2328 2475 2272 2297 
L 1556 0 
L 1044 0 
L 75 3200 
L 613 3200 
L 1275 794 
Q 1306 684 1319 506 
L 1344 506 
Q 1353 644 1400 800 
L 2138 3200 
L 2606 3200 
L 3269 788 
Q 3300 672 3316 500 
L 3341 500 
Q 3347 622 3394 788 
L 4044 3200 
L 4550 3200 
z
" transform="scale(0.015625)"/>
       <path id="SegoeUIThis-72" d="M 2188 2681 
Q 2053 2784 1800 2784 
Q 1472 2784 1251 2475 
Q 1031 2166 1031 1631 
L 1031 0 
L 519 0 
L 519 3200 
L 1031 3200 
L 1031 2541 
L 1044 2541 
Q 1153 2878 1378 3067 
Q 1603 3256 1881 3256 
Q 2081 3256 2188 3213 
L 2188 2681 
z
" transform="scale(0.015625)"/>
      </defs>
      <use xlink:href="#SegoeUIThis-52"/>
      <use xlink:href="#SegoeUIThis-65" x="56.939453"/>
      <use xlink:href="#SegoeUIThis-77" x="109.234375"/>
      <use xlink:href="#SegoeUIThis-61" x="181.5"/>
      <use xlink:href="#SegoeUIThis-72" x="232.378906"/>
      <use xlink:href="#SegoeUIThis-64" x="267.144531"/>
     </g>
    </g>
   </g>
   <g id="line2d_30">
    <path d="M 108 199.605801 
L 777.6 199.605801 
" clip-path="url(#p9d695c0c08)" style="fill: none; stroke-dasharray: 5.55,2.4; stroke-dashoffset: 0; stroke: #000000; stroke-width: 1.5"/>
   </g>
   <g id="patch_3">
    <path d="M 108 512.64 
L 108 69.12 
" style="fill: none; stroke: #000000; stroke-width: 0.8; stroke-linejoin: miter; stroke-linecap: square"/>
   </g>
   <g id="patch_4">
    <path d="M 777.6 512.64 
L 777.6 69.12 
" style="fill: none; stroke: #000000; stroke-width: 0.8; stroke-linejoin: miter; stroke-linecap: square"/>
   </g>
   <g id="patch_5">
    <path d="M 108 512.64 
L 777.6 512.64 
" style="fill: none; stroke: #000000; stroke-width: 0.8; stroke-linejoin: miter; stroke-linecap: square"/>
   </g>
   <g id="patch_6">
    <path d="M 108 69.12 
L 777.6 69.12 
" style="fill: none; stroke: #000000; stroke-width: 0.8; stroke-linejoin: miter; stroke-linecap: square"/>
   </g>
   <g id="text_16">
    <!-- Pendulum Mass Robustness Comparison -->
    <g transform="translate(64.30625 59.92) scale(0.4 -0.4)">
     <defs>
      <path id="SegoeUIThis-Bold-50" d="M 1522 1544 
L 1522 0 
L 513 0 
L 513 4481 
L 2094 4481 
Q 3788 4481 3788 3053 
Q 3788 2378 3302 1961 
Q 2816 1544 2003 1544 
L 1522 1544 
z
M 1522 3706 
L 1522 2309 
L 1919 2309 
Q 2725 2309 2725 3016 
Q 2725 3706 1919 3706 
L 1522 3706 
z
" transform="scale(0.015625)"/>
      <path id="SegoeUIThis-Bold-65" d="M 3291 1319 
L 1203 1319 
Q 1253 622 2081 622 
Q 2609 622 3009 872 
L 3009 159 
Q 2566 -78 1856 -78 
Q 1081 -78 653 351 
Q 225 781 225 1550 
Q 225 2347 687 2812 
Q 1150 3278 1825 3278 
Q 2525 3278 2908 2862 
Q 3291 2447 3291 1734 
L 3291 1319 
z
M 2375 1925 
Q 2375 2613 1819 2613 
Q 1581 2613 1407 2416 
Q 1234 2219 1197 1925 
L 2375 1925 
z
" transform="scale(0.015625)"/>
      <path id="SegoeUIThis-Bold-6e" d="M 3506 0 
L 2522 0 
L 2522 1778 
Q 2522 2522 1991 2522 
Q 1734 2522 1568 2325 
Q 1403 2128 1403 1825 
L 1403 0 
L 416 0 
L 416 3200 
L 1403 3200 
L 1403 2694 
L 1416 2694 
Q 1769 3278 2444 3278 
Q 3506 3278 3506 1959 
L 3506 0 
z
" transform="scale(0.015625)"/>
      <path id="SegoeUIThis-Bold-64" d="M 3547 0 
L 2559 0 
L 2559 441 
L 2547 441 
Q 2209 -78 1556 -78 
Q 956 -78 590 345 
Q 225 769 225 1528 
Q 225 2322 628 2800 
Q 1031 3278 1684 3278 
Q 2303 3278 2547 2834 
L 2559 2834 
L 2559 4738 
L 3547 4738 
L 3547 0 
z
M 2578 1556 
L 2578 1797 
Q 2578 2109 2397 2315 
Q 2216 2522 1925 2522 
Q 1597 2522 1412 2264 
Q 1228 2006 1228 1556 
Q 1228 1134 1406 906 
Q 1584 678 1900 678 
Q 2200 678 2389 918 
Q 2578 1159 2578 1556 
z
" transform="scale(0.015625)"/>
      <path id="SegoeUIThis-Bold-75" d="M 3456 0 
L 2472 0 
L 2472 488 
L 2456 488 
Q 2091 -78 1478 -78 
Q 366 -78 366 1269 
L 366 3200 
L 1350 3200 
L 1350 1356 
Q 1350 678 1888 678 
Q 2153 678 2312 864 
Q 2472 1050 2472 1369 
L 2472 3200 
L 3456 3200 
L 3456 0 
z
" transform="scale(0.015625)"/>
      <path id="SegoeUIThis-Bold-6c" d="M 1403 0 
L 416 0 
L 416 4738 
L 1403 4738 
L 1403 0 
z
" transform="scale(0.015625)"/>
      <path id="SegoeUIThis-Bold-6d" d="M 5497 0 
L 4513 0 
L 4513 1825 
Q 4513 2522 4000 2522 
Q 3756 2522 3603 2312 
Q 3450 2103 3450 1791 
L 3450 0 
L 2463 0 
L 2463 1844 
Q 2463 2522 1959 2522 
Q 1706 2522 1554 2322 
Q 1403 2122 1403 1778 
L 1403 0 
L 416 0 
L 416 3200 
L 1403 3200 
L 1403 2700 
L 1416 2700 
Q 1569 2956 1845 3117 
Q 2122 3278 2450 3278 
Q 3128 3278 3378 2681 
Q 3744 3278 4453 3278 
Q 5497 3278 5497 1991 
L 5497 0 
z
" transform="scale(0.015625)"/>
      <path id="SegoeUIThis-Bold-20" transform="scale(0.015625)"/>
      <path id="SegoeUIThis-Bold-4d" d="M 5619 0 
L 4622 0 
L 4622 2681 
Q 4622 3116 4659 3641 
L 4634 3641 
Q 4556 3228 4494 3047 
L 3444 0 
L 2619 0 
L 1550 3016 
Q 1506 3138 1409 3641 
L 1381 3641 
Q 1422 2978 1422 2478 
L 1422 0 
L 513 0 
L 513 4481 
L 1991 4481 
L 2906 1825 
Q 3016 1506 3066 1184 
L 3084 1184 
Q 3169 1556 3263 1831 
L 4178 4481 
L 5619 4481 
L 5619 0 
z
" transform="scale(0.015625)"/>
      <path id="SegoeUIThis-Bold-61" d="M 3078 0 
L 2144 0 
L 2144 459 
L 2131 459 
Q 1809 -78 1178 -78 
Q 713 -78 445 186 
Q 178 450 178 891 
Q 178 1822 1281 1966 
L 2150 2081 
Q 2150 2606 1581 2606 
Q 1009 2606 494 2266 
L 494 3009 
Q 700 3116 1058 3197 
Q 1416 3278 1709 3278 
Q 3078 3278 3078 1913 
L 3078 0 
z
M 2150 1300 
L 2150 1516 
L 1569 1441 
Q 1088 1378 1088 1006 
Q 1088 838 1205 730 
Q 1322 622 1522 622 
Q 1800 622 1975 814 
Q 2150 1006 2150 1300 
z
" transform="scale(0.015625)"/>
      <path id="SegoeUIThis-Bold-73" d="M 206 84 
L 206 884 
Q 450 738 692 666 
Q 934 594 1150 594 
Q 1413 594 1564 666 
Q 1716 738 1716 884 
Q 1716 978 1647 1040 
Q 1578 1103 1470 1150 
Q 1363 1197 1234 1234 
Q 1106 1272 988 1319 
Q 797 1391 651 1473 
Q 506 1556 407 1665 
Q 309 1775 257 1919 
Q 206 2063 206 2259 
Q 206 2528 323 2722 
Q 441 2916 636 3039 
Q 831 3163 1082 3220 
Q 1334 3278 1606 3278 
Q 1819 3278 2037 3245 
Q 2256 3213 2469 3150 
L 2469 2388 
Q 2281 2497 2067 2551 
Q 1853 2606 1647 2606 
Q 1550 2606 1464 2589 
Q 1378 2572 1312 2539 
Q 1247 2506 1209 2454 
Q 1172 2403 1172 2338 
Q 1172 2250 1228 2187 
Q 1284 2125 1375 2079 
Q 1466 2034 1577 1998 
Q 1688 1963 1797 1925 
Q 1994 1856 2153 1775 
Q 2313 1694 2427 1584 
Q 2541 1475 2602 1328 
Q 2663 1181 2663 978 
Q 2663 694 2539 492 
Q 2416 291 2211 164 
Q 2006 38 1739 -20 
Q 1472 -78 1184 -78 
Q 656 -78 206 84 
z
" transform="scale(0.015625)"/>
      <path id="SegoeUIThis-Bold-52" d="M 4272 0 
L 3113 0 
L 2416 1153 
Q 2338 1284 2266 1387 
Q 2194 1491 2120 1564 
Q 2047 1638 1967 1677 
Q 1888 1716 1794 1716 
L 1522 1716 
L 1522 0 
L 513 0 
L 513 4481 
L 2113 4481 
Q 3744 4481 3744 3263 
Q 3744 3028 3672 2829 
Q 3600 2631 3469 2472 
Q 3338 2313 3152 2197 
Q 2966 2081 2738 2016 
L 2738 2003 
Q 2838 1972 2931 1901 
Q 3025 1831 3112 1737 
Q 3200 1644 3279 1536 
Q 3359 1428 3425 1325 
L 4272 0 
z
M 1522 3725 
L 1522 2478 
L 1959 2478 
Q 2284 2478 2481 2666 
Q 2681 2856 2681 3138 
Q 2681 3725 1978 3725 
L 1522 3725 
z
" transform="scale(0.015625)"/>
      <path id="SegoeUIThis-Bold-6f" d="M 1941 -78 
Q 1141 -78 683 370 
Q 225 819 225 1588 
Q 225 2381 700 2829 
Q 1175 3278 1984 3278 
Q 2781 3278 3234 2829 
Q 3688 2381 3688 1644 
Q 3688 847 3220 384 
Q 2753 -78 1941 -78 
z
M 1966 2522 
Q 1616 2522 1422 2281 
Q 1228 2041 1228 1600 
Q 1228 678 1972 678 
Q 2681 678 2681 1625 
Q 2681 2522 1966 2522 
z
" transform="scale(0.015625)"/>
      <path id="SegoeUIThis-Bold-62" d="M 1416 372 
L 1403 372 
L 1403 0 
L 416 0 
L 416 4738 
L 1403 4738 
L 1403 2719 
L 1416 2719 
Q 1781 3278 2456 3278 
Q 3075 3278 3409 2853 
Q 3744 2428 3744 1691 
Q 3744 891 3353 406 
Q 2963 -78 2309 -78 
Q 1719 -78 1416 372 
z
M 1388 1722 
L 1388 1394 
Q 1388 1084 1566 881 
Q 1744 678 2022 678 
Q 2359 678 2545 939 
Q 2731 1200 2731 1678 
Q 2731 2075 2561 2298 
Q 2391 2522 2075 2522 
Q 1778 2522 1583 2300 
Q 1388 2078 1388 1722 
z
" transform="scale(0.015625)"/>
      <path id="SegoeUIThis-Bold-74" d="M 2350 38 
Q 2131 -78 1691 -78 
Q 647 -78 647 1006 
L 647 2472 
L 128 2472 
L 128 3200 
L 647 3200 
L 647 3891 
L 1631 4172 
L 1631 3200 
L 2350 3200 
L 2350 2472 
L 1631 2472 
L 1631 1178 
Q 1631 678 2028 678 
Q 2184 678 2350 769 
L 2350 38 
z
" transform="scale(0.015625)"/>
      <path id="SegoeUIThis-Bold-43" d="M 3725 159 
Q 3234 -78 2444 -78 
Q 1413 -78 822 528 
Q 231 1134 231 2144 
Q 231 3219 895 3887 
Q 1559 4556 2619 4556 
Q 3275 4556 3725 4391 
L 3725 3419 
Q 3275 3688 2700 3688 
Q 2069 3688 1681 3291 
Q 1294 2894 1294 2216 
Q 1294 1566 1659 1180 
Q 2025 794 2644 794 
Q 3234 794 3725 1081 
L 3725 159 
z
" transform="scale(0.015625)"/>
      <path id="SegoeUIThis-Bold-70" d="M 1416 372 
L 1403 372 
L 1403 -1472 
L 416 -1472 
L 416 3200 
L 1403 3200 
L 1403 2719 
L 1416 2719 
Q 1781 3278 2444 3278 
Q 3066 3278 3405 2851 
Q 3744 2425 3744 1691 
Q 3744 891 3348 406 
Q 2953 -78 2297 -78 
Q 1719 -78 1416 372 
z
M 1388 1684 
L 1388 1428 
Q 1388 1097 1563 887 
Q 1738 678 2022 678 
Q 2359 678 2545 939 
Q 2731 1200 2731 1678 
Q 2731 2522 2075 2522 
Q 1772 2522 1580 2292 
Q 1388 2063 1388 1684 
z
" transform="scale(0.015625)"/>
      <path id="SegoeUIThis-Bold-72" d="M 2503 2309 
Q 2325 2406 2088 2406 
Q 1766 2406 1584 2170 
Q 1403 1934 1403 1528 
L 1403 0 
L 416 0 
L 416 3200 
L 1403 3200 
L 1403 2606 
L 1416 2606 
Q 1650 3256 2259 3256 
Q 2416 3256 2503 3219 
L 2503 2309 
z
" transform="scale(0.015625)"/>
      <path id="SegoeUIThis-Bold-69" d="M 916 3706 
Q 666 3706 506 3854 
Q 347 4003 347 4219 
Q 347 4441 506 4581 
Q 666 4722 916 4722 
Q 1169 4722 1326 4581 
Q 1484 4441 1484 4219 
Q 1484 3994 1326 3850 
Q 1169 3706 916 3706 
z
M 1403 0 
L 416 0 
L 416 3200 
L 1403 3200 
L 1403 0 
z
" transform="scale(0.015625)"/>
     </defs>
     <use xlink:href="#SegoeUIThis-Bold-50"/>
     <use xlink:href="#SegoeUIThis-Bold-65" x="58.425781"/>
     <use xlink:href="#SegoeUIThis-Bold-6e" x="112.527344"/>
     <use xlink:href="#SegoeUIThis-Bold-64" x="173.025391"/>
     <use xlink:href="#SegoeUIThis-Bold-75" x="234.939453"/>
     <use xlink:href="#SegoeUIThis-Bold-6c" x="295.4375"/>
     <use xlink:href="#SegoeUIThis-Bold-75" x="323.855469"/>
     <use xlink:href="#SegoeUIThis-Bold-6d" x="384.353516"/>
     <use xlink:href="#SegoeUIThis-Bold-20" x="475.955078"/>
     <use xlink:href="#SegoeUIThis-Bold-4d" x="503.542969"/>
     <use xlink:href="#SegoeUIThis-Bold-61" x="599.246094"/>
     <use xlink:href="#SegoeUIThis-Bold-73" x="653.054688"/>
     <use xlink:href="#SegoeUIThis-Bold-73" x="697.048828"/>
     <use xlink:href="#SegoeUIThis-Bold-20" x="741.042969"/>
     <use xlink:href="#SegoeUIThis-Bold-52" x="768.630859"/>
     <use xlink:href="#SegoeUIThis-Bold-6f" x="831.414062"/>
     <use xlink:href="#SegoeUIThis-Bold-62" x="892.546875"/>
     <use xlink:href="#SegoeUIThis-Bold-75" x="954.558594"/>
     <use xlink:href="#SegoeUIThis-Bold-73" x="1015.056641"/>
     <use xlink:href="#SegoeUIThis-Bold-74" x="1059.050781"/>
     <use xlink:href="#SegoeUIThis-Bold-6e" x="1097.966797"/>
     <use xlink:href="#SegoeUIThis-Bold-65" x="1158.464844"/>
     <use xlink:href="#SegoeUIThis-Bold-73" x="1212.566406"/>
     <use xlink:href="#SegoeUIThis-Bold-73" x="1256.560547"/>
     <use xlink:href="#SegoeUIThis-Bold-20" x="1300.554688"/>
     <use xlink:href="#SegoeUIThis-Bold-43" x="1328.142578"/>
     <use xlink:href="#SegoeUIThis-Bold-6f" x="1390.544922"/>
     <use xlink:href="#SegoeUIThis-Bold-6d" x="1451.677734"/>
     <use xlink:href="#SegoeUIThis-Bold-70" x="1543.279297"/>
     <use xlink:href="#SegoeUIThis-Bold-61" x="1604.291016"/>
     <use xlink:href="#SegoeUIThis-Bold-72" x="1658.099609"/>
     <use xlink:href="#SegoeUIThis-Bold-69" x="1698.269531"/>
     <use xlink:href="#SegoeUIThis-Bold-73" x="1726.6875"/>
     <use xlink:href="#SegoeUIThis-Bold-6f" x="1770.681641"/>
     <use xlink:href="#SegoeUIThis-Bold-6e" x="1831.814453"/>
    </g>
   </g>
   <g id="legend_1">
    <g id="patch_7">
     <path d="M 120.6 503.64 
L 375.224062 503.64 
Q 378.824062 503.64 378.824062 500.04 
L 378.824062 395.78625 
Q 378.824062 392.18625 375.224062 392.18625 
L 120.6 392.18625 
Q 117 392.18625 117 395.78625 
L 117 500.04 
Q 117 503.64 120.6 503.64 
z
" style="fill: #ffffff; opacity: 0.8; stroke: #cccccc; stroke-linejoin: miter"/>
    </g>
    <g id="line2d_31">
     <path d="M 124.2 406.411875 
L 142.2 406.411875 
L 160.2 406.411875 
" style="fill: none; stroke: #ff7700; stroke-width: 1.5; stroke-linecap: square"/>
    </g>
    <g id="text_17">
     <!-- PPO -->
     <g transform="translate(174.6 412.711875) scale(0.18 -0.18)">
      <defs>
       <path id="SegoeUIThis-4f" d="M 2394 -75 
Q 1441 -75 867 553 
Q 294 1181 294 2188 
Q 294 3269 878 3912 
Q 1463 4556 2469 4556 
Q 3397 4556 3964 3931 
Q 4531 3306 4531 2297 
Q 4531 1200 3950 562 
Q 3369 -75 2394 -75 
z
M 2431 4081 
Q 1725 4081 1284 3572 
Q 844 3063 844 2234 
Q 844 1406 1273 901 
Q 1703 397 2394 397 
Q 3131 397 3556 878 
Q 3981 1359 3981 2225 
Q 3981 3113 3568 3597 
Q 3156 4081 2431 4081 
z
" transform="scale(0.015625)"/>
      </defs>
      <use xlink:href="#SegoeUIThis-50"/>
      <use xlink:href="#SegoeUIThis-50" x="56.005859"/>
      <use xlink:href="#SegoeUIThis-4f" x="112.011719"/>
     </g>
    </g>
    <g id="line2d_32">
     <path d="M 124.2 432.8775 
L 142.2 432.8775 
L 160.2 432.8775 
" style="fill: none; stroke: #004777; stroke-width: 1.5; stroke-linecap: square"/>
    </g>
    <g id="text_18">
     <!-- SHAC -->
     <g transform="translate(174.6 439.1775) scale(0.18 -0.18)">
      <defs>
       <path id="SegoeUIThis-53" d="M 378 181 
L 378 800 
Q 484 706 632 631 
Q 781 556 945 504 
Q 1109 453 1275 425 
Q 1441 397 1581 397 
Q 2066 397 2305 576 
Q 2544 756 2544 1094 
Q 2544 1275 2464 1409 
Q 2384 1544 2243 1655 
Q 2103 1766 1911 1867 
Q 1719 1969 1497 2081 
Q 1263 2200 1059 2322 
Q 856 2444 706 2591 
Q 556 2738 470 2923 
Q 384 3109 384 3359 
Q 384 3666 518 3892 
Q 653 4119 872 4266 
Q 1091 4413 1370 4484 
Q 1650 4556 1941 4556 
Q 2603 4556 2906 4397 
L 2906 3806 
Q 2509 4081 1888 4081 
Q 1716 4081 1544 4045 
Q 1372 4009 1237 3928 
Q 1103 3847 1018 3719 
Q 934 3591 934 3406 
Q 934 3234 998 3109 
Q 1063 2984 1188 2881 
Q 1313 2778 1492 2681 
Q 1672 2584 1906 2469 
Q 2147 2350 2362 2219 
Q 2578 2088 2740 1928 
Q 2903 1769 2998 1575 
Q 3094 1381 3094 1131 
Q 3094 800 2964 570 
Q 2834 341 2614 197 
Q 2394 53 2106 -11 
Q 1819 -75 1500 -75 
Q 1394 -75 1237 -58 
Q 1081 -41 918 -8 
Q 756 25 611 73 
Q 466 122 378 181 
z
" transform="scale(0.015625)"/>
       <path id="SegoeUIThis-48" d="M 3956 0 
L 3431 0 
L 3431 2044 
L 1113 2044 
L 1113 0 
L 588 0 
L 588 4481 
L 1113 4481 
L 1113 2516 
L 3431 2516 
L 3431 4481 
L 3956 4481 
L 3956 0 
z
" transform="scale(0.015625)"/>
       <path id="SegoeUIThis-41" d="M 4056 0 
L 3475 0 
L 3000 1256 
L 1100 1256 
L 653 0 
L 69 0 
L 1788 4481 
L 2331 4481 
L 4056 0 
z
M 2828 1728 
L 2125 3638 
Q 2091 3731 2056 3938 
L 2044 3938 
Q 2013 3747 1972 3638 
L 1275 1728 
L 2828 1728 
z
" transform="scale(0.015625)"/>
       <path id="SegoeUIThis-43" d="M 3638 188 
Q 3141 -75 2400 -75 
Q 1444 -75 869 540 
Q 294 1156 294 2156 
Q 294 3231 941 3893 
Q 1588 4556 2581 4556 
Q 3219 4556 3638 4372 
L 3638 3813 
Q 3156 4081 2575 4081 
Q 1803 4081 1323 3565 
Q 844 3050 844 2188 
Q 844 1369 1292 883 
Q 1741 397 2469 397 
Q 3144 397 3638 697 
L 3638 188 
z
" transform="scale(0.015625)"/>
      </defs>
      <use xlink:href="#SegoeUIThis-53"/>
      <use xlink:href="#SegoeUIThis-48" x="53.125"/>
      <use xlink:href="#SegoeUIThis-41" x="124.121094"/>
      <use xlink:href="#SegoeUIThis-43" x="186.623047"/>
     </g>
    </g>
    <g id="line2d_33">
     <path d="M 124.2 459.343125 
L 142.2 459.343125 
L 160.2 459.343125 
" style="fill: none; stroke: #b72b34; stroke-width: 1.5; stroke-linecap: square"/>
    </g>
    <g id="text_19">
     <!-- SAC -->
     <g transform="translate(174.6 465.643125) scale(0.18 -0.18)">
      <use xlink:href="#SegoeUIThis-53"/>
      <use xlink:href="#SegoeUIThis-41" x="53.125"/>
      <use xlink:href="#SegoeUIThis-43" x="115.626953"/>
     </g>
    </g>
    <g id="line2d_34">
     <path d="M 124.2 486 
L 142.2 486 
L 160.2 486 
" style="fill: none; stroke-dasharray: 5.55,2.4; stroke-dashoffset: 0; stroke: #000000; stroke-width: 1.5"/>
    </g>
    <g id="text_20">
     <!-- Expert level performance -->
     <g transform="translate(174.6 492.3) scale(0.18 -0.18)">
      <defs>
       <path id="SegoeUIThis-45" d="M 2963 0 
L 588 0 
L 588 4481 
L 2863 4481 
L 2863 4006 
L 1113 4006 
L 1113 2516 
L 2731 2516 
L 2731 2044 
L 1113 2044 
L 1113 475 
L 2963 475 
L 2963 0 
z
" transform="scale(0.015625)"/>
       <path id="SegoeUIThis-78" d="M 2856 3200 
L 1781 1581 
L 2838 0 
L 2241 0 
L 1613 1038 
Q 1553 1134 1472 1281 
L 1459 1281 
Q 1444 1253 1313 1038 
L 672 0 
L 81 0 
L 1172 1569 
L 128 3200 
L 725 3200 
L 1344 2106 
Q 1413 1984 1478 1856 
L 1491 1856 
L 2291 3200 
L 2856 3200 
z
" transform="scale(0.015625)"/>
       <path id="SegoeUIThis-70" d="M 1044 463 
L 1031 463 
L 1031 -1472 
L 519 -1472 
L 519 3200 
L 1031 3200 
L 1031 2638 
L 1044 2638 
Q 1422 3275 2150 3275 
Q 2769 3275 3116 2845 
Q 3463 2416 3463 1694 
Q 3463 891 3072 408 
Q 2681 -75 2003 -75 
Q 1381 -75 1044 463 
z
M 1031 1753 
L 1031 1306 
Q 1031 909 1289 632 
Q 1547 356 1944 356 
Q 2409 356 2673 712 
Q 2938 1069 2938 1703 
Q 2938 2238 2691 2541 
Q 2444 2844 2022 2844 
Q 1575 2844 1303 2533 
Q 1031 2222 1031 1753 
z
" transform="scale(0.015625)"/>
       <path id="SegoeUIThis-74" d="M 2003 31 
Q 1822 -69 1525 -69 
Q 684 -69 684 869 
L 684 2763 
L 134 2763 
L 134 3200 
L 684 3200 
L 684 3981 
L 1197 4147 
L 1197 3200 
L 2003 3200 
L 2003 2763 
L 1197 2763 
L 1197 959 
Q 1197 638 1306 500 
Q 1416 363 1669 363 
Q 1863 363 2003 469 
L 2003 31 
z
" transform="scale(0.015625)"/>
       <path id="SegoeUIThis-76" d="M 3034 3200 
L 1759 0 
L 1256 0 
L 44 3200 
L 606 3200 
L 1419 875 
Q 1509 619 1531 428 
L 1544 428 
Q 1575 669 1644 863 
L 2494 3200 
L 3034 3200 
z
" transform="scale(0.015625)"/>
       <path id="SegoeUIThis-66" d="M 2100 4288 
Q 1950 4372 1759 4372 
Q 1222 4372 1222 3694 
L 1222 3200 
L 1972 3200 
L 1972 2763 
L 1222 2763 
L 1222 0 
L 713 0 
L 713 2763 
L 166 2763 
L 166 3200 
L 713 3200 
L 713 3719 
Q 713 4222 1003 4514 
Q 1294 4806 1728 4806 
Q 1963 4806 2100 4750 
L 2100 4288 
z
" transform="scale(0.015625)"/>
       <path id="SegoeUIThis-6f" d="M 1856 -75 
Q 1147 -75 723 373 
Q 300 822 300 1563 
Q 300 2369 740 2822 
Q 1181 3275 1931 3275 
Q 2647 3275 3048 2834 
Q 3450 2394 3450 1613 
Q 3450 847 3017 386 
Q 2584 -75 1856 -75 
z
M 1894 2844 
Q 1400 2844 1112 2508 
Q 825 2172 825 1581 
Q 825 1013 1115 684 
Q 1406 356 1894 356 
Q 2391 356 2658 678 
Q 2925 1000 2925 1594 
Q 2925 2194 2658 2519 
Q 2391 2844 1894 2844 
z
" transform="scale(0.015625)"/>
       <path id="SegoeUIThis-63" d="M 2700 147 
Q 2331 -75 1825 -75 
Q 1141 -75 720 370 
Q 300 816 300 1525 
Q 300 2316 753 2795 
Q 1206 3275 1963 3275 
Q 2384 3275 2706 3119 
L 2706 2594 
Q 2350 2844 1944 2844 
Q 1453 2844 1139 2492 
Q 825 2141 825 1569 
Q 825 1006 1120 681 
Q 1416 356 1913 356 
Q 2331 356 2700 634 
L 2700 147 
z
" transform="scale(0.015625)"/>
      </defs>
      <use xlink:href="#SegoeUIThis-45"/>
      <use xlink:href="#SegoeUIThis-78" x="50.585938"/>
      <use xlink:href="#SegoeUIThis-70" x="96.484375"/>
      <use xlink:href="#SegoeUIThis-65" x="155.273438"/>
      <use xlink:href="#SegoeUIThis-72" x="207.568359"/>
      <use xlink:href="#SegoeUIThis-74" x="242.333984"/>
      <use xlink:href="#SegoeUIThis-20" x="276.220703"/>
      <use xlink:href="#SegoeUIThis-6c" x="303.613281"/>
      <use xlink:href="#SegoeUIThis-65" x="327.832031"/>
      <use xlink:href="#SegoeUIThis-76" x="380.126953"/>
      <use xlink:href="#SegoeUIThis-65" x="428.027344"/>
      <use xlink:href="#SegoeUIThis-6c" x="480.322266"/>
      <use xlink:href="#SegoeUIThis-20" x="504.541016"/>
      <use xlink:href="#SegoeUIThis-70" x="531.933594"/>
      <use xlink:href="#SegoeUIThis-65" x="590.722656"/>
      <use xlink:href="#SegoeUIThis-72" x="643.017578"/>
      <use xlink:href="#SegoeUIThis-66" x="677.783203"/>
      <use xlink:href="#SegoeUIThis-6f" x="709.082031"/>
      <use xlink:href="#SegoeUIThis-72" x="767.675781"/>
      <use xlink:href="#SegoeUIThis-6d" x="802.441406"/>
      <use xlink:href="#SegoeUIThis-61" x="888.574219"/>
      <use xlink:href="#SegoeUIThis-6e" x="939.453125"/>
      <use xlink:href="#SegoeUIThis-63" x="996.044922"/>
      <use xlink:href="#SegoeUIThis-65" x="1042.236328"/>
     </g>
    </g>
   </g>
  </g>
 </g>
 <defs>
  <clipPath id="p9d695c0c08">
   <rect x="108" y="69.12" width="669.6" height="443.52"/>
  </clipPath>
 </defs>
</svg>
