<?xml version="1.0" encoding="utf-8" standalone="no"?>
<!DOCTYPE svg PUBLIC "-//W3C//DTD SVG 1.1//EN"
  "http://www.w3.org/Graphics/SVG/1.1/DTD/svg11.dtd">
<svg xmlns:xlink="http://www.w3.org/1999/xlink" width="864pt" height="576pt" viewBox="0 0 864 576" xmlns="http://www.w3.org/2000/svg" version="1.1">
 <metadata>
  <rdf:RDF xmlns:dc="http://purl.org/dc/elements/1.1/" xmlns:cc="http://creativecommons.org/ns#" xmlns:rdf="http://www.w3.org/1999/02/22-rdf-syntax-ns#">
   <cc:Work>
    <dc:type rdf:resource="http://purl.org/dc/dcmitype/StillImage"/>
    <dc:date>2024-07-25T17:25:30.578237</dc:date>
    <dc:format>image/svg+xml</dc:format>
    <dc:creator>
     <cc:Agent>
      <dc:title>Matplotlib v3.8.4, https://matplotlib.org/</dc:title>
     </cc:Agent>
    </dc:creator>
   </cc:Work>
  </rdf:RDF>
 </metadata>
 <defs>
  <style type="text/css">*{stroke-linejoin: round; stroke-linecap: butt}</style>
 </defs>
 <g id="figure_1">
  <g id="patch_1">
   <path d="M 0 576 
L 864 576 
L 864 0 
L 0 0 
z
" style="fill: #ffffff"/>
  </g>
  <g id="axes_1">
   <g id="patch_2">
    <path d="M 108 512.64 
L 777.6 512.64 
L 777.6 69.12 
L 108 69.12 
z
" style="fill: #ffffff"/>
   </g>
   <g id="line2d_1">
    <path d="M 138.436364 237.949312 
L 144.585124 174.508374 
L 150.733884 237.884275 
L 156.882645 246.694594 
L 163.031405 244.156048 
L 169.180165 247.997555 
L 175.328926 174.598964 
L 181.477686 236.569495 
L 187.626446 164.268284 
L 193.775207 174.331384 
L 199.923967 237.822988 
L 206.072727 246.10506 
L 212.221488 245.877562 
L 218.370248 164.593064 
L 224.519008 164.616675 
L 230.667769 247.859239 
L 236.816529 174.4885 
L 242.965289 231.81632 
L 249.11405 239.264606 
L 255.26281 247.558387 
L 261.41157 247.043137 
L 267.560331 174.388366 
L 273.709091 248.696982 
L 279.857851 174.544914 
L 286.006612 248.335187 
L 292.155372 247.946701 
L 298.304132 237.75929 
L 304.452893 233.114821 
L 310.601653 248.328373 
L 316.750413 237.691679 
L 322.899174 247.836694 
L 329.047934 237.810322 
L 335.196694 259.133669 
L 341.345455 236.913599 
L 347.494215 229.841969 
L 353.642975 239.335942 
L 359.791736 238.614996 
L 365.940496 249.308199 
L 372.089256 249.606265 
L 378.238017 248.123758 
L 384.386777 248.267143 
L 390.535537 247.636109 
L 396.684298 249.148648 
L 402.833058 280.243189 
L 408.981818 238.582198 
L 415.130579 248.75557 
L 421.279339 249.243394 
L 427.428099 240.615099 
L 433.57686 248.985161 
L 439.72562 239.025981 
L 445.87438 239.150327 
L 452.02314 239.892994 
L 458.171901 252.594681 
L 464.320661 258.884608 
L 470.469421 279.631385 
L 476.618182 264.471766 
L 482.766942 269.355292 
L 488.915702 259.288944 
L 495.064463 260.48489 
L 501.213223 269.749293 
L 507.361983 259.605751 
L 513.510744 273.536454 
L 519.659504 248.198668 
L 525.808264 311.511533 
L 531.957025 256.396802 
L 538.105785 299.990606 
L 544.254545 258.204197 
L 550.403306 287.545823 
L 556.552066 282.695055 
L 562.700826 280.922336 
L 568.849587 271.037627 
L 574.998347 271.438362 
L 581.147107 290.292717 
L 587.295868 274.057679 
L 593.444628 285.404189 
L 599.593388 287.377647 
L 605.742149 301.045294 
L 611.890909 292.962979 
L 618.039669 263.289238 
L 624.18843 332.650175 
L 630.33719 325.762599 
L 636.48595 296.391539 
L 642.634711 331.655694 
L 648.783471 365.890927 
L 654.932231 311.436477 
L 661.080992 324.799066 
L 667.229752 320.412725 
L 673.378512 319.760038 
L 679.527273 306.290706 
L 685.676033 308.225802 
L 691.824793 346.367394 
L 697.973554 331.40385 
L 704.122314 358.98677 
L 710.271074 311.162451 
L 716.419835 332.833085 
L 722.568595 331.577444 
L 728.717355 346.551291 
L 734.866116 335.682886 
L 741.014876 305.308392 
L 747.163636 378.15562 
" clip-path="url(#pba56ad4cf8)" style="fill: none; stroke: #ff7700; stroke-width: 1.5; stroke-linecap: square"/>
   </g>
   <g id="PolyCollection_1">
    <defs>
     <path id="m02749dd546" d="M 138.436364 -485.610779 
L 138.436364 -190.490597 
L 144.585124 -382.204095 
L 150.733884 -190.83757 
L 156.882645 -188.20115 
L 163.031405 -195.728301 
L 169.180165 -184.429443 
L 175.328926 -381.492559 
L 181.477686 -194.780944 
L 187.626446 -410.737142 
L 193.775207 -382.407462 
L 199.923967 -214.494438 
L 206.072727 -190.275963 
L 212.221488 -191.227788 
L 218.370248 -410.221416 
L 224.519008 -410.542509 
L 230.667769 -184.971297 
L 236.816529 -382.095304 
L 242.965289 -209.618755 
L 249.11405 -186.750788 
L 255.26281 -186.006391 
L 261.41157 -187.556766 
L 267.560331 -382.404274 
L 273.709091 -182.744095 
L 279.857851 -381.929871 
L 286.006612 -183.931768 
L 292.155372 -184.687123 
L 298.304132 -191.791606 
L 304.452893 -205.655977 
L 310.601653 -184.187653 
L 316.750413 -192.056586 
L 322.899174 -185.185147 
L 329.047934 -192.098368 
L 335.196694 -177.32786 
L 341.345455 -194.624532 
L 347.494215 -215.639034 
L 353.642975 -187.500667 
L 359.791736 -189.679674 
L 365.940496 -182.409935 
L 372.089256 -181.508199 
L 378.238017 -184.857178 
L 384.386777 -184.725226 
L 390.535537 -186.834332 
L 396.684298 -182.382556 
L 402.833058 -155.549238 
L 408.981818 -190.711589 
L 415.130579 -182.964536 
L 421.279339 -182.836472 
L 427.428099 -207.263706 
L 433.57686 -183.764069 
L 439.72562 -212.6117 
L 445.87438 -188.913653 
L 452.02314 -186.524956 
L 458.171901 -180.720669 
L 464.320661 -177.778632 
L 470.469421 -157.329622 
L 476.618182 -173.282315 
L 482.766942 -169.699319 
L 488.915702 -176.346614 
L 495.064463 -170.265651 
L 501.213223 -167.913165 
L 507.361983 -177.259159 
L 513.510744 -167.001047 
L 519.659504 -185.682585 
L 525.808264 -138.201207 
L 531.957025 -179.516655 
L 538.105785 -140.506846 
L 544.254545 -175.024245 
L 550.403306 -145.338647 
L 556.552066 -157.387536 
L 562.700826 -154.035529 
L 568.849587 -165.273628 
L 574.998347 -165.211164 
L 581.147107 -150.298723 
L 587.295868 -163.134699 
L 593.444628 -148.738804 
L 599.593388 -157.302604 
L 605.742149 -146.06409 
L 611.890909 -143.399941 
L 618.039669 -166.938675 
L 624.18843 -129.009589 
L 630.33719 -111.535646 
L 636.48595 -129.832597 
L 642.634711 -117.574719 
L 648.783471 -112.261474 
L 654.932231 -120.541078 
L 661.080992 -113.292317 
L 667.229752 -118.047317 
L 673.378512 -119.603513 
L 679.527273 -133.772033 
L 685.676033 -125.76607 
L 691.824793 -119.836617 
L 697.973554 -118.441157 
L 704.122314 -105.132421 
L 710.271074 -147.18908 
L 716.419835 -122.5674 
L 722.568595 -129.704878 
L 728.717355 -94.133515 
L 734.866116 -126.781615 
L 741.014876 -141.173556 
L 747.163636 -83.52 
L 747.163636 -312.168759 
L 747.163636 -312.168759 
L 741.014876 -400.209659 
L 734.866116 -353.852613 
L 728.717355 -364.763903 
L 722.568595 -359.140233 
L 716.419835 -363.76643 
L 710.271074 -382.486017 
L 704.122314 -328.894038 
L 697.973554 -370.751143 
L 691.824793 -339.428594 
L 685.676033 -409.782326 
L 679.527273 -405.646555 
L 673.378512 -392.876411 
L 667.229752 -393.127234 
L 661.080992 -389.10955 
L 654.932231 -408.585968 
L 648.783471 -307.956672 
L 642.634711 -371.113893 
L 636.48595 -429.384325 
L 630.33719 -388.939157 
L 624.18843 -357.690062 
L 618.039669 -458.48285 
L 611.890909 -422.674101 
L 605.742149 -403.845322 
L 599.593388 -419.942102 
L 593.444628 -432.452819 
L 587.295868 -440.749942 
L 581.147107 -421.115843 
L 574.998347 -443.912111 
L 568.849587 -444.651118 
L 562.700826 -436.119799 
L 556.552066 -429.222355 
L 550.403306 -431.569706 
L 544.254545 -460.56736 
L 538.105785 -411.511942 
L 531.957025 -459.68974 
L 525.808264 -390.775728 
L 519.659504 -469.92008 
L 513.510744 -437.926044 
L 507.361983 -455.529339 
L 501.213223 -444.588249 
L 495.064463 -460.76457 
L 488.915702 -457.075498 
L 482.766942 -443.590097 
L 476.618182 -449.774152 
L 470.469421 -435.407609 
L 464.320661 -456.452152 
L 458.171901 -466.089968 
L 452.02314 -485.689057 
L 445.87438 -484.785693 
L 439.72562 -461.336338 
L 433.57686 -470.265609 
L 427.428099 -463.506097 
L 421.279339 -470.676739 
L 415.130579 -471.524325 
L 408.981818 -484.124016 
L 402.833058 -435.964383 
L 396.684298 -471.320148 
L 390.535537 -469.89345 
L 384.386777 -470.740487 
L 378.238017 -470.895306 
L 372.089256 -471.279271 
L 365.940496 -470.973667 
L 359.791736 -485.090334 
L 353.642975 -485.827449 
L 347.494215 -476.677029 
L 341.345455 -483.54827 
L 335.196694 -456.404803 
L 329.047934 -484.280989 
L 322.899174 -471.141466 
L 316.750413 -484.560056 
L 310.601653 -471.155601 
L 304.452893 -480.11438 
L 298.304132 -484.689815 
L 292.155372 -471.419474 
L 286.006612 -471.397858 
L 279.857851 -420.980301 
L 273.709091 -471.861941 
L 267.560331 -420.818993 
L 261.41157 -470.35696 
L 255.26281 -470.876835 
L 249.11405 -486.72 
L 242.965289 -478.748605 
L 236.816529 -420.927695 
L 230.667769 -471.310225 
L 224.519008 -412.224141 
L 218.370248 -412.592455 
L 212.221488 -469.017088 
L 206.072727 -469.513917 
L 199.923967 -461.859585 
L 193.775207 -420.929769 
L 187.626446 -412.72629 
L 181.477686 -484.080065 
L 175.328926 -421.309513 
L 169.180165 -471.575448 
L 163.031405 -467.959603 
L 156.882645 -470.409662 
L 150.733884 -485.393879 
L 144.585124 -420.779156 
L 138.436364 -485.610779 
z
" style="stroke: #ff7700; stroke-opacity: 0.2"/>
    </defs>
    <g clip-path="url(#pba56ad4cf8)">
     <use xlink:href="#m02749dd546" x="0" y="576" style="fill: #ff7700; fill-opacity: 0.2; stroke: #ff7700; stroke-opacity: 0.2"/>
    </g>
   </g>
   <g id="line2d_2">
    <path d="M 138.436364 213.909631 
L 144.585124 213.923873 
L 150.733884 213.97665 
L 156.882645 213.944026 
L 163.031405 213.945563 
L 169.180165 213.939198 
L 175.328926 213.895048 
L 181.477686 213.948038 
L 187.626446 213.922094 
L 193.775207 214.069201 
L 199.923967 213.95093 
L 206.072727 213.941225 
L 212.221488 213.996545 
L 218.370248 213.987695 
L 224.519008 214.118995 
L 230.667769 224.373775 
L 236.816529 213.995079 
L 242.965289 214.177177 
L 249.11405 214.078253 
L 255.26281 214.022201 
L 261.41157 213.951201 
L 267.560331 214.063788 
L 273.709091 213.927908 
L 279.857851 214.039135 
L 286.006612 214.011426 
L 292.155372 214.032072 
L 298.304132 214.201517 
L 304.452893 224.259286 
L 310.601653 224.333665 
L 316.750413 214.087331 
L 322.899174 224.249895 
L 329.047934 234.650746 
L 335.196694 224.442198 
L 341.345455 214.342859 
L 347.494215 224.349418 
L 353.642975 224.32904 
L 359.791736 214.213431 
L 365.940496 224.47623 
L 372.089256 224.662942 
L 378.238017 255.357829 
L 384.386777 224.654154 
L 390.535537 244.914751 
L 396.684298 245.019841 
L 402.833058 224.376745 
L 408.981818 255.520379 
L 415.130579 275.535335 
L 421.279339 273.534564 
L 427.428099 275.608122 
L 433.57686 255.435506 
L 439.72562 305.644192 
L 445.87438 306.437976 
L 452.02314 318.603946 
L 458.171901 258.783571 
L 464.320661 306.491857 
L 470.469421 302.400876 
L 476.618182 298.894749 
L 482.766942 305.771172 
L 488.915702 304.734984 
L 495.064463 294.425416 
L 501.213223 308.046641 
L 507.361983 346.740836 
L 513.510744 338.82439 
L 519.659504 329.578679 
L 525.808264 324.15367 
L 531.957025 337.25529 
L 538.105785 326.858251 
L 544.254545 325.317487 
L 550.403306 343.670994 
L 556.552066 333.040392 
L 562.700826 326.566819 
L 568.849587 350.09219 
L 574.998347 338.633169 
L 581.147107 373.626648 
L 587.295868 366.784851 
L 593.444628 349.674949 
L 599.593388 345.561009 
L 605.742149 338.955685 
L 611.890909 374.293698 
L 618.039669 339.348973 
L 624.18843 339.109418 
L 630.33719 398.332504 
L 636.48595 350.66234 
L 642.634711 337.758434 
L 648.783471 376.61668 
L 654.932231 350.092557 
L 661.080992 355.374508 
L 667.229752 368.895316 
L 673.378512 387.80188 
L 679.527273 382.637908 
L 685.676033 368.947089 
L 691.824793 403.592646 
L 697.973554 341.527782 
L 704.122314 369.560645 
L 710.271074 372.482317 
L 716.419835 370.532822 
L 722.568595 359.572916 
L 728.717355 379.757311 
L 734.866116 388.538753 
L 741.014876 369.382641 
L 747.163636 385.806052 
" clip-path="url(#pba56ad4cf8)" style="fill: none; stroke: #004777; stroke-width: 1.5; stroke-linecap: square"/>
   </g>
   <g id="PolyCollection_2">
    <defs>
     <path id="mfba355e26e" d="M 138.436364 -425.040303 
L 138.436364 -299.140436 
L 144.585124 -299.090818 
L 150.733884 -299.187185 
L 156.882645 -299.142762 
L 163.031405 -299.068533 
L 169.180165 -299.181235 
L 175.328926 -299.27104 
L 181.477686 -299.144507 
L 187.626446 -299.267363 
L 193.775207 -298.880013 
L 199.923967 -299.198061 
L 206.072727 -299.134715 
L 212.221488 -299.097081 
L 218.370248 -299.084265 
L 224.519008 -298.875063 
L 230.667769 -278.037026 
L 236.816529 -299.133692 
L 242.965289 -298.884167 
L 249.11405 -299.074801 
L 255.26281 -299.125562 
L 261.41157 -299.306617 
L 267.560331 -299.020227 
L 273.709091 -299.318386 
L 279.857851 -299.061529 
L 286.006612 -299.180068 
L 292.155372 -299.07752 
L 298.304132 -298.82038 
L 304.452893 -293.916241 
L 310.601653 -293.768676 
L 316.750413 -299.034108 
L 322.899174 -293.96364 
L 329.047934 -290.690196 
L 335.196694 -293.729954 
L 341.345455 -298.662336 
L 347.494215 -271.66025 
L 353.642975 -293.745203 
L 359.791736 -299.018457 
L 365.940496 -293.802218 
L 372.089256 -293.467073 
L 378.238017 -261.826864 
L 384.386777 -278.014233 
L 390.535537 -280.584086 
L 396.684298 -291.795896 
L 402.833058 -293.735359 
L 408.981818 -262.099723 
L 415.130579 -233.926027 
L 421.279339 -253.537619 
L 427.428099 -280.849093 
L 433.57686 -254.409689 
L 439.72562 -204.248763 
L 445.87438 -211.597776 
L 452.02314 -224.5103 
L 458.171901 -263.677952 
L 464.320661 -196.528866 
L 470.469421 -243.62103 
L 476.618182 -207.362516 
L 482.766942 -232.960444 
L 488.915702 -215.023704 
L 495.064463 -219.610068 
L 501.213223 -220.48168 
L 507.361983 -161.014509 
L 513.510744 -158.676718 
L 519.659504 -172.005821 
L 525.808264 -190.346451 
L 531.957025 -215.676834 
L 538.105785 -189.433001 
L 544.254545 -203.679955 
L 550.403306 -186.991359 
L 556.552066 -179.931447 
L 562.700826 -213.143643 
L 568.849587 -173.435285 
L 574.998347 -179.270763 
L 581.147107 -161.392122 
L 587.295868 -174.310488 
L 593.444628 -189.370899 
L 599.593388 -181.018522 
L 605.742149 -206.680498 
L 611.890909 -152.27016 
L 618.039669 -188.14912 
L 624.18843 -172.469412 
L 630.33719 -152.513507 
L 636.48595 -195.379043 
L 642.634711 -188.605717 
L 648.783471 -161.137853 
L 654.932231 -178.048423 
L 661.080992 -169.608707 
L 667.229752 -176.219997 
L 673.378512 -158.275261 
L 679.527273 -176.410632 
L 685.676033 -160.990535 
L 691.824793 -150.907099 
L 697.973554 -179.831837 
L 704.122314 -150.096846 
L 710.271074 -164.855629 
L 716.419835 -162.732941 
L 722.568595 -178.079673 
L 728.717355 -166.192374 
L 734.866116 -136.264353 
L 741.014876 -166.816923 
L 747.163636 -174.330081 
L 747.163636 -206.057814 
L 747.163636 -206.057814 
L 741.014876 -246.417795 
L 734.866116 -238.658141 
L 728.717355 -226.293004 
L 722.568595 -254.774496 
L 716.419835 -248.201414 
L 710.271074 -242.179738 
L 704.122314 -262.781864 
L 697.973554 -289.1126 
L 691.824793 -193.907609 
L 685.676033 -253.115287 
L 679.527273 -210.313552 
L 673.378512 -218.120979 
L 667.229752 -237.98937 
L 661.080992 -271.642278 
L 654.932231 -273.766463 
L 648.783471 -237.628788 
L 642.634711 -287.877416 
L 636.48595 -255.296276 
L 630.33719 -202.821485 
L 624.18843 -301.311752 
L 618.039669 -285.152933 
L 611.890909 -251.142444 
L 605.742149 -267.408133 
L 599.593388 -279.859459 
L 593.444628 -263.279203 
L 587.295868 -244.11981 
L 581.147107 -243.354581 
L 574.998347 -295.462899 
L 568.849587 -278.380336 
L 562.700826 -285.722718 
L 556.552066 -305.98777 
L 550.403306 -277.666653 
L 544.254545 -297.685072 
L 538.105785 -308.850498 
L 531.957025 -261.812586 
L 525.808264 -313.34621 
L 519.659504 -320.83682 
L 513.510744 -315.674503 
L 507.361983 -297.503819 
L 501.213223 -315.425039 
L 495.064463 -343.5391 
L 488.915702 -327.506327 
L 482.766942 -307.497213 
L 476.618182 -346.847987 
L 470.469421 -303.577218 
L 464.320661 -342.487421 
L 458.171901 -370.754907 
L 452.02314 -290.281807 
L 445.87438 -327.526273 
L 439.72562 -336.462854 
L 433.57686 -386.719298 
L 427.428099 -319.934663 
L 421.279339 -351.393253 
L 415.130579 -367.003303 
L 408.981818 -378.859519 
L 402.833058 -409.511151 
L 396.684298 -370.164423 
L 390.535537 -381.586411 
L 384.386777 -424.677459 
L 378.238017 -379.457478 
L 372.089256 -409.207043 
L 365.940496 -409.245323 
L 359.791736 -424.554682 
L 353.642975 -409.596717 
L 347.494215 -431.640915 
L 341.345455 -424.651946 
L 335.196694 -409.385651 
L 329.047934 -392.008312 
L 322.899174 -409.536571 
L 316.750413 -424.791229 
L 310.601653 -409.563993 
L 304.452893 -409.565187 
L 298.304132 -424.776587 
L 292.155372 -424.858335 
L 286.006612 -424.797081 
L 279.857851 -424.860201 
L 273.709091 -424.825799 
L 267.560331 -424.852198 
L 261.41157 -424.790982 
L 255.26281 -424.830036 
L 249.11405 -424.768693 
L 242.965289 -424.761479 
L 236.816529 -424.87615 
L 230.667769 -425.215424 
L 224.519008 -424.886946 
L 218.370248 -424.940344 
L 212.221488 -424.909828 
L 206.072727 -424.982834 
L 199.923967 -424.900079 
L 193.775207 -424.981585 
L 187.626446 -424.888449 
L 181.477686 -424.959416 
L 175.328926 -424.938863 
L 169.180165 -424.940369 
L 163.031405 -425.040342 
L 156.882645 -424.969186 
L 150.733884 -424.859516 
L 144.585124 -425.061436 
L 138.436364 -425.040303 
z
" style="stroke: #004777; stroke-opacity: 0.2"/>
    </defs>
    <g clip-path="url(#pba56ad4cf8)">
     <use xlink:href="#mfba355e26e" x="0" y="576" style="fill: #004777; fill-opacity: 0.2; stroke: #004777; stroke-opacity: 0.2"/>
    </g>
   </g>
   <g id="line2d_3">
    <path d="M 138.436364 163.475591 
L 144.585124 163.402178 
L 150.733884 163.48814 
L 156.882645 163.476966 
L 163.031405 163.434468 
L 169.180165 163.455567 
L 175.328926 163.455469 
L 181.477686 163.401349 
L 187.626446 163.396977 
L 193.775207 163.382949 
L 199.923967 163.466153 
L 206.072727 163.469131 
L 212.221488 163.413795 
L 218.370248 163.463878 
L 224.519008 163.431097 
L 230.667769 163.477511 
L 236.816529 163.469092 
L 242.965289 163.194809 
L 249.11405 163.360687 
L 255.26281 163.438223 
L 261.41157 163.08548 
L 267.560331 163.463172 
L 273.709091 163.140456 
L 279.857851 163.484782 
L 286.006612 163.544237 
L 292.155372 163.540612 
L 298.304132 163.305848 
L 304.452893 163.34407 
L 310.601653 163.291496 
L 316.750413 163.450562 
L 322.899174 163.137529 
L 329.047934 163.199746 
L 335.196694 163.301717 
L 341.345455 163.232967 
L 347.494215 163.407321 
L 353.642975 163.461736 
L 359.791736 163.395361 
L 365.940496 163.491173 
L 372.089256 163.533743 
L 378.238017 163.450238 
L 384.386777 163.412129 
L 390.535537 163.689337 
L 396.684298 163.576811 
L 402.833058 163.462089 
L 408.981818 164.028309 
L 415.130579 163.697919 
L 421.279339 163.506502 
L 427.428099 163.397162 
L 433.57686 173.177682 
L 439.72562 163.808391 
L 445.87438 163.548861 
L 452.02314 164.13656 
L 458.171901 173.759323 
L 464.320661 163.738115 
L 470.469421 174.082617 
L 476.618182 164.671274 
L 482.766942 172.55762 
L 488.915702 174.50206 
L 495.064463 182.186608 
L 501.213223 203.660329 
L 507.361983 184.607033 
L 513.510744 173.914434 
L 519.659504 193.38905 
L 525.808264 184.589322 
L 531.957025 214.995855 
L 538.105785 203.606629 
L 544.254545 173.816889 
L 550.403306 213.418953 
L 556.552066 194.46763 
L 562.700826 193.371128 
L 568.849587 207.258686 
L 574.998347 194.636256 
L 581.147107 223.792197 
L 587.295868 203.860316 
L 593.444628 224.658958 
L 599.593388 254.816143 
L 605.742149 224.370759 
L 611.890909 243.042859 
L 618.039669 204.254539 
L 624.18843 214.4426 
L 630.33719 255.863534 
L 636.48595 223.45303 
L 642.634711 264.241565 
L 648.783471 251.507213 
L 654.932231 265.214754 
L 661.080992 224.40468 
L 667.229752 249.86975 
L 673.378512 263.8526 
L 679.527273 273.743747 
L 685.676033 240.792556 
L 691.824793 277.747626 
L 697.973554 305.236772 
L 704.122314 271.918388 
L 710.271074 304.30906 
L 716.419835 329.802032 
L 722.568595 306.282215 
L 728.717355 304.687896 
L 734.866116 294.705626 
L 741.014876 287.136562 
L 747.163636 323.1256 
" clip-path="url(#pba56ad4cf8)" style="fill: none; stroke: #b72b34; stroke-width: 1.5; stroke-linecap: square"/>
   </g>
   <g id="PolyCollection_3">
    <defs>
     <path id="m768f270ff9" d="M 138.436364 -414.578985 
L 138.436364 -410.469833 
L 144.585124 -410.65059 
L 150.733884 -410.514437 
L 156.882645 -410.516954 
L 163.031405 -410.565389 
L 169.180165 -410.57234 
L 175.328926 -410.573038 
L 181.477686 -410.654432 
L 187.626446 -410.70154 
L 193.775207 -410.717387 
L 199.923967 -410.55695 
L 206.072727 -410.576553 
L 212.221488 -410.695102 
L 218.370248 -410.624752 
L 224.519008 -410.699351 
L 230.667769 -410.630704 
L 236.816529 -410.65334 
L 242.965289 -411.215597 
L 249.11405 -410.882267 
L 255.26281 -410.748529 
L 261.41157 -411.326465 
L 267.560331 -410.77849 
L 273.709091 -411.363489 
L 279.857851 -410.647052 
L 286.006612 -410.748001 
L 292.155372 -410.541076 
L 298.304132 -411.135419 
L 304.452893 -411.052493 
L 310.601653 -411.150007 
L 316.750413 -410.952197 
L 322.899174 -411.475457 
L 329.047934 -411.386801 
L 335.196694 -411.299732 
L 341.345455 -411.410693 
L 347.494215 -411.073305 
L 353.642975 -410.998041 
L 359.791736 -411.099823 
L 365.940496 -411.14857 
L 372.089256 -410.788523 
L 378.238017 -411.043502 
L 384.386777 -411.158384 
L 390.535537 -410.727725 
L 396.684298 -410.834338 
L 402.833058 -411.011699 
L 408.981818 -410.64205 
L 415.130579 -410.9223 
L 421.279339 -411.133571 
L 427.428099 -411.247337 
L 433.57686 -383.961926 
L 439.72562 -410.715423 
L 445.87438 -411.090532 
L 452.02314 -409.993543 
L 458.171901 -383.504168 
L 464.320661 -410.953714 
L 470.469421 -380.759315 
L 476.618182 -409.444143 
L 482.766942 -386.724568 
L 488.915702 -381.053947 
L 495.064463 -371.893338 
L 501.213223 -336.318168 
L 507.361983 -367.75076 
L 513.510744 -382.692742 
L 519.659504 -359.340599 
L 525.808264 -365.534382 
L 531.957025 -316.998085 
L 538.105785 -353.450217 
L 544.254545 -384.133832 
L 550.403306 -318.734817 
L 556.552066 -357.544147 
L 562.700826 -344.766254 
L 568.849587 -335.765075 
L 574.998347 -342.807652 
L 581.147107 -335.622763 
L 587.295868 -353.037468 
L 593.444628 -292.699952 
L 599.593388 -263.037319 
L 605.742149 -293.457238 
L 611.890909 -282.689555 
L 618.039669 -337.004054 
L 624.18843 -329.699732 
L 630.33719 -253.217064 
L 636.48595 -307.766921 
L 642.634711 -281.996533 
L 648.783471 -291.48803 
L 654.932231 -265.633416 
L 661.080992 -332.941931 
L 667.229752 -251.641846 
L 673.378512 -281.451785 
L 679.527273 -220.033426 
L 685.676033 -300.720515 
L 691.824793 -239.515709 
L 697.973554 -238.454267 
L 704.122314 -232.899731 
L 710.271074 -226.393331 
L 716.419835 -176.939676 
L 722.568595 -183.325021 
L 728.717355 -231.403774 
L 734.866116 -223.763432 
L 741.014876 -262.716698 
L 747.163636 -195.488653 
L 747.163636 -310.260147 
L 747.163636 -310.260147 
L 741.014876 -315.010179 
L 734.866116 -338.825316 
L 728.717355 -311.220434 
L 722.568595 -356.110548 
L 716.419835 -315.45626 
L 710.271074 -316.988548 
L 704.122314 -375.263493 
L 697.973554 -303.072189 
L 691.824793 -356.989039 
L 685.676033 -369.694374 
L 679.527273 -384.479081 
L 673.378512 -342.843016 
L 667.229752 -400.618654 
L 661.080992 -370.248709 
L 654.932231 -355.937077 
L 648.783471 -357.497543 
L 642.634711 -341.520337 
L 636.48595 -397.327019 
L 630.33719 -387.055868 
L 624.18843 -393.415069 
L 618.039669 -406.486868 
L 611.890909 -383.224727 
L 605.742149 -409.801243 
L 599.593388 -379.330396 
L 593.444628 -409.982132 
L 587.295868 -391.2419 
L 581.147107 -368.792843 
L 574.998347 -419.919836 
L 568.849587 -401.717554 
L 562.700826 -420.49149 
L 556.552066 -405.520593 
L 550.403306 -406.427277 
L 544.254545 -420.232389 
L 538.105785 -391.336524 
L 531.957025 -405.010206 
L 525.808264 -417.286974 
L 519.659504 -405.881302 
L 513.510744 -421.47839 
L 507.361983 -415.035175 
L 501.213223 -408.361174 
L 495.064463 -415.733445 
L 488.915702 -421.941934 
L 482.766942 -420.160192 
L 476.618182 -413.213308 
L 470.469421 -423.075451 
L 464.320661 -413.570056 
L 458.171901 -420.977186 
L 452.02314 -413.733338 
L 445.87438 -413.811746 
L 439.72562 -413.667794 
L 433.57686 -421.682709 
L 427.428099 -413.958339 
L 421.279339 -413.853426 
L 415.130579 -413.681863 
L 408.981818 -413.301333 
L 402.833058 -414.064123 
L 396.684298 -414.012041 
L 390.535537 -413.893601 
L 384.386777 -414.017357 
L 378.238017 -414.056021 
L 372.089256 -414.143992 
L 365.940496 -413.869085 
L 359.791736 -414.109456 
L 353.642975 -414.078487 
L 347.494215 -414.112052 
L 341.345455 -414.123374 
L 335.196694 -414.096833 
L 329.047934 -414.213708 
L 322.899174 -414.249485 
L 316.750413 -414.146678 
L 310.601653 -414.267001 
L 304.452893 -414.259366 
L 298.304132 -414.252885 
L 292.155372 -414.377699 
L 286.006612 -414.163524 
L 279.857851 -414.383383 
L 273.709091 -414.3556 
L 267.560331 -414.295166 
L 261.41157 -414.502575 
L 255.26281 -414.375026 
L 249.11405 -414.39636 
L 242.965289 -414.394785 
L 236.816529 -414.408477 
L 230.667769 -414.414275 
L 224.519008 -414.438454 
L 218.370248 -414.447491 
L 212.221488 -414.477308 
L 206.072727 -414.485185 
L 199.923967 -414.510743 
L 193.775207 -414.516714 
L 187.626446 -414.504506 
L 181.477686 -414.542871 
L 175.328926 -414.516024 
L 169.180165 -414.516525 
L 163.031405 -414.565676 
L 156.882645 -414.529113 
L 150.733884 -414.509283 
L 144.585124 -414.545054 
L 138.436364 -414.578985 
z
" style="stroke: #b72b34; stroke-opacity: 0.2"/>
    </defs>
    <g clip-path="url(#pba56ad4cf8)">
     <use xlink:href="#m768f270ff9" x="0" y="576" style="fill: #b72b34; fill-opacity: 0.2; stroke: #b72b34; stroke-opacity: 0.2"/>
    </g>
   </g>
   <g id="matplotlib.axis_1">
    <g id="xtick_1">
     <g id="line2d_4">
      <path d="M 138.436364 512.64 
L 138.436364 69.12 
" clip-path="url(#pba56ad4cf8)" style="fill: none; stroke: #b0b0b0; stroke-width: 0.8; stroke-linecap: square"/>
     </g>
     <g id="line2d_5">
      <defs>
       <path id="mb26b59b8bb" d="M 0 0 
L 0 3.5 
" style="stroke: #000000; stroke-width: 0.8"/>
      </defs>
      <g>
       <use xlink:href="#mb26b59b8bb" x="138.436364" y="512.64" style="stroke: #000000; stroke-width: 0.8"/>
      </g>
     </g>
     <g id="text_1">
      <!-- 0.00 -->
      <g transform="translate(127.431989 528.52375) scale(0.12 -0.12)">
       <defs>
        <path id="SegoeUIThis-30" d="M 1681 -75 
Q 1016 -75 642 497 
Q 269 1069 269 2150 
Q 269 3338 658 3947 
Q 1047 4556 1781 4556 
Q 3188 4556 3188 2259 
Q 3188 1122 2791 523 
Q 2394 -75 1681 -75 
z
M 1753 4122 
Q 794 4122 794 2175 
Q 794 356 1734 356 
Q 2663 356 2663 2206 
Q 2663 4122 1753 4122 
z
" transform="scale(0.015625)"/>
        <path id="SegoeUIThis-2e" d="M 697 -69 
Q 553 -69 451 34 
Q 350 138 350 281 
Q 350 425 451 529 
Q 553 634 697 634 
Q 844 634 947 529 
Q 1050 425 1050 281 
Q 1050 138 947 34 
Q 844 -69 697 -69 
z
" transform="scale(0.015625)"/>
       </defs>
       <use xlink:href="#SegoeUIThis-30"/>
       <use xlink:href="#SegoeUIThis-2e" x="53.90625"/>
       <use xlink:href="#SegoeUIThis-30" x="75.585938"/>
       <use xlink:href="#SegoeUIThis-30" x="129.492188"/>
      </g>
     </g>
    </g>
    <g id="xtick_2">
     <g id="line2d_6">
      <path d="M 214.527273 512.64 
L 214.527273 69.12 
" clip-path="url(#pba56ad4cf8)" style="fill: none; stroke: #b0b0b0; stroke-width: 0.8; stroke-linecap: square"/>
     </g>
     <g id="line2d_7">
      <g>
       <use xlink:href="#mb26b59b8bb" x="214.527273" y="512.64" style="stroke: #000000; stroke-width: 0.8"/>
      </g>
     </g>
     <g id="text_2">
      <!-- 0.25 -->
      <g transform="translate(203.522898 528.52375) scale(0.12 -0.12)">
       <defs>
        <path id="SegoeUIThis-32" d="M 3000 0 
L 300 0 
L 300 456 
L 1606 1766 
Q 2106 2266 2320 2598 
Q 2534 2931 2534 3309 
Q 2534 3697 2312 3909 
Q 2091 4122 1681 4122 
Q 1081 4122 531 3609 
L 531 4147 
Q 1056 4556 1753 4556 
Q 2353 4556 2697 4231 
Q 3041 3906 3041 3359 
Q 3041 2928 2803 2517 
Q 2566 2106 1950 1497 
L 916 475 
L 916 463 
L 3000 463 
L 3000 0 
z
" transform="scale(0.015625)"/>
        <path id="SegoeUIThis-35" d="M 513 109 
L 513 653 
Q 972 356 1447 356 
Q 1922 356 2212 625 
Q 2503 894 2503 1338 
Q 2503 1778 2206 2025 
Q 1909 2272 1356 2272 
Q 1169 2272 653 2234 
L 653 4481 
L 2822 4481 
L 2822 4019 
L 1138 4019 
L 1138 2706 
Q 1344 2719 1519 2719 
Q 2238 2719 2631 2358 
Q 3025 1997 3025 1369 
Q 3025 719 2601 322 
Q 2178 -75 1441 -75 
Q 819 -75 513 109 
z
" transform="scale(0.015625)"/>
       </defs>
       <use xlink:href="#SegoeUIThis-30"/>
       <use xlink:href="#SegoeUIThis-2e" x="53.90625"/>
       <use xlink:href="#SegoeUIThis-32" x="75.585938"/>
       <use xlink:href="#SegoeUIThis-35" x="129.492188"/>
      </g>
     </g>
    </g>
    <g id="xtick_3">
     <g id="line2d_8">
      <path d="M 290.618182 512.64 
L 290.618182 69.12 
" clip-path="url(#pba56ad4cf8)" style="fill: none; stroke: #b0b0b0; stroke-width: 0.8; stroke-linecap: square"/>
     </g>
     <g id="line2d_9">
      <g>
       <use xlink:href="#mb26b59b8bb" x="290.618182" y="512.64" style="stroke: #000000; stroke-width: 0.8"/>
      </g>
     </g>
     <g id="text_3">
      <!-- 0.50 -->
      <g transform="translate(279.613807 528.52375) scale(0.12 -0.12)">
       <use xlink:href="#SegoeUIThis-30"/>
       <use xlink:href="#SegoeUIThis-2e" x="53.90625"/>
       <use xlink:href="#SegoeUIThis-35" x="75.585938"/>
       <use xlink:href="#SegoeUIThis-30" x="129.492188"/>
      </g>
     </g>
    </g>
    <g id="xtick_4">
     <g id="line2d_10">
      <path d="M 366.709091 512.64 
L 366.709091 69.12 
" clip-path="url(#pba56ad4cf8)" style="fill: none; stroke: #b0b0b0; stroke-width: 0.8; stroke-linecap: square"/>
     </g>
     <g id="line2d_11">
      <g>
       <use xlink:href="#mb26b59b8bb" x="366.709091" y="512.64" style="stroke: #000000; stroke-width: 0.8"/>
      </g>
     </g>
     <g id="text_4">
      <!-- 0.75 -->
      <g transform="translate(355.704716 528.52375) scale(0.12 -0.12)">
       <defs>
        <path id="SegoeUIThis-37" d="M 3156 4319 
L 1381 0 
L 850 0 
L 2528 4019 
L 269 4019 
L 269 4481 
L 3156 4481 
L 3156 4319 
z
" transform="scale(0.015625)"/>
       </defs>
       <use xlink:href="#SegoeUIThis-30"/>
       <use xlink:href="#SegoeUIThis-2e" x="53.90625"/>
       <use xlink:href="#SegoeUIThis-37" x="75.585938"/>
       <use xlink:href="#SegoeUIThis-35" x="129.492188"/>
      </g>
     </g>
    </g>
    <g id="xtick_5">
     <g id="line2d_12">
      <path d="M 442.8 512.64 
L 442.8 69.12 
" clip-path="url(#pba56ad4cf8)" style="fill: none; stroke: #b0b0b0; stroke-width: 0.8; stroke-linecap: square"/>
     </g>
     <g id="line2d_13">
      <g>
       <use xlink:href="#mb26b59b8bb" x="442.8" y="512.64" style="stroke: #000000; stroke-width: 0.8"/>
      </g>
     </g>
     <g id="text_5">
      <!-- 1.00 -->
      <g transform="translate(431.795625 528.52375) scale(0.12 -0.12)">
       <defs>
        <path id="SegoeUIThis-31" d="M 3084 0 
L 550 0 
L 550 450 
L 1563 450 
L 1563 3931 
L 525 3622 
L 525 4109 
L 2075 4581 
L 2075 450 
L 3084 450 
L 3084 0 
z
" transform="scale(0.015625)"/>
       </defs>
       <use xlink:href="#SegoeUIThis-31"/>
       <use xlink:href="#SegoeUIThis-2e" x="53.90625"/>
       <use xlink:href="#SegoeUIThis-30" x="75.585938"/>
       <use xlink:href="#SegoeUIThis-30" x="129.492188"/>
      </g>
     </g>
    </g>
    <g id="xtick_6">
     <g id="line2d_14">
      <path d="M 518.890909 512.64 
L 518.890909 69.12 
" clip-path="url(#pba56ad4cf8)" style="fill: none; stroke: #b0b0b0; stroke-width: 0.8; stroke-linecap: square"/>
     </g>
     <g id="line2d_15">
      <g>
       <use xlink:href="#mb26b59b8bb" x="518.890909" y="512.64" style="stroke: #000000; stroke-width: 0.8"/>
      </g>
     </g>
     <g id="text_6">
      <!-- 1.25 -->
      <g transform="translate(507.886534 528.52375) scale(0.12 -0.12)">
       <use xlink:href="#SegoeUIThis-31"/>
       <use xlink:href="#SegoeUIThis-2e" x="53.90625"/>
       <use xlink:href="#SegoeUIThis-32" x="75.585938"/>
       <use xlink:href="#SegoeUIThis-35" x="129.492188"/>
      </g>
     </g>
    </g>
    <g id="xtick_7">
     <g id="line2d_16">
      <path d="M 594.981818 512.64 
L 594.981818 69.12 
" clip-path="url(#pba56ad4cf8)" style="fill: none; stroke: #b0b0b0; stroke-width: 0.8; stroke-linecap: square"/>
     </g>
     <g id="line2d_17">
      <g>
       <use xlink:href="#mb26b59b8bb" x="594.981818" y="512.64" style="stroke: #000000; stroke-width: 0.8"/>
      </g>
     </g>
     <g id="text_7">
      <!-- 1.50 -->
      <g transform="translate(583.977443 528.52375) scale(0.12 -0.12)">
       <use xlink:href="#SegoeUIThis-31"/>
       <use xlink:href="#SegoeUIThis-2e" x="53.90625"/>
       <use xlink:href="#SegoeUIThis-35" x="75.585938"/>
       <use xlink:href="#SegoeUIThis-30" x="129.492188"/>
      </g>
     </g>
    </g>
    <g id="xtick_8">
     <g id="line2d_18">
      <path d="M 671.072727 512.64 
L 671.072727 69.12 
" clip-path="url(#pba56ad4cf8)" style="fill: none; stroke: #b0b0b0; stroke-width: 0.8; stroke-linecap: square"/>
     </g>
     <g id="line2d_19">
      <g>
       <use xlink:href="#mb26b59b8bb" x="671.072727" y="512.64" style="stroke: #000000; stroke-width: 0.8"/>
      </g>
     </g>
     <g id="text_8">
      <!-- 1.75 -->
      <g transform="translate(660.068352 528.52375) scale(0.12 -0.12)">
       <use xlink:href="#SegoeUIThis-31"/>
       <use xlink:href="#SegoeUIThis-2e" x="53.90625"/>
       <use xlink:href="#SegoeUIThis-37" x="75.585938"/>
       <use xlink:href="#SegoeUIThis-35" x="129.492188"/>
      </g>
     </g>
    </g>
    <g id="xtick_9">
     <g id="line2d_20">
      <path d="M 747.163636 512.64 
L 747.163636 69.12 
" clip-path="url(#pba56ad4cf8)" style="fill: none; stroke: #b0b0b0; stroke-width: 0.8; stroke-linecap: square"/>
     </g>
     <g id="line2d_21">
      <g>
       <use xlink:href="#mb26b59b8bb" x="747.163636" y="512.64" style="stroke: #000000; stroke-width: 0.8"/>
      </g>
     </g>
     <g id="text_9">
      <!-- 2.00 -->
      <g transform="translate(736.159261 528.52375) scale(0.12 -0.12)">
       <use xlink:href="#SegoeUIThis-32"/>
       <use xlink:href="#SegoeUIThis-2e" x="53.90625"/>
       <use xlink:href="#SegoeUIThis-30" x="75.585938"/>
       <use xlink:href="#SegoeUIThis-30" x="129.492188"/>
      </g>
     </g>
    </g>
    <g id="text_10">
     <!-- Noise standard deviation -->
     <g transform="translate(343.634063 548.609375) scale(0.18 -0.18)">
      <defs>
       <path id="SegoeUIThis-4e" d="M 4200 0 
L 3556 0 
L 1250 3572 
Q 1163 3706 1106 3853 
L 1088 3853 
Q 1113 3709 1113 3238 
L 1113 0 
L 588 0 
L 588 4481 
L 1269 4481 
L 3513 966 
Q 3653 747 3694 666 
L 3706 666 
Q 3675 859 3675 1325 
L 3675 4481 
L 4200 4481 
L 4200 0 
z
" transform="scale(0.015625)"/>
       <path id="SegoeUIThis-6f" d="M 1856 -75 
Q 1147 -75 723 373 
Q 300 822 300 1563 
Q 300 2369 740 2822 
Q 1181 3275 1931 3275 
Q 2647 3275 3048 2834 
Q 3450 2394 3450 1613 
Q 3450 847 3017 386 
Q 2584 -75 1856 -75 
z
M 1894 2844 
Q 1400 2844 1112 2508 
Q 825 2172 825 1581 
Q 825 1013 1115 684 
Q 1406 356 1894 356 
Q 2391 356 2658 678 
Q 2925 1000 2925 1594 
Q 2925 2194 2658 2519 
Q 2391 2844 1894 2844 
z
" transform="scale(0.015625)"/>
       <path id="SegoeUIThis-69" d="M 781 4013 
Q 644 4013 547 4106 
Q 450 4200 450 4344 
Q 450 4488 547 4583 
Q 644 4678 781 4678 
Q 922 4678 1020 4583 
Q 1119 4488 1119 4344 
Q 1119 4206 1020 4109 
Q 922 4013 781 4013 
z
M 1031 0 
L 519 0 
L 519 3200 
L 1031 3200 
L 1031 0 
z
" transform="scale(0.015625)"/>
       <path id="SegoeUIThis-73" d="M 325 116 
L 325 666 
Q 744 356 1247 356 
Q 1922 356 1922 806 
Q 1922 934 1864 1023 
Q 1806 1113 1707 1181 
Q 1609 1250 1476 1304 
Q 1344 1359 1191 1419 
Q 978 1503 817 1589 
Q 656 1675 548 1783 
Q 441 1891 386 2028 
Q 331 2166 331 2350 
Q 331 2575 434 2748 
Q 538 2922 709 3039 
Q 881 3156 1101 3215 
Q 1322 3275 1556 3275 
Q 1972 3275 2300 3131 
L 2300 2613 
Q 1947 2844 1488 2844 
Q 1344 2844 1228 2811 
Q 1113 2778 1030 2718 
Q 947 2659 901 2576 
Q 856 2494 856 2394 
Q 856 2269 901 2184 
Q 947 2100 1034 2034 
Q 1122 1969 1247 1916 
Q 1372 1863 1531 1800 
Q 1744 1719 1912 1633 
Q 2081 1547 2200 1439 
Q 2319 1331 2383 1190 
Q 2447 1050 2447 856 
Q 2447 619 2342 444 
Q 2238 269 2063 153 
Q 1888 38 1659 -18 
Q 1431 -75 1181 -75 
Q 688 -75 325 116 
z
" transform="scale(0.015625)"/>
       <path id="SegoeUIThis-65" d="M 3091 1472 
L 831 1472 
Q 844 938 1119 647 
Q 1394 356 1875 356 
Q 2416 356 2869 713 
L 2869 231 
Q 2447 -75 1753 -75 
Q 1075 -75 687 361 
Q 300 797 300 1588 
Q 300 2334 723 2804 
Q 1147 3275 1775 3275 
Q 2403 3275 2747 2869 
Q 3091 2463 3091 1741 
L 3091 1472 
z
M 2566 1906 
Q 2563 2350 2352 2597 
Q 2141 2844 1766 2844 
Q 1403 2844 1150 2584 
Q 897 2325 838 1906 
L 2566 1906 
z
" transform="scale(0.015625)"/>
       <path id="SegoeUIThis-20" transform="scale(0.015625)"/>
       <path id="SegoeUIThis-74" d="M 2003 31 
Q 1822 -69 1525 -69 
Q 684 -69 684 869 
L 684 2763 
L 134 2763 
L 134 3200 
L 684 3200 
L 684 3981 
L 1197 4147 
L 1197 3200 
L 2003 3200 
L 2003 2763 
L 1197 2763 
L 1197 959 
Q 1197 638 1306 500 
Q 1416 363 1669 363 
Q 1863 363 2003 469 
L 2003 31 
z
" transform="scale(0.015625)"/>
       <path id="SegoeUIThis-61" d="M 2809 0 
L 2297 0 
L 2297 500 
L 2284 500 
Q 1950 -75 1300 -75 
Q 822 -75 551 178 
Q 281 431 281 850 
Q 281 1747 1338 1894 
L 2297 2028 
Q 2297 2844 1638 2844 
Q 1059 2844 594 2450 
L 594 2975 
Q 1066 3275 1681 3275 
Q 2809 3275 2809 2081 
L 2809 0 
z
M 2297 1619 
L 1525 1513 
Q 1169 1463 987 1336 
Q 806 1209 806 888 
Q 806 653 973 504 
Q 1141 356 1419 356 
Q 1800 356 2048 623 
Q 2297 891 2297 1300 
L 2297 1619 
z
" transform="scale(0.015625)"/>
       <path id="SegoeUIThis-6e" d="M 3175 0 
L 2663 0 
L 2663 1825 
Q 2663 2844 1919 2844 
Q 1534 2844 1282 2555 
Q 1031 2266 1031 1825 
L 1031 0 
L 519 0 
L 519 3200 
L 1031 3200 
L 1031 2669 
L 1044 2669 
Q 1406 3275 2094 3275 
Q 2619 3275 2897 2936 
Q 3175 2597 3175 1956 
L 3175 0 
z
" transform="scale(0.015625)"/>
       <path id="SegoeUIThis-64" d="M 3250 0 
L 2738 0 
L 2738 544 
L 2725 544 
Q 2369 -75 1625 -75 
Q 1022 -75 661 354 
Q 300 784 300 1525 
Q 300 2319 700 2797 
Q 1100 3275 1766 3275 
Q 2425 3275 2725 2756 
L 2738 2756 
L 2738 4738 
L 3250 4738 
L 3250 0 
z
M 2738 1447 
L 2738 1919 
Q 2738 2306 2481 2575 
Q 2225 2844 1831 2844 
Q 1363 2844 1094 2500 
Q 825 2156 825 1550 
Q 825 997 1083 676 
Q 1341 356 1775 356 
Q 2203 356 2470 665 
Q 2738 975 2738 1447 
z
" transform="scale(0.015625)"/>
       <path id="SegoeUIThis-72" d="M 2188 2681 
Q 2053 2784 1800 2784 
Q 1472 2784 1251 2475 
Q 1031 2166 1031 1631 
L 1031 0 
L 519 0 
L 519 3200 
L 1031 3200 
L 1031 2541 
L 1044 2541 
Q 1153 2878 1378 3067 
Q 1603 3256 1881 3256 
Q 2081 3256 2188 3213 
L 2188 2681 
z
" transform="scale(0.015625)"/>
       <path id="SegoeUIThis-76" d="M 3034 3200 
L 1759 0 
L 1256 0 
L 44 3200 
L 606 3200 
L 1419 875 
Q 1509 619 1531 428 
L 1544 428 
Q 1575 669 1644 863 
L 2494 3200 
L 3034 3200 
z
" transform="scale(0.015625)"/>
      </defs>
      <use xlink:href="#SegoeUIThis-4e"/>
      <use xlink:href="#SegoeUIThis-6f" x="74.804688"/>
      <use xlink:href="#SegoeUIThis-69" x="133.398438"/>
      <use xlink:href="#SegoeUIThis-73" x="157.617188"/>
      <use xlink:href="#SegoeUIThis-65" x="200.048828"/>
      <use xlink:href="#SegoeUIThis-20" x="252.34375"/>
      <use xlink:href="#SegoeUIThis-73" x="279.736328"/>
      <use xlink:href="#SegoeUIThis-74" x="322.167969"/>
      <use xlink:href="#SegoeUIThis-61" x="356.054688"/>
      <use xlink:href="#SegoeUIThis-6e" x="406.933594"/>
      <use xlink:href="#SegoeUIThis-64" x="463.525391"/>
      <use xlink:href="#SegoeUIThis-61" x="522.412109"/>
      <use xlink:href="#SegoeUIThis-72" x="573.291016"/>
      <use xlink:href="#SegoeUIThis-64" x="608.056641"/>
      <use xlink:href="#SegoeUIThis-20" x="666.943359"/>
      <use xlink:href="#SegoeUIThis-64" x="694.335938"/>
      <use xlink:href="#SegoeUIThis-65" x="753.222656"/>
      <use xlink:href="#SegoeUIThis-76" x="805.517578"/>
      <use xlink:href="#SegoeUIThis-69" x="853.417969"/>
      <use xlink:href="#SegoeUIThis-61" x="877.636719"/>
      <use xlink:href="#SegoeUIThis-74" x="928.515625"/>
      <use xlink:href="#SegoeUIThis-69" x="962.402344"/>
      <use xlink:href="#SegoeUIThis-6f" x="986.621094"/>
      <use xlink:href="#SegoeUIThis-6e" x="1045.214844"/>
     </g>
    </g>
    <g id="text_11">
     <!-- 1e−6 -->
     <g transform="translate(736.467188 547.609375) scale(0.18 -0.18)">
      <defs>
       <path id="SegoeUIThis-2212" d="M 3663 1656 
L 725 1656 
L 725 2075 
L 3663 2075 
L 3663 1656 
z
" transform="scale(0.015625)"/>
       <path id="SegoeUIThis-36" d="M 2919 4428 
L 2919 3944 
Q 2572 4122 2188 4122 
Q 1591 4122 1233 3590 
Q 875 3059 875 2169 
L 888 2169 
Q 1200 2803 1913 2803 
Q 2500 2803 2847 2426 
Q 3194 2050 3194 1419 
Q 3194 759 2797 342 
Q 2400 -75 1788 -75 
Q 1113 -75 728 462 
Q 344 1000 344 1972 
Q 344 3150 847 3853 
Q 1350 4556 2175 4556 
Q 2644 4556 2919 4428 
z
M 1800 2369 
Q 1403 2369 1156 2100 
Q 909 1831 909 1466 
Q 909 1006 1154 681 
Q 1400 356 1806 356 
Q 2194 356 2431 639 
Q 2669 922 2669 1356 
Q 2669 1831 2441 2100 
Q 2213 2369 1800 2369 
z
" transform="scale(0.015625)"/>
      </defs>
      <use xlink:href="#SegoeUIThis-31"/>
      <use xlink:href="#SegoeUIThis-65" x="53.90625"/>
      <use xlink:href="#SegoeUIThis-2212" x="106.201172"/>
      <use xlink:href="#SegoeUIThis-36" x="174.609375"/>
     </g>
    </g>
   </g>
   <g id="matplotlib.axis_2">
    <g id="ytick_1">
     <g id="line2d_22">
      <path d="M 108 435.955458 
L 777.6 435.955458 
" clip-path="url(#pba56ad4cf8)" style="fill: none; stroke: #b0b0b0; stroke-width: 0.8; stroke-linecap: square"/>
     </g>
     <g id="line2d_23">
      <defs>
       <path id="mf3947f048c" d="M 0 0 
L -3.5 0 
" style="stroke: #000000; stroke-width: 0.8"/>
      </defs>
      <g>
       <use xlink:href="#mf3947f048c" x="108" y="435.955458" style="stroke: #000000; stroke-width: 0.8"/>
      </g>
     </g>
     <g id="text_12">
      <!-- −800 -->
      <g transform="translate(73.385 440.397333) scale(0.12 -0.12)">
       <defs>
        <path id="SegoeUIThis-38" d="M 1281 2350 
L 1281 2363 
Q 475 2738 475 3450 
Q 475 3934 844 4245 
Q 1213 4556 1794 4556 
Q 2319 4556 2656 4265 
Q 2994 3975 2994 3519 
Q 2994 2775 2163 2363 
L 2163 2350 
Q 3144 2000 3144 1138 
Q 3144 581 2744 253 
Q 2344 -75 1631 -75 
Q 1056 -75 684 250 
Q 313 575 313 1094 
Q 313 1956 1281 2350 
z
M 2469 3456 
Q 2469 3766 2275 3944 
Q 2081 4122 1747 4122 
Q 1434 4122 1217 3936 
Q 1000 3750 1000 3463 
Q 1000 2878 1728 2581 
Q 2469 2888 2469 3456 
z
M 1694 2106 
Q 838 1766 838 1119 
Q 838 784 1086 570 
Q 1334 356 1741 356 
Q 2128 356 2373 567 
Q 2619 778 2619 1100 
Q 2619 1775 1694 2106 
z
" transform="scale(0.015625)"/>
       </defs>
       <use xlink:href="#SegoeUIThis-2212"/>
       <use xlink:href="#SegoeUIThis-38" x="68.408203"/>
       <use xlink:href="#SegoeUIThis-30" x="122.314453"/>
       <use xlink:href="#SegoeUIThis-30" x="176.220703"/>
      </g>
     </g>
    </g>
    <g id="ytick_2">
     <g id="line2d_24">
      <path d="M 108 355.457532 
L 777.6 355.457532 
" clip-path="url(#pba56ad4cf8)" style="fill: none; stroke: #b0b0b0; stroke-width: 0.8; stroke-linecap: square"/>
     </g>
     <g id="line2d_25">
      <g>
       <use xlink:href="#mf3947f048c" x="108" y="355.457532" style="stroke: #000000; stroke-width: 0.8"/>
      </g>
     </g>
     <g id="text_13">
      <!-- −600 -->
      <g transform="translate(73.385 359.899407) scale(0.12 -0.12)">
       <use xlink:href="#SegoeUIThis-2212"/>
       <use xlink:href="#SegoeUIThis-36" x="68.408203"/>
       <use xlink:href="#SegoeUIThis-30" x="122.314453"/>
       <use xlink:href="#SegoeUIThis-30" x="176.220703"/>
      </g>
     </g>
    </g>
    <g id="ytick_3">
     <g id="line2d_26">
      <path d="M 108 274.959605 
L 777.6 274.959605 
" clip-path="url(#pba56ad4cf8)" style="fill: none; stroke: #b0b0b0; stroke-width: 0.8; stroke-linecap: square"/>
     </g>
     <g id="line2d_27">
      <g>
       <use xlink:href="#mf3947f048c" x="108" y="274.959605" style="stroke: #000000; stroke-width: 0.8"/>
      </g>
     </g>
     <g id="text_14">
      <!-- −400 -->
      <g transform="translate(73.385 279.40148) scale(0.12 -0.12)">
       <defs>
        <path id="SegoeUIThis-34" d="M 3231 1191 
L 2656 1191 
L 2656 0 
L 2150 0 
L 2150 1191 
L 44 1191 
L 44 1525 
L 2038 4481 
L 2656 4481 
L 2656 1606 
L 3231 1606 
L 3231 1191 
z
M 2150 1606 
L 2150 3544 
Q 2150 3750 2163 4006 
L 2150 4006 
Q 2106 3894 1978 3663 
L 600 1606 
L 2150 1606 
z
" transform="scale(0.015625)"/>
       </defs>
       <use xlink:href="#SegoeUIThis-2212"/>
       <use xlink:href="#SegoeUIThis-34" x="68.408203"/>
       <use xlink:href="#SegoeUIThis-30" x="122.314453"/>
       <use xlink:href="#SegoeUIThis-30" x="176.220703"/>
      </g>
     </g>
    </g>
    <g id="ytick_4">
     <g id="line2d_28">
      <path d="M 108 194.461679 
L 777.6 194.461679 
" clip-path="url(#pba56ad4cf8)" style="fill: none; stroke: #b0b0b0; stroke-width: 0.8; stroke-linecap: square"/>
     </g>
     <g id="line2d_29">
      <g>
       <use xlink:href="#mf3947f048c" x="108" y="194.461679" style="stroke: #000000; stroke-width: 0.8"/>
      </g>
     </g>
     <g id="text_15">
      <!-- −200 -->
      <g transform="translate(73.385 198.903554) scale(0.12 -0.12)">
       <use xlink:href="#SegoeUIThis-2212"/>
       <use xlink:href="#SegoeUIThis-32" x="68.408203"/>
       <use xlink:href="#SegoeUIThis-30" x="122.314453"/>
       <use xlink:href="#SegoeUIThis-30" x="176.220703"/>
      </g>
     </g>
    </g>
    <g id="ytick_5">
     <g id="line2d_30">
      <path d="M 108 113.963752 
L 777.6 113.963752 
" clip-path="url(#pba56ad4cf8)" style="fill: none; stroke: #b0b0b0; stroke-width: 0.8; stroke-linecap: square"/>
     </g>
     <g id="line2d_31">
      <g>
       <use xlink:href="#mf3947f048c" x="108" y="113.963752" style="stroke: #000000; stroke-width: 0.8"/>
      </g>
     </g>
     <g id="text_16">
      <!-- 0 -->
      <g transform="translate(94.53125 118.405627) scale(0.12 -0.12)">
       <use xlink:href="#SegoeUIThis-30"/>
      </g>
     </g>
    </g>
    <g id="text_17">
     <!-- Reward -->
     <g transform="translate(65.245 320.222813) rotate(-90) scale(0.18 -0.18)">
      <defs>
       <path id="SegoeUIThis-52" d="M 3800 0 
L 3175 0 
L 2425 1256 
Q 2322 1431 2225 1554 
Q 2128 1678 2026 1756 
Q 1925 1834 1808 1870 
Q 1691 1906 1544 1906 
L 1113 1906 
L 1113 0 
L 588 0 
L 588 4481 
L 1925 4481 
Q 2219 4481 2467 4407 
Q 2716 4334 2898 4184 
Q 3081 4034 3184 3811 
Q 3288 3588 3288 3288 
Q 3288 3053 3217 2858 
Q 3147 2663 3017 2509 
Q 2888 2356 2705 2248 
Q 2522 2141 2294 2081 
L 2294 2069 
Q 2406 2019 2489 1955 
Q 2572 1891 2647 1803 
Q 2722 1716 2795 1605 
Q 2869 1494 2959 1347 
L 3800 0 
z
M 1113 4006 
L 1113 2381 
L 1825 2381 
Q 2022 2381 2189 2440 
Q 2356 2500 2478 2611 
Q 2600 2722 2669 2883 
Q 2738 3044 2738 3244 
Q 2738 3603 2505 3804 
Q 2272 4006 1831 4006 
L 1113 4006 
z
" transform="scale(0.015625)"/>
       <path id="SegoeUIThis-77" d="M 4550 3200 
L 3591 0 
L 3059 0 
L 2400 2291 
Q 2363 2422 2350 2588 
L 2338 2588 
Q 2328 2475 2272 2297 
L 1556 0 
L 1044 0 
L 75 3200 
L 613 3200 
L 1275 794 
Q 1306 684 1319 506 
L 1344 506 
Q 1353 644 1400 800 
L 2138 3200 
L 2606 3200 
L 3269 788 
Q 3300 672 3316 500 
L 3341 500 
Q 3347 622 3394 788 
L 4044 3200 
L 4550 3200 
z
" transform="scale(0.015625)"/>
      </defs>
      <use xlink:href="#SegoeUIThis-52"/>
      <use xlink:href="#SegoeUIThis-65" x="56.939453"/>
      <use xlink:href="#SegoeUIThis-77" x="109.234375"/>
      <use xlink:href="#SegoeUIThis-61" x="181.5"/>
      <use xlink:href="#SegoeUIThis-72" x="232.378906"/>
      <use xlink:href="#SegoeUIThis-64" x="267.144531"/>
     </g>
    </g>
   </g>
   <g id="line2d_32">
    <path d="M 108 174.337197 
L 777.6 174.337197 
" clip-path="url(#pba56ad4cf8)" style="fill: none; stroke-dasharray: 5.55,2.4; stroke-dashoffset: 0; stroke: #000000; stroke-width: 1.5"/>
   </g>
   <g id="patch_3">
    <path d="M 108 512.64 
L 108 69.12 
" style="fill: none; stroke: #000000; stroke-width: 0.8; stroke-linejoin: miter; stroke-linecap: square"/>
   </g>
   <g id="patch_4">
    <path d="M 777.6 512.64 
L 777.6 69.12 
" style="fill: none; stroke: #000000; stroke-width: 0.8; stroke-linejoin: miter; stroke-linecap: square"/>
   </g>
   <g id="patch_5">
    <path d="M 108 512.64 
L 777.6 512.64 
" style="fill: none; stroke: #000000; stroke-width: 0.8; stroke-linejoin: miter; stroke-linecap: square"/>
   </g>
   <g id="patch_6">
    <path d="M 108 69.12 
L 777.6 69.12 
" style="fill: none; stroke: #000000; stroke-width: 0.8; stroke-linejoin: miter; stroke-linecap: square"/>
   </g>
   <g id="text_18">
    <!-- Pendulum Noise Robustness Comparison -->
    <g transform="translate(58.475 59.92) scale(0.4 -0.4)">
     <defs>
      <path id="SegoeUIThis-Bold-50" d="M 1522 1544 
L 1522 0 
L 513 0 
L 513 4481 
L 2094 4481 
Q 3788 4481 3788 3053 
Q 3788 2378 3302 1961 
Q 2816 1544 2003 1544 
L 1522 1544 
z
M 1522 3706 
L 1522 2309 
L 1919 2309 
Q 2725 2309 2725 3016 
Q 2725 3706 1919 3706 
L 1522 3706 
z
" transform="scale(0.015625)"/>
      <path id="SegoeUIThis-Bold-65" d="M 3291 1319 
L 1203 1319 
Q 1253 622 2081 622 
Q 2609 622 3009 872 
L 3009 159 
Q 2566 -78 1856 -78 
Q 1081 -78 653 351 
Q 225 781 225 1550 
Q 225 2347 687 2812 
Q 1150 3278 1825 3278 
Q 2525 3278 2908 2862 
Q 3291 2447 3291 1734 
L 3291 1319 
z
M 2375 1925 
Q 2375 2613 1819 2613 
Q 1581 2613 1407 2416 
Q 1234 2219 1197 1925 
L 2375 1925 
z
" transform="scale(0.015625)"/>
      <path id="SegoeUIThis-Bold-6e" d="M 3506 0 
L 2522 0 
L 2522 1778 
Q 2522 2522 1991 2522 
Q 1734 2522 1568 2325 
Q 1403 2128 1403 1825 
L 1403 0 
L 416 0 
L 416 3200 
L 1403 3200 
L 1403 2694 
L 1416 2694 
Q 1769 3278 2444 3278 
Q 3506 3278 3506 1959 
L 3506 0 
z
" transform="scale(0.015625)"/>
      <path id="SegoeUIThis-Bold-64" d="M 3547 0 
L 2559 0 
L 2559 441 
L 2547 441 
Q 2209 -78 1556 -78 
Q 956 -78 590 345 
Q 225 769 225 1528 
Q 225 2322 628 2800 
Q 1031 3278 1684 3278 
Q 2303 3278 2547 2834 
L 2559 2834 
L 2559 4738 
L 3547 4738 
L 3547 0 
z
M 2578 1556 
L 2578 1797 
Q 2578 2109 2397 2315 
Q 2216 2522 1925 2522 
Q 1597 2522 1412 2264 
Q 1228 2006 1228 1556 
Q 1228 1134 1406 906 
Q 1584 678 1900 678 
Q 2200 678 2389 918 
Q 2578 1159 2578 1556 
z
" transform="scale(0.015625)"/>
      <path id="SegoeUIThis-Bold-75" d="M 3456 0 
L 2472 0 
L 2472 488 
L 2456 488 
Q 2091 -78 1478 -78 
Q 366 -78 366 1269 
L 366 3200 
L 1350 3200 
L 1350 1356 
Q 1350 678 1888 678 
Q 2153 678 2312 864 
Q 2472 1050 2472 1369 
L 2472 3200 
L 3456 3200 
L 3456 0 
z
" transform="scale(0.015625)"/>
      <path id="SegoeUIThis-Bold-6c" d="M 1403 0 
L 416 0 
L 416 4738 
L 1403 4738 
L 1403 0 
z
" transform="scale(0.015625)"/>
      <path id="SegoeUIThis-Bold-6d" d="M 5497 0 
L 4513 0 
L 4513 1825 
Q 4513 2522 4000 2522 
Q 3756 2522 3603 2312 
Q 3450 2103 3450 1791 
L 3450 0 
L 2463 0 
L 2463 1844 
Q 2463 2522 1959 2522 
Q 1706 2522 1554 2322 
Q 1403 2122 1403 1778 
L 1403 0 
L 416 0 
L 416 3200 
L 1403 3200 
L 1403 2700 
L 1416 2700 
Q 1569 2956 1845 3117 
Q 2122 3278 2450 3278 
Q 3128 3278 3378 2681 
Q 3744 3278 4453 3278 
Q 5497 3278 5497 1991 
L 5497 0 
z
" transform="scale(0.015625)"/>
      <path id="SegoeUIThis-Bold-20" transform="scale(0.015625)"/>
      <path id="SegoeUIThis-Bold-4e" d="M 4544 0 
L 3525 0 
L 1678 2816 
Q 1516 3063 1453 3188 
L 1441 3188 
Q 1466 2950 1466 2463 
L 1466 0 
L 513 0 
L 513 4481 
L 1600 4481 
L 3378 1753 
Q 3500 1569 3603 1388 
L 3616 1388 
Q 3591 1544 3591 2003 
L 3591 4481 
L 4544 4481 
L 4544 0 
z
" transform="scale(0.015625)"/>
      <path id="SegoeUIThis-Bold-6f" d="M 1941 -78 
Q 1141 -78 683 370 
Q 225 819 225 1588 
Q 225 2381 700 2829 
Q 1175 3278 1984 3278 
Q 2781 3278 3234 2829 
Q 3688 2381 3688 1644 
Q 3688 847 3220 384 
Q 2753 -78 1941 -78 
z
M 1966 2522 
Q 1616 2522 1422 2281 
Q 1228 2041 1228 1600 
Q 1228 678 1972 678 
Q 2681 678 2681 1625 
Q 2681 2522 1966 2522 
z
" transform="scale(0.015625)"/>
      <path id="SegoeUIThis-Bold-69" d="M 916 3706 
Q 666 3706 506 3854 
Q 347 4003 347 4219 
Q 347 4441 506 4581 
Q 666 4722 916 4722 
Q 1169 4722 1326 4581 
Q 1484 4441 1484 4219 
Q 1484 3994 1326 3850 
Q 1169 3706 916 3706 
z
M 1403 0 
L 416 0 
L 416 3200 
L 1403 3200 
L 1403 0 
z
" transform="scale(0.015625)"/>
      <path id="SegoeUIThis-Bold-73" d="M 206 84 
L 206 884 
Q 450 738 692 666 
Q 934 594 1150 594 
Q 1413 594 1564 666 
Q 1716 738 1716 884 
Q 1716 978 1647 1040 
Q 1578 1103 1470 1150 
Q 1363 1197 1234 1234 
Q 1106 1272 988 1319 
Q 797 1391 651 1473 
Q 506 1556 407 1665 
Q 309 1775 257 1919 
Q 206 2063 206 2259 
Q 206 2528 323 2722 
Q 441 2916 636 3039 
Q 831 3163 1082 3220 
Q 1334 3278 1606 3278 
Q 1819 3278 2037 3245 
Q 2256 3213 2469 3150 
L 2469 2388 
Q 2281 2497 2067 2551 
Q 1853 2606 1647 2606 
Q 1550 2606 1464 2589 
Q 1378 2572 1312 2539 
Q 1247 2506 1209 2454 
Q 1172 2403 1172 2338 
Q 1172 2250 1228 2187 
Q 1284 2125 1375 2079 
Q 1466 2034 1577 1998 
Q 1688 1963 1797 1925 
Q 1994 1856 2153 1775 
Q 2313 1694 2427 1584 
Q 2541 1475 2602 1328 
Q 2663 1181 2663 978 
Q 2663 694 2539 492 
Q 2416 291 2211 164 
Q 2006 38 1739 -20 
Q 1472 -78 1184 -78 
Q 656 -78 206 84 
z
" transform="scale(0.015625)"/>
      <path id="SegoeUIThis-Bold-52" d="M 4272 0 
L 3113 0 
L 2416 1153 
Q 2338 1284 2266 1387 
Q 2194 1491 2120 1564 
Q 2047 1638 1967 1677 
Q 1888 1716 1794 1716 
L 1522 1716 
L 1522 0 
L 513 0 
L 513 4481 
L 2113 4481 
Q 3744 4481 3744 3263 
Q 3744 3028 3672 2829 
Q 3600 2631 3469 2472 
Q 3338 2313 3152 2197 
Q 2966 2081 2738 2016 
L 2738 2003 
Q 2838 1972 2931 1901 
Q 3025 1831 3112 1737 
Q 3200 1644 3279 1536 
Q 3359 1428 3425 1325 
L 4272 0 
z
M 1522 3725 
L 1522 2478 
L 1959 2478 
Q 2284 2478 2481 2666 
Q 2681 2856 2681 3138 
Q 2681 3725 1978 3725 
L 1522 3725 
z
" transform="scale(0.015625)"/>
      <path id="SegoeUIThis-Bold-62" d="M 1416 372 
L 1403 372 
L 1403 0 
L 416 0 
L 416 4738 
L 1403 4738 
L 1403 2719 
L 1416 2719 
Q 1781 3278 2456 3278 
Q 3075 3278 3409 2853 
Q 3744 2428 3744 1691 
Q 3744 891 3353 406 
Q 2963 -78 2309 -78 
Q 1719 -78 1416 372 
z
M 1388 1722 
L 1388 1394 
Q 1388 1084 1566 881 
Q 1744 678 2022 678 
Q 2359 678 2545 939 
Q 2731 1200 2731 1678 
Q 2731 2075 2561 2298 
Q 2391 2522 2075 2522 
Q 1778 2522 1583 2300 
Q 1388 2078 1388 1722 
z
" transform="scale(0.015625)"/>
      <path id="SegoeUIThis-Bold-74" d="M 2350 38 
Q 2131 -78 1691 -78 
Q 647 -78 647 1006 
L 647 2472 
L 128 2472 
L 128 3200 
L 647 3200 
L 647 3891 
L 1631 4172 
L 1631 3200 
L 2350 3200 
L 2350 2472 
L 1631 2472 
L 1631 1178 
Q 1631 678 2028 678 
Q 2184 678 2350 769 
L 2350 38 
z
" transform="scale(0.015625)"/>
      <path id="SegoeUIThis-Bold-43" d="M 3725 159 
Q 3234 -78 2444 -78 
Q 1413 -78 822 528 
Q 231 1134 231 2144 
Q 231 3219 895 3887 
Q 1559 4556 2619 4556 
Q 3275 4556 3725 4391 
L 3725 3419 
Q 3275 3688 2700 3688 
Q 2069 3688 1681 3291 
Q 1294 2894 1294 2216 
Q 1294 1566 1659 1180 
Q 2025 794 2644 794 
Q 3234 794 3725 1081 
L 3725 159 
z
" transform="scale(0.015625)"/>
      <path id="SegoeUIThis-Bold-70" d="M 1416 372 
L 1403 372 
L 1403 -1472 
L 416 -1472 
L 416 3200 
L 1403 3200 
L 1403 2719 
L 1416 2719 
Q 1781 3278 2444 3278 
Q 3066 3278 3405 2851 
Q 3744 2425 3744 1691 
Q 3744 891 3348 406 
Q 2953 -78 2297 -78 
Q 1719 -78 1416 372 
z
M 1388 1684 
L 1388 1428 
Q 1388 1097 1563 887 
Q 1738 678 2022 678 
Q 2359 678 2545 939 
Q 2731 1200 2731 1678 
Q 2731 2522 2075 2522 
Q 1772 2522 1580 2292 
Q 1388 2063 1388 1684 
z
" transform="scale(0.015625)"/>
      <path id="SegoeUIThis-Bold-61" d="M 3078 0 
L 2144 0 
L 2144 459 
L 2131 459 
Q 1809 -78 1178 -78 
Q 713 -78 445 186 
Q 178 450 178 891 
Q 178 1822 1281 1966 
L 2150 2081 
Q 2150 2606 1581 2606 
Q 1009 2606 494 2266 
L 494 3009 
Q 700 3116 1058 3197 
Q 1416 3278 1709 3278 
Q 3078 3278 3078 1913 
L 3078 0 
z
M 2150 1300 
L 2150 1516 
L 1569 1441 
Q 1088 1378 1088 1006 
Q 1088 838 1205 730 
Q 1322 622 1522 622 
Q 1800 622 1975 814 
Q 2150 1006 2150 1300 
z
" transform="scale(0.015625)"/>
      <path id="SegoeUIThis-Bold-72" d="M 2503 2309 
Q 2325 2406 2088 2406 
Q 1766 2406 1584 2170 
Q 1403 1934 1403 1528 
L 1403 0 
L 416 0 
L 416 3200 
L 1403 3200 
L 1403 2606 
L 1416 2606 
Q 1650 3256 2259 3256 
Q 2416 3256 2503 3219 
L 2503 2309 
z
" transform="scale(0.015625)"/>
     </defs>
     <use xlink:href="#SegoeUIThis-Bold-50"/>
     <use xlink:href="#SegoeUIThis-Bold-65" x="58.425781"/>
     <use xlink:href="#SegoeUIThis-Bold-6e" x="112.527344"/>
     <use xlink:href="#SegoeUIThis-Bold-64" x="173.025391"/>
     <use xlink:href="#SegoeUIThis-Bold-75" x="234.939453"/>
     <use xlink:href="#SegoeUIThis-Bold-6c" x="295.4375"/>
     <use xlink:href="#SegoeUIThis-Bold-75" x="323.855469"/>
     <use xlink:href="#SegoeUIThis-Bold-6d" x="384.353516"/>
     <use xlink:href="#SegoeUIThis-Bold-20" x="475.955078"/>
     <use xlink:href="#SegoeUIThis-Bold-4e" x="503.542969"/>
     <use xlink:href="#SegoeUIThis-Bold-6f" x="582.546875"/>
     <use xlink:href="#SegoeUIThis-Bold-69" x="643.679688"/>
     <use xlink:href="#SegoeUIThis-Bold-73" x="672.097656"/>
     <use xlink:href="#SegoeUIThis-Bold-65" x="716.091797"/>
     <use xlink:href="#SegoeUIThis-Bold-20" x="770.193359"/>
     <use xlink:href="#SegoeUIThis-Bold-52" x="797.78125"/>
     <use xlink:href="#SegoeUIThis-Bold-6f" x="860.564453"/>
     <use xlink:href="#SegoeUIThis-Bold-62" x="921.697266"/>
     <use xlink:href="#SegoeUIThis-Bold-75" x="983.708984"/>
     <use xlink:href="#SegoeUIThis-Bold-73" x="1044.207031"/>
     <use xlink:href="#SegoeUIThis-Bold-74" x="1088.201172"/>
     <use xlink:href="#SegoeUIThis-Bold-6e" x="1127.117188"/>
     <use xlink:href="#SegoeUIThis-Bold-65" x="1187.615234"/>
     <use xlink:href="#SegoeUIThis-Bold-73" x="1241.716797"/>
     <use xlink:href="#SegoeUIThis-Bold-73" x="1285.710938"/>
     <use xlink:href="#SegoeUIThis-Bold-20" x="1329.705078"/>
     <use xlink:href="#SegoeUIThis-Bold-43" x="1357.292969"/>
     <use xlink:href="#SegoeUIThis-Bold-6f" x="1419.695312"/>
     <use xlink:href="#SegoeUIThis-Bold-6d" x="1480.828125"/>
     <use xlink:href="#SegoeUIThis-Bold-70" x="1572.429688"/>
     <use xlink:href="#SegoeUIThis-Bold-61" x="1633.441406"/>
     <use xlink:href="#SegoeUIThis-Bold-72" x="1687.25"/>
     <use xlink:href="#SegoeUIThis-Bold-69" x="1727.419922"/>
     <use xlink:href="#SegoeUIThis-Bold-73" x="1755.837891"/>
     <use xlink:href="#SegoeUIThis-Bold-6f" x="1799.832031"/>
     <use xlink:href="#SegoeUIThis-Bold-6e" x="1860.964844"/>
    </g>
   </g>
   <g id="legend_1">
    <g id="patch_7">
     <path d="M 120.6 503.64 
L 375.224062 503.64 
Q 378.824062 503.64 378.824062 500.04 
L 378.824062 395.78625 
Q 378.824062 392.18625 375.224062 392.18625 
L 120.6 392.18625 
Q 117 392.18625 117 395.78625 
L 117 500.04 
Q 117 503.64 120.6 503.64 
z
" style="fill: #ffffff; opacity: 0.8; stroke: #cccccc; stroke-linejoin: miter"/>
    </g>
    <g id="line2d_33">
     <path d="M 124.2 406.411875 
L 142.2 406.411875 
L 160.2 406.411875 
" style="fill: none; stroke: #ff7700; stroke-width: 1.5; stroke-linecap: square"/>
    </g>
    <g id="text_19">
     <!-- PPO -->
     <g transform="translate(174.6 412.711875) scale(0.18 -0.18)">
      <defs>
       <path id="SegoeUIThis-50" d="M 1113 1694 
L 1113 0 
L 588 0 
L 588 4481 
L 1819 4481 
Q 2538 4481 2933 4131 
Q 3328 3781 3328 3144 
Q 3328 2506 2889 2100 
Q 2450 1694 1703 1694 
L 1113 1694 
z
M 1113 4006 
L 1113 2169 
L 1663 2169 
Q 2206 2169 2492 2417 
Q 2778 2666 2778 3119 
Q 2778 4006 1728 4006 
L 1113 4006 
z
" transform="scale(0.015625)"/>
       <path id="SegoeUIThis-4f" d="M 2394 -75 
Q 1441 -75 867 553 
Q 294 1181 294 2188 
Q 294 3269 878 3912 
Q 1463 4556 2469 4556 
Q 3397 4556 3964 3931 
Q 4531 3306 4531 2297 
Q 4531 1200 3950 562 
Q 3369 -75 2394 -75 
z
M 2431 4081 
Q 1725 4081 1284 3572 
Q 844 3063 844 2234 
Q 844 1406 1273 901 
Q 1703 397 2394 397 
Q 3131 397 3556 878 
Q 3981 1359 3981 2225 
Q 3981 3113 3568 3597 
Q 3156 4081 2431 4081 
z
" transform="scale(0.015625)"/>
      </defs>
      <use xlink:href="#SegoeUIThis-50"/>
      <use xlink:href="#SegoeUIThis-50" x="56.005859"/>
      <use xlink:href="#SegoeUIThis-4f" x="112.011719"/>
     </g>
    </g>
    <g id="line2d_34">
     <path d="M 124.2 432.8775 
L 142.2 432.8775 
L 160.2 432.8775 
" style="fill: none; stroke: #004777; stroke-width: 1.5; stroke-linecap: square"/>
    </g>
    <g id="text_20">
     <!-- SHAC -->
     <g transform="translate(174.6 439.1775) scale(0.18 -0.18)">
      <defs>
       <path id="SegoeUIThis-53" d="M 378 181 
L 378 800 
Q 484 706 632 631 
Q 781 556 945 504 
Q 1109 453 1275 425 
Q 1441 397 1581 397 
Q 2066 397 2305 576 
Q 2544 756 2544 1094 
Q 2544 1275 2464 1409 
Q 2384 1544 2243 1655 
Q 2103 1766 1911 1867 
Q 1719 1969 1497 2081 
Q 1263 2200 1059 2322 
Q 856 2444 706 2591 
Q 556 2738 470 2923 
Q 384 3109 384 3359 
Q 384 3666 518 3892 
Q 653 4119 872 4266 
Q 1091 4413 1370 4484 
Q 1650 4556 1941 4556 
Q 2603 4556 2906 4397 
L 2906 3806 
Q 2509 4081 1888 4081 
Q 1716 4081 1544 4045 
Q 1372 4009 1237 3928 
Q 1103 3847 1018 3719 
Q 934 3591 934 3406 
Q 934 3234 998 3109 
Q 1063 2984 1188 2881 
Q 1313 2778 1492 2681 
Q 1672 2584 1906 2469 
Q 2147 2350 2362 2219 
Q 2578 2088 2740 1928 
Q 2903 1769 2998 1575 
Q 3094 1381 3094 1131 
Q 3094 800 2964 570 
Q 2834 341 2614 197 
Q 2394 53 2106 -11 
Q 1819 -75 1500 -75 
Q 1394 -75 1237 -58 
Q 1081 -41 918 -8 
Q 756 25 611 73 
Q 466 122 378 181 
z
" transform="scale(0.015625)"/>
       <path id="SegoeUIThis-48" d="M 3956 0 
L 3431 0 
L 3431 2044 
L 1113 2044 
L 1113 0 
L 588 0 
L 588 4481 
L 1113 4481 
L 1113 2516 
L 3431 2516 
L 3431 4481 
L 3956 4481 
L 3956 0 
z
" transform="scale(0.015625)"/>
       <path id="SegoeUIThis-41" d="M 4056 0 
L 3475 0 
L 3000 1256 
L 1100 1256 
L 653 0 
L 69 0 
L 1788 4481 
L 2331 4481 
L 4056 0 
z
M 2828 1728 
L 2125 3638 
Q 2091 3731 2056 3938 
L 2044 3938 
Q 2013 3747 1972 3638 
L 1275 1728 
L 2828 1728 
z
" transform="scale(0.015625)"/>
       <path id="SegoeUIThis-43" d="M 3638 188 
Q 3141 -75 2400 -75 
Q 1444 -75 869 540 
Q 294 1156 294 2156 
Q 294 3231 941 3893 
Q 1588 4556 2581 4556 
Q 3219 4556 3638 4372 
L 3638 3813 
Q 3156 4081 2575 4081 
Q 1803 4081 1323 3565 
Q 844 3050 844 2188 
Q 844 1369 1292 883 
Q 1741 397 2469 397 
Q 3144 397 3638 697 
L 3638 188 
z
" transform="scale(0.015625)"/>
      </defs>
      <use xlink:href="#SegoeUIThis-53"/>
      <use xlink:href="#SegoeUIThis-48" x="53.125"/>
      <use xlink:href="#SegoeUIThis-41" x="124.121094"/>
      <use xlink:href="#SegoeUIThis-43" x="186.623047"/>
     </g>
    </g>
    <g id="line2d_35">
     <path d="M 124.2 459.343125 
L 142.2 459.343125 
L 160.2 459.343125 
" style="fill: none; stroke: #b72b34; stroke-width: 1.5; stroke-linecap: square"/>
    </g>
    <g id="text_21">
     <!-- SAC -->
     <g transform="translate(174.6 465.643125) scale(0.18 -0.18)">
      <use xlink:href="#SegoeUIThis-53"/>
      <use xlink:href="#SegoeUIThis-41" x="53.125"/>
      <use xlink:href="#SegoeUIThis-43" x="115.626953"/>
     </g>
    </g>
    <g id="line2d_36">
     <path d="M 124.2 486 
L 142.2 486 
L 160.2 486 
" style="fill: none; stroke-dasharray: 5.55,2.4; stroke-dashoffset: 0; stroke: #000000; stroke-width: 1.5"/>
    </g>
    <g id="text_22">
     <!-- Expert level performance -->
     <g transform="translate(174.6 492.3) scale(0.18 -0.18)">
      <defs>
       <path id="SegoeUIThis-45" d="M 2963 0 
L 588 0 
L 588 4481 
L 2863 4481 
L 2863 4006 
L 1113 4006 
L 1113 2516 
L 2731 2516 
L 2731 2044 
L 1113 2044 
L 1113 475 
L 2963 475 
L 2963 0 
z
" transform="scale(0.015625)"/>
       <path id="SegoeUIThis-78" d="M 2856 3200 
L 1781 1581 
L 2838 0 
L 2241 0 
L 1613 1038 
Q 1553 1134 1472 1281 
L 1459 1281 
Q 1444 1253 1313 1038 
L 672 0 
L 81 0 
L 1172 1569 
L 128 3200 
L 725 3200 
L 1344 2106 
Q 1413 1984 1478 1856 
L 1491 1856 
L 2291 3200 
L 2856 3200 
z
" transform="scale(0.015625)"/>
       <path id="SegoeUIThis-70" d="M 1044 463 
L 1031 463 
L 1031 -1472 
L 519 -1472 
L 519 3200 
L 1031 3200 
L 1031 2638 
L 1044 2638 
Q 1422 3275 2150 3275 
Q 2769 3275 3116 2845 
Q 3463 2416 3463 1694 
Q 3463 891 3072 408 
Q 2681 -75 2003 -75 
Q 1381 -75 1044 463 
z
M 1031 1753 
L 1031 1306 
Q 1031 909 1289 632 
Q 1547 356 1944 356 
Q 2409 356 2673 712 
Q 2938 1069 2938 1703 
Q 2938 2238 2691 2541 
Q 2444 2844 2022 2844 
Q 1575 2844 1303 2533 
Q 1031 2222 1031 1753 
z
" transform="scale(0.015625)"/>
       <path id="SegoeUIThis-6c" d="M 1031 0 
L 519 0 
L 519 4738 
L 1031 4738 
L 1031 0 
z
" transform="scale(0.015625)"/>
       <path id="SegoeUIThis-66" d="M 2100 4288 
Q 1950 4372 1759 4372 
Q 1222 4372 1222 3694 
L 1222 3200 
L 1972 3200 
L 1972 2763 
L 1222 2763 
L 1222 0 
L 713 0 
L 713 2763 
L 166 2763 
L 166 3200 
L 713 3200 
L 713 3719 
Q 713 4222 1003 4514 
Q 1294 4806 1728 4806 
Q 1963 4806 2100 4750 
L 2100 4288 
z
" transform="scale(0.015625)"/>
       <path id="SegoeUIThis-6d" d="M 5063 0 
L 4550 0 
L 4550 1838 
Q 4550 2369 4386 2606 
Q 4222 2844 3834 2844 
Q 3506 2844 3276 2544 
Q 3047 2244 3047 1825 
L 3047 0 
L 2534 0 
L 2534 1900 
Q 2534 2844 1806 2844 
Q 1469 2844 1250 2561 
Q 1031 2278 1031 1825 
L 1031 0 
L 519 0 
L 519 3200 
L 1031 3200 
L 1031 2694 
L 1044 2694 
Q 1384 3275 2038 3275 
Q 2366 3275 2609 3092 
Q 2853 2909 2944 2613 
Q 3300 3275 4006 3275 
Q 5063 3275 5063 1972 
L 5063 0 
z
" transform="scale(0.015625)"/>
       <path id="SegoeUIThis-63" d="M 2700 147 
Q 2331 -75 1825 -75 
Q 1141 -75 720 370 
Q 300 816 300 1525 
Q 300 2316 753 2795 
Q 1206 3275 1963 3275 
Q 2384 3275 2706 3119 
L 2706 2594 
Q 2350 2844 1944 2844 
Q 1453 2844 1139 2492 
Q 825 2141 825 1569 
Q 825 1006 1120 681 
Q 1416 356 1913 356 
Q 2331 356 2700 634 
L 2700 147 
z
" transform="scale(0.015625)"/>
      </defs>
      <use xlink:href="#SegoeUIThis-45"/>
      <use xlink:href="#SegoeUIThis-78" x="50.585938"/>
      <use xlink:href="#SegoeUIThis-70" x="96.484375"/>
      <use xlink:href="#SegoeUIThis-65" x="155.273438"/>
      <use xlink:href="#SegoeUIThis-72" x="207.568359"/>
      <use xlink:href="#SegoeUIThis-74" x="242.333984"/>
      <use xlink:href="#SegoeUIThis-20" x="276.220703"/>
      <use xlink:href="#SegoeUIThis-6c" x="303.613281"/>
      <use xlink:href="#SegoeUIThis-65" x="327.832031"/>
      <use xlink:href="#SegoeUIThis-76" x="380.126953"/>
      <use xlink:href="#SegoeUIThis-65" x="428.027344"/>
      <use xlink:href="#SegoeUIThis-6c" x="480.322266"/>
      <use xlink:href="#SegoeUIThis-20" x="504.541016"/>
      <use xlink:href="#SegoeUIThis-70" x="531.933594"/>
      <use xlink:href="#SegoeUIThis-65" x="590.722656"/>
      <use xlink:href="#SegoeUIThis-72" x="643.017578"/>
      <use xlink:href="#SegoeUIThis-66" x="677.783203"/>
      <use xlink:href="#SegoeUIThis-6f" x="709.082031"/>
      <use xlink:href="#SegoeUIThis-72" x="767.675781"/>
      <use xlink:href="#SegoeUIThis-6d" x="802.441406"/>
      <use xlink:href="#SegoeUIThis-61" x="888.574219"/>
      <use xlink:href="#SegoeUIThis-6e" x="939.453125"/>
      <use xlink:href="#SegoeUIThis-63" x="996.044922"/>
      <use xlink:href="#SegoeUIThis-65" x="1042.236328"/>
     </g>
    </g>
   </g>
  </g>
 </g>
 <defs>
  <clipPath id="pba56ad4cf8">
   <rect x="108" y="69.12" width="669.6" height="443.52"/>
  </clipPath>
 </defs>
</svg>
