<?xml version="1.0" encoding="utf-8" standalone="no"?>
<!DOCTYPE svg PUBLIC "-//W3C//DTD SVG 1.1//EN"
  "http://www.w3.org/Graphics/SVG/1.1/DTD/svg11.dtd">
<svg xmlns:xlink="http://www.w3.org/1999/xlink" width="864pt" height="576pt" viewBox="0 0 864 576" xmlns="http://www.w3.org/2000/svg" version="1.1">
 <metadata>
  <rdf:RDF xmlns:dc="http://purl.org/dc/elements/1.1/" xmlns:cc="http://creativecommons.org/ns#" xmlns:rdf="http://www.w3.org/1999/02/22-rdf-syntax-ns#">
   <cc:Work>
    <dc:type rdf:resource="http://purl.org/dc/dcmitype/StillImage"/>
    <dc:date>2024-07-24T17:25:17.508721</dc:date>
    <dc:format>image/svg+xml</dc:format>
    <dc:creator>
     <cc:Agent>
      <dc:title>Matplotlib v3.8.4, https://matplotlib.org/</dc:title>
     </cc:Agent>
    </dc:creator>
   </cc:Work>
  </rdf:RDF>
 </metadata>
 <defs>
  <style type="text/css">*{stroke-linejoin: round; stroke-linecap: butt}</style>
 </defs>
 <g id="figure_1">
  <g id="patch_1">
   <path d="M 0 576 
L 864 576 
L 864 0 
L 0 0 
z
" style="fill: #ffffff"/>
  </g>
  <g id="axes_1">
   <g id="patch_2">
    <path d="M 68.51 529.72 
L 853.2 529.72 
L 853.2 32.64 
L 68.51 32.64 
z
" style="fill: #ffffff"/>
   </g>
   <g id="PolyCollection_1">
    <path d="M 104.177727 117.521157 
L 104.177727 379.852585 
L 111.383329 344.540405 
L 118.58893 265.581413 
L 125.794532 265.704906 
L 133.000133 320.665366 
L 140.205735 265.672091 
L 147.411336 303.688801 
L 154.616938 378.746528 
L 161.822539 360.851368 
L 169.02814 309.131369 
L 176.233742 269.855723 
L 183.439343 384.309548 
L 190.644945 265.50256 
L 197.850546 303.391567 
L 205.056148 347.479908 
L 212.261749 309.175155 
L 219.467351 308.155941 
L 226.672952 402.589749 
L 233.878554 258.490952 
L 241.084155 265.380879 
L 248.289757 269.775537 
L 255.495358 284.423621 
L 262.70096 269.183077 
L 269.906561 307.999073 
L 277.112163 371.113046 
L 284.317764 372.144855 
L 291.523365 342.296004 
L 298.728967 351.108338 
L 305.934568 349.380963 
L 313.14017 304.071415 
L 320.345771 303.961863 
L 327.551373 308.330451 
L 334.756974 373.543657 
L 341.962576 304.250772 
L 349.168177 360.322333 
L 356.373779 377.057111 
L 363.57938 400.169053 
L 370.784982 283.432374 
L 377.990583 358.493154 
L 385.196185 435.797699 
L 392.401786 371.990956 
L 399.607388 440.34812 
L 406.812989 337.022878 
L 414.01859 367.634254 
L 421.224192 404.795363 
L 428.429793 376.386317 
L 435.635395 308.314834 
L 442.840996 308.459281 
L 450.046598 456.529561 
L 457.252199 395.475109 
L 464.457801 454.64735 
L 471.663402 395.57425 
L 478.869004 404.307536 
L 486.074605 460.673856 
L 493.280207 427.080459 
L 500.485808 429.537085 
L 507.69141 458.395745 
L 514.897011 488.249431 
L 522.102612 422.948939 
L 529.308214 406.899994 
L 536.513815 497.35123 
L 543.719417 408.265013 
L 550.925018 437.835441 
L 558.13062 425.444809 
L 565.336221 476.561307 
L 572.541823 421.921893 
L 579.747424 421.722029 
L 586.953026 414.044411 
L 594.158627 466.86576 
L 601.364229 461.206681 
L 608.56983 438.569076 
L 615.775432 415.274308 
L 622.981033 435.346167 
L 630.186635 415.262613 
L 637.392236 460.232725 
L 644.597837 419.685233 
L 651.803439 461.824889 
L 659.00904 423.241342 
L 666.214642 485.411973 
L 673.420243 414.547021 
L 680.625845 480.369176 
L 687.831446 453.274024 
L 695.037048 505.108284 
L 702.242649 453.884087 
L 709.448251 472.730291 
L 716.653852 482.566599 
L 723.859454 481.822073 
L 731.065055 489.251071 
L 738.270657 450.473863 
L 745.476258 476.920087 
L 752.68186 471.002238 
L 759.887461 487.739451 
L 767.093062 447.788454 
L 774.298664 450.496276 
L 781.504265 433.027352 
L 788.709867 424.180712 
L 795.915468 493.462504 
L 803.12107 490.73085 
L 810.326671 484.6614 
L 817.532273 494.103202 
L 817.532273 309.012931 
L 817.532273 309.012931 
L 810.326671 382.601212 
L 803.12107 386.996774 
L 795.915468 391.898018 
L 788.709867 342.871978 
L 781.504265 338.252391 
L 774.298664 351.062492 
L 767.093062 317.242857 
L 759.887461 330.968013 
L 752.68186 396.208222 
L 745.476258 376.990582 
L 738.270657 359.060036 
L 731.065055 393.281678 
L 723.859454 319.552703 
L 716.653852 371.681823 
L 709.448251 332.387403 
L 702.242649 351.845448 
L 695.037048 348.397487 
L 687.831446 265.064859 
L 680.625845 325.063182 
L 673.420243 299.276812 
L 666.214642 285.720209 
L 659.00904 327.559359 
L 651.803439 261.586684 
L 644.597837 254.886747 
L 637.392236 286.354492 
L 630.186635 270.806459 
L 622.981033 346.159387 
L 615.775432 304.417305 
L 608.56983 303.553523 
L 601.364229 301.828909 
L 594.158627 317.072212 
L 586.953026 300.635312 
L 579.747424 259.744008 
L 572.541823 344.481392 
L 565.336221 296.540539 
L 558.13062 282.967143 
L 550.925018 261.992923 
L 543.719417 247.025666 
L 536.513815 267.562757 
L 529.308214 242.759968 
L 522.102612 231.057925 
L 514.897011 283.638216 
L 507.69141 338.675215 
L 500.485808 287.598692 
L 493.280207 318.432362 
L 486.074605 238.867796 
L 478.869004 240.115622 
L 471.663402 214.076635 
L 464.457801 197.499437 
L 457.252199 215.66661 
L 450.046598 262.984674 
L 442.840996 117.553525 
L 435.635395 117.75647 
L 428.429793 164.904299 
L 421.224192 195.507069 
L 414.01859 173.583311 
L 406.812989 173.161381 
L 399.607388 219.916069 
L 392.401786 158.447101 
L 385.196185 222.128948 
L 377.990583 151.829249 
L 370.784982 229.247327 
L 363.57938 101.465127 
L 356.373779 133.565563 
L 349.168177 212.308495 
L 341.962576 93.260822 
L 334.756974 141.562335 
L 327.551373 117.346315 
L 320.345771 92.657887 
L 313.14017 92.797932 
L 305.934568 105.173469 
L 298.728967 131.815393 
L 291.523365 141.131305 
L 284.317764 198.977389 
L 277.112163 198.80507 
L 269.906561 117.107294 
L 262.70096 127.260821 
L 255.495358 140.908218 
L 248.289757 126.961449 
L 241.084155 102.11935 
L 233.878554 80.787492 
L 226.672952 139.074035 
L 219.467351 117.347889 
L 212.261749 116.549336 
L 205.056148 80.150069 
L 197.850546 92.789942 
L 190.644945 101.998396 
L 183.439343 186.567676 
L 176.233742 127.021689 
L 169.02814 116.683449 
L 161.822539 122.944687 
L 154.616938 133.633379 
L 147.411336 92.458158 
L 140.205735 102.360655 
L 133.000133 133.478515 
L 125.794532 102.013928 
L 118.58893 102.297945 
L 111.383329 80.953882 
L 104.177727 117.521157 
z
" clip-path="url(#p583aac24f9)" style="fill: #1f77b4; fill-opacity: 0.3"/>
   </g>
   <g id="PolyCollection_2">
    <path d="M 104.177727 81.550236 
L 104.177727 294.353489 
L 111.383329 293.080786 
L 118.58893 255.894024 
L 125.794532 304.604747 
L 133.000133 277.309852 
L 140.205735 293.541505 
L 147.411336 313.52073 
L 154.616938 293.877869 
L 161.822539 262.662756 
L 169.02814 255.955532 
L 176.233742 271.021512 
L 183.439343 374.876784 
L 190.644945 291.855625 
L 197.850546 253.800337 
L 205.056148 253.71012 
L 212.261749 386.785057 
L 219.467351 292.731046 
L 226.672952 254.215059 
L 233.878554 293.75238 
L 241.084155 260.812194 
L 248.289757 328.504748 
L 255.495358 266.022327 
L 262.70096 279.044164 
L 269.906561 346.370092 
L 277.112163 265.684976 
L 284.317764 340.870906 
L 291.523365 277.345552 
L 298.728967 310.937612 
L 305.934568 395.907296 
L 313.14017 370.10233 
L 320.345771 274.402635 
L 327.551373 394.548198 
L 334.756974 311.39452 
L 341.962576 367.569929 
L 349.168177 394.464277 
L 356.373779 385.579754 
L 363.57938 303.331304 
L 370.784982 395.620363 
L 377.990583 307.569455 
L 385.196185 387.716432 
L 392.401786 292.618988 
L 399.607388 420.441237 
L 406.812989 360.85032 
L 414.01859 305.153643 
L 421.224192 414.947105 
L 428.429793 339.289012 
L 435.635395 338.500589 
L 442.840996 311.863695 
L 450.046598 351.709929 
L 457.252199 412.556669 
L 464.457801 318.025555 
L 471.663402 328.761139 
L 478.869004 440.577414 
L 486.074605 347.010046 
L 493.280207 382.65505 
L 500.485808 422.984284 
L 507.69141 409.352347 
L 514.897011 346.931023 
L 522.102612 416.225757 
L 529.308214 366.206085 
L 536.513815 437.779304 
L 543.719417 416.8056 
L 550.925018 420.031015 
L 558.13062 349.701092 
L 565.336221 383.082669 
L 572.541823 457.108317 
L 579.747424 388.192379 
L 586.953026 422.303823 
L 594.158627 446.556522 
L 601.364229 404.257948 
L 608.56983 457.705232 
L 615.775432 310.588034 
L 622.981033 354.044029 
L 630.186635 507.125455 
L 637.392236 376.457817 
L 644.597837 374.070902 
L 651.803439 408.507791 
L 659.00904 476.581553 
L 666.214642 474.162179 
L 673.420243 486.102546 
L 680.625845 450.718822 
L 687.831446 406.187085 
L 695.037048 390.204412 
L 702.242649 461.763701 
L 709.448251 415.908562 
L 716.653852 377.450222 
L 723.859454 425.80054 
L 731.065055 421.468356 
L 738.270657 414.29152 
L 745.476258 468.727425 
L 752.68186 442.062857 
L 759.887461 454.74054 
L 767.093062 416.783581 
L 774.298664 465.178784 
L 781.504265 476.79715 
L 788.709867 371.802201 
L 795.915468 434.360875 
L 803.12107 476.620583 
L 810.326671 487.335632 
L 817.532273 490.798541 
L 817.532273 278.274601 
L 817.532273 278.274601 
L 810.326671 304.549271 
L 803.12107 255.145011 
L 795.915468 248.929881 
L 788.709867 232.483909 
L 781.504265 240.376165 
L 774.298664 231.562011 
L 767.093062 269.332339 
L 759.887461 254.660786 
L 752.68186 255.410123 
L 745.476258 232.246065 
L 738.270657 281.420379 
L 731.065055 274.320485 
L 723.859454 177.346197 
L 716.653852 165.415983 
L 709.448251 246.434875 
L 702.242649 250.137456 
L 695.037048 191.601707 
L 687.831446 213.663566 
L 680.625845 260.576858 
L 673.420243 243.422852 
L 666.214642 219.535103 
L 659.00904 289.554764 
L 651.803439 199.425215 
L 644.597837 233.807644 
L 637.392236 152.035944 
L 630.186635 198.821559 
L 622.981033 165.080023 
L 615.775432 123.685235 
L 608.56983 181.000484 
L 601.364229 172.661905 
L 594.158627 204.581489 
L 586.953026 124.586616 
L 579.747424 195.412296 
L 572.541823 147.235515 
L 565.336221 166.042529 
L 558.13062 199.158854 
L 550.925018 104.05079 
L 543.719417 144.274282 
L 536.513815 163.10095 
L 529.308214 67.240747 
L 522.102612 106.340416 
L 514.897011 143.655615 
L 507.69141 151.10758 
L 500.485808 125.775295 
L 493.280207 120.095877 
L 486.074605 142.729301 
L 478.869004 138.843443 
L 471.663402 108.820732 
L 464.457801 146.602112 
L 457.252199 110.996457 
L 450.046598 99.071473 
L 442.840996 93.845398 
L 435.635395 174.261451 
L 428.429793 112.761094 
L 421.224192 105.987782 
L 414.01859 129.223434 
L 406.812989 114.276891 
L 399.607388 129.448114 
L 392.401786 142.986734 
L 385.196185 136.013981 
L 377.990583 93.902724 
L 370.784982 68.568059 
L 363.57938 94.955944 
L 356.373779 119.007282 
L 349.168177 68.681324 
L 341.962576 117.125863 
L 334.756974 100.738903 
L 327.551373 69.643929 
L 320.345771 103.248552 
L 313.14017 123.129639 
L 305.934568 83.952652 
L 298.728967 94.843904 
L 291.523365 101.569225 
L 284.317764 66.605487 
L 277.112163 89.655228 
L 269.906561 65.291679 
L 262.70096 101.686461 
L 255.495358 89.38848 
L 248.289757 71.247605 
L 241.084155 91.317476 
L 233.878554 81.686065 
L 226.672952 92.839802 
L 219.467351 81.666969 
L 212.261749 76.615363 
L 205.056148 93.205651 
L 197.850546 93.334082 
L 190.644945 82.380243 
L 183.439343 55.234545 
L 176.233742 88.001028 
L 169.02814 92.753694 
L 161.822539 91.251697 
L 154.616938 82.212243 
L 147.411336 128.614488 
L 140.205735 83.322761 
L 133.000133 85.938375 
L 125.794532 78.038635 
L 118.58893 92.27437 
L 111.383329 82.045337 
L 104.177727 81.550236 
z
" clip-path="url(#p583aac24f9)" style="fill: #ff7f0e; fill-opacity: 0.3"/>
   </g>
   <g id="PolyCollection_3">
    <path d="M 104.177727 95.650659 
L 104.177727 101.037784 
L 111.383329 100.823888 
L 118.58893 100.926829 
L 125.794532 101.057245 
L 133.000133 100.99546 
L 140.205735 100.893993 
L 147.411336 100.939381 
L 154.616938 100.873246 
L 161.822539 100.73678 
L 169.02814 100.687224 
L 176.233742 100.967211 
L 183.439343 101.003501 
L 190.644945 100.836331 
L 197.850546 100.915021 
L 205.056148 100.747755 
L 212.261749 100.894382 
L 219.467351 100.877033 
L 226.672952 100.085133 
L 233.878554 100.544203 
L 241.084155 100.802966 
L 248.289757 100.019985 
L 255.495358 100.817725 
L 262.70096 99.927154 
L 269.906561 101.052255 
L 277.112163 100.831984 
L 284.317764 101.198046 
L 291.523365 100.490123 
L 298.728967 100.50807 
L 305.934568 100.291556 
L 313.14017 100.636176 
L 320.345771 99.986537 
L 327.551373 99.877941 
L 334.756974 100.102322 
L 341.962576 100.095013 
L 349.168177 100.413802 
L 356.373779 100.700507 
L 363.57938 100.365134 
L 370.784982 100.272436 
L 377.990583 100.788955 
L 385.196185 100.663578 
L 392.401786 100.310607 
L 399.607388 100.95229 
L 406.812989 100.80488 
L 414.01859 100.525707 
L 421.224192 158.664756 
L 428.429793 100.497914 
L 435.635395 100.369397 
L 442.840996 100.378699 
L 450.046598 141.325705 
L 457.252199 101.341159 
L 464.457801 141.353144 
L 471.663402 101.967403 
L 478.869004 139.297448 
L 486.074605 100.572497 
L 493.280207 143.68113 
L 500.485808 141.746687 
L 507.69141 134.699845 
L 514.897011 141.387924 
L 522.102612 155.474986 
L 529.308214 160.532435 
L 536.513815 197.878494 
L 543.719417 196.254937 
L 550.925018 174.092048 
L 558.13062 163.75167 
L 565.336221 208.735695 
L 572.541823 212.674605 
L 579.747424 138.13889 
L 586.953026 158.631511 
L 594.158627 160.856389 
L 601.364229 193.638227 
L 608.56983 206.514542 
L 615.775432 267.852449 
L 622.981033 210.015147 
L 630.186635 214.396984 
L 637.392236 277.731493 
L 644.597837 269.517019 
L 651.803439 235.216382 
L 659.00904 282.032294 
L 666.214642 226.733889 
L 673.420243 208.522909 
L 680.625845 342.093634 
L 687.831446 290.092347 
L 695.037048 295.890737 
L 702.242649 269.290694 
L 709.448251 346.8395 
L 716.653852 262.39033 
L 723.859454 351.558059 
L 731.065055 250.917951 
L 738.270657 352.723296 
L 745.476258 294.557949 
L 752.68186 413.456287 
L 759.887461 342.516371 
L 767.093062 454.381996 
L 774.298664 461.606164 
L 781.504265 422.968851 
L 788.709867 420.841631 
L 795.915468 413.970307 
L 803.12107 423.905181 
L 810.326671 314.768697 
L 817.532273 364.908916 
L 817.532273 250.202346 
L 817.532273 250.202346 
L 810.326671 202.360992 
L 803.12107 279.265688 
L 795.915468 265.09515 
L 788.709867 166.556519 
L 781.504265 186.6368 
L 774.298664 182.020846 
L 767.093062 186.864094 
L 759.887461 248.543097 
L 752.68186 243.263318 
L 745.476258 176.407446 
L 738.270657 128.334364 
L 731.065055 201.07896 
L 723.859454 174.057934 
L 716.653852 128.17106 
L 709.448251 206.688291 
L 702.242649 176.539919 
L 695.037048 236.606435 
L 687.831446 158.542853 
L 680.625845 141.894209 
L 673.420243 103.429151 
L 666.214642 130.819679 
L 659.00904 139.971976 
L 651.803439 106.676812 
L 644.597837 155.31201 
L 637.392236 140.158451 
L 630.186635 124.767996 
L 622.981033 131.849362 
L 615.775432 102.176078 
L 608.56983 114.050601 
L 601.364229 87.361979 
L 594.158627 94.321588 
L 586.953026 95.388378 
L 579.747424 87.124075 
L 572.541823 124.588486 
L 565.336221 105.777403 
L 558.13062 91.966117 
L 550.925018 108.56386 
L 543.719417 86.550813 
L 536.513815 86.639318 
L 529.308214 94.92145 
L 522.102612 94.20611 
L 514.897011 85.463282 
L 507.69141 87.981371 
L 500.485808 86.467418 
L 493.280207 85.089478 
L 486.074605 96.906641 
L 478.869004 86.965576 
L 471.663402 96.869752 
L 464.457801 84.09774 
L 457.252199 97.063162 
L 450.046598 84.697924 
L 442.840996 96.318262 
L 435.635395 96.427787 
L 428.429793 96.663113 
L 421.224192 92.166681 
L 414.01859 96.210574 
L 406.812989 96.67356 
L 399.607388 96.502615 
L 392.401786 96.033885 
L 385.196185 96.184773 
L 377.990583 96.128766 
L 370.784982 96.102442 
L 363.57938 96.230508 
L 356.373779 96.544019 
L 349.168177 96.208362 
L 341.962576 96.190258 
L 334.756974 96.138439 
L 327.551373 96.012849 
L 320.345771 95.965258 
L 313.14017 96.187999 
L 305.934568 95.961425 
L 298.728967 95.857335 
L 291.523365 96.031653 
L 284.317764 95.988392 
L 277.112163 96.128582 
L 269.906561 96.017366 
L 262.70096 95.789765 
L 255.495358 96.117073 
L 248.289757 95.599534 
L 241.084155 95.881779 
L 233.878554 95.836059 
L 226.672952 95.753157 
L 219.467351 95.845873 
L 212.261749 95.918178 
L 205.056148 95.805274 
L 197.850546 95.775555 
L 190.644945 95.829923 
L 183.439343 95.875163 
L 176.233742 95.674685 
L 169.02814 95.688877 
L 161.822539 95.794561 
L 154.616938 95.554421 
L 147.411336 95.662125 
L 140.205735 95.773974 
L 133.000133 95.896053 
L 125.794532 95.935205 
L 118.58893 95.766763 
L 111.383329 95.788549 
L 104.177727 95.650659 
z
" clip-path="url(#p583aac24f9)" style="fill: #2ca02c; fill-opacity: 0.3"/>
   </g>
   <g id="matplotlib.axis_1">
    <g id="xtick_1">
     <g id="line2d_1">
      <path d="M 104.177727 529.72 
L 104.177727 32.64 
" clip-path="url(#p583aac24f9)" style="fill: none; stroke: #b0b0b0; stroke-width: 0.8; stroke-linecap: square"/>
     </g>
     <g id="line2d_2">
      <defs>
       <path id="mfe99d7ddef" d="M 0 0 
L 0 3.5 
" style="stroke: #000000; stroke-width: 0.8"/>
      </defs>
      <g>
       <use xlink:href="#mfe99d7ddef" x="104.177727" y="529.72" style="stroke: #000000; stroke-width: 0.8"/>
      </g>
     </g>
     <g id="text_1">
      <!-- 0.000 -->
      <g transform="translate(87.000852 545.838125) scale(0.12 -0.12)">
       <defs>
        <path id="DejaVuSans-30" d="M 2034 4250 
Q 1547 4250 1301 3770 
Q 1056 3291 1056 2328 
Q 1056 1369 1301 889 
Q 1547 409 2034 409 
Q 2525 409 2770 889 
Q 3016 1369 3016 2328 
Q 3016 3291 2770 3770 
Q 2525 4250 2034 4250 
z
M 2034 4750 
Q 2819 4750 3233 4129 
Q 3647 3509 3647 2328 
Q 3647 1150 3233 529 
Q 2819 -91 2034 -91 
Q 1250 -91 836 529 
Q 422 1150 422 2328 
Q 422 3509 836 4129 
Q 1250 4750 2034 4750 
z
" transform="scale(0.015625)"/>
        <path id="DejaVuSans-2e" d="M 684 794 
L 1344 794 
L 1344 0 
L 684 0 
L 684 794 
z
" transform="scale(0.015625)"/>
       </defs>
       <use xlink:href="#DejaVuSans-30"/>
       <use xlink:href="#DejaVuSans-2e" x="63.623047"/>
       <use xlink:href="#DejaVuSans-30" x="95.410156"/>
       <use xlink:href="#DejaVuSans-30" x="159.033203"/>
       <use xlink:href="#DejaVuSans-30" x="222.65625"/>
      </g>
     </g>
    </g>
    <g id="xtick_2">
     <g id="line2d_3">
      <path d="M 193.347045 529.72 
L 193.347045 32.64 
" clip-path="url(#p583aac24f9)" style="fill: none; stroke: #b0b0b0; stroke-width: 0.8; stroke-linecap: square"/>
     </g>
     <g id="line2d_4">
      <g>
       <use xlink:href="#mfe99d7ddef" x="193.347045" y="529.72" style="stroke: #000000; stroke-width: 0.8"/>
      </g>
     </g>
     <g id="text_2">
      <!-- 0.025 -->
      <g transform="translate(176.17017 545.838125) scale(0.12 -0.12)">
       <defs>
        <path id="DejaVuSans-32" d="M 1228 531 
L 3431 531 
L 3431 0 
L 469 0 
L 469 531 
Q 828 903 1448 1529 
Q 2069 2156 2228 2338 
Q 2531 2678 2651 2914 
Q 2772 3150 2772 3378 
Q 2772 3750 2511 3984 
Q 2250 4219 1831 4219 
Q 1534 4219 1204 4116 
Q 875 4013 500 3803 
L 500 4441 
Q 881 4594 1212 4672 
Q 1544 4750 1819 4750 
Q 2544 4750 2975 4387 
Q 3406 4025 3406 3419 
Q 3406 3131 3298 2873 
Q 3191 2616 2906 2266 
Q 2828 2175 2409 1742 
Q 1991 1309 1228 531 
z
" transform="scale(0.015625)"/>
        <path id="DejaVuSans-35" d="M 691 4666 
L 3169 4666 
L 3169 4134 
L 1269 4134 
L 1269 2991 
Q 1406 3038 1543 3061 
Q 1681 3084 1819 3084 
Q 2600 3084 3056 2656 
Q 3513 2228 3513 1497 
Q 3513 744 3044 326 
Q 2575 -91 1722 -91 
Q 1428 -91 1123 -41 
Q 819 9 494 109 
L 494 744 
Q 775 591 1075 516 
Q 1375 441 1709 441 
Q 2250 441 2565 725 
Q 2881 1009 2881 1497 
Q 2881 1984 2565 2268 
Q 2250 2553 1709 2553 
Q 1456 2553 1204 2497 
Q 953 2441 691 2322 
L 691 4666 
z
" transform="scale(0.015625)"/>
       </defs>
       <use xlink:href="#DejaVuSans-30"/>
       <use xlink:href="#DejaVuSans-2e" x="63.623047"/>
       <use xlink:href="#DejaVuSans-30" x="95.410156"/>
       <use xlink:href="#DejaVuSans-32" x="159.033203"/>
       <use xlink:href="#DejaVuSans-35" x="222.65625"/>
      </g>
     </g>
    </g>
    <g id="xtick_3">
     <g id="line2d_5">
      <path d="M 282.516364 529.72 
L 282.516364 32.64 
" clip-path="url(#p583aac24f9)" style="fill: none; stroke: #b0b0b0; stroke-width: 0.8; stroke-linecap: square"/>
     </g>
     <g id="line2d_6">
      <g>
       <use xlink:href="#mfe99d7ddef" x="282.516364" y="529.72" style="stroke: #000000; stroke-width: 0.8"/>
      </g>
     </g>
     <g id="text_3">
      <!-- 0.050 -->
      <g transform="translate(265.339489 545.838125) scale(0.12 -0.12)">
       <use xlink:href="#DejaVuSans-30"/>
       <use xlink:href="#DejaVuSans-2e" x="63.623047"/>
       <use xlink:href="#DejaVuSans-30" x="95.410156"/>
       <use xlink:href="#DejaVuSans-35" x="159.033203"/>
       <use xlink:href="#DejaVuSans-30" x="222.65625"/>
      </g>
     </g>
    </g>
    <g id="xtick_4">
     <g id="line2d_7">
      <path d="M 371.685682 529.72 
L 371.685682 32.64 
" clip-path="url(#p583aac24f9)" style="fill: none; stroke: #b0b0b0; stroke-width: 0.8; stroke-linecap: square"/>
     </g>
     <g id="line2d_8">
      <g>
       <use xlink:href="#mfe99d7ddef" x="371.685682" y="529.72" style="stroke: #000000; stroke-width: 0.8"/>
      </g>
     </g>
     <g id="text_4">
      <!-- 0.075 -->
      <g transform="translate(354.508807 545.838125) scale(0.12 -0.12)">
       <defs>
        <path id="DejaVuSans-37" d="M 525 4666 
L 3525 4666 
L 3525 4397 
L 1831 0 
L 1172 0 
L 2766 4134 
L 525 4134 
L 525 4666 
z
" transform="scale(0.015625)"/>
       </defs>
       <use xlink:href="#DejaVuSans-30"/>
       <use xlink:href="#DejaVuSans-2e" x="63.623047"/>
       <use xlink:href="#DejaVuSans-30" x="95.410156"/>
       <use xlink:href="#DejaVuSans-37" x="159.033203"/>
       <use xlink:href="#DejaVuSans-35" x="222.65625"/>
      </g>
     </g>
    </g>
    <g id="xtick_5">
     <g id="line2d_9">
      <path d="M 460.855 529.72 
L 460.855 32.64 
" clip-path="url(#p583aac24f9)" style="fill: none; stroke: #b0b0b0; stroke-width: 0.8; stroke-linecap: square"/>
     </g>
     <g id="line2d_10">
      <g>
       <use xlink:href="#mfe99d7ddef" x="460.855" y="529.72" style="stroke: #000000; stroke-width: 0.8"/>
      </g>
     </g>
     <g id="text_5">
      <!-- 0.100 -->
      <g transform="translate(443.678125 545.838125) scale(0.12 -0.12)">
       <defs>
        <path id="DejaVuSans-31" d="M 794 531 
L 1825 531 
L 1825 4091 
L 703 3866 
L 703 4441 
L 1819 4666 
L 2450 4666 
L 2450 531 
L 3481 531 
L 3481 0 
L 794 0 
L 794 531 
z
" transform="scale(0.015625)"/>
       </defs>
       <use xlink:href="#DejaVuSans-30"/>
       <use xlink:href="#DejaVuSans-2e" x="63.623047"/>
       <use xlink:href="#DejaVuSans-31" x="95.410156"/>
       <use xlink:href="#DejaVuSans-30" x="159.033203"/>
       <use xlink:href="#DejaVuSans-30" x="222.65625"/>
      </g>
     </g>
    </g>
    <g id="xtick_6">
     <g id="line2d_11">
      <path d="M 550.024318 529.72 
L 550.024318 32.64 
" clip-path="url(#p583aac24f9)" style="fill: none; stroke: #b0b0b0; stroke-width: 0.8; stroke-linecap: square"/>
     </g>
     <g id="line2d_12">
      <g>
       <use xlink:href="#mfe99d7ddef" x="550.024318" y="529.72" style="stroke: #000000; stroke-width: 0.8"/>
      </g>
     </g>
     <g id="text_6">
      <!-- 0.125 -->
      <g transform="translate(532.847443 545.838125) scale(0.12 -0.12)">
       <use xlink:href="#DejaVuSans-30"/>
       <use xlink:href="#DejaVuSans-2e" x="63.623047"/>
       <use xlink:href="#DejaVuSans-31" x="95.410156"/>
       <use xlink:href="#DejaVuSans-32" x="159.033203"/>
       <use xlink:href="#DejaVuSans-35" x="222.65625"/>
      </g>
     </g>
    </g>
    <g id="xtick_7">
     <g id="line2d_13">
      <path d="M 639.193636 529.72 
L 639.193636 32.64 
" clip-path="url(#p583aac24f9)" style="fill: none; stroke: #b0b0b0; stroke-width: 0.8; stroke-linecap: square"/>
     </g>
     <g id="line2d_14">
      <g>
       <use xlink:href="#mfe99d7ddef" x="639.193636" y="529.72" style="stroke: #000000; stroke-width: 0.8"/>
      </g>
     </g>
     <g id="text_7">
      <!-- 0.150 -->
      <g transform="translate(622.016761 545.838125) scale(0.12 -0.12)">
       <use xlink:href="#DejaVuSans-30"/>
       <use xlink:href="#DejaVuSans-2e" x="63.623047"/>
       <use xlink:href="#DejaVuSans-31" x="95.410156"/>
       <use xlink:href="#DejaVuSans-35" x="159.033203"/>
       <use xlink:href="#DejaVuSans-30" x="222.65625"/>
      </g>
     </g>
    </g>
    <g id="xtick_8">
     <g id="line2d_15">
      <path d="M 728.362955 529.72 
L 728.362955 32.64 
" clip-path="url(#p583aac24f9)" style="fill: none; stroke: #b0b0b0; stroke-width: 0.8; stroke-linecap: square"/>
     </g>
     <g id="line2d_16">
      <g>
       <use xlink:href="#mfe99d7ddef" x="728.362955" y="529.72" style="stroke: #000000; stroke-width: 0.8"/>
      </g>
     </g>
     <g id="text_8">
      <!-- 0.175 -->
      <g transform="translate(711.18608 545.838125) scale(0.12 -0.12)">
       <use xlink:href="#DejaVuSans-30"/>
       <use xlink:href="#DejaVuSans-2e" x="63.623047"/>
       <use xlink:href="#DejaVuSans-31" x="95.410156"/>
       <use xlink:href="#DejaVuSans-37" x="159.033203"/>
       <use xlink:href="#DejaVuSans-35" x="222.65625"/>
      </g>
     </g>
    </g>
    <g id="xtick_9">
     <g id="line2d_17">
      <path d="M 817.532273 529.72 
L 817.532273 32.64 
" clip-path="url(#p583aac24f9)" style="fill: none; stroke: #b0b0b0; stroke-width: 0.8; stroke-linecap: square"/>
     </g>
     <g id="line2d_18">
      <g>
       <use xlink:href="#mfe99d7ddef" x="817.532273" y="529.72" style="stroke: #000000; stroke-width: 0.8"/>
      </g>
     </g>
     <g id="text_9">
      <!-- 0.200 -->
      <g transform="translate(800.355398 545.838125) scale(0.12 -0.12)">
       <use xlink:href="#DejaVuSans-30"/>
       <use xlink:href="#DejaVuSans-2e" x="63.623047"/>
       <use xlink:href="#DejaVuSans-32" x="95.410156"/>
       <use xlink:href="#DejaVuSans-30" x="159.033203"/>
       <use xlink:href="#DejaVuSans-30" x="222.65625"/>
      </g>
     </g>
    </g>
    <g id="text_10">
     <!-- Noise standard deviation -->
     <g transform="translate(373.400937 562.971563) scale(0.14 -0.14)">
      <defs>
       <path id="DejaVuSans-4e" d="M 628 4666 
L 1478 4666 
L 3547 763 
L 3547 4666 
L 4159 4666 
L 4159 0 
L 3309 0 
L 1241 3903 
L 1241 0 
L 628 0 
L 628 4666 
z
" transform="scale(0.015625)"/>
       <path id="DejaVuSans-6f" d="M 1959 3097 
Q 1497 3097 1228 2736 
Q 959 2375 959 1747 
Q 959 1119 1226 758 
Q 1494 397 1959 397 
Q 2419 397 2687 759 
Q 2956 1122 2956 1747 
Q 2956 2369 2687 2733 
Q 2419 3097 1959 3097 
z
M 1959 3584 
Q 2709 3584 3137 3096 
Q 3566 2609 3566 1747 
Q 3566 888 3137 398 
Q 2709 -91 1959 -91 
Q 1206 -91 779 398 
Q 353 888 353 1747 
Q 353 2609 779 3096 
Q 1206 3584 1959 3584 
z
" transform="scale(0.015625)"/>
       <path id="DejaVuSans-69" d="M 603 3500 
L 1178 3500 
L 1178 0 
L 603 0 
L 603 3500 
z
M 603 4863 
L 1178 4863 
L 1178 4134 
L 603 4134 
L 603 4863 
z
" transform="scale(0.015625)"/>
       <path id="DejaVuSans-73" d="M 2834 3397 
L 2834 2853 
Q 2591 2978 2328 3040 
Q 2066 3103 1784 3103 
Q 1356 3103 1142 2972 
Q 928 2841 928 2578 
Q 928 2378 1081 2264 
Q 1234 2150 1697 2047 
L 1894 2003 
Q 2506 1872 2764 1633 
Q 3022 1394 3022 966 
Q 3022 478 2636 193 
Q 2250 -91 1575 -91 
Q 1294 -91 989 -36 
Q 684 19 347 128 
L 347 722 
Q 666 556 975 473 
Q 1284 391 1588 391 
Q 1994 391 2212 530 
Q 2431 669 2431 922 
Q 2431 1156 2273 1281 
Q 2116 1406 1581 1522 
L 1381 1569 
Q 847 1681 609 1914 
Q 372 2147 372 2553 
Q 372 3047 722 3315 
Q 1072 3584 1716 3584 
Q 2034 3584 2315 3537 
Q 2597 3491 2834 3397 
z
" transform="scale(0.015625)"/>
       <path id="DejaVuSans-65" d="M 3597 1894 
L 3597 1613 
L 953 1613 
Q 991 1019 1311 708 
Q 1631 397 2203 397 
Q 2534 397 2845 478 
Q 3156 559 3463 722 
L 3463 178 
Q 3153 47 2828 -22 
Q 2503 -91 2169 -91 
Q 1331 -91 842 396 
Q 353 884 353 1716 
Q 353 2575 817 3079 
Q 1281 3584 2069 3584 
Q 2775 3584 3186 3129 
Q 3597 2675 3597 1894 
z
M 3022 2063 
Q 3016 2534 2758 2815 
Q 2500 3097 2075 3097 
Q 1594 3097 1305 2825 
Q 1016 2553 972 2059 
L 3022 2063 
z
" transform="scale(0.015625)"/>
       <path id="DejaVuSans-20" transform="scale(0.015625)"/>
       <path id="DejaVuSans-74" d="M 1172 4494 
L 1172 3500 
L 2356 3500 
L 2356 3053 
L 1172 3053 
L 1172 1153 
Q 1172 725 1289 603 
Q 1406 481 1766 481 
L 2356 481 
L 2356 0 
L 1766 0 
Q 1100 0 847 248 
Q 594 497 594 1153 
L 594 3053 
L 172 3053 
L 172 3500 
L 594 3500 
L 594 4494 
L 1172 4494 
z
" transform="scale(0.015625)"/>
       <path id="DejaVuSans-61" d="M 2194 1759 
Q 1497 1759 1228 1600 
Q 959 1441 959 1056 
Q 959 750 1161 570 
Q 1363 391 1709 391 
Q 2188 391 2477 730 
Q 2766 1069 2766 1631 
L 2766 1759 
L 2194 1759 
z
M 3341 1997 
L 3341 0 
L 2766 0 
L 2766 531 
Q 2569 213 2275 61 
Q 1981 -91 1556 -91 
Q 1019 -91 701 211 
Q 384 513 384 1019 
Q 384 1609 779 1909 
Q 1175 2209 1959 2209 
L 2766 2209 
L 2766 2266 
Q 2766 2663 2505 2880 
Q 2244 3097 1772 3097 
Q 1472 3097 1187 3025 
Q 903 2953 641 2809 
L 641 3341 
Q 956 3463 1253 3523 
Q 1550 3584 1831 3584 
Q 2591 3584 2966 3190 
Q 3341 2797 3341 1997 
z
" transform="scale(0.015625)"/>
       <path id="DejaVuSans-6e" d="M 3513 2113 
L 3513 0 
L 2938 0 
L 2938 2094 
Q 2938 2591 2744 2837 
Q 2550 3084 2163 3084 
Q 1697 3084 1428 2787 
Q 1159 2491 1159 1978 
L 1159 0 
L 581 0 
L 581 3500 
L 1159 3500 
L 1159 2956 
Q 1366 3272 1645 3428 
Q 1925 3584 2291 3584 
Q 2894 3584 3203 3211 
Q 3513 2838 3513 2113 
z
" transform="scale(0.015625)"/>
       <path id="DejaVuSans-64" d="M 2906 2969 
L 2906 4863 
L 3481 4863 
L 3481 0 
L 2906 0 
L 2906 525 
Q 2725 213 2448 61 
Q 2172 -91 1784 -91 
Q 1150 -91 751 415 
Q 353 922 353 1747 
Q 353 2572 751 3078 
Q 1150 3584 1784 3584 
Q 2172 3584 2448 3432 
Q 2725 3281 2906 2969 
z
M 947 1747 
Q 947 1113 1208 752 
Q 1469 391 1925 391 
Q 2381 391 2643 752 
Q 2906 1113 2906 1747 
Q 2906 2381 2643 2742 
Q 2381 3103 1925 3103 
Q 1469 3103 1208 2742 
Q 947 2381 947 1747 
z
" transform="scale(0.015625)"/>
       <path id="DejaVuSans-72" d="M 2631 2963 
Q 2534 3019 2420 3045 
Q 2306 3072 2169 3072 
Q 1681 3072 1420 2755 
Q 1159 2438 1159 1844 
L 1159 0 
L 581 0 
L 581 3500 
L 1159 3500 
L 1159 2956 
Q 1341 3275 1631 3429 
Q 1922 3584 2338 3584 
Q 2397 3584 2469 3576 
Q 2541 3569 2628 3553 
L 2631 2963 
z
" transform="scale(0.015625)"/>
       <path id="DejaVuSans-76" d="M 191 3500 
L 800 3500 
L 1894 563 
L 2988 3500 
L 3597 3500 
L 2284 0 
L 1503 0 
L 191 3500 
z
" transform="scale(0.015625)"/>
      </defs>
      <use xlink:href="#DejaVuSans-4e"/>
      <use xlink:href="#DejaVuSans-6f" x="74.804688"/>
      <use xlink:href="#DejaVuSans-69" x="135.986328"/>
      <use xlink:href="#DejaVuSans-73" x="163.769531"/>
      <use xlink:href="#DejaVuSans-65" x="215.869141"/>
      <use xlink:href="#DejaVuSans-20" x="277.392578"/>
      <use xlink:href="#DejaVuSans-73" x="309.179688"/>
      <use xlink:href="#DejaVuSans-74" x="361.279297"/>
      <use xlink:href="#DejaVuSans-61" x="400.488281"/>
      <use xlink:href="#DejaVuSans-6e" x="461.767578"/>
      <use xlink:href="#DejaVuSans-64" x="525.146484"/>
      <use xlink:href="#DejaVuSans-61" x="588.623047"/>
      <use xlink:href="#DejaVuSans-72" x="649.902344"/>
      <use xlink:href="#DejaVuSans-64" x="689.265625"/>
      <use xlink:href="#DejaVuSans-20" x="752.742188"/>
      <use xlink:href="#DejaVuSans-64" x="784.529297"/>
      <use xlink:href="#DejaVuSans-65" x="848.005859"/>
      <use xlink:href="#DejaVuSans-76" x="909.529297"/>
      <use xlink:href="#DejaVuSans-69" x="968.708984"/>
      <use xlink:href="#DejaVuSans-61" x="996.492188"/>
      <use xlink:href="#DejaVuSans-74" x="1057.771484"/>
      <use xlink:href="#DejaVuSans-69" x="1096.980469"/>
      <use xlink:href="#DejaVuSans-6f" x="1124.763672"/>
      <use xlink:href="#DejaVuSans-6e" x="1185.945312"/>
     </g>
    </g>
   </g>
   <g id="matplotlib.axis_2">
    <g id="ytick_1">
     <g id="line2d_19">
      <path d="M 68.51 482.935077 
L 853.2 482.935077 
" clip-path="url(#p583aac24f9)" style="fill: none; stroke: #b0b0b0; stroke-width: 0.8; stroke-linecap: square"/>
     </g>
     <g id="line2d_20">
      <defs>
       <path id="m8d90c7e4c0" d="M 0 0 
L -3.5 0 
" style="stroke: #000000; stroke-width: 0.8"/>
      </defs>
      <g>
       <use xlink:href="#m8d90c7e4c0" x="68.51" y="482.935077" style="stroke: #000000; stroke-width: 0.8"/>
      </g>
     </g>
     <g id="text_11">
      <!-- −800 -->
      <g transform="translate(28.549375 487.49414) scale(0.12 -0.12)">
       <defs>
        <path id="DejaVuSans-2212" d="M 678 2272 
L 4684 2272 
L 4684 1741 
L 678 1741 
L 678 2272 
z
" transform="scale(0.015625)"/>
        <path id="DejaVuSans-38" d="M 2034 2216 
Q 1584 2216 1326 1975 
Q 1069 1734 1069 1313 
Q 1069 891 1326 650 
Q 1584 409 2034 409 
Q 2484 409 2743 651 
Q 3003 894 3003 1313 
Q 3003 1734 2745 1975 
Q 2488 2216 2034 2216 
z
M 1403 2484 
Q 997 2584 770 2862 
Q 544 3141 544 3541 
Q 544 4100 942 4425 
Q 1341 4750 2034 4750 
Q 2731 4750 3128 4425 
Q 3525 4100 3525 3541 
Q 3525 3141 3298 2862 
Q 3072 2584 2669 2484 
Q 3125 2378 3379 2068 
Q 3634 1759 3634 1313 
Q 3634 634 3220 271 
Q 2806 -91 2034 -91 
Q 1263 -91 848 271 
Q 434 634 434 1313 
Q 434 1759 690 2068 
Q 947 2378 1403 2484 
z
M 1172 3481 
Q 1172 3119 1398 2916 
Q 1625 2713 2034 2713 
Q 2441 2713 2670 2916 
Q 2900 3119 2900 3481 
Q 2900 3844 2670 4047 
Q 2441 4250 2034 4250 
Q 1625 4250 1398 4047 
Q 1172 3844 1172 3481 
z
" transform="scale(0.015625)"/>
       </defs>
       <use xlink:href="#DejaVuSans-2212"/>
       <use xlink:href="#DejaVuSans-38" x="83.789062"/>
       <use xlink:href="#DejaVuSans-30" x="147.412109"/>
       <use xlink:href="#DejaVuSans-30" x="211.035156"/>
      </g>
     </g>
    </g>
    <g id="ytick_2">
     <g id="line2d_21">
      <path d="M 68.51 426.076163 
L 853.2 426.076163 
" clip-path="url(#p583aac24f9)" style="fill: none; stroke: #b0b0b0; stroke-width: 0.8; stroke-linecap: square"/>
     </g>
     <g id="line2d_22">
      <g>
       <use xlink:href="#m8d90c7e4c0" x="68.51" y="426.076163" style="stroke: #000000; stroke-width: 0.8"/>
      </g>
     </g>
     <g id="text_12">
      <!-- −700 -->
      <g transform="translate(28.549375 430.635225) scale(0.12 -0.12)">
       <use xlink:href="#DejaVuSans-2212"/>
       <use xlink:href="#DejaVuSans-37" x="83.789062"/>
       <use xlink:href="#DejaVuSans-30" x="147.412109"/>
       <use xlink:href="#DejaVuSans-30" x="211.035156"/>
      </g>
     </g>
    </g>
    <g id="ytick_3">
     <g id="line2d_23">
      <path d="M 68.51 369.217248 
L 853.2 369.217248 
" clip-path="url(#p583aac24f9)" style="fill: none; stroke: #b0b0b0; stroke-width: 0.8; stroke-linecap: square"/>
     </g>
     <g id="line2d_24">
      <g>
       <use xlink:href="#m8d90c7e4c0" x="68.51" y="369.217248" style="stroke: #000000; stroke-width: 0.8"/>
      </g>
     </g>
     <g id="text_13">
      <!-- −600 -->
      <g transform="translate(28.549375 373.77631) scale(0.12 -0.12)">
       <defs>
        <path id="DejaVuSans-36" d="M 2113 2584 
Q 1688 2584 1439 2293 
Q 1191 2003 1191 1497 
Q 1191 994 1439 701 
Q 1688 409 2113 409 
Q 2538 409 2786 701 
Q 3034 994 3034 1497 
Q 3034 2003 2786 2293 
Q 2538 2584 2113 2584 
z
M 3366 4563 
L 3366 3988 
Q 3128 4100 2886 4159 
Q 2644 4219 2406 4219 
Q 1781 4219 1451 3797 
Q 1122 3375 1075 2522 
Q 1259 2794 1537 2939 
Q 1816 3084 2150 3084 
Q 2853 3084 3261 2657 
Q 3669 2231 3669 1497 
Q 3669 778 3244 343 
Q 2819 -91 2113 -91 
Q 1303 -91 875 529 
Q 447 1150 447 2328 
Q 447 3434 972 4092 
Q 1497 4750 2381 4750 
Q 2619 4750 2861 4703 
Q 3103 4656 3366 4563 
z
" transform="scale(0.015625)"/>
       </defs>
       <use xlink:href="#DejaVuSans-2212"/>
       <use xlink:href="#DejaVuSans-36" x="83.789062"/>
       <use xlink:href="#DejaVuSans-30" x="147.412109"/>
       <use xlink:href="#DejaVuSans-30" x="211.035156"/>
      </g>
     </g>
    </g>
    <g id="ytick_4">
     <g id="line2d_25">
      <path d="M 68.51 312.358333 
L 853.2 312.358333 
" clip-path="url(#p583aac24f9)" style="fill: none; stroke: #b0b0b0; stroke-width: 0.8; stroke-linecap: square"/>
     </g>
     <g id="line2d_26">
      <g>
       <use xlink:href="#m8d90c7e4c0" x="68.51" y="312.358333" style="stroke: #000000; stroke-width: 0.8"/>
      </g>
     </g>
     <g id="text_14">
      <!-- −500 -->
      <g transform="translate(28.549375 316.917396) scale(0.12 -0.12)">
       <use xlink:href="#DejaVuSans-2212"/>
       <use xlink:href="#DejaVuSans-35" x="83.789062"/>
       <use xlink:href="#DejaVuSans-30" x="147.412109"/>
       <use xlink:href="#DejaVuSans-30" x="211.035156"/>
      </g>
     </g>
    </g>
    <g id="ytick_5">
     <g id="line2d_27">
      <path d="M 68.51 255.499418 
L 853.2 255.499418 
" clip-path="url(#p583aac24f9)" style="fill: none; stroke: #b0b0b0; stroke-width: 0.8; stroke-linecap: square"/>
     </g>
     <g id="line2d_28">
      <g>
       <use xlink:href="#m8d90c7e4c0" x="68.51" y="255.499418" style="stroke: #000000; stroke-width: 0.8"/>
      </g>
     </g>
     <g id="text_15">
      <!-- −400 -->
      <g transform="translate(28.549375 260.058481) scale(0.12 -0.12)">
       <defs>
        <path id="DejaVuSans-34" d="M 2419 4116 
L 825 1625 
L 2419 1625 
L 2419 4116 
z
M 2253 4666 
L 3047 4666 
L 3047 1625 
L 3713 1625 
L 3713 1100 
L 3047 1100 
L 3047 0 
L 2419 0 
L 2419 1100 
L 313 1100 
L 313 1709 
L 2253 4666 
z
" transform="scale(0.015625)"/>
       </defs>
       <use xlink:href="#DejaVuSans-2212"/>
       <use xlink:href="#DejaVuSans-34" x="83.789062"/>
       <use xlink:href="#DejaVuSans-30" x="147.412109"/>
       <use xlink:href="#DejaVuSans-30" x="211.035156"/>
      </g>
     </g>
    </g>
    <g id="ytick_6">
     <g id="line2d_29">
      <path d="M 68.51 198.640504 
L 853.2 198.640504 
" clip-path="url(#p583aac24f9)" style="fill: none; stroke: #b0b0b0; stroke-width: 0.8; stroke-linecap: square"/>
     </g>
     <g id="line2d_30">
      <g>
       <use xlink:href="#m8d90c7e4c0" x="68.51" y="198.640504" style="stroke: #000000; stroke-width: 0.8"/>
      </g>
     </g>
     <g id="text_16">
      <!-- −300 -->
      <g transform="translate(28.549375 203.199566) scale(0.12 -0.12)">
       <defs>
        <path id="DejaVuSans-33" d="M 2597 2516 
Q 3050 2419 3304 2112 
Q 3559 1806 3559 1356 
Q 3559 666 3084 287 
Q 2609 -91 1734 -91 
Q 1441 -91 1130 -33 
Q 819 25 488 141 
L 488 750 
Q 750 597 1062 519 
Q 1375 441 1716 441 
Q 2309 441 2620 675 
Q 2931 909 2931 1356 
Q 2931 1769 2642 2001 
Q 2353 2234 1838 2234 
L 1294 2234 
L 1294 2753 
L 1863 2753 
Q 2328 2753 2575 2939 
Q 2822 3125 2822 3475 
Q 2822 3834 2567 4026 
Q 2313 4219 1838 4219 
Q 1578 4219 1281 4162 
Q 984 4106 628 3988 
L 628 4550 
Q 988 4650 1302 4700 
Q 1616 4750 1894 4750 
Q 2613 4750 3031 4423 
Q 3450 4097 3450 3541 
Q 3450 3153 3228 2886 
Q 3006 2619 2597 2516 
z
" transform="scale(0.015625)"/>
       </defs>
       <use xlink:href="#DejaVuSans-2212"/>
       <use xlink:href="#DejaVuSans-33" x="83.789062"/>
       <use xlink:href="#DejaVuSans-30" x="147.412109"/>
       <use xlink:href="#DejaVuSans-30" x="211.035156"/>
      </g>
     </g>
    </g>
    <g id="ytick_7">
     <g id="line2d_31">
      <path d="M 68.51 141.781589 
L 853.2 141.781589 
" clip-path="url(#p583aac24f9)" style="fill: none; stroke: #b0b0b0; stroke-width: 0.8; stroke-linecap: square"/>
     </g>
     <g id="line2d_32">
      <g>
       <use xlink:href="#m8d90c7e4c0" x="68.51" y="141.781589" style="stroke: #000000; stroke-width: 0.8"/>
      </g>
     </g>
     <g id="text_17">
      <!-- −200 -->
      <g transform="translate(28.549375 146.340651) scale(0.12 -0.12)">
       <use xlink:href="#DejaVuSans-2212"/>
       <use xlink:href="#DejaVuSans-32" x="83.789062"/>
       <use xlink:href="#DejaVuSans-30" x="147.412109"/>
       <use xlink:href="#DejaVuSans-30" x="211.035156"/>
      </g>
     </g>
    </g>
    <g id="ytick_8">
     <g id="line2d_33">
      <path d="M 68.51 84.922674 
L 853.2 84.922674 
" clip-path="url(#p583aac24f9)" style="fill: none; stroke: #b0b0b0; stroke-width: 0.8; stroke-linecap: square"/>
     </g>
     <g id="line2d_34">
      <g>
       <use xlink:href="#m8d90c7e4c0" x="68.51" y="84.922674" style="stroke: #000000; stroke-width: 0.8"/>
      </g>
     </g>
     <g id="text_18">
      <!-- −100 -->
      <g transform="translate(28.549375 89.481737) scale(0.12 -0.12)">
       <use xlink:href="#DejaVuSans-2212"/>
       <use xlink:href="#DejaVuSans-31" x="83.789062"/>
       <use xlink:href="#DejaVuSans-30" x="147.412109"/>
       <use xlink:href="#DejaVuSans-30" x="211.035156"/>
      </g>
     </g>
    </g>
    <g id="text_19">
     <!-- Reward -->
     <g transform="translate(21.637812 307.249531) rotate(-90) scale(0.14 -0.14)">
      <defs>
       <path id="DejaVuSans-52" d="M 2841 2188 
Q 3044 2119 3236 1894 
Q 3428 1669 3622 1275 
L 4263 0 
L 3584 0 
L 2988 1197 
Q 2756 1666 2539 1819 
Q 2322 1972 1947 1972 
L 1259 1972 
L 1259 0 
L 628 0 
L 628 4666 
L 2053 4666 
Q 2853 4666 3247 4331 
Q 3641 3997 3641 3322 
Q 3641 2881 3436 2590 
Q 3231 2300 2841 2188 
z
M 1259 4147 
L 1259 2491 
L 2053 2491 
Q 2509 2491 2742 2702 
Q 2975 2913 2975 3322 
Q 2975 3731 2742 3939 
Q 2509 4147 2053 4147 
L 1259 4147 
z
" transform="scale(0.015625)"/>
       <path id="DejaVuSans-77" d="M 269 3500 
L 844 3500 
L 1563 769 
L 2278 3500 
L 2956 3500 
L 3675 769 
L 4391 3500 
L 4966 3500 
L 4050 0 
L 3372 0 
L 2619 2869 
L 1863 0 
L 1184 0 
L 269 3500 
z
" transform="scale(0.015625)"/>
      </defs>
      <use xlink:href="#DejaVuSans-52"/>
      <use xlink:href="#DejaVuSans-65" x="64.982422"/>
      <use xlink:href="#DejaVuSans-77" x="126.505859"/>
      <use xlink:href="#DejaVuSans-61" x="208.292969"/>
      <use xlink:href="#DejaVuSans-72" x="269.572266"/>
      <use xlink:href="#DejaVuSans-64" x="308.935547"/>
     </g>
    </g>
   </g>
   <g id="line2d_35">
    <path d="M 104.177727 248.686871 
L 111.383329 212.747143 
L 118.58893 183.939679 
L 125.794532 183.859417 
L 133.000133 227.071941 
L 140.205735 184.016373 
L 147.411336 198.07348 
L 154.616938 256.189954 
L 161.822539 241.898028 
L 169.02814 212.907409 
L 176.233742 198.438706 
L 183.439343 285.438612 
L 190.644945 183.750478 
L 197.850546 198.090755 
L 205.056148 213.814988 
L 212.261749 212.862246 
L 219.467351 212.751915 
L 226.672952 270.831892 
L 233.878554 169.639222 
L 241.084155 183.750115 
L 248.289757 198.368493 
L 255.495358 212.66592 
L 262.70096 198.221949 
L 269.906561 212.553183 
L 277.112163 284.959058 
L 284.317764 285.561122 
L 291.523365 241.713655 
L 298.728967 241.461866 
L 305.934568 227.277216 
L 313.14017 198.434673 
L 320.345771 198.309875 
L 327.551373 212.838383 
L 334.756974 257.552996 
L 341.962576 198.755797 
L 349.168177 286.315414 
L 356.373779 255.311337 
L 363.57938 250.81709 
L 370.784982 256.33985 
L 377.990583 255.161201 
L 385.196185 328.963323 
L 392.401786 265.219028 
L 399.607388 330.132095 
L 406.812989 255.09213 
L 414.01859 270.608782 
L 421.224192 300.151216 
L 428.429793 270.645308 
L 435.635395 213.035652 
L 442.840996 213.006403 
L 450.046598 359.757117 
L 457.252199 305.57086 
L 464.457801 326.073393 
L 471.663402 304.825442 
L 478.869004 322.211579 
L 486.074605 349.770826 
L 493.280207 372.756411 
L 500.485808 358.567888 
L 507.69141 398.53548 
L 514.897011 385.943823 
L 522.102612 327.003432 
L 529.308214 324.829981 
L 536.513815 382.456993 
L 543.719417 327.64534 
L 550.925018 349.914182 
L 558.13062 354.205976 
L 565.336221 386.550923 
L 572.541823 383.201643 
L 579.747424 340.733018 
L 586.953026 357.339861 
L 594.158627 391.968986 
L 601.364229 381.517795 
L 608.56983 371.061299 
L 615.775432 359.845807 
L 622.981033 390.752777 
L 630.186635 343.034536 
L 637.392236 373.293608 
L 644.597837 337.28599 
L 651.803439 361.705786 
L 659.00904 375.40035 
L 666.214642 385.566091 
L 673.420243 356.911916 
L 680.625845 402.716179 
L 687.831446 359.169441 
L 695.037048 426.752885 
L 702.242649 402.864768 
L 709.448251 402.558847 
L 716.653852 427.124211 
L 723.859454 400.687388 
L 731.065055 441.266374 
L 738.270657 404.766949 
L 745.476258 426.955334 
L 752.68186 433.60523 
L 759.887461 409.353732 
L 767.093062 382.515656 
L 774.298664 400.779384 
L 781.504265 385.639872 
L 788.709867 383.526345 
L 795.915468 442.680261 
L 803.12107 438.863812 
L 810.326671 433.631306 
L 817.532273 401.558067 
" clip-path="url(#p583aac24f9)" style="fill: none; stroke: #1f77b4; stroke-width: 1.5; stroke-linecap: square"/>
   </g>
   <g id="line2d_36">
    <path d="M 104.177727 187.951863 
L 111.383329 187.563062 
L 118.58893 174.084197 
L 125.794532 191.321691 
L 133.000133 181.624113 
L 140.205735 188.432133 
L 147.411336 221.067609 
L 154.616938 188.045056 
L 161.822539 176.957226 
L 169.02814 174.354613 
L 176.233742 179.51127 
L 183.439343 215.055665 
L 190.644945 187.117934 
L 197.850546 173.56721 
L 205.056148 173.457885 
L 212.261749 231.70021 
L 219.467351 187.199008 
L 226.672952 173.527431 
L 233.878554 187.719222 
L 241.084155 176.064835 
L 248.289757 199.876176 
L 255.495358 177.705403 
L 262.70096 190.365312 
L 269.906561 205.830886 
L 277.112163 177.670102 
L 284.317764 203.738196 
L 291.523365 189.457388 
L 298.728967 202.890758 
L 305.934568 239.929974 
L 313.14017 246.615985 
L 320.345771 188.825594 
L 327.551373 232.096064 
L 334.756974 206.066711 
L 341.962576 242.347896 
L 349.168177 231.572801 
L 356.373779 252.293518 
L 363.57938 199.143624 
L 370.784982 232.094211 
L 377.990583 200.736089 
L 385.196185 261.865206 
L 392.401786 217.802861 
L 399.607388 274.944675 
L 406.812989 237.563605 
L 414.01859 217.188539 
L 421.224192 260.467443 
L 428.429793 226.025053 
L 435.635395 256.38102 
L 442.840996 202.854546 
L 450.046598 225.390701 
L 457.252199 261.776563 
L 464.457801 232.313834 
L 471.663402 218.790936 
L 478.869004 289.710428 
L 486.074605 244.869674 
L 493.280207 251.375463 
L 500.485808 274.37979 
L 507.69141 280.229963 
L 514.897011 245.293319 
L 522.102612 261.283086 
L 529.308214 216.723416 
L 536.513815 300.440127 
L 543.719417 280.539941 
L 550.925018 262.040902 
L 558.13062 274.429973 
L 565.336221 274.562599 
L 572.541823 302.171916 
L 579.747424 291.802338 
L 586.953026 273.445219 
L 594.158627 325.569005 
L 601.364229 288.459926 
L 608.56983 319.352858 
L 615.775432 217.136634 
L 622.981033 259.562026 
L 630.186635 352.973507 
L 637.392236 264.246881 
L 644.597837 303.939273 
L 651.803439 303.966503 
L 659.00904 383.068158 
L 666.214642 346.848641 
L 673.420243 364.762699 
L 680.625845 355.64784 
L 687.831446 309.925326 
L 695.037048 290.903059 
L 702.242649 355.950578 
L 709.448251 331.171719 
L 716.653852 271.433102 
L 723.859454 301.573368 
L 731.065055 347.894421 
L 738.270657 347.855949 
L 745.476258 350.486745 
L 752.68186 348.73649 
L 759.887461 354.700663 
L 767.093062 343.05796 
L 774.298664 348.370398 
L 781.504265 358.586658 
L 788.709867 302.143055 
L 795.915468 341.645378 
L 803.12107 365.882797 
L 810.326671 395.942452 
L 817.532273 384.536571 
" clip-path="url(#p583aac24f9)" style="fill: none; stroke: #ff7f0e; stroke-width: 1.5; stroke-linecap: square"/>
   </g>
   <g id="line2d_37">
    <path d="M 104.177727 98.344222 
L 111.383329 98.306218 
L 118.58893 98.346796 
L 125.794532 98.496225 
L 133.000133 98.445756 
L 140.205735 98.333983 
L 147.411336 98.300753 
L 154.616938 98.213833 
L 161.822539 98.26567 
L 169.02814 98.18805 
L 176.233742 98.320948 
L 183.439343 98.439332 
L 190.644945 98.333127 
L 197.850546 98.345288 
L 205.056148 98.276515 
L 212.261749 98.40628 
L 219.467351 98.361453 
L 226.672952 97.919145 
L 233.878554 98.190131 
L 241.084155 98.342373 
L 248.289757 97.80976 
L 255.495358 98.467399 
L 262.70096 97.85846 
L 269.906561 98.53481 
L 277.112163 98.480283 
L 284.317764 98.593219 
L 291.523365 98.260888 
L 298.728967 98.182702 
L 305.934568 98.12649 
L 313.14017 98.412088 
L 320.345771 97.975897 
L 327.551373 97.945395 
L 334.756974 98.120381 
L 341.962576 98.142635 
L 349.168177 98.311082 
L 356.373779 98.622263 
L 363.57938 98.297821 
L 370.784982 98.187439 
L 377.990583 98.458861 
L 385.196185 98.424175 
L 392.401786 98.172246 
L 399.607388 98.727453 
L 406.812989 98.73922 
L 414.01859 98.368141 
L 421.224192 125.415719 
L 428.429793 98.580514 
L 435.635395 98.398592 
L 442.840996 98.34848 
L 450.046598 113.011815 
L 457.252199 99.202161 
L 464.457801 112.725442 
L 471.663402 99.418578 
L 478.869004 113.131512 
L 486.074605 98.739569 
L 493.280207 114.385304 
L 500.485808 114.107053 
L 507.69141 111.340608 
L 514.897011 113.425603 
L 522.102612 124.840548 
L 529.308214 127.726942 
L 536.513815 142.258906 
L 543.719417 141.402875 
L 550.925018 141.327954 
L 558.13062 127.858894 
L 565.336221 157.256549 
L 572.541823 168.631545 
L 579.747424 112.631483 
L 586.953026 127.009944 
L 594.158627 127.588989 
L 601.364229 140.500103 
L 608.56983 160.282571 
L 615.775432 185.014264 
L 622.981033 170.932255 
L 630.186635 169.58249 
L 637.392236 208.944972 
L 644.597837 212.414515 
L 651.803439 170.946597 
L 659.00904 211.002135 
L 666.214642 178.776784 
L 673.420243 155.97603 
L 680.625845 241.993922 
L 687.831446 224.3176 
L 695.037048 266.248586 
L 702.242649 222.915307 
L 709.448251 276.763896 
L 716.653852 195.280695 
L 723.859454 262.807997 
L 731.065055 225.998456 
L 738.270657 240.52883 
L 745.476258 235.482698 
L 752.68186 328.359802 
L 759.887461 295.529734 
L 767.093062 320.623045 
L 774.298664 321.813505 
L 781.504265 304.802826 
L 788.709867 293.699075 
L 795.915468 339.532729 
L 803.12107 351.585434 
L 810.326671 258.564845 
L 817.532273 307.555631 
" clip-path="url(#p583aac24f9)" style="fill: none; stroke: #2ca02c; stroke-width: 1.5; stroke-linecap: square"/>
   </g>
   <g id="patch_3">
    <path d="M 68.51 529.72 
L 68.51 32.64 
" style="fill: none; stroke: #000000; stroke-width: 0.8; stroke-linejoin: miter; stroke-linecap: square"/>
   </g>
   <g id="patch_4">
    <path d="M 853.2 529.72 
L 853.2 32.64 
" style="fill: none; stroke: #000000; stroke-width: 0.8; stroke-linejoin: miter; stroke-linecap: square"/>
   </g>
   <g id="patch_5">
    <path d="M 68.51 529.72 
L 853.2 529.72 
" style="fill: none; stroke: #000000; stroke-width: 0.8; stroke-linejoin: miter; stroke-linecap: square"/>
   </g>
   <g id="patch_6">
    <path d="M 68.51 32.64 
L 853.2 32.64 
" style="fill: none; stroke: #000000; stroke-width: 0.8; stroke-linejoin: miter; stroke-linecap: square"/>
   </g>
   <g id="text_20">
    <!-- Pendulum Robustness Comparison -->
    <g transform="translate(265.19875 26.64) scale(0.2 -0.2)">
     <defs>
      <path id="DejaVuSans-Bold-50" d="M 588 4666 
L 2584 4666 
Q 3475 4666 3951 4270 
Q 4428 3875 4428 3144 
Q 4428 2409 3951 2014 
Q 3475 1619 2584 1619 
L 1791 1619 
L 1791 0 
L 588 0 
L 588 4666 
z
M 1791 3794 
L 1791 2491 
L 2456 2491 
Q 2806 2491 2997 2661 
Q 3188 2831 3188 3144 
Q 3188 3456 2997 3625 
Q 2806 3794 2456 3794 
L 1791 3794 
z
" transform="scale(0.015625)"/>
      <path id="DejaVuSans-Bold-65" d="M 4031 1759 
L 4031 1441 
L 1416 1441 
Q 1456 1047 1700 850 
Q 1944 653 2381 653 
Q 2734 653 3104 758 
Q 3475 863 3866 1075 
L 3866 213 
Q 3469 63 3072 -14 
Q 2675 -91 2278 -91 
Q 1328 -91 801 392 
Q 275 875 275 1747 
Q 275 2603 792 3093 
Q 1309 3584 2216 3584 
Q 3041 3584 3536 3087 
Q 4031 2591 4031 1759 
z
M 2881 2131 
Q 2881 2450 2695 2645 
Q 2509 2841 2209 2841 
Q 1884 2841 1681 2658 
Q 1478 2475 1428 2131 
L 2881 2131 
z
" transform="scale(0.015625)"/>
      <path id="DejaVuSans-Bold-6e" d="M 4056 2131 
L 4056 0 
L 2931 0 
L 2931 347 
L 2931 1631 
Q 2931 2084 2911 2256 
Q 2891 2428 2841 2509 
Q 2775 2619 2662 2680 
Q 2550 2741 2406 2741 
Q 2056 2741 1856 2470 
Q 1656 2200 1656 1722 
L 1656 0 
L 538 0 
L 538 3500 
L 1656 3500 
L 1656 2988 
Q 1909 3294 2193 3439 
Q 2478 3584 2822 3584 
Q 3428 3584 3742 3212 
Q 4056 2841 4056 2131 
z
" transform="scale(0.015625)"/>
      <path id="DejaVuSans-Bold-64" d="M 2919 2988 
L 2919 4863 
L 4044 4863 
L 4044 0 
L 2919 0 
L 2919 506 
Q 2688 197 2409 53 
Q 2131 -91 1766 -91 
Q 1119 -91 703 423 
Q 288 938 288 1747 
Q 288 2556 703 3070 
Q 1119 3584 1766 3584 
Q 2128 3584 2408 3439 
Q 2688 3294 2919 2988 
z
M 2181 722 
Q 2541 722 2730 984 
Q 2919 1247 2919 1747 
Q 2919 2247 2730 2509 
Q 2541 2772 2181 2772 
Q 1825 2772 1636 2509 
Q 1447 2247 1447 1747 
Q 1447 1247 1636 984 
Q 1825 722 2181 722 
z
" transform="scale(0.015625)"/>
      <path id="DejaVuSans-Bold-75" d="M 500 1363 
L 500 3500 
L 1625 3500 
L 1625 3150 
Q 1625 2866 1622 2436 
Q 1619 2006 1619 1863 
Q 1619 1441 1641 1255 
Q 1663 1069 1716 984 
Q 1784 875 1895 815 
Q 2006 756 2150 756 
Q 2500 756 2700 1025 
Q 2900 1294 2900 1772 
L 2900 3500 
L 4019 3500 
L 4019 0 
L 2900 0 
L 2900 506 
Q 2647 200 2364 54 
Q 2081 -91 1741 -91 
Q 1134 -91 817 281 
Q 500 653 500 1363 
z
" transform="scale(0.015625)"/>
      <path id="DejaVuSans-Bold-6c" d="M 538 4863 
L 1656 4863 
L 1656 0 
L 538 0 
L 538 4863 
z
" transform="scale(0.015625)"/>
      <path id="DejaVuSans-Bold-6d" d="M 3781 2919 
Q 3994 3244 4286 3414 
Q 4578 3584 4928 3584 
Q 5531 3584 5847 3212 
Q 6163 2841 6163 2131 
L 6163 0 
L 5038 0 
L 5038 1825 
Q 5041 1866 5042 1909 
Q 5044 1953 5044 2034 
Q 5044 2406 4934 2573 
Q 4825 2741 4581 2741 
Q 4263 2741 4089 2478 
Q 3916 2216 3909 1719 
L 3909 0 
L 2784 0 
L 2784 1825 
Q 2784 2406 2684 2573 
Q 2584 2741 2328 2741 
Q 2006 2741 1831 2477 
Q 1656 2213 1656 1722 
L 1656 0 
L 531 0 
L 531 3500 
L 1656 3500 
L 1656 2988 
Q 1863 3284 2130 3434 
Q 2397 3584 2719 3584 
Q 3081 3584 3359 3409 
Q 3638 3234 3781 2919 
z
" transform="scale(0.015625)"/>
      <path id="DejaVuSans-Bold-20" transform="scale(0.015625)"/>
      <path id="DejaVuSans-Bold-52" d="M 2297 2597 
Q 2675 2597 2839 2737 
Q 3003 2878 3003 3200 
Q 3003 3519 2839 3656 
Q 2675 3794 2297 3794 
L 1791 3794 
L 1791 2597 
L 2297 2597 
z
M 1791 1766 
L 1791 0 
L 588 0 
L 588 4666 
L 2425 4666 
Q 3347 4666 3776 4356 
Q 4206 4047 4206 3378 
Q 4206 2916 3982 2619 
Q 3759 2322 3309 2181 
Q 3556 2125 3751 1926 
Q 3947 1728 4147 1325 
L 4800 0 
L 3519 0 
L 2950 1159 
Q 2778 1509 2601 1637 
Q 2425 1766 2131 1766 
L 1791 1766 
z
" transform="scale(0.015625)"/>
      <path id="DejaVuSans-Bold-6f" d="M 2203 2784 
Q 1831 2784 1636 2517 
Q 1441 2250 1441 1747 
Q 1441 1244 1636 976 
Q 1831 709 2203 709 
Q 2569 709 2762 976 
Q 2956 1244 2956 1747 
Q 2956 2250 2762 2517 
Q 2569 2784 2203 2784 
z
M 2203 3584 
Q 3106 3584 3614 3096 
Q 4122 2609 4122 1747 
Q 4122 884 3614 396 
Q 3106 -91 2203 -91 
Q 1297 -91 786 396 
Q 275 884 275 1747 
Q 275 2609 786 3096 
Q 1297 3584 2203 3584 
z
" transform="scale(0.015625)"/>
      <path id="DejaVuSans-Bold-62" d="M 2400 722 
Q 2759 722 2948 984 
Q 3138 1247 3138 1747 
Q 3138 2247 2948 2509 
Q 2759 2772 2400 2772 
Q 2041 2772 1848 2508 
Q 1656 2244 1656 1747 
Q 1656 1250 1848 986 
Q 2041 722 2400 722 
z
M 1656 2988 
Q 1888 3294 2169 3439 
Q 2450 3584 2816 3584 
Q 3463 3584 3878 3070 
Q 4294 2556 4294 1747 
Q 4294 938 3878 423 
Q 3463 -91 2816 -91 
Q 2450 -91 2169 54 
Q 1888 200 1656 506 
L 1656 0 
L 538 0 
L 538 4863 
L 1656 4863 
L 1656 2988 
z
" transform="scale(0.015625)"/>
      <path id="DejaVuSans-Bold-73" d="M 3272 3391 
L 3272 2541 
Q 2913 2691 2578 2766 
Q 2244 2841 1947 2841 
Q 1628 2841 1473 2761 
Q 1319 2681 1319 2516 
Q 1319 2381 1436 2309 
Q 1553 2238 1856 2203 
L 2053 2175 
Q 2913 2066 3209 1816 
Q 3506 1566 3506 1031 
Q 3506 472 3093 190 
Q 2681 -91 1863 -91 
Q 1516 -91 1145 -36 
Q 775 19 384 128 
L 384 978 
Q 719 816 1070 734 
Q 1422 653 1784 653 
Q 2113 653 2278 743 
Q 2444 834 2444 1013 
Q 2444 1163 2330 1236 
Q 2216 1309 1875 1350 
L 1678 1375 
Q 931 1469 631 1722 
Q 331 1975 331 2491 
Q 331 3047 712 3315 
Q 1094 3584 1881 3584 
Q 2191 3584 2531 3537 
Q 2872 3491 3272 3391 
z
" transform="scale(0.015625)"/>
      <path id="DejaVuSans-Bold-74" d="M 1759 4494 
L 1759 3500 
L 2913 3500 
L 2913 2700 
L 1759 2700 
L 1759 1216 
Q 1759 972 1856 886 
Q 1953 800 2241 800 
L 2816 800 
L 2816 0 
L 1856 0 
Q 1194 0 917 276 
Q 641 553 641 1216 
L 641 2700 
L 84 2700 
L 84 3500 
L 641 3500 
L 641 4494 
L 1759 4494 
z
" transform="scale(0.015625)"/>
      <path id="DejaVuSans-Bold-43" d="M 4288 256 
Q 3956 84 3597 -3 
Q 3238 -91 2847 -91 
Q 1681 -91 1000 561 
Q 319 1213 319 2328 
Q 319 3447 1000 4098 
Q 1681 4750 2847 4750 
Q 3238 4750 3597 4662 
Q 3956 4575 4288 4403 
L 4288 3438 
Q 3953 3666 3628 3772 
Q 3303 3878 2944 3878 
Q 2300 3878 1931 3465 
Q 1563 3053 1563 2328 
Q 1563 1606 1931 1193 
Q 2300 781 2944 781 
Q 3303 781 3628 887 
Q 3953 994 4288 1222 
L 4288 256 
z
" transform="scale(0.015625)"/>
      <path id="DejaVuSans-Bold-70" d="M 1656 506 
L 1656 -1331 
L 538 -1331 
L 538 3500 
L 1656 3500 
L 1656 2988 
Q 1888 3294 2169 3439 
Q 2450 3584 2816 3584 
Q 3463 3584 3878 3070 
Q 4294 2556 4294 1747 
Q 4294 938 3878 423 
Q 3463 -91 2816 -91 
Q 2450 -91 2169 54 
Q 1888 200 1656 506 
z
M 2400 2772 
Q 2041 2772 1848 2508 
Q 1656 2244 1656 1747 
Q 1656 1250 1848 986 
Q 2041 722 2400 722 
Q 2759 722 2948 984 
Q 3138 1247 3138 1747 
Q 3138 2247 2948 2509 
Q 2759 2772 2400 2772 
z
" transform="scale(0.015625)"/>
      <path id="DejaVuSans-Bold-61" d="M 2106 1575 
Q 1756 1575 1579 1456 
Q 1403 1338 1403 1106 
Q 1403 894 1545 773 
Q 1688 653 1941 653 
Q 2256 653 2472 879 
Q 2688 1106 2688 1447 
L 2688 1575 
L 2106 1575 
z
M 3816 1997 
L 3816 0 
L 2688 0 
L 2688 519 
Q 2463 200 2181 54 
Q 1900 -91 1497 -91 
Q 953 -91 614 226 
Q 275 544 275 1050 
Q 275 1666 698 1953 
Q 1122 2241 2028 2241 
L 2688 2241 
L 2688 2328 
Q 2688 2594 2478 2717 
Q 2269 2841 1825 2841 
Q 1466 2841 1156 2769 
Q 847 2697 581 2553 
L 581 3406 
Q 941 3494 1303 3539 
Q 1666 3584 2028 3584 
Q 2975 3584 3395 3211 
Q 3816 2838 3816 1997 
z
" transform="scale(0.015625)"/>
      <path id="DejaVuSans-Bold-72" d="M 3138 2547 
Q 2991 2616 2845 2648 
Q 2700 2681 2553 2681 
Q 2122 2681 1889 2404 
Q 1656 2128 1656 1613 
L 1656 0 
L 538 0 
L 538 3500 
L 1656 3500 
L 1656 2925 
Q 1872 3269 2151 3426 
Q 2431 3584 2822 3584 
Q 2878 3584 2943 3579 
Q 3009 3575 3134 3559 
L 3138 2547 
z
" transform="scale(0.015625)"/>
      <path id="DejaVuSans-Bold-69" d="M 538 3500 
L 1656 3500 
L 1656 0 
L 538 0 
L 538 3500 
z
M 538 4863 
L 1656 4863 
L 1656 3950 
L 538 3950 
L 538 4863 
z
" transform="scale(0.015625)"/>
     </defs>
     <use xlink:href="#DejaVuSans-Bold-50"/>
     <use xlink:href="#DejaVuSans-Bold-65" x="73.291016"/>
     <use xlink:href="#DejaVuSans-Bold-6e" x="141.113281"/>
     <use xlink:href="#DejaVuSans-Bold-64" x="212.304688"/>
     <use xlink:href="#DejaVuSans-Bold-75" x="283.886719"/>
     <use xlink:href="#DejaVuSans-Bold-6c" x="355.078125"/>
     <use xlink:href="#DejaVuSans-Bold-75" x="389.355469"/>
     <use xlink:href="#DejaVuSans-Bold-6d" x="460.546875"/>
     <use xlink:href="#DejaVuSans-Bold-20" x="564.746094"/>
     <use xlink:href="#DejaVuSans-Bold-52" x="599.560547"/>
     <use xlink:href="#DejaVuSans-Bold-6f" x="676.5625"/>
     <use xlink:href="#DejaVuSans-Bold-62" x="745.263672"/>
     <use xlink:href="#DejaVuSans-Bold-75" x="816.845703"/>
     <use xlink:href="#DejaVuSans-Bold-73" x="888.037109"/>
     <use xlink:href="#DejaVuSans-Bold-74" x="947.558594"/>
     <use xlink:href="#DejaVuSans-Bold-6e" x="995.361328"/>
     <use xlink:href="#DejaVuSans-Bold-65" x="1066.552734"/>
     <use xlink:href="#DejaVuSans-Bold-73" x="1134.375"/>
     <use xlink:href="#DejaVuSans-Bold-73" x="1193.896484"/>
     <use xlink:href="#DejaVuSans-Bold-20" x="1253.417969"/>
     <use xlink:href="#DejaVuSans-Bold-43" x="1288.232422"/>
     <use xlink:href="#DejaVuSans-Bold-6f" x="1361.621094"/>
     <use xlink:href="#DejaVuSans-Bold-6d" x="1430.322266"/>
     <use xlink:href="#DejaVuSans-Bold-70" x="1534.521484"/>
     <use xlink:href="#DejaVuSans-Bold-61" x="1606.103516"/>
     <use xlink:href="#DejaVuSans-Bold-72" x="1673.583984"/>
     <use xlink:href="#DejaVuSans-Bold-69" x="1722.900391"/>
     <use xlink:href="#DejaVuSans-Bold-73" x="1757.177734"/>
     <use xlink:href="#DejaVuSans-Bold-6f" x="1816.699219"/>
     <use xlink:href="#DejaVuSans-Bold-6e" x="1885.400391"/>
    </g>
   </g>
   <g id="legend_1">
    <g id="patch_7">
     <path d="M 786.682813 84.674375 
L 846.2 84.674375 
Q 848.2 84.674375 848.2 82.674375 
L 848.2 39.64 
Q 848.2 37.64 846.2 37.64 
L 786.682813 37.64 
Q 784.682813 37.64 784.682813 39.64 
L 784.682813 82.674375 
Q 784.682813 84.674375 786.682813 84.674375 
z
" style="fill: #ffffff; opacity: 0.8; stroke: #cccccc; stroke-linejoin: miter"/>
    </g>
    <g id="line2d_38">
     <path d="M 788.682813 45.738438 
L 798.682813 45.738438 
L 808.682813 45.738438 
" style="fill: none; stroke: #1f77b4; stroke-width: 1.5; stroke-linecap: square"/>
    </g>
    <g id="text_21">
     <!-- SHAC -->
     <g transform="translate(816.682813 49.238438) scale(0.1 -0.1)">
      <defs>
       <path id="DejaVuSans-53" d="M 3425 4513 
L 3425 3897 
Q 3066 4069 2747 4153 
Q 2428 4238 2131 4238 
Q 1616 4238 1336 4038 
Q 1056 3838 1056 3469 
Q 1056 3159 1242 3001 
Q 1428 2844 1947 2747 
L 2328 2669 
Q 3034 2534 3370 2195 
Q 3706 1856 3706 1288 
Q 3706 609 3251 259 
Q 2797 -91 1919 -91 
Q 1588 -91 1214 -16 
Q 841 59 441 206 
L 441 856 
Q 825 641 1194 531 
Q 1563 422 1919 422 
Q 2459 422 2753 634 
Q 3047 847 3047 1241 
Q 3047 1584 2836 1778 
Q 2625 1972 2144 2069 
L 1759 2144 
Q 1053 2284 737 2584 
Q 422 2884 422 3419 
Q 422 4038 858 4394 
Q 1294 4750 2059 4750 
Q 2388 4750 2728 4690 
Q 3069 4631 3425 4513 
z
" transform="scale(0.015625)"/>
       <path id="DejaVuSans-48" d="M 628 4666 
L 1259 4666 
L 1259 2753 
L 3553 2753 
L 3553 4666 
L 4184 4666 
L 4184 0 
L 3553 0 
L 3553 2222 
L 1259 2222 
L 1259 0 
L 628 0 
L 628 4666 
z
" transform="scale(0.015625)"/>
       <path id="DejaVuSans-41" d="M 2188 4044 
L 1331 1722 
L 3047 1722 
L 2188 4044 
z
M 1831 4666 
L 2547 4666 
L 4325 0 
L 3669 0 
L 3244 1197 
L 1141 1197 
L 716 0 
L 50 0 
L 1831 4666 
z
" transform="scale(0.015625)"/>
       <path id="DejaVuSans-43" d="M 4122 4306 
L 4122 3641 
Q 3803 3938 3442 4084 
Q 3081 4231 2675 4231 
Q 1875 4231 1450 3742 
Q 1025 3253 1025 2328 
Q 1025 1406 1450 917 
Q 1875 428 2675 428 
Q 3081 428 3442 575 
Q 3803 722 4122 1019 
L 4122 359 
Q 3791 134 3420 21 
Q 3050 -91 2638 -91 
Q 1578 -91 968 557 
Q 359 1206 359 2328 
Q 359 3453 968 4101 
Q 1578 4750 2638 4750 
Q 3056 4750 3426 4639 
Q 3797 4528 4122 4306 
z
" transform="scale(0.015625)"/>
      </defs>
      <use xlink:href="#DejaVuSans-53"/>
      <use xlink:href="#DejaVuSans-48" x="63.476562"/>
      <use xlink:href="#DejaVuSans-41" x="138.671875"/>
      <use xlink:href="#DejaVuSans-43" x="205.330078"/>
     </g>
    </g>
    <g id="line2d_39">
     <path d="M 788.682813 60.416563 
L 798.682813 60.416563 
L 808.682813 60.416563 
" style="fill: none; stroke: #ff7f0e; stroke-width: 1.5; stroke-linecap: square"/>
    </g>
    <g id="text_22">
     <!-- PPO -->
     <g transform="translate(816.682813 63.916563) scale(0.1 -0.1)">
      <defs>
       <path id="DejaVuSans-50" d="M 1259 4147 
L 1259 2394 
L 2053 2394 
Q 2494 2394 2734 2622 
Q 2975 2850 2975 3272 
Q 2975 3691 2734 3919 
Q 2494 4147 2053 4147 
L 1259 4147 
z
M 628 4666 
L 2053 4666 
Q 2838 4666 3239 4311 
Q 3641 3956 3641 3272 
Q 3641 2581 3239 2228 
Q 2838 1875 2053 1875 
L 1259 1875 
L 1259 0 
L 628 0 
L 628 4666 
z
" transform="scale(0.015625)"/>
       <path id="DejaVuSans-4f" d="M 2522 4238 
Q 1834 4238 1429 3725 
Q 1025 3213 1025 2328 
Q 1025 1447 1429 934 
Q 1834 422 2522 422 
Q 3209 422 3611 934 
Q 4013 1447 4013 2328 
Q 4013 3213 3611 3725 
Q 3209 4238 2522 4238 
z
M 2522 4750 
Q 3503 4750 4090 4092 
Q 4678 3434 4678 2328 
Q 4678 1225 4090 567 
Q 3503 -91 2522 -91 
Q 1538 -91 948 565 
Q 359 1222 359 2328 
Q 359 3434 948 4092 
Q 1538 4750 2522 4750 
z
" transform="scale(0.015625)"/>
      </defs>
      <use xlink:href="#DejaVuSans-50"/>
      <use xlink:href="#DejaVuSans-50" x="60.302734"/>
      <use xlink:href="#DejaVuSans-4f" x="120.605469"/>
     </g>
    </g>
    <g id="line2d_40">
     <path d="M 788.682813 75.094688 
L 798.682813 75.094688 
L 808.682813 75.094688 
" style="fill: none; stroke: #2ca02c; stroke-width: 1.5; stroke-linecap: square"/>
    </g>
    <g id="text_23">
     <!-- SAC -->
     <g transform="translate(816.682813 78.594688) scale(0.1 -0.1)">
      <use xlink:href="#DejaVuSans-53"/>
      <use xlink:href="#DejaVuSans-41" x="65.351562"/>
      <use xlink:href="#DejaVuSans-43" x="132.009766"/>
     </g>
    </g>
   </g>
  </g>
 </g>
 <defs>
  <clipPath id="p583aac24f9">
   <rect x="68.51" y="32.64" width="784.69" height="497.08"/>
  </clipPath>
 </defs>
</svg>
