<?xml version="1.0" encoding="utf-8" standalone="no"?>
<!DOCTYPE svg PUBLIC "-//W3C//DTD SVG 1.1//EN"
  "http://www.w3.org/Graphics/SVG/1.1/DTD/svg11.dtd">
<svg xmlns:xlink="http://www.w3.org/1999/xlink" width="864pt" height="576pt" viewBox="0 0 864 576" xmlns="http://www.w3.org/2000/svg" version="1.1">
 <metadata>
  <rdf:RDF xmlns:dc="http://purl.org/dc/elements/1.1/" xmlns:cc="http://creativecommons.org/ns#" xmlns:rdf="http://www.w3.org/1999/02/22-rdf-syntax-ns#">
   <cc:Work>
    <dc:type rdf:resource="http://purl.org/dc/dcmitype/StillImage"/>
    <dc:date>2024-07-26T09:09:30.374765</dc:date>
    <dc:format>image/svg+xml</dc:format>
    <dc:creator>
     <cc:Agent>
      <dc:title>Matplotlib v3.8.4, https://matplotlib.org/</dc:title>
     </cc:Agent>
    </dc:creator>
   </cc:Work>
  </rdf:RDF>
 </metadata>
 <defs>
  <style type="text/css">*{stroke-linejoin: round; stroke-linecap: butt}</style>
 </defs>
 <g id="figure_1">
  <g id="patch_1">
   <path d="M 0 576 
L 864 576 
L 864 0 
L 0 0 
z
" style="fill: #f2d8bd"/>
  </g>
  <g id="axes_1">
   <g id="patch_2">
    <path d="M 108 512.64 
L 777.6 512.64 
L 777.6 69.12 
L 108 69.12 
z
" style="fill: #ffffff"/>
   </g>
   <g id="PolyCollection_1">
    <defs>
     <path id="m25773b24d4" d="M 138.436364 -470.836652 
L 138.436364 -209.800781 
L 144.844019 -208.463003 
L 151.251675 -208.305958 
L 157.65933 -209.176313 
L 164.066986 -258.292996 
L 170.474641 -299.495594 
L 176.882297 -306.131342 
L 183.289952 -263.927271 
L 189.697608 -263.143042 
L 196.105263 -263.029214 
L 202.512919 -269.238997 
L 208.920574 -262.722844 
L 215.32823 -305.059949 
L 221.735885 -309.119082 
L 228.143541 -259.796113 
L 234.551196 -210.237975 
L 240.958852 -210.808623 
L 247.366507 -210.876817 
L 253.774163 -204.945219 
L 260.181818 -248.023864 
L 266.589474 -247.565967 
L 272.997129 -246.932598 
L 279.404785 -204.861822 
L 285.81244 -209.918782 
L 292.220096 -166.274418 
L 298.627751 -168.067675 
L 305.035407 -168.177595 
L 311.443062 -168.245302 
L 317.850718 -161.992906 
L 324.258373 -164.296465 
L 330.666029 -169.501428 
L 337.073684 -170.012495 
L 343.48134 -169.478656 
L 349.888995 -170.600339 
L 356.296651 -167.705388 
L 362.704306 -160.911418 
L 369.111962 -160.298841 
L 375.519617 -159.670836 
L 381.927273 -159.664793 
L 388.334928 -153.935302 
L 394.742584 -155.227449 
L 401.150239 -154.838841 
L 407.557895 -153.95646 
L 413.96555 -159.448064 
L 420.373206 -165.675456 
L 426.780861 -170.509105 
L 433.188517 -171.822155 
L 439.596172 -172.636253 
L 446.003828 -166.777848 
L 452.411483 -165.456782 
L 458.819139 -153.255285 
L 465.226794 -149.805238 
L 471.63445 -146.091594 
L 478.042105 -145.126182 
L 484.449761 -143.467966 
L 490.857416 -145.803896 
L 497.265072 -146.681639 
L 503.672727 -146.086094 
L 510.080383 -148.146668 
L 516.488038 -141.069614 
L 522.895694 -143.63066 
L 529.303349 -135.518931 
L 535.711005 -137.289759 
L 542.11866 -128.38531 
L 548.526316 -132.61999 
L 554.933971 -126.995964 
L 561.341627 -132.462325 
L 567.749282 -130.296447 
L 574.156938 -131.391202 
L 580.564593 -132.659678 
L 586.972249 -131.49062 
L 593.379904 -129.731308 
L 599.78756 -125.505291 
L 606.195215 -123.982637 
L 612.602871 -124.822226 
L 619.010526 -120.467723 
L 625.418182 -110.366341 
L 631.825837 -106.783832 
L 638.233493 -101.083859 
L 644.641148 -89.015866 
L 651.048804 -87.146752 
L 657.456459 -87.534473 
L 663.864115 -84.933303 
L 670.27177 -85.381086 
L 676.679426 -90.128755 
L 683.087081 -91.281981 
L 689.494737 -92.726396 
L 695.902392 -92.813322 
L 702.310048 -89.619357 
L 708.717703 -92.58068 
L 715.125359 -91.87469 
L 721.533014 -94.052748 
L 727.94067 -88.687725 
L 734.348325 -93.465993 
L 740.755981 -92.138286 
L 747.163636 -83.52 
L 747.163636 -351.647445 
L 747.163636 -351.647445 
L 740.755981 -363.035744 
L 734.348325 -359.123898 
L 727.94067 -353.615205 
L 721.533014 -354.93667 
L 715.125359 -350.586046 
L 708.717703 -360.742373 
L 702.310048 -365.854214 
L 695.902392 -379.975983 
L 689.494737 -384.914687 
L 683.087081 -395.879942 
L 676.679426 -395.615889 
L 670.27177 -374.05442 
L 663.864115 -369.25114 
L 657.456459 -377.253567 
L 651.048804 -377.215959 
L 644.641148 -365.982549 
L 638.233493 -399.205698 
L 631.825837 -410.585728 
L 625.418182 -404.948927 
L 619.010526 -411.791694 
L 612.602871 -428.292839 
L 606.195215 -424.378948 
L 599.78756 -424.035019 
L 593.379904 -432.878298 
L 586.972249 -438.33191 
L 580.564593 -439.141261 
L 574.156938 -436.596968 
L 567.749282 -438.904276 
L 561.341627 -442.580313 
L 554.933971 -435.266052 
L 548.526316 -440.468254 
L 542.11866 -431.982567 
L 535.711005 -440.44701 
L 529.303349 -435.449767 
L 522.895694 -445.164998 
L 516.488038 -441.831896 
L 510.080383 -457.279374 
L 503.672727 -454.444402 
L 497.265072 -455.694534 
L 490.857416 -454.424287 
L 484.449761 -452.397997 
L 478.042105 -451.446188 
L 471.63445 -453.435803 
L 465.226794 -462.727609 
L 458.819139 -470.455126 
L 452.411483 -476.177945 
L 446.003828 -479.22676 
L 439.596172 -478.656465 
L 433.188517 -475.343045 
L 426.780861 -472.416083 
L 420.373206 -477.44563 
L 413.96555 -469.874888 
L 407.557895 -471.599555 
L 401.150239 -471.426672 
L 394.742584 -471.253668 
L 388.334928 -468.333915 
L 381.927273 -476.128385 
L 375.519617 -476.051912 
L 369.111962 -479.406068 
L 362.704306 -482.735963 
L 356.296651 -484.012067 
L 349.888995 -486.72 
L 343.48134 -483.504456 
L 337.073684 -483.325823 
L 330.666029 -480.084429 
L 324.258373 -481.824319 
L 317.850718 -479.089091 
L 311.443062 -484.322113 
L 305.035407 -484.412346 
L 298.627751 -484.473706 
L 292.220096 -481.568632 
L 285.81244 -470.494269 
L 279.404785 -468.672845 
L 272.997129 -454.575697 
L 266.589474 -454.341186 
L 260.181818 -454.226189 
L 253.774163 -468.735824 
L 247.366507 -470.255803 
L 240.958852 -470.279795 
L 234.551196 -470.490193 
L 228.143541 -457.544756 
L 221.735885 -441.183811 
L 215.32823 -439.035935 
L 208.920574 -449.759566 
L 202.512919 -447.673683 
L 196.105263 -449.595132 
L 189.697608 -449.624672 
L 183.289952 -452.949273 
L 176.882297 -442.309914 
L 170.474641 -444.454335 
L 164.066986 -454.834451 
L 157.65933 -467.565946 
L 151.251675 -467.855922 
L 144.844019 -467.738865 
L 138.436364 -470.836652 
z
" style="stroke: #ff7700; stroke-opacity: 0.2"/>
    </defs>
    <g clip-path="url(#p4d774bc62f)">
     <use xlink:href="#m25773b24d4" x="0" y="576" style="fill: #ff7700; fill-opacity: 0.2; stroke: #ff7700; stroke-opacity: 0.2"/>
    </g>
   </g>
   <g id="PolyCollection_2">
    <defs>
     <path id="m81b5ff151e" d="M 138.436364 -425.550163 
L 138.436364 -286.64614 
L 144.844019 -286.655145 
L 151.251675 -286.694922 
L 157.65933 -286.685503 
L 164.066986 -286.713004 
L 170.474641 -286.671395 
L 176.882297 -286.675109 
L 183.289952 -286.64502 
L 189.697608 -286.634553 
L 196.105263 -286.594141 
L 202.512919 -286.593048 
L 208.920574 -281.922523 
L 215.32823 -281.922297 
L 221.735885 -281.875304 
L 228.143541 -281.873215 
L 234.551196 -281.928504 
L 240.958852 -286.622988 
L 247.366507 -286.597945 
L 253.774163 -286.693783 
L 260.181818 -286.690854 
L 266.589474 -286.702884 
L 272.997129 -286.652319 
L 279.404785 -286.60821 
L 285.81244 -285.415884 
L 292.220096 -284.24768 
L 298.627751 -284.215465 
L 305.035407 -283.086763 
L 311.443062 -281.292322 
L 317.850718 -281.251206 
L 324.258373 -282.331303 
L 330.666029 -276.289525 
L 337.073684 -276.241313 
L 343.48134 -278.079472 
L 349.888995 -278.095421 
L 356.296651 -276.948757 
L 362.704306 -274.778397 
L 369.111962 -271.30636 
L 375.519617 -267.237647 
L 381.927273 -266.794825 
L 388.334928 -266.854039 
L 394.742584 -266.914263 
L 401.150239 -257.183404 
L 407.557895 -251.213885 
L 413.96555 -248.797779 
L 420.373206 -240.118075 
L 426.780861 -227.349591 
L 433.188517 -222.421446 
L 439.596172 -216.014727 
L 446.003828 -212.224825 
L 452.411483 -199.44975 
L 458.819139 -208.139739 
L 465.226794 -207.20496 
L 471.63445 -209.07002 
L 478.042105 -198.331374 
L 484.449761 -203.425706 
L 490.857416 -198.31854 
L 497.265072 -188.088912 
L 503.672727 -171.693496 
L 510.080383 -162.198872 
L 516.488038 -155.739998 
L 522.895694 -154.679504 
L 529.303349 -160.951847 
L 535.711005 -170.884666 
L 542.11866 -174.192176 
L 548.526316 -171.893444 
L 554.933971 -171.334335 
L 561.341627 -167.803424 
L 567.749282 -162.415988 
L 574.156938 -156.765892 
L 580.564593 -155.525271 
L 586.972249 -150.278307 
L 593.379904 -151.95203 
L 599.78756 -158.001726 
L 606.195215 -155.988387 
L 612.602871 -159.042759 
L 619.010526 -155.312374 
L 625.418182 -149.020934 
L 631.825837 -146.526551 
L 638.233493 -154.546296 
L 644.641148 -148.584547 
L 651.048804 -149.815909 
L 657.456459 -153.58905 
L 663.864115 -149.360391 
L 670.27177 -142.666052 
L 676.679426 -146.03696 
L 683.087081 -142.272055 
L 689.494737 -138.144359 
L 695.902392 -138.94154 
L 702.310048 -137.136454 
L 708.717703 -134.586109 
L 715.125359 -134.970682 
L 721.533014 -140.968034 
L 727.94067 -137.957621 
L 734.348325 -134.904604 
L 740.755981 -135.337488 
L 747.163636 -137.897133 
L 747.163636 -215.26113 
L 747.163636 -215.26113 
L 740.755981 -224.562788 
L 734.348325 -223.627392 
L 727.94067 -228.951822 
L 721.533014 -242.81695 
L 715.125359 -229.382811 
L 708.717703 -230.467368 
L 702.310048 -223.434073 
L 695.902392 -213.576816 
L 689.494737 -202.293232 
L 683.087081 -219.450318 
L 676.679426 -224.00831 
L 670.27177 -230.037149 
L 663.864115 -245.433332 
L 657.456459 -249.253199 
L 651.048804 -234.063525 
L 644.641148 -240.143141 
L 638.233493 -250.632358 
L 631.825837 -242.524456 
L 625.418182 -245.197706 
L 619.010526 -262.201021 
L 612.602871 -253.806727 
L 606.195215 -244.750166 
L 599.78756 -243.031279 
L 593.379904 -249.223343 
L 586.972249 -248.896881 
L 580.564593 -253.850466 
L 574.156938 -267.505556 
L 567.749282 -275.078691 
L 561.341627 -275.569154 
L 554.933971 -282.294328 
L 548.526316 -277.017041 
L 542.11866 -278.641147 
L 535.711005 -288.169383 
L 529.303349 -292.139892 
L 522.895694 -289.635528 
L 516.488038 -301.468516 
L 510.080383 -308.132493 
L 503.672727 -309.604542 
L 497.265072 -307.799705 
L 490.857416 -318.690625 
L 484.449761 -316.075652 
L 478.042105 -315.843533 
L 471.63445 -325.389075 
L 465.226794 -321.589404 
L 458.819139 -317.324842 
L 452.411483 -324.583143 
L 446.003828 -334.345713 
L 439.596172 -323.129002 
L 433.188517 -336.617119 
L 426.780861 -345.33023 
L 420.373206 -354.687744 
L 413.96555 -359.718212 
L 407.557895 -370.804594 
L 401.150239 -377.46863 
L 394.742584 -390.198091 
L 388.334928 -390.330068 
L 381.927273 -390.262948 
L 375.519617 -398.888627 
L 369.111962 -408.372302 
L 362.704306 -405.043779 
L 356.296651 -416.561365 
L 349.888995 -419.970262 
L 343.48134 -420.001235 
L 337.073684 -412.817814 
L 330.666029 -412.804539 
L 324.258373 -411.292721 
L 317.850718 -407.962607 
L 311.443062 -408.002233 
L 305.035407 -415.234631 
L 298.627751 -418.616351 
L 292.220096 -418.617642 
L 285.81244 -421.993721 
L 279.404785 -425.361943 
L 272.997129 -425.378631 
L 266.589474 -425.363765 
L 260.181818 -425.371039 
L 253.774163 -425.350842 
L 247.366507 -425.336645 
L 240.958852 -425.341932 
L 234.551196 -425.435612 
L 228.143541 -425.448173 
L 221.735885 -425.486059 
L 215.32823 -425.518801 
L 208.920574 -425.542348 
L 202.512919 -425.472747 
L 196.105263 -425.493635 
L 189.697608 -425.482181 
L 183.289952 -425.493126 
L 176.882297 -425.483421 
L 170.474641 -425.492314 
L 164.066986 -425.505282 
L 157.65933 -425.523102 
L 151.251675 -425.501053 
L 144.844019 -425.528106 
L 138.436364 -425.550163 
z
" style="stroke: #004777; stroke-opacity: 0.2"/>
    </defs>
    <g clip-path="url(#p4d774bc62f)">
     <use xlink:href="#m81b5ff151e" x="0" y="576" style="fill: #004777; fill-opacity: 0.2; stroke: #004777; stroke-opacity: 0.2"/>
    </g>
   </g>
   <g id="PolyCollection_3">
    <defs>
     <path id="mdbc19e927c" d="M 138.436364 -414.019503 
L 138.436364 -409.602827 
L 144.844019 -409.625452 
L 151.251675 -409.608335 
L 157.65933 -409.639234 
L 164.066986 -409.679975 
L 170.474641 -409.713522 
L 176.882297 -409.710126 
L 183.289952 -409.710901 
L 189.697608 -409.719878 
L 196.105263 -409.70293 
L 202.512919 -409.698949 
L 208.920574 -409.715228 
L 215.32823 -409.732176 
L 221.735885 -409.847056 
L 228.143541 -409.903893 
L 234.551196 -409.914747 
L 240.958852 -410.06831 
L 247.366507 -410.095933 
L 253.774163 -410.128574 
L 260.181818 -410.076659 
L 266.589474 -410.076543 
L 272.997129 -409.903197 
L 279.404785 -409.981976 
L 285.81244 -409.913336 
L 292.220096 -410.024344 
L 298.627751 -410.069413 
L 305.035407 -410.275643 
L 311.443062 -410.331127 
L 317.850718 -410.385696 
L 324.258373 -410.443233 
L 330.666029 -410.469963 
L 337.073684 -410.364591 
L 343.48134 -410.301251 
L 349.888995 -410.267887 
L 356.296651 -410.130566 
L 362.704306 -410.123988 
L 369.111962 -410.159378 
L 375.519617 -410.077251 
L 381.927273 -410.007896 
L 388.334928 -410.057154 
L 394.742584 -409.968548 
L 401.150239 -409.916441 
L 407.557895 -410.006016 
L 413.96555 -410.097171 
L 420.373206 -404.126922 
L 426.780861 -404.143117 
L 433.188517 -404.180248 
L 439.596172 -403.928629 
L 446.003828 -397.805339 
L 452.411483 -403.762789 
L 458.819139 -397.151073 
L 465.226794 -396.787693 
L 471.63445 -391.651918 
L 478.042105 -391.111121 
L 484.449761 -382.489972 
L 490.857416 -372.681214 
L 497.265072 -363.478924 
L 503.672727 -362.589045 
L 510.080383 -357.796618 
L 516.488038 -356.393111 
L 522.895694 -352.128909 
L 529.303349 -348.972587 
L 535.711005 -349.290655 
L 542.11866 -340.328414 
L 548.526316 -338.564862 
L 554.933971 -344.69367 
L 561.341627 -340.790321 
L 567.749282 -331.669078 
L 574.156938 -335.396475 
L 580.564593 -334.40179 
L 586.972249 -322.910058 
L 593.379904 -306.858065 
L 599.78756 -295.965766 
L 606.195215 -284.282696 
L 612.602871 -280.743906 
L 619.010526 -288.910255 
L 625.418182 -286.742792 
L 631.825837 -289.901132 
L 638.233493 -289.748173 
L 644.641148 -279.702175 
L 651.048804 -265.561878 
L 657.456459 -283.158227 
L 663.864115 -270.770669 
L 670.27177 -270.650436 
L 676.679426 -254.879445 
L 683.087081 -262.623639 
L 689.494737 -242.003217 
L 695.902392 -239.092541 
L 702.310048 -228.376451 
L 708.717703 -229.780167 
L 715.125359 -202.460074 
L 721.533014 -190.058034 
L 727.94067 -188.501896 
L 734.348325 -186.485392 
L 740.755981 -194.502447 
L 747.163636 -198.596455 
L 747.163636 -316.618337 
L 747.163636 -316.618337 
L 740.755981 -317.765189 
L 734.348325 -318.201842 
L 727.94067 -326.244237 
L 721.533014 -324.44581 
L 715.125359 -324.639705 
L 708.717703 -336.610785 
L 702.310048 -351.506852 
L 695.902392 -344.351218 
L 689.494737 -365.881033 
L 683.087081 -368.80762 
L 676.679426 -365.7712 
L 670.27177 -359.816012 
L 663.864115 -359.524079 
L 657.456459 -358.797571 
L 651.048804 -362.507137 
L 644.641148 -370.779033 
L 638.233493 -381.591635 
L 631.825837 -390.796354 
L 625.418182 -393.549583 
L 619.010526 -391.844467 
L 612.602871 -395.501041 
L 606.195215 -392.136271 
L 599.78756 -388.950961 
L 593.379904 -391.18427 
L 586.972249 -396.125416 
L 580.564593 -398.444973 
L 574.156938 -401.596472 
L 567.749282 -409.902897 
L 561.341627 -409.971882 
L 554.933971 -407.68065 
L 548.526316 -404.263722 
L 542.11866 -406.86072 
L 535.711005 -406.740216 
L 529.303349 -407.015226 
L 522.895694 -412.245836 
L 516.488038 -412.98544 
L 510.080383 -412.642555 
L 503.672727 -416.187352 
L 497.265072 -415.896408 
L 490.857416 -415.494298 
L 484.449761 -418.741936 
L 478.042105 -418.264447 
L 471.63445 -418.051515 
L 465.226794 -416.633021 
L 458.819139 -416.765105 
L 452.411483 -414.688709 
L 446.003828 -416.47928 
L 439.596172 -414.930126 
L 433.188517 -414.956631 
L 426.780861 -414.927964 
L 420.373206 -414.847082 
L 413.96555 -413.165557 
L 407.557895 -413.17741 
L 401.150239 -413.186277 
L 394.742584 -413.260325 
L 388.334928 -413.426895 
L 381.927273 -413.444523 
L 375.519617 -413.412971 
L 369.111962 -413.460613 
L 362.704306 -413.474105 
L 356.296651 -413.486472 
L 349.888995 -413.481921 
L 343.48134 -413.532188 
L 337.073684 -413.555198 
L 330.666029 -413.59294 
L 324.258373 -413.600582 
L 317.850718 -413.632282 
L 311.443062 -413.668156 
L 305.035407 -413.676803 
L 298.627751 -413.705101 
L 292.220096 -413.708819 
L 285.81244 -413.734506 
L 279.404785 -413.755746 
L 272.997129 -413.765078 
L 266.589474 -413.79264 
L 260.181818 -413.839322 
L 253.774163 -413.842186 
L 247.366507 -413.850834 
L 240.958852 -413.875844 
L 234.551196 -413.856355 
L 228.143541 -413.870354 
L 221.735885 -413.881639 
L 215.32823 -413.899853 
L 208.920574 -413.916784 
L 202.512919 -413.938076 
L 196.105263 -413.955349 
L 189.697608 -413.967933 
L 183.289952 -413.982403 
L 176.882297 -413.98921 
L 170.474641 -413.990486 
L 164.066986 -414.001292 
L 157.65933 -414.006723 
L 151.251675 -413.99931 
L 144.844019 -414.005717 
L 138.436364 -414.019503 
z
" style="stroke: #b72b34; stroke-opacity: 0.2"/>
    </defs>
    <g clip-path="url(#p4d774bc62f)">
     <use xlink:href="#mdbc19e927c" x="0" y="576" style="fill: #b72b34; fill-opacity: 0.2; stroke: #b72b34; stroke-opacity: 0.2"/>
    </g>
   </g>
   <g id="matplotlib.axis_1">
    <g id="xtick_1">
     <g id="line2d_1">
      <path d="M 112.805742 512.64 
L 112.805742 69.12 
" clip-path="url(#p4d774bc62f)" style="fill: none; stroke: #b0b0b0; stroke-width: 0.8; stroke-linecap: square"/>
     </g>
     <g id="line2d_2">
      <defs>
       <path id="m27a29c83ad" d="M 0 0 
L 0 3.5 
" style="stroke: #000000; stroke-width: 0.8"/>
      </defs>
      <g>
       <use xlink:href="#m27a29c83ad" x="112.805742" y="512.64" style="stroke: #000000; stroke-width: 0.8"/>
      </g>
     </g>
     <g id="text_1">
      <!-- 0.000 -->
      <g transform="translate(98.566992 528.52375) scale(0.12 -0.12)">
       <defs>
        <path id="SegoeUIThis-30" d="M 1681 -75 
Q 1016 -75 642 497 
Q 269 1069 269 2150 
Q 269 3338 658 3947 
Q 1047 4556 1781 4556 
Q 3188 4556 3188 2259 
Q 3188 1122 2791 523 
Q 2394 -75 1681 -75 
z
M 1753 4122 
Q 794 4122 794 2175 
Q 794 356 1734 356 
Q 2663 356 2663 2206 
Q 2663 4122 1753 4122 
z
" transform="scale(0.015625)"/>
        <path id="SegoeUIThis-2e" d="M 697 -69 
Q 553 -69 451 34 
Q 350 138 350 281 
Q 350 425 451 529 
Q 553 634 697 634 
Q 844 634 947 529 
Q 1050 425 1050 281 
Q 1050 138 947 34 
Q 844 -69 697 -69 
z
" transform="scale(0.015625)"/>
       </defs>
       <use xlink:href="#SegoeUIThis-30"/>
       <use xlink:href="#SegoeUIThis-2e" x="53.90625"/>
       <use xlink:href="#SegoeUIThis-30" x="75.585938"/>
       <use xlink:href="#SegoeUIThis-30" x="129.492188"/>
       <use xlink:href="#SegoeUIThis-30" x="183.398438"/>
      </g>
     </g>
    </g>
    <g id="xtick_2">
     <g id="line2d_3">
      <path d="M 192.100478 512.64 
L 192.100478 69.12 
" clip-path="url(#p4d774bc62f)" style="fill: none; stroke: #b0b0b0; stroke-width: 0.8; stroke-linecap: square"/>
     </g>
     <g id="line2d_4">
      <g>
       <use xlink:href="#m27a29c83ad" x="192.100478" y="512.64" style="stroke: #000000; stroke-width: 0.8"/>
      </g>
     </g>
     <g id="text_2">
      <!-- 0.025 -->
      <g transform="translate(177.861728 528.52375) scale(0.12 -0.12)">
       <defs>
        <path id="SegoeUIThis-32" d="M 3000 0 
L 300 0 
L 300 456 
L 1606 1766 
Q 2106 2266 2320 2598 
Q 2534 2931 2534 3309 
Q 2534 3697 2312 3909 
Q 2091 4122 1681 4122 
Q 1081 4122 531 3609 
L 531 4147 
Q 1056 4556 1753 4556 
Q 2353 4556 2697 4231 
Q 3041 3906 3041 3359 
Q 3041 2928 2803 2517 
Q 2566 2106 1950 1497 
L 916 475 
L 916 463 
L 3000 463 
L 3000 0 
z
" transform="scale(0.015625)"/>
        <path id="SegoeUIThis-35" d="M 513 109 
L 513 653 
Q 972 356 1447 356 
Q 1922 356 2212 625 
Q 2503 894 2503 1338 
Q 2503 1778 2206 2025 
Q 1909 2272 1356 2272 
Q 1169 2272 653 2234 
L 653 4481 
L 2822 4481 
L 2822 4019 
L 1138 4019 
L 1138 2706 
Q 1344 2719 1519 2719 
Q 2238 2719 2631 2358 
Q 3025 1997 3025 1369 
Q 3025 719 2601 322 
Q 2178 -75 1441 -75 
Q 819 -75 513 109 
z
" transform="scale(0.015625)"/>
       </defs>
       <use xlink:href="#SegoeUIThis-30"/>
       <use xlink:href="#SegoeUIThis-2e" x="53.90625"/>
       <use xlink:href="#SegoeUIThis-30" x="75.585938"/>
       <use xlink:href="#SegoeUIThis-32" x="129.492188"/>
       <use xlink:href="#SegoeUIThis-35" x="183.398438"/>
      </g>
     </g>
    </g>
    <g id="xtick_3">
     <g id="line2d_5">
      <path d="M 271.395215 512.64 
L 271.395215 69.12 
" clip-path="url(#p4d774bc62f)" style="fill: none; stroke: #b0b0b0; stroke-width: 0.8; stroke-linecap: square"/>
     </g>
     <g id="line2d_6">
      <g>
       <use xlink:href="#m27a29c83ad" x="271.395215" y="512.64" style="stroke: #000000; stroke-width: 0.8"/>
      </g>
     </g>
     <g id="text_3">
      <!-- 0.050 -->
      <g transform="translate(257.156465 528.52375) scale(0.12 -0.12)">
       <use xlink:href="#SegoeUIThis-30"/>
       <use xlink:href="#SegoeUIThis-2e" x="53.90625"/>
       <use xlink:href="#SegoeUIThis-30" x="75.585938"/>
       <use xlink:href="#SegoeUIThis-35" x="129.492188"/>
       <use xlink:href="#SegoeUIThis-30" x="183.398438"/>
      </g>
     </g>
    </g>
    <g id="xtick_4">
     <g id="line2d_7">
      <path d="M 350.689952 512.64 
L 350.689952 69.12 
" clip-path="url(#p4d774bc62f)" style="fill: none; stroke: #b0b0b0; stroke-width: 0.8; stroke-linecap: square"/>
     </g>
     <g id="line2d_8">
      <g>
       <use xlink:href="#m27a29c83ad" x="350.689952" y="512.64" style="stroke: #000000; stroke-width: 0.8"/>
      </g>
     </g>
     <g id="text_4">
      <!-- 0.075 -->
      <g transform="translate(336.451202 528.52375) scale(0.12 -0.12)">
       <defs>
        <path id="SegoeUIThis-37" d="M 3156 4319 
L 1381 0 
L 850 0 
L 2528 4019 
L 269 4019 
L 269 4481 
L 3156 4481 
L 3156 4319 
z
" transform="scale(0.015625)"/>
       </defs>
       <use xlink:href="#SegoeUIThis-30"/>
       <use xlink:href="#SegoeUIThis-2e" x="53.90625"/>
       <use xlink:href="#SegoeUIThis-30" x="75.585938"/>
       <use xlink:href="#SegoeUIThis-37" x="129.492188"/>
       <use xlink:href="#SegoeUIThis-35" x="183.398438"/>
      </g>
     </g>
    </g>
    <g id="xtick_5">
     <g id="line2d_9">
      <path d="M 429.984689 512.64 
L 429.984689 69.12 
" clip-path="url(#p4d774bc62f)" style="fill: none; stroke: #b0b0b0; stroke-width: 0.8; stroke-linecap: square"/>
     </g>
     <g id="line2d_10">
      <g>
       <use xlink:href="#m27a29c83ad" x="429.984689" y="512.64" style="stroke: #000000; stroke-width: 0.8"/>
      </g>
     </g>
     <g id="text_5">
      <!-- 0.100 -->
      <g transform="translate(415.745939 528.52375) scale(0.12 -0.12)">
       <defs>
        <path id="SegoeUIThis-31" d="M 3084 0 
L 550 0 
L 550 450 
L 1563 450 
L 1563 3931 
L 525 3622 
L 525 4109 
L 2075 4581 
L 2075 450 
L 3084 450 
L 3084 0 
z
" transform="scale(0.015625)"/>
       </defs>
       <use xlink:href="#SegoeUIThis-30"/>
       <use xlink:href="#SegoeUIThis-2e" x="53.90625"/>
       <use xlink:href="#SegoeUIThis-31" x="75.585938"/>
       <use xlink:href="#SegoeUIThis-30" x="129.492188"/>
       <use xlink:href="#SegoeUIThis-30" x="183.398438"/>
      </g>
     </g>
    </g>
    <g id="xtick_6">
     <g id="line2d_11">
      <path d="M 509.279426 512.64 
L 509.279426 69.12 
" clip-path="url(#p4d774bc62f)" style="fill: none; stroke: #b0b0b0; stroke-width: 0.8; stroke-linecap: square"/>
     </g>
     <g id="line2d_12">
      <g>
       <use xlink:href="#m27a29c83ad" x="509.279426" y="512.64" style="stroke: #000000; stroke-width: 0.8"/>
      </g>
     </g>
     <g id="text_6">
      <!-- 0.125 -->
      <g transform="translate(495.040676 528.52375) scale(0.12 -0.12)">
       <use xlink:href="#SegoeUIThis-30"/>
       <use xlink:href="#SegoeUIThis-2e" x="53.90625"/>
       <use xlink:href="#SegoeUIThis-31" x="75.585938"/>
       <use xlink:href="#SegoeUIThis-32" x="129.492188"/>
       <use xlink:href="#SegoeUIThis-35" x="183.398438"/>
      </g>
     </g>
    </g>
    <g id="xtick_7">
     <g id="line2d_13">
      <path d="M 588.574163 512.64 
L 588.574163 69.12 
" clip-path="url(#p4d774bc62f)" style="fill: none; stroke: #b0b0b0; stroke-width: 0.8; stroke-linecap: square"/>
     </g>
     <g id="line2d_14">
      <g>
       <use xlink:href="#m27a29c83ad" x="588.574163" y="512.64" style="stroke: #000000; stroke-width: 0.8"/>
      </g>
     </g>
     <g id="text_7">
      <!-- 0.150 -->
      <g transform="translate(574.335413 528.52375) scale(0.12 -0.12)">
       <use xlink:href="#SegoeUIThis-30"/>
       <use xlink:href="#SegoeUIThis-2e" x="53.90625"/>
       <use xlink:href="#SegoeUIThis-31" x="75.585938"/>
       <use xlink:href="#SegoeUIThis-35" x="129.492188"/>
       <use xlink:href="#SegoeUIThis-30" x="183.398438"/>
      </g>
     </g>
    </g>
    <g id="xtick_8">
     <g id="line2d_15">
      <path d="M 667.8689 512.64 
L 667.8689 69.12 
" clip-path="url(#p4d774bc62f)" style="fill: none; stroke: #b0b0b0; stroke-width: 0.8; stroke-linecap: square"/>
     </g>
     <g id="line2d_16">
      <g>
       <use xlink:href="#m27a29c83ad" x="667.8689" y="512.64" style="stroke: #000000; stroke-width: 0.8"/>
      </g>
     </g>
     <g id="text_8">
      <!-- 0.175 -->
      <g transform="translate(653.63015 528.52375) scale(0.12 -0.12)">
       <use xlink:href="#SegoeUIThis-30"/>
       <use xlink:href="#SegoeUIThis-2e" x="53.90625"/>
       <use xlink:href="#SegoeUIThis-31" x="75.585938"/>
       <use xlink:href="#SegoeUIThis-37" x="129.492188"/>
       <use xlink:href="#SegoeUIThis-35" x="183.398438"/>
      </g>
     </g>
    </g>
    <g id="xtick_9">
     <g id="line2d_17">
      <path d="M 747.163636 512.64 
L 747.163636 69.12 
" clip-path="url(#p4d774bc62f)" style="fill: none; stroke: #b0b0b0; stroke-width: 0.8; stroke-linecap: square"/>
     </g>
     <g id="line2d_18">
      <g>
       <use xlink:href="#m27a29c83ad" x="747.163636" y="512.64" style="stroke: #000000; stroke-width: 0.8"/>
      </g>
     </g>
     <g id="text_9">
      <!-- 0.200 -->
      <g transform="translate(732.924886 528.52375) scale(0.12 -0.12)">
       <use xlink:href="#SegoeUIThis-30"/>
       <use xlink:href="#SegoeUIThis-2e" x="53.90625"/>
       <use xlink:href="#SegoeUIThis-32" x="75.585938"/>
       <use xlink:href="#SegoeUIThis-30" x="129.492188"/>
       <use xlink:href="#SegoeUIThis-30" x="183.398438"/>
      </g>
     </g>
    </g>
    <g id="text_10">
     <!-- Noise standard deviation -->
     <g transform="translate(343.634063 548.609375) scale(0.18 -0.18)">
      <defs>
       <path id="SegoeUIThis-4e" d="M 4200 0 
L 3556 0 
L 1250 3572 
Q 1163 3706 1106 3853 
L 1088 3853 
Q 1113 3709 1113 3238 
L 1113 0 
L 588 0 
L 588 4481 
L 1269 4481 
L 3513 966 
Q 3653 747 3694 666 
L 3706 666 
Q 3675 859 3675 1325 
L 3675 4481 
L 4200 4481 
L 4200 0 
z
" transform="scale(0.015625)"/>
       <path id="SegoeUIThis-6f" d="M 1856 -75 
Q 1147 -75 723 373 
Q 300 822 300 1563 
Q 300 2369 740 2822 
Q 1181 3275 1931 3275 
Q 2647 3275 3048 2834 
Q 3450 2394 3450 1613 
Q 3450 847 3017 386 
Q 2584 -75 1856 -75 
z
M 1894 2844 
Q 1400 2844 1112 2508 
Q 825 2172 825 1581 
Q 825 1013 1115 684 
Q 1406 356 1894 356 
Q 2391 356 2658 678 
Q 2925 1000 2925 1594 
Q 2925 2194 2658 2519 
Q 2391 2844 1894 2844 
z
" transform="scale(0.015625)"/>
       <path id="SegoeUIThis-69" d="M 781 4013 
Q 644 4013 547 4106 
Q 450 4200 450 4344 
Q 450 4488 547 4583 
Q 644 4678 781 4678 
Q 922 4678 1020 4583 
Q 1119 4488 1119 4344 
Q 1119 4206 1020 4109 
Q 922 4013 781 4013 
z
M 1031 0 
L 519 0 
L 519 3200 
L 1031 3200 
L 1031 0 
z
" transform="scale(0.015625)"/>
       <path id="SegoeUIThis-73" d="M 325 116 
L 325 666 
Q 744 356 1247 356 
Q 1922 356 1922 806 
Q 1922 934 1864 1023 
Q 1806 1113 1707 1181 
Q 1609 1250 1476 1304 
Q 1344 1359 1191 1419 
Q 978 1503 817 1589 
Q 656 1675 548 1783 
Q 441 1891 386 2028 
Q 331 2166 331 2350 
Q 331 2575 434 2748 
Q 538 2922 709 3039 
Q 881 3156 1101 3215 
Q 1322 3275 1556 3275 
Q 1972 3275 2300 3131 
L 2300 2613 
Q 1947 2844 1488 2844 
Q 1344 2844 1228 2811 
Q 1113 2778 1030 2718 
Q 947 2659 901 2576 
Q 856 2494 856 2394 
Q 856 2269 901 2184 
Q 947 2100 1034 2034 
Q 1122 1969 1247 1916 
Q 1372 1863 1531 1800 
Q 1744 1719 1912 1633 
Q 2081 1547 2200 1439 
Q 2319 1331 2383 1190 
Q 2447 1050 2447 856 
Q 2447 619 2342 444 
Q 2238 269 2063 153 
Q 1888 38 1659 -18 
Q 1431 -75 1181 -75 
Q 688 -75 325 116 
z
" transform="scale(0.015625)"/>
       <path id="SegoeUIThis-65" d="M 3091 1472 
L 831 1472 
Q 844 938 1119 647 
Q 1394 356 1875 356 
Q 2416 356 2869 713 
L 2869 231 
Q 2447 -75 1753 -75 
Q 1075 -75 687 361 
Q 300 797 300 1588 
Q 300 2334 723 2804 
Q 1147 3275 1775 3275 
Q 2403 3275 2747 2869 
Q 3091 2463 3091 1741 
L 3091 1472 
z
M 2566 1906 
Q 2563 2350 2352 2597 
Q 2141 2844 1766 2844 
Q 1403 2844 1150 2584 
Q 897 2325 838 1906 
L 2566 1906 
z
" transform="scale(0.015625)"/>
       <path id="SegoeUIThis-20" transform="scale(0.015625)"/>
       <path id="SegoeUIThis-74" d="M 2003 31 
Q 1822 -69 1525 -69 
Q 684 -69 684 869 
L 684 2763 
L 134 2763 
L 134 3200 
L 684 3200 
L 684 3981 
L 1197 4147 
L 1197 3200 
L 2003 3200 
L 2003 2763 
L 1197 2763 
L 1197 959 
Q 1197 638 1306 500 
Q 1416 363 1669 363 
Q 1863 363 2003 469 
L 2003 31 
z
" transform="scale(0.015625)"/>
       <path id="SegoeUIThis-61" d="M 2809 0 
L 2297 0 
L 2297 500 
L 2284 500 
Q 1950 -75 1300 -75 
Q 822 -75 551 178 
Q 281 431 281 850 
Q 281 1747 1338 1894 
L 2297 2028 
Q 2297 2844 1638 2844 
Q 1059 2844 594 2450 
L 594 2975 
Q 1066 3275 1681 3275 
Q 2809 3275 2809 2081 
L 2809 0 
z
M 2297 1619 
L 1525 1513 
Q 1169 1463 987 1336 
Q 806 1209 806 888 
Q 806 653 973 504 
Q 1141 356 1419 356 
Q 1800 356 2048 623 
Q 2297 891 2297 1300 
L 2297 1619 
z
" transform="scale(0.015625)"/>
       <path id="SegoeUIThis-6e" d="M 3175 0 
L 2663 0 
L 2663 1825 
Q 2663 2844 1919 2844 
Q 1534 2844 1282 2555 
Q 1031 2266 1031 1825 
L 1031 0 
L 519 0 
L 519 3200 
L 1031 3200 
L 1031 2669 
L 1044 2669 
Q 1406 3275 2094 3275 
Q 2619 3275 2897 2936 
Q 3175 2597 3175 1956 
L 3175 0 
z
" transform="scale(0.015625)"/>
       <path id="SegoeUIThis-64" d="M 3250 0 
L 2738 0 
L 2738 544 
L 2725 544 
Q 2369 -75 1625 -75 
Q 1022 -75 661 354 
Q 300 784 300 1525 
Q 300 2319 700 2797 
Q 1100 3275 1766 3275 
Q 2425 3275 2725 2756 
L 2738 2756 
L 2738 4738 
L 3250 4738 
L 3250 0 
z
M 2738 1447 
L 2738 1919 
Q 2738 2306 2481 2575 
Q 2225 2844 1831 2844 
Q 1363 2844 1094 2500 
Q 825 2156 825 1550 
Q 825 997 1083 676 
Q 1341 356 1775 356 
Q 2203 356 2470 665 
Q 2738 975 2738 1447 
z
" transform="scale(0.015625)"/>
       <path id="SegoeUIThis-72" d="M 2188 2681 
Q 2053 2784 1800 2784 
Q 1472 2784 1251 2475 
Q 1031 2166 1031 1631 
L 1031 0 
L 519 0 
L 519 3200 
L 1031 3200 
L 1031 2541 
L 1044 2541 
Q 1153 2878 1378 3067 
Q 1603 3256 1881 3256 
Q 2081 3256 2188 3213 
L 2188 2681 
z
" transform="scale(0.015625)"/>
       <path id="SegoeUIThis-76" d="M 3034 3200 
L 1759 0 
L 1256 0 
L 44 3200 
L 606 3200 
L 1419 875 
Q 1509 619 1531 428 
L 1544 428 
Q 1575 669 1644 863 
L 2494 3200 
L 3034 3200 
z
" transform="scale(0.015625)"/>
      </defs>
      <use xlink:href="#SegoeUIThis-4e"/>
      <use xlink:href="#SegoeUIThis-6f" x="74.804688"/>
      <use xlink:href="#SegoeUIThis-69" x="133.398438"/>
      <use xlink:href="#SegoeUIThis-73" x="157.617188"/>
      <use xlink:href="#SegoeUIThis-65" x="200.048828"/>
      <use xlink:href="#SegoeUIThis-20" x="252.34375"/>
      <use xlink:href="#SegoeUIThis-73" x="279.736328"/>
      <use xlink:href="#SegoeUIThis-74" x="322.167969"/>
      <use xlink:href="#SegoeUIThis-61" x="356.054688"/>
      <use xlink:href="#SegoeUIThis-6e" x="406.933594"/>
      <use xlink:href="#SegoeUIThis-64" x="463.525391"/>
      <use xlink:href="#SegoeUIThis-61" x="522.412109"/>
      <use xlink:href="#SegoeUIThis-72" x="573.291016"/>
      <use xlink:href="#SegoeUIThis-64" x="608.056641"/>
      <use xlink:href="#SegoeUIThis-20" x="666.943359"/>
      <use xlink:href="#SegoeUIThis-64" x="694.335938"/>
      <use xlink:href="#SegoeUIThis-65" x="753.222656"/>
      <use xlink:href="#SegoeUIThis-76" x="805.517578"/>
      <use xlink:href="#SegoeUIThis-69" x="853.417969"/>
      <use xlink:href="#SegoeUIThis-61" x="877.636719"/>
      <use xlink:href="#SegoeUIThis-74" x="928.515625"/>
      <use xlink:href="#SegoeUIThis-69" x="962.402344"/>
      <use xlink:href="#SegoeUIThis-6f" x="986.621094"/>
      <use xlink:href="#SegoeUIThis-6e" x="1045.214844"/>
     </g>
    </g>
   </g>
   <g id="matplotlib.axis_2">
    <g id="ytick_1">
     <g id="line2d_19">
      <path d="M 108 464.910874 
L 777.6 464.910874 
" clip-path="url(#p4d774bc62f)" style="fill: none; stroke: #b0b0b0; stroke-width: 0.8; stroke-linecap: square"/>
     </g>
     <g id="line2d_20">
      <defs>
       <path id="m6280f7533f" d="M 0 0 
L -3.5 0 
" style="stroke: #000000; stroke-width: 0.8"/>
      </defs>
      <g>
       <use xlink:href="#m6280f7533f" x="108" y="464.910874" style="stroke: #000000; stroke-width: 0.8"/>
      </g>
     </g>
     <g id="text_11">
      <!-- −800 -->
      <g transform="translate(73.385 469.352749) scale(0.12 -0.12)">
       <defs>
        <path id="SegoeUIThis-2212" d="M 3663 1656 
L 725 1656 
L 725 2075 
L 3663 2075 
L 3663 1656 
z
" transform="scale(0.015625)"/>
        <path id="SegoeUIThis-38" d="M 1281 2350 
L 1281 2363 
Q 475 2738 475 3450 
Q 475 3934 844 4245 
Q 1213 4556 1794 4556 
Q 2319 4556 2656 4265 
Q 2994 3975 2994 3519 
Q 2994 2775 2163 2363 
L 2163 2350 
Q 3144 2000 3144 1138 
Q 3144 581 2744 253 
Q 2344 -75 1631 -75 
Q 1056 -75 684 250 
Q 313 575 313 1094 
Q 313 1956 1281 2350 
z
M 2469 3456 
Q 2469 3766 2275 3944 
Q 2081 4122 1747 4122 
Q 1434 4122 1217 3936 
Q 1000 3750 1000 3463 
Q 1000 2878 1728 2581 
Q 2469 2888 2469 3456 
z
M 1694 2106 
Q 838 1766 838 1119 
Q 838 784 1086 570 
Q 1334 356 1741 356 
Q 2128 356 2373 567 
Q 2619 778 2619 1100 
Q 2619 1775 1694 2106 
z
" transform="scale(0.015625)"/>
       </defs>
       <use xlink:href="#SegoeUIThis-2212"/>
       <use xlink:href="#SegoeUIThis-38" x="68.408203"/>
       <use xlink:href="#SegoeUIThis-30" x="122.314453"/>
       <use xlink:href="#SegoeUIThis-30" x="176.220703"/>
      </g>
     </g>
    </g>
    <g id="ytick_2">
     <g id="line2d_21">
      <path d="M 108 376.076006 
L 777.6 376.076006 
" clip-path="url(#p4d774bc62f)" style="fill: none; stroke: #b0b0b0; stroke-width: 0.8; stroke-linecap: square"/>
     </g>
     <g id="line2d_22">
      <g>
       <use xlink:href="#m6280f7533f" x="108" y="376.076006" style="stroke: #000000; stroke-width: 0.8"/>
      </g>
     </g>
     <g id="text_12">
      <!-- −600 -->
      <g transform="translate(73.385 380.517881) scale(0.12 -0.12)">
       <defs>
        <path id="SegoeUIThis-36" d="M 2919 4428 
L 2919 3944 
Q 2572 4122 2188 4122 
Q 1591 4122 1233 3590 
Q 875 3059 875 2169 
L 888 2169 
Q 1200 2803 1913 2803 
Q 2500 2803 2847 2426 
Q 3194 2050 3194 1419 
Q 3194 759 2797 342 
Q 2400 -75 1788 -75 
Q 1113 -75 728 462 
Q 344 1000 344 1972 
Q 344 3150 847 3853 
Q 1350 4556 2175 4556 
Q 2644 4556 2919 4428 
z
M 1800 2369 
Q 1403 2369 1156 2100 
Q 909 1831 909 1466 
Q 909 1006 1154 681 
Q 1400 356 1806 356 
Q 2194 356 2431 639 
Q 2669 922 2669 1356 
Q 2669 1831 2441 2100 
Q 2213 2369 1800 2369 
z
" transform="scale(0.015625)"/>
       </defs>
       <use xlink:href="#SegoeUIThis-2212"/>
       <use xlink:href="#SegoeUIThis-36" x="68.408203"/>
       <use xlink:href="#SegoeUIThis-30" x="122.314453"/>
       <use xlink:href="#SegoeUIThis-30" x="176.220703"/>
      </g>
     </g>
    </g>
    <g id="ytick_3">
     <g id="line2d_23">
      <path d="M 108 287.241138 
L 777.6 287.241138 
" clip-path="url(#p4d774bc62f)" style="fill: none; stroke: #b0b0b0; stroke-width: 0.8; stroke-linecap: square"/>
     </g>
     <g id="line2d_24">
      <g>
       <use xlink:href="#m6280f7533f" x="108" y="287.241138" style="stroke: #000000; stroke-width: 0.8"/>
      </g>
     </g>
     <g id="text_13">
      <!-- −400 -->
      <g transform="translate(73.385 291.683013) scale(0.12 -0.12)">
       <defs>
        <path id="SegoeUIThis-34" d="M 3231 1191 
L 2656 1191 
L 2656 0 
L 2150 0 
L 2150 1191 
L 44 1191 
L 44 1525 
L 2038 4481 
L 2656 4481 
L 2656 1606 
L 3231 1606 
L 3231 1191 
z
M 2150 1606 
L 2150 3544 
Q 2150 3750 2163 4006 
L 2150 4006 
Q 2106 3894 1978 3663 
L 600 1606 
L 2150 1606 
z
" transform="scale(0.015625)"/>
       </defs>
       <use xlink:href="#SegoeUIThis-2212"/>
       <use xlink:href="#SegoeUIThis-34" x="68.408203"/>
       <use xlink:href="#SegoeUIThis-30" x="122.314453"/>
       <use xlink:href="#SegoeUIThis-30" x="176.220703"/>
      </g>
     </g>
    </g>
    <g id="ytick_4">
     <g id="line2d_25">
      <path d="M 108 198.40627 
L 777.6 198.40627 
" clip-path="url(#p4d774bc62f)" style="fill: none; stroke: #b0b0b0; stroke-width: 0.8; stroke-linecap: square"/>
     </g>
     <g id="line2d_26">
      <g>
       <use xlink:href="#m6280f7533f" x="108" y="198.40627" style="stroke: #000000; stroke-width: 0.8"/>
      </g>
     </g>
     <g id="text_14">
      <!-- −200 -->
      <g transform="translate(73.385 202.848145) scale(0.12 -0.12)">
       <use xlink:href="#SegoeUIThis-2212"/>
       <use xlink:href="#SegoeUIThis-32" x="68.408203"/>
       <use xlink:href="#SegoeUIThis-30" x="122.314453"/>
       <use xlink:href="#SegoeUIThis-30" x="176.220703"/>
      </g>
     </g>
    </g>
    <g id="ytick_5">
     <g id="line2d_27">
      <path d="M 108 109.571402 
L 777.6 109.571402 
" clip-path="url(#p4d774bc62f)" style="fill: none; stroke: #b0b0b0; stroke-width: 0.8; stroke-linecap: square"/>
     </g>
     <g id="line2d_28">
      <g>
       <use xlink:href="#m6280f7533f" x="108" y="109.571402" style="stroke: #000000; stroke-width: 0.8"/>
      </g>
     </g>
     <g id="text_15">
      <!-- 0 -->
      <g transform="translate(94.53125 114.013277) scale(0.12 -0.12)">
       <use xlink:href="#SegoeUIThis-30"/>
      </g>
     </g>
    </g>
    <g id="text_16">
     <!-- Reward -->
     <g transform="translate(65.245 320.222813) rotate(-90) scale(0.18 -0.18)">
      <defs>
       <path id="SegoeUIThis-52" d="M 3800 0 
L 3175 0 
L 2425 1256 
Q 2322 1431 2225 1554 
Q 2128 1678 2026 1756 
Q 1925 1834 1808 1870 
Q 1691 1906 1544 1906 
L 1113 1906 
L 1113 0 
L 588 0 
L 588 4481 
L 1925 4481 
Q 2219 4481 2467 4407 
Q 2716 4334 2898 4184 
Q 3081 4034 3184 3811 
Q 3288 3588 3288 3288 
Q 3288 3053 3217 2858 
Q 3147 2663 3017 2509 
Q 2888 2356 2705 2248 
Q 2522 2141 2294 2081 
L 2294 2069 
Q 2406 2019 2489 1955 
Q 2572 1891 2647 1803 
Q 2722 1716 2795 1605 
Q 2869 1494 2959 1347 
L 3800 0 
z
M 1113 4006 
L 1113 2381 
L 1825 2381 
Q 2022 2381 2189 2440 
Q 2356 2500 2478 2611 
Q 2600 2722 2669 2883 
Q 2738 3044 2738 3244 
Q 2738 3603 2505 3804 
Q 2272 4006 1831 4006 
L 1113 4006 
z
" transform="scale(0.015625)"/>
       <path id="SegoeUIThis-77" d="M 4550 3200 
L 3591 0 
L 3059 0 
L 2400 2291 
Q 2363 2422 2350 2588 
L 2338 2588 
Q 2328 2475 2272 2297 
L 1556 0 
L 1044 0 
L 75 3200 
L 613 3200 
L 1275 794 
Q 1306 684 1319 506 
L 1344 506 
Q 1353 644 1400 800 
L 2138 3200 
L 2606 3200 
L 3269 788 
Q 3300 672 3316 500 
L 3341 500 
Q 3347 622 3394 788 
L 4044 3200 
L 4550 3200 
z
" transform="scale(0.015625)"/>
      </defs>
      <use xlink:href="#SegoeUIThis-52"/>
      <use xlink:href="#SegoeUIThis-65" x="56.939453"/>
      <use xlink:href="#SegoeUIThis-77" x="109.234375"/>
      <use xlink:href="#SegoeUIThis-61" x="181.5"/>
      <use xlink:href="#SegoeUIThis-72" x="232.378906"/>
      <use xlink:href="#SegoeUIThis-64" x="267.144531"/>
     </g>
    </g>
   </g>
   <g id="line2d_29">
    <path d="M 138.436364 235.681284 
L 144.844019 237.899066 
L 151.251675 237.91906 
L 157.65933 237.62887 
L 164.066986 219.436277 
L 170.474641 204.025035 
L 176.882297 201.779372 
L 183.289952 217.561728 
L 189.697608 219.616143 
L 196.105263 219.687827 
L 202.512919 217.54366 
L 208.920574 219.758795 
L 215.32823 203.952058 
L 221.735885 200.848553 
L 228.143541 217.329566 
L 234.551196 235.635916 
L 240.958852 235.455791 
L 247.366507 235.43369 
L 253.774163 239.159479 
L 260.181818 224.874974 
L 266.589474 225.046424 
L 272.997129 225.245852 
L 279.404785 239.232666 
L 285.81244 235.793474 
L 292.220096 252.078475 
L 298.627751 249.729309 
L 305.035407 249.705029 
L 311.443062 249.716293 
L 317.850718 255.459002 
L 324.258373 252.939608 
L 330.666029 251.207071 
L 337.073684 249.330841 
L 343.48134 249.508444 
L 349.888995 247.339831 
L 356.296651 250.141273 
L 362.704306 254.176309 
L 369.111962 256.147545 
L 375.519617 258.138626 
L 381.927273 258.103411 
L 388.334928 264.865392 
L 394.742584 262.759441 
L 401.150239 262.867243 
L 407.557895 263.221993 
L 413.96555 261.338524 
L 420.373206 254.439457 
L 426.780861 254.537406 
L 433.188517 252.4174 
L 439.596172 250.353641 
L 446.003828 252.997696 
L 452.411483 255.182637 
L 458.819139 264.144795 
L 465.226794 269.733576 
L 471.63445 276.236301 
L 478.042105 277.713815 
L 484.449761 278.067019 
L 490.857416 275.885908 
L 497.265072 274.811913 
L 503.672727 275.734752 
L 510.080383 273.286979 
L 516.488038 284.549245 
L 522.895694 281.602171 
L 529.303349 290.515651 
L 535.711005 287.131616 
L 542.11866 295.816061 
L 548.526316 289.455878 
L 554.933971 294.868992 
L 561.341627 288.478681 
L 567.749282 291.399639 
L 574.156938 292.005915 
L 580.564593 290.09953 
L 586.972249 291.088735 
L 593.379904 294.695197 
L 599.78756 301.229845 
L 606.195215 301.819208 
L 612.602871 299.442468 
L 619.010526 309.870292 
L 625.418182 318.342366 
L 631.825837 317.31522 
L 638.233493 325.855222 
L 644.641148 348.500793 
L 651.048804 343.818645 
L 657.456459 343.60598 
L 663.864115 348.907778 
L 670.27177 346.282247 
L 676.679426 333.127678 
L 683.087081 332.419039 
L 689.494737 337.179459 
L 695.902392 339.605348 
L 702.310048 348.263214 
L 708.717703 349.338474 
L 715.125359 354.769632 
L 721.533014 351.505291 
L 727.94067 354.848535 
L 734.348325 349.705055 
L 740.755981 348.412985 
L 747.163636 358.416278 
" clip-path="url(#p4d774bc62f)" style="fill: none; stroke: #ff7700; stroke-width: 1.5; stroke-linecap: square"/>
   </g>
   <g id="line2d_30">
    <path d="M 138.436364 219.901849 
L 144.844019 219.908374 
L 151.251675 219.902013 
L 157.65933 219.895698 
L 164.066986 219.890857 
L 170.474641 219.918145 
L 176.882297 219.920735 
L 183.289952 219.930927 
L 189.697608 219.941633 
L 196.105263 219.956112 
L 202.512919 219.967102 
L 208.920574 222.267564 
L 215.32823 222.279451 
L 221.735885 222.319318 
L 228.143541 222.339306 
L 234.551196 222.317942 
L 240.958852 220.01754 
L 247.366507 220.032705 
L 253.774163 219.977688 
L 260.181818 219.969054 
L 266.589474 219.966675 
L 272.997129 219.984525 
L 279.404785 220.014924 
L 285.81244 222.295198 
L 292.220096 224.567339 
L 298.627751 224.584092 
L 305.035407 226.839303 
L 311.443062 231.352722 
L 317.850718 231.393093 
L 324.258373 229.187988 
L 330.666029 231.452968 
L 337.073684 231.470437 
L 343.48134 226.959647 
L 349.888995 226.967158 
L 356.296651 229.244939 
L 362.704306 236.088912 
L 369.111962 236.160669 
L 375.519617 242.936863 
L 381.927273 247.471114 
L 388.334928 247.407946 
L 394.742584 247.443823 
L 401.150239 258.673983 
L 407.557895 264.99076 
L 413.96555 271.742005 
L 420.373206 278.597091 
L 426.780861 289.660089 
L 433.188517 296.480717 
L 439.596172 306.428135 
L 446.003828 302.714731 
L 452.411483 313.983553 
L 458.819139 313.26771 
L 465.226794 311.602818 
L 471.63445 308.770452 
L 478.042105 318.912547 
L 484.449761 316.249321 
L 490.857416 317.495417 
L 497.265072 328.055691 
L 503.672727 335.350981 
L 510.080383 340.834318 
L 516.488038 347.395743 
L 522.895694 353.842484 
L 529.303349 349.45413 
L 535.711005 346.472975 
L 542.11866 349.583338 
L 548.526316 351.544757 
L 554.933971 349.185668 
L 561.341627 354.313711 
L 567.749282 357.252661 
L 574.156938 363.864276 
L 580.564593 371.312131 
L 586.972249 376.412406 
L 593.379904 375.412314 
L 599.78756 375.483497 
L 606.195215 375.630724 
L 612.602871 369.575257 
L 619.010526 367.243303 
L 625.418182 378.89068 
L 631.825837 381.474496 
L 638.233493 373.410673 
L 644.641148 381.636156 
L 651.048804 384.060283 
L 657.456459 374.578876 
L 663.864115 378.603139 
L 670.27177 389.648399 
L 676.679426 390.977365 
L 683.087081 395.138814 
L 689.494737 405.781205 
L 695.902392 399.740822 
L 702.310048 395.714736 
L 708.717703 393.473261 
L 715.125359 393.823254 
L 721.533014 384.107508 
L 727.94067 392.545278 
L 734.348325 396.734002 
L 740.755981 396.049862 
L 747.163636 399.420869 
" clip-path="url(#p4d774bc62f)" style="fill: none; stroke: #004777; stroke-width: 1.5; stroke-linecap: square"/>
   </g>
   <g id="line2d_31">
    <path d="M 138.436364 164.188835 
L 144.844019 164.184415 
L 151.251675 164.196177 
L 157.65933 164.177021 
L 164.066986 164.159367 
L 170.474641 164.147996 
L 176.882297 164.150332 
L 183.289952 164.153348 
L 189.697608 164.156095 
L 196.105263 164.170861 
L 202.512919 164.181488 
L 208.920574 164.183994 
L 215.32823 164.183986 
L 221.735885 164.135653 
L 228.143541 164.112877 
L 234.551196 164.114449 
L 240.958852 164.027923 
L 247.366507 164.026616 
L 253.774163 164.01462 
L 260.181818 164.042009 
L 266.589474 164.065408 
L 272.997129 164.165862 
L 279.404785 164.131139 
L 285.81244 164.176079 
L 292.220096 164.133418 
L 298.627751 164.112743 
L 305.035407 164.023777 
L 311.443062 164.000359 
L 317.850718 163.991011 
L 324.258373 163.978093 
L 330.666029 163.968549 
L 337.073684 164.040106 
L 343.48134 164.083281 
L 349.888995 164.125096 
L 356.296651 164.191481 
L 362.704306 164.200953 
L 369.111962 164.190005 
L 375.519617 164.254889 
L 381.927273 164.273791 
L 388.334928 164.257976 
L 394.742584 164.385564 
L 401.150239 164.448641 
L 407.557895 164.408287 
L 413.96555 164.368636 
L 420.373206 166.512998 
L 426.780861 166.464459 
L 433.188517 166.43156 
L 439.596172 166.570623 
L 446.003828 168.857691 
L 452.411483 166.774251 
L 458.819139 169.041911 
L 465.226794 169.289643 
L 471.63445 171.148284 
L 478.042105 171.312216 
L 484.449761 175.384046 
L 490.857416 181.912244 
L 497.265072 186.312334 
L 503.672727 186.611801 
L 510.080383 190.780413 
L 516.488038 191.310725 
L 522.895694 193.812627 
L 529.303349 198.006094 
L 535.711005 197.984564 
L 542.11866 202.405433 
L 548.526316 204.585708 
L 554.933971 199.81284 
L 561.341627 200.618898 
L 567.749282 205.214012 
L 574.156938 207.503526 
L 580.564593 209.576619 
L 586.972249 216.482263 
L 593.379904 226.978832 
L 599.78756 233.541637 
L 606.195215 237.790516 
L 612.602871 237.877527 
L 619.010526 235.622639 
L 625.418182 235.853812 
L 631.825837 235.651257 
L 638.233493 240.330096 
L 644.641148 250.759396 
L 651.048804 261.965492 
L 657.456459 255.022101 
L 663.864115 260.852626 
L 670.27177 260.766776 
L 676.679426 265.674678 
L 683.087081 260.28437 
L 689.494737 272.057875 
L 695.902392 284.278121 
L 702.310048 286.058348 
L 708.717703 292.804524 
L 715.125359 312.450111 
L 721.533014 318.748078 
L 727.94067 318.626934 
L 734.348325 323.656383 
L 740.755981 319.866182 
L 747.163636 318.392604 
" clip-path="url(#p4d774bc62f)" style="fill: none; stroke: #b72b34; stroke-width: 1.5; stroke-linecap: square"/>
   </g>
   <g id="line2d_32">
    <path d="M 108 176.197553 
L 777.6 176.197553 
" clip-path="url(#p4d774bc62f)" style="fill: none; stroke-dasharray: 5.55,2.4; stroke-dashoffset: 0; stroke: #000000; stroke-width: 1.5"/>
   </g>
   <g id="patch_3">
    <path d="M 108 512.64 
L 108 69.12 
" style="fill: none; stroke: #000000; stroke-width: 0.8; stroke-linejoin: miter; stroke-linecap: square"/>
   </g>
   <g id="patch_4">
    <path d="M 777.6 512.64 
L 777.6 69.12 
" style="fill: none; stroke: #000000; stroke-width: 0.8; stroke-linejoin: miter; stroke-linecap: square"/>
   </g>
   <g id="patch_5">
    <path d="M 108 512.64 
L 777.6 512.64 
" style="fill: none; stroke: #000000; stroke-width: 0.8; stroke-linejoin: miter; stroke-linecap: square"/>
   </g>
   <g id="patch_6">
    <path d="M 108 69.12 
L 777.6 69.12 
" style="fill: none; stroke: #000000; stroke-width: 0.8; stroke-linejoin: miter; stroke-linecap: square"/>
   </g>
   <g id="text_17">
    <!-- Pendulum Noise Robustness Comparison -->
    <g transform="translate(58.475 59.92) scale(0.4 -0.4)">
     <defs>
      <path id="SegoeUIThis-Bold-50" d="M 1522 1544 
L 1522 0 
L 513 0 
L 513 4481 
L 2094 4481 
Q 3788 4481 3788 3053 
Q 3788 2378 3302 1961 
Q 2816 1544 2003 1544 
L 1522 1544 
z
M 1522 3706 
L 1522 2309 
L 1919 2309 
Q 2725 2309 2725 3016 
Q 2725 3706 1919 3706 
L 1522 3706 
z
" transform="scale(0.015625)"/>
      <path id="SegoeUIThis-Bold-65" d="M 3291 1319 
L 1203 1319 
Q 1253 622 2081 622 
Q 2609 622 3009 872 
L 3009 159 
Q 2566 -78 1856 -78 
Q 1081 -78 653 351 
Q 225 781 225 1550 
Q 225 2347 687 2812 
Q 1150 3278 1825 3278 
Q 2525 3278 2908 2862 
Q 3291 2447 3291 1734 
L 3291 1319 
z
M 2375 1925 
Q 2375 2613 1819 2613 
Q 1581 2613 1407 2416 
Q 1234 2219 1197 1925 
L 2375 1925 
z
" transform="scale(0.015625)"/>
      <path id="SegoeUIThis-Bold-6e" d="M 3506 0 
L 2522 0 
L 2522 1778 
Q 2522 2522 1991 2522 
Q 1734 2522 1568 2325 
Q 1403 2128 1403 1825 
L 1403 0 
L 416 0 
L 416 3200 
L 1403 3200 
L 1403 2694 
L 1416 2694 
Q 1769 3278 2444 3278 
Q 3506 3278 3506 1959 
L 3506 0 
z
" transform="scale(0.015625)"/>
      <path id="SegoeUIThis-Bold-64" d="M 3547 0 
L 2559 0 
L 2559 441 
L 2547 441 
Q 2209 -78 1556 -78 
Q 956 -78 590 345 
Q 225 769 225 1528 
Q 225 2322 628 2800 
Q 1031 3278 1684 3278 
Q 2303 3278 2547 2834 
L 2559 2834 
L 2559 4738 
L 3547 4738 
L 3547 0 
z
M 2578 1556 
L 2578 1797 
Q 2578 2109 2397 2315 
Q 2216 2522 1925 2522 
Q 1597 2522 1412 2264 
Q 1228 2006 1228 1556 
Q 1228 1134 1406 906 
Q 1584 678 1900 678 
Q 2200 678 2389 918 
Q 2578 1159 2578 1556 
z
" transform="scale(0.015625)"/>
      <path id="SegoeUIThis-Bold-75" d="M 3456 0 
L 2472 0 
L 2472 488 
L 2456 488 
Q 2091 -78 1478 -78 
Q 366 -78 366 1269 
L 366 3200 
L 1350 3200 
L 1350 1356 
Q 1350 678 1888 678 
Q 2153 678 2312 864 
Q 2472 1050 2472 1369 
L 2472 3200 
L 3456 3200 
L 3456 0 
z
" transform="scale(0.015625)"/>
      <path id="SegoeUIThis-Bold-6c" d="M 1403 0 
L 416 0 
L 416 4738 
L 1403 4738 
L 1403 0 
z
" transform="scale(0.015625)"/>
      <path id="SegoeUIThis-Bold-6d" d="M 5497 0 
L 4513 0 
L 4513 1825 
Q 4513 2522 4000 2522 
Q 3756 2522 3603 2312 
Q 3450 2103 3450 1791 
L 3450 0 
L 2463 0 
L 2463 1844 
Q 2463 2522 1959 2522 
Q 1706 2522 1554 2322 
Q 1403 2122 1403 1778 
L 1403 0 
L 416 0 
L 416 3200 
L 1403 3200 
L 1403 2700 
L 1416 2700 
Q 1569 2956 1845 3117 
Q 2122 3278 2450 3278 
Q 3128 3278 3378 2681 
Q 3744 3278 4453 3278 
Q 5497 3278 5497 1991 
L 5497 0 
z
" transform="scale(0.015625)"/>
      <path id="SegoeUIThis-Bold-20" transform="scale(0.015625)"/>
      <path id="SegoeUIThis-Bold-4e" d="M 4544 0 
L 3525 0 
L 1678 2816 
Q 1516 3063 1453 3188 
L 1441 3188 
Q 1466 2950 1466 2463 
L 1466 0 
L 513 0 
L 513 4481 
L 1600 4481 
L 3378 1753 
Q 3500 1569 3603 1388 
L 3616 1388 
Q 3591 1544 3591 2003 
L 3591 4481 
L 4544 4481 
L 4544 0 
z
" transform="scale(0.015625)"/>
      <path id="SegoeUIThis-Bold-6f" d="M 1941 -78 
Q 1141 -78 683 370 
Q 225 819 225 1588 
Q 225 2381 700 2829 
Q 1175 3278 1984 3278 
Q 2781 3278 3234 2829 
Q 3688 2381 3688 1644 
Q 3688 847 3220 384 
Q 2753 -78 1941 -78 
z
M 1966 2522 
Q 1616 2522 1422 2281 
Q 1228 2041 1228 1600 
Q 1228 678 1972 678 
Q 2681 678 2681 1625 
Q 2681 2522 1966 2522 
z
" transform="scale(0.015625)"/>
      <path id="SegoeUIThis-Bold-69" d="M 916 3706 
Q 666 3706 506 3854 
Q 347 4003 347 4219 
Q 347 4441 506 4581 
Q 666 4722 916 4722 
Q 1169 4722 1326 4581 
Q 1484 4441 1484 4219 
Q 1484 3994 1326 3850 
Q 1169 3706 916 3706 
z
M 1403 0 
L 416 0 
L 416 3200 
L 1403 3200 
L 1403 0 
z
" transform="scale(0.015625)"/>
      <path id="SegoeUIThis-Bold-73" d="M 206 84 
L 206 884 
Q 450 738 692 666 
Q 934 594 1150 594 
Q 1413 594 1564 666 
Q 1716 738 1716 884 
Q 1716 978 1647 1040 
Q 1578 1103 1470 1150 
Q 1363 1197 1234 1234 
Q 1106 1272 988 1319 
Q 797 1391 651 1473 
Q 506 1556 407 1665 
Q 309 1775 257 1919 
Q 206 2063 206 2259 
Q 206 2528 323 2722 
Q 441 2916 636 3039 
Q 831 3163 1082 3220 
Q 1334 3278 1606 3278 
Q 1819 3278 2037 3245 
Q 2256 3213 2469 3150 
L 2469 2388 
Q 2281 2497 2067 2551 
Q 1853 2606 1647 2606 
Q 1550 2606 1464 2589 
Q 1378 2572 1312 2539 
Q 1247 2506 1209 2454 
Q 1172 2403 1172 2338 
Q 1172 2250 1228 2187 
Q 1284 2125 1375 2079 
Q 1466 2034 1577 1998 
Q 1688 1963 1797 1925 
Q 1994 1856 2153 1775 
Q 2313 1694 2427 1584 
Q 2541 1475 2602 1328 
Q 2663 1181 2663 978 
Q 2663 694 2539 492 
Q 2416 291 2211 164 
Q 2006 38 1739 -20 
Q 1472 -78 1184 -78 
Q 656 -78 206 84 
z
" transform="scale(0.015625)"/>
      <path id="SegoeUIThis-Bold-52" d="M 4272 0 
L 3113 0 
L 2416 1153 
Q 2338 1284 2266 1387 
Q 2194 1491 2120 1564 
Q 2047 1638 1967 1677 
Q 1888 1716 1794 1716 
L 1522 1716 
L 1522 0 
L 513 0 
L 513 4481 
L 2113 4481 
Q 3744 4481 3744 3263 
Q 3744 3028 3672 2829 
Q 3600 2631 3469 2472 
Q 3338 2313 3152 2197 
Q 2966 2081 2738 2016 
L 2738 2003 
Q 2838 1972 2931 1901 
Q 3025 1831 3112 1737 
Q 3200 1644 3279 1536 
Q 3359 1428 3425 1325 
L 4272 0 
z
M 1522 3725 
L 1522 2478 
L 1959 2478 
Q 2284 2478 2481 2666 
Q 2681 2856 2681 3138 
Q 2681 3725 1978 3725 
L 1522 3725 
z
" transform="scale(0.015625)"/>
      <path id="SegoeUIThis-Bold-62" d="M 1416 372 
L 1403 372 
L 1403 0 
L 416 0 
L 416 4738 
L 1403 4738 
L 1403 2719 
L 1416 2719 
Q 1781 3278 2456 3278 
Q 3075 3278 3409 2853 
Q 3744 2428 3744 1691 
Q 3744 891 3353 406 
Q 2963 -78 2309 -78 
Q 1719 -78 1416 372 
z
M 1388 1722 
L 1388 1394 
Q 1388 1084 1566 881 
Q 1744 678 2022 678 
Q 2359 678 2545 939 
Q 2731 1200 2731 1678 
Q 2731 2075 2561 2298 
Q 2391 2522 2075 2522 
Q 1778 2522 1583 2300 
Q 1388 2078 1388 1722 
z
" transform="scale(0.015625)"/>
      <path id="SegoeUIThis-Bold-74" d="M 2350 38 
Q 2131 -78 1691 -78 
Q 647 -78 647 1006 
L 647 2472 
L 128 2472 
L 128 3200 
L 647 3200 
L 647 3891 
L 1631 4172 
L 1631 3200 
L 2350 3200 
L 2350 2472 
L 1631 2472 
L 1631 1178 
Q 1631 678 2028 678 
Q 2184 678 2350 769 
L 2350 38 
z
" transform="scale(0.015625)"/>
      <path id="SegoeUIThis-Bold-43" d="M 3725 159 
Q 3234 -78 2444 -78 
Q 1413 -78 822 528 
Q 231 1134 231 2144 
Q 231 3219 895 3887 
Q 1559 4556 2619 4556 
Q 3275 4556 3725 4391 
L 3725 3419 
Q 3275 3688 2700 3688 
Q 2069 3688 1681 3291 
Q 1294 2894 1294 2216 
Q 1294 1566 1659 1180 
Q 2025 794 2644 794 
Q 3234 794 3725 1081 
L 3725 159 
z
" transform="scale(0.015625)"/>
      <path id="SegoeUIThis-Bold-70" d="M 1416 372 
L 1403 372 
L 1403 -1472 
L 416 -1472 
L 416 3200 
L 1403 3200 
L 1403 2719 
L 1416 2719 
Q 1781 3278 2444 3278 
Q 3066 3278 3405 2851 
Q 3744 2425 3744 1691 
Q 3744 891 3348 406 
Q 2953 -78 2297 -78 
Q 1719 -78 1416 372 
z
M 1388 1684 
L 1388 1428 
Q 1388 1097 1563 887 
Q 1738 678 2022 678 
Q 2359 678 2545 939 
Q 2731 1200 2731 1678 
Q 2731 2522 2075 2522 
Q 1772 2522 1580 2292 
Q 1388 2063 1388 1684 
z
" transform="scale(0.015625)"/>
      <path id="SegoeUIThis-Bold-61" d="M 3078 0 
L 2144 0 
L 2144 459 
L 2131 459 
Q 1809 -78 1178 -78 
Q 713 -78 445 186 
Q 178 450 178 891 
Q 178 1822 1281 1966 
L 2150 2081 
Q 2150 2606 1581 2606 
Q 1009 2606 494 2266 
L 494 3009 
Q 700 3116 1058 3197 
Q 1416 3278 1709 3278 
Q 3078 3278 3078 1913 
L 3078 0 
z
M 2150 1300 
L 2150 1516 
L 1569 1441 
Q 1088 1378 1088 1006 
Q 1088 838 1205 730 
Q 1322 622 1522 622 
Q 1800 622 1975 814 
Q 2150 1006 2150 1300 
z
" transform="scale(0.015625)"/>
      <path id="SegoeUIThis-Bold-72" d="M 2503 2309 
Q 2325 2406 2088 2406 
Q 1766 2406 1584 2170 
Q 1403 1934 1403 1528 
L 1403 0 
L 416 0 
L 416 3200 
L 1403 3200 
L 1403 2606 
L 1416 2606 
Q 1650 3256 2259 3256 
Q 2416 3256 2503 3219 
L 2503 2309 
z
" transform="scale(0.015625)"/>
     </defs>
     <use xlink:href="#SegoeUIThis-Bold-50"/>
     <use xlink:href="#SegoeUIThis-Bold-65" x="58.425781"/>
     <use xlink:href="#SegoeUIThis-Bold-6e" x="112.527344"/>
     <use xlink:href="#SegoeUIThis-Bold-64" x="173.025391"/>
     <use xlink:href="#SegoeUIThis-Bold-75" x="234.939453"/>
     <use xlink:href="#SegoeUIThis-Bold-6c" x="295.4375"/>
     <use xlink:href="#SegoeUIThis-Bold-75" x="323.855469"/>
     <use xlink:href="#SegoeUIThis-Bold-6d" x="384.353516"/>
     <use xlink:href="#SegoeUIThis-Bold-20" x="475.955078"/>
     <use xlink:href="#SegoeUIThis-Bold-4e" x="503.542969"/>
     <use xlink:href="#SegoeUIThis-Bold-6f" x="582.546875"/>
     <use xlink:href="#SegoeUIThis-Bold-69" x="643.679688"/>
     <use xlink:href="#SegoeUIThis-Bold-73" x="672.097656"/>
     <use xlink:href="#SegoeUIThis-Bold-65" x="716.091797"/>
     <use xlink:href="#SegoeUIThis-Bold-20" x="770.193359"/>
     <use xlink:href="#SegoeUIThis-Bold-52" x="797.78125"/>
     <use xlink:href="#SegoeUIThis-Bold-6f" x="860.564453"/>
     <use xlink:href="#SegoeUIThis-Bold-62" x="921.697266"/>
     <use xlink:href="#SegoeUIThis-Bold-75" x="983.708984"/>
     <use xlink:href="#SegoeUIThis-Bold-73" x="1044.207031"/>
     <use xlink:href="#SegoeUIThis-Bold-74" x="1088.201172"/>
     <use xlink:href="#SegoeUIThis-Bold-6e" x="1127.117188"/>
     <use xlink:href="#SegoeUIThis-Bold-65" x="1187.615234"/>
     <use xlink:href="#SegoeUIThis-Bold-73" x="1241.716797"/>
     <use xlink:href="#SegoeUIThis-Bold-73" x="1285.710938"/>
     <use xlink:href="#SegoeUIThis-Bold-20" x="1329.705078"/>
     <use xlink:href="#SegoeUIThis-Bold-43" x="1357.292969"/>
     <use xlink:href="#SegoeUIThis-Bold-6f" x="1419.695312"/>
     <use xlink:href="#SegoeUIThis-Bold-6d" x="1480.828125"/>
     <use xlink:href="#SegoeUIThis-Bold-70" x="1572.429688"/>
     <use xlink:href="#SegoeUIThis-Bold-61" x="1633.441406"/>
     <use xlink:href="#SegoeUIThis-Bold-72" x="1687.25"/>
     <use xlink:href="#SegoeUIThis-Bold-69" x="1727.419922"/>
     <use xlink:href="#SegoeUIThis-Bold-73" x="1755.837891"/>
     <use xlink:href="#SegoeUIThis-Bold-6f" x="1799.832031"/>
     <use xlink:href="#SegoeUIThis-Bold-6e" x="1860.964844"/>
    </g>
   </g>
   <g id="legend_1">
    <g id="patch_7">
     <path d="M 662.661563 162.916875 
L 765 162.916875 
Q 768.6 162.916875 768.6 159.316875 
L 768.6 81.72 
Q 768.6 78.12 765 78.12 
L 662.661563 78.12 
Q 659.061563 78.12 659.061563 81.72 
L 659.061563 159.316875 
Q 659.061563 162.916875 662.661563 162.916875 
z
" style="fill: #ffffff; opacity: 0.8; stroke: #cccccc; stroke-linejoin: miter"/>
    </g>
    <g id="line2d_33">
     <path d="M 666.261563 92.345625 
L 684.261563 92.345625 
L 702.261563 92.345625 
" style="fill: none; stroke: #ff7700; stroke-width: 4; stroke-linecap: square"/>
    </g>
    <g id="text_18">
     <!-- PPO -->
     <g transform="translate(716.661563 98.645625) scale(0.18 -0.18)">
      <defs>
       <path id="SegoeUIThis-50" d="M 1113 1694 
L 1113 0 
L 588 0 
L 588 4481 
L 1819 4481 
Q 2538 4481 2933 4131 
Q 3328 3781 3328 3144 
Q 3328 2506 2889 2100 
Q 2450 1694 1703 1694 
L 1113 1694 
z
M 1113 4006 
L 1113 2169 
L 1663 2169 
Q 2206 2169 2492 2417 
Q 2778 2666 2778 3119 
Q 2778 4006 1728 4006 
L 1113 4006 
z
" transform="scale(0.015625)"/>
       <path id="SegoeUIThis-4f" d="M 2394 -75 
Q 1441 -75 867 553 
Q 294 1181 294 2188 
Q 294 3269 878 3912 
Q 1463 4556 2469 4556 
Q 3397 4556 3964 3931 
Q 4531 3306 4531 2297 
Q 4531 1200 3950 562 
Q 3369 -75 2394 -75 
z
M 2431 4081 
Q 1725 4081 1284 3572 
Q 844 3063 844 2234 
Q 844 1406 1273 901 
Q 1703 397 2394 397 
Q 3131 397 3556 878 
Q 3981 1359 3981 2225 
Q 3981 3113 3568 3597 
Q 3156 4081 2431 4081 
z
" transform="scale(0.015625)"/>
      </defs>
      <use xlink:href="#SegoeUIThis-50"/>
      <use xlink:href="#SegoeUIThis-50" x="56.005859"/>
      <use xlink:href="#SegoeUIThis-4f" x="112.011719"/>
     </g>
    </g>
    <g id="line2d_34">
     <path d="M 666.261563 118.81125 
L 684.261563 118.81125 
L 702.261563 118.81125 
" style="fill: none; stroke: #004777; stroke-width: 4; stroke-linecap: square"/>
    </g>
    <g id="text_19">
     <!-- SHAC -->
     <g transform="translate(716.661563 125.11125) scale(0.18 -0.18)">
      <defs>
       <path id="SegoeUIThis-53" d="M 378 181 
L 378 800 
Q 484 706 632 631 
Q 781 556 945 504 
Q 1109 453 1275 425 
Q 1441 397 1581 397 
Q 2066 397 2305 576 
Q 2544 756 2544 1094 
Q 2544 1275 2464 1409 
Q 2384 1544 2243 1655 
Q 2103 1766 1911 1867 
Q 1719 1969 1497 2081 
Q 1263 2200 1059 2322 
Q 856 2444 706 2591 
Q 556 2738 470 2923 
Q 384 3109 384 3359 
Q 384 3666 518 3892 
Q 653 4119 872 4266 
Q 1091 4413 1370 4484 
Q 1650 4556 1941 4556 
Q 2603 4556 2906 4397 
L 2906 3806 
Q 2509 4081 1888 4081 
Q 1716 4081 1544 4045 
Q 1372 4009 1237 3928 
Q 1103 3847 1018 3719 
Q 934 3591 934 3406 
Q 934 3234 998 3109 
Q 1063 2984 1188 2881 
Q 1313 2778 1492 2681 
Q 1672 2584 1906 2469 
Q 2147 2350 2362 2219 
Q 2578 2088 2740 1928 
Q 2903 1769 2998 1575 
Q 3094 1381 3094 1131 
Q 3094 800 2964 570 
Q 2834 341 2614 197 
Q 2394 53 2106 -11 
Q 1819 -75 1500 -75 
Q 1394 -75 1237 -58 
Q 1081 -41 918 -8 
Q 756 25 611 73 
Q 466 122 378 181 
z
" transform="scale(0.015625)"/>
       <path id="SegoeUIThis-48" d="M 3956 0 
L 3431 0 
L 3431 2044 
L 1113 2044 
L 1113 0 
L 588 0 
L 588 4481 
L 1113 4481 
L 1113 2516 
L 3431 2516 
L 3431 4481 
L 3956 4481 
L 3956 0 
z
" transform="scale(0.015625)"/>
       <path id="SegoeUIThis-41" d="M 4056 0 
L 3475 0 
L 3000 1256 
L 1100 1256 
L 653 0 
L 69 0 
L 1788 4481 
L 2331 4481 
L 4056 0 
z
M 2828 1728 
L 2125 3638 
Q 2091 3731 2056 3938 
L 2044 3938 
Q 2013 3747 1972 3638 
L 1275 1728 
L 2828 1728 
z
" transform="scale(0.015625)"/>
       <path id="SegoeUIThis-43" d="M 3638 188 
Q 3141 -75 2400 -75 
Q 1444 -75 869 540 
Q 294 1156 294 2156 
Q 294 3231 941 3893 
Q 1588 4556 2581 4556 
Q 3219 4556 3638 4372 
L 3638 3813 
Q 3156 4081 2575 4081 
Q 1803 4081 1323 3565 
Q 844 3050 844 2188 
Q 844 1369 1292 883 
Q 1741 397 2469 397 
Q 3144 397 3638 697 
L 3638 188 
z
" transform="scale(0.015625)"/>
      </defs>
      <use xlink:href="#SegoeUIThis-53"/>
      <use xlink:href="#SegoeUIThis-48" x="53.125"/>
      <use xlink:href="#SegoeUIThis-41" x="124.121094"/>
      <use xlink:href="#SegoeUIThis-43" x="186.623047"/>
     </g>
    </g>
    <g id="line2d_35">
     <path d="M 666.261563 145.276875 
L 684.261563 145.276875 
L 702.261563 145.276875 
" style="fill: none; stroke: #b72b34; stroke-width: 4; stroke-linecap: square"/>
    </g>
    <g id="text_20">
     <!-- SAC -->
     <g transform="translate(716.661563 151.576875) scale(0.18 -0.18)">
      <use xlink:href="#SegoeUIThis-53"/>
      <use xlink:href="#SegoeUIThis-41" x="53.125"/>
      <use xlink:href="#SegoeUIThis-43" x="115.626953"/>
     </g>
    </g>
   </g>
  </g>
 </g>
 <defs>
  <clipPath id="p4d774bc62f">
   <rect x="108" y="69.12" width="669.6" height="443.52"/>
  </clipPath>
 </defs>
</svg>
