<?xml version="1.0" encoding="utf-8" standalone="no"?>
<!DOCTYPE svg PUBLIC "-//W3C//DTD SVG 1.1//EN"
  "http://www.w3.org/Graphics/SVG/1.1/DTD/svg11.dtd">
<svg xmlns:xlink="http://www.w3.org/1999/xlink" width="460.8pt" height="345.6pt" viewBox="0 0 460.8 345.6" xmlns="http://www.w3.org/2000/svg" version="1.1">
 <metadata>
  <rdf:RDF xmlns:dc="http://purl.org/dc/elements/1.1/" xmlns:cc="http://creativecommons.org/ns#" xmlns:rdf="http://www.w3.org/1999/02/22-rdf-syntax-ns#">
   <cc:Work>
    <dc:type rdf:resource="http://purl.org/dc/dcmitype/StillImage"/>
    <dc:date>2024-07-24T16:16:08.282041</dc:date>
    <dc:format>image/svg+xml</dc:format>
    <dc:creator>
     <cc:Agent>
      <dc:title>Matplotlib v3.8.4, https://matplotlib.org/</dc:title>
     </cc:Agent>
    </dc:creator>
   </cc:Work>
  </rdf:RDF>
 </metadata>
 <defs>
  <style type="text/css">*{stroke-linejoin: round; stroke-linecap: butt}</style>
 </defs>
 <g id="figure_1">
  <g id="patch_1">
   <path d="M 0 345.6 
L 460.8 345.6 
L 460.8 0 
L 0 0 
z
" style="fill: #ffffff"/>
  </g>
  <g id="axes_1">
   <g id="patch_2">
    <path d="M 68.51 299.32 
L 449.042727 299.32 
L 449.042727 32.64 
L 68.51 32.64 
z
" style="fill: #ffffff"/>
   </g>
   <g id="PolyCollection_1">
    <path d="M 85.806942 78.178156 
L 85.806942 218.917163 
L 89.301274 199.972421 
L 92.795606 157.611466 
L 96.289937 157.677719 
L 99.784269 187.163627 
L 103.278601 157.660113 
L 106.772933 178.055817 
L 110.267264 218.323771 
L 113.761596 208.723141 
L 117.255928 180.975717 
L 120.75026 159.904603 
L 124.244591 221.308293 
L 127.738923 157.569161 
L 131.233255 177.896353 
L 134.727587 201.549444 
L 138.221918 180.999208 
L 141.71625 180.452407 
L 145.210582 231.115495 
L 148.704914 153.807482 
L 152.199245 157.50388 
L 155.693577 159.861584 
L 159.187909 167.72018 
L 162.682241 159.543734 
L 166.176572 180.368248 
L 169.670904 214.22846 
L 173.165236 214.782019 
L 176.659568 198.768316 
L 180.153899 203.496072 
L 183.648231 202.569347 
L 187.142563 178.261086 
L 190.636895 178.202313 
L 194.131226 180.54603 
L 197.625558 215.532466 
L 201.11989 178.357311 
L 204.614222 208.439317 
L 208.108553 217.417411 
L 211.602885 229.816808 
L 215.097217 167.188383 
L 218.591549 207.457975 
L 222.08588 248.931332 
L 225.580212 214.699453 
L 229.074544 251.372601 
L 232.568876 195.93932 
L 236.063207 212.362112 
L 239.557539 232.298792 
L 243.051871 217.057534 
L 246.546203 180.537652 
L 250.040534 180.615147 
L 253.534866 260.053833 
L 257.029198 227.29854 
L 260.52353 259.04404 
L 264.017861 227.351728 
L 267.512193 232.037076 
L 271.006525 262.277219 
L 274.500856 244.254592 
L 277.995188 245.572555 
L 281.48952 261.055028 
L 284.983852 277.071325 
L 288.478183 242.038061 
L 291.972515 233.427912 
L 295.466847 281.954378 
L 298.961179 234.160235 
L 302.45551 250.024566 
L 305.949842 243.377077 
L 309.444174 270.800727 
L 312.938506 241.487057 
L 316.432837 241.379831 
L 319.927169 237.260842 
L 323.421501 265.599133 
L 326.915833 262.563076 
L 330.410164 250.418156 
L 333.904496 237.920674 
L 337.398828 248.689088 
L 340.89316 237.914399 
L 344.387491 262.040555 
L 347.881823 240.287104 
L 351.376155 262.89474 
L 354.870487 242.194933 
L 358.364818 275.549048 
L 361.85915 237.530489 
L 365.353482 272.843622 
L 368.847814 258.30726 
L 372.342145 286.115984 
L 375.836477 258.634555 
L 379.330809 268.745413 
L 382.825141 274.022525 
L 386.319472 273.623091 
L 389.813804 277.608698 
L 393.308136 256.804993 
L 396.802468 270.99321 
L 400.296799 267.818325 
L 403.791131 276.797724 
L 407.285463 255.364289 
L 410.779795 256.817017 
L 414.274126 247.44506 
L 417.768458 242.698898 
L 421.26279 279.868103 
L 424.757122 278.402589 
L 428.251453 275.146371 
L 431.745785 280.211833 
L 431.745785 180.912176 
L 431.745785 180.912176 
L 428.251453 220.391782 
L 424.757122 222.749971 
L 421.26279 225.379455 
L 417.768458 199.077322 
L 414.274126 196.598945 
L 410.779795 203.471476 
L 407.285463 185.327475 
L 403.791131 192.690927 
L 400.296799 227.69185 
L 396.802468 217.381718 
L 393.308136 207.762103 
L 389.813804 226.121779 
L 386.319472 186.566691 
L 382.825141 214.533605 
L 379.330809 193.452419 
L 375.836477 203.891527 
L 372.342145 202.041719 
L 368.847814 157.334338 
L 365.353482 189.523025 
L 361.85915 175.688815 
L 358.364818 168.415791 
L 354.870487 190.862207 
L 351.376155 155.468321 
L 347.881823 151.87385 
L 344.387491 168.756079 
L 340.89316 160.414667 
L 337.398828 200.840994 
L 333.904496 178.446654 
L 330.410164 177.983241 
L 326.915833 177.057998 
L 323.421501 185.235925 
L 319.927169 176.417641 
L 316.432837 154.479738 
L 312.938506 199.940761 
L 309.444174 174.220823 
L 305.949842 166.93879 
L 302.45551 155.686265 
L 298.961179 147.656435 
L 295.466847 158.674443 
L 291.972515 145.367917 
L 288.478183 139.089852 
L 284.983852 167.298816 
L 281.48952 196.825787 
L 277.995188 169.423584 
L 274.500856 185.965636 
L 271.006525 143.279794 
L 267.512193 143.949244 
L 264.017861 129.979506 
L 260.52353 121.085954 
L 257.029198 130.832517 
L 253.534866 156.218333 
L 250.040534 78.195522 
L 246.546203 78.304401 
L 243.051871 103.598886 
L 239.557539 120.017062 
L 236.063207 108.255117 
L 232.568876 108.028754 
L 229.074544 133.112323 
L 225.580212 100.134644 
L 222.08588 134.299517 
L 218.591549 96.584212 
L 215.097217 138.118478 
L 211.602885 69.564207 
L 208.108553 86.78587 
L 204.614222 129.030911 
L 201.11989 65.162654 
L 197.625558 91.076083 
L 194.131226 78.084355 
L 190.636895 64.839184 
L 187.142563 64.914317 
L 183.648231 71.553707 
L 180.153899 85.846916 
L 176.659568 90.844838 
L 173.165236 121.878865 
L 169.670904 121.786417 
L 166.176572 77.956122 
L 162.682241 83.403419 
L 159.187909 90.725154 
L 155.693577 83.242808 
L 152.199245 69.915193 
L 148.704914 58.470798 
L 145.210582 89.741127 
L 141.71625 78.0852 
L 138.221918 77.656782 
L 134.727587 58.128825 
L 131.233255 64.91003 
L 127.738923 69.850302 
L 124.244591 115.221139 
L 120.75026 83.275127 
L 117.255928 77.728732 
L 113.761596 81.087843 
L 110.267264 86.822253 
L 106.772933 64.73203 
L 103.278601 70.044652 
L 99.784269 86.739169 
L 96.289937 69.858635 
L 92.795606 70.011008 
L 89.301274 58.560065 
L 85.806942 78.178156 
z
" clip-path="url(#pe9288f8366)" style="fill: #1f77b4; fill-opacity: 0.3"/>
   </g>
   <g id="PolyCollection_2">
    <path d="M 85.806942 58.880005 
L 85.806942 173.047486 
L 89.301274 172.36469 
L 92.795606 152.414248 
L 96.289937 178.547216 
L 99.784269 163.903692 
L 103.278601 172.611862 
L 106.772933 183.330579 
L 110.267264 172.792319 
L 113.761596 156.045626 
L 117.255928 152.447247 
L 120.75026 160.530041 
L 124.244591 216.24768 
L 127.738923 171.707399 
L 131.233255 151.290999 
L 134.727587 151.242598 
L 138.221918 222.636387 
L 141.71625 172.177057 
L 145.210582 151.513495 
L 148.704914 172.724995 
L 152.199245 155.052812 
L 155.693577 191.369402 
L 159.187909 157.848013 
L 162.682241 164.834139 
L 166.176572 200.954036 
L 169.670904 157.667026 
L 173.165236 198.00376 
L 176.659568 163.922845 
L 180.153899 181.944754 
L 183.648231 227.530405 
L 187.142563 213.686218 
L 190.636895 162.34399 
L 194.131226 226.801259 
L 197.625558 182.189882 
L 201.11989 212.327602 
L 204.614222 226.756235 
L 208.108553 221.98975 
L 211.602885 177.864022 
L 215.097217 227.376467 
L 218.591549 180.137761 
L 222.08588 223.136063 
L 225.580212 172.116938 
L 229.074544 240.692695 
L 232.568876 208.722578 
L 236.063207 178.841695 
L 239.557539 237.745131 
L 243.051871 197.155085 
L 246.546203 196.732102 
L 250.040534 182.441591 
L 253.534866 203.818822 
L 257.029198 236.462679 
L 260.52353 185.747387 
L 264.017861 191.506954 
L 267.512193 251.495616 
L 271.006525 201.297367 
L 274.500856 220.420666 
L 277.995188 242.057023 
L 281.48952 234.743582 
L 284.983852 201.254971 
L 288.478183 238.431119 
L 291.972515 211.595909 
L 295.466847 249.994449 
L 298.961179 238.742201 
L 302.45551 240.472614 
L 305.949842 202.741095 
L 309.444174 220.650081 
L 312.938506 260.364332 
L 316.432837 223.391405 
L 319.927169 241.69196 
L 323.421501 254.703366 
L 326.915833 232.010472 
L 330.410164 260.684572 
L 333.904496 181.757208 
L 337.398828 205.07105 
L 340.89316 287.198182 
L 344.387491 217.095893 
L 347.881823 215.81533 
L 351.376155 234.290484 
L 354.870487 270.811589 
L 358.364818 269.513611 
L 361.85915 275.919536 
L 365.353482 256.936411 
L 368.847814 233.045441 
L 372.342145 224.470847 
L 375.836477 262.861913 
L 379.330809 238.260947 
L 382.825141 217.628312 
L 386.319472 243.567925 
L 389.813804 241.243738 
L 393.308136 237.393414 
L 396.802468 266.597903 
L 400.296799 252.292546 
L 403.791131 259.094036 
L 407.285463 238.730388 
L 410.779795 264.694082 
L 414.274126 270.927255 
L 417.768458 214.598187 
L 421.26279 248.160486 
L 424.757122 270.832528 
L 428.251453 276.581078 
L 431.745785 278.438905 
L 431.745785 164.421273 
L 431.745785 164.421273 
L 428.251453 178.517453 
L 424.757122 152.012407 
L 421.26279 148.678033 
L 417.768458 139.854882 
L 414.274126 144.089023 
L 410.779795 139.360291 
L 407.285463 159.623811 
L 403.791131 151.752624 
L 400.296799 152.154638 
L 396.802468 139.727281 
L 393.308136 166.108962 
L 389.813804 162.299917 
L 386.319472 110.273879 
L 382.825141 103.873401 
L 379.330809 147.339479 
L 375.836477 149.325889 
L 372.342145 117.921862 
L 368.847814 129.757898 
L 365.353482 154.926556 
L 361.85915 145.72355 
L 358.364818 132.907937 
L 354.870487 170.473003 
L 351.376155 122.11912 
L 347.881823 140.565057 
L 344.387491 96.695103 
L 340.89316 121.795263 
L 337.398828 103.693161 
L 333.904496 81.485142 
L 330.410164 112.234379 
L 326.915833 107.760788 
L 323.421501 124.885426 
L 319.927169 81.968727 
L 316.432837 119.966217 
L 312.938506 94.119706 
L 309.444174 104.209539 
L 305.949842 121.97622 
L 302.45551 70.951397 
L 298.961179 92.531024 
L 295.466847 102.631402 
L 291.972515 51.203063 
L 288.478183 72.179766 
L 284.983852 92.199114 
L 281.48952 96.197041 
L 277.995188 82.606445 
L 274.500856 79.559476 
L 271.006525 91.702153 
L 267.512193 89.617417 
L 264.017861 73.510439 
L 260.52353 93.779889 
L 257.029198 74.6777 
L 253.534866 68.280028 
L 250.040534 65.476275 
L 246.546203 108.618934 
L 243.051871 75.624416 
L 239.557539 71.99058 
L 236.063207 84.456348 
L 232.568876 76.43763 
L 229.074544 84.576887 
L 225.580212 91.840264 
L 222.08588 88.099429 
L 218.591549 65.50703 
L 215.097217 51.915157 
L 211.602885 66.072075 
L 208.108553 78.975453 
L 204.614222 51.975923 
L 201.11989 77.966084 
L 197.625558 69.174593 
L 194.131226 52.492353 
L 190.636895 70.521003 
L 187.142563 81.187069 
L 183.648231 60.168885 
L 180.153899 66.011967 
L 176.659568 69.620055 
L 173.165236 50.86225 
L 169.670904 63.228277 
L 166.176572 50.157401 
L 162.682241 69.682951 
L 159.187909 63.085169 
L 155.693577 53.352714 
L 152.199245 64.120062 
L 148.704914 58.952877 
L 145.210582 64.93678 
L 141.71625 58.942632 
L 138.221918 56.23248 
L 134.727587 65.133055 
L 131.233255 65.201958 
L 127.738923 59.325298 
L 124.244591 44.761818 
L 120.75026 62.34081 
L 117.255928 64.890583 
L 113.761596 64.084772 
L 110.267264 59.235167 
L 106.772933 84.129653 
L 103.278601 59.830953 
L 99.784269 61.234211 
L 96.289937 56.996055 
L 92.795606 64.633429 
L 89.301274 59.145624 
L 85.806942 58.880005 
z
" clip-path="url(#pe9288f8366)" style="fill: #ff7f0e; fill-opacity: 0.3"/>
   </g>
   <g id="PolyCollection_3">
    <path d="M 85.806942 66.444785 
L 85.806942 69.334941 
L 89.301274 69.220187 
L 92.795606 69.275414 
L 96.289937 69.345381 
L 99.784269 69.312234 
L 103.278601 69.257797 
L 106.772933 69.282148 
L 110.267264 69.246667 
L 113.761596 69.173454 
L 117.255928 69.146867 
L 120.75026 69.297079 
L 124.244591 69.316548 
L 127.738923 69.226862 
L 131.233255 69.269079 
L 134.727587 69.179342 
L 138.221918 69.258006 
L 141.71625 69.248699 
L 145.210582 68.82385 
L 148.704914 69.070138 
L 152.199245 69.208962 
L 155.693577 68.788899 
L 159.187909 69.21688 
L 162.682241 68.739095 
L 166.176572 69.342704 
L 169.670904 69.22453 
L 173.165236 69.42092 
L 176.659568 69.041124 
L 180.153899 69.050752 
L 183.648231 68.934594 
L 187.142563 69.119481 
L 190.636895 68.770954 
L 194.131226 68.712692 
L 197.625558 68.833071 
L 201.11989 68.82915 
L 204.614222 69.000178 
L 208.108553 69.153994 
L 211.602885 68.974068 
L 215.097217 68.924337 
L 218.591549 69.201446 
L 222.08588 69.134181 
L 225.580212 68.944815 
L 229.074544 69.289074 
L 232.568876 69.209989 
L 236.063207 69.060215 
L 239.557539 100.251415 
L 243.051871 69.045304 
L 246.546203 68.976355 
L 250.040534 68.981346 
L 253.534866 90.949133 
L 257.029198 69.497699 
L 260.52353 90.963854 
L 264.017861 69.833675 
L 267.512193 89.860987 
L 271.006525 69.085318 
L 274.500856 92.212802 
L 277.995188 91.174987 
L 281.48952 87.394405 
L 284.983852 90.982513 
L 288.478183 98.540125 
L 291.972515 101.253411 
L 295.466847 121.289315 
L 298.961179 120.418288 
L 302.45551 108.528051 
L 305.949842 102.980509 
L 309.444174 127.114129 
L 312.938506 129.227327 
L 316.432837 89.239429 
L 319.927169 100.233579 
L 323.421501 101.427211 
L 326.915833 119.014441 
L 330.410164 125.922495 
L 333.904496 158.829861 
L 337.398828 127.800546 
L 340.89316 130.151372 
L 344.387491 164.1299 
L 347.881823 159.722891 
L 351.376155 141.320835 
L 354.870487 166.43725 
L 358.364818 136.770036 
L 361.85915 126.999971 
L 365.353482 198.659746 
L 368.847814 170.761413 
L 372.342145 173.872209 
L 375.836477 159.601469 
L 379.330809 201.20587 
L 382.825141 155.899471 
L 386.319472 203.737345 
L 389.813804 149.744619 
L 393.308136 204.362486 
L 396.802468 173.157178 
L 400.296799 236.945318 
L 403.791131 198.886541 
L 407.285463 258.901679 
L 410.779795 262.777395 
L 414.274126 242.048743 
L 417.768458 240.907504 
L 421.26279 237.221086 
L 424.757122 242.551077 
L 428.251453 184.000105 
L 431.745785 210.899987 
L 431.745785 149.360702 
L 431.745785 149.360702 
L 428.251453 123.694144 
L 424.757122 164.952985 
L 421.26279 157.350589 
L 417.768458 104.485291 
L 414.274126 115.258224 
L 410.779795 112.781796 
L 407.285463 115.380165 
L 403.791131 148.470526 
L 400.296799 145.637961 
L 396.802468 109.770246 
L 393.308136 83.979368 
L 389.813804 123.006343 
L 386.319472 108.509749 
L 382.825141 83.891756 
L 379.330809 126.015711 
L 375.836477 109.841316 
L 372.342145 142.066589 
L 368.847814 100.186015 
L 365.353482 91.254132 
L 361.85915 70.617893 
L 358.364818 85.312722 
L 354.870487 90.222867 
L 351.376155 72.36024 
L 347.881823 98.452689 
L 344.387491 90.322909 
L 340.89316 82.066036 
L 337.398828 85.86514 
L 333.904496 69.945627 
L 330.410164 76.316227 
L 326.915833 61.997965 
L 323.421501 65.731748 
L 319.927169 66.304073 
L 316.432837 61.870331 
L 312.938506 81.96973 
L 309.444174 71.877713 
L 305.949842 64.468054 
L 302.45551 73.372629 
L 298.961179 61.56278 
L 295.466847 61.610262 
L 291.972515 66.05357 
L 288.478183 65.669795 
L 284.983852 60.979327 
L 281.48952 62.330265 
L 277.995188 61.518039 
L 274.500856 60.778784 
L 271.006525 67.118611 
L 267.512193 61.785298 
L 264.017861 67.09882 
L 260.52353 60.246724 
L 257.029198 67.202583 
L 253.534866 60.568718 
L 250.040534 66.802949 
L 246.546203 66.861709 
L 243.051871 66.98796 
L 239.557539 64.575655 
L 236.063207 66.745176 
L 232.568876 66.993564 
L 229.074544 66.901854 
L 225.580212 66.650383 
L 222.08588 66.731333 
L 218.591549 66.701286 
L 215.097217 66.687164 
L 211.602885 66.75587 
L 208.108553 66.924067 
L 204.614222 66.743989 
L 201.11989 66.734276 
L 197.625558 66.706476 
L 194.131226 66.639097 
L 190.636895 66.613565 
L 187.142563 66.733064 
L 183.648231 66.611509 
L 180.153899 66.555665 
L 176.659568 66.649186 
L 173.165236 66.625976 
L 169.670904 66.701187 
L 166.176572 66.641521 
L 162.682241 66.519415 
L 159.187909 66.695013 
L 155.693577 66.417357 
L 152.199245 66.568779 
L 148.704914 66.544251 
L 145.210582 66.499774 
L 141.71625 66.549516 
L 138.221918 66.588307 
L 134.727587 66.527735 
L 131.233255 66.511791 
L 127.738923 66.540959 
L 124.244591 66.56523 
L 120.75026 66.457675 
L 117.255928 66.465289 
L 113.761596 66.521988 
L 110.267264 66.393154 
L 106.772933 66.450936 
L 103.278601 66.510943 
L 99.784269 66.576437 
L 96.289937 66.597442 
L 92.795606 66.507074 
L 89.301274 66.518762 
L 85.806942 66.444785 
z
" clip-path="url(#pe9288f8366)" style="fill: #2ca02c; fill-opacity: 0.3"/>
   </g>
   <g id="matplotlib.axis_1">
    <g id="xtick_1">
     <g id="line2d_1">
      <path d="M 85.806942 299.32 
L 85.806942 32.64 
" clip-path="url(#pe9288f8366)" style="fill: none; stroke: #b0b0b0; stroke-width: 0.8; stroke-linecap: square"/>
     </g>
     <g id="line2d_2">
      <defs>
       <path id="md614968cc4" d="M 0 0 
L 0 3.5 
" style="stroke: #000000; stroke-width: 0.8"/>
      </defs>
      <g>
       <use xlink:href="#md614968cc4" x="85.806942" y="299.32" style="stroke: #000000; stroke-width: 0.8"/>
      </g>
     </g>
     <g id="text_1">
      <!-- 0.000 -->
      <g transform="translate(68.630067 315.438125) scale(0.12 -0.12)">
       <defs>
        <path id="DejaVuSans-30" d="M 2034 4250 
Q 1547 4250 1301 3770 
Q 1056 3291 1056 2328 
Q 1056 1369 1301 889 
Q 1547 409 2034 409 
Q 2525 409 2770 889 
Q 3016 1369 3016 2328 
Q 3016 3291 2770 3770 
Q 2525 4250 2034 4250 
z
M 2034 4750 
Q 2819 4750 3233 4129 
Q 3647 3509 3647 2328 
Q 3647 1150 3233 529 
Q 2819 -91 2034 -91 
Q 1250 -91 836 529 
Q 422 1150 422 2328 
Q 422 3509 836 4129 
Q 1250 4750 2034 4750 
z
" transform="scale(0.015625)"/>
        <path id="DejaVuSans-2e" d="M 684 794 
L 1344 794 
L 1344 0 
L 684 0 
L 684 794 
z
" transform="scale(0.015625)"/>
       </defs>
       <use xlink:href="#DejaVuSans-30"/>
       <use xlink:href="#DejaVuSans-2e" x="63.623047"/>
       <use xlink:href="#DejaVuSans-30" x="95.410156"/>
       <use xlink:href="#DejaVuSans-30" x="159.033203"/>
       <use xlink:href="#DejaVuSans-30" x="222.65625"/>
      </g>
     </g>
    </g>
    <g id="xtick_2">
     <g id="line2d_3">
      <path d="M 129.049298 299.32 
L 129.049298 32.64 
" clip-path="url(#pe9288f8366)" style="fill: none; stroke: #b0b0b0; stroke-width: 0.8; stroke-linecap: square"/>
     </g>
     <g id="line2d_4">
      <g>
       <use xlink:href="#md614968cc4" x="129.049298" y="299.32" style="stroke: #000000; stroke-width: 0.8"/>
      </g>
     </g>
     <g id="text_2">
      <!-- 0.025 -->
      <g transform="translate(111.872423 315.438125) scale(0.12 -0.12)">
       <defs>
        <path id="DejaVuSans-32" d="M 1228 531 
L 3431 531 
L 3431 0 
L 469 0 
L 469 531 
Q 828 903 1448 1529 
Q 2069 2156 2228 2338 
Q 2531 2678 2651 2914 
Q 2772 3150 2772 3378 
Q 2772 3750 2511 3984 
Q 2250 4219 1831 4219 
Q 1534 4219 1204 4116 
Q 875 4013 500 3803 
L 500 4441 
Q 881 4594 1212 4672 
Q 1544 4750 1819 4750 
Q 2544 4750 2975 4387 
Q 3406 4025 3406 3419 
Q 3406 3131 3298 2873 
Q 3191 2616 2906 2266 
Q 2828 2175 2409 1742 
Q 1991 1309 1228 531 
z
" transform="scale(0.015625)"/>
        <path id="DejaVuSans-35" d="M 691 4666 
L 3169 4666 
L 3169 4134 
L 1269 4134 
L 1269 2991 
Q 1406 3038 1543 3061 
Q 1681 3084 1819 3084 
Q 2600 3084 3056 2656 
Q 3513 2228 3513 1497 
Q 3513 744 3044 326 
Q 2575 -91 1722 -91 
Q 1428 -91 1123 -41 
Q 819 9 494 109 
L 494 744 
Q 775 591 1075 516 
Q 1375 441 1709 441 
Q 2250 441 2565 725 
Q 2881 1009 2881 1497 
Q 2881 1984 2565 2268 
Q 2250 2553 1709 2553 
Q 1456 2553 1204 2497 
Q 953 2441 691 2322 
L 691 4666 
z
" transform="scale(0.015625)"/>
       </defs>
       <use xlink:href="#DejaVuSans-30"/>
       <use xlink:href="#DejaVuSans-2e" x="63.623047"/>
       <use xlink:href="#DejaVuSans-30" x="95.410156"/>
       <use xlink:href="#DejaVuSans-32" x="159.033203"/>
       <use xlink:href="#DejaVuSans-35" x="222.65625"/>
      </g>
     </g>
    </g>
    <g id="xtick_3">
     <g id="line2d_5">
      <path d="M 172.291653 299.32 
L 172.291653 32.64 
" clip-path="url(#pe9288f8366)" style="fill: none; stroke: #b0b0b0; stroke-width: 0.8; stroke-linecap: square"/>
     </g>
     <g id="line2d_6">
      <g>
       <use xlink:href="#md614968cc4" x="172.291653" y="299.32" style="stroke: #000000; stroke-width: 0.8"/>
      </g>
     </g>
     <g id="text_3">
      <!-- 0.050 -->
      <g transform="translate(155.114778 315.438125) scale(0.12 -0.12)">
       <use xlink:href="#DejaVuSans-30"/>
       <use xlink:href="#DejaVuSans-2e" x="63.623047"/>
       <use xlink:href="#DejaVuSans-30" x="95.410156"/>
       <use xlink:href="#DejaVuSans-35" x="159.033203"/>
       <use xlink:href="#DejaVuSans-30" x="222.65625"/>
      </g>
     </g>
    </g>
    <g id="xtick_4">
     <g id="line2d_7">
      <path d="M 215.534008 299.32 
L 215.534008 32.64 
" clip-path="url(#pe9288f8366)" style="fill: none; stroke: #b0b0b0; stroke-width: 0.8; stroke-linecap: square"/>
     </g>
     <g id="line2d_8">
      <g>
       <use xlink:href="#md614968cc4" x="215.534008" y="299.32" style="stroke: #000000; stroke-width: 0.8"/>
      </g>
     </g>
     <g id="text_4">
      <!-- 0.075 -->
      <g transform="translate(198.357133 315.438125) scale(0.12 -0.12)">
       <defs>
        <path id="DejaVuSans-37" d="M 525 4666 
L 3525 4666 
L 3525 4397 
L 1831 0 
L 1172 0 
L 2766 4134 
L 525 4134 
L 525 4666 
z
" transform="scale(0.015625)"/>
       </defs>
       <use xlink:href="#DejaVuSans-30"/>
       <use xlink:href="#DejaVuSans-2e" x="63.623047"/>
       <use xlink:href="#DejaVuSans-30" x="95.410156"/>
       <use xlink:href="#DejaVuSans-37" x="159.033203"/>
       <use xlink:href="#DejaVuSans-35" x="222.65625"/>
      </g>
     </g>
    </g>
    <g id="xtick_5">
     <g id="line2d_9">
      <path d="M 258.776364 299.32 
L 258.776364 32.64 
" clip-path="url(#pe9288f8366)" style="fill: none; stroke: #b0b0b0; stroke-width: 0.8; stroke-linecap: square"/>
     </g>
     <g id="line2d_10">
      <g>
       <use xlink:href="#md614968cc4" x="258.776364" y="299.32" style="stroke: #000000; stroke-width: 0.8"/>
      </g>
     </g>
     <g id="text_5">
      <!-- 0.100 -->
      <g transform="translate(241.599489 315.438125) scale(0.12 -0.12)">
       <defs>
        <path id="DejaVuSans-31" d="M 794 531 
L 1825 531 
L 1825 4091 
L 703 3866 
L 703 4441 
L 1819 4666 
L 2450 4666 
L 2450 531 
L 3481 531 
L 3481 0 
L 794 0 
L 794 531 
z
" transform="scale(0.015625)"/>
       </defs>
       <use xlink:href="#DejaVuSans-30"/>
       <use xlink:href="#DejaVuSans-2e" x="63.623047"/>
       <use xlink:href="#DejaVuSans-31" x="95.410156"/>
       <use xlink:href="#DejaVuSans-30" x="159.033203"/>
       <use xlink:href="#DejaVuSans-30" x="222.65625"/>
      </g>
     </g>
    </g>
    <g id="xtick_6">
     <g id="line2d_11">
      <path d="M 302.018719 299.32 
L 302.018719 32.64 
" clip-path="url(#pe9288f8366)" style="fill: none; stroke: #b0b0b0; stroke-width: 0.8; stroke-linecap: square"/>
     </g>
     <g id="line2d_12">
      <g>
       <use xlink:href="#md614968cc4" x="302.018719" y="299.32" style="stroke: #000000; stroke-width: 0.8"/>
      </g>
     </g>
     <g id="text_6">
      <!-- 0.125 -->
      <g transform="translate(284.841844 315.438125) scale(0.12 -0.12)">
       <use xlink:href="#DejaVuSans-30"/>
       <use xlink:href="#DejaVuSans-2e" x="63.623047"/>
       <use xlink:href="#DejaVuSans-31" x="95.410156"/>
       <use xlink:href="#DejaVuSans-32" x="159.033203"/>
       <use xlink:href="#DejaVuSans-35" x="222.65625"/>
      </g>
     </g>
    </g>
    <g id="xtick_7">
     <g id="line2d_13">
      <path d="M 345.261074 299.32 
L 345.261074 32.64 
" clip-path="url(#pe9288f8366)" style="fill: none; stroke: #b0b0b0; stroke-width: 0.8; stroke-linecap: square"/>
     </g>
     <g id="line2d_14">
      <g>
       <use xlink:href="#md614968cc4" x="345.261074" y="299.32" style="stroke: #000000; stroke-width: 0.8"/>
      </g>
     </g>
     <g id="text_7">
      <!-- 0.150 -->
      <g transform="translate(328.084199 315.438125) scale(0.12 -0.12)">
       <use xlink:href="#DejaVuSans-30"/>
       <use xlink:href="#DejaVuSans-2e" x="63.623047"/>
       <use xlink:href="#DejaVuSans-31" x="95.410156"/>
       <use xlink:href="#DejaVuSans-35" x="159.033203"/>
       <use xlink:href="#DejaVuSans-30" x="222.65625"/>
      </g>
     </g>
    </g>
    <g id="xtick_8">
     <g id="line2d_15">
      <path d="M 388.50343 299.32 
L 388.50343 32.64 
" clip-path="url(#pe9288f8366)" style="fill: none; stroke: #b0b0b0; stroke-width: 0.8; stroke-linecap: square"/>
     </g>
     <g id="line2d_16">
      <g>
       <use xlink:href="#md614968cc4" x="388.50343" y="299.32" style="stroke: #000000; stroke-width: 0.8"/>
      </g>
     </g>
     <g id="text_8">
      <!-- 0.175 -->
      <g transform="translate(371.326555 315.438125) scale(0.12 -0.12)">
       <use xlink:href="#DejaVuSans-30"/>
       <use xlink:href="#DejaVuSans-2e" x="63.623047"/>
       <use xlink:href="#DejaVuSans-31" x="95.410156"/>
       <use xlink:href="#DejaVuSans-37" x="159.033203"/>
       <use xlink:href="#DejaVuSans-35" x="222.65625"/>
      </g>
     </g>
    </g>
    <g id="xtick_9">
     <g id="line2d_17">
      <path d="M 431.745785 299.32 
L 431.745785 32.64 
" clip-path="url(#pe9288f8366)" style="fill: none; stroke: #b0b0b0; stroke-width: 0.8; stroke-linecap: square"/>
     </g>
     <g id="line2d_18">
      <g>
       <use xlink:href="#md614968cc4" x="431.745785" y="299.32" style="stroke: #000000; stroke-width: 0.8"/>
      </g>
     </g>
     <g id="text_9">
      <!-- 0.200 -->
      <g transform="translate(414.56891 315.438125) scale(0.12 -0.12)">
       <use xlink:href="#DejaVuSans-30"/>
       <use xlink:href="#DejaVuSans-2e" x="63.623047"/>
       <use xlink:href="#DejaVuSans-32" x="95.410156"/>
       <use xlink:href="#DejaVuSans-30" x="159.033203"/>
       <use xlink:href="#DejaVuSans-30" x="222.65625"/>
      </g>
     </g>
    </g>
    <g id="text_10">
     <!-- Noise standard deviation -->
     <g transform="translate(171.322301 332.571562) scale(0.14 -0.14)">
      <defs>
       <path id="DejaVuSans-4e" d="M 628 4666 
L 1478 4666 
L 3547 763 
L 3547 4666 
L 4159 4666 
L 4159 0 
L 3309 0 
L 1241 3903 
L 1241 0 
L 628 0 
L 628 4666 
z
" transform="scale(0.015625)"/>
       <path id="DejaVuSans-6f" d="M 1959 3097 
Q 1497 3097 1228 2736 
Q 959 2375 959 1747 
Q 959 1119 1226 758 
Q 1494 397 1959 397 
Q 2419 397 2687 759 
Q 2956 1122 2956 1747 
Q 2956 2369 2687 2733 
Q 2419 3097 1959 3097 
z
M 1959 3584 
Q 2709 3584 3137 3096 
Q 3566 2609 3566 1747 
Q 3566 888 3137 398 
Q 2709 -91 1959 -91 
Q 1206 -91 779 398 
Q 353 888 353 1747 
Q 353 2609 779 3096 
Q 1206 3584 1959 3584 
z
" transform="scale(0.015625)"/>
       <path id="DejaVuSans-69" d="M 603 3500 
L 1178 3500 
L 1178 0 
L 603 0 
L 603 3500 
z
M 603 4863 
L 1178 4863 
L 1178 4134 
L 603 4134 
L 603 4863 
z
" transform="scale(0.015625)"/>
       <path id="DejaVuSans-73" d="M 2834 3397 
L 2834 2853 
Q 2591 2978 2328 3040 
Q 2066 3103 1784 3103 
Q 1356 3103 1142 2972 
Q 928 2841 928 2578 
Q 928 2378 1081 2264 
Q 1234 2150 1697 2047 
L 1894 2003 
Q 2506 1872 2764 1633 
Q 3022 1394 3022 966 
Q 3022 478 2636 193 
Q 2250 -91 1575 -91 
Q 1294 -91 989 -36 
Q 684 19 347 128 
L 347 722 
Q 666 556 975 473 
Q 1284 391 1588 391 
Q 1994 391 2212 530 
Q 2431 669 2431 922 
Q 2431 1156 2273 1281 
Q 2116 1406 1581 1522 
L 1381 1569 
Q 847 1681 609 1914 
Q 372 2147 372 2553 
Q 372 3047 722 3315 
Q 1072 3584 1716 3584 
Q 2034 3584 2315 3537 
Q 2597 3491 2834 3397 
z
" transform="scale(0.015625)"/>
       <path id="DejaVuSans-65" d="M 3597 1894 
L 3597 1613 
L 953 1613 
Q 991 1019 1311 708 
Q 1631 397 2203 397 
Q 2534 397 2845 478 
Q 3156 559 3463 722 
L 3463 178 
Q 3153 47 2828 -22 
Q 2503 -91 2169 -91 
Q 1331 -91 842 396 
Q 353 884 353 1716 
Q 353 2575 817 3079 
Q 1281 3584 2069 3584 
Q 2775 3584 3186 3129 
Q 3597 2675 3597 1894 
z
M 3022 2063 
Q 3016 2534 2758 2815 
Q 2500 3097 2075 3097 
Q 1594 3097 1305 2825 
Q 1016 2553 972 2059 
L 3022 2063 
z
" transform="scale(0.015625)"/>
       <path id="DejaVuSans-20" transform="scale(0.015625)"/>
       <path id="DejaVuSans-74" d="M 1172 4494 
L 1172 3500 
L 2356 3500 
L 2356 3053 
L 1172 3053 
L 1172 1153 
Q 1172 725 1289 603 
Q 1406 481 1766 481 
L 2356 481 
L 2356 0 
L 1766 0 
Q 1100 0 847 248 
Q 594 497 594 1153 
L 594 3053 
L 172 3053 
L 172 3500 
L 594 3500 
L 594 4494 
L 1172 4494 
z
" transform="scale(0.015625)"/>
       <path id="DejaVuSans-61" d="M 2194 1759 
Q 1497 1759 1228 1600 
Q 959 1441 959 1056 
Q 959 750 1161 570 
Q 1363 391 1709 391 
Q 2188 391 2477 730 
Q 2766 1069 2766 1631 
L 2766 1759 
L 2194 1759 
z
M 3341 1997 
L 3341 0 
L 2766 0 
L 2766 531 
Q 2569 213 2275 61 
Q 1981 -91 1556 -91 
Q 1019 -91 701 211 
Q 384 513 384 1019 
Q 384 1609 779 1909 
Q 1175 2209 1959 2209 
L 2766 2209 
L 2766 2266 
Q 2766 2663 2505 2880 
Q 2244 3097 1772 3097 
Q 1472 3097 1187 3025 
Q 903 2953 641 2809 
L 641 3341 
Q 956 3463 1253 3523 
Q 1550 3584 1831 3584 
Q 2591 3584 2966 3190 
Q 3341 2797 3341 1997 
z
" transform="scale(0.015625)"/>
       <path id="DejaVuSans-6e" d="M 3513 2113 
L 3513 0 
L 2938 0 
L 2938 2094 
Q 2938 2591 2744 2837 
Q 2550 3084 2163 3084 
Q 1697 3084 1428 2787 
Q 1159 2491 1159 1978 
L 1159 0 
L 581 0 
L 581 3500 
L 1159 3500 
L 1159 2956 
Q 1366 3272 1645 3428 
Q 1925 3584 2291 3584 
Q 2894 3584 3203 3211 
Q 3513 2838 3513 2113 
z
" transform="scale(0.015625)"/>
       <path id="DejaVuSans-64" d="M 2906 2969 
L 2906 4863 
L 3481 4863 
L 3481 0 
L 2906 0 
L 2906 525 
Q 2725 213 2448 61 
Q 2172 -91 1784 -91 
Q 1150 -91 751 415 
Q 353 922 353 1747 
Q 353 2572 751 3078 
Q 1150 3584 1784 3584 
Q 2172 3584 2448 3432 
Q 2725 3281 2906 2969 
z
M 947 1747 
Q 947 1113 1208 752 
Q 1469 391 1925 391 
Q 2381 391 2643 752 
Q 2906 1113 2906 1747 
Q 2906 2381 2643 2742 
Q 2381 3103 1925 3103 
Q 1469 3103 1208 2742 
Q 947 2381 947 1747 
z
" transform="scale(0.015625)"/>
       <path id="DejaVuSans-72" d="M 2631 2963 
Q 2534 3019 2420 3045 
Q 2306 3072 2169 3072 
Q 1681 3072 1420 2755 
Q 1159 2438 1159 1844 
L 1159 0 
L 581 0 
L 581 3500 
L 1159 3500 
L 1159 2956 
Q 1341 3275 1631 3429 
Q 1922 3584 2338 3584 
Q 2397 3584 2469 3576 
Q 2541 3569 2628 3553 
L 2631 2963 
z
" transform="scale(0.015625)"/>
       <path id="DejaVuSans-76" d="M 191 3500 
L 800 3500 
L 1894 563 
L 2988 3500 
L 3597 3500 
L 2284 0 
L 1503 0 
L 191 3500 
z
" transform="scale(0.015625)"/>
      </defs>
      <use xlink:href="#DejaVuSans-4e"/>
      <use xlink:href="#DejaVuSans-6f" x="74.804688"/>
      <use xlink:href="#DejaVuSans-69" x="135.986328"/>
      <use xlink:href="#DejaVuSans-73" x="163.769531"/>
      <use xlink:href="#DejaVuSans-65" x="215.869141"/>
      <use xlink:href="#DejaVuSans-20" x="277.392578"/>
      <use xlink:href="#DejaVuSans-73" x="309.179688"/>
      <use xlink:href="#DejaVuSans-74" x="361.279297"/>
      <use xlink:href="#DejaVuSans-61" x="400.488281"/>
      <use xlink:href="#DejaVuSans-6e" x="461.767578"/>
      <use xlink:href="#DejaVuSans-64" x="525.146484"/>
      <use xlink:href="#DejaVuSans-61" x="588.623047"/>
      <use xlink:href="#DejaVuSans-72" x="649.902344"/>
      <use xlink:href="#DejaVuSans-64" x="689.265625"/>
      <use xlink:href="#DejaVuSans-20" x="752.742188"/>
      <use xlink:href="#DejaVuSans-64" x="784.529297"/>
      <use xlink:href="#DejaVuSans-65" x="848.005859"/>
      <use xlink:href="#DejaVuSans-76" x="909.529297"/>
      <use xlink:href="#DejaVuSans-69" x="968.708984"/>
      <use xlink:href="#DejaVuSans-61" x="996.492188"/>
      <use xlink:href="#DejaVuSans-74" x="1057.771484"/>
      <use xlink:href="#DejaVuSans-69" x="1096.980469"/>
      <use xlink:href="#DejaVuSans-6f" x="1124.763672"/>
      <use xlink:href="#DejaVuSans-6e" x="1185.945312"/>
     </g>
    </g>
   </g>
   <g id="matplotlib.axis_2">
    <g id="ytick_1">
     <g id="line2d_19">
      <path d="M 68.51 274.220211 
L 449.042727 274.220211 
" clip-path="url(#pe9288f8366)" style="fill: none; stroke: #b0b0b0; stroke-width: 0.8; stroke-linecap: square"/>
     </g>
     <g id="line2d_20">
      <defs>
       <path id="mf889cf1798" d="M 0 0 
L -3.5 0 
" style="stroke: #000000; stroke-width: 0.8"/>
      </defs>
      <g>
       <use xlink:href="#mf889cf1798" x="68.51" y="274.220211" style="stroke: #000000; stroke-width: 0.8"/>
      </g>
     </g>
     <g id="text_11">
      <!-- −800 -->
      <g transform="translate(28.549375 278.779273) scale(0.12 -0.12)">
       <defs>
        <path id="DejaVuSans-2212" d="M 678 2272 
L 4684 2272 
L 4684 1741 
L 678 1741 
L 678 2272 
z
" transform="scale(0.015625)"/>
        <path id="DejaVuSans-38" d="M 2034 2216 
Q 1584 2216 1326 1975 
Q 1069 1734 1069 1313 
Q 1069 891 1326 650 
Q 1584 409 2034 409 
Q 2484 409 2743 651 
Q 3003 894 3003 1313 
Q 3003 1734 2745 1975 
Q 2488 2216 2034 2216 
z
M 1403 2484 
Q 997 2584 770 2862 
Q 544 3141 544 3541 
Q 544 4100 942 4425 
Q 1341 4750 2034 4750 
Q 2731 4750 3128 4425 
Q 3525 4100 3525 3541 
Q 3525 3141 3298 2862 
Q 3072 2584 2669 2484 
Q 3125 2378 3379 2068 
Q 3634 1759 3634 1313 
Q 3634 634 3220 271 
Q 2806 -91 2034 -91 
Q 1263 -91 848 271 
Q 434 634 434 1313 
Q 434 1759 690 2068 
Q 947 2378 1403 2484 
z
M 1172 3481 
Q 1172 3119 1398 2916 
Q 1625 2713 2034 2713 
Q 2441 2713 2670 2916 
Q 2900 3119 2900 3481 
Q 2900 3844 2670 4047 
Q 2441 4250 2034 4250 
Q 1625 4250 1398 4047 
Q 1172 3844 1172 3481 
z
" transform="scale(0.015625)"/>
       </defs>
       <use xlink:href="#DejaVuSans-2212"/>
       <use xlink:href="#DejaVuSans-38" x="83.789062"/>
       <use xlink:href="#DejaVuSans-30" x="147.412109"/>
       <use xlink:href="#DejaVuSans-30" x="211.035156"/>
      </g>
     </g>
    </g>
    <g id="ytick_2">
     <g id="line2d_21">
      <path d="M 68.51 243.715794 
L 449.042727 243.715794 
" clip-path="url(#pe9288f8366)" style="fill: none; stroke: #b0b0b0; stroke-width: 0.8; stroke-linecap: square"/>
     </g>
     <g id="line2d_22">
      <g>
       <use xlink:href="#mf889cf1798" x="68.51" y="243.715794" style="stroke: #000000; stroke-width: 0.8"/>
      </g>
     </g>
     <g id="text_12">
      <!-- −700 -->
      <g transform="translate(28.549375 248.274857) scale(0.12 -0.12)">
       <use xlink:href="#DejaVuSans-2212"/>
       <use xlink:href="#DejaVuSans-37" x="83.789062"/>
       <use xlink:href="#DejaVuSans-30" x="147.412109"/>
       <use xlink:href="#DejaVuSans-30" x="211.035156"/>
      </g>
     </g>
    </g>
    <g id="ytick_3">
     <g id="line2d_23">
      <path d="M 68.51 213.211378 
L 449.042727 213.211378 
" clip-path="url(#pe9288f8366)" style="fill: none; stroke: #b0b0b0; stroke-width: 0.8; stroke-linecap: square"/>
     </g>
     <g id="line2d_24">
      <g>
       <use xlink:href="#mf889cf1798" x="68.51" y="213.211378" style="stroke: #000000; stroke-width: 0.8"/>
      </g>
     </g>
     <g id="text_13">
      <!-- −600 -->
      <g transform="translate(28.549375 217.77044) scale(0.12 -0.12)">
       <defs>
        <path id="DejaVuSans-36" d="M 2113 2584 
Q 1688 2584 1439 2293 
Q 1191 2003 1191 1497 
Q 1191 994 1439 701 
Q 1688 409 2113 409 
Q 2538 409 2786 701 
Q 3034 994 3034 1497 
Q 3034 2003 2786 2293 
Q 2538 2584 2113 2584 
z
M 3366 4563 
L 3366 3988 
Q 3128 4100 2886 4159 
Q 2644 4219 2406 4219 
Q 1781 4219 1451 3797 
Q 1122 3375 1075 2522 
Q 1259 2794 1537 2939 
Q 1816 3084 2150 3084 
Q 2853 3084 3261 2657 
Q 3669 2231 3669 1497 
Q 3669 778 3244 343 
Q 2819 -91 2113 -91 
Q 1303 -91 875 529 
Q 447 1150 447 2328 
Q 447 3434 972 4092 
Q 1497 4750 2381 4750 
Q 2619 4750 2861 4703 
Q 3103 4656 3366 4563 
z
" transform="scale(0.015625)"/>
       </defs>
       <use xlink:href="#DejaVuSans-2212"/>
       <use xlink:href="#DejaVuSans-36" x="83.789062"/>
       <use xlink:href="#DejaVuSans-30" x="147.412109"/>
       <use xlink:href="#DejaVuSans-30" x="211.035156"/>
      </g>
     </g>
    </g>
    <g id="ytick_4">
     <g id="line2d_25">
      <path d="M 68.51 182.706961 
L 449.042727 182.706961 
" clip-path="url(#pe9288f8366)" style="fill: none; stroke: #b0b0b0; stroke-width: 0.8; stroke-linecap: square"/>
     </g>
     <g id="line2d_26">
      <g>
       <use xlink:href="#mf889cf1798" x="68.51" y="182.706961" style="stroke: #000000; stroke-width: 0.8"/>
      </g>
     </g>
     <g id="text_14">
      <!-- −500 -->
      <g transform="translate(28.549375 187.266024) scale(0.12 -0.12)">
       <use xlink:href="#DejaVuSans-2212"/>
       <use xlink:href="#DejaVuSans-35" x="83.789062"/>
       <use xlink:href="#DejaVuSans-30" x="147.412109"/>
       <use xlink:href="#DejaVuSans-30" x="211.035156"/>
      </g>
     </g>
    </g>
    <g id="ytick_5">
     <g id="line2d_27">
      <path d="M 68.51 152.202545 
L 449.042727 152.202545 
" clip-path="url(#pe9288f8366)" style="fill: none; stroke: #b0b0b0; stroke-width: 0.8; stroke-linecap: square"/>
     </g>
     <g id="line2d_28">
      <g>
       <use xlink:href="#mf889cf1798" x="68.51" y="152.202545" style="stroke: #000000; stroke-width: 0.8"/>
      </g>
     </g>
     <g id="text_15">
      <!-- −400 -->
      <g transform="translate(28.549375 156.761607) scale(0.12 -0.12)">
       <defs>
        <path id="DejaVuSans-34" d="M 2419 4116 
L 825 1625 
L 2419 1625 
L 2419 4116 
z
M 2253 4666 
L 3047 4666 
L 3047 1625 
L 3713 1625 
L 3713 1100 
L 3047 1100 
L 3047 0 
L 2419 0 
L 2419 1100 
L 313 1100 
L 313 1709 
L 2253 4666 
z
" transform="scale(0.015625)"/>
       </defs>
       <use xlink:href="#DejaVuSans-2212"/>
       <use xlink:href="#DejaVuSans-34" x="83.789062"/>
       <use xlink:href="#DejaVuSans-30" x="147.412109"/>
       <use xlink:href="#DejaVuSans-30" x="211.035156"/>
      </g>
     </g>
    </g>
    <g id="ytick_6">
     <g id="line2d_29">
      <path d="M 68.51 121.698128 
L 449.042727 121.698128 
" clip-path="url(#pe9288f8366)" style="fill: none; stroke: #b0b0b0; stroke-width: 0.8; stroke-linecap: square"/>
     </g>
     <g id="line2d_30">
      <g>
       <use xlink:href="#mf889cf1798" x="68.51" y="121.698128" style="stroke: #000000; stroke-width: 0.8"/>
      </g>
     </g>
     <g id="text_16">
      <!-- −300 -->
      <g transform="translate(28.549375 126.257191) scale(0.12 -0.12)">
       <defs>
        <path id="DejaVuSans-33" d="M 2597 2516 
Q 3050 2419 3304 2112 
Q 3559 1806 3559 1356 
Q 3559 666 3084 287 
Q 2609 -91 1734 -91 
Q 1441 -91 1130 -33 
Q 819 25 488 141 
L 488 750 
Q 750 597 1062 519 
Q 1375 441 1716 441 
Q 2309 441 2620 675 
Q 2931 909 2931 1356 
Q 2931 1769 2642 2001 
Q 2353 2234 1838 2234 
L 1294 2234 
L 1294 2753 
L 1863 2753 
Q 2328 2753 2575 2939 
Q 2822 3125 2822 3475 
Q 2822 3834 2567 4026 
Q 2313 4219 1838 4219 
Q 1578 4219 1281 4162 
Q 984 4106 628 3988 
L 628 4550 
Q 988 4650 1302 4700 
Q 1616 4750 1894 4750 
Q 2613 4750 3031 4423 
Q 3450 4097 3450 3541 
Q 3450 3153 3228 2886 
Q 3006 2619 2597 2516 
z
" transform="scale(0.015625)"/>
       </defs>
       <use xlink:href="#DejaVuSans-2212"/>
       <use xlink:href="#DejaVuSans-33" x="83.789062"/>
       <use xlink:href="#DejaVuSans-30" x="147.412109"/>
       <use xlink:href="#DejaVuSans-30" x="211.035156"/>
      </g>
     </g>
    </g>
    <g id="ytick_7">
     <g id="line2d_31">
      <path d="M 68.51 91.193711 
L 449.042727 91.193711 
" clip-path="url(#pe9288f8366)" style="fill: none; stroke: #b0b0b0; stroke-width: 0.8; stroke-linecap: square"/>
     </g>
     <g id="line2d_32">
      <g>
       <use xlink:href="#mf889cf1798" x="68.51" y="91.193711" style="stroke: #000000; stroke-width: 0.8"/>
      </g>
     </g>
     <g id="text_17">
      <!-- −200 -->
      <g transform="translate(28.549375 95.752774) scale(0.12 -0.12)">
       <use xlink:href="#DejaVuSans-2212"/>
       <use xlink:href="#DejaVuSans-32" x="83.789062"/>
       <use xlink:href="#DejaVuSans-30" x="147.412109"/>
       <use xlink:href="#DejaVuSans-30" x="211.035156"/>
      </g>
     </g>
    </g>
    <g id="ytick_8">
     <g id="line2d_33">
      <path d="M 68.51 60.689295 
L 449.042727 60.689295 
" clip-path="url(#pe9288f8366)" style="fill: none; stroke: #b0b0b0; stroke-width: 0.8; stroke-linecap: square"/>
     </g>
     <g id="line2d_34">
      <g>
       <use xlink:href="#mf889cf1798" x="68.51" y="60.689295" style="stroke: #000000; stroke-width: 0.8"/>
      </g>
     </g>
     <g id="text_18">
      <!-- −100 -->
      <g transform="translate(28.549375 65.248357) scale(0.12 -0.12)">
       <use xlink:href="#DejaVuSans-2212"/>
       <use xlink:href="#DejaVuSans-31" x="83.789062"/>
       <use xlink:href="#DejaVuSans-30" x="147.412109"/>
       <use xlink:href="#DejaVuSans-30" x="211.035156"/>
      </g>
     </g>
    </g>
    <g id="text_19">
     <!-- Reward -->
     <g transform="translate(21.637813 192.049531) rotate(-90) scale(0.14 -0.14)">
      <defs>
       <path id="DejaVuSans-52" d="M 2841 2188 
Q 3044 2119 3236 1894 
Q 3428 1669 3622 1275 
L 4263 0 
L 3584 0 
L 2988 1197 
Q 2756 1666 2539 1819 
Q 2322 1972 1947 1972 
L 1259 1972 
L 1259 0 
L 628 0 
L 628 4666 
L 2053 4666 
Q 2853 4666 3247 4331 
Q 3641 3997 3641 3322 
Q 3641 2881 3436 2590 
Q 3231 2300 2841 2188 
z
M 1259 4147 
L 1259 2491 
L 2053 2491 
Q 2509 2491 2742 2702 
Q 2975 2913 2975 3322 
Q 2975 3731 2742 3939 
Q 2509 4147 2053 4147 
L 1259 4147 
z
" transform="scale(0.015625)"/>
       <path id="DejaVuSans-77" d="M 269 3500 
L 844 3500 
L 1563 769 
L 2278 3500 
L 2956 3500 
L 3675 769 
L 4391 3500 
L 4966 3500 
L 4050 0 
L 3372 0 
L 2619 2869 
L 1863 0 
L 1184 0 
L 269 3500 
z
" transform="scale(0.015625)"/>
      </defs>
      <use xlink:href="#DejaVuSans-52"/>
      <use xlink:href="#DejaVuSans-65" x="64.982422"/>
      <use xlink:href="#DejaVuSans-77" x="126.505859"/>
      <use xlink:href="#DejaVuSans-61" x="208.292969"/>
      <use xlink:href="#DejaVuSans-72" x="269.572266"/>
      <use xlink:href="#DejaVuSans-64" x="308.935547"/>
     </g>
    </g>
   </g>
   <g id="line2d_35">
    <path d="M 85.806942 148.54766 
L 89.301274 129.266243 
L 92.795606 113.811237 
L 96.289937 113.768177 
L 99.784269 136.951398 
L 103.278601 113.852383 
L 106.772933 121.393924 
L 110.267264 152.573012 
L 113.761596 144.905492 
L 117.255928 129.352225 
L 120.75026 121.589865 
L 124.244591 168.264716 
L 127.738923 113.709732 
L 131.233255 121.403192 
L 134.727587 129.839135 
L 138.221918 129.327995 
L 141.71625 129.268803 
L 145.210582 160.428311 
L 148.704914 106.13914 
L 152.199245 113.709537 
L 155.693577 121.552196 
L 159.187909 129.222667 
L 162.682241 121.473576 
L 166.176572 129.162185 
L 169.670904 168.007438 
L 173.165236 168.330442 
L 176.659568 144.806577 
L 180.153899 144.671494 
L 183.648231 137.061527 
L 187.142563 121.587702 
L 190.636895 121.520748 
L 194.131226 129.315193 
L 197.625558 153.304275 
L 201.11989 121.759982 
L 204.614222 168.735114 
L 208.108553 152.10164 
L 211.602885 149.690508 
L 215.097217 152.653431 
L 218.591549 152.021094 
L 222.08588 191.615424 
L 225.580212 157.417049 
L 229.074544 192.242462 
L 232.568876 151.984037 
L 236.063207 160.308614 
L 239.557539 176.157927 
L 243.051871 160.32821 
L 246.546203 129.421026 
L 250.040534 129.405334 
L 253.534866 208.136083 
L 257.029198 179.065528 
L 260.52353 190.064997 
L 264.017861 178.665617 
L 267.512193 187.99316 
L 271.006525 202.778506 
L 274.500856 215.110114 
L 277.995188 207.49807 
L 281.48952 228.940407 
L 284.983852 222.18507 
L 288.478183 190.563956 
L 291.972515 189.397915 
L 295.466847 220.31441 
L 298.961179 190.908335 
L 302.45551 202.855416 
L 305.949842 205.157934 
L 309.444174 222.510775 
L 312.938506 220.713909 
L 316.432837 197.929785 
L 319.927169 206.839242 
L 323.421501 225.417529 
L 326.915833 219.810537 
L 330.410164 214.200699 
L 333.904496 208.183664 
L 337.398828 224.765041 
L 340.89316 199.164533 
L 344.387491 215.398317 
L 347.881823 196.080477 
L 351.376155 209.18153 
L 354.870487 216.52857 
L 358.364818 221.982419 
L 361.85915 206.609652 
L 365.353482 231.183324 
L 368.847814 207.820799 
L 372.342145 244.078851 
L 375.836477 231.263041 
L 379.330809 231.098916 
L 382.825141 244.278065 
L 386.319472 230.094891 
L 389.813804 251.865238 
L 393.308136 232.283548 
L 396.802468 244.187464 
L 400.296799 247.755087 
L 403.791131 234.744325 
L 407.285463 220.345882 
L 410.779795 230.144247 
L 414.274126 222.022002 
L 417.768458 220.88811 
L 421.26279 252.623779 
L 424.757122 250.57628 
L 428.251453 247.769077 
L 431.745785 230.562005 
" clip-path="url(#pe9288f8366)" style="fill: none; stroke: #1f77b4; stroke-width: 1.5; stroke-linecap: square"/>
   </g>
   <g id="line2d_36">
    <path d="M 85.806942 115.963746 
L 89.301274 115.755157 
L 92.795606 108.523838 
L 96.289937 117.771636 
L 99.784269 112.568952 
L 103.278601 116.221407 
L 106.772933 133.730116 
L 110.267264 116.013743 
L 113.761596 110.065199 
L 117.255928 108.668915 
L 120.75026 111.435426 
L 124.244591 130.504749 
L 127.738923 115.516349 
L 131.233255 108.246478 
L 134.727587 108.187827 
L 138.221918 139.434433 
L 141.71625 115.559844 
L 145.210582 108.225137 
L 148.704914 115.838936 
L 152.199245 109.586437 
L 155.693577 122.361058 
L 159.187909 110.466591 
L 162.682241 117.258545 
L 166.176572 125.555719 
L 169.670904 110.447652 
L 173.165236 124.433005 
L 176.659568 116.77145 
L 180.153899 123.97836 
L 183.648231 143.849645 
L 187.142563 147.436644 
L 190.636895 116.432496 
L 194.131226 139.646806 
L 197.625558 125.682237 
L 201.11989 145.146843 
L 204.614222 139.366079 
L 208.108553 150.482601 
L 211.602885 121.968049 
L 215.097217 139.645812 
L 218.591549 122.822395 
L 222.08588 155.617746 
L 225.580212 131.978601 
L 229.074544 162.634791 
L 232.568876 142.580104 
L 236.063207 131.649021 
L 239.557539 154.867856 
L 243.051871 136.389751 
L 246.546203 152.675518 
L 250.040534 123.958933 
L 253.534866 136.049425 
L 257.029198 155.57019 
L 260.52353 139.763638 
L 264.017861 132.508696 
L 267.512193 170.556516 
L 271.006525 146.49976 
L 274.500856 149.990071 
L 277.995188 162.331734 
L 281.48952 165.470312 
L 284.983852 146.727042 
L 288.478183 155.305443 
L 291.972515 131.399486 
L 295.466847 176.312926 
L 298.961179 165.636613 
L 302.45551 155.712006 
L 305.949842 162.358657 
L 309.444174 162.42981 
L 312.938506 177.242019 
L 316.432837 171.678811 
L 319.927169 161.830343 
L 323.421501 189.794396 
L 326.915833 169.88563 
L 330.410164 186.459476 
L 333.904496 131.621175 
L 337.398828 154.382106 
L 340.89316 204.496722 
L 344.387491 156.895498 
L 347.881823 178.190193 
L 351.376155 178.204802 
L 354.870487 220.642296 
L 358.364818 201.210774 
L 361.85915 210.821543 
L 365.353482 205.931484 
L 368.847814 181.401669 
L 372.342145 171.196354 
L 375.836477 206.093901 
L 379.330809 192.800213 
L 382.825141 160.750856 
L 386.319472 176.920902 
L 389.813804 201.771828 
L 393.308136 201.751188 
L 396.802468 203.162592 
L 400.296799 202.223592 
L 403.791131 205.42333 
L 407.285463 199.1771 
L 410.779795 202.027186 
L 414.274126 207.508139 
L 417.768458 177.226535 
L 421.26279 198.419259 
L 424.757122 211.422468 
L 428.251453 227.549266 
L 431.745785 221.430089 
" clip-path="url(#pe9288f8366)" style="fill: none; stroke: #ff7f0e; stroke-width: 1.5; stroke-linecap: square"/>
   </g>
   <g id="line2d_37">
    <path d="M 85.806942 67.889863 
L 89.301274 67.869474 
L 92.795606 67.891244 
L 96.289937 67.971412 
L 99.784269 67.944335 
L 103.278601 67.88437 
L 106.772933 67.866542 
L 110.267264 67.81991 
L 113.761596 67.847721 
L 117.255928 67.806078 
L 120.75026 67.877377 
L 124.244591 67.940889 
L 127.738923 67.883911 
L 131.233255 67.890435 
L 134.727587 67.853539 
L 138.221918 67.923157 
L 141.71625 67.899107 
L 145.210582 67.661812 
L 148.704914 67.807194 
L 152.199245 67.888871 
L 155.693577 67.603128 
L 159.187909 67.955947 
L 162.682241 67.629255 
L 166.176572 67.992112 
L 169.670904 67.962859 
L 173.165236 68.023448 
L 176.659568 67.845155 
L 180.153899 67.803209 
L 183.648231 67.773052 
L 187.142563 67.926272 
L 190.636895 67.692259 
L 194.131226 67.675895 
L 197.625558 67.769774 
L 201.11989 67.781713 
L 204.614222 67.872084 
L 208.108553 68.03903 
L 211.602885 67.864969 
L 215.097217 67.80575 
L 218.591549 67.951366 
L 222.08588 67.932757 
L 225.580212 67.797599 
L 229.074544 68.095464 
L 232.568876 68.101777 
L 236.063207 67.902695 
L 239.557539 82.413535 
L 243.051871 68.016632 
L 246.546203 67.919032 
L 250.040534 67.892148 
L 253.534866 75.758926 
L 257.029198 68.350141 
L 260.52353 75.605289 
L 264.017861 68.466248 
L 267.512193 75.823142 
L 271.006525 68.101964 
L 274.500856 76.495793 
L 277.995188 76.346513 
L 281.48952 74.862335 
L 284.983852 75.98092 
L 288.478183 82.10496 
L 291.972515 83.65349 
L 295.466847 91.449789 
L 298.961179 90.990534 
L 302.45551 90.95034 
L 305.949842 83.724281 
L 309.444174 99.495921 
L 312.938506 105.598528 
L 316.432837 75.55488 
L 319.927169 83.268826 
L 323.421501 83.579479 
L 326.915833 90.506203 
L 330.410164 101.119361 
L 333.904496 114.387744 
L 337.398828 106.832843 
L 340.89316 106.108704 
L 344.387491 127.226404 
L 347.881823 129.08779 
L 351.376155 106.840538 
L 354.870487 128.330058 
L 358.364818 111.041379 
L 361.85915 98.808932 
L 365.353482 144.956939 
L 368.847814 135.473714 
L 372.342145 157.969399 
L 375.836477 134.721393 
L 379.330809 163.61079 
L 382.825141 119.895614 
L 386.319472 156.123547 
L 389.813804 136.375481 
L 393.308136 144.170927 
L 396.802468 141.463712 
L 400.296799 191.291639 
L 403.791131 173.678533 
L 407.285463 187.140922 
L 410.779795 187.779596 
L 414.274126 178.653484 
L 417.768458 172.696398 
L 421.26279 197.285837 
L 424.757122 203.752031 
L 428.251453 153.847125 
L 431.745785 180.130345 
" clip-path="url(#pe9288f8366)" style="fill: none; stroke: #2ca02c; stroke-width: 1.5; stroke-linecap: square"/>
   </g>
   <g id="patch_3">
    <path d="M 68.51 299.32 
L 68.51 32.64 
" style="fill: none; stroke: #000000; stroke-width: 0.8; stroke-linejoin: miter; stroke-linecap: square"/>
   </g>
   <g id="patch_4">
    <path d="M 449.042727 299.32 
L 449.042727 32.64 
" style="fill: none; stroke: #000000; stroke-width: 0.8; stroke-linejoin: miter; stroke-linecap: square"/>
   </g>
   <g id="patch_5">
    <path d="M 68.51 299.32 
L 449.042727 299.32 
" style="fill: none; stroke: #000000; stroke-width: 0.8; stroke-linejoin: miter; stroke-linecap: square"/>
   </g>
   <g id="patch_6">
    <path d="M 68.51 32.64 
L 449.042727 32.64 
" style="fill: none; stroke: #000000; stroke-width: 0.8; stroke-linejoin: miter; stroke-linecap: square"/>
   </g>
   <g id="text_20">
    <!-- Pendulum Robustness Comparison -->
    <g transform="translate(63.120114 26.64) scale(0.2 -0.2)">
     <defs>
      <path id="DejaVuSans-Bold-50" d="M 588 4666 
L 2584 4666 
Q 3475 4666 3951 4270 
Q 4428 3875 4428 3144 
Q 4428 2409 3951 2014 
Q 3475 1619 2584 1619 
L 1791 1619 
L 1791 0 
L 588 0 
L 588 4666 
z
M 1791 3794 
L 1791 2491 
L 2456 2491 
Q 2806 2491 2997 2661 
Q 3188 2831 3188 3144 
Q 3188 3456 2997 3625 
Q 2806 3794 2456 3794 
L 1791 3794 
z
" transform="scale(0.015625)"/>
      <path id="DejaVuSans-Bold-65" d="M 4031 1759 
L 4031 1441 
L 1416 1441 
Q 1456 1047 1700 850 
Q 1944 653 2381 653 
Q 2734 653 3104 758 
Q 3475 863 3866 1075 
L 3866 213 
Q 3469 63 3072 -14 
Q 2675 -91 2278 -91 
Q 1328 -91 801 392 
Q 275 875 275 1747 
Q 275 2603 792 3093 
Q 1309 3584 2216 3584 
Q 3041 3584 3536 3087 
Q 4031 2591 4031 1759 
z
M 2881 2131 
Q 2881 2450 2695 2645 
Q 2509 2841 2209 2841 
Q 1884 2841 1681 2658 
Q 1478 2475 1428 2131 
L 2881 2131 
z
" transform="scale(0.015625)"/>
      <path id="DejaVuSans-Bold-6e" d="M 4056 2131 
L 4056 0 
L 2931 0 
L 2931 347 
L 2931 1631 
Q 2931 2084 2911 2256 
Q 2891 2428 2841 2509 
Q 2775 2619 2662 2680 
Q 2550 2741 2406 2741 
Q 2056 2741 1856 2470 
Q 1656 2200 1656 1722 
L 1656 0 
L 538 0 
L 538 3500 
L 1656 3500 
L 1656 2988 
Q 1909 3294 2193 3439 
Q 2478 3584 2822 3584 
Q 3428 3584 3742 3212 
Q 4056 2841 4056 2131 
z
" transform="scale(0.015625)"/>
      <path id="DejaVuSans-Bold-64" d="M 2919 2988 
L 2919 4863 
L 4044 4863 
L 4044 0 
L 2919 0 
L 2919 506 
Q 2688 197 2409 53 
Q 2131 -91 1766 -91 
Q 1119 -91 703 423 
Q 288 938 288 1747 
Q 288 2556 703 3070 
Q 1119 3584 1766 3584 
Q 2128 3584 2408 3439 
Q 2688 3294 2919 2988 
z
M 2181 722 
Q 2541 722 2730 984 
Q 2919 1247 2919 1747 
Q 2919 2247 2730 2509 
Q 2541 2772 2181 2772 
Q 1825 2772 1636 2509 
Q 1447 2247 1447 1747 
Q 1447 1247 1636 984 
Q 1825 722 2181 722 
z
" transform="scale(0.015625)"/>
      <path id="DejaVuSans-Bold-75" d="M 500 1363 
L 500 3500 
L 1625 3500 
L 1625 3150 
Q 1625 2866 1622 2436 
Q 1619 2006 1619 1863 
Q 1619 1441 1641 1255 
Q 1663 1069 1716 984 
Q 1784 875 1895 815 
Q 2006 756 2150 756 
Q 2500 756 2700 1025 
Q 2900 1294 2900 1772 
L 2900 3500 
L 4019 3500 
L 4019 0 
L 2900 0 
L 2900 506 
Q 2647 200 2364 54 
Q 2081 -91 1741 -91 
Q 1134 -91 817 281 
Q 500 653 500 1363 
z
" transform="scale(0.015625)"/>
      <path id="DejaVuSans-Bold-6c" d="M 538 4863 
L 1656 4863 
L 1656 0 
L 538 0 
L 538 4863 
z
" transform="scale(0.015625)"/>
      <path id="DejaVuSans-Bold-6d" d="M 3781 2919 
Q 3994 3244 4286 3414 
Q 4578 3584 4928 3584 
Q 5531 3584 5847 3212 
Q 6163 2841 6163 2131 
L 6163 0 
L 5038 0 
L 5038 1825 
Q 5041 1866 5042 1909 
Q 5044 1953 5044 2034 
Q 5044 2406 4934 2573 
Q 4825 2741 4581 2741 
Q 4263 2741 4089 2478 
Q 3916 2216 3909 1719 
L 3909 0 
L 2784 0 
L 2784 1825 
Q 2784 2406 2684 2573 
Q 2584 2741 2328 2741 
Q 2006 2741 1831 2477 
Q 1656 2213 1656 1722 
L 1656 0 
L 531 0 
L 531 3500 
L 1656 3500 
L 1656 2988 
Q 1863 3284 2130 3434 
Q 2397 3584 2719 3584 
Q 3081 3584 3359 3409 
Q 3638 3234 3781 2919 
z
" transform="scale(0.015625)"/>
      <path id="DejaVuSans-Bold-20" transform="scale(0.015625)"/>
      <path id="DejaVuSans-Bold-52" d="M 2297 2597 
Q 2675 2597 2839 2737 
Q 3003 2878 3003 3200 
Q 3003 3519 2839 3656 
Q 2675 3794 2297 3794 
L 1791 3794 
L 1791 2597 
L 2297 2597 
z
M 1791 1766 
L 1791 0 
L 588 0 
L 588 4666 
L 2425 4666 
Q 3347 4666 3776 4356 
Q 4206 4047 4206 3378 
Q 4206 2916 3982 2619 
Q 3759 2322 3309 2181 
Q 3556 2125 3751 1926 
Q 3947 1728 4147 1325 
L 4800 0 
L 3519 0 
L 2950 1159 
Q 2778 1509 2601 1637 
Q 2425 1766 2131 1766 
L 1791 1766 
z
" transform="scale(0.015625)"/>
      <path id="DejaVuSans-Bold-6f" d="M 2203 2784 
Q 1831 2784 1636 2517 
Q 1441 2250 1441 1747 
Q 1441 1244 1636 976 
Q 1831 709 2203 709 
Q 2569 709 2762 976 
Q 2956 1244 2956 1747 
Q 2956 2250 2762 2517 
Q 2569 2784 2203 2784 
z
M 2203 3584 
Q 3106 3584 3614 3096 
Q 4122 2609 4122 1747 
Q 4122 884 3614 396 
Q 3106 -91 2203 -91 
Q 1297 -91 786 396 
Q 275 884 275 1747 
Q 275 2609 786 3096 
Q 1297 3584 2203 3584 
z
" transform="scale(0.015625)"/>
      <path id="DejaVuSans-Bold-62" d="M 2400 722 
Q 2759 722 2948 984 
Q 3138 1247 3138 1747 
Q 3138 2247 2948 2509 
Q 2759 2772 2400 2772 
Q 2041 2772 1848 2508 
Q 1656 2244 1656 1747 
Q 1656 1250 1848 986 
Q 2041 722 2400 722 
z
M 1656 2988 
Q 1888 3294 2169 3439 
Q 2450 3584 2816 3584 
Q 3463 3584 3878 3070 
Q 4294 2556 4294 1747 
Q 4294 938 3878 423 
Q 3463 -91 2816 -91 
Q 2450 -91 2169 54 
Q 1888 200 1656 506 
L 1656 0 
L 538 0 
L 538 4863 
L 1656 4863 
L 1656 2988 
z
" transform="scale(0.015625)"/>
      <path id="DejaVuSans-Bold-73" d="M 3272 3391 
L 3272 2541 
Q 2913 2691 2578 2766 
Q 2244 2841 1947 2841 
Q 1628 2841 1473 2761 
Q 1319 2681 1319 2516 
Q 1319 2381 1436 2309 
Q 1553 2238 1856 2203 
L 2053 2175 
Q 2913 2066 3209 1816 
Q 3506 1566 3506 1031 
Q 3506 472 3093 190 
Q 2681 -91 1863 -91 
Q 1516 -91 1145 -36 
Q 775 19 384 128 
L 384 978 
Q 719 816 1070 734 
Q 1422 653 1784 653 
Q 2113 653 2278 743 
Q 2444 834 2444 1013 
Q 2444 1163 2330 1236 
Q 2216 1309 1875 1350 
L 1678 1375 
Q 931 1469 631 1722 
Q 331 1975 331 2491 
Q 331 3047 712 3315 
Q 1094 3584 1881 3584 
Q 2191 3584 2531 3537 
Q 2872 3491 3272 3391 
z
" transform="scale(0.015625)"/>
      <path id="DejaVuSans-Bold-74" d="M 1759 4494 
L 1759 3500 
L 2913 3500 
L 2913 2700 
L 1759 2700 
L 1759 1216 
Q 1759 972 1856 886 
Q 1953 800 2241 800 
L 2816 800 
L 2816 0 
L 1856 0 
Q 1194 0 917 276 
Q 641 553 641 1216 
L 641 2700 
L 84 2700 
L 84 3500 
L 641 3500 
L 641 4494 
L 1759 4494 
z
" transform="scale(0.015625)"/>
      <path id="DejaVuSans-Bold-43" d="M 4288 256 
Q 3956 84 3597 -3 
Q 3238 -91 2847 -91 
Q 1681 -91 1000 561 
Q 319 1213 319 2328 
Q 319 3447 1000 4098 
Q 1681 4750 2847 4750 
Q 3238 4750 3597 4662 
Q 3956 4575 4288 4403 
L 4288 3438 
Q 3953 3666 3628 3772 
Q 3303 3878 2944 3878 
Q 2300 3878 1931 3465 
Q 1563 3053 1563 2328 
Q 1563 1606 1931 1193 
Q 2300 781 2944 781 
Q 3303 781 3628 887 
Q 3953 994 4288 1222 
L 4288 256 
z
" transform="scale(0.015625)"/>
      <path id="DejaVuSans-Bold-70" d="M 1656 506 
L 1656 -1331 
L 538 -1331 
L 538 3500 
L 1656 3500 
L 1656 2988 
Q 1888 3294 2169 3439 
Q 2450 3584 2816 3584 
Q 3463 3584 3878 3070 
Q 4294 2556 4294 1747 
Q 4294 938 3878 423 
Q 3463 -91 2816 -91 
Q 2450 -91 2169 54 
Q 1888 200 1656 506 
z
M 2400 2772 
Q 2041 2772 1848 2508 
Q 1656 2244 1656 1747 
Q 1656 1250 1848 986 
Q 2041 722 2400 722 
Q 2759 722 2948 984 
Q 3138 1247 3138 1747 
Q 3138 2247 2948 2509 
Q 2759 2772 2400 2772 
z
" transform="scale(0.015625)"/>
      <path id="DejaVuSans-Bold-61" d="M 2106 1575 
Q 1756 1575 1579 1456 
Q 1403 1338 1403 1106 
Q 1403 894 1545 773 
Q 1688 653 1941 653 
Q 2256 653 2472 879 
Q 2688 1106 2688 1447 
L 2688 1575 
L 2106 1575 
z
M 3816 1997 
L 3816 0 
L 2688 0 
L 2688 519 
Q 2463 200 2181 54 
Q 1900 -91 1497 -91 
Q 953 -91 614 226 
Q 275 544 275 1050 
Q 275 1666 698 1953 
Q 1122 2241 2028 2241 
L 2688 2241 
L 2688 2328 
Q 2688 2594 2478 2717 
Q 2269 2841 1825 2841 
Q 1466 2841 1156 2769 
Q 847 2697 581 2553 
L 581 3406 
Q 941 3494 1303 3539 
Q 1666 3584 2028 3584 
Q 2975 3584 3395 3211 
Q 3816 2838 3816 1997 
z
" transform="scale(0.015625)"/>
      <path id="DejaVuSans-Bold-72" d="M 3138 2547 
Q 2991 2616 2845 2648 
Q 2700 2681 2553 2681 
Q 2122 2681 1889 2404 
Q 1656 2128 1656 1613 
L 1656 0 
L 538 0 
L 538 3500 
L 1656 3500 
L 1656 2925 
Q 1872 3269 2151 3426 
Q 2431 3584 2822 3584 
Q 2878 3584 2943 3579 
Q 3009 3575 3134 3559 
L 3138 2547 
z
" transform="scale(0.015625)"/>
      <path id="DejaVuSans-Bold-69" d="M 538 3500 
L 1656 3500 
L 1656 0 
L 538 0 
L 538 3500 
z
M 538 4863 
L 1656 4863 
L 1656 3950 
L 538 3950 
L 538 4863 
z
" transform="scale(0.015625)"/>
     </defs>
     <use xlink:href="#DejaVuSans-Bold-50"/>
     <use xlink:href="#DejaVuSans-Bold-65" x="73.291016"/>
     <use xlink:href="#DejaVuSans-Bold-6e" x="141.113281"/>
     <use xlink:href="#DejaVuSans-Bold-64" x="212.304688"/>
     <use xlink:href="#DejaVuSans-Bold-75" x="283.886719"/>
     <use xlink:href="#DejaVuSans-Bold-6c" x="355.078125"/>
     <use xlink:href="#DejaVuSans-Bold-75" x="389.355469"/>
     <use xlink:href="#DejaVuSans-Bold-6d" x="460.546875"/>
     <use xlink:href="#DejaVuSans-Bold-20" x="564.746094"/>
     <use xlink:href="#DejaVuSans-Bold-52" x="599.560547"/>
     <use xlink:href="#DejaVuSans-Bold-6f" x="676.5625"/>
     <use xlink:href="#DejaVuSans-Bold-62" x="745.263672"/>
     <use xlink:href="#DejaVuSans-Bold-75" x="816.845703"/>
     <use xlink:href="#DejaVuSans-Bold-73" x="888.037109"/>
     <use xlink:href="#DejaVuSans-Bold-74" x="947.558594"/>
     <use xlink:href="#DejaVuSans-Bold-6e" x="995.361328"/>
     <use xlink:href="#DejaVuSans-Bold-65" x="1066.552734"/>
     <use xlink:href="#DejaVuSans-Bold-73" x="1134.375"/>
     <use xlink:href="#DejaVuSans-Bold-73" x="1193.896484"/>
     <use xlink:href="#DejaVuSans-Bold-20" x="1253.417969"/>
     <use xlink:href="#DejaVuSans-Bold-43" x="1288.232422"/>
     <use xlink:href="#DejaVuSans-Bold-6f" x="1361.621094"/>
     <use xlink:href="#DejaVuSans-Bold-6d" x="1430.322266"/>
     <use xlink:href="#DejaVuSans-Bold-70" x="1534.521484"/>
     <use xlink:href="#DejaVuSans-Bold-61" x="1606.103516"/>
     <use xlink:href="#DejaVuSans-Bold-72" x="1673.583984"/>
     <use xlink:href="#DejaVuSans-Bold-69" x="1722.900391"/>
     <use xlink:href="#DejaVuSans-Bold-73" x="1757.177734"/>
     <use xlink:href="#DejaVuSans-Bold-6f" x="1816.699219"/>
     <use xlink:href="#DejaVuSans-Bold-6e" x="1885.400391"/>
    </g>
   </g>
   <g id="legend_1">
    <g id="patch_7">
     <path d="M 382.52554 84.674375 
L 442.042727 84.674375 
Q 444.042727 84.674375 444.042727 82.674375 
L 444.042727 39.64 
Q 444.042727 37.64 442.042727 37.64 
L 382.52554 37.64 
Q 380.52554 37.64 380.52554 39.64 
L 380.52554 82.674375 
Q 380.52554 84.674375 382.52554 84.674375 
z
" style="fill: #ffffff; opacity: 0.8; stroke: #cccccc; stroke-linejoin: miter"/>
    </g>
    <g id="line2d_38">
     <path d="M 384.52554 45.738437 
L 394.52554 45.738437 
L 404.52554 45.738437 
" style="fill: none; stroke: #1f77b4; stroke-width: 1.5; stroke-linecap: square"/>
    </g>
    <g id="text_21">
     <!-- SHAC -->
     <g transform="translate(412.52554 49.238437) scale(0.1 -0.1)">
      <defs>
       <path id="DejaVuSans-53" d="M 3425 4513 
L 3425 3897 
Q 3066 4069 2747 4153 
Q 2428 4238 2131 4238 
Q 1616 4238 1336 4038 
Q 1056 3838 1056 3469 
Q 1056 3159 1242 3001 
Q 1428 2844 1947 2747 
L 2328 2669 
Q 3034 2534 3370 2195 
Q 3706 1856 3706 1288 
Q 3706 609 3251 259 
Q 2797 -91 1919 -91 
Q 1588 -91 1214 -16 
Q 841 59 441 206 
L 441 856 
Q 825 641 1194 531 
Q 1563 422 1919 422 
Q 2459 422 2753 634 
Q 3047 847 3047 1241 
Q 3047 1584 2836 1778 
Q 2625 1972 2144 2069 
L 1759 2144 
Q 1053 2284 737 2584 
Q 422 2884 422 3419 
Q 422 4038 858 4394 
Q 1294 4750 2059 4750 
Q 2388 4750 2728 4690 
Q 3069 4631 3425 4513 
z
" transform="scale(0.015625)"/>
       <path id="DejaVuSans-48" d="M 628 4666 
L 1259 4666 
L 1259 2753 
L 3553 2753 
L 3553 4666 
L 4184 4666 
L 4184 0 
L 3553 0 
L 3553 2222 
L 1259 2222 
L 1259 0 
L 628 0 
L 628 4666 
z
" transform="scale(0.015625)"/>
       <path id="DejaVuSans-41" d="M 2188 4044 
L 1331 1722 
L 3047 1722 
L 2188 4044 
z
M 1831 4666 
L 2547 4666 
L 4325 0 
L 3669 0 
L 3244 1197 
L 1141 1197 
L 716 0 
L 50 0 
L 1831 4666 
z
" transform="scale(0.015625)"/>
       <path id="DejaVuSans-43" d="M 4122 4306 
L 4122 3641 
Q 3803 3938 3442 4084 
Q 3081 4231 2675 4231 
Q 1875 4231 1450 3742 
Q 1025 3253 1025 2328 
Q 1025 1406 1450 917 
Q 1875 428 2675 428 
Q 3081 428 3442 575 
Q 3803 722 4122 1019 
L 4122 359 
Q 3791 134 3420 21 
Q 3050 -91 2638 -91 
Q 1578 -91 968 557 
Q 359 1206 359 2328 
Q 359 3453 968 4101 
Q 1578 4750 2638 4750 
Q 3056 4750 3426 4639 
Q 3797 4528 4122 4306 
z
" transform="scale(0.015625)"/>
      </defs>
      <use xlink:href="#DejaVuSans-53"/>
      <use xlink:href="#DejaVuSans-48" x="63.476562"/>
      <use xlink:href="#DejaVuSans-41" x="138.671875"/>
      <use xlink:href="#DejaVuSans-43" x="205.330078"/>
     </g>
    </g>
    <g id="line2d_39">
     <path d="M 384.52554 60.416562 
L 394.52554 60.416562 
L 404.52554 60.416562 
" style="fill: none; stroke: #ff7f0e; stroke-width: 1.5; stroke-linecap: square"/>
    </g>
    <g id="text_22">
     <!-- PPO -->
     <g transform="translate(412.52554 63.916562) scale(0.1 -0.1)">
      <defs>
       <path id="DejaVuSans-50" d="M 1259 4147 
L 1259 2394 
L 2053 2394 
Q 2494 2394 2734 2622 
Q 2975 2850 2975 3272 
Q 2975 3691 2734 3919 
Q 2494 4147 2053 4147 
L 1259 4147 
z
M 628 4666 
L 2053 4666 
Q 2838 4666 3239 4311 
Q 3641 3956 3641 3272 
Q 3641 2581 3239 2228 
Q 2838 1875 2053 1875 
L 1259 1875 
L 1259 0 
L 628 0 
L 628 4666 
z
" transform="scale(0.015625)"/>
       <path id="DejaVuSans-4f" d="M 2522 4238 
Q 1834 4238 1429 3725 
Q 1025 3213 1025 2328 
Q 1025 1447 1429 934 
Q 1834 422 2522 422 
Q 3209 422 3611 934 
Q 4013 1447 4013 2328 
Q 4013 3213 3611 3725 
Q 3209 4238 2522 4238 
z
M 2522 4750 
Q 3503 4750 4090 4092 
Q 4678 3434 4678 2328 
Q 4678 1225 4090 567 
Q 3503 -91 2522 -91 
Q 1538 -91 948 565 
Q 359 1222 359 2328 
Q 359 3434 948 4092 
Q 1538 4750 2522 4750 
z
" transform="scale(0.015625)"/>
      </defs>
      <use xlink:href="#DejaVuSans-50"/>
      <use xlink:href="#DejaVuSans-50" x="60.302734"/>
      <use xlink:href="#DejaVuSans-4f" x="120.605469"/>
     </g>
    </g>
    <g id="line2d_40">
     <path d="M 384.52554 75.094687 
L 394.52554 75.094687 
L 404.52554 75.094687 
" style="fill: none; stroke: #2ca02c; stroke-width: 1.5; stroke-linecap: square"/>
    </g>
    <g id="text_23">
     <!-- SAC -->
     <g transform="translate(412.52554 78.594687) scale(0.1 -0.1)">
      <use xlink:href="#DejaVuSans-53"/>
      <use xlink:href="#DejaVuSans-41" x="65.351562"/>
      <use xlink:href="#DejaVuSans-43" x="132.009766"/>
     </g>
    </g>
   </g>
  </g>
 </g>
 <defs>
  <clipPath id="pe9288f8366">
   <rect x="68.51" y="32.64" width="380.532727" height="266.68"/>
  </clipPath>
 </defs>
</svg>
